<?xml version="1.0" encoding="utf-8" standalone="yes"?>
<!DOCTYPE svg PUBLIC "-//W3C//DTD SVG 1.1//EN" "http://www.w3.org/Graphics/SVG/1.1/DTD/svg11.dtd">
<svg width="866" height="434" viewBox="0 0 866 434" style="fill:none;stroke:none;fill-rule:evenodd;clip-rule:evenodd;stroke-linecap:round;stroke-linejoin:round;stroke-miterlimit:1.5;" version="1.1" xmlns="http://www.w3.org/2000/svg" xmlns:xlink="http://www.w3.org/1999/xlink"><style id="fontImports">@import url("https://fonts.googleapis.com/css2?family=Roboto:wght@400;700&amp;display=block");</style><rect id="" x="0" y="0" width="866" height="434" style="fill: #ffffff;"></rect><g id="items" style="isolation: isolate"><g id="blend" style="mix-blend-mode: normal"><g id="g-root-tf_v481wsa15ma0-fill" data-item-order="-373248" transform="translate(-9, -9)"><g id="tf_v481wsa15ma0-fill" stroke="none" fill="#ffffff"><g><path d="M 10 10L 874 10L 874 442L 10 442Z"></path></g></g></g><g id="g-root--1.line_sy_qqb0z09r0dmp-fill" data-item-order="-156665" transform="translate(762, 242.99609375)"></g><g id="g-root--1.vector_sy_huo0q49r0efe-fill" data-item-order="-156663" transform="translate(15, 242.99609375)"></g><g id="g-root-8.cr-big_cr_deuilo9r0f7n-fill" data-item-order="-156660" transform="translate(723, 266.998046875)"><g id="8.cr-big_cr_deuilo9r0f7n-fill" stroke="none" fill="#de58a9"><g><path d="M 10 46C 10 65.882251 26.117749 82 46 82C 65.882251 82 82 65.882251 82 46C 82 26.117749 65.882251 10 46 10C 26.117749 10 10 26.117749 10 46"></path></g></g></g><g id="g-root-8.cu-smallCircle_sy_4jtzfw9r0cuk-fill" data-item-order="-156657" transform="translate(756, 240.001953125)"></g><g id="g-root-8.ln_ln_40hbg9r0dmt-fill" data-item-order="-156655" transform="translate(759, 246.001953125)"></g><g id="g-root-7.cr-big_cr_zn6ze49r0e8e-fill" data-item-order="-156652" transform="translate(627, 147)"><g id="7.cr-big_cr_zn6ze49r0e8e-fill" stroke="none" fill="#e55753"><g><path d="M 10 46C 10 65.882251 26.117749 82 46 82C 65.882251 82 82 65.882251 82 46C 82 26.117749 65.882251 10 46 10C 26.117749 10 10 26.117749 10 46"></path></g></g></g><g id="g-root-7.cu-smallCircle_sy_v7dh9o9r0f0n-fill" data-item-order="-156649" transform="translate(660, 239.99609375)"></g><g id="g-root-7.ln_ln_qrjz589r0fsw-fill" data-item-order="-156647" transform="translate(663, 219)"></g><g id="g-root-6.cr-big_cr_qrjz589r0fsx-fill" data-item-order="-156644" transform="translate(531, 266.998046875)"><g id="6.cr-big_cr_qrjz589r0fsx-fill" stroke="none" fill="#de8431"><g><path d="M 10 46C 10 65.882251 26.117749 82 46 82C 65.882251 82 82 65.882251 82 46C 82 26.117749 65.882251 10 46 10C 26.117749 10 10 26.117749 10 46"></path></g></g></g><g id="g-root-6.cu-smallCircle_sy_hwjfzg9r0dfu-fill" data-item-order="-156641" transform="translate(564, 240.001953125)"></g><g id="g-root-6.ln_ln_dgpxv09r0e83-fill" data-item-order="-156639" transform="translate(567, 246.001953125)"></g><g id="g-root-5.cr-big_cr_4l2xm49r0f0s-fill" data-item-order="-156636" transform="translate(435, 147)"><g id="5.cr-big_cr_4l2xm49r0f0s-fill" stroke="none" fill="#e0cb15"><g><path d="M 10 46C 10 65.882251 26.117749 82 46 82C 65.882251 82 82 65.882251 82 46C 82 26.117749 65.882251 10 46 10C 26.117749 10 10 26.117749 10 46"></path></g></g></g><g id="g-root-5.cu-smallCircle_sy_59fho9r0ft1-fill" data-item-order="-156633" transform="translate(468, 239.99609375)"></g><g id="g-root-5.ln_ln_1qbcyb09r0d8u-fill" data-item-order="-156631" transform="translate(471, 219)"></g><g id="g-root-4.cr-big_cr_1qbcyb09r0d8v-fill" data-item-order="-156628" transform="translate(339, 266.998046875)"><g id="4.cr-big_cr_1qbcyb09r0d8v-fill" stroke="none" fill="#92bd39"><g><path d="M 10 46C 10 65.882251 26.117749 82 46 82C 65.882251 82 82 65.882251 82 46C 82 26.117749 65.882251 10 46 10C 26.117749 10 10 26.117749 10 46"></path></g></g></g><g id="g-root-4.cu-smallCircle_sy_1lvjg6k9r0e14-fill" data-item-order="-156625" transform="translate(372, 240.001953125)"></g><g id="g-root-4.ln_ln_1hfpy249r0etd-fill" data-item-order="-156623" transform="translate(375, 246.001953125)"></g><g id="g-root-3.cr-big_cr_18k2xt89r0fm2-fill" data-item-order="-156620" transform="translate(243, 147)"><g id="3.cr-big_cr_18k2xt89r0fm2-fill" stroke="none" fill="#3cc583"><g><path d="M 10 46C 10 65.882251 26.117749 82 46 82C 65.882251 82 82 65.882251 82 46C 82 26.117749 65.882251 10 46 10C 26.117749 10 10 26.117749 10 46"></path></g></g></g><g id="g-root-3.cu-smallCircle_sy_144vwrw9r0d8j-fill" data-item-order="-156617" transform="translate(276, 239.99609375)"></g><g id="g-root-3.ln_ln_v98wj09r0e18-fill" data-item-order="-156615" transform="translate(279, 219)"></g><g id="g-root-2.cr-big_cr_v98wj09r0e19-fill" data-item-order="-156612" transform="translate(147, 267)"><g id="2.cr-big_cr_v98wj09r0e19-fill" stroke="none" fill="#1eabda"><g><path d="M 10 46C 10 65.882251 26.117749 82 46 82C 65.882251 82 82 65.882251 82 46C 82 26.117749 65.882251 10 46 10C 26.117749 10 10 26.117749 10 46"></path></g></g></g><g id="g-root-2.cu-smallCircle_sy_qtfeek9r0eti-fill" data-item-order="-156609" transform="translate(180, 240.001953125)"></g><g id="g-root-2.ln_ln_hxse5o9r0fm7-fill" data-item-order="-156607" transform="translate(183, 246.001953125)"></g><g id="g-root-1.cr-big_cr_dild4c9r0d8o-fill" data-item-order="-156604" transform="translate(51, 147)"><g id="1.cr-big_cr_dild4c9r0d8o-fill" stroke="none" fill="#4e88e7"><g><path d="M 10 46C 10 65.882251 26.117749 82 46 82C 65.882251 82 82 65.882251 82 46C 82 26.117749 65.882251 10 46 10C 26.117749 10 10 26.117749 10 46"></path></g></g></g><g id="g-root-1.cu-smallCircle_sy_92ruzw9r0e0x-fill" data-item-order="-156601" transform="translate(84, 239.99609375)"></g><g id="g-root-1.ln_ln_74ur09r0etm-fill" data-item-order="-156599" transform="translate(87, 219)"></g><g id="g-root-circ_zoesh8a1b8y4-fill" data-item-order="0" transform="translate(255, 159)"></g><g id="g-root-1_dikb70a146q6-fill" data-item-order="0" transform="translate(63, 159)"></g><g id="g-root-chec_958m98a0yl8v-fill" data-item-order="0" transform="translate(447, 159)"></g><g id="g-root-tx__1hhkbe4a147bc-fill" data-item-order="0" transform="translate(609, 111)"><g id="tx__1hhkbe4a147bc-fill" stroke="none" fill="#543a3a"><g><text style="font: 20px Roboto, sans-serif; white-space: pre;" font-size="20px" font-family="Roboto, sans-serif"><tspan x="14" y="33.5" dominant-baseline="ideographic">认证和授权</tspan></text></g></g></g><g id="g-root-tx__73stoa148b3-fill" data-item-order="0" transform="translate(693, 351)"><g id="tx__73stoa148b3-fill" stroke="none" fill="#573e4d"><g><text style="font: 20px Roboto, sans-serif; white-space: pre;" font-size="20px" font-family="Roboto, sans-serif"><tspan x="16" y="33.5" dominant-baseline="ideographic">动态配置管理</tspan></text></g></g></g><g id="g-root-tx__1463t0sa148wa-fill" data-item-order="0" transform="translate(429, 111)"><g id="tx__1463t0sa148wa-fill" stroke="none" fill="#46432d"><g><text style="font: 20px Roboto, sans-serif; white-space: pre;" font-size="20px" font-family="Roboto, sans-serif"><tspan x="12" y="33.5" dominant-baseline="ideographic">健康检查</tspan></text></g></g></g><g id="g-root-tx__mfg9m4a1483o-fill" data-item-order="0" transform="translate(237, 111)"><g id="tx__mfg9m4a1483o-fill" stroke="none" fill="#374840"><g><text style="font: 20px Roboto, sans-serif; white-space: pre;" font-size="20px" font-family="Roboto, sans-serif"><tspan x="12" y="33.5" dominant-baseline="ideographic">请求路由</tspan></text></g></g></g><g id="g-root-tx__1uu9rxoa147wm-fill" data-item-order="0" transform="translate(15, 111)"><g id="tx__1uu9rxoa147wm-fill" stroke="none" fill="#3a4455"><g><text style="font: 20px Roboto, sans-serif; white-space: pre;" font-size="20px" font-family="Roboto, sans-serif"><tspan x="12" y="33.5" dominant-baseline="ideographic">客户端发送请求</tspan></text></g></g></g><g id="g-root-send_dcy1f0a0vqj1-fill" data-item-order="0" transform="translate(159, 279)"></g><g id="g-root-exch_1hckfjga15ma0-fill" data-item-order="0" transform="translate(351, 279)"></g><g id="g-root-bars_1ltmvu4a0vrwh-fill" data-item-order="0" transform="translate(543, 279)"></g><g id="g-root-slid_1qf3vzg9rd0y1-fill" data-item-order="0" transform="translate(735, 279)"></g><g id="g-root-tx_envoy_18nsqeka1474f-fill" data-item-order="0" transform="translate(327, 27)"><g id="tx_envoy_18nsqeka1474f-fill" stroke="none" fill="#484848"><g><text style="font: bold 20px Roboto, sans-serif; white-space: pre;" font-weight="bold" font-size="20px" font-family="Roboto, sans-serif"><tspan x="16.7" y="33.5" dominant-baseline="ideographic">Envoy 代理请求处理</tspan></text></g></g></g><g id="g-root-tx__zqwrzga146ir-fill" data-item-order="0" transform="translate(303, 351)"><g id="tx__zqwrzga146ir-fill" stroke="none" fill="#424736"><g><text style="font: 20px Roboto, sans-serif; white-space: pre;" font-size="20px" font-family="Roboto, sans-serif"><tspan x="12" y="33.5" dominant-baseline="ideographic">转发到上游服务</tspan></text></g></g></g><g id="g-root-tx__1d1qt9oa1483l-fill" data-item-order="0" transform="translate(525, 351)"><g id="tx__1d1qt9oa1483l-fill" stroke="none" fill="#4c4034"><g><text style="font: 20px Roboto, sans-serif; white-space: pre;" font-size="20px" font-family="Roboto, sans-serif"><tspan x="12" y="33.5" dominant-baseline="ideographic">数据收集</tspan></text></g></g></g><g id="g-root-chec_qp294c9r8v7x-fill" data-item-order="0" transform="translate(639, 159)"></g><g id="g-root-tx_envoy_94m8bwa146it-fill" data-item-order="0" transform="translate(111, 351)"><g id="tx_envoy_94m8bwa146it-fill" stroke="none" fill="#32444a"><g><text style="font: 20px Roboto, sans-serif; white-space: pre;" font-size="20px" font-family="Roboto, sans-serif"><tspan x="13.19" y="33.5" dominant-baseline="ideographic">Envoy 接收请求</tspan></text></g></g></g><g id="g-root-tf_v481wsa15ma0-stroke" data-item-order="-373248" transform="translate(-9, -9)"></g><g id="g-root--1.line_sy_qqb0z09r0dmp-stroke" data-item-order="-156665" transform="translate(762, 242.99609375)"><g id="-1.line_sy_qqb0z09r0dmp-stroke" fill="none" stroke-linecap="round" stroke-linejoin="round" stroke-miterlimit="4" stroke="#484848" stroke-width="2"><g><path d="M 77 10.003906L 10 10.003906"></path><path d="M 71 16.503906L 77.5 10.003906L 71 3.503906" stroke-dasharray="none"></path></g></g></g><g id="g-root--1.vector_sy_huo0q49r0efe-stroke" data-item-order="-156663" transform="translate(15, 242.99609375)"><g id="-1.vector_sy_huo0q49r0efe-stroke" fill="none" stroke-linecap="round" stroke-linejoin="round" stroke-miterlimit="4" stroke="#484848" stroke-width="2"><g><path d="M 751 10L 661 10M 655 10L 565 10M 559 10L 469 10M 78.9976 10L 10 10M 174.9976 10L 84.9976 10M 271 10L 181 10M 367 10L 277 10M 463 10L 373 10"></path></g></g></g><g id="g-root-8.cr-big_cr_deuilo9r0f7n-stroke" data-item-order="-156660" transform="translate(723, 266.998046875)"><g id="8.cr-big_cr_deuilo9r0f7n-stroke" fill="none" stroke-linecap="round" stroke-linejoin="round" stroke-miterlimit="4" stroke="#ffffff" stroke-width="2"><g><path d="M 10 46C 10 65.882251 26.117749 82 46 82C 65.882251 82 82 65.882251 82 46C 82 26.117749 65.882251 10 46 10C 26.117749 10 10 26.117749 10 46"></path></g></g></g><g id="g-root-8.cu-smallCircle_sy_4jtzfw9r0cuk-stroke" data-item-order="-156657" transform="translate(756, 240.001953125)"><g id="8.cu-smallCircle_sy_4jtzfw9r0cuk-stroke" fill="none" stroke-linecap="round" stroke-linejoin="round" stroke-miterlimit="4" stroke="#de58a9" stroke-width="2"><g><path d="M 10 13C 10 11.343109 11.343079 10 13 10C 14.656921 10 16 11.343109 16 13C 16 14.656891 14.656921 16 13 16C 11.343079 16 10 14.656891 10 13Z"></path></g></g></g><g id="g-root-8.ln_ln_40hbg9r0dmt-stroke" data-item-order="-156655" transform="translate(759, 246.001953125)"><g id="8.ln_ln_40hbg9r0dmt-stroke" fill="none" stroke-linecap="round" stroke-linejoin="round" stroke-miterlimit="4" stroke="#de58a9" stroke-width="2"><g><path d="M 10 31L 10 20.5L 10 10"></path></g></g></g><g id="g-root-7.cr-big_cr_zn6ze49r0e8e-stroke" data-item-order="-156652" transform="translate(627, 147)"><g id="7.cr-big_cr_zn6ze49r0e8e-stroke" fill="none" stroke-linecap="round" stroke-linejoin="round" stroke-miterlimit="4" stroke="#ffffff" stroke-width="2"><g><path d="M 10 46C 10 65.882251 26.117749 82 46 82C 65.882251 82 82 65.882251 82 46C 82 26.117749 65.882251 10 46 10C 26.117749 10 10 26.117749 10 46"></path></g></g></g><g id="g-root-7.cu-smallCircle_sy_v7dh9o9r0f0n-stroke" data-item-order="-156649" transform="translate(660, 239.99609375)"><g id="7.cu-smallCircle_sy_v7dh9o9r0f0n-stroke" fill="none" stroke-linecap="round" stroke-linejoin="round" stroke-miterlimit="4" stroke="#e55753" stroke-width="2"><g><path d="M 16 13C 16 14.6569 14.6569 16 13 16C 11.3431 16 10 14.6569 10 13C 10 11.3431 11.3431 10 13 10C 14.6569 10 16 11.3431 16 13Z"></path></g></g></g><g id="g-root-7.ln_ln_qrjz589r0fsw-stroke" data-item-order="-156647" transform="translate(663, 219)"><g id="7.ln_ln_qrjz589r0fsw-stroke" fill="none" stroke-linecap="round" stroke-linejoin="round" stroke-miterlimit="4" stroke="#e55753" stroke-width="2"><g><path d="M 10 10L 10 20.5L 10 31"></path></g></g></g><g id="g-root-6.cr-big_cr_qrjz589r0fsx-stroke" data-item-order="-156644" transform="translate(531, 266.998046875)"><g id="6.cr-big_cr_qrjz589r0fsx-stroke" fill="none" stroke-linecap="round" stroke-linejoin="round" stroke-miterlimit="4" stroke="#ffffff" stroke-width="2"><g><path d="M 10 46C 10 65.882251 26.117749 82 46 82C 65.882251 82 82 65.882251 82 46C 82 26.117749 65.882251 10 46 10C 26.117749 10 10 26.117749 10 46"></path></g></g></g><g id="g-root-6.cu-smallCircle_sy_hwjfzg9r0dfu-stroke" data-item-order="-156641" transform="translate(564, 240.001953125)"><g id="6.cu-smallCircle_sy_hwjfzg9r0dfu-stroke" fill="none" stroke-linecap="round" stroke-linejoin="round" stroke-miterlimit="4" stroke="#de8431" stroke-width="2"><g><path d="M 10 13C 10 11.343109 11.343079 10 13 10C 14.656921 10 16 11.343109 16 13C 16 14.656891 14.656921 16 13 16C 11.343079 16 10 14.656891 10 13Z"></path></g></g></g><g id="g-root-6.ln_ln_dgpxv09r0e83-stroke" data-item-order="-156639" transform="translate(567, 246.001953125)"><g id="6.ln_ln_dgpxv09r0e83-stroke" fill="none" stroke-linecap="round" stroke-linejoin="round" stroke-miterlimit="4" stroke="#de8431" stroke-width="2"><g><path d="M 10 31L 10 20.5L 10 10"></path></g></g></g><g id="g-root-5.cr-big_cr_4l2xm49r0f0s-stroke" data-item-order="-156636" transform="translate(435, 147)"><g id="5.cr-big_cr_4l2xm49r0f0s-stroke" fill="none" stroke-linecap="round" stroke-linejoin="round" stroke-miterlimit="4" stroke="#ffffff" stroke-width="2"><g><path d="M 10 46C 10 65.882251 26.117749 82 46 82C 65.882251 82 82 65.882251 82 46C 82 26.117749 65.882251 10 46 10C 26.117749 10 10 26.117749 10 46"></path></g></g></g><g id="g-root-5.cu-smallCircle_sy_59fho9r0ft1-stroke" data-item-order="-156633" transform="translate(468, 239.99609375)"><g id="5.cu-smallCircle_sy_59fho9r0ft1-stroke" fill="none" stroke-linecap="round" stroke-linejoin="round" stroke-miterlimit="4" stroke="#e0cb15" stroke-width="2"><g><path d="M 16 13C 16 14.6569 14.6569 16 13 16C 11.3431 16 10 14.6569 10 13C 10 11.3431 11.3431 10 13 10C 14.6569 10 16 11.3431 16 13Z"></path></g></g></g><g id="g-root-5.ln_ln_1qbcyb09r0d8u-stroke" data-item-order="-156631" transform="translate(471, 219)"><g id="5.ln_ln_1qbcyb09r0d8u-stroke" fill="none" stroke-linecap="round" stroke-linejoin="round" stroke-miterlimit="4" stroke="#e0cb15" stroke-width="2"><g><path d="M 10 10L 10 20.5L 10 31"></path></g></g></g><g id="g-root-4.cr-big_cr_1qbcyb09r0d8v-stroke" data-item-order="-156628" transform="translate(339, 266.998046875)"><g id="4.cr-big_cr_1qbcyb09r0d8v-stroke" fill="none" stroke-linecap="round" stroke-linejoin="round" stroke-miterlimit="4" stroke="#ffffff" stroke-width="2"><g><path d="M 10 46C 10 65.882251 26.117749 82 46 82C 65.882251 82 82 65.882251 82 46C 82 26.117749 65.882251 10 46 10C 26.117749 10 10 26.117749 10 46"></path></g></g></g><g id="g-root-4.cu-smallCircle_sy_1lvjg6k9r0e14-stroke" data-item-order="-156625" transform="translate(372, 240.001953125)"><g id="4.cu-smallCircle_sy_1lvjg6k9r0e14-stroke" fill="none" stroke-linecap="round" stroke-linejoin="round" stroke-miterlimit="4" stroke="#92bd39" stroke-width="2"><g><path d="M 10 13C 10 11.343109 11.343079 10 13 10C 14.656921 10 16 11.343109 16 13C 16 14.656891 14.656921 16 13 16C 11.343079 16 10 14.656891 10 13Z"></path></g></g></g><g id="g-root-4.ln_ln_1hfpy249r0etd-stroke" data-item-order="-156623" transform="translate(375, 246.001953125)"><g id="4.ln_ln_1hfpy249r0etd-stroke" fill="none" stroke-linecap="round" stroke-linejoin="round" stroke-miterlimit="4" stroke="#92bd39" stroke-width="2"><g><path d="M 10 31L 10 20.5L 10 10"></path></g></g></g><g id="g-root-3.cr-big_cr_18k2xt89r0fm2-stroke" data-item-order="-156620" transform="translate(243, 147)"><g id="3.cr-big_cr_18k2xt89r0fm2-stroke" fill="none" stroke-linecap="round" stroke-linejoin="round" stroke-miterlimit="4" stroke="#ffffff" stroke-width="2"><g><path d="M 10 46C 10 65.882251 26.117749 82 46 82C 65.882251 82 82 65.882251 82 46C 82 26.117749 65.882251 10 46 10C 26.117749 10 10 26.117749 10 46"></path></g></g></g><g id="g-root-3.cu-smallCircle_sy_144vwrw9r0d8j-stroke" data-item-order="-156617" transform="translate(276, 239.99609375)"><g id="3.cu-smallCircle_sy_144vwrw9r0d8j-stroke" fill="none" stroke-linecap="round" stroke-linejoin="round" stroke-miterlimit="4" stroke="#3cc583" stroke-width="2"><g><path d="M 16 13C 16 14.6569 14.6569 16 13 16C 11.3431 16 10 14.6569 10 13C 10 11.3431 11.3431 10 13 10C 14.6569 10 16 11.3431 16 13Z"></path></g></g></g><g id="g-root-3.ln_ln_v98wj09r0e18-stroke" data-item-order="-156615" transform="translate(279, 219)"><g id="3.ln_ln_v98wj09r0e18-stroke" fill="none" stroke-linecap="round" stroke-linejoin="round" stroke-miterlimit="4" stroke="#3cc583" stroke-width="2"><g><path d="M 10 10L 10 20.5L 10 31"></path></g></g></g><g id="g-root-2.cr-big_cr_v98wj09r0e19-stroke" data-item-order="-156612" transform="translate(147, 267)"><g id="2.cr-big_cr_v98wj09r0e19-stroke" fill="none" stroke-linecap="round" stroke-linejoin="round" stroke-miterlimit="4" stroke="#ffffff" stroke-width="2"><g><path d="M 10 46C 10 65.882251 26.117749 82 46 82C 65.882251 82 82 65.882251 82 46C 82 26.117749 65.882251 10 46 10C 26.117749 10 10 26.117749 10 46"></path></g></g></g><g id="g-root-2.cu-smallCircle_sy_qtfeek9r0eti-stroke" data-item-order="-156609" transform="translate(180, 240.001953125)"><g id="2.cu-smallCircle_sy_qtfeek9r0eti-stroke" fill="none" stroke-linecap="round" stroke-linejoin="round" stroke-miterlimit="4" stroke="#1eabda" stroke-width="2"><g><path d="M 10 13C 10 11.343109 11.343109 10 13 10C 14.656891 10 16 11.343109 16 13C 16 14.656891 14.656891 16 13 16C 11.343109 16 10 14.656891 10 13Z"></path></g></g></g><g id="g-root-2.ln_ln_hxse5o9r0fm7-stroke" data-item-order="-156607" transform="translate(183, 246.001953125)"><g id="2.ln_ln_hxse5o9r0fm7-stroke" fill="none" stroke-linecap="round" stroke-linejoin="round" stroke-miterlimit="4" stroke="#1eabda" stroke-width="2"><g><path d="M 10 31L 10 20.5L 10 10"></path></g></g></g><g id="g-root-1.cr-big_cr_dild4c9r0d8o-stroke" data-item-order="-156604" transform="translate(51, 147)"><g id="1.cr-big_cr_dild4c9r0d8o-stroke" fill="none" stroke-linecap="round" stroke-linejoin="round" stroke-miterlimit="4" stroke="#ffffff" stroke-width="2"><g><path d="M 10 46C 10 65.882251 26.117749 82 46 82C 65.882251 82 82 65.882251 82 46C 82 26.117749 65.882251 10 46 10C 26.117749 10 10 26.117749 10 46"></path></g></g></g><g id="g-root-1.cu-smallCircle_sy_92ruzw9r0e0x-stroke" data-item-order="-156601" transform="translate(84, 239.99609375)"><g id="1.cu-smallCircle_sy_92ruzw9r0e0x-stroke" fill="none" stroke-linecap="round" stroke-linejoin="round" stroke-miterlimit="4" stroke="#4e88e7" stroke-width="2"><g><path d="M 16 13C 16 14.6569 14.6569 16 13 16C 11.3431 16 10 14.6569 10 13C 10 11.3431 11.3431 10 13 10C 14.6569 10 16 11.3431 16 13Z"></path></g></g></g><g id="g-root-1.ln_ln_74ur09r0etm-stroke" data-item-order="-156599" transform="translate(87, 219)"><g id="1.ln_ln_74ur09r0etm-stroke" fill="none" stroke-linecap="round" stroke-linejoin="round" stroke-miterlimit="4" stroke="#4e88e7" stroke-width="2"><g><path d="M 10 10L 10 20.5L 10 31"></path></g></g></g><g id="g-root-circ_zoesh8a1b8y4-stroke" data-item-order="0" transform="translate(255, 159)"><g id="circ_zoesh8a1b8y4-stroke" fill="none" stroke-linecap="round" stroke-linejoin="round" stroke-miterlimit="4" stroke="#ffffff" stroke-width="2"><g><path d="M 53.439999 21.720001C 55.775639 25.389091 57.011059 29.650595 57 34C 56.993427 46.036533 47.707756 56.032291 35.704315 56.924206C 23.700874 57.81612 13.039869 49.30249 11.254445 37.399113C 9.469021 25.495735 17.163105 14.228972 28.9 11.56M 53.400002 36.799999C 54.682594 35.684998 55.879318 34.474903 56.98 33.18M 45.68 40.919998C 47.131657 40.636677 48.524742 40.1092 49.799999 39.360001M 36.919998 39.739998C 38.295506 40.258415 39.714443 40.653309 41.160004 40.920002M 28.48 36.720001C 29.908157 37.08942 31.311058 37.550373 32.68 38.100002M 19.74 37.360001C 20.646755 36.844826 21.645493 36.511913 22.68 36.379997C 23.115772 36.302429 23.557383 36.26228 24 36.260002M 13.72 44.84C 14.413002 43.198399 15.313684 41.652454 16.4 40.239998M 40 11C 44.860107 11 48.800003 14.939894 48.800003 19.799999C 48.799999 23.619999 43.400002 30.92 41.059998 33.799999C 40.810295 34.133041 40.416206 34.326366 40 34.32C 39.588646 34.324879 39.197853 34.140541 38.940002 33.82C 36.599998 30.84 31.200001 23.540001 31.200001 19.82C 31.194689 17.482632 32.119484 15.239176 33.770378 13.584528C 35.421276 11.929879 37.662628 10.999994 40 11ZM 43.299999 19.799999C 43.299999 21.62254 41.82254 23.1 40 23.1C 38.17746 23.1 36.700001 21.62254 36.700001 19.799999C 36.700001 17.977461 38.17746 16.5 40 16.5C 41.82254 16.5 43.299999 17.977461 43.299999 19.799999Z"></path></g></g></g><g id="g-root-1_dikb70a146q6-stroke" data-item-order="0" transform="translate(63, 159)"><g id="1_dikb70a146q6-stroke" fill="none" stroke-linecap="round" stroke-linejoin="round" stroke-miterlimit="4" stroke="#ffffff" stroke-width="2"><g><path d="M 31 43L 31 50C 31 52.209141 29.209139 54 27 54L 15 54C 12.790861 54 11 52.209141 11 50L 11 18C 11 15.790861 12.790861 14 15 14L 27 14C 29.209139 14 31 15.790861 31 18L 31 25M 31 22L 11 22M 31 46L 11 46M 18 18L 24 18M 37 25L 37 18C 37 15.790861 38.790863 14 41 14L 53 14C 55.209141 14 57 15.790861 57 18L 57 50C 57 52.209141 55.209141 54 53 54L 41 54C 38.790863 54 37 52.209141 37 50L 37 43M 57 22L 37 22M 57 46L 37 46M 44 18L 50 18M 27.954 28.032L 39.954002 40.031998M 39.954002 28.032L 27.954 40.031998M 21 49.5C 21.276142 49.5 21.5 49.723858 21.5 50L 21.5 50C 21.5 50.276142 21.276142 50.5 21 50.5L 21 50.5C 20.723858 50.5 20.5 50.276142 20.5 50L 20.5 50C 20.5 49.723858 20.723858 49.5 21 49.5M 21 49.5L 21 49.5M 47 49.5C 47.276142 49.5 47.5 49.723858 47.5 50L 47.5 50C 47.5 50.276142 47.276142 50.5 47 50.5L 47 50.5C 46.723858 50.5 46.5 50.276142 46.5 50L 46.5 50C 46.5 49.723858 46.723858 49.5 47 49.5M 47 49.5L 47 49.5"></path></g></g></g><g id="g-root-chec_958m98a0yl8v-stroke" data-item-order="0" transform="translate(447, 159)"><g id="chec_958m98a0yl8v-stroke" fill="none" stroke-linecap="round" stroke-linejoin="round" stroke-miterlimit="4" stroke="#ffffff" stroke-width="2"><g><path d="M 42.57143 15.142858L 47.714287 15.142858C 49.607834 15.142858 51.142857 16.677881 51.142857 18.571428L 51.142857 52.857143C 51.142857 54.750694 49.607834 56.285713 47.714287 56.285713L 20.285715 56.285713C 18.392166 56.285713 16.857143 54.750694 16.857143 52.857143L 16.857143 18.571428C 16.857143 16.677881 18.392166 15.142858 20.285715 15.142858L 25.428572 15.142858M 28.857143 11.714286L 39.142857 11.714286C 39.142857 11.714286 42.57143 11.714286 42.57143 15.142858L 42.57143 16.857143C 42.57143 16.857143 42.57143 20.285715 39.142857 20.285715L 28.857143 20.285715C 28.857143 20.285715 25.428572 20.285715 25.428572 16.857143L 25.428572 15.142858C 25.428572 15.142858 25.428572 11.714286 28.857143 11.714286M 25.428572 39.142857L 32.285713 44.285713L 40.857143 30.571428"></path></g></g></g><g id="g-root-tx__1hhkbe4a147bc-stroke" data-item-order="0" transform="translate(609, 111)"></g><g id="g-root-tx__73stoa148b3-stroke" data-item-order="0" transform="translate(693, 351)"></g><g id="g-root-tx__1463t0sa148wa-stroke" data-item-order="0" transform="translate(429, 111)"></g><g id="g-root-tx__mfg9m4a1483o-stroke" data-item-order="0" transform="translate(237, 111)"></g><g id="g-root-tx__1uu9rxoa147wm-stroke" data-item-order="0" transform="translate(15, 111)"></g><g id="g-root-send_dcy1f0a0vqj1-stroke" data-item-order="0" transform="translate(159, 279)"><g id="send_dcy1f0a0vqj1-stroke" fill="none" stroke-linecap="round" stroke-linejoin="round" stroke-miterlimit="4" stroke="#ffffff" stroke-width="2"><g><path d="M 39 26.908001L 11 26.908001L 11 40.908001L 39 40.908001L 39 50.908001L 57 33.908001L 39 16.908001L 39 26.908001Z"></path></g></g></g><g id="g-root-exch_1hckfjga15ma0-stroke" data-item-order="0" transform="translate(351, 279)"><g id="exch_1hckfjga15ma0-stroke" fill="none" stroke-linecap="round" stroke-linejoin="round" stroke-miterlimit="4" stroke="#ffffff" stroke-width="2"><g><path d="M 19 27L 19 22.5C 18.999468 20.509674 19.790298 18.6008 21.198235 17.193989C 22.606171 15.787179 24.515675 14.997876 26.506001 15L 30 15M 23.006001 23L 19.006001 27L 15.006001 23M 27.006001 12L 30.006001 15L 27.006001 18M 57 15C 57 17.209139 55.209141 19 53 19L 43 19C 40.790863 19 39 17.209139 39 15C 39 12.790861 40.790863 11 43 11L 53 11C 55.209141 11 57 12.790861 57 15ZM 44.5 14.5C 44.223858 14.5 44 14.723858 44 15C 44 15.276142 44.223858 15.5 44.5 15.5C 44.776142 15.5 45 15.276142 45 15C 45 14.723858 44.776142 14.5 44.5 14.5L 44.5 14.5M 57 23C 57 25.209139 55.209141 27 53 27L 43 27C 40.790863 27 39 25.209139 39 23C 39 20.790861 40.790863 19 43 19L 53 19C 55.209141 19 57 20.790861 57 23ZM 44.5 22.5C 44.223858 22.5 44 22.723858 44 23C 44 23.276142 44.223858 23.5 44.5 23.5C 44.776142 23.5 45 23.276142 45 23C 45 22.723858 44.776142 22.5 44.5 22.5L 44.5 22.5M 57 31C 57 33.209137 55.209141 35 53 35L 43 35C 40.790863 35 39 33.209137 39 31C 39 28.790861 40.790863 27 43 27L 53 27C 55.209141 27 57 28.790861 57 31ZM 44.5 30.5C 44.223858 30.5 44 30.723858 44 31C 44 31.276142 44.223858 31.5 44.5 31.5C 44.776142 31.5 45 31.276142 45 31C 45 30.723858 44.776142 30.5 44.5 30.5L 44.5 30.5M 29 37C 29 39.209137 27.209139 41 25 41L 15 41C 12.790861 41 11 39.209137 11 37C 11 34.790863 12.790861 33 15 33L 25 33C 27.209139 33 29 34.790863 29 37ZM 16.5 36.5C 16.223858 36.5 16 36.723858 16 37C 16 37.276142 16.223858 37.5 16.5 37.5C 16.776142 37.5 17 37.276142 17 37C 17 36.723858 16.776142 36.5 16.5 36.5L 16.5 36.5M 29 45C 29 47.209141 27.209139 49 25 49L 15 49C 12.790861 49 11 47.209141 11 45C 11 42.790859 12.790861 41 15 41L 25 41C 27.209139 41 29 42.790859 29 45ZM 16.5 44.5C 16.223858 44.5 16 44.723858 16 45C 16 45.276142 16.223858 45.5 16.5 45.5C 16.776142 45.5 17 45.276142 17 45C 17 44.723858 16.776142 44.5 16.5 44.5L 16.5 44.5M 29 53C 29 55.209141 27.209139 57 25 57L 15 57C 12.790861 57 11 55.209141 11 53C 11 50.790859 12.790861 49 15 49L 25 49C 27.209139 49 29 50.790859 29 53ZM 16.5 52.5C 16.223858 52.5 16 52.723858 16 53C 16 53.276142 16.223858 53.5 16.5 53.5C 16.776142 53.5 17 53.276142 17 53C 17 52.723858 16.776142 52.5 16.5 52.5L 16.5 52.5"></path></g></g></g><g id="g-root-bars_1ltmvu4a0vrwh-stroke" data-item-order="0" transform="translate(543, 279)"><g id="bars_1ltmvu4a0vrwh-stroke" fill="none" stroke-linecap="round" stroke-linejoin="round" stroke-miterlimit="4" stroke="#ffffff" stroke-width="2"><g><path d="M 10.882 49L 56.882 49M 18.882 49L 18.882 40C 18.882 39.447716 18.434284 39 17.882 39L 13.882 39C 13.329716 39 12.882 39.447716 12.882 40L 12.882 49M 30.882 49L 30.882 30C 30.882 29.447716 30.434284 29 29.882 29L 25.882 29C 25.329716 29 24.882 29.447716 24.882 30L 24.882 49M 42.882 49L 42.882 34C 42.882 33.447716 42.434284 33 41.882 33L 37.882 33C 37.329716 33 36.882 33.447716 36.882 34L 36.882 49M 54.882 49L 54.882 20C 54.882 19.447716 54.434284 19 53.882 19L 49.882 19C 49.329716 19 48.882 19.447716 48.882 20L 48.882 49"></path></g></g></g><g id="g-root-slid_1qf3vzg9rd0y1-stroke" data-item-order="0" transform="translate(735, 279)"><g id="slid_1qf3vzg9rd0y1-stroke" fill="none" stroke-linecap="round" stroke-linejoin="round" stroke-miterlimit="4" stroke="#ffffff" stroke-width="2"><g><path d="M 13 11.002L 55 11.002C 55 11.002 57 11.002 57 13.002L 57 55.001999C 57 55.001999 57 57.001999 55 57.001999L 13 57.001999C 13 57.001999 11 57.001999 11 55.001999L 11 13.002C 11 13.002 11 11.002 13 11.002M 22 23.001999C 22 26.315708 24.686291 29.002001 28 29.002001C 31.313709 29.002001 34 26.315708 34 23.002001C 34 19.688292 31.313709 17.002001 28 17.002001C 24.686291 17.002001 22 19.688292 22 23.002001M 35 45.001999C 35 48.315708 37.686295 51.002003 41 51.002003C 44.313709 51.002003 47 48.315708 47 45.002003C 47 41.688293 44.313709 39.001999 41 39.001999C 37.686295 39.001999 35 41.688293 35 45.002003M 35 45.001999L 17 45.001999M 51 45.001999L 47 45.001999M 34 23.001999L 51 23.001999M 17 23.001999L 22 23.001999M 28 22.501999C 28.276142 22.501999 28.5 22.725857 28.5 23.001999C 28.5 23.278141 28.276142 23.501999 28 23.501999C 27.723858 23.501999 27.5 23.278141 27.5 23.001999C 27.5 22.725857 27.723858 22.501999 28 22.501999M 41 44.501999C 41.276142 44.501999 41.5 44.725857 41.5 45.001999C 41.5 45.278141 41.276142 45.501999 41 45.501999C 40.723858 45.501999 40.5 45.278141 40.5 45.001999C 40.5 44.725857 40.723858 44.501999 41 44.501999"></path></g></g></g><g id="g-root-tx_envoy_18nsqeka1474f-stroke" data-item-order="0" transform="translate(327, 27)"></g><g id="g-root-tx__zqwrzga146ir-stroke" data-item-order="0" transform="translate(303, 351)"></g><g id="g-root-tx__1d1qt9oa1483l-stroke" data-item-order="0" transform="translate(525, 351)"></g><g id="g-root-chec_qp294c9r8v7x-stroke" data-item-order="0" transform="translate(639, 159)"><g id="chec_qp294c9r8v7x-stroke" fill="none" stroke-linecap="round" stroke-linejoin="round" stroke-miterlimit="4" stroke="#ffffff" stroke-width="2"><g><path d="M 44.5 26.5L 44.5 19C 44.5 17.343145 43.156857 16 41.5 16L 35.5 16L 34.683998 13.552C 34.275902 12.326721 33.129456 11.500119 31.838001 11.5L 24.161999 11.5C 22.870546 11.500119 21.7241 12.326721 21.316 13.552L 20.5 16L 14.5 16C 12.843145 16 11.5 17.343145 11.5 19L 11.5 35.5C 11.5 37.156853 12.843145 38.5 14.5 38.5L 26.5 38.5M 22 26.5C 22 29.813709 24.686291 32.5 28 32.5C 31.313709 32.5 34 29.813709 34 26.5C 34 23.186291 31.313709 20.5 28 20.5C 24.686291 20.5 22 23.186291 22 26.5M 27 26.5C 27 27.052284 27.447716 27.5 28 27.5C 28.552284 27.5 29 27.052284 29 26.5C 29 25.947716 28.552284 25.5 28 25.5C 27.447716 25.5 27 25.947716 27 26.5M 32.5 44.5C 32.5 51.127419 37.872581 56.5 44.5 56.5C 51.127419 56.5 56.5 51.127419 56.5 44.5C 56.5 37.872581 51.127419 32.5 44.5 32.5C 37.872581 32.5 32.5 37.872581 32.5 44.5M 49.848 41.010002L 44.037998 48.757999C 43.539467 49.4216 42.597202 49.555058 41.933998 49.055996C 41.87812 49.013817 41.825317 48.967697 41.776001 48.917999L 38.776001 45.917999"></path></g></g></g><g id="g-root-tx_envoy_94m8bwa146it-stroke" data-item-order="0" transform="translate(111, 351)"></g></g></g></svg>