<svg xmlns="http://www.w3.org/2000/svg" xmlns:xlink="http://www.w3.org/1999/xlink" width="746" height="476" version="1.1" viewBox="0 0 746 476" style="fill:none;stroke:none;fill-rule:evenodd;clip-rule:evenodd;stroke-linecap:round;stroke-linejoin:round;stroke-miterlimit:1.5"><style id="fontImports">@import url(https://fonts.googleapis.com/css2?family=Roboto:wght@400;700&amp;display=block);</style><rect width="746" height="476" x="0" y="0" style="fill:#fff"/><g id="items" style="isolation:isolate"><g id="blend" style="mix-blend-mode:normal"><g id="g-root-tf_147ddbgbz6znr-fill" data-item-order="-352656" transform="translate(-9, -9)"><g id="tf_147ddbgbz6znr-fill" fill="#fff" stroke="none"><g><path d="M 10 10L 754 10L 754 484L 10 484Z"/></g></g></g><g id="g-root--1.cu_sy_dfgdkcbyzx8q-fill" data-item-order="-149754" transform="translate(230, 159)"><g id="-1.cu_sy_dfgdkcbyzx8q-fill" fill="#a3a3a3" stroke="none"><g><path d="M 125 34L 101 10L 10 166L 34 190L 125 34ZM 125 34L 34 190L 216 190L 125 34Z"/></g></g></g><g id="g-root-0.cr-small_cr_8zmvfwbyzy10-fill" data-item-order="-149748" transform="translate(135, 225)"><g id="0.cr-small_cr_8zmvfwbyzy10-fill" fill="#666" stroke="none"><g><path d="M 10 46C 10 65.882251 26.117749 82 46 82C 65.882251 82 82 65.882251 82 46C 82 26.117749 65.882251 10 46 10C 26.117749 10 10 26.117749 10 46"/></g></g></g><g id="g-root-4.cr-small_cr_3zv70byzytq-fill" data-item-order="-149740" transform="translate(555, 357)"><g id="4.cr-small_cr_3zv70byzytq-fill" fill="#e0cb15" stroke="none"><g><path d="M 10 40C 10.000002 56.568544 23.431459 70.000002 40.000002 70.000002C 56.568544 70.000002 70.000002 56.568544 70.000002 40.000002C 70.000002 23.431459 56.568544 10.000002 40.000002 10.000002C 23.431459 10.000002 10.000002 23.431459 10.000002 40.000002"/></g></g></g><g id="g-root-3.cr-small_cr_1qa3e0cbyzx1c-fill" data-item-order="-149732" transform="translate(555, 273)"><g id="3.cr-small_cr_1qa3e0cbyzx1c-fill" fill="#92bd39" stroke="none"><g><path d="M 10 40C 10.000002 56.568544 23.431459 70.000002 40.000002 70.000002C 56.568544 70.000002 70.000002 56.568544 70.000002 40.000002C 70.000002 23.431459 56.568544 10.000002 40.000002 10.000002C 23.431459 10.000002 10.000002 23.431459 10.000002 40.000002"/></g></g></g><g id="g-root-2.cr-small_cr_1hegdrgbyzxu2-fill" data-item-order="-149724" transform="translate(555, 189)"><g id="2.cr-small_cr_1hegdrgbyzxu2-fill" fill="#3cc583" stroke="none"><g><path d="M 10 40C 10.000002 56.568544 23.431459 70.000002 40.000002 70.000002C 56.568544 70.000002 70.000002 56.568544 70.000002 40.000002C 70.000002 23.431459 56.568544 10.000002 40.000002 10.000002C 23.431459 10.000002 10.000002 23.431459 10.000002 40.000002"/></g></g></g><g id="g-root-1.cr-small_cr_142zve4byzzf0-fill" data-item-order="-149716" transform="translate(555, 105)"><g id="1.cr-small_cr_142zve4byzzf0-fill" fill="#1eabda" stroke="none"><g><path d="M 10 40C 10.000002 56.568544 23.431459 70.000002 40.000002 70.000002C 56.568544 70.000002 70.000002 56.568544 70.000002 40.000002C 70.000002 23.431459 56.568544 10.000002 40.000002 10.000002C 23.431459 10.000002 10.000002 23.431459 10.000002 40.000002"/></g></g></g><g id="g-root-tx_envoy_hxrycsbz6ygx-fill" data-item-order="0" transform="translate(15, 249)"><g id="tx_envoy_hxrycsbz6ygx-fill" fill="#484848" stroke="none"><g><text style="font:20px Roboto,sans-serif;white-space:pre" font-family="Roboto, sans-serif" font-size="20"><tspan x="18.38" y="33.5" dominant-baseline="ideographic">Envoy 组件</tspan></text></g></g></g><g id="g-root-tx__1hgygfgbz6z2k-fill" data-item-order="0" transform="translate(627, 207)"><g id="tx__1hgygfgbz6z2k-fill" fill="#374840" stroke="none"><g><text style="font:20px Roboto,sans-serif;white-space:pre" font-family="Roboto, sans-serif" font-size="20"><tspan x="12" y="33.5" dominant-baseline="ideographic">过滤器链</tspan></text></g></g></g><g id="g-root-tx__zqax0sbz6y9x-fill" data-item-order="0" transform="translate(627, 123)"><g id="tx__zqax0sbz6y9x-fill" fill="#32444a" stroke="none"><g><text style="font:20px Roboto,sans-serif;white-space:pre" font-family="Roboto, sans-serif" font-size="20"><tspan x="12" y="33.5" dominant-baseline="ideographic">监听器</tspan></text></g></g></g><g id="g-root-tx__4mbfzgbz701u-fill" data-item-order="0" transform="translate(627, 375)"><g id="tx__4mbfzgbz701u-fill" fill="#46432d" stroke="none"><g><text style="font:20px Roboto,sans-serif;white-space:pre" font-family="Roboto, sans-serif" font-size="20"><tspan x="12" y="33.5" dominant-baseline="ideographic">端点</tspan></text></g></g></g><g id="g-root-tx__1qclgocbz6y9v-fill" data-item-order="0" transform="translate(627, 291)"><g id="tx__1qclgocbz6y9v-fill" fill="#424736" stroke="none"><g><text style="font:20px Roboto,sans-serif;white-space:pre" font-family="Roboto, sans-serif" font-size="20"><tspan x="12" y="33.5" dominant-baseline="ideographic">集群</tspan></text></g></g></g><g id="g-root-tx_envoy_dj7eekbz70ni-fill" data-item-order="0" transform="translate(267, 39)"><g id="tx_envoy_dj7eekbz70ni-fill" fill="#484848" stroke="none"><g><text style="font:700 20px Roboto,sans-serif;white-space:pre" font-family="Roboto, sans-serif" font-size="20" font-weight="bold"><tspan x="16.21" y="33.5" dominant-baseline="ideographic">揭开 Envoy 的核心组件</tspan></text></g></g></g><g id="g-root--1.cu_sy_dfgdkcbyzx8q-stroke" data-item-order="-149754" transform="translate(230, 159)"><g id="-1.cu_sy_dfgdkcbyzx8q-stroke" fill="none" stroke="#fff" stroke-linecap="round" stroke-linejoin="round" stroke-miterlimit="4" stroke-width="2"><g><path d="M 125 34L 101 10L 10 166L 34 190L 125 34ZM 125 34L 34 190L 216 190L 125 34Z"/></g></g></g><g id="g-root-0.line-start_sy_dfgdkcbyzx8r-stroke" data-item-order="-149749" transform="translate(207, 261)"><g id="0.line-start_sy_dfgdkcbyzx8r-stroke" fill="none" stroke="#484848" stroke-linecap="round" stroke-linejoin="round" stroke-miterlimit="4" stroke-width="2"><g><path d="M 10 10L 102.5 10"/></g></g></g><g id="g-root-0.cr-small_cr_8zmvfwbyzy10-stroke" data-item-order="-149748" transform="translate(135, 225)"><g id="0.cr-small_cr_8zmvfwbyzy10-stroke" fill="none" stroke="#fff" stroke-linecap="round" stroke-linejoin="round" stroke-miterlimit="4" stroke-width="2"><g><path d="M 10 46C 10 65.882251 26.117749 82 46 82C 65.882251 82 82 65.882251 82 46C 82 26.117749 65.882251 10 46 10C 26.117749 10 10 26.117749 10 46"/></g></g></g><g id="g-root-4.line_sy_3zv70byzytp-stroke" data-item-order="-149741" transform="translate(299.5, 261)"><g id="4.line_sy_3zv70byzytp-stroke" fill="none" stroke="#e0cb15" stroke-linecap="round" stroke-linejoin="round" stroke-miterlimit="4" stroke-width="2"><g><path d="M 257.88 134.82L 111.5 28L 10 10"/><path stroke-dasharray="none" d="M 249.2 136.5L 258.3 135.1L 256.9 126"/></g></g></g><g id="g-root-4.cr-small_cr_3zv70byzytq-stroke" data-item-order="-149740" transform="translate(555, 357)"><g id="4.cr-small_cr_3zv70byzytq-stroke" fill="none" stroke="#fff" stroke-linecap="round" stroke-linejoin="round" stroke-miterlimit="4" stroke-width="2"><g><path d="M 10 40C 10.000002 56.568544 23.431459 70.000002 40.000002 70.000002C 56.568544 70.000002 70.000002 56.568544 70.000002 40.000002C 70.000002 23.431459 56.568544 10.000002 40.000002 10.000002C 23.431459 10.000002 10.000002 23.431459 10.000002 40.000002"/></g></g></g><g id="g-root-3.line_sy_1upaf1obyzzev-stroke" data-item-order="-149733" transform="translate(300, 261)"><g id="3.line_sy_1upaf1obyzzev-stroke" fill="none" stroke="#92bd39" stroke-linecap="round" stroke-linejoin="round" stroke-miterlimit="4" stroke-width="2"><g><path d="M 257.05 51.55L 104 16L 10 10"/><path stroke-dasharray="none" d="M 249.7 56.5L 257.5 51.7L 252.7 43.9"/></g></g></g><g id="g-root-3.cr-small_cr_1qa3e0cbyzx1c-stroke" data-item-order="-149732" transform="translate(555, 273)"><g id="3.cr-small_cr_1qa3e0cbyzx1c-stroke" fill="none" stroke="#fff" stroke-linecap="round" stroke-linejoin="round" stroke-miterlimit="4" stroke-width="2"><g><path d="M 10 40C 10.000002 56.568544 23.431459 70.000002 40.000002 70.000002C 56.568544 70.000002 70.000002 56.568544 70.000002 40.000002C 70.000002 23.431459 56.568544 10.000002 40.000002 10.000002C 23.431459 10.000002 10.000002 23.431459 10.000002 40.000002"/></g></g></g><g id="g-root-2.line_sy_1hegdrgbyzxu1-stroke" data-item-order="-149725" transform="translate(299.5, 219)"><g id="2.line_sy_1hegdrgbyzxu1-stroke" fill="none" stroke="#3cc583" stroke-linecap="round" stroke-linejoin="round" stroke-miterlimit="4" stroke-width="2"><g><path d="M 257.55 10.429932L 97.5 45.999932L 10 51.999932"/><path stroke-dasharray="none" d="M 253.1 18.129932L 258 10.329932L 250.3 5.429932"/></g></g></g><g id="g-root-2.cr-small_cr_1hegdrgbyzxu2-stroke" data-item-order="-149724" transform="translate(555, 189)"><g id="2.cr-small_cr_1hegdrgbyzxu2-stroke" fill="none" stroke="#fff" stroke-linecap="round" stroke-linejoin="round" stroke-miterlimit="4" stroke-width="2"><g><path d="M 10 40C 10.000002 56.568544 23.431459 70.000002 40.000002 70.000002C 56.568544 70.000002 70.000002 56.568544 70.000002 40.000002C 70.000002 23.431459 56.568544 10.000002 40.000002 10.000002C 23.431459 10.000002 10.000002 23.431459 10.000002 40.000002"/></g></g></g><g id="g-root-1.line_sy_1cymvn0byzymb-stroke" data-item-order="-149717" transform="translate(299.5, 135)"><g id="1.line_sy_1cymvn0byzymb-stroke" fill="none" stroke="#1eabda" stroke-linecap="round" stroke-linejoin="round" stroke-miterlimit="4" stroke-width="2"><g><path d="M 10 135.999956L 90.5 117.999956L 257.81 11.079956"/><path stroke-dasharray="none" d="M 256.3 19.779956L 258.2 10.779956L 249.3 8.879956"/></g></g></g><g id="g-root-1.cr-small_cr_142zve4byzzf0-stroke" data-item-order="-149716" transform="translate(555, 105)"><g id="1.cr-small_cr_142zve4byzzf0-stroke" fill="none" stroke="#fff" stroke-linecap="round" stroke-linejoin="round" stroke-miterlimit="4" stroke-width="2"><g><path d="M 10 40C 10.000002 56.568544 23.431459 70.000002 40.000002 70.000002C 56.568544 70.000002 70.000002 56.568544 70.000002 40.000002C 70.000002 23.431459 56.568544 10.000002 40.000002 10.000002C 23.431459 10.000002 10.000002 23.431459 10.000002 40.000002"/></g></g></g><g id="g-root-sign_4l2bhobz2sjy-stroke" data-item-order="0" transform="translate(147, 237)"><g id="sign_4l2bhobz2sjy-stroke" fill="none" stroke="#fff" stroke-linecap="round" stroke-linejoin="round" stroke-miterlimit="4" stroke-width="2"><g><path d="M 28 34.998001C 28 38.311707 30.686293 40.998001 34 40.998001C 37.313709 40.998001 40 38.311707 40 34.998001C 40 31.684292 37.313709 28.998001 34 28.998001C 30.686293 28.998001 28 31.684292 28 34.998001ZM 43 57C 42.375999 50.216 38.534 45 34 45C 29.466 45 25.624001 50.216 25 57ZM 44.599998 44.599998C 50.46323 38.744064 50.467171 29.243198 44.608803 23.382401C 38.750435 17.521603 29.249567 17.521603 23.391201 23.382401C 17.532833 29.243198 17.536774 38.744064 23.400002 44.600002M 50.264 50.262001C 59.245617 41.279785 59.245293 26.717268 50.263275 17.735451C 41.281258 8.753635 26.718742 8.753635 17.736725 17.735451C 8.754709 26.717268 8.754384 41.279785 17.736 50.262001"/></g></g></g><g id="g-root-2_1lw5hgsbyvqq6-stroke" data-item-order="0" transform="translate(567, 201)"><g id="2_1lw5hgsbyvqq6-stroke" fill="none" stroke="#fff" stroke-linecap="round" stroke-linejoin="round" stroke-miterlimit="4" stroke-width="2"><g><path d="M 44.714287 11.285714L 11.285714 11.285714L 24.142857 29.285713L 24.142857 44.714287L 31.857143 39.571426L 31.857143 29.285713L 44.714287 11.285714Z"/></g></g></g><g id="g-root-grou_5vdm4bz1ddx-stroke" data-item-order="0" transform="translate(567, 285)"><g id="grou_5vdm4bz1ddx-stroke" fill="none" stroke="#fff" stroke-linecap="round" stroke-linejoin="round" stroke-miterlimit="4" stroke-width="2"><g><path d="M 24.625 14.125C 24.625 15.988961 26.13604 17.5 28 17.5C 29.86396 17.5 31.375 15.988961 31.375 14.125C 31.375 12.261039 29.86396 10.75 28 10.75C 26.13604 10.75 24.625 12.261039 24.625 14.125ZM 34.75 24.25C 33.963196 21.164463 31.184277 19.005236 28 19.005236C 24.815725 19.005236 22.036806 21.164463 21.25 24.25ZM 10 10M 28 30.25L 28 27.25M 10 10M 19.75 30.25L 22 27.25M 10 10M 36.25 30.25L 34 27.25M 24.604 37.525002C 24.604 39.471802 26.182196 41.049999 28.129 41.049999C 30.075804 41.049999 31.653999 39.471802 31.653999 37.525002C 31.653999 35.578194 30.075804 34 28.129 34C 26.182196 34 24.604 35.578194 24.604 37.525002ZM 13.516 37.525002C 13.516 39.471802 15.094196 41.049999 17.041 41.049999C 18.987804 41.049999 20.566 39.471802 20.566 37.525002C 20.566 35.578194 18.987804 34 17.041 34C 15.094196 34 13.516 35.578194 13.516 37.525002ZM 35.445999 37.525002C 35.445999 39.471802 37.024197 41.049999 38.971001 41.049999C 40.917801 41.049999 42.495998 39.471802 42.495998 37.525002C 42.495998 35.578194 40.917801 34 38.971001 34C 37.024197 34 35.445999 35.578194 35.445999 37.525002ZM 44.5 45.25C 43.166508 43.595676 41.155853 42.633862 39.030998 42.633862C 36.906151 42.633862 34.895493 43.595676 33.562 45.25C 32.18293 43.603233 30.147932 42.6483 28.000002 42.639999M 11.5 45.25C 12.833491 43.595676 14.844149 42.633862 16.969 42.633862C 19.093851 42.633862 21.104509 43.595676 22.438002 45.25C 23.817072 43.603233 25.85207 42.6483 28.000002 42.639999"/></g></g></g><g id="g-root-1_dhbvzgbyvrwr-stroke" data-item-order="0" transform="translate(567, 369)"><g id="1_dhbvzgbyvrwr-stroke" fill="none" stroke="#fff" stroke-linecap="round" stroke-linejoin="round" stroke-miterlimit="4" stroke-width="2"><g><path d="M 13.857142 12.571428L 42.142857 12.571428C 42.142857 12.571428 44.714287 12.571428 44.714287 15.142857L 44.714287 25.428572C 44.714287 25.428572 44.714287 28 42.142857 28L 13.857142 28C 13.857142 28 11.285714 28 11.285714 25.428572L 11.285714 15.142857C 11.285714 15.142857 11.285714 12.571428 13.857142 12.571428M 17.714285 20.285713C 17.714285 20.995794 18.289919 21.571428 19 21.571428C 19.710081 21.571428 20.285713 20.995794 20.285713 20.285713C 20.285713 19.575634 19.710081 19 19 19C 18.289919 19 17.714285 19.575634 17.714285 20.285713M 29.285713 20.285713L 38.285713 20.285713M 13.857142 28C 12.436982 28 11.285714 29.151268 11.285714 30.571428L 11.285714 40.857143C 11.285714 42.277306 12.436982 43.42857 13.857142 43.42857L 42.142857 43.42857C 43.563019 43.42857 44.714287 42.277306 44.714287 40.857143L 44.714287 30.571428C 44.714287 29.151268 43.563019 28 42.142857 28M 17.714285 35.714287C 17.714285 36.424366 18.289919 37 19 37C 19.710081 37 20.285713 36.424366 20.285713 35.714287C 20.285713 35.004204 19.710081 34.42857 19 34.42857C 18.289919 34.42857 17.714285 35.004204 17.714285 35.714287M 29.285713 35.714287L 38.285713 35.714287"/></g></g></g><g id="g-root-moni_mcyze4bz70ug-stroke" data-item-order="0" transform="translate(567, 117)"><g id="moni_mcyze4bz70ug-stroke" fill="none" stroke="#fff" stroke-linecap="round" stroke-linejoin="round" stroke-miterlimit="4" stroke-width="2"><g><path d="M 13.857142 17.714285L 42.142857 17.714285C 42.142857 17.714285 44.714287 17.714285 44.714287 20.285713L 44.714287 30.571428C 44.714287 30.571428 44.714287 33.142857 42.142857 33.142857L 13.857142 33.142857C 13.857142 33.142857 11.285714 33.142857 11.285714 30.571428L 11.285714 20.285713C 11.285714 20.285713 11.285714 17.714285 13.857142 17.714285M 17.714285 25.428572C 17.714285 26.138653 18.289919 26.714285 19 26.714285C 19.710081 26.714285 20.285713 26.138653 20.285713 25.428572C 20.285713 24.718491 19.710081 24.142857 19 24.142857C 18.289919 24.142857 17.714285 24.718491 17.714285 25.428572M 26.714285 25.428572L 31.857143 25.428572M 28 33.142857L 28 44.714287M 15.142857 44.714287L 40.857143 44.714287"/></g></g></g></g></g></svg>