<svg xmlns="http://www.w3.org/2000/svg" xmlns:xl="http://www.w3.org/1999/xlink" width="1014" height="434" version="1.1" viewBox="323 -536 1014 434"><defs><marker id="FilledArrow_Marker" stroke-linejoin="miter" stroke-miterlimit="10" color="#456bb0" markerHeight="8" markerUnits="strokeWidth" markerWidth="10" orient="auto" overflow="visible" viewBox="-1 -4 10 8"><g><path fill="currentColor" stroke="currentColor" stroke-width="1" d="M 8 0 L 0 -3 L 0 3 Z"/></g></marker><marker id="FilledArrow_Marker_2" stroke-linejoin="miter" stroke-miterlimit="10" color="#ff2600" markerHeight="6" markerUnits="strokeWidth" markerWidth="6" orient="auto" overflow="visible" viewBox="-1 -3 6 6"><g><path fill="currentColor" stroke="currentColor" stroke-width="1" d="M 3.7333333 0 L 0 -1.4 L 0 1.4 Z"/></g></marker><marker id="FilledArrow_Marker_3" stroke-linejoin="miter" stroke-miterlimit="10" color="#0432ff" markerHeight="6" markerUnits="strokeWidth" markerWidth="6" orient="auto" overflow="visible" viewBox="-1 -3 6 6"><g><path fill="currentColor" stroke="currentColor" stroke-width="1" d="M 3.7333333 0 L 0 -1.4 L 0 1.4 Z"/></g></marker><marker id="FilledArrow_Marker_4" stroke-linejoin="miter" stroke-miterlimit="10" color="#000" markerHeight="8" markerUnits="strokeWidth" markerWidth="10" orient="auto" overflow="visible" viewBox="-1 -4 10 8"><g><path fill="currentColor" stroke="currentColor" stroke-width="1" d="M 8 0 L 0 -3 L 0 3 Z"/></g></marker></defs><g id="same-node-plaintext" fill="none" fill-opacity="1" stroke="none" stroke-dasharray="none" stroke-opacity="1"><title>same-node-plaintext</title><rect width="1014" height="434" x="323" y="-536" fill="#fff"/><g id="same-node-plaintext_Layer_1"><title>Layer 1</title><g id="Graphic_63"><rect width="1013.5" height="433.5" x="323" y="-535.5" fill="#fff"/></g><g id="Graphic_35"><path stroke="#a5a5a5" stroke-linecap="round" stroke-linejoin="round" stroke-width="1" d="M 342 -518 L 1084.5 -518 C 1086.7091 -518 1088.5 -516.20914 1088.5 -514 L 1088.5 -125 C 1088.5 -122.79086 1086.7091 -121 1084.5 -121 L 342 -121 C 339.79086 -121 338 -122.79086 338 -125 L 338 -514 C 338 -516.20914 339.79086 -518 342 -518 Z"/><text fill="#666" transform="translate(343 -144.448)"><tspan x="350.842" y="15" fill="#666" font-family="Helvetica Neue" font-size="16" xml:space="preserve">Node</tspan></text></g><g id="Graphic_49"><path fill="#d1d1d1" d="M 363.6346 -258.85244 L 807.737 -258.85244 C 809.9461 -258.85244 811.737 -257.06157 811.737 -254.85244 L 811.737 -172.85244 C 811.737 -170.6433 809.9461 -168.85244 807.737 -168.85244 L 363.6346 -168.85244 C 361.42547 -168.85244 359.6346 -170.6433 359.6346 -172.85244 L 359.6346 -254.85244 C 359.6346 -257.06157 361.42547 -258.85244 363.6346 -258.85244 Z"/><text fill="#000" transform="translate(364.6346 -192.30043)"><tspan x="206.531" y="15" fill="#000" font-family="Helvetica Neue" font-size="16" xml:space="preserve">Pod</tspan></text></g><g id="Graphic_33"><path fill="#d1d1d1" d="M 362.312 -486.93276 L 806.4143 -486.93276 C 808.6235 -486.93276 810.4143 -485.1419 810.4143 -482.93276 L 810.4143 -400.93276 C 810.4143 -398.72363 808.6235 -396.93276 806.4143 -396.93276 L 362.312 -396.93276 C 360.10285 -396.93276 358.312 -398.72363 358.312 -400.93276 L 358.312 -482.93276 C 358.312 -485.1419 360.10285 -486.93276 362.312 -486.93276 Z"/><text fill="#000" transform="translate(363.312 -420.38076)"><tspan x="206.531" y="15" fill="#000" font-family="Helvetica Neue" font-size="16" xml:space="preserve">Pod</tspan></text></g><g id="Graphic_31"><path fill="#787cc4" d="M 379 -239.93276 L 495 -239.93276 C 497.20914 -239.93276 499 -238.1419 499 -235.93276 L 499 -191.93276 C 499 -189.72363 497.20914 -187.93276 495 -187.93276 L 379 -187.93276 C 376.79086 -187.93276 375 -189.72363 375 -191.93276 L 375 -235.93276 C 375 -238.1419 376.79086 -239.93276 379 -239.93276 Z"/><text fill="#fff" transform="translate(380 -232.38076)"><tspan x="31.664" y="15" fill="#fff" font-family="Helvetica Neue" font-size="16" xml:space="preserve">Source </tspan> <tspan x="23.232" y="33.448" fill="#fff" font-family="Helvetica Neue" font-size="16" xml:space="preserve">Workload</tspan></text></g><g id="Graphic_30"><path fill="#ff8080" d="M 499 -239.93276 L 528.348 -239.93276 L 543 -213.93276 L 528.348 -187.93276 L 499 -187.93276 Z"/><text fill="#fff" transform="translate(522.92 -234.93276) rotate(90)"><tspan x="12.104" y="15" fill="#fff" font-family="Helvetica Neue" font-size="16" xml:space="preserve">80</tspan></text></g><g id="Graphic_28"><path fill="#456bb0" d="M 941.5 -351.28726 L 1057.5 -351.28726 C 1059.7091 -351.28726 1061.5 -349.4964 1061.5 -347.28726 L 1061.5 -303.28726 C 1061.5 -301.07813 1059.7091 -299.28726 1057.5 -299.28726 L 941.5 -299.28726 C 939.2909 -299.28726 937.5 -301.07813 937.5 -303.28726 L 937.5 -347.28726 C 937.5 -349.4964 939.2909 -351.28726 941.5 -351.28726 Z"/><text fill="#fff" transform="translate(942.5 -335.01932)"><tspan x="30.184" y="16" fill="#fff" font-family="Helvetica Neue" font-size="16" xml:space="preserve">ztunnel</tspan></text></g><g id="Graphic_27"><path fill="#456bb0" d="M 1198.5 -351.5 L 1314.5 -351.5 C 1316.7091 -351.5 1318.5 -349.70914 1318.5 -347.5 L 1318.5 -303.5 C 1318.5 -301.29086 1316.7091 -299.5 1314.5 -299.5 L 1198.5 -299.5 C 1196.2909 -299.5 1194.5 -301.29086 1194.5 -303.5 L 1194.5 -347.5 C 1194.5 -349.70914 1196.2909 -351.5 1198.5 -351.5 Z"/><text fill="#fff" transform="translate(1199.5 -335.23206)"><tspan x="36.696" y="16" fill="#fff" font-family="Helvetica Neue" font-size="16" xml:space="preserve">istiod</tspan></text></g><g id="Line_25"><line x1="1194.5" x2="1071.4" y1="-325.449" y2="-325.347" stroke="#456bb0" stroke-dasharray="4 4" stroke-linecap="round" stroke-linejoin="round" stroke-width="1" marker-end="url(#FilledArrow_Marker)"/></g><g id="Graphic_22"><rect width="45.34" height="38.672" x="1119.285" y="-344.741" fill="#fff"/><text fill="#000" transform="translate(1124.2846 -339.7412)"><tspan x="6.672" y="11" fill="#000" font-family="Helvetica Neue" font-size="12" font-style="italic" xml:space="preserve">xDS</tspan> <tspan x="0" y="25.336" fill="#000" font-family="Helvetica Neue" font-size="12" font-style="italic" xml:space="preserve">Config</tspan></text></g><g id="Graphic_21"><path fill="#787cc4" d="M 379 -468.18276 L 495 -468.18276 C 497.20914 -468.18276 499 -466.3919 499 -464.18276 L 499 -420.18276 C 499 -417.97363 497.20914 -416.18276 495 -416.18276 L 379 -416.18276 C 376.79086 -416.18276 375 -417.97363 375 -420.18276 L 375 -464.18276 C 375 -466.3919 376.79086 -468.18276 379 -468.18276 Z"/><text fill="#fff" transform="translate(380 -460.63076)"><tspan x="16.696" y="15" fill="#fff" font-family="Helvetica Neue" font-size="16" xml:space="preserve">Destination </tspan> <tspan x="23.232" y="33.448" fill="#fff" font-family="Helvetica Neue" font-size="16" xml:space="preserve">Workload</tspan></text></g><g id="Graphic_20"><path fill="#ff8080" d="M 499 -468.18276 L 528.348 -468.18276 L 543 -442.18276 L 528.348 -416.18276 L 499 -416.18276 Z"/><text fill="#fff" transform="translate(522.92 -463.18276) rotate(90)"><tspan x="12.104" y="15" fill="#fff" font-family="Helvetica Neue" font-size="16" xml:space="preserve">80</tspan></text></g><g id="Graphic_2"><path fill="#ff8080" d="M 666.5 -239.68276 L 782.5 -239.68276 C 784.7091 -239.68276 786.5 -237.8919 786.5 -235.68276 L 786.5 -191.68276 C 786.5 -189.47363 784.7091 -187.68276 782.5 -187.68276 L 666.5 -187.68276 C 664.2909 -187.68276 662.5 -189.47363 662.5 -191.68276 L 662.5 -235.68276 C 662.5 -237.8919 664.2909 -239.68276 666.5 -239.68276 Z"/><path stroke="#a5a5a5" stroke-linecap="round" stroke-linejoin="round" stroke-width="1" d="M 666.5 -239.68276 L 782.5 -239.68276 C 784.7091 -239.68276 786.5 -237.8919 786.5 -235.68276 L 786.5 -191.68276 C 786.5 -189.47363 784.7091 -187.68276 782.5 -187.68276 L 666.5 -187.68276 C 664.2909 -187.68276 662.5 -189.47363 662.5 -191.68276 L 662.5 -235.68276 C 662.5 -237.8919 664.2909 -239.68276 666.5 -239.68276 Z"/><text fill="#fff" transform="translate(667.5 -222.90676)"><tspan x="28.848" y="15" fill="#fff" font-family="Helvetica Neue" font-size="16" xml:space="preserve">iptables</tspan></text></g><g id="Graphic_42"><path fill="#ff8080" d="M 721 -415.93276 L 721 -393.07123 L 691.75 -381.6576 L 662.5 -393.07123 L 662.5 -415.93276 Z"/><clipPath id="clip_path"><path fill="#ff8080" d="M 58.5 0 L 58.5 22.861532 L 29.25 34.27516 L 0 22.861532 L 0 0 Z"/></clipPath><text fill="#fff" clip-path="url(#clip_path)" transform="translate(662.5 -415.93276)"><tspan x="9.615" y="21" fill="#fff" font-family="Helvetica Neue" font-size="14" xml:space="preserve">15006</tspan></text></g><g id="Graphic_46"><path fill="#ff8080" d="M 662.5 -239.68276 L 662.5 -269.03076 L 687.193 -283.68276 L 711.886 -269.03076 L 711.886 -239.68276 Z"/><text fill="#fff" transform="translate(667.5 -262.57476)"><tspan x=".233" y="13" fill="#fff" font-family="Helvetica Neue" font-size="14" xml:space="preserve">15001</tspan></text></g><g id="Line_47"><path stroke="#ff2600" stroke-linecap="round" stroke-linejoin="round" stroke-width="3" d="M 543 -213.93276 L 555 -213.93276 L 650.5 -213.68276 L 662.5 -213.68276"/></g><g id="Line_48"><path stroke="#ff2600" stroke-linecap="round" stroke-linejoin="round" stroke-width="3" marker-end="url(#FilledArrow_Marker_2)" d="M 687.193 -283.68276 L 687.193 -324.81063 L 717.5636 -324.81063 L 917.75 -325.28726 L 924.75 -325.28726"/></g><g id="Line_52"><path stroke="#0432ff" stroke-linecap="round" stroke-linejoin="round" stroke-width="3" marker-end="url(#FilledArrow_Marker_3)" d="M 952 -351.28726 L 952 -424 L 799.25 -424"/></g><g id="Line_53"><path stroke="#0432ff" stroke-linecap="round" stroke-linejoin="round" stroke-width="3" marker-end="url(#FilledArrow_Marker_3)" d="M 691.75 -381.6576 L 691.75 -341.33333 L 924.75 -341.33333"/></g><g id="Graphic_54"><rect width="96.22" height="24.336" x="729.201" y="-353.501" fill="#fff"/><text fill="#000" transform="translate(734.2005 -348.50133)"><tspan x="0" y="11" fill="#000" font-family="Helvetica Neue" font-size="12" font-style="italic" xml:space="preserve">Plaintext Socket</tspan></text></g><g id="Graphic_55"><rect width="86.248" height="24.336" x="831.82" y="-436.168" fill="#fff"/><text fill="#000" transform="translate(836.8199 -431.168)"><tspan x="0" y="11" fill="#000" font-family="Helvetica Neue" font-size="12" font-style="italic" xml:space="preserve">dst_pod_ip:80</tspan></text></g><g id="Graphic_37"><rect width="70" height="24.336" x="652.193" y="-317.597" fill="#fff"/><text fill="#000" transform="translate(657.193 -312.59702)"><tspan x="0" y="11" fill="#000" font-family="Helvetica Neue" font-size="12" font-style="italic" xml:space="preserve">des_svc:80</tspan></text></g><g id="Graphic_57"><rect width="104.464" height="24.336" x="744.156" y="-337.166" fill="#fff"/><text fill="#000" transform="translate(749.1557 -332.1663)"><tspan x="0" y="11" fill="#000" font-family="Helvetica Neue" font-size="12" font-style="italic" xml:space="preserve">Outbound Socket</tspan></text></g><g id="Line_58"><path stroke="#000" stroke-linecap="round" stroke-linejoin="round" stroke-width="1" marker-end="url(#FilledArrow_Marker_4)" d="M 999.5 -351.28726 L 999.5 -351.5 L 1001 -351.5 L 1001 -442.18276 L 552.9 -442.18276"/></g><g id="Graphic_59"><rect width="86.248" height="24.336" x="885.688" y="-454.351" fill="#fff"/><text fill="#000" transform="translate(890.6875 -449.35076)"><tspan x="0" y="11" fill="#000" font-family="Helvetica Neue" font-size="12" font-style="italic" xml:space="preserve">dst_pod_ip:80</tspan></text></g><g id="Graphic_18"><path fill="#ff8080" d="M 666.5 -467.93276 L 782.5 -467.93276 C 784.7091 -467.93276 786.5 -466.1419 786.5 -463.93276 L 786.5 -419.93276 C 786.5 -417.72363 784.7091 -415.93276 782.5 -415.93276 L 666.5 -415.93276 C 664.2909 -415.93276 662.5 -417.72363 662.5 -419.93276 L 662.5 -463.93276 C 662.5 -466.1419 664.2909 -467.93276 666.5 -467.93276 Z"/><path stroke="#a5a5a5" stroke-linecap="round" stroke-linejoin="round" stroke-width="1" d="M 666.5 -467.93276 L 782.5 -467.93276 C 784.7091 -467.93276 786.5 -466.1419 786.5 -463.93276 L 786.5 -419.93276 C 786.5 -417.72363 784.7091 -415.93276 782.5 -415.93276 L 666.5 -415.93276 C 664.2909 -415.93276 662.5 -417.72363 662.5 -419.93276 L 662.5 -463.93276 C 662.5 -466.1419 664.2909 -467.93276 666.5 -467.93276 Z"/><text fill="#fff" transform="translate(667.5 -451.15676)"><tspan x="28.848" y="15" fill="#fff" font-family="Helvetica Neue" font-size="16" xml:space="preserve">iptables</tspan></text></g></g></g></svg>