<svg xmlns="http://www.w3.org/2000/svg" xmlns:xlink="http://www.w3.org/1999/xlink" width="602" height="458" version="1.1" viewBox="0 0 602 458" style="fill:none;stroke:none;fill-rule:evenodd;clip-rule:evenodd;stroke-linecap:round;stroke-linejoin:round;stroke-miterlimit:1.5"><style id="fontImports">@import url(https://fonts.googleapis.com/css2?family=Roboto:wght@400;700&amp;display=block);</style><rect width="602" height="458" x="0" y="0" style="fill:#fff"/><g id="items" style="isolation:isolate"><g id="blend" style="mix-blend-mode:normal"><g id="g-root-tf_zpo6fu839ukn-fill" data-item-order="-273600" transform="translate(-9, -9)"><g id="tf_zpo6fu839ukn-fill" fill="#fff" stroke="none"><g><path d="M 10 10L 610 10L 610 466L 10 466Z"/></g></g></g><g id="g-root-0.cu_sy_mgpe3e83gwso-fill" data-item-order="-78834" transform="translate(219, 111)"><g id="0.cu_sy_mgpe3e83gwso-fill" fill="url(#gradient-cbcbcb-248399021)" stroke="none"><g><path d="M 82 154C 121.765 154 154 121.765 154 82C 154 42.2355 121.765 10 82 10C 42.2355 10 10 42.2355 10 82C 10 96.1129 14.0605 109.2775 21.0769 120.389C 25.088 118.846 29.4452 118 34 118C 53.5486 118 69.4579 133.581 69.9864 153.002C 73.8932 153.658 77.9067 154 82 154Z"/></g></g></g><g id="g-root-2.cu_sy_8vvrfe83i9s9-fill" data-item-order="-78830" transform="translate(207, 219)"><g id="2.cu_sy_8vvrfe83i9s9-fill" fill="url(#gradient-4dd3ff-378786070)" stroke="none"><g><path d="M 82 46C 82 65.8823 65.8823 82 46 82C 26.1177 82 10 65.8823 10 46C 10 26.1177 26.1177 10 46 10C 65.8823 10 82 26.1177 82 46Z"/></g></g></g><g id="g-root-3.cu_sy_4g29ay83iaki-fill" data-item-order="-78826" transform="translate(465, 153)"><g id="3.cu_sy_4g29ay83iaki-fill" fill="url(#gradient-bceb57-497517668)" stroke="none"><g><path d="M 70 40C 70 56.5685 56.5685 70 40 70C 23.4315 70 10 56.5685 10 40C 10 23.4315 23.4315 10 40 10C 56.5685 10 70 23.4315 70 40Z"/></g></g></g><g id="g-root-1.cu_sy_1uljb1683ib63-fill" data-item-order="-78822" transform="translate(87, 123)"><defs><linearGradient id="gradient-cbcbcb-248399021" x2="0" y2="1"><stop offset="0" stop-color="#d9d9d9"/><stop offset="1" stop-color="#bcbcbc"/></linearGradient><linearGradient id="gradient-4dd3ff-378786070" x2="0" y2="1"><stop offset="0" stop-color="#7fdfff"/><stop offset="1" stop-color="#1ac6ff"/></linearGradient><linearGradient id="gradient-bceb57-497517668" x2="0" y2="1"><stop offset="0" stop-color="#cff976"/><stop offset="1" stop-color="#a8dd38"/></linearGradient><linearGradient id="gradient-64edab-240055791" x2="0" y2="1"><stop offset="0" stop-color="#83fac1"/><stop offset="1" stop-color="#44e095"/></linearGradient></defs><g id="1.cu_sy_1uljb1683ib63-fill" fill="url(#gradient-64edab-240055791)" stroke="none"><g><path d="M 58 34C 58 47.2548 47.2548 58 34 58C 20.7452 58 10 47.2548 10 34C 10 20.7452 20.7452 10 34 10C 47.2548 10 58 20.7452 58 34Z"/></g></g></g><g id="g-root-tx_cilium20_1cuvrmi83iadh-fill" data-item-order="0" transform="translate(171, 39)"><g id="tx_cilium20_1cuvrmi83iadh-fill" fill="#484848" stroke="none"><g><text style="font:20px Roboto,sans-serif;white-space:pre" font-family="Roboto, sans-serif" font-size="20"><tspan x="14.52" y="33.5" dominant-baseline="ideographic">Cilium 2024 年度报告概述</tspan></text></g></g></g><g id="g-root-tx__91i7iy839vkc-fill" data-item-order="0" transform="translate(75, 303)"><g id="tx__91i7iy839vkc-fill" fill="#3cc583" stroke="none"><g><text style="font:700 20px Roboto,sans-serif;white-space:pre" font-family="Roboto, sans-serif" font-size="20" font-weight="bold"><tspan x="14" y="33.5" dominant-baseline="ideographic">成就</tspan></text></g></g></g><g id="g-root-tx__1urs87u839tsd-fill" data-item-order="0" transform="translate(249, 315)"><g id="tx__1urs87u839tsd-fill" fill="#1eabda" stroke="none"><g><text style="font:700 20px Roboto,sans-serif;white-space:pre" font-family="Roboto, sans-serif" font-size="20" font-weight="bold"><tspan x="12" y="33.5" dominant-baseline="ideographic">未来方向</tspan></text></g></g></g><g id="g-root-tx__1qbyq3e839ukm-fill" data-item-order="0" transform="translate(441, 303)"><g id="tx__1qbyq3e839ukm-fill" fill="#92bd39" stroke="none"><g><text style="font:700 20px Roboto,sans-serif;white-space:pre" font-family="Roboto, sans-serif" font-size="20" font-weight="bold"><tspan x="12" y="33.5" dominant-baseline="ideographic">项目历史</tspan></text></g></g></g><g id="g-root-tx__m8l7yy83iadj-fill" data-item-order="0" transform="translate(15, 339)"><g id="tx__m8l7yy83iadj-fill" fill="#484848" stroke="none"><g><text style="font:20px Roboto,sans-serif;white-space:pre" font-family="Roboto, sans-serif" font-size="20"><tspan x="14" y="33.5" dominant-baseline="ideographic">过去一年主要里程</tspan><tspan x="54" y="57.5" dominant-baseline="ideographic">碑的回顾</tspan></text></g></g></g><g id="g-root-tx__hsrpui83ib5s-fill" data-item-order="0" transform="translate(207, 351)"><g id="tx__hsrpui83ib5s-fill" fill="#484848" stroke="none"><g><text style="font:20px Roboto,sans-serif;white-space:pre" font-family="Roboto, sans-serif" font-size="20"><tspan x="14" y="33.5" dominant-baseline="ideographic">在网络和安全领域</tspan><tspan x="44" y="57.5" dominant-baseline="ideographic">的战略展望</tspan></text></g></g></g><g id="g-root-tx__zk1qca83i8sm-fill" data-item-order="0" transform="translate(399, 339)"><g id="tx__zk1qca83i8sm-fill" fill="#484848" stroke="none"><g><text style="font:20px Roboto,sans-serif;white-space:pre" font-family="Roboto, sans-serif" font-size="20"><tspan x="14" y="33.5" dominant-baseline="ideographic">自首次提交以来近</tspan><tspan x="44" y="57.5" dominant-baseline="ideographic">十年的发展</tspan></text></g></g></g><g id="g-root-0.cu_sy_mgpe3e83gwso-stroke" data-item-order="-78834" transform="translate(219, 111)"><g id="0.cu_sy_mgpe3e83gwso-stroke" fill="none" stroke="#484848" stroke-linecap="round" stroke-linejoin="round" stroke-miterlimit="4" stroke-width="2"><g><path d="M 82 154C 121.7645 154 154 121.7645 154 82C 154 42.2355 121.7645 10 82 10C 42.2355 10 10 42.2355 10 82C 10 96.1129 14.0605 109.2775 21.0769 120.3891C 25.088 118.8459 29.4452 118 34 118C 53.5486 118 69.4579 133.5813 69.9864 153.0022C 73.8932 153.6584 77.9067 154 82 154Z"/></g></g></g><g id="g-root-2.cu_sy_8vvrfe83i9s9-stroke" data-item-order="-78830" transform="translate(207, 219)"><g id="2.cu_sy_8vvrfe83i9s9-stroke" fill="none" stroke="#484848" stroke-linecap="round" stroke-linejoin="round" stroke-miterlimit="4" stroke-width="2"><g><path d="M 82 46C 82 65.8823 65.8823 82 46 82C 26.1177 82 10 65.8823 10 46C 10 26.1177 26.1177 10 46 10C 65.8823 10 82 26.1177 82 46Z"/></g></g></g><g id="g-root-3.cu_sy_4g29ay83iaki-stroke" data-item-order="-78826" transform="translate(465, 153)"><g id="3.cu_sy_4g29ay83iaki-stroke" fill="none" stroke="#484848" stroke-linecap="round" stroke-linejoin="round" stroke-miterlimit="4" stroke-width="2"><g><path d="M 70 40C 70 56.5685 56.5685 70 40 70C 23.4315 70 10 56.5685 10 40C 10 23.4315 23.4315 10 40 10C 56.5685 10 70 23.4315 70 40Z"/></g></g></g><g id="g-root-1.cu_sy_1uljb1683ib63-stroke" data-item-order="-78822" transform="translate(87, 123)"><g id="1.cu_sy_1uljb1683ib63-stroke" fill="none" stroke="#484848" stroke-linecap="round" stroke-linejoin="round" stroke-miterlimit="4" stroke-width="2"><g><path d="M 58 34C 58 47.2548 47.2548 58 34 58C 20.7452 58 10 47.2548 10 34C 10 20.7452 20.7452 10 34 10C 47.2548 10 58 20.7452 58 34Z"/></g></g></g><g id="g-root--1.cu_sy_1hap9qy83i9l8-stroke" data-item-order="-78817" transform="translate(87, 111.26025390625)"><g id="-1.cu_sy_1hap9qy83i9l8-stroke" fill="none" stroke="#484848" stroke-dasharray="5 7" stroke-linecap="round" stroke-linejoin="round" stroke-miterlimit="4" stroke-width="2"><g><path d="M 144.3938 122.5313C 106.9361 114.0615 82 98.9595 82 81.7395C 82 63.1262 111.1351 46.9874 153.7264 39.0244M 128.7609 147.1723C 58.6613 135.7781 10 110.7645 10 81.7395C 10 75.7665 12.0608 69.9633 15.9452 64.4137M 194.39 129.2135C 200.7883 129.56 207.3365 129.7395 214 129.7395C 286.9016 129.7395 346 108.2492 346 81.7395C 346 63.0996 316.7815 46.9412 274.0908 38.9903M 204.1285 153.6567C 207.3994 153.7117 210.6905 153.7395 214 153.7395C 298.7492 153.7395 371.4281 135.4998 402.2421 109.5359M 57.841 35.4084C 91.7475 21.1874 140.9628 11.6636 196.5255 10M 232.4007 10.0285C 309.1626 12.4506 373.6831 29.8794 402.2421 53.9432"/></g></g></g><g id="g-root-ribb_8x4sre83cphc-stroke" data-item-order="0" transform="translate(96, 132)"><g id="ribb_8x4sre83cphc-stroke" fill="none" stroke="#484848" stroke-linecap="round" stroke-linejoin="round" stroke-miterlimit="4" stroke-width="2"><g><path d="M 15.184999 27.5425L 10.7 35.22625C 10.5275 35.52375 10.665 35.720001 11.00375 35.662502L 15.20125 34.951252L 16.65625 38.951248C 16.77375 39.27375 17.01375 39.297501 17.190001 39.001251L 21.02125 32.56625M 34.814999 27.5425L 39.299999 35.22625C 39.4725 35.52375 39.334999 35.720001 38.99625 35.662502L 34.798752 34.951252L 33.34375 38.951248C 33.22625 39.27375 32.986252 39.297501 32.809998 39.001251L 28.97875 32.56625M 13.75 22.040001C 13.75 28.253204 18.786797 33.290001 25 33.290001C 31.213203 33.290001 36.25 28.253204 36.25 22.040001C 36.25 15.826797 31.213203 10.79 25 10.79C 18.786797 10.79 13.75 15.826797 13.75 22.040001ZM 29.924999 18.952499L 24.025 24.852501C 23.658836 25.218901 23.064915 25.218901 22.69875 24.852501L 20.54875 22.702499"/></g></g></g><g id="g-root-serv_hx57ru839urn-stroke" data-item-order="0" transform="translate(255, 147)"><g id="serv_hx57ru839urn-stroke" fill="none" stroke="#484848" stroke-linecap="round" stroke-linejoin="round" stroke-miterlimit="4" stroke-width="2"><g><path d="M 71.5 30.781C 71.449768 27.821669 70.197487 25.010181 68.031265 22.993349C 65.865036 20.976517 62.971371 19.927992 60.015999 20.089001C 57.362427 14.789046 51.926994 11.458213 46 11.5C 37.930576 11.383427 31.158119 17.554529 30.526001 25.599998C 28.117828 25.067293 25.597637 25.640368 23.656618 27.16205C 21.715601 28.683735 20.557522 30.994284 20.5 33.459999C 20.5 41.625999 29.368 41.5 29.368 41.5L 61.521999 41.5C 61.521999 41.5 71.5 40.237 71.5 30.781ZM 30.25 72.247002C 29.836178 72.247002 29.500557 72.582184 29.500008 72.996002C 29.499456 73.409821 29.834187 73.745895 30.248007 73.746994C 30.661829 73.7481 30.998344 73.413818 31 73C 31.000801 72.800842 30.922039 72.609604 30.781216 72.468781C 30.640388 72.327957 30.449156 72.249199 30.25 72.25L 30.25 72.25M 37.75 72.247002C 37.336178 72.247002 37.000557 72.582184 37.000008 72.996002C 36.999458 73.409821 37.334187 73.745895 37.748009 73.746994C 38.161831 73.7481 38.498344 73.413818 38.5 73C 38.500801 72.800842 38.422039 72.609604 38.281216 72.468781C 38.140388 72.327957 37.949158 72.249199 37.75 72.25L 37.75 72.25M 71.5 76C 71.5 78.485283 69.485283 80.5 67 80.5L 25 80.5C 22.514719 80.5 20.5 78.485283 20.5 76L 20.5 70C 20.5 67.514725 22.514719 65.5 25 65.5L 67 65.5C 69.485283 65.5 71.5 67.514725 71.5 70ZM 30.25 57.246998C 29.836178 57.247005 29.500557 57.582184 29.500008 57.996002C 29.499456 58.409824 29.834187 58.745895 30.248007 58.746994C 30.661829 58.7481 30.998344 58.413818 31 58C 31.000801 57.800842 30.922039 57.609612 30.781216 57.468781C 30.640388 57.327957 30.449156 57.249195 30.25 57.249996L 30.25 57.25M 37.75 57.246998C 37.336178 57.247005 37.000557 57.582184 37.000008 57.996002C 36.999458 58.409824 37.334187 58.745895 37.748009 58.746994C 38.161831 58.7481 38.498344 58.413818 38.5 58C 38.500801 57.800842 38.422039 57.609612 38.281216 57.468781C 38.140388 57.327957 37.949158 57.249195 37.75 57.249996L 37.75 57.25M 71.5 61C 71.5 63.485283 69.485283 65.5 67 65.5L 25 65.5C 22.514719 65.5 20.5 63.485283 20.5 61L 20.5 55C 20.5 52.514721 22.514719 50.5 25 50.5L 67 50.5C 69.485283 50.5 71.5 52.514721 71.5 55Z"/></g></g></g><g id="g-root-grap_hu0uca835on8-stroke" data-item-order="0" transform="translate(477, 165)"><g id="grap_hu0uca835on8-stroke" fill="none" stroke="#484848" stroke-linecap="round" stroke-linejoin="round" stroke-miterlimit="4" stroke-width="2"><g><path d="M 17.5 28L 17.5 32.5M 20.5 45.25L 21.25 37.75L 24.25 37.75L 24.25 31.75C 24.25 28.022079 21.227922 25 17.5 25C 13.772079 25 10.75 28.022079 10.75 31.75L 10.75 37.75L 13.75 37.75L 14.5 45.25M 13.645 16C 15.055329 17.438824 16.985245 18.249712 19 18.25C 20.031654 18.253513 21.05294 18.044149 22 17.635M 13.03 18.25C 13.029743 20.735464 15.037822 22.750465 17.514999 22.750465C 19.992178 22.750465 22.000256 20.735464 22 18.25C 22.000256 15.764537 19.992178 13.749534 17.514999 13.749534C 15.037822 13.749534 13.029743 15.764537 13.03 18.25M 22 10.75L 43.75 10.75C 44.578426 10.75 45.25 11.421573 45.25 12.25L 45.25 27.25C 45.25 28.078428 44.578426 28.75 43.75 28.75L 28 28.75M 31.75 28.75L 31.75 37.75M 28.75 37.75L 34.75 37.75M 26.5 21.25L 31 16.75L 33.25 19L 38.5 13.75M 34.75 13.75L 38.5 13.75L 38.5 17.5M 36.25 22.75L 39.25 22.75M 36.25 25.75L 40.75 25.75"/></g></g></g><g id="g-root-3_mg30628349a9-stroke" data-item-order="0" transform="translate(222, 234)"><g id="3_mg30628349a9-stroke" fill="none" stroke="#484848" stroke-linecap="round" stroke-linejoin="round" stroke-miterlimit="4" stroke-width="2"><g><path d="M 12.24175 32.951248C 12.243219 24.357954 18.200294 16.913288 26.584089 15.027366C 34.967888 13.141442 43.539135 17.317982 47.220356 25.082863C 50.901569 32.847744 48.709526 42.127007 41.942749 47.423752M 41.8815 40.423752L 41.879749 47.423752L 49.758251 47.423752M 21.754749 32.951248L 30.616751 32.951248L 35.68475 39.2845"/></g></g></g></g></g></svg>