<svg xmlns="http://www.w3.org/2000/svg" xmlns:xlink="http://www.w3.org/1999/xlink" width="830" height="350" version="1.1" viewBox="0 0 830 350" style="fill:none;stroke:none;fill-rule:evenodd;clip-rule:evenodd;stroke-linecap:round;stroke-linejoin:round;stroke-miterlimit:1.5"><style id="fontImports">@import url(https://fonts.googleapis.com/css2?family=Roboto:wght@400;700&amp;display=block);</style><rect width="830" height="350" x="0" y="0" style="fill:none"/><g id="items" style="isolation:isolate"><g id="blend" style="mix-blend-mode:normal"><g id="g-root-tx_cni_8xs2ai8d6lts-fill" data-item-order="0" transform="translate(639, 27)"><g id="tx_cni_8xs2ai8d6lts-fill" fill="#484848" stroke="none"><g><text style="font:20px Roboto,sans-serif;white-space:pre" font-family="Roboto, sans-serif" font-size="20"><tspan x="12" y="33.5" dominant-baseline="ideographic">作为 CNI 的地位</tspan></text></g></g></g><g id="g-root-tx__dcz3bu8d6o7b-fill" data-item-order="0" transform="translate(639, 111)"><g id="tx__dcz3bu8d6o7b-fill" fill="#484848" stroke="none"><g><text style="font:20px Roboto,sans-serif;white-space:pre" font-family="Roboto, sans-serif" font-size="20"><tspan x="12" y="33.5" dominant-baseline="ideographic">综合网络堆栈</tspan></text></g></g></g><g id="g-root-tx_cilium20_13z9mze8d6o78-fill" data-item-order="0" transform="translate(15, 141)"><g id="tx_cilium20_13z9mze8d6o78-fill" fill="#484848" stroke="none"><g><text style="font:20px Roboto,sans-serif;white-space:pre" font-family="Roboto, sans-serif" font-size="20"><tspan x="17.04" y="33.5" dominant-baseline="ideographic">Cilium 2024 </tspan><tspan x="68" y="57.5" dominant-baseline="ideographic">的演变</tspan></text></g></g></g><g id="g-root-tx__hsslga8d6nf2-fill" data-item-order="0" transform="translate(639, 195)"><g id="tx__hsslga8d6nf2-fill" fill="#484848" stroke="none"><g><text style="font:20px Roboto,sans-serif;white-space:pre" font-family="Roboto, sans-serif" font-size="20"><tspan x="12" y="33.5" dominant-baseline="ideographic">可观测性</tspan></text></g></g></g><g id="g-root-tx__qoflp68d6mmd-fill" data-item-order="0" transform="translate(639, 279)"><g id="tx__qoflp68d6mmd-fill" fill="#484848" stroke="none"><g><text style="font:20px Roboto,sans-serif;white-space:pre" font-family="Roboto, sans-serif" font-size="20"><tspan x="12" y="33.5" dominant-baseline="ideographic">安全性</tspan></text></g></g></g><g id="g-root--1.cu_sy_3dtwa8daubw-stroke" data-item-order="-90714" transform="translate(242, 63)"><g id="-1.cu_sy_3dtwa8daubw-stroke" fill="none" stroke="#484848" stroke-linecap="round" stroke-linejoin="round" stroke-miterlimit="4" stroke-width="2"><g><path d="M 125 34L 101 10L 10 166L 34 190L 125 34ZM 125 34L 34 190L 216 190L 125 34Z"/></g></g></g><g id="g-root-0.line-start_sy_3dtwa8daubx-stroke" data-item-order="-90709" transform="translate(201, 165)"><g id="0.line-start_sy_3dtwa8daubx-stroke" fill="none" stroke="gray" stroke-linecap="round" stroke-linejoin="round" stroke-miterlimit="4" stroke-width="2"><g><path d="M 10 10L 120.5 10"/></g></g></g><g id="g-root-4.line_sy_1uoodqy8daux2-stroke" data-item-order="-90703" transform="translate(311.5, 165)"><g id="4.line_sy_1uoodqy8daux2-stroke" fill="none" stroke="#e0cb15" stroke-linecap="round" stroke-linejoin="round" stroke-miterlimit="4" stroke-width="2"><g><path d="M 257.88 134.82L 111.5 28L 10 10"/><path stroke-dasharray="none" d="M 249.2 136.5L 258.3 135.1L 256.9 126"/></g></g></g><g id="g-root-3.line_sy_1lt1di28davpr-stroke" data-item-order="-90697" transform="translate(312, 165)"><g id="3.line_sy_1lt1di28davpr-stroke" fill="none" stroke="#92bd39" stroke-linecap="round" stroke-linejoin="round" stroke-miterlimit="4" stroke-width="2"><g><path d="M 257.05 51.55L 104 16L 10 10"/><path stroke-dasharray="none" d="M 249.7 56.5L 257.5 51.7L 252.7 43.9"/></g></g></g><g id="g-root-2.line_sy_1q8uvmi8davpc-stroke" data-item-order="-90691" transform="translate(311.5, 123)"><g id="2.line_sy_1q8uvmi8davpc-stroke" fill="none" stroke="#3cc583" stroke-linecap="round" stroke-linejoin="round" stroke-miterlimit="4" stroke-width="2"><g><path d="M 257.55 10.429932L 97.5 45.999932L 10 51.999932"/><path stroke-dasharray="none" d="M 253.1 18.129932L 258 10.329932L 250.3 5.429932"/></g></g></g><g id="g-root-1.line_sy_1hducgq8datc9-stroke" data-item-order="-90685" transform="translate(311.5, 39)"><g id="1.line_sy_1hducgq8datc9-stroke" fill="none" stroke="#1eabda" stroke-linecap="round" stroke-linejoin="round" stroke-miterlimit="4" stroke-width="2"><g><path d="M 10 135.999956L 90.5 117.999956L 257.81 11.079956"/><path stroke-dasharray="none" d="M 256.3 19.779956L 258.2 10.779956L 249.3 8.879956"/></g></g></g><g id="g-root-kube_18f353u8d6nez-stroke" data-item-order="0" transform="translate(579, 15)"><g id="kube_18f353u8d6nez-stroke" fill="none" stroke="#1eabda" stroke-linecap="round" stroke-linejoin="round" stroke-miterlimit="4" stroke-width="2"><g><path d="M 34 11L 16 21L 11 41L 24 57L 44 57L 57 41L 52 21L 34 11ZM 24 34.526001C 24 40.048847 28.477154 44.526001 34 44.526001C 39.52285 44.526001 44 40.048847 44 34.526001C 44 29.003153 39.52285 24.526001 34 24.526001C 28.477154 24.526001 24 29.003153 24 34.526001M 34 34.526001L 34 20.526001M 34 34.526001L 23.119999 25.716M 34 34.526001L 20.306 37.436001M 34 34.526001L 27.643999 47M 34 34.526001L 44.880001 25.716M 34 34.526001L 47.694 37.436001M 34 34.526001L 40.356003 47"/></g></g></g><g id="g-root-glob_925aqi8dca2u-stroke" data-item-order="0" transform="translate(579, 99)"><g id="glob_925aqi8dca2u-stroke" fill="none" stroke="#3cc583" stroke-linecap="round" stroke-linejoin="round" stroke-miterlimit="4" stroke-width="2"><g><path d="M 43.017143 32.285713C 46.513237 32.257175 49.55304 29.880989 50.424805 26.495205C 51.296566 23.109421 49.782307 19.560665 46.734718 17.847275C 43.68713 16.133884 39.868271 16.684298 37.428574 19.188572C 35.974289 14.070918 30.8573 10.906865 25.629116 11.892467C 20.400932 12.878069 16.787176 17.688015 17.296022 22.9839C 17.804871 28.279785 22.26837 32.313641 27.588572 32.285713ZM 16.857143 56.285713C 16.857143 46.817978 24.532263 39.142857 34 39.142857C 43.467739 39.142857 51.142857 46.817978 51.142857 56.285713M 37.428574 39.485718L 37.428574 46.720001C 37.490005 48.286156 38.513695 49.651073 40 50.148575C 41.486305 50.646076 42.509998 52.01099 42.571434 53.577148L 42.57143 56.011429M 18.297144 49.428574L 22 49.428574C 25.787096 49.428574 28.857143 52.498619 28.857143 56.285713"/></g></g></g><g id="g-root-serv_145i7iy8df11e-stroke" data-item-order="0" transform="translate(147, 141)"><g id="serv_145i7iy8df11e-stroke" fill="none" stroke="#484848" stroke-linecap="round" stroke-linejoin="round" stroke-miterlimit="4" stroke-width="2"><g><path d="M 51 23.854C 50.966511 21.881111 50.131657 20.006788 48.687508 18.662231C 47.243355 17.317677 45.314247 16.618662 43.343998 16.726C 41.574951 13.192698 37.951328 10.972141 34 11C 28.620384 10.922284 24.105413 15.036353 23.684 20.4C 22.078552 20.044861 20.398424 20.42691 19.104412 21.441368C 17.810402 22.455822 17.038349 23.996189 17 25.639999C 17 31.084 22.911999 31 22.911999 31L 44.348 31C 44.348 31 51 30.158001 51 23.854ZM 23.5 51.498001C 23.224117 51.498001 23.00037 51.721455 23.000004 51.997337C 22.999638 52.273216 23.222792 52.497265 23.498672 52.497997C 23.774551 52.498734 23.998898 52.275879 24 52C 24.000534 51.867226 23.948027 51.739738 23.854143 51.645855C 23.760258 51.551971 23.632771 51.499466 23.5 51.5L 23.5 51.5M 28.5 51.498001C 28.224119 51.498001 28.00037 51.721455 28.000004 51.997337C 27.999638 52.273216 28.222792 52.497265 28.498672 52.497997C 28.774553 52.498734 28.998896 52.275879 29 52C 29.000534 51.867226 28.948027 51.739738 28.854143 51.645855C 28.760258 51.551971 28.632771 51.499466 28.5 51.5L 28.5 51.5M 51 54C 51 55.656857 49.656857 57 48 57L 20 57C 18.343147 57 17 55.656857 17 54L 17 50C 17 48.343147 18.343147 47 20 47L 48 47C 49.656857 47 51 48.343147 51 50ZM 23.5 41.498001C 23.224117 41.498001 23.00037 41.721455 23.000004 41.997337C 22.999638 42.273216 23.222792 42.497265 23.498672 42.497997C 23.774551 42.498734 23.998898 42.275879 24 42C 24.000534 41.867226 23.948027 41.739738 23.854143 41.645855C 23.760258 41.551971 23.632771 41.499466 23.5 41.5L 23.5 41.5M 28.5 41.498001C 28.224119 41.498001 28.00037 41.721455 28.000004 41.997337C 27.999638 42.273216 28.222792 42.497265 28.498672 42.497997C 28.774553 42.498734 28.998896 42.275879 29 42C 29.000534 41.867226 28.948027 41.739738 28.854143 41.645855C 28.760258 41.551971 28.632771 41.499466 28.5 41.5L 28.5 41.5M 51 44C 51 45.656857 49.656857 47 48 47L 20 47C 18.343147 47 17 45.656857 17 44L 17 40C 17 38.343147 18.343147 37 20 37L 48 37C 49.656857 37 51 38.343147 51 40Z"/></g></g></g><g id="g-root-moni_1um6kka8d3v9j-stroke" data-item-order="0" transform="translate(579, 183)"><g id="moni_1um6kka8d3v9j-stroke" fill="none" stroke="#92bd39" stroke-linecap="round" stroke-linejoin="round" stroke-miterlimit="4" stroke-width="2"><g><path d="M 36.862 39C 36.996651 41.578751 37.819115 44.074451 39.243999 46.228001L 39.723999 47M 28.275999 47L 28.756001 46.228001C 30.180887 44.074451 31.003351 41.578751 31.138 39M 25 47L 43 47M 14 33L 54 33M 52 11C 53.104568 11 54 11.895431 54 13L 54 37C 54 38.104568 53.104568 39 52 39L 16 39C 14.895431 39 14 38.104568 14 37L 14 13C 14 11.895431 14.895431 11 16 11ZM 34 51L 34 57M 18 57L 50 57"/></g></g></g><g id="g-root-chec_1unfiqi8cwu0x-stroke" data-item-order="0" transform="translate(579, 267)"><g id="chec_1unfiqi8cwu0x-stroke" fill="none" stroke="#e0cb15" stroke-linecap="round" stroke-linejoin="round" stroke-miterlimit="4" stroke-width="2"><g><path d="M 45 24L 32.93 41.464001L 23.774 32.304001M 14 17.549999L 14 32.823997C 13.983479 42.968212 20.202927 52.079685 29.656 55.759998L 31.790001 56.588001C 33.211998 57.138035 34.788002 57.138035 36.209999 56.588001L 38.344002 55.759998C 47.797073 52.079685 54.016521 42.968212 54 32.823997L 54 17.549999C 54.009754 16.344622 53.313648 15.244927 52.220001 14.738001C 46.47974 12.216312 40.269463 10.942217 34 11C 27.730537 10.942217 21.52026 12.216312 15.78 14.738C 14.686356 15.244927 13.990248 16.344622 14 17.549999Z"/></g></g></g></g></g></svg>