<svg xmlns="http://www.w3.org/2000/svg" xmlns:xlink="http://www.w3.org/1999/xlink" width="746" height="524" version="1.1" viewBox="0 0 746 524" style="fill:none;stroke:none;fill-rule:evenodd;clip-rule:evenodd;stroke-linecap:round;stroke-linejoin:round;stroke-miterlimit:1.5"><style id="fontImports">@import url(https://fonts.googleapis.com/css2?family=Roboto:wght@400;700&amp;display=block);</style><rect width="746" height="524" x="0" y="0" style="fill:#fff"/><g id="items" style="isolation:isolate"><g id="blend" style="mix-blend-mode:normal"><g id="g-root-tf_14155ey4r6b64-fill" data-item-order="-388368" transform="translate(-9, -9)"><g id="tf_14155ey4r6b64-fill" fill="#fff" stroke="none"><g><path d="M 10 10L 754 10L 754 532L 10 532Z"/></g></g></g><g id="g-root-ro_1luwvxm4repz6-fill" data-item-order="-25200" transform="translate(255, 102)"><g id="ro_1luwvxm4repz6-fill" fill="#f5f5f5" stroke="none"><g><path d="M 34 10L 154 10C 154 10 178 10 178 34L 178 136C 178 136 178 160 154 160L 34 160C 34 160 10 160 10 136L 10 34C 10 34 10 10 34 10"/></g></g></g><g id="g-root-ro_1q9hj1m4reqku-fill" data-item-order="-8424" transform="translate(261, 339)"><g id="ro_1q9hj1m4reqku-fill" fill="#ffeceb" stroke="none"><g><path d="M 22 10L 154 10C 154 10 166 10 166 22L 166 52C 166 52 166 64 154 64L 22 64C 22 64 10 64 10 52L 10 22C 10 22 10 10 22 10"/></g></g></g><g id="g-root-ro_1lr64kq4rls06-fill" data-item-order="-7776" transform="translate(63, 39)"><g id="ro_1lr64kq4rls06-fill" fill="#f4ffdc" stroke="none"><g><path d="M 22 10L 142 10C 142 10 154 10 154 22L 154 52C 154 52 154 64 142 64L 22 64C 22 64 10 64 10 52L 10 22C 10 22 10 10 22 10"/></g></g></g><g id="g-root-ro_mgqcve4r4wzn-fill" data-item-order="-7776" transform="translate(63, 189)"><g id="ro_mgqcve4r4wzn-fill" fill="#ffebf7" stroke="none"><g><path d="M 22 10L 142 10C 142 10 154 10 154 22L 154 52C 154 52 154 64 142 64L 22 64C 22 64 10 64 10 52L 10 22C 10 22 10 10 22 10"/></g></g></g><g id="g-root-ro_1q88hpm4rlqm8-fill" data-item-order="-7776" transform="translate(471, 39)"><g id="ro_1q88hpm4rlqm8-fill" fill="#faf0ff" stroke="none"><g><path d="M 22 10L 142 10C 142 10 154 10 154 22L 154 52C 154 52 154 64 142 64L 22 64C 22 64 10 64 10 52L 10 22C 10 22 10 10 22 10"/></g></g></g><g id="g-root-ro_1lpx6ei4r6az3-fill" data-item-order="-7776" transform="translate(471, 189)"><g id="ro_1lpx6ei4r6az3-fill" fill="#fffbda" stroke="none"><g><path d="M 22 10L 142 10C 142 10 154 10 154 22L 154 52C 154 52 154 64 142 64L 22 64C 22 64 10 64 10 52L 10 22C 10 22 10 10 22 10"/></g></g></g><g id="g-root-tx__hwjfze4repsc-fill" data-item-order="0" transform="translate(519, 291)"><g id="tx__hwjfze4repsc-fill" fill="#484848" stroke="none"><g><text style="font:20px Roboto,sans-serif;white-space:pre" font-family="Roboto, sans-serif" font-size="20"><tspan x="12" y="33.5" dominant-baseline="ideographic">多集群管理工具</tspan></text></g></g></g><g id="g-root-tx__1lto0x64rerd3-fill" data-item-order="0" transform="translate(51, 105)"><g id="tx__1lto0x64rerd3-fill" fill="#484848" stroke="none"><g><text style="font:20px Roboto,sans-serif;white-space:pre" font-family="Roboto, sans-serif" font-size="20"><tspan x="14" y="33.5" dominant-baseline="ideographic">贡献者增加</tspan></text></g></g></g><g id="g-root-tx_kubernet_qs6g8a4reozn-fill" data-item-order="0" transform="translate(519, 255)"><g id="tx_kubernet_qs6g8a4reozn-fill" fill="#484848" stroke="none"><g><text style="font:20px Roboto,sans-serif;white-space:pre" font-family="Roboto, sans-serif" font-size="20"><tspan x="13.02" y="33.5" dominant-baseline="ideographic">Kubernetes 网络堆栈</tspan></text></g></g></g><g id="g-root-tx_cilium11_18itzmy4reps9-fill" data-item-order="0" transform="translate(519, 105)"><g id="tx_cilium11_18itzmy4reps9-fill" fill="#484848" stroke="none"><g><text style="font:20px Roboto,sans-serif;white-space:pre" font-family="Roboto, sans-serif" font-size="20"><tspan x="13.98" y="33.5" dominant-baseline="ideographic">Cilium 1.15</tspan></text></g></g></g><g id="g-root-tx__1hegzvu4reozk-fill" data-item-order="0" transform="translate(27, 141)"><g id="tx__1hegzvu4reozk-fill" fill="#484848" stroke="none"><g><text style="font:20px Roboto,sans-serif;white-space:pre" font-family="Roboto, sans-serif" font-size="20"><tspan x="16" y="33.5" dominant-baseline="ideographic">公司数量增长</tspan></text></g></g></g><g id="g-root-tx_openuk_dgpxuy4reqkl-fill" data-item-order="0" transform="translate(51, 255)"><g id="tx_openuk_dgpxuy4reqkl-fill" fill="#484848" stroke="none"><g><text style="font:20px Roboto,sans-serif;white-space:pre" font-family="Roboto, sans-serif" font-size="20"><tspan x="15.47" y="33.5" dominant-baseline="ideographic">OpenUK 奖</tspan></text></g></g></g><g id="g-root-tx__1ur6gfe4repkw-fill" data-item-order="0" transform="translate(309, 441)"><g id="tx__1ur6gfe4repkw-fill" fill="#484848" stroke="none"><g><text style="font:20px Roboto,sans-serif;white-space:pre" font-family="Roboto, sans-serif" font-size="20"><tspan x="12" y="33.5" dominant-baseline="ideographic">验证器代码审计</tspan></text></g></g></g><g id="g-root-tx_cilium11_v7dh9m4rerd6-fill" data-item-order="0" transform="translate(519, 141)"><g id="tx_cilium11_v7dh9m4rerd6-fill" fill="#484848" stroke="none"><g><text style="font:20px Roboto,sans-serif;white-space:pre" font-family="Roboto, sans-serif" font-size="20"><tspan x="13.98" y="33.5" dominant-baseline="ideographic">Cilium 1.16</tspan></text></g></g></g><g id="g-root-tx__5vwkq4reozr-fill" data-item-order="0" transform="translate(309, 405)"><g id="tx__5vwkq4reozr-fill" fill="#484848" stroke="none"><g><text style="font:20px Roboto,sans-serif;white-space:pre" font-family="Roboto, sans-serif" font-size="20"><tspan x="16" y="33.5" dominant-baseline="ideographic">安全威胁模型</tspan></text></g></g></g><g id="g-root-tx_cncf_4l2xm24rerda-fill" data-item-order="0" transform="translate(15, 291)"><g id="tx_cncf_4l2xm24rerda-fill" fill="#484848" stroke="none"><g><text style="font:20px Roboto,sans-serif;white-space:pre" font-family="Roboto, sans-serif" font-size="20"><tspan x="13.85" y="33.5" dominant-baseline="ideographic">CNCF 技术雷达</tspan></text></g></g></g><g id="g-root-tx__1hiuene4r4w7d-fill" data-item-order="1000000000" transform="translate(75, 204)"><g id="tx__1hiuene4r4w7d-fill" fill="#de58a9" stroke="none"><g><text style="font:20px Roboto,sans-serif;white-space:pre" font-family="Roboto, sans-serif" font-size="20"><tspan x="12" y="33.5" dominant-baseline="ideographic">行业认可</tspan></text></g></g></g><g id="g-root-tx_cilium20_v6qx0q4reqyw-fill" data-item-order="1000000000" transform="translate(279, 180)"><g id="tx_cilium20_v6qx0q4reqyw-fill" fill="#484848" stroke="none"><g><text style="font:20px Roboto,sans-serif;white-space:pre" font-family="Roboto, sans-serif" font-size="20"><tspan x="14.52" y="33.5" dominant-baseline="ideographic">Cilium 2024 </tspan><tspan x="27.53" y="57.5" dominant-baseline="ideographic">年度报告</tspan></text></g></g></g><g id="g-root-tx__8xrz564rlrly-fill" data-item-order="1000000000" transform="translate(519, 54)"><g id="tx__8xrz564rlrly-fill" fill="#ba5de5" stroke="none"><g><text style="font:20px Roboto,sans-serif;white-space:pre" font-family="Roboto, sans-serif" font-size="20"><tspan x="12" y="33.5" dominant-baseline="ideographic">技术创新</tspan></text></g></g></g><g id="g-root-tx_ebpf_1hclkmi4repz8-fill" data-item-order="1000000000" transform="translate(309, 354)"><g id="tx_ebpf_1hclkmi4repz8-fill" fill="#e55753" stroke="none"><g><text style="font:20px Roboto,sans-serif;white-space:pre" font-family="Roboto, sans-serif" font-size="20"><tspan x="12.16" y="33.5" dominant-baseline="ideographic">eBPF 安全</tspan></text></g></g></g><g id="g-root-tx__qnt4mi4rlqmc-fill" data-item-order="1000000000" transform="translate(75, 54)"><g id="tx__qnt4mi4rlqmc-fill" fill="#92bd39" stroke="none"><g><text style="font:20px Roboto,sans-serif;white-space:pre" font-family="Roboto, sans-serif" font-size="20"><tspan x="12" y="33.5" dominant-baseline="ideographic">社区发展</tspan></text></g></g></g><g id="g-root-tx__959rca4r4xdx-fill" data-item-order="1000000000" transform="translate(519, 204)"><g id="tx__959rca4r4xdx-fill" fill="#e0cb15" stroke="none"><g><text style="font:20px Roboto,sans-serif;white-space:pre" font-family="Roboto, sans-serif" font-size="20"><tspan x="12" y="33.5" dominant-baseline="ideographic">广泛应用</tspan></text></g></g></g><g id="g-root-ro_1luwvxm4repz6-stroke" data-item-order="-25200" transform="translate(255, 102)"><g id="ro_1luwvxm4repz6-stroke" fill="none" stroke="#484848" stroke-linecap="round" stroke-linejoin="round" stroke-miterlimit="4" stroke-width="2"><g><path d="M 34 10L 154 10C 154 10 178 10 178 34L 178 136C 178 136 178 160 154 160L 34 160C 34 160 10 160 10 136L 10 34C 10 34 10 10 34 10"/></g></g></g><g id="g-root-ro_1q9hj1m4reqku-stroke" data-item-order="-8424" transform="translate(261, 339)"><g id="ro_1q9hj1m4reqku-stroke" fill="none" stroke="#e55753" stroke-linecap="round" stroke-linejoin="round" stroke-miterlimit="4" stroke-width="2"><g><path d="M 22 10L 154 10C 154 10 166 10 166 22L 166 52C 166 52 166 64 154 64L 22 64C 22 64 10 64 10 52L 10 22C 10 22 10 10 22 10"/></g></g></g><g id="g-root-ro_1lr64kq4rls06-stroke" data-item-order="-7776" transform="translate(63, 39)"><g id="ro_1lr64kq4rls06-stroke" fill="none" stroke="#92bd39" stroke-linecap="round" stroke-linejoin="round" stroke-miterlimit="4" stroke-width="2"><g><path d="M 22 10L 142 10C 142 10 154 10 154 22L 154 52C 154 52 154 64 142 64L 22 64C 22 64 10 64 10 52L 10 22C 10 22 10 10 22 10"/></g></g></g><g id="g-root-ro_mgqcve4r4wzn-stroke" data-item-order="-7776" transform="translate(63, 189)"><g id="ro_mgqcve4r4wzn-stroke" fill="none" stroke="#de58a9" stroke-linecap="round" stroke-linejoin="round" stroke-miterlimit="4" stroke-width="2"><g><path d="M 22 10L 142 10C 142 10 154 10 154 22L 154 52C 154 52 154 64 142 64L 22 64C 22 64 10 64 10 52L 10 22C 10 22 10 10 22 10"/></g></g></g><g id="g-root-ro_1q88hpm4rlqm8-stroke" data-item-order="-7776" transform="translate(471, 39)"><g id="ro_1q88hpm4rlqm8-stroke" fill="none" stroke="#ba5de5" stroke-linecap="round" stroke-linejoin="round" stroke-miterlimit="4" stroke-width="2"><g><path d="M 22 10L 142 10C 142 10 154 10 154 22L 154 52C 154 52 154 64 142 64L 22 64C 22 64 10 64 10 52L 10 22C 10 22 10 10 22 10"/></g></g></g><g id="g-root-ro_1lpx6ei4r6az3-stroke" data-item-order="-7776" transform="translate(471, 189)"><g id="ro_1lpx6ei4r6az3-stroke" fill="none" stroke="#e0cb15" stroke-linecap="round" stroke-linejoin="round" stroke-miterlimit="4" stroke-width="2"><g><path d="M 22 10L 142 10C 142 10 154 10 154 22L 154 52C 154 52 154 64 142 64L 22 64C 22 64 10 64 10 52L 10 22C 10 22 10 10 22 10"/></g></g></g><g id="g-root-cu_8vwq7e4r69zb-stroke" data-item-order="0" transform="translate(423, 66)"><g id="cu_8vwq7e4r69zb-stroke" fill="none" stroke="#969696" stroke-dasharray="5 7" stroke-linecap="round" stroke-linejoin="round" stroke-miterlimit="4" stroke-width="2"><g><path d="M 10 96L 13 96L 13.1 96C 24.642748 96.000003 33.999998 86.642755 33.999998 75.100003L 34 75L 34 30.9C 33.999999 19.357249 43.357248 10.000001 54.899999 10.000002L 55 10L 58 10"/></g></g></g><g id="g-root-cu_dl3cmi4r4xsc-stroke" data-item-order="0" transform="translate(207, 66)"><g id="cu_dl3cmi4r4xsc-stroke" fill="none" stroke="#969696" stroke-dasharray="5 7" stroke-linecap="round" stroke-linejoin="round" stroke-miterlimit="4" stroke-width="2"><g><path d="M 58 96L 55 96L 54.9 96C 43.357245 95.999996 33.999997 86.642747 33.999997 75.099997L 34 75L 34 30.9C 33.999998 19.357248 24.64275 10 13.1 10L 13 10L 10 10"/></g></g></g><g id="g-root-cu_1q5qroq4r6c5n-stroke" data-item-order="0" transform="translate(165, 93)"><g id="cu_1q5qroq4r6c5n-stroke" fill="none" stroke="#969696" stroke-dasharray="5 7" stroke-linecap="round" stroke-linejoin="round" stroke-miterlimit="4" stroke-width="2"><g><path d="M 28 10L 28 22L 28 34L 19 34L 10 34"/></g></g></g><g id="g-root-cu_18f38a24r6bd2-stroke" data-item-order="0" transform="translate(165, 93)"><g id="cu_18f38a24r6bd2-stroke" fill="none" stroke="#969696" stroke-dasharray="5 7" stroke-linecap="round" stroke-linejoin="round" stroke-miterlimit="4" stroke-width="2"><g><path d="M 28 10L 28 17.5L 28 58C 27.999999 64.627415 22.627416 69.999998 16 69.999998L 15.9 70L 10 70"/></g></g></g><g id="g-root-cu_1lrsotm4r6byn-stroke" data-item-order="0" transform="translate(285, 393)"><g id="cu_1lrsotm4r6byn-stroke" fill="none" stroke="#969696" stroke-dasharray="5 7" stroke-linecap="round" stroke-linejoin="round" stroke-miterlimit="4" stroke-width="2"><g><path d="M 10 10L 10 22L 10 34L 19 34L 28 34"/></g></g></g><g id="g-root-cu_8xs5gq4r69s0-stroke" data-item-order="0" transform="translate(495, 243)"><g id="cu_8xs5gq4r69s0-stroke" fill="none" stroke="#969696" stroke-dasharray="5 7" stroke-linecap="round" stroke-linejoin="round" stroke-miterlimit="4" stroke-width="2"><g><path d="M 10 10L 10 17.5L 10 58C 10.000002 64.627417 15.372585 70 22.000002 69.999999L 22.1 70L 28 70"/></g></g></g><g id="g-root-cu_13z9q5m4r6c5c-stroke" data-item-order="0" transform="translate(495, 93)"><g id="cu_13z9q5m4r6c5c-stroke" fill="none" stroke="#969696" stroke-dasharray="5 7" stroke-linecap="round" stroke-linejoin="round" stroke-miterlimit="4" stroke-width="2"><g><path d="M 10 10L 10 22L 10 34L 19 34L 28 34"/></g></g></g><g id="g-root-cu_v496zu4r69sb-stroke" data-item-order="0" transform="translate(495, 93)"><g id="cu_v496zu4r69sb-stroke" fill="none" stroke="#969696" stroke-dasharray="5 7" stroke-linecap="round" stroke-linejoin="round" stroke-miterlimit="4" stroke-width="2"><g><path d="M 10 10L 10 17.5L 10 58C 10.000002 64.627417 15.372585 70 22.000002 69.999999L 22.1 70L 28 70"/></g></g></g><g id="g-root-cu_qofove4r6akl-stroke" data-item-order="0" transform="translate(495, 243)"><g id="cu_qofove4r6akl-stroke" fill="none" stroke="#969696" stroke-dasharray="5 7" stroke-linecap="round" stroke-linejoin="round" stroke-miterlimit="4" stroke-width="2"><g><path d="M 10 10L 10 22L 10 34L 19 34L 28 34"/></g></g></g><g id="g-root-cu_1q5qroq4r6c5k-stroke" data-item-order="0" transform="translate(339, 252)"><g id="cu_1q5qroq4r6c5k-stroke" fill="none" stroke="#969696" stroke-dasharray="5 7" stroke-linecap="round" stroke-linejoin="round" stroke-miterlimit="4" stroke-width="2"><g><path d="M 10 10L 10 53.5L 10 97"/></g></g></g><g id="g-root-cu_1unfp2i4r6b5x-stroke" data-item-order="0" transform="translate(165, 243)"><g id="cu_1unfp2i4r6b5x-stroke" fill="none" stroke="#969696" stroke-dasharray="5 7" stroke-linecap="round" stroke-linejoin="round" stroke-miterlimit="4" stroke-width="2"><g><path d="M 28 10L 28 17.5L 28 58C 27.999999 64.627415 22.627416 69.999998 16 69.999998L 15.9 70L 10 70"/></g></g></g><g id="g-root-cu_2557u4r6akq-stroke" data-item-order="0" transform="translate(165, 243)"><g id="cu_2557u4r6akq-stroke" fill="none" stroke="#969696" stroke-dasharray="5 7" stroke-linecap="round" stroke-linejoin="round" stroke-miterlimit="4" stroke-width="2"><g><path d="M 28 10L 28 22L 28 34L 19 34L 10 34"/></g></g></g><g id="g-root-cu_4g382y4r6arm-stroke" data-item-order="0" transform="translate(423, 202)"><g id="cu_4g382y4r6arm-stroke" fill="none" stroke="#969696" stroke-dasharray="5 7" stroke-linecap="round" stroke-linejoin="round" stroke-miterlimit="4" stroke-width="2"><g><path d="M 10 10L 13 10L 13.1 10C 16.47715 10.00393 20.199416 10.613028 24.1 11.8C 26.434787 12.503612 29.936878 14.343094 34 16.999999C 38.063122 19.656905 41.565214 21.496387 43.900001 22.199999C 47.800584 23.386973 51.52285 23.996071 54.900001 24.000001L 55 24L 58 24"/></g></g></g><g id="g-root-cu_1hclnsa4r69l6-stroke" data-item-order="0" transform="translate(285, 393)"><g id="cu_1hclnsa4r69l6-stroke" fill="none" stroke="#969696" stroke-dasharray="5 7" stroke-linecap="round" stroke-linejoin="round" stroke-miterlimit="4" stroke-width="2"><g><path d="M 10 10L 10 17.5L 10 58C 10.000002 64.627417 15.372585 70 22.000002 69.999999L 22.1 70L 28 70"/></g></g></g><g id="g-root-cu_1ulk9t64r6bd9-stroke" data-item-order="0" transform="translate(207, 202)"><g id="cu_1ulk9t64r6bd9-stroke" fill="none" stroke="#969696" stroke-dasharray="5 7" stroke-linecap="round" stroke-linejoin="round" stroke-miterlimit="4" stroke-width="2"><g><path d="M 58 10L 55 10L 54.9 10C 51.522851 10.003929 47.800585 10.613027 43.900001 11.799999C 41.565213 12.503613 38.063122 14.343095 34 17.000001C 29.936878 19.656907 26.434787 21.496389 24.1 22.200001C 20.199417 23.386972 16.477151 23.99607 13.100001 24L 13 24L 10 24"/></g></g></g><g id="g-root-ribb_zs6v8q4r4veq-stroke" data-item-order="1000000000" transform="translate(165, 201)"><g id="ribb_zs6v8q4r4veq-stroke" fill="none" stroke="#de58a9" stroke-linecap="round" stroke-linejoin="round" stroke-miterlimit="4" stroke-width="2"><g><path d="M 15.184999 27.5425L 10.7 35.22625C 10.5275 35.52375 10.665 35.720001 11.00375 35.662502L 15.20125 34.951252L 16.65625 38.951248C 16.77375 39.27375 17.01375 39.297501 17.190001 39.001251L 21.02125 32.56625M 34.814999 27.5425L 39.299999 35.22625C 39.4725 35.52375 39.334999 35.720001 38.99625 35.662502L 34.798752 34.951252L 33.34375 38.951248C 33.22625 39.27375 32.986252 39.297501 32.809998 39.001251L 28.97875 32.56625M 13.75 22.040001C 13.75 28.253204 18.786797 33.290001 25 33.290001C 31.213203 33.290001 36.25 28.253204 36.25 22.040001C 36.25 15.826797 31.213203 10.79 25 10.79C 18.786797 10.79 13.75 15.826797 13.75 22.040001ZM 29.924999 18.952499L 24.025 24.852501C 23.658836 25.218901 23.064915 25.218901 22.69875 24.852501L 20.54875 22.702499"/></g></g></g><g id="g-root-appl_1ulk6ne4r6a6e-stroke" data-item-order="1000000000" transform="translate(483, 201)"><g id="appl_1ulk6ne4r6a6e-stroke" fill="none" stroke="#e0cb15" stroke-linecap="round" stroke-linejoin="round" stroke-miterlimit="4" stroke-width="2"><g><path d="M 38.92857 28.214285L 38.92857 32.5C 38.92857 33.091732 38.448875 33.571426 37.857143 33.571426L 12.142857 33.571426C 11.551124 33.571426 11.071428 33.091732 11.071428 32.5L 11.071428 28.214285M 11.071428 19.642857L 11.071428 15.357142C 11.071428 14.765409 11.551124 14.285714 12.142857 14.285714L 37.857143 14.285714C 38.448875 14.285714 38.92857 14.765409 38.92857 15.357142L 38.92857 19.642857M 22.857143 33.571426L 20.714285 38.92857M 27.142857 33.571426L 29.285713 38.92857M 18.571428 38.92857L 31.42857 38.92857M 21.785713 19.642857L 28.214285 19.642857L 28.214285 28.214285L 21.785713 28.214285ZM 16.428572 20.714285L 13.214286 23.928572L 16.428572 27.142857M 33.571426 20.714285L 36.785713 23.928572L 33.571426 27.142857"/></g></g></g><g id="g-root-bili_1qaqe224rep6x-stroke" data-item-order="1000000000" transform="translate(315, 126)"><g id="bili_1qaqe224rep6x-stroke" fill="none" stroke="#484848" stroke-linecap="round" stroke-linejoin="round" stroke-miterlimit="4" stroke-width="2"><g><path d="M 25 43L 38.664001 43C 38.603798 50.641762 32.472481 56.847553 24.832001 57.000004C 17.298323 57.103447 11.106403 51.081635 11 43.548C 11.191044 35.9851 17.43552 29.985945 25 30.098ZM 57 24C 56.938423 27.536493 55.463947 30.901222 52.90551 33.343552C 50.347073 35.785885 46.917542 37.102615 43.382 37L 31 37L 31 23.936001C 31 23.936001 31.318001 11 43.925999 11C 47.405453 10.916562 50.768208 12.256931 53.236233 14.710985C 55.704254 17.165041 57.06369 20.520134 57.000004 24M 45 31C 45.024429 30.18606 44.552937 29.438576 43.807858 29.110022C 43.062775 28.781467 42.192886 28.93745 41.608383 29.504417C 41.02388 30.071384 40.841484 30.936119 41.147198 31.690859C 41.452911 32.445602 42.185692 32.939636 43 32.940002C 44.086735 32.953377 44.980282 32.086639 45 31M 43 16L 43 26"/></g></g></g><g id="g-root-911_40hbe4repz9-stroke" data-item-order="1000000000" transform="translate(273, 351)"><g id="911_40hbe4repz9-stroke" fill="none" stroke="#e55753" stroke-linecap="round" stroke-linejoin="round" stroke-miterlimit="4" stroke-width="2"><g><path d="M 31.875 18.75L 24.331249 29.665001L 18.608749 23.940001M 12.5 14.71875L 12.5 24.264999C 12.489674 30.605133 16.376829 36.299805 22.285 38.599998L 23.618752 39.1175C 24.5075 39.461273 25.4925 39.461273 26.38125 39.1175L 27.715 38.599998C 33.623169 36.299805 37.510326 30.605133 37.5 24.264999L 37.5 14.71875C 37.506096 13.965388 37.07103 13.27808 36.387501 12.96125C 32.799839 11.385195 28.918413 10.588885 24.999998 10.625C 21.081585 10.588885 17.200163 11.385195 13.6125 12.96125C 12.928972 13.27808 12.493905 13.965388 12.5 14.71875Z"/></g></g></g><g id="g-root-tech_1uo1zu24rlptz-stroke" data-item-order="1000000000" transform="translate(483, 51)"><g id="tech_1uo1zu24rlptz-stroke" fill="none" stroke="#ba5de5" stroke-linecap="round" stroke-linejoin="round" stroke-miterlimit="4" stroke-width="2"><g><path d="M 16.875 34.375L 33.125 34.375C 33.125 34.375 34.375 34.375 34.375 35.625L 34.375 38.125C 34.375 38.125 34.375 39.375 33.125 39.375L 16.875 39.375C 16.875 39.375 15.625 39.375 15.625 38.125L 15.625 35.625C 15.625 35.625 15.625 34.375 16.875 34.375M 18.125 34.375L 18.125 30.625M 31.875 34.375L 31.875 30.625M 18.125 36.875L 19.375 36.875M 21.875 36.875L 23.125 36.875M 25 17.8125C 25.172588 17.8125 25.3125 17.952412 25.3125 18.125C 25.3125 18.297588 25.172588 18.4375 25 18.4375C 24.827412 18.4375 24.6875 18.297588 24.6875 18.125C 24.6875 17.952412 24.827412 17.8125 25 17.8125M 23.125 10.625L 26.875 10.625C 26.875 10.625 28.125 10.625 28.125 11.875L 28.125 19.375C 28.125 19.375 28.125 20.625 26.875 20.625L 23.125 20.625C 23.125 20.625 21.875 20.625 21.875 19.375L 21.875 11.875C 21.875 11.875 21.875 10.625 23.125 10.625M 33.125 14.375L 36.875 14.375C 37.565353 14.375 38.125 14.934644 38.125 15.625L 38.125 19.375L 38.125 19.375L 31.875 19.375L 31.875 19.375L 31.875 15.625C 31.875 14.934644 32.434647 14.375 33.125 14.375ZM 38.36375 23.125C 38.714104 23.124521 39.039314 22.942951 39.22356 22.644955C 39.407803 22.346956 39.424896 21.974886 39.268749 21.661249L 38.125 19.375L 31.875 19.375L 30.731249 21.661251C 30.575104 21.974886 30.592196 22.346956 30.776442 22.644955C 30.960686 22.942951 31.285894 23.124521 31.63625 23.125ZM 11.875 14.375L 18.125 14.375C 18.125 14.375 19.375 14.375 19.375 15.625L 19.375 19.375C 19.375 19.375 19.375 20.625 18.125 20.625L 11.875 20.625C 11.875 20.625 10.625 20.625 10.625 19.375L 10.625 15.625C 10.625 15.625 10.625 14.375 11.875 14.375M 11.875 23.125L 18.125 23.125M 13.125 23.125L 13.75 20.625M 16.875 23.125L 16.25 20.625M 29.506248 26.99C 26.777384 25.171158 23.222616 25.171158 20.493752 26.990002M 28.125 29.695C 26.235653 28.435545 23.774347 28.435545 21.885 29.695"/></g></g></g><g id="g-root-asce_1ikyy4rlqmd-stroke" data-item-order="1000000000" transform="translate(165, 51)"><g id="asce_1ikyy4rlqmd-stroke" fill="none" stroke="#92bd39" stroke-linecap="round" stroke-linejoin="round" stroke-miterlimit="4" stroke-width="2"><g><path d="M 11.5625 32.8125L 20.7325 22.5C 21.198307 21.985773 21.985447 21.926958 22.522501 22.366251L 28.102501 27.016251C 28.639294 27.455603 29.426716 27.395031 29.889999 26.87875L 38.4375 17.1875M 29.764999 17.1875L 38.4375 17.1875L 38.4375 24.661251"/></g></g></g></g></g></svg>