<svg xmlns="http://www.w3.org/2000/svg" xmlns:xlink="http://www.w3.org/1999/xlink" width="734" height="572" version="1.1" viewBox="0 0 734 572"><title>Cilium 2024 年度报告解读 - visual selection</title><g id="Page-1" fill="none" fill-rule="evenodd" stroke="none" stroke-width="1"><g id="Cilium-2024-年度报告解读---visual-selection"><rect id="Rectangle" width="734" height="572" x="0" y="0" fill="#FFF" fill-rule="nonzero"/><g id="blend" transform="translate(1.000000, 1.000000)"><g id="g-root-tf_mgpe3u5v61ou-fill" fill="#FFF" fill-rule="nonzero"><g id="tf_mgpe3u5v61ou-fill"><polygon id="Path" points="0 0 732 0 732 570 0 570"/></g></g><g id="g-root-ro_zs5q5m5v0g0b-fill" fill="#EDF4FF" fill-rule="nonzero" transform="translate(400.000000, 396.000000)"><g id="ro_zs5q5m5v0g0b-fill"><path id="Path" d="M12,0 L288,0 C288,0 300,0 300,12 L300,42 C300,42 300,54 288,54 L12,54 C12,54 0,54 0,42 L0,12 C0,12 0,0 12,0"/></g></g><g id="g-root-ro_8ydeay5v38qr-fill" fill="#FAF0FF" fill-rule="nonzero" transform="translate(480.000000, 198.000000)"><g id="ro_8ydeay5v38qr-fill"><path id="Path" d="M12,0 L216,0 C216,0 228,0 228,12 L228,42 C228,42 228,54 216,54 L12,54 C12,54 0,54 0,42 L0,12 C0,12 0,0 12,0"/></g></g><g id="g-root-ro_6hi225v6231-fill" fill="#FFF2E5" fill-rule="nonzero" transform="translate(104.000000, 48.000000)"><g id="ro_6hi225v6231-fill"><path id="Path" d="M12,0 L180,0 C180,0 192,0 192,12 L192,42 C192,42 192,54 180,54 L12,54 C12,54 0,54 0,42 L0,12 C0,12 0,0 12,0"/></g></g><g id="g-root-ro_90vk4q5v0hl6-fill" fill="#E8F9FF" fill-rule="nonzero" transform="translate(104.000000, 396.000000)"><g id="ro_90vk4q5v0hl6-fill"><path id="Path" d="M12,0 L180,0 C180,0 192,0 192,12 L192,42 C192,42 192,54 180,54 L12,54 C12,54 0,54 0,42 L0,12 C0,12 0,0 12,0"/></g></g><g id="g-root-ro_dj6vfu5vej2j-fill" fill="#FFEBF7" fill-rule="nonzero" transform="translate(24.000000, 198.000000)"><g id="ro_dj6vfu5vej2j-fill"><path id="Path" d="M12,0 L180,0 C180,0 192,0 192,12 L192,42 C192,42 192,54 180,54 L12,54 C12,54 0,54 0,42 L0,12 C0,12 0,0 12,0"/></g></g><g id="g-root-ro_mb31625v4mx9-fill" fill="#F4FFDC" fill-rule="nonzero" transform="translate(400.000000, 48.000000)"><g id="ro_mb31625v4mx9-fill"><path id="Path" d="M12,0 L120,0 C120,0 132,0 132,12 L132,42 C132,42 132,54 120,54 L12,54 C12,54 0,54 0,42 L0,12 C0,12 0,0 12,0"/></g></g><g id="g-root-tx__v7yzl65v4oau-fill" fill="#484848" fill-rule="nonzero" font-family="PingFangSC-Regular, PingFang SC" font-size="20" font-weight="normal" transform="translate(122.000000, 118.500000)"><g id="tx__v7yzl65v4oau-fill"><text id="更强检测能力"><tspan x="0" y="21">更强检测能力</tspan></text></g></g><g id="g-root-tx__znshpm5v4nil-fill" fill="#484848" fill-rule="nonzero" font-family="PingFangSC-Regular, PingFang SC" font-size="20" font-weight="normal" transform="translate(454.000000, 502.500000)"><g id="tx__znshpm5v4nil-fill"><text id="解决方案全面"><tspan x="0" y="21">解决方案全面</tspan></text></g></g><g id="g-root-tx__18it0ve5v4pvo-fill" fill="#484848" fill-rule="nonzero" font-family="PingFangSC-Regular, PingFang SC" font-size="20" font-weight="normal" transform="translate(450.000000, 466.500000)"><g id="tx__18it0ve5v4pvo-fill"><text id="广泛应用"><tspan x="0" y="21">广泛应用</tspan></text></g></g><g id="g-root-tx__4lzmy5v4mww-fill" fill="#484848" fill-rule="nonzero" font-family="PingFangSC-Regular, PingFang SC" font-size="20" font-weight="normal" transform="translate(534.000000, 268.500000)"><g id="tx__4lzmy5v4mww-fill"><text id="高级可观察性"><tspan x="0" y="21">高级可观察性</tspan></text></g></g><g id="g-root-tx__4jt0oa5v4paf-fill" fill="#484848" fill-rule="nonzero" font-family="PingFangSC-Regular, PingFang SC" font-size="20" font-weight="normal" transform="translate(86.000000, 304.500000)"><g id="tx__4jt0oa5v4paf-fill"><text id="优化性能"><tspan x="0" y="21">优化性能</tspan></text></g></g><g id="g-root-tx__dhbg6i5v4ni8-fill" fill="#484848" fill-rule="nonzero" font-family="PingFangSC-Regular, PingFang SC" font-size="20" font-weight="normal" transform="translate(454.000000, 118.500000)"><g id="tx__dhbg6i5v4ni8-fill"><text id="混合云"><tspan x="0" y="21">混合云</tspan></text></g></g><g id="g-root-tx__hwih7u5v4pvr-fill" fill="#484848" fill-rule="nonzero" font-family="PingFangSC-Regular, PingFang SC" font-size="20" font-weight="normal" transform="translate(144.000000, 154.500000)"><g id="tx__hwih7u5v4pvr-fill"><text id="行动力响应"><tspan x="0" y="21">行动力响应</tspan></text></g></g><g id="g-root-tx_cilium20_18ntvhm5llwjo-fill" fill="#484848" fill-rule="nonzero" font-size="20" font-weight="normal" transform="translate(292.520000, 304.500000)"><g id="tx_cilium20_18ntvhm5llwjo-fill"><text id="Cilium-2025" font-family="Helvetica"><tspan x="0" y="19">Cilium 2025</tspan></text><text id="年发展展望" font-family="PingFangSC-Regular, PingFang SC"><tspan x="3.01" y="45">年发展展望</tspan></text></g></g><g id="g-root-tx__4lofxm5v4oax-fill" fill="#484848" fill-rule="nonzero" font-family="PingFangSC-Regular, PingFang SC" font-size="20" font-weight="normal" transform="translate(450.000000, 154.500000)"><g id="tx__4lofxm5v4oax-fill"><text id="多云环境"><tspan x="0" y="21">多云环境</tspan></text></g></g><g id="g-root-tx__1cymizu5v4p3f-fill" fill="#484848" fill-rule="nonzero" font-family="PingFangSC-Regular, PingFang SC" font-size="20" font-weight="normal" transform="translate(166.000000, 502.500000)"><g id="tx__1cymizu5v4p3f-fill"><text id="提高效率"><tspan x="0" y="21">提高效率</tspan></text></g></g><g id="g-root-tx__1qa31d65v4nih-fill" fill="#484848" fill-rule="nonzero" font-family="PingFangSC-Regular, PingFang SC" font-size="20" font-weight="normal" transform="translate(532.000000, 304.500000)"><g id="tx__1qa31d65v4nih-fill"><text id="安全性提升"><tspan x="0" y="21">安全性提升</tspan></text></g></g><g id="g-root-tx__1lu9j8q5v4oaq-fill" fill="#484848" fill-rule="nonzero" font-family="PingFangSC-Regular, PingFang SC" font-size="20" font-weight="normal" transform="translate(144.000000, 466.500000)"><g id="tx__1lu9j8q5v4oaq-fill"><text id="更深入集成"><tspan x="0" y="21">更深入集成</tspan></text></g></g><g id="g-root-tx__8zmisq5v4oi6-fill" fill="#484848" fill-rule="nonzero" font-family="PingFangSC-Regular, PingFang SC" font-size="20" font-weight="normal" transform="translate(64.000000, 268.500000)"><g id="tx__8zmisq5v4oi6-fill"><text id="进一步整合"><tspan x="0" y="21">进一步整合</tspan></text></g></g><g id="g-root-tx__zpnwyy5vejup-fill" fill="#DE58A9" fill-rule="nonzero" font-family="PingFangSC-Regular, PingFang SC" font-size="20" font-weight="normal" transform="translate(42.000000, 217.500000)"><g id="tx__zpnwyy5vejup-fill"><text id="网络功能整合"><tspan x="0" y="21">网络功能整合</tspan></text></g></g><g id="g-root-tx_tetragon_1hbbhd65v39jd-fill" fill="#BA5DE5" fill-rule="nonzero" font-family="Helvetica" font-size="20" font-weight="normal" transform="translate(530.020000, 217.500000)"><g id="tx_tetragon_1hbbhd65v39jd-fill"><text id="Tetragon-应用普及"><tspan x="0" y="19">Tetragon </tspan> <tspan x="83.389" y="19" font-family="PingFangSC-Regular, PingFang SC">应用普及</tspan></text></g></g><g id="g-root-tx__zlx2ga5v4oi3-fill" fill="#92BD39" fill-rule="nonzero" font-family="PingFangSC-Regular, PingFang SC" font-size="20" font-weight="normal" transform="translate(454.000000, 67.500000)"><g id="tx__zlx2ga5v4oi3-fill"><text id="云集成"><tspan x="0" y="21">云集成</tspan></text></g></g><g id="g-root-tx_tetragon_mcyjl65v62v7-fill" fill="#DE8431" fill-rule="nonzero" font-family="Helvetica" font-size="20" font-weight="normal" transform="translate(120.020000, 67.500000)"><g id="tx_tetragon_mcyjl65v62v7-fill" transform="translate(0.000000, 0.000000)"><text id="Tetragon-进化"><tspan x="0" y="19">Tetragon </tspan> <tspan x="83.389" y="19" font-family="PingFangSC-Regular, PingFang SC">进化</tspan></text></g></g><g id="g-root-tx_kubernet_1lymroq5v0gsh-fill" fill="#4E88E7" fill-rule="nonzero" font-family="Helvetica" font-size="20" font-weight="normal" transform="translate(455.020000, 415.500000)"><g id="tx_kubernet_1lymroq5v0gsh-fill"><text id="Kubernetes-网络解决方案"><tspan x="0" y="19">Kubernetes </tspan> <tspan x="107.852" y="19" font-family="PingFangSC-Regular, PingFang SC">网络解决方案</tspan></text></g></g><g id="g-root-tx__zn63sa5v0hl4-fill" fill="#1EABDA" fill-rule="nonzero" font-family="PingFangSC-Regular, PingFang SC" font-size="20" font-weight="normal" transform="translate(122.000000, 415.500000)"><g id="tx__zn63sa5v0hl4-fill"><text id="工作负载集成"><tspan x="0" y="21">工作负载集成</tspan></text></g></g><g id="g-root-ro_zs5q5m5v0g0b-stroke" stroke="#4E88E7" stroke-linecap="round" stroke-linejoin="round" stroke-width="2" transform="translate(400.000000, 396.000000)"><g id="ro_zs5q5m5v0g0b-stroke"><path id="Path" d="M12,0 L288,0 C288,0 300,0 300,12 L300,42 C300,42 300,54 288,54 L12,54 C12,54 0,54 0,42 L0,12 C0,12 0,0 12,0"/></g></g><g id="g-root-ro_8ydeay5v38qr-stroke" stroke="#BA5DE5" stroke-linecap="round" stroke-linejoin="round" stroke-width="2" transform="translate(480.000000, 198.000000)"><g id="ro_8ydeay5v38qr-stroke"><path id="Path" d="M12,0 L216,0 C216,0 228,0 228,12 L228,42 C228,42 228,54 216,54 L12,54 C12,54 0,54 0,42 L0,12 C0,12 0,0 12,0"/></g></g><g id="g-root-ro_6hi225v6231-stroke" stroke="#DE8431" stroke-linecap="round" stroke-linejoin="round" stroke-width="2" transform="translate(104.000000, 48.000000)"><g id="ro_6hi225v6231-stroke"><path id="Path" d="M12,0 L180,0 C180,0 192,0 192,12 L192,42 C192,42 192,54 180,54 L12,54 C12,54 0,54 0,42 L0,12 C0,12 0,0 12,0"/></g></g><g id="g-root-ro_90vk4q5v0hl6-stroke" stroke="#1EABDA" stroke-linecap="round" stroke-linejoin="round" stroke-width="2" transform="translate(104.000000, 396.000000)"><g id="ro_90vk4q5v0hl6-stroke"><path id="Path" d="M12,0 L180,0 C180,0 192,0 192,12 L192,42 C192,42 192,54 180,54 L12,54 C12,54 0,54 0,42 L0,12 C0,12 0,0 12,0"/></g></g><g id="g-root-ro_dj6vfu5vej2j-stroke" stroke="#DE58A9" stroke-linecap="round" stroke-linejoin="round" stroke-width="2" transform="translate(24.000000, 198.000000)"><g id="ro_dj6vfu5vej2j-stroke"><path id="Path" d="M12,0 L180,0 C180,0 192,0 192,12 L192,42 C192,42 192,54 180,54 L12,54 C12,54 0,54 0,42 L0,12 C0,12 0,0 12,0"/></g></g><g id="g-root-ro_mb31625v4mx9-stroke" stroke="#92BD39" stroke-linecap="round" stroke-linejoin="round" stroke-width="2" transform="translate(400.000000, 48.000000)"><g id="ro_mb31625v4mx9-stroke"><path id="Path" d="M12,0 L120,0 C120,0 132,0 132,12 L132,42 C132,42 132,54 120,54 L12,54 C12,54 0,54 0,42 L0,12 C0,12 0,0 12,0"/></g></g><g id="g-root-cu_18lb0dm5v62o5-stroke" stroke="#969696" stroke-dasharray="5 7" stroke-linecap="round" stroke-linejoin="round" stroke-width="2" transform="translate(376.000000, 75.000000)"><g id="cu_18lb0dm5v62o5-stroke"><path id="Path" d="M0,135 L0,118.1 L0,20.9 C0,9.357248 9.357248,0 20.899998,0 L21,0 L24,0"/></g></g><g id="g-root-cu_hz0gq25v62od-stroke" stroke="#969696" stroke-dasharray="5 7" stroke-linecap="round" stroke-linejoin="round" stroke-width="2" transform="translate(504.000000, 252.000000)"><g id="cu_hz0gq25v62od-stroke"><path id="Path" d="M0,0 L0,12 L0,24 L9,24 L18,24"/></g></g><g id="g-root-cu_dj6ylm5v63go-stroke" stroke="#969696" stroke-dasharray="5 7" stroke-linecap="round" stroke-linejoin="round" stroke-width="2" transform="translate(504.000000, 252.000000)"><g id="cu_dj6ylm5v63go-stroke"><path id="Path" d="M0,0 L0,7.5 L0,48 C0,54.627417 5.372585,60 12,60 L12.1,60 L18,60"/></g></g><g id="g-root-cu_1d2zxre5v61on-stroke" stroke="#969696" stroke-dasharray="5 7" stroke-linecap="round" stroke-linejoin="round" stroke-width="2" transform="translate(254.000000, 102.000000)"><g id="cu_1d2zxre5v61on-stroke"><path id="Path" d="M18,0 L18,7.5 L18,48 C18,54.627415 12.627416,60 6,60 L5.9,60 L0,60"/></g></g><g id="g-root-cu_8cxbe5v61vz-stroke" stroke="#969696" stroke-dasharray="5 7" stroke-linecap="round" stroke-linejoin="round" stroke-width="2" transform="translate(424.000000, 450.000000)"><g id="cu_8cxbe5v61vz-stroke"><path id="Path" d="M0,0 L0,12 L0,24 L9,24 L18,24"/></g></g><g id="g-root-cu_18n6fmy5v62gx-stroke" stroke="#969696" stroke-dasharray="5 7" stroke-linecap="round" stroke-linejoin="round" stroke-width="2" transform="translate(424.000000, 102.000000)"><g id="cu_18n6fmy5v62gx-stroke"><path id="Path" d="M0,0 L0,12 L0,24 L9,24 L18,24"/></g></g><g id="g-root-cu_zrjfe25v639o-stroke" stroke="#969696" stroke-dasharray="5 7" stroke-linecap="round" stroke-linejoin="round" stroke-width="2" transform="translate(424.000000, 102.000000)"><g id="cu_zrjfe25v639o-stroke"><path id="Path" d="M0,0 L0,7.5 L0,48 C0,54.627417 5.372585,60 12,60 L12.1,60 L18,60"/></g></g><g id="g-root-cu_1qdtz1m5v639e-stroke" stroke="#969696" stroke-dasharray="5 7" stroke-linecap="round" stroke-linejoin="round" stroke-width="2" transform="translate(424.000000, 450.000000)"><g id="cu_1qdtz1m5v639e-stroke"><path id="Path" d="M0,0 L0,7.5 L0,48 C0,54.627417 5.372585,60 12,60 L12.1,60 L18,60"/></g></g><g id="g-root-cu_1d14ii25v61vu-stroke" stroke="#969696" stroke-dasharray="5 7" stroke-linecap="round" stroke-linejoin="round" stroke-width="2" transform="translate(296.000000, 75.000000)"><g id="cu_1d14ii25v61vu-stroke"><path id="Path" d="M24,135 L24,118.1 L24,20.9 C24,9.357248 14.64275,0 3.1,0 L3,0 L0,0"/></g></g><g id="g-root-cu_1hgbjje5v6498-stroke" stroke="#969696" stroke-dasharray="5 7" stroke-linecap="round" stroke-linejoin="round" stroke-width="2" transform="translate(296.000000, 360.000000)"><g id="cu_1hgbjje5v6498-stroke"><path id="Path" d="M24,0 L24,7.9 L24,42.1 C24,53.642753 14.64275,63 3.099999,63 L3,63 L0,63"/></g></g><g id="g-root-cu_1hgbjje5v649b-stroke" stroke="#969696" stroke-dasharray="5 7" stroke-linecap="round" stroke-linejoin="round" stroke-width="2" transform="translate(376.000000, 360.000000)"><g id="cu_1hgbjje5v649b-stroke"><path id="Path" d="M0,0 L0,7.9 L0,42.1 C0,53.64275 9.357246,63 20.899997,63 L21,63 L24,63"/></g></g><g id="g-root-cu_1urs1wq5v62o6-stroke" stroke="#969696" stroke-dasharray="5 7" stroke-linecap="round" stroke-linejoin="round" stroke-width="2" transform="translate(216.000000, 225.000000)"><g id="cu_1urs1wq5v62o6-stroke"><path id="Path" d="M48,35 L45,35 L44.9,35 C40.422131,34.972593 35.63978,33.214375 31.299999,30 C28.67988,28.118536 26.018569,23.561496 24,17.5 C21.98143,11.438501 19.320119,6.881461 16.699999,5 C12.360218,1.785625 7.577867,0.027408 3.1,0 L3,0 L0,0"/></g></g><g id="g-root-cu_1qbyjsa5v63gh-stroke" stroke="#969696" stroke-dasharray="5 7" stroke-linecap="round" stroke-linejoin="round" stroke-width="2" transform="translate(432.000000, 224.999999)"><g id="cu_1qbyjsa5v63gh-stroke"><path id="Path" d="M0,35 L3,35 L3.1,35 C7.577866,34.972593 12.360217,33.214376 16.699999,30 C19.320119,28.118537 21.98143,23.561498 24,17.5 C26.018569,11.438503 28.67988,6.881463 31.299999,5 C35.63978,1.785626 40.422131,0.027408 44.899998,-1.77635684e-15 L45,-1.77635684e-15 L48,-1.77635684e-15"/></g></g><g id="g-root-cu_dj6ylm5v63gq-stroke" stroke="#969696" stroke-dasharray="5 7" stroke-linecap="round" stroke-linejoin="round" stroke-width="2" transform="translate(254.000000, 450.000000)"><g id="cu_dj6ylm5v63gq-stroke"><path id="Path" d="M18,0 L18,12 L18,24 L9,24 L0,24"/></g></g><g id="g-root-cu_18lb0dm5v62o8-stroke" stroke="#969696" stroke-dasharray="5 7" stroke-linecap="round" stroke-linejoin="round" stroke-width="2" transform="translate(174.000000, 252.000000)"><g id="cu_18lb0dm5v62o8-stroke"><path id="Path" d="M18,0 L18,12 L18,24 L9,24 L0,24"/></g></g><g id="g-root-cu_v9ui0a5v6497-stroke" stroke="#969696" stroke-dasharray="5 7" stroke-linecap="round" stroke-linejoin="round" stroke-width="2" transform="translate(174.000000, 252.000000)"><g id="cu_v9ui0a5v6497-stroke"><path id="Path" d="M18,0 L18,7.5 L18,48 C18,54.627415 12.627416,60 6,60 L5.9,60 L0,60"/></g></g><g id="g-root-cu_93dgh65v6491-stroke" stroke="#969696" stroke-dasharray="5 7" stroke-linecap="round" stroke-linejoin="round" stroke-width="2" transform="translate(254.000000, 450.000000)"><g id="cu_93dgh65v6491-stroke"><path id="Path" d="M18,0 L18,7.5 L18,48 C18,54.627415 12.627416,60 6,60 L5.9,60 L0,60"/></g></g><g id="g-root-cu_1hi6ysq5v6424-stroke" stroke="#969696" stroke-dasharray="5 7" stroke-linecap="round" stroke-linejoin="round" stroke-width="2" transform="translate(254.000000, 102.000000)"><g id="cu_1hi6ysq5v6424-stroke"><path id="Path" d="M18,0 L18,12 L18,24 L9,24 L0,24"/></g></g><g id="g-root-cog_metvoq5vei9u-stroke" stroke="#DE58A9" stroke-linecap="round" stroke-linejoin="round" stroke-width="2" transform="translate(174.618772, 210.618772)"><g id="cog_metvoq5vei9u-stroke"><path id="Shape" d="M11.9849779,20.8587269 L11.9849779,10.3174769 C11.9849779,9.25847088 12.8434719,8.39997688 13.9024779,8.39997688 L17.7349779,8.39997688 M10.0687279,14.1499769 L14.8599779,14.1499769 M12.5237279,2.16247788 C12.9978089,2.68876988 13.6728939,2.98924988 14.3812279,2.98924988 C15.0895619,2.98924988 15.7646469,2.68876988 16.2387279,2.16247788 L17.4399779,0.83247788 C18.1480389,0.0416658803 19.2782939,-0.21579812 20.2590089,0.19032488 C21.2397219,0.59644788 21.8570539,1.57760388 21.7987279,2.63747788 L21.7074759,4.42747788 C21.6711639,5.13417988 21.9360449,5.82316588 22.4364149,6.32353788 C22.9367889,6.82391188 23.6257769,7.08879088 24.3324799,7.05247688 L26.1312279,6.96372788 C27.1911029,6.90540188 28.1722589,7.52273388 28.5783789,8.50344688 C28.9845029,9.48416188 28.7270419,10.6144169 27.9362279,11.3224779 L26.6062299,12.5237279 C26.0799359,12.9978089 25.7794599,13.6728939 25.7794599,14.3812279 C25.7794599,15.0895619 26.0799359,15.7646469 26.6062299,16.2387279 L27.9362279,17.4399779 C28.7270419,18.1480389 28.9845029,19.2782939 28.5783789,20.2590089 C28.1722589,21.2397219 27.1911029,21.8570539 26.1312279,21.7987279 L24.3412269,21.7074759 C23.6345279,21.6711639 22.9455399,21.9360449 22.4451659,22.4364149 C21.9447959,22.9367889 21.6799149,23.6257769 21.7162269,24.3324799 L21.8074779,26.1224769 C21.8658049,27.1823529 21.2484729,28.1635079 20.2677599,28.5696279 C19.2870449,28.9757559 18.1567899,28.7182909 17.4487289,27.9274769 L16.2474769,26.5974789 C15.7733979,26.0711849 15.0983109,25.7707089 14.3899789,25.7707089 C13.6816449,25.7707089 13.0065599,26.0711849 12.5324769,26.5974789 L11.3312289,27.9274769 C10.6256169,28.7240089 9.49311688,28.9865899 8.50897788,28.5818349 C7.52483988,28.1770839 6.90476788,27.1937169 6.96372788,26.1312279 L7.05497788,24.3412269 C7.09129188,23.6345279 6.82641088,22.9455399 6.32603888,22.4451659 C5.82566688,21.9447959 5.13667888,21.6799149 4.42997788,21.7162269 L2.63997788,21.8074779 C1.58010288,21.8658049 0.59894788,21.2484729 0.19282488,20.2677599 C-0.21329712,19.2870449 0.0441648803,18.1567899 0.83497788,17.4487289 L2.16497788,16.2474769 C2.69126888,15.7733979 2.99174888,15.0983109 2.99174888,14.3899789 C2.99174888,13.6816449 2.69126888,13.0065599 2.16497788,12.5324769 L0.83247788,11.3224779 C0.0416658803,10.6144169 -0.21579812,9.48416188 0.19032488,8.50344688 C0.59644788,7.52273388 1.57760388,6.90540188 2.63747788,6.96372788 L4.42747788,7.05497788 C5.13417988,7.09129188 5.82316588,6.82641088 6.32353788,6.32603888 C6.82391188,5.82566688 7.08879088,5.13667888 7.05247688,4.42997788 L6.96372788,2.63747788 C6.90540188,1.57760388 7.52273388,0.59644788 8.50344688,0.19032488 C9.48416188,-0.21579812 10.6144169,0.0416658803 11.3224779,0.83247788 L12.5237279,2.16247788 Z"/></g></g><g id="g-root-4_ddkfca5v3b4a-stroke" stroke="#BA5DE5" stroke-linecap="round" stroke-linejoin="round" stroke-width="2" transform="translate(498.566250, 210.937500)"><g id="4_ddkfca5v3b4a-stroke"><path id="Shape" d="M5.09375,21.689999 L7.31625,24.165001 L11.761249,19.215 M8.43375,10.8925 L8.43375,0 M3.559999,4.873751 L8.43375,0 L13.307501,4.873751 M1.42,15.3475 L15.446251,15.3475 C15.446251,15.3475 16.866249,15.3475 16.866249,16.7675 L16.866249,26.705002 C16.866249,26.705002 16.866249,28.125 15.446251,28.125 L1.42,28.125 C1.42,28.125 -3.55271368e-15,28.125 -3.55271368e-15,26.705002 L-3.55271368e-15,16.7675 C-3.55271368e-15,16.7675 -3.55271368e-15,15.3475 1.42,15.3475 M12.591251,7.678751 C13.498012,8.696239 13.998192,10.012096 13.9962536,11.375 L13.9962536,15.3475 M2.87124948,15.3475 L2.87124948,11.375 C2.870659,10.015648 3.369306,8.703413 4.272499,7.6875"/></g></g><g id="g-root-clou_v63kbu5v4pac-stroke" stroke="#92BD39" stroke-linecap="round" stroke-linejoin="round" stroke-width="2" transform="translate(412.625000, 66.246497)"><g id="clou_v63kbu5v4pac-stroke"><path id="Path" d="M28.7500027,11.2535032 C28.751568,9.55701424 28.062054,7.93307224 26.840374,6.75596724 C25.618694,5.57886224 23.970257,4.95015624 22.275002,5.01475324 C20.572941,1.40063024 16.6362,-0.598556764 12.713898,0.159362236 C8.791595,0.917279236 5.883066,4.23920024 5.65,8.22725424 C4.267892,7.93775524 2.828917,8.28657324 1.732786,9.17681624 C0.636656,10.0670582 0,11.4039012 0,12.8160032 C0,17.5785042 5,17.5035732 5,17.5035732 L23.125,17.5035732 C23.125,17.5035732 28.7500027,16.7710012 28.7500027,11.2535032 Z"/></g></g><g id="g-root-midn_hwikdm5v0gsh-stroke" stroke="#1EABDA" stroke-linecap="round" stroke-linejoin="round" stroke-width="2" transform="translate(255.071428, 409.071428)"><g id="midn_hwikdm5v0gsh-stroke" transform="translate(0.000000, 0.000000)"><path id="Shape" d="M3.214286,13.928572 L0,13.928572 M6.342858,6.342858 L4.07143,4.07143 M6.342858,21.514284 L4.07143,23.785715 M24.642859,13.928572 L27.857142,13.928572 M21.514284,21.514284 L23.785715,23.785715 M13.928572,24.642859 L13.928572,27.857142 M21.514284,6.342858 L23.785715,4.07143 M13.928572,3.214286 L13.928572,0"/></g></g><g id="g-root-alar_dhbjca5v63nw-stroke" stroke="#DE8431" stroke-linecap="round" stroke-linejoin="round" stroke-width="2" transform="translate(254.898750, 60.625000)"><g id="alar_dhbjca5v63nw-stroke"><path id="Shape" d="M27.5,23.232502 L27.5,20.625 C27.500019,19.423876 27.006214,18.275572 26.134384,17.449368 C25.262554,16.623161 24.08939,16.191732 22.89,16.256252 C20.509762,16.466856 18.699921,18.485987 18.749998,20.874998 L18.75,23.235001 C18.750248,23.977238 18.556792,24.706688 18.188752,25.35125 C18.093441,25.54467 18.104567,25.773563 18.218188,25.956829 C18.331808,26.140095 18.531872,26.25185 18.7475,26.252502 L27.497498,26.252502 C27.713353,26.252281 27.913811,26.140701 28.027733,25.957359 C28.141651,25.774017 28.152909,25.544872 28.057503,25.35125 C27.690399,24.705574 27.49823,23.975239 27.5,23.232502 Z M22.5,28.75 L23.75,28.75 M1.77493704e-30,18.75 C1.77493704e-30,14.607864 3.357865,11.25 7.5,11.25 C11.642136,11.25 15,14.607864 15,18.75 L1.77493704e-30,18.75 Z M2.8125,4.6875 C2.8125,7.276335 4.911166,9.375 7.5,9.375 C10.088835,9.375 12.1875,7.276335 12.1875,4.6875 C12.1875,2.098665 10.088835,0 7.5,0 C4.911166,0 2.8125,2.098665 2.8125,4.6875 Z M14.6875,4.6875 C14.6875,7.276335 16.786166,9.375 19.375002,9.375 C21.963837,9.375 24.0625,7.276335 24.0625,4.6875 C24.0625,2.098665 21.963837,0 19.375002,0 C16.786166,0 14.6875,2.098665 14.6875,4.6875 Z M24.945,13.72625 C22.588711,11.113033 18.732523,10.489223 15.672501,12.22625"/></g></g><g id="g-root-serv_18nsqei5v0f7m-stroke" stroke="#4E88E7" stroke-linecap="round" stroke-linejoin="round" stroke-width="2" transform="translate(416.375000, 408.624323)"><g id="serv_18nsqei5v0f7m-stroke" transform="translate(0.000000, -0.000000)"><path id="Shape" d="M21.25,8.03442789 C21.229069,6.80137189 20.707287,5.62991889 19.804691,4.78957289 C18.902096,3.94922489 17.696404,3.51233989 16.464998,3.57942689 C15.359344,1.37111289 13.09458,-0.0167341108 10.625,0.000676889186 C7.262741,-0.0478961108 4.440884,2.52339689 4.1775,5.87567689 C3.174095,5.65371489 2.124016,5.89249589 1.315258,6.52653089 C0.5065,7.16056589 0.023968,8.12329489 0,9.15067689 C0,12.5531769 3.695,12.5007239 3.695,12.5007239 L17.092499,12.5007239 C17.092499,12.5007239 21.25,11.9744279 21.25,8.03442789 Z M4.06250312,25.3119259 C3.890074,25.3119259 3.750233,25.4515859 3.750004,25.6240139 C3.749773,25.7964379 3.889244,25.9364679 4.06167,25.9369259 C4.234095,25.9373839 4.37431,25.7981009 4.375,25.6256769 C4.375334,25.5426919 4.342516,25.4630139 4.28384,25.4043369 C4.225163,25.3456589 4.145481,25.3128409 4.06250312,25.3131769 L4.06250312,25.3131769 M7.18750212,25.3119259 C7.015074,25.3119259 6.875231,25.4515859 6.875002,25.6240139 C6.874773,25.7964379 7.014244,25.9364679 7.18667,25.9369259 C7.359097,25.9373839 7.49931,25.7981009 7.5,25.6256769 C7.500334,25.5426919 7.467516,25.4630139 7.40884,25.4043369 C7.350161,25.3456589 7.270481,25.3128409 7.18750212,25.3131769 L7.18750212,25.3131769 M21.25,26.8756769 C21.25,27.9112109 20.410534,28.7506769 19.375,28.7506769 L1.875,28.7506769 C0.839466,28.7506769 0,27.9112109 0,26.8756769 L0,24.3756769 C0,23.3401429 0.839466,22.5006769 1.875,22.5006769 L19.375,22.5006769 C20.410534,22.5006769 21.25,23.3401429 21.25,24.3756769 L21.25,26.8756769 Z M4.06250312,19.0619259 C3.890074,19.0619299 3.750233,19.2015859 3.750004,19.3740119 C3.749773,19.5464379 3.889244,19.6864679 4.06167,19.6869259 C4.234095,19.6873849 4.37431,19.5481009 4.375,19.3756769 C4.375334,19.2926939 4.342516,19.2130139 4.28384,19.1543369 C4.225163,19.0956589 4.145481,19.0628409 4.06250312,19.0631749 L4.06250312,19.0631769 M7.18750212,19.0619259 C7.015074,19.0619299 6.875231,19.2015859 6.875002,19.3740119 C6.874773,19.5464379 7.014244,19.6864679 7.18667,19.6869259 C7.359097,19.6873849 7.49931,19.5481009 7.5,19.3756769 C7.500334,19.2926939 7.467516,19.2130139 7.40884,19.1543369 C7.350161,19.0956589 7.270481,19.0628409 7.18750212,19.0631749 L7.18750212,19.0631769 M21.25,20.6256769 C21.25,21.6612109 20.410534,22.5006769 19.375,22.5006769 L1.875,22.5006769 C0.839466,22.5006769 0,21.6612109 0,20.6256769 L0,18.1256769 C0,17.0901429 0.839466,16.2506769 1.875,16.2506769 L19.375,16.2506769 C20.410534,16.2506769 21.25,17.0901429 21.25,18.1256769 L21.25,20.6256769 Z"/></g></g><g id="logo-lightbg-vertical-color" fill-rule="nonzero" stroke="#141A1F" stroke-width="2.771" transform="translate(310.000000, 222.000000)"><polygon id="Path" fill="#E83030" points="28.261 49 22 38 28.261 27 40.739 27 47 38 40.739 49"/><polygon id="Path" fill="#6B91C7" points="28.261 74 22 63 28.261 52 40.739 52 47 63 40.739 74"/><polygon id="Path" fill="#F9C31F" points="28.261 22 22 11 28.261 0 40.739 0 47 11 40.739 22"/><polygon id="Path" fill="#795AA5" points="51.261 61 45 50 51.261 39 63.739 39 70 50 63.739 61"/><polygon id="Path" fill="#F17423" points="51.261 35 45 24 51.261 13 63.739 13 70 24 63.739 35"/><polygon id="Path" fill="#97C639" points="6.261 61 0 50 6.261 39 18.739 39 25 50 18.739 61"/><polygon id="Path" fill="#C9DB70" points="6.261 35 0 24 6.261 13 18.739 13 25 24 18.739 35"/></g></g></g></g></svg>