<?xml version="1.0" encoding="UTF-8" standalone="no"?>
<!DOCTYPE svg PUBLIC "-//W3C//DTD SVG 1.1//EN" "http://www.w3.org/Graphics/SVG/1.1/DTD/svg11.dtd">
<svg xmlns:dc="http://purl.org/dc/elements/1.1/" version="1.1" xmlns:xl="http://www.w3.org/1999/xlink" xmlns="http://www.w3.org/2000/svg" viewBox="354 635 777 540" width="777" height="540">
  <defs>
    <marker orient="auto" overflow="visible" markerUnits="strokeWidth" id="FilledArrow_Marker" stroke-linejoin="miter" stroke-miterlimit="10" viewBox="-1 -4 10 8" markerWidth="10" markerHeight="8" color="#456bb0">
      <g>
        <path d="M 8 0 L 0 -3 L 0 3 Z" fill="currentColor" stroke="currentColor" stroke-width="1"/>
      </g>
    </marker>
    <marker orient="auto" overflow="visible" markerUnits="strokeWidth" id="FilledArrow_Marker_2" stroke-linejoin="miter" stroke-miterlimit="10" viewBox="-1 -4 10 8" markerWidth="10" markerHeight="8" color="black">
      <g>
        <path d="M 8 0 L 0 -3 L 0 3 Z" fill="currentColor" stroke="currentColor" stroke-width="1"/>
      </g>
    </marker>
  </defs>
  <g id="hbone-cross-node" stroke-opacity="1" fill="none" fill-opacity="1" stroke="none" stroke-dasharray="none">
    <title>hbone-cross-node</title>
    <rect fill="white" x="354" y="635" width="777" height="540"/>
    <g id="hbone-cross-node_Layer_1">
      <title>Layer 1</title>
      <g id="Graphic_57"/>
      <g id="Graphic_53">
        <path d="M 459.5 1016.5 L 997 1016.5 C 999.2091 1016.5 1001 1018.2909 1001 1020.5 L 1001 1139.559 C 1001 1141.7681 999.2091 1143.559 997 1143.559 L 459.5 1143.559 C 457.29086 1143.559 455.5 1141.7681 455.5 1139.559 L 455.5 1020.5 C 455.5 1018.2909 457.29086 1016.5 459.5 1016.5 Z" stroke="#a5a5a5" stroke-linecap="round" stroke-linejoin="round" stroke-width="1"/>
        <text transform="translate(460.5 1021.5)" fill="#666">
          <tspan font-family="Helvetica Neue" font-size="16" fill="#666" x="0" y="15" xml:space="preserve">Node</tspan>
        </text>
      </g>
      <g id="Graphic_25">
        <path d="M 382 669 L 830.4103 669 C 832.6194 669 834.4103 670.7909 834.4103 673 L 834.4103 777.5 C 834.4103 779.7091 832.6194 781.5 830.4103 781.5 L 382 781.5 C 379.79086 781.5 378 779.7091 378 777.5 L 378 673 C 378 670.7909 379.79086 669 382 669 Z" stroke="#a5a5a5" stroke-linecap="round" stroke-linejoin="round" stroke-width="1"/>
        <text transform="translate(383 674)" fill="#666">
          <tspan font-family="Helvetica Neue" font-size="16" fill="#666" x="0" y="15" xml:space="preserve">Node</tspan>
        </text>
      </g>
      <g id="Graphic_24">
        <path d="M 849.7767 1089.4036 L 965.7767 1089.4036 C 967.9858 1089.4036 969.7767 1091.1945 969.7767 1093.4036 L 969.7767 1124.0756 C 969.7767 1126.2847 967.9858 1128.0756 965.7767 1128.0756 L 849.7767 1128.0756 C 847.5675 1128.0756 845.7767 1126.2847 845.7767 1124.0756 L 845.7767 1093.4036 C 845.7767 1091.1945 847.5675 1089.4036 849.7767 1089.4036 Z" fill="#d1d1d1"/>
        <text transform="translate(850.7767 1099.5156)" fill="black">
          <tspan font-family="Helvetica Neue" font-size="16" fill="black" x="28.104" y="15" xml:space="preserve">Dst Pod</tspan>
        </text>
      </g>
      <g id="Graphic_21">
        <path d="M 991 707 L 1107 707 C 1109.2091 707 1111 708.7909 1111 711 L 1111 755 C 1111 757.2091 1109.2091 759 1107 759 L 991 759 C 988.7909 759 987 757.2091 987 755 L 987 711 C 987 708.7909 988.7909 707 991 707 Z" fill="#456bb0"/>
        <text transform="translate(992 713.5359)" fill="white">
          <tspan font-family="Helvetica Neue" font-size="16" fill="white" x="22.328" y="16" xml:space="preserve">Waypoint </tspan>
          <tspan font-family="Helvetica Neue" font-size="16" fill="white" x="35.8" y="35.46411" xml:space="preserve">Proxy</tspan>
        </text>
      </g>
      <g id="Graphic_20">
        <path d="M 485.98385 902.7878 L 601.98385 902.7878 C 604.193 902.7878 605.98385 904.5787 605.98385 906.7878 L 605.98385 950.7878 C 605.98385 952.9969 604.193 954.7878 601.98385 954.7878 L 485.98385 954.7878 C 483.7747 954.7878 481.98385 952.9969 481.98385 950.7878 L 481.98385 906.7878 C 481.98385 904.5787 483.7747 902.7878 485.98385 902.7878 Z" fill="#456bb0"/>
        <text transform="translate(486.98385 919.0557)" fill="white">
          <tspan font-family="Helvetica Neue" font-size="16" fill="white" x="36.4" y="16" xml:space="preserve">Istiod</tspan>
        </text>
      </g>
      <g id="Line_19">
        <line x1="605.5264" y1="904.9286" x2="978.2268" y2="760.4378" marker-end="url(#FilledArrow_Marker)" stroke="#456bb0" stroke-linecap="round" stroke-linejoin="round" stroke-dasharray="4.0,4.0" stroke-width="1"/>
      </g>
      <g id="Graphic_18">
        <rect x="710.53335" y="836.094" width="45.34" height="38.671997" fill="white"/>
        <text transform="translate(715.53335 841.094)" fill="black">
          <tspan font-family="Helvetica Neue" font-style="italic" font-size="12" fill="black" x="6.672" y="11" xml:space="preserve">xDS</tspan>
          <tspan font-family="Helvetica Neue" font-style="italic" font-size="12" fill="black" x="7105427e-20" y="25.336" xml:space="preserve">Config</tspan>
        </text>
      </g>
      <g id="Graphic_12">
        <path d="M 911.7767 1089.4036 L 911.7767 1066.5421 L 940.7767 1055.1284 L 969.7767 1066.5421 L 969.7767 1089.4036 Z" fill="#ff8080"/>
      </g>
      <g id="Graphic_28">
        <path d="M 697.8226 704.5 L 813.8226 704.5 C 816.0318 704.5 817.8226 706.2909 817.8226 708.5 L 817.8226 752.5 C 817.8226 754.7091 816.0318 756.5 813.8226 756.5 L 697.8226 756.5 C 695.6135 756.5 693.8226 754.7091 693.8226 752.5 L 693.8226 708.5 C 693.8226 706.2909 695.6135 704.5 697.8226 704.5 Z" fill="#456bb0"/>
        <text transform="translate(698.8226 720.76794)" fill="white">
          <tspan font-family="Helvetica Neue" font-size="16" fill="white" x="30.184" y="16" xml:space="preserve">ztunnel</tspan>
        </text>
      </g>
      <g id="Line_29">
        <path d="M 817.8226 730.5 L 902.4113 730.5 L 902.4113 733 L 977.1 733" marker-end="url(#FilledArrow_Marker_2)" stroke="black" stroke-linecap="round" stroke-linejoin="round" stroke-width="1"/>
      </g>
      <g id="Graphic_30">
        <rect x="840.8339" y="720.832" width="124.048" height="24.335999" fill="white"/>
        <text transform="translate(845.8339 725.832)" fill="black">
          <tspan font-family="Helvetica Neue" font-style="italic" font-size="12" fill="black" x="0" y="11" xml:space="preserve">2. waypoint_ip:15008</tspan>
        </text>
      </g>
      <g id="Graphic_31">
        <path d="M 845.7767 1089.4036 L 845.7767 1066.5421 L 877.0481 1055.1284 L 908.3195 1066.5421 L 908.3195 1089.4036 Z" fill="#ff8080"/>
      </g>
      <g id="Graphic_34">
        <path d="M 396.2606 711.164 L 472.9703 711.164 C 474.43117 711.164 475.61545 712.9549 475.61545 715.164 L 475.61545 745.836 C 475.61545 748.0451 474.43117 749.836 472.9703 749.836 L 396.2606 749.836 C 394.79973 749.836 393.61545 748.0451 393.61545 745.836 L 393.61545 715.164 C 393.61545 712.9549 394.79973 711.164 396.2606 711.164 Z" fill="#d1d1d1"/>
        <text transform="translate(398.61545 721.276)" fill="black">
          <tspan font-family="Helvetica Neue" font-size="16" fill="black" x="7.256" y="15" xml:space="preserve">Src Pod</tspan>
        </text>
      </g>
      <g id="Line_35">
        <path d="M 533.61545 731.004 L 543.61545 731.004 L 613.719 730.752 L 678.9226 730.5 L 683.9226 730.5" marker-end="url(#FilledArrow_Marker_2)" stroke="black" stroke-linecap="round" stroke-linejoin="round" stroke-width="1"/>
      </g>
      <g id="Graphic_40">
        <rect x="548.30315" y="718.611" width="115.804" height="24.335999" fill="white"/>
        <text transform="translate(553.30315 723.611)" fill="black">
          <tspan font-family="Helvetica Neue" font-style="italic" font-size="12" fill="black" x="0" y="11" xml:space="preserve">1. Outbound socket</tspan>
        </text>
      </g>
      <g id="Line_41">
        <line x1="571.7607" y1="902.7878" x2="720.8181" y2="763.2654" marker-end="url(#FilledArrow_Marker)" stroke="#456bb0" stroke-linecap="round" stroke-linejoin="round" stroke-dasharray="4.0,4.0" stroke-width="1"/>
      </g>
      <g id="Graphic_42">
        <path d="M 475.61545 712.172 L 514.30145 712.172 L 533.61545 731.004 L 514.30145 749.836 L 475.61545 749.836 Z" fill="#ff8080"/>
        <clipPath id="clip_path">
          <path d="M -10.167999 10.167999 L 28.518 10.167999 L 47.832 29 L 28.518 47.832 L -10.167999 47.832 Z" fill="#ff8080"/>
        </clipPath>
        <text clip-path="url(#clip_path)" transform="translate(485.78345 702.004)" fill="white">
          <tspan font-family="Helvetica Neue" font-size="13" fill="white" x=".7620007" y="33" xml:space="preserve">15001</tspan>
        </text>
      </g>
      <g id="Graphic_43">
        <rect x="601.6428" y="834.2613" width="45.34" height="38.671997" fill="white"/>
        <text transform="translate(606.6428 839.2613)" fill="black">
          <tspan font-family="Helvetica Neue" font-style="italic" font-size="12" fill="black" x="6.672" y="11" xml:space="preserve">xDS</tspan>
          <tspan font-family="Helvetica Neue" font-style="italic" font-size="12" fill="black" x="7105427e-20" y="25.336" xml:space="preserve">Config</tspan>
        </text>
      </g>
      <g id="Graphic_47">
        <path d="M 485.98385 1076.0756 L 601.98385 1076.0756 C 604.193 1076.0756 605.98385 1077.8665 605.98385 1080.0756 L 605.98385 1124.0756 C 605.98385 1126.2847 604.193 1128.0756 601.98385 1128.0756 L 485.98385 1128.0756 C 483.7747 1128.0756 481.98385 1126.2847 481.98385 1124.0756 L 481.98385 1080.0756 C 481.98385 1077.8665 483.7747 1076.0756 485.98385 1076.0756 Z" fill="#456bb0"/>
        <text transform="translate(486.98385 1092.3436)" fill="white">
          <tspan font-family="Helvetica Neue" font-size="16" fill="white" x="30.184" y="16" xml:space="preserve">ztunnel</tspan>
        </text>
      </g>
      <g id="Line_48">
        <path d="M 1049 759 L 1049 769 L 1049.3035 1045.5438 L 1049.3035 1072.266 L 979.6767 1072.266" marker-end="url(#FilledArrow_Marker_2)" stroke="black" stroke-linecap="round" stroke-linejoin="round" stroke-width="1"/>
      </g>
      <g id="Line_49">
        <path d="M 605.98385 1102.0756 L 615.98385 1102.0756 L 615.98385 1068 L 835.8767 1068" marker-end="url(#FilledArrow_Marker_2)" stroke="black" stroke-linecap="round" stroke-linejoin="round" stroke-width="1"/>
      </g>
      <g id="Line_50">
        <path d="M 940.7767 1055.1284 L 940.7767 1038 L 585.2767 1038 L 585.2767 1066.1756" marker-end="url(#FilledArrow_Marker_2)" stroke="black" stroke-linecap="round" stroke-linejoin="round" stroke-width="1"/>
      </g>
      <g id="Line_51">
        <line x1="543.98385" y1="954.7878" x2="543.98385" y2="1066.1756" marker-end="url(#FilledArrow_Marker)" stroke="#456bb0" stroke-linecap="round" stroke-linejoin="round" stroke-dasharray="4.0,4.0" stroke-width="1"/>
      </g>
      <g id="Graphic_52">
        <rect x="508.64785" y="972.6884" width="70.672" height="24.335999" fill="white"/>
        <text transform="translate(513.64785 977.6884)" fill="black">
          <tspan font-family="Helvetica Neue" font-style="italic" font-size="12" fill="black" x="0" y="11" xml:space="preserve">xDS Config</tspan>
        </text>
      </g>
      <g id="Graphic_54">
        <rect x="989.3209" y="870.6532" width="119.608" height="24.335999" fill="white"/>
        <text transform="translate(994.3209 875.6532)" fill="black">
          <tspan font-family="Helvetica Neue" font-style="italic" font-size="12" fill="black" x="0" y="11" xml:space="preserve">3. dst_pod_ip:15008</tspan>
        </text>
      </g>
      <g id="Graphic_55">
        <rect x="698.46764" y="1025.832" width="103.768" height="24.335999" fill="white"/>
        <text transform="translate(703.46764 1030.832)" fill="black">
          <tspan font-family="Helvetica Neue" font-style="italic" font-size="12" fill="black" x="0" y="11" xml:space="preserve">4. HBONE socket</tspan>
        </text>
      </g>
      <g id="Graphic_56">
        <rect x="674.9882" y="1055.832" width="115.6" height="24.335999" fill="white"/>
        <text transform="translate(679.9882 1060.832)" fill="black">
          <tspan font-family="Helvetica Neue" font-style="italic" font-size="12" fill="black" x="0" y="11" xml:space="preserve">5. des_pod_ip:9080</tspan>
        </text>
      </g>
      <g id="Group_63">
        <g id="Graphic_58">
          <path d="M 845.7767 1089.4036 L 845.7767 1066.5421 L 877.0481 1055.1284 L 908.3195 1066.5421 L 908.3195 1089.4036 Z" fill="#ff8080"/>
        </g>
        <g id="Graphic_60">
          <text transform="translate(859.2561 1065.9556)" fill="white">
            <tspan font-family="Helvetica Neue" font-size="16" fill="white" x="0" y="15" xml:space="preserve">9080</tspan>
          </text>
        </g>
      </g>
      <g id="Group_62">
        <g id="Graphic_59">
          <path d="M 911.7767 1089.4036 L 911.7767 1066.5421 L 940.7767 1055.1284 L 969.7767 1066.5421 L 969.7767 1089.4036 Z" fill="#ff8080"/>
        </g>
        <g id="Graphic_61">
          <text transform="translate(918.5367 1065.9556)" fill="white">
            <tspan font-family="Helvetica Neue" font-size="16" fill="white" x="0" y="15" xml:space="preserve">15008</tspan>
          </text>
        </g>
      </g>
    </g>
  </g>
</svg>
