<?xml version="1.0" encoding="UTF-8" standalone="no"?>
<!DOCTYPE svg PUBLIC "-//W3C//DTD SVG 1.1//EN" "http://www.w3.org/Graphics/SVG/1.1/DTD/svg11.dtd">
<svg xmlns:dc="http://purl.org/dc/elements/1.1/" version="1.1" xmlns:xl="http://www.w3.org/1999/xlink" xmlns="http://www.w3.org/2000/svg" viewBox="177 394 961 567" width="961" height="567">
  <defs>
    <marker orient="auto" overflow="visible" markerUnits="strokeWidth" id="FilledArrow_Marker" stroke-linejoin="miter" stroke-miterlimit="10" viewBox="-1 -4 10 8" markerWidth="10" markerHeight="8" color="#456bb0">
      <g>
        <path d="M 8 0 L 0 -3 L 0 3 Z" fill="currentColor" stroke="currentColor" stroke-width="1"/>
      </g>
    </marker>
    <marker orient="auto" overflow="visible" markerUnits="strokeWidth" id="FilledArrow_Marker_2" stroke-linejoin="miter" stroke-miterlimit="10" viewBox="-1 -4 10 8" markerWidth="10" markerHeight="8" color="black">
      <g>
        <path d="M 8 0 L 0 -3 L 0 3 Z" fill="currentColor" stroke="currentColor" stroke-width="1"/>
      </g>
    </marker>
  </defs>
  <g id="hbone-same-node" stroke-opacity="1" fill="none" fill-opacity="1" stroke="none" stroke-dasharray="none">
    <title>hbone-same-node</title>
    <rect fill="white" x="177" y="394" width="961" height="567"/>
    <g id="hbone-same-node_Layer_1">
      <title>Layer 1</title>
      <g id="Graphic_25">
        <path d="M 206.5 417 L 788 417 C 790.2091 417 792 418.79086 792 421 L 792 780.559 C 792 782.7681 790.2091 784.559 788 784.559 L 206.5 784.559 C 204.29086 784.559 202.5 782.7681 202.5 780.559 L 202.5 421 C 202.5 418.79086 204.29086 417 206.5 417 Z" stroke="#a5a5a5" stroke-linecap="round" stroke-linejoin="round" stroke-width="1"/>
        <text transform="translate(207.5 422)" fill="#666">
          <tspan font-family="Helvetica Neue" font-size="16" fill="#666" x="0" y="15" xml:space="preserve">Node</tspan>
        </text>
      </g>
      <g id="Graphic_47"/>
      <g id="Graphic_24">
        <path d="M 597.9572 441.39524 L 713.9572 441.39524 C 716.1663 441.39524 717.9572 443.1861 717.9572 445.39524 L 717.9572 476.06724 C 717.9572 478.2764 716.1663 480.06724 713.9572 480.06724 L 597.9572 480.06724 C 595.748 480.06724 593.9572 478.2764 593.9572 476.06724 L 593.9572 445.39524 C 593.9572 443.1861 595.748 441.39524 597.9572 441.39524 Z" fill="#d1d1d1"/>
        <text transform="translate(598.9572 451.50724)" fill="black">
          <tspan font-family="Helvetica Neue" font-size="16" fill="black" x="28.104" y="15" xml:space="preserve">Dst Pod</tspan>
        </text>
      </g>
      <g id="Graphic_21">
        <path d="M 991 707 L 1107 707 C 1109.2091 707 1111 708.7909 1111 711 L 1111 755 C 1111 757.2091 1109.2091 759 1107 759 L 991 759 C 988.7909 759 987 757.2091 987 755 L 987 711 C 987 708.7909 988.7909 707 991 707 Z" fill="#456bb0"/>
        <text transform="translate(992 713.5359)" fill="white">
          <tspan font-family="Helvetica Neue" font-size="16" fill="white" x="22.328" y="16" xml:space="preserve">Waypoint </tspan>
          <tspan font-family="Helvetica Neue" font-size="16" fill="white" x="35.8" y="35.46411" xml:space="preserve">Proxy</tspan>
        </text>
      </g>
      <g id="Graphic_20">
        <path d="M 627.2072 887.5 L 743.2072 887.5 C 745.4163 887.5 747.2072 889.2909 747.2072 891.5 L 747.2072 935.5 C 747.2072 937.7091 745.4163 939.5 743.2072 939.5 L 627.2072 939.5 C 624.998 939.5 623.2072 937.7091 623.2072 935.5 L 623.2072 891.5 C 623.2072 889.2909 624.998 887.5 627.2072 887.5 Z" fill="#456bb0"/>
        <text transform="translate(628.2072 903.7679)" fill="white">
          <tspan font-family="Helvetica Neue" font-size="16" fill="white" x="36.4" y="16" xml:space="preserve">Istiod</tspan>
        </text>
      </g>
      <g id="Line_19">
        <line x1="737.6095" y1="887.5" x2="987.7293" y2="763.4002" marker-end="url(#FilledArrow_Marker)" stroke="#456bb0" stroke-linecap="round" stroke-linejoin="round" stroke-dasharray="4.0,4.0" stroke-width="1"/>
      </g>
      <g id="Graphic_18">
        <rect x="808.33515" y="821.8247" width="45.34" height="38.671997" fill="white"/>
        <text transform="translate(813.33515 826.8247)" fill="black">
          <tspan font-family="Helvetica Neue" font-style="italic" font-size="12" fill="black" x="6.672" y="11" xml:space="preserve">xDS</tspan>
          <tspan font-family="Helvetica Neue" font-style="italic" font-size="12" fill="black" x="7105427e-20" y="25.336" xml:space="preserve">Config</tspan>
        </text>
      </g>
      <g id="Graphic_12">
        <path d="M 717.9572 480.06724 L 717.9572 502.92877 L 688.9572 514.3424 L 659.9572 502.92877 L 659.9572 480.06724 Z" fill="#ff8080"/>
        <clipPath id="clip_path">
          <path d="M 58 0 L 58 22.861532 L 29 34.27516 L 0 22.861532 L 0 0 Z" fill="#ff8080"/>
        </clipPath>
        <text clip-path="url(#clip_path)" transform="translate(659.9572 480.06724)" fill="white">
          <tspan font-family="Helvetica Neue" font-size="14" fill="white" x="9.363529" y="21" xml:space="preserve">15008</tspan>
        </text>
      </g>
      <g id="Graphic_28">
        <path d="M 627.2072 707 L 743.2072 707 C 745.4163 707 747.2072 708.7909 747.2072 711 L 747.2072 755 C 747.2072 757.2091 745.4163 759 743.2072 759 L 627.2072 759 C 624.998 759 623.2072 757.2091 623.2072 755 L 623.2072 711 C 623.2072 708.7909 624.998 707 627.2072 707 Z" fill="#456bb0"/>
        <text transform="translate(628.2072 723.26794)" fill="white">
          <tspan font-family="Helvetica Neue" font-size="16" fill="white" x="30.184" y="16" xml:space="preserve">ztunnel</tspan>
        </text>
      </g>
      <g id="Line_29">
        <line x1="747.2072" y1="733" x2="977.1" y2="733" marker-end="url(#FilledArrow_Marker_2)" stroke="black" stroke-linecap="round" stroke-linejoin="round" stroke-width="1"/>
      </g>
      <g id="Graphic_30">
        <rect x="807.4493" y="720.832" width="124.048" height="24.335999" fill="white"/>
        <text transform="translate(812.4493 725.832)" fill="black">
          <tspan font-family="Helvetica Neue" font-style="italic" font-size="12" fill="black" x="0" y="11" xml:space="preserve">2. waypoint_ip:15008</tspan>
        </text>
      </g>
      <g id="Graphic_31">
        <path d="M 656.5 480.06724 L 656.5 502.92877 L 625.2286 514.3424 L 593.9572 502.92877 L 593.9572 480.06724 Z" fill="#ff8080"/>
        <clipPath id="clip_path_2">
          <path d="M 62.542834 0 L 62.542834 22.861532 L 31.271417 34.27516 L 0 22.861532 L 0 0 Z" fill="#ff8080"/>
        </clipPath>
        <text clip-path="url(#clip_path_2)" transform="translate(593.9572 480.06724)" fill="white">
          <tspan font-family="Helvetica Neue" font-size="14" fill="white" x="15.537998" y="21" xml:space="preserve">9080</tspan>
        </text>
      </g>
      <g id="Graphic_34">
        <path d="M 242.5 713.664 L 316.5 713.664 C 318.70914 713.664 320.5 715.4549 320.5 717.664 L 320.5 748.336 C 320.5 750.5451 318.70914 752.336 316.5 752.336 L 242.5 752.336 C 240.29086 752.336 238.5 750.5451 238.5 748.336 L 238.5 717.664 C 238.5 715.4549 240.29086 713.664 242.5 713.664 Z" fill="#d1d1d1"/>
        <text transform="translate(243.5 723.776)" fill="black">
          <tspan font-family="Helvetica Neue" font-size="16" fill="black" x="7.256" y="15" xml:space="preserve">Src Pod</tspan>
        </text>
      </g>
      <g id="Line_35">
        <path d="M 378.5 733.504 L 388.5 733.504 L 500.8536 733.252 L 608.3072 733 L 613.3072 733" marker-end="url(#FilledArrow_Marker_2)" stroke="black" stroke-linecap="round" stroke-linejoin="round" stroke-width="1"/>
      </g>
      <g id="Line_36">
        <path d="M 1049 707 L 1049 497.5 L 727.8572 497.5" marker-end="url(#FilledArrow_Marker_2)" stroke="black" stroke-linecap="round" stroke-linejoin="round" stroke-width="1"/>
      </g>
      <g id="Graphic_37">
        <rect x="866.2534" y="485.332" width="126.052" height="24.335999" fill="white"/>
        <text transform="translate(871.2534 490.332)" fill="black">
          <tspan font-family="Helvetica Neue" font-style="italic" font-size="12" fill="black" x="0" y="11" xml:space="preserve">3. dest_pod_ip:15008</tspan>
        </text>
      </g>
      <g id="Line_38">
        <line x1="688.9572" y1="514.3424" x2="688.9572" y2="697.1" marker-end="url(#FilledArrow_Marker_2)" stroke="black" stroke-linecap="round" stroke-linejoin="round" stroke-width="1"/>
      </g>
      <g id="Line_39">
        <path d="M 659.9572 707 L 659.9572 633.5 L 625.2286 633.5 L 625.2286 524.2424" marker-end="url(#FilledArrow_Marker_2)" stroke="black" stroke-linecap="round" stroke-linejoin="round" stroke-width="1"/>
      </g>
      <g id="Graphic_40">
        <rect x="419.9508" y="721.1356" width="115.804" height="24.335999" fill="white"/>
        <text transform="translate(424.9508 726.1356)" fill="black">
          <tspan font-family="Helvetica Neue" font-style="italic" font-size="12" fill="black" x="0" y="11" xml:space="preserve">1. Outbound socket</tspan>
        </text>
      </g>
      <g id="Line_41">
        <line x1="685.2072" y1="887.5" x2="685.2072" y2="768.9" marker-end="url(#FilledArrow_Marker)" stroke="#456bb0" stroke-linecap="round" stroke-linejoin="round" stroke-dasharray="4.0,4.0" stroke-width="1"/>
      </g>
      <g id="Graphic_42">
        <path d="M 320.5 714.672 L 359.186 714.672 L 378.5 733.504 L 359.186 752.336 L 320.5 752.336 Z" fill="#ff8080"/>
        <clipPath id="clip_path_3">
          <path d="M -10.167999 10.167999 L 28.518 10.167999 L 47.832 29 L 28.518 47.832 L -10.167999 47.832 Z" fill="#ff8080"/>
        </clipPath>
        <text clip-path="url(#clip_path_3)" transform="translate(330.668 704.504)" fill="white">
          <tspan font-family="Helvetica Neue" font-size="13" fill="white" x=".7620007" y="33" xml:space="preserve">15001</tspan>
        </text>
      </g>
      <g id="Graphic_43">
        <rect x="662.5372" y="824.9548" width="45.34" height="38.671997" fill="white"/>
        <text transform="translate(667.5372 829.9548)" fill="black">
          <tspan font-family="Helvetica Neue" font-style="italic" font-size="12" fill="black" x="6.672" y="11" xml:space="preserve">xDS</tspan>
          <tspan font-family="Helvetica Neue" font-style="italic" font-size="12" fill="black" x="7105427e-20" y="25.336" xml:space="preserve">Config</tspan>
        </text>
      </g>
      <g id="Graphic_44">
        <rect x="637.0732" y="581.06186" width="103.768" height="24.335999" fill="white"/>
        <text transform="translate(642.0732 586.06186)" fill="black">
          <tspan font-family="Helvetica Neue" font-style="italic" font-size="12" fill="black" x="0" y="11" xml:space="preserve">4. HOBNE socket</tspan>
        </text>
      </g>
      <g id="Graphic_46">
        <rect x="575.4326" y="545.05305" width="99.592" height="24.335999" fill="white"/>
        <text transform="translate(580.4326 550.05305)" fill="black">
          <tspan font-family="Helvetica Neue" font-style="italic" font-size="12" fill="black" x="0" y="11" xml:space="preserve">5. dst_pod_ip:80</tspan>
        </text>
      </g>
    </g>
  </g>
</svg>
