<?xml version="1.0" encoding="utf-8" standalone="yes"?>
<!DOCTYPE svg PUBLIC "-//W3C//DTD SVG 1.1//EN" "http://www.w3.org/Graphics/SVG/1.1/DTD/svg11.dtd">
<svg width="866" height="782" viewBox="0 0 866 782" style="fill:none;stroke:none;fill-rule:evenodd;clip-rule:evenodd;stroke-linecap:round;stroke-linejoin:round;stroke-miterlimit:1.5;" version="1.1" xmlns="http://www.w3.org/2000/svg" xmlns:xlink="http://www.w3.org/1999/xlink"><style id="fontImports">@import url("https://fonts.googleapis.com/css2?family=Roboto:wght@400;700&amp;display=block");</style><rect id="" x="0" y="0" width="866" height="782" style="fill: #ffffff;"></rect><g id="items" style="isolation: isolate"><g id="blend" style="mix-blend-mode: normal"><g id="g-root-tf_1cuvl8jk0zg1t-fill" data-item-order="-673920" transform="translate(-9, -9)"><g id="tf_1cuvl8jk0zg1t-fill" stroke="none" fill="#ffffff"><g><path d="M 10 10L 874 10L 874 790L 10 790Z"></path></g></g></g><g id="g-root-6.cu_sy_me8dabjqsrnn-fill" data-item-order="-186618" transform="translate(236.01168823242188, 207)"><g id="6.cu_sy_me8dabjqsrnn-fill" stroke="none" fill="#faf0ff"><g><path d="M 196.987 10C 117.119 10 47.3757 53.3479 10 117.8L 82.6986 159.91C 91.2601 145.137 102.6039 132.177 116.013 121.747L 134.25 153.335C 143.316 145.501 153.863 139.334 165.415 135.313L 147.176 103.7218C 162.546 97.4539 179.363 94 196.987 94L 196.988 94L 196.987 10Z"></path></g></g></g><g id="g-root-5.cu_sy_dild1fjqssgc-fill" data-item-order="-186614" transform="translate(206.99948120117188, 314.800537109375)"><g id="5.cu_sy_dild1fjqssgc-fill" stroke="none" fill="#ffebf7"><g><path d="M 10 118.2C 10 157.618 20.559 194.57 39.0028 226.382L 111.687 184.248C 103.2931 169.751 97.5773 153.51 95.2171 136.2L 131.685 136.2C 130.579 130.37 130 124.353 130 118.2C 130 112.048 130.579 106.0307 131.685 100.2002L 95.2169 100.2002C 97.5793 82.8741 103.3036 66.6177 111.711 52.1099L 39.0125 10C 20.5627 41.8158 10 78.7741 10 118.2Z"></path></g></g></g><g id="g-root-4.cu_sy_74uo3jqsu19-fill" data-item-order="-186610" transform="translate(236.00201416015625, 489.0491943359375)"><g id="4.cu_sy_74uo3jqsu19-fill" stroke="none" fill="#e8f9ff"><g><path d="M 196.997 159.951L 196.999 159.951L 196.999 75.9512L 196.997 75.9512C 179.373 75.9512 162.556 72.4973 147.185 66.2294L 165.425 34.6379C 153.873 30.6165 143.326 24.4503 134.26 16.6162L 116.023 48.2045C 102.6012 37.7648 91.2489 24.7904 82.6847 10L 10 52.134C 47.3734 116.596 117.122 159.951 196.997 159.951Z"></path></g></g></g><g id="g-root-3.cu_sy_1lxevczjqss9a-fill" data-item-order="-186606" transform="translate(423.0010986328125, 489.043701171875)"><g id="3.cu_sy_1lxevczjqss9a-fill" stroke="none" fill="#fff2e5"><g><path d="M 10 159.956C 89.9369 159.955 159.732 116.532 197.083 51.9873L 124.314 10C 115.749 24.792 104.3963 37.7679 90.9737 48.2085L 72.7367 16.6211C 63.671 24.4552 53.1239 30.6214 41.5723 34.6427L 59.8114 66.2338C 44.4409 72.5017 27.6238 75.9558 10.00001 75.956L 10 159.956Z"></path></g></g></g><g id="g-root-2.cu_sy_18lycznjqstu7-fill" data-item-order="-186602" transform="translate(517.31494140625, 314.9571533203125)"><g id="2.cu_sy_18lycznjqstu7-fill" stroke="none" fill="#fffbda"><g><path d="M 131.684 118.043C 131.684 157.399 121.159 194.296 102.7697 226.074L 30 184.086C 38.393 169.59 44.1077 153.35 46.4675 136.042L 10 136.042C 11.106 130.211 11.6848 124.194 11.6848 118.042C 11.6848 111.89 11.106 105.8725 10 100.042L 46.4673 100.042C 44.1087 82.7447 38.3993 66.5137 30.0145 52.0243L 102.7627 10C 121.156 41.7804 131.684 78.6821 131.684 118.043Z"></path></g></g></g><g id="g-root-1.cu_sy_mfhbgjjqstts-fill" data-item-order="-186598" transform="translate(422.99951171875, 207)"><g id="1.cu_sy_mfhbgjjqstts-fill" stroke="none" fill="#e3fff2"><g><path d="M 124.33 159.982L 197.078 117.957C 159.725 53.4183 89.9329 10 10 10L 10.0004 94C 27.6246 94.0001 44.442 97.4541 59.8127 103.7221L 41.5742 135.312C 53.1259 139.333 63.673 145.5 72.7386 153.334L 90.9751 121.747C 104.4055 132.194 115.764 145.179 124.33 159.982Z"></path></g></g></g><g id="g-root-0.cu_sy_909xfjqst1l-fill" data-item-order="-186594" transform="translate(327, 327)"><g id="0.cu_sy_909xfjqst1l-fill" stroke="none" fill="#f5f5f5"><g><path d="M 202 106C 202 159.019 159.019 202 106 202C 52.9807 202 10 159.019 10 106C 10 52.9807 52.9807 10 106 10C 159.019 10 202 52.9807 202 106Z"></path></g></g></g><g id="g-root-goal_8vwq4jjqst1n-fill" data-item-order="0" transform="translate(315, 249)"></g><g id="g-root-1_vcc7ybk0y1og-fill" data-item-order="0" transform="translate(483, 249)"></g><g id="g-root-tx__zp2ekjjqydxc-fill" data-item-order="0" transform="translate(519, 135)"><g id="tx__zp2ekjjqydxc-fill" stroke="none" fill="#484848"><g><text style="font: 20px Roboto, sans-serif; white-space: pre;" font-size="20px" font-family="Roboto, sans-serif"><tspan x="14" y="33.5" dominant-baseline="ideographic">通过视觉呈现增强</tspan><tspan x="14" y="57.5" dominant-baseline="ideographic">信息的清晰度和说</tspan><tspan x="74" y="81.5" dominant-baseline="ideographic">服力</tspan></text></g></g></g><g id="g-root-tx__1hduipvjqyfpn-fill" data-item-order="0" transform="translate(159, 135)"><g id="tx__1hduipvjqyfpn-fill" stroke="none" fill="#484848"><g><text style="font: 20px Roboto, sans-serif; white-space: pre;" font-size="20px" font-family="Roboto, sans-serif"><tspan x="14" y="33.5" dominant-baseline="ideographic">通过专业设计建立</tspan><tspan x="44" y="57.5" dominant-baseline="ideographic">信任和信誉</tspan></text></g></g></g><g id="g-root-tx__1464uv7jqyfb7-fill" data-item-order="0" transform="translate(33, 375)"><g id="tx__1464uv7jqyfb7-fill" stroke="none" fill="#de58a9"><g><text style="font: bold 20px Roboto, sans-serif; white-space: pre;" font-weight="bold" font-size="20px" font-family="Roboto, sans-serif"><tspan x="16" y="33.5" dominant-baseline="ideographic">多场景适用性</tspan></text></g></g></g><g id="g-root-shap_1upb137jqye4q-fill" data-item-order="0" transform="translate(375, 375)"></g><g id="g-root-tx__92ruwzjqydxd-fill" data-item-order="0" transform="translate(705, 375)"><g id="tx__92ruwzjqydxd-fill" stroke="none" fill="#e0cb15"><g><text style="font: bold 20px Roboto, sans-serif; white-space: pre;" font-weight="bold" font-size="20px" font-family="Roboto, sans-serif"><tspan x="12" y="33.5" dominant-baseline="ideographic">提高共鸣</tspan></text></g></g></g><g id="g-root-tx__qrjz2bjqyfpo-fill" data-item-order="0" transform="translate(15, 411)"><g id="tx__qrjz2bjqyfpo-fill" stroke="none" fill="#484848"><g><text style="font: 20px Roboto, sans-serif; white-space: pre;" font-size="20px" font-family="Roboto, sans-serif"><tspan x="14" y="33.5" dominant-baseline="ideographic">满足各种环境如演</tspan><tspan x="34" y="57.5" dominant-baseline="ideographic">示和社交媒体</tspan></text></g></g></g><g id="g-root-pens_1d3ngozjqokcp-fill" data-item-order="0" transform="translate(225, 399)"></g><g id="g-root-pupp_dikb43k0lcec-fill" data-item-order="0" transform="translate(573, 399)"></g><g id="g-root-tx__1hfpxz7jqyepz-fill" data-item-order="0" transform="translate(663, 411)"><g id="tx__1hfpxz7jqyepz-fill" stroke="none" fill="#484848"><g><text style="font: 20px Roboto, sans-serif; white-space: pre;" font-size="20px" font-family="Roboto, sans-serif"><tspan x="14" y="33.5" dominant-baseline="ideographic">通过引人入胜的图</tspan><tspan x="14" y="57.5" dominant-baseline="ideographic">形加深观众的连接</tspan></text></g></g></g><g id="g-root-tx__1d30tabjqyfwu-fill" data-item-order="0" transform="translate(549, 99)"><g id="tx__1d30tabjqyfwu-fill" stroke="none" fill="#3cc583"><g><text style="font: bold 20px Roboto, sans-serif; white-space: pre;" font-weight="bold" font-size="20px" font-family="Roboto, sans-serif"><tspan x="14" y="33.5" dominant-baseline="ideographic">增强直观性</tspan></text></g></g></g><g id="g-root-tx__hzntc3jqyej0-fill" data-item-order="0" transform="translate(177, 99)"><g id="tx__hzntc3jqyej0-fill" stroke="none" fill="#ba5de5"><g><text style="font: bold 20px Roboto, sans-serif; white-space: pre;" font-weight="bold" font-size="20px" font-family="Roboto, sans-serif"><tspan x="16" y="33.5" dominant-baseline="ideographic">提升专业形象</tspan></text></g></g></g><g id="g-root-eye_1luao8zjqzu2v-fill" data-item-order="0" transform="translate(315, 549)"></g><g id="g-root-tx__1uqjz9fjqygau-fill" data-item-order="0" transform="translate(519, 675)"><g id="tx__1uqjz9fjqygau-fill" stroke="none" fill="#484848"><g><text style="font: 20px Roboto, sans-serif; white-space: pre;" font-size="20px" font-family="Roboto, sans-serif"><tspan x="14" y="33.5" dominant-baseline="ideographic">节省时间和精力快</tspan><tspan x="44" y="57.5" dominant-baseline="ideographic">速创建图形</tspan></text></g></g></g><g id="g-root-tx__1lwse9vjqyg3u-fill" data-item-order="0" transform="translate(177, 639)"><g id="tx__1lwse9vjqyg3u-fill" stroke="none" fill="#1eabda"><g><text style="font: bold 20px Roboto, sans-serif; white-space: pre;" font-weight="bold" font-size="20px" font-family="Roboto, sans-serif"><tspan x="16" y="33.5" dominant-baseline="ideographic">提高沟通效率</tspan></text></g></g></g><g id="g-root-tx__909xfjqydqd-fill" data-item-order="0" transform="translate(537, 639)"><g id="tx__909xfjqydqd-fill" stroke="none" fill="#de8431"><g><text style="font: bold 20px Roboto, sans-serif; white-space: pre;" font-weight="bold" font-size="20px" font-family="Roboto, sans-serif"><tspan x="16" y="33.5" dominant-baseline="ideographic">快速图形生成</tspan></text></g></g></g><g id="g-root-tx__90wfnnjqyex1-fill" data-item-order="0" transform="translate(159, 675)"><g id="tx__90wfnnjqyex1-fill" stroke="none" fill="#484848"><g><text style="font: 20px Roboto, sans-serif; white-space: pre;" font-size="20px" font-family="Roboto, sans-serif"><tspan x="14" y="33.5" dominant-baseline="ideographic">通过图形减少误解</tspan><tspan x="24" y="57.5" dominant-baseline="ideographic">并提高沟通效率</tspan></text></g></g></g><g id="g-root-tx__1lyntj7jqsufe-fill" data-item-order="0" transform="translate(321, 39)"><g id="tx__1lyntj7jqsufe-fill" stroke="none" fill="#484848"><g><text style="font: bold 20px Roboto, sans-serif; white-space: pre;" font-weight="bold" font-size="20px" font-family="Roboto, sans-serif"><tspan x="12" y="33.5" dominant-baseline="ideographic">抽象概念可视化的好处</tspan></text></g></g></g><g id="g-root-fire_4mx7pfk0v6yr-fill" data-item-order="0" transform="translate(483, 549)"></g><g id="g-root-tf_1cuvl8jk0zg1t-stroke" data-item-order="-673920" transform="translate(-9, -9)"></g><g id="g-root-6.cu_sy_me8dabjqsrnn-stroke" data-item-order="-186618" transform="translate(236.01168823242188, 207)"><g id="6.cu_sy_me8dabjqsrnn-stroke" fill="none" stroke-linecap="round" stroke-linejoin="round" stroke-miterlimit="4" stroke="#ba5de5" stroke-width="2"><g><path d="M 196.9874 10C 117.1194 10 47.3757 53.3479 10 117.8004L 82.6986 159.9103C 91.2601 145.1369 102.6039 132.1767 116.013 121.7467L 134.2504 153.3347C 143.3161 145.5006 153.8631 139.3344 165.4148 135.313L 147.1755 103.7218C 162.5462 97.4539 179.3634 94 196.9874 94L 196.9885 94L 196.9874 10Z"></path></g></g></g><g id="g-root-5.cu_sy_dild1fjqssgc-stroke" data-item-order="-186614" transform="translate(206.99948120117188, 314.800537109375)"><g id="5.cu_sy_dild1fjqssgc-stroke" fill="none" stroke-linecap="round" stroke-linejoin="round" stroke-miterlimit="4" stroke="#de58a9" stroke-width="2"><g><path d="M 10 118.1995C 10 157.618 20.559 194.5703 39.0028 226.3823L 111.6875 184.2483C 103.2931 169.7512 97.5773 153.5096 95.2171 136.2002L 131.6852 136.2002C 130.5792 130.3697 130.0005 124.3525 130.0005 118.2002C 130.0005 112.0479 130.5792 106.0307 131.6852 100.2002L 95.2169 100.2002C 97.5793 82.8741 103.3036 66.6177 111.7111 52.1099L 39.0125 10C 20.5627 41.8158 10 78.7741 10 118.1995Z"></path></g></g></g><g id="g-root-4.cu_sy_74uo3jqsu19-stroke" data-item-order="-186610" transform="translate(236.00201416015625, 489.0491943359375)"><g id="4.cu_sy_74uo3jqsu19-stroke" fill="none" stroke-linecap="round" stroke-linejoin="round" stroke-miterlimit="4" stroke="#1eabda" stroke-width="2"><g><path d="M 196.9972 159.9512L 196.999 159.9512L 196.999 75.9512L 196.9972 75.9512C 179.3732 75.9512 162.5559 72.4973 147.1852 66.2294L 165.4246 34.6379C 153.873 30.6165 143.3259 24.4503 134.2602 16.6162L 116.0227 48.2045C 102.6012 37.7648 91.2489 24.7904 82.6847 10L 10 52.134C 47.3734 116.5957 117.1222 159.9512 196.9972 159.9512Z"></path></g></g></g><g id="g-root-3.cu_sy_1lxevczjqss9a-stroke" data-item-order="-186606" transform="translate(423.0010986328125, 489.043701171875)"><g id="3.cu_sy_1lxevczjqss9a-stroke" fill="none" stroke-linecap="round" stroke-linejoin="round" stroke-miterlimit="4" stroke="#de8431" stroke-width="2"><g><path d="M 10 159.956C 89.9369 159.9554 159.7316 116.5321 197.0832 51.9873L 124.3135 10C 115.7492 24.792 104.3963 37.7679 90.9737 48.2085L 72.7367 16.6211C 63.671 24.4552 53.1239 30.6214 41.5723 34.6427L 59.8114 66.2338C 44.4409 72.5017 27.6238 75.9558 10 75.956L 10 159.956Z"></path></g></g></g><g id="g-root-2.cu_sy_18lycznjqstu7-stroke" data-item-order="-186602" transform="translate(517.31494140625, 314.9571533203125)"><g id="2.cu_sy_18lycznjqstu7-stroke" fill="none" stroke-linecap="round" stroke-linejoin="round" stroke-miterlimit="4" stroke="#e0cb15" stroke-width="2"><g><path d="M 131.6844 118.0428C 131.6844 157.3985 121.1591 194.2959 102.7697 226.0736L 30 184.0864C 38.393 169.5902 44.1077 153.3498 46.4675 136.042L 10 136.042C 11.106 130.2115 11.6848 124.1943 11.6848 118.042C 11.6848 111.8896 11.106 105.8725 10 100.042L 46.4673 100.042C 44.1087 82.7447 38.3993 66.5137 30.0145 52.0243L 102.7627 10C 121.1564 41.7804 131.6844 78.6821 131.6844 118.0428Z"></path></g></g></g><g id="g-root-1.cu_sy_mfhbgjjqstts-stroke" data-item-order="-186598" transform="translate(422.99951171875, 207)"><g id="1.cu_sy_mfhbgjjqstts-stroke" fill="none" stroke-linecap="round" stroke-linejoin="round" stroke-miterlimit="4" stroke="#3cc583" stroke-width="2"><g><path d="M 124.3301 159.9816L 197.0784 117.9573C 159.7249 53.4183 89.9329 10 10 10L 10.0004 94C 27.6246 94.0001 44.442 97.4541 59.8127 103.7221L 41.5742 135.312C 53.1259 139.3334 63.673 145.4996 72.7386 153.3337L 90.9751 121.7472C 104.4055 132.1939 115.764 145.1788 124.3301 159.9816Z"></path></g></g></g><g id="g-root-0.cu_sy_909xfjqst1l-stroke" data-item-order="-186594" transform="translate(327, 327)"><g id="0.cu_sy_909xfjqst1l-stroke" fill="none" stroke-linecap="round" stroke-linejoin="round" stroke-miterlimit="4" stroke="#969696" stroke-width="2"><g><path d="M 202 106C 202 159.0193 159.0193 202 106 202C 52.9807 202 10 159.0193 10 106C 10 52.9807 52.9807 10 106 10C 159.0193 10 202 52.9807 202 106Z"></path></g></g></g><g id="g-root-goal_8vwq4jjqst1n-stroke" data-item-order="0" transform="translate(315, 249)"><g id="goal_8vwq4jjqst1n-stroke" fill="none" stroke-linecap="round" stroke-linejoin="round" stroke-miterlimit="4" stroke="#ba5de5" stroke-width="2"><g><path d="M 39 53.18L 39 56M 49 57C 49 51.477154 44.522846 47 39 47C 33.477154 47 29 51.477154 29 57M 32 37C 32 40.865997 35.13401 44 39 44C 42.865993 44 46 40.865997 46 37C 46 33.13401 42.865993 30.000002 39 30.000002C 35.13401 30.000002 32 33.13401 32 37M 25.1 53.84C 23.107313 52.595531 20.68919 52.229122 18.41728 52.827393C 16.145369 53.425663 14.221328 54.935509 13.1 57M 15.38 40.98C 18.250408 43.91003 22.619005 44.790092 26.4 43.200001M 14.559999 44C 14.56 47.280575 17.219429 49.940002 20.5 49.940002C 23.780571 49.940002 26.440001 47.280575 26.440001 44C 26.440001 40.719429 23.780571 38.060001 20.5 38.060001C 17.219429 38.060001 14.56 40.719429 14.56 44M 55 57L 55 11M 55 11L 43 11C 41.895432 11 41 11.895431 41 13L 41 19C 41 20.104568 41.895432 21 43 21L 55 21M 41 15L 28 15L 33 20L 28 25L 43 25C 44.104568 25 45 24.104568 45 23L 45 21M 33.400002 32.799999C 35.477036 34.790741 38.223797 35.932251 41.099998 36C 42.693016 36.00816 44.275742 35.74437 45.780003 35.220001"></path></g></g></g><g id="g-root-1_vcc7ybk0y1og-stroke" data-item-order="0" transform="translate(483, 249)"><g id="1_vcc7ybk0y1og-stroke" fill="none" stroke-linecap="round" stroke-linejoin="round" stroke-miterlimit="4" stroke="#3cc583" stroke-width="2"><g><path d="M 11 30.997999C 11 42.043694 19.954306 50.998001 31 50.998001C 42.045696 50.998001 51 42.043694 51 30.998001C 51 19.952305 42.045696 10.998 31 10.998C 19.954306 10.998 11 19.952305 11 30.998001ZM 57 56.998001L 45.141998 45.139999M 21 30.997999L 41 30.997999M 31 20.998001L 31 40.998001"></path></g></g></g><g id="g-root-tx__zp2ekjjqydxc-stroke" data-item-order="0" transform="translate(519, 135)"></g><g id="g-root-tx__1hduipvjqyfpn-stroke" data-item-order="0" transform="translate(159, 135)"></g><g id="g-root-tx__1464uv7jqyfb7-stroke" data-item-order="0" transform="translate(33, 375)"></g><g id="g-root-shap_1upb137jqye4q-stroke" data-item-order="0" transform="translate(375, 375)"><g id="shap_1upb137jqye4q-stroke" fill="none" stroke-linecap="round" stroke-linejoin="round" stroke-miterlimit="4" stroke="#969696" stroke-width="2"><g><path d="M 16 12L 100 12C 100 12 104 12 104 16L 104 100C 104 100 104 104 100 104L 16 104C 16 104 12 104 12 100L 12 16C 12 16 12 12 16 12M 24 54C 24 63.941124 32.058876 72 42 72C 51.941124 72 60 63.941124 60 54C 60 44.058876 51.941124 36 42 36C 32.058876 36 24 44.058876 24 54M 68 24L 48 24C 45.790859 24 44 25.790861 44 28L 44 36.112C 52.357067 37.046577 58.953419 43.642933 59.888 52L 68 52C 70.209137 52 72 50.209141 72 48L 72 28C 72 25.790861 70.209137 24 68 24ZM 84 36L 96 36M 84 44L 92 44M 24 84L 60 84M 24 92L 36 92M 68 62L 81.279999 73.068001M 84 72L 92 72C 92 72 96 72 96 76L 96 92C 96 92 96 96 92 96L 84 96C 84 96 80 96 80 92L 80 76C 80 76 80 72 84 72M 44 92L 48 92M 84 28L 96 28"></path></g></g></g><g id="g-root-tx__92ruwzjqydxd-stroke" data-item-order="0" transform="translate(705, 375)"></g><g id="g-root-tx__qrjz2bjqyfpo-stroke" data-item-order="0" transform="translate(15, 411)"></g><g id="g-root-pens_1d3ngozjqokcp-stroke" data-item-order="0" transform="translate(225, 399)"><g id="pens_1d3ngozjqokcp-stroke" fill="none" stroke-linecap="round" stroke-linejoin="round" stroke-miterlimit="4" stroke="#de58a9" stroke-width="2"><g><path d="M 47.599998 22.200001C 46.539066 25.701864 45.999939 29.34095 46 33C 46.130428 40.746658 47.057983 48.459309 48.767998 56.015999C 48.899742 56.59029 49.410797 56.997387 50.000004 56.997387C 50.589207 56.997387 51.100262 56.59029 51.232002 56.016003C 52.942013 48.459309 53.869568 40.746658 53.999996 33C 54.000057 29.34095 53.460934 25.701864 52.399998 22.200001M 50 11C 52.666 12.334 54 16.334 54 19C 54 21.209139 52.209141 23 50 23C 47.790859 23 46 21.209139 46 19C 46 15.43 50.666 15.292 50 11ZM 18 17L 24 17L 24 35L 18 35ZM 38 18L 38 49L 32 49L 32 18L 35 19L 38 18ZM 14 35L 14 21C 14 18.790861 15.790861 17 18 17M 24 14C 24 12.343145 22.656855 11 21 11C 19.343147 11 18 12.343145 18 14L 18 17L 24 17ZM 18 35L 24 35L 24 49L 18 49ZM 32 18L 35 11L 38 18M 18 49C 18.452644 51.37326 19.029438 53.721153 19.728001 56.034C 19.886505 56.605602 20.40683 57.001274 21 57.001274C 21.593172 57.001274 22.113495 56.605602 22.271999 56.034C 22.970562 53.721153 23.547356 51.37326 24 49M 38 54C 38 55.656857 36.656853 57 35 57C 33.343147 57 32 55.656857 32 54L 32 53L 38 53ZM 32 49L 38 49L 38 53L 32 53Z"></path></g></g></g><g id="g-root-pupp_dikb43k0lcec-stroke" data-item-order="0" transform="translate(573, 399)"><g id="pupp_dikb43k0lcec-stroke" fill="none" stroke-linecap="round" stroke-linejoin="round" stroke-miterlimit="4" stroke="#e0cb15" stroke-width="2"><g><path d="M 19.066 11L 47.688 19.416M 47.688 11L 19.066 19.416M 28.032 24.954C 28.032 27.715424 30.270576 29.954 33.031998 29.954C 35.793427 29.954 38.031998 27.715424 38.031998 24.954C 38.031998 22.192577 35.793427 19.954 33.031998 19.954C 30.270576 19.954 28.032 22.192577 28.032 24.954M 50.526001 32.141998C 50.141411 31.390417 49.473732 30.822617 48.670132 30.563753C 47.866528 30.30489 46.99297 30.376213 46.242001 30.762001C 43.640881 32.106682 40.676933 32.58128 37.785999 32.115997L 36.478001 31.916C 29.479727 30.810425 22.414536 33.457787 17.865999 38.889999C 16.790077 40.241539 16.988161 42.204483 18.312416 43.313816C 19.636669 44.423149 21.603947 44.274139 22.745998 42.978001C 24.6758 40.69561 27.293165 39.09993 30.206001 38.43L 30.549999 42.318001L 29.190001 43.223999C 25.939632 45.379925 23.685795 48.74556 22.93 52.572002L 22.799999 53.200001C 22.456762 54.923515 23.574793 56.599216 25.298 56.944C 25.504658 56.986111 25.715096 57.006889 25.925999 57.005997C 27.442318 57.003971 28.746832 55.932915 29.043999 54.445999L 29.167999 53.818001C 29.596485 51.648846 30.87475 49.741173 32.718002 48.52L 33.548 47.966C 33.937748 47.70816 34.405479 47.594944 34.870003 47.646C 38.236137 48.01215 41.04216 50.386784 41.959999 53.646C 42.442284 55.336498 44.203907 56.315731 45.894264 55.832932C 47.584618 55.350128 48.563313 53.588203 48.079998 51.897999C 46.575523 46.62571 42.24765 42.638351 36.869999 41.57L 36.599998 38.372002L 36.799999 38.403999C 41.023354 39.080162 45.352261 38.387764 49.153999 36.428001C 50.715569 35.622608 51.329578 33.704506 50.526001 32.141998ZM 22.132 19.688L 20.816 36.017998M 43.742001 19.667999L 45.383999 31.166"></path></g></g></g><g id="g-root-tx__1hfpxz7jqyepz-stroke" data-item-order="0" transform="translate(663, 411)"></g><g id="g-root-tx__1d30tabjqyfwu-stroke" data-item-order="0" transform="translate(549, 99)"></g><g id="g-root-tx__hzntc3jqyej0-stroke" data-item-order="0" transform="translate(177, 99)"></g><g id="g-root-eye_1luao8zjqzu2v-stroke" data-item-order="0" transform="translate(315, 549)"><g id="eye_1luao8zjqzu2v-stroke" fill="none" stroke-linecap="round" stroke-linejoin="round" stroke-miterlimit="4" stroke="#1eabda" stroke-width="2"><g><path d="M 14 16L 54 16C 54 16 56 16 56 18L 56 50C 56 50 56 52 54 52L 14 52C 14 52 12 52 12 50L 12 18C 12 18 12 16 14 16M 18 28L 18 24C 18 22.895432 18.895432 22 20 22L 24 22M 50 28L 50 24C 50 22.895432 49.104568 22 48 22L 44 22M 18 40L 18 44C 18 45.104568 18.895432 46 20 46L 24 46M 50 40L 50 44C 50 45.104568 49.104568 46 48 46L 44 46M 29 34C 29 36.761425 31.238577 39 34 39C 36.761425 39 39 36.761425 39 34C 39 31.238577 36.761425 29 34 29C 31.238577 29 29 31.238577 29 34M 45.650002 33.104C 44.355999 31.691999 39.629997 27 34 27C 28.370001 27 23.644001 31.691999 22.35 33.104C 21.878456 33.611351 21.878456 34.396648 22.35 34.903999C 23.644001 36.307999 28.370001 41 34 41C 39.629997 41 44.355999 36.307999 45.650002 34.896C 46.121548 34.388649 46.121548 33.603355 45.650002 33.096001Z"></path></g></g></g><g id="g-root-tx__1uqjz9fjqygau-stroke" data-item-order="0" transform="translate(519, 675)"></g><g id="g-root-tx__1lwse9vjqyg3u-stroke" data-item-order="0" transform="translate(177, 639)"></g><g id="g-root-tx__909xfjqydqd-stroke" data-item-order="0" transform="translate(537, 639)"></g><g id="g-root-tx__90wfnnjqyex1-stroke" data-item-order="0" transform="translate(159, 675)"></g><g id="g-root-tx__1lyntj7jqsufe-stroke" data-item-order="0" transform="translate(321, 39)"></g><g id="g-root-fire_4mx7pfk0v6yr-stroke" data-item-order="0" transform="translate(483, 549)"><g id="fire_4mx7pfk0v6yr-stroke" fill="none" stroke-linecap="round" stroke-linejoin="round" stroke-miterlimit="4" stroke="#de8431" stroke-width="2"><g><path d="M 20 43.001999C 20 50.73399 26.268015 57.002003 34 57.002003C 41.731987 57.002003 48 50.73399 48 43.002003C 48 35.270016 41.731987 29.002001 34 29.002001C 26.268015 29.002001 20 35.270016 20 43.002003ZM 47.099998 38.054001C 50.260151 36.237114 52.181328 32.844597 52.114002 29.200001C 52.050232 25.509613 50.54237 21.991268 47.914001 19.4C 47.755997 20.712328 47.068573 21.903091 46.011131 22.696175C 44.953686 23.489258 43.618073 23.815769 42.313999 23.599998C 38.643883 20.513309 37.496609 15.35058 39.514 11C 30.764 11 25.164 16.162001 24.114 23.6C 21.436256 23.879742 18.995216 22.048962 18.514 19.4C 12.32 24.667999 12 35.323997 20.501999 39.274002M 41 43.001999L 34 43.001999L 34 34.001999"></path></g></g></g></g></g></svg>