<?xml version="1.0" encoding="utf-8" standalone="yes"?>
<!DOCTYPE svg PUBLIC "-//W3C//DTD SVG 1.1//EN" "http://www.w3.org/Graphics/SVG/1.1/DTD/svg11.dtd">
<svg width="626" height="662" viewBox="0 0 626 662" style="fill:none;stroke:none;fill-rule:evenodd;clip-rule:evenodd;stroke-linecap:round;stroke-linejoin:round;stroke-miterlimit:1.5;" version="1.1" xmlns="http://www.w3.org/2000/svg" xmlns:xlink="http://www.w3.org/1999/xlink"><style id="fontImports">@import url("https://fonts.googleapis.com/css2?family=Roboto:wght@400;700&amp;display=block");</style><rect id="" x="0" y="0" width="626" height="662" style="fill: #ffffff;"></rect><g id="items" style="isolation: isolate"><g id="blend" style="mix-blend-mode: normal"><g id="g-root-tf_18gyngzi2y32l-fill" data-item-order="-411840" transform="translate(-9, -9)"><g id="tf_18gyngzi2y32l-fill" stroke="none" fill="#ffffff"><g><path d="M 10 10L 634 10L 634 670L 10 670Z"></path></g></g></g><g id="g-root-0.cu_sy_4mxx03i2zhtx-fill" data-item-order="-141690" transform="translate(231, 291)"><g id="0.cu_sy_4mxx03i2zhtx-fill" stroke="none" fill="#edf4ff"><g><path d="M 154 82C 154 121.765 121.765 154 82 154C 42.2355 154 10 121.765 10 82C 10 42.2355 42.2355 10 82 10C 121.765 10 154 42.2355 154 82Z"></path></g></g></g><g id="g-root-5.cu_sy_1ut1ftfi2zf9q-fill" data-item-order="-141686" transform="translate(393, 405)"><g id="5.cu_sy_1ut1ftfi2zf9q-fill" stroke="none" fill="#fff2e5"><g><path d="M 94 52C 94 75.196 75.196 94 52 94C 28.804 94 10 75.196 10 52C 10 28.804 28.804 10 52 10C 75.196 10 94 28.804 94 52Z"></path></g></g></g><g id="g-root-4.cu_sy_1qd7xozi2zg1z-fill" data-item-order="-141682" transform="translate(135, 381)"><g id="4.cu_sy_1qd7xozi2zg1z-fill" stroke="none" fill="#fffbda"><g><path d="M 82 46C 82 65.8823 65.8823 82 46 82C 26.1177 82 10 65.8823 10 46C 10 26.1177 26.1177 10 46 10C 65.8823 10 82 26.1177 82 46Z"></path></g></g></g><g id="g-root-2.cu_sy_1lxefkji2zgu8-fill" data-item-order="-141678" transform="translate(315, 243)"><g id="2.cu_sy_1lxefkji2zgu8-fill" stroke="none" fill="#e3fff2"><g><path d="M 58 34C 58 47.2548 47.2548 58 34 58C 20.7452 58 10 47.2548 10 34C 10 20.7452 20.7452 10 34 10C 47.2548 10 58 20.7452 58 34Z"></path></g></g></g><g id="g-root-3.cu_sy_1d1rfbni2zhmx-fill" data-item-order="-141674" transform="translate(519, 285)"><g id="3.cu_sy_1d1rfbni2zhmx-fill" stroke="none" fill="#f4ffdc"><g><path d="M 70 40C 70 56.5685 56.5685 70 40 70C 23.4315 70 10 56.5685 10 40C 10 23.4315 23.4315 10 40 10C 56.5685 10 70 23.4315 70 40Z"></path></g></g></g><g id="g-root-1.cu_sy_zqxe1fi2zg22-fill" data-item-order="-141670" transform="translate(51, 273)"><g id="1.cu_sy_zqxe1fi2zg22-fill" stroke="none" fill="#e8f9ff"><g><path d="M 70 40C 70 56.5685 56.5685 70 40 70C 23.4315 70 10 56.5685 10 40C 10 23.4315 23.4315 10 40 10C 56.5685 10 70 23.4315 70 40Z"></path></g></g></g><g id="g-root--1.cu_sy_vb3vwzi2zgub-fill" data-item-order="-141665" transform="translate(15, 267)"></g><g id="g-root-slid_14499ari2y32d-fill" data-item-order="0" transform="translate(324, 252)"></g><g id="g-root-tx__1hjgcpfi2zfv3-fill" data-item-order="0" transform="translate(411, 147)"><g id="tx__1hjgcpfi2zfv3-fill" stroke="none" fill="#484848"><g><text style="font: 20px Roboto, sans-serif; white-space: pre;" font-size="20px" font-family="Roboto, sans-serif"><tspan x="14" y="33.5" dominant-baseline="ideographic">支持多种导出格式</tspan></text></g></g></g><g id="g-root-tx__v2zpsji30uf5-fill" data-item-order="0" transform="translate(237, 135)"><g id="tx__v2zpsji30uf5-fill" stroke="none" fill="#484848"><g><text style="font: 20px Roboto, sans-serif; white-space: pre;" font-size="20px" font-family="Roboto, sans-serif"><tspan x="16" y="33.5" dominant-baseline="ideographic">允许快速调整</tspan></text></g></g></g><g id="g-root-1_4nktw3i2k0sp-fill" data-item-order="0" transform="translate(63, 285)"></g><g id="g-root-tx__18ntcgji2zhfk-fill" data-item-order="0" transform="translate(27, 147)"><g id="tx__18ntcgji2zhfk-fill" stroke="none" fill="#484848"><g><text style="font: 20px Roboto, sans-serif; white-space: pre;" font-size="20px" font-family="Roboto, sans-serif"><tspan x="14" y="33.5" dominant-baseline="ideographic">将复杂文本转化为</tspan><tspan x="74" y="57.5" dominant-baseline="ideographic">图形</tspan></text></g></g></g><g id="g-root-tx__vb4evni2wnii-fill" data-item-order="0" transform="translate(441, 111)"><g id="tx__vb4evni2wnii-fill" stroke="none" fill="#92bd39"><g><text style="font: bold 20px Roboto, sans-serif; white-space: pre;" font-weight="bold" font-size="20px" font-family="Roboto, sans-serif"><tspan x="14" y="33.5" dominant-baseline="ideographic">多格式导出</tspan></text></g></g></g><g id="g-root-tran_1ulk3f7i2r0n5-fill" data-item-order="0" transform="translate(531, 297)"></g><g id="g-root-ai_dilg7ni2wnpj-fill" data-item-order="0" transform="translate(267, 327)"></g><g id="g-root-tx__1lxeyj7i2wnih-fill" data-item-order="0" transform="translate(261, 99)"><g id="tx__1lxeyj7i2wnih-fill" stroke="none" fill="#3cc583"><g><text style="font: bold 20px Roboto, sans-serif; white-space: pre;" font-weight="bold" font-size="20px" font-family="Roboto, sans-serif"><tspan x="12" y="33.5" dominant-baseline="ideographic">实时预览</tspan></text></g></g></g><g id="g-root-tx__94mudvi2zg25-fill" data-item-order="0" transform="translate(345, 555)"><g id="tx__94mudvi2zg25-fill" stroke="none" fill="#484848"><g><text style="font: 20px Roboto, sans-serif; white-space: pre;" font-size="20px" font-family="Roboto, sans-serif"><tspan x="16" y="33.5" dominant-baseline="ideographic">简化工作流程</tspan></text></g></g></g><g id="g-root-tx__92ry37i2wohs-fill" data-item-order="0" transform="translate(45, 111)"><g id="tx__92ry37i2wohs-fill" stroke="none" fill="#1eabda"><g><text style="font: bold 20px Roboto, sans-serif; white-space: pre;" font-weight="bold" font-size="20px" font-family="Roboto, sans-serif"><tspan x="16" y="33.5" dominant-baseline="ideographic">智能算法转化</tspan></text></g></g></g><g id="g-root-1_m9us7ni2qzgk-fill" data-item-order="0" transform="translate(411, 423)"></g><g id="g-root-tx__1d3ndjni2wnbf-fill" data-item-order="0" transform="translate(177, 519)"><g id="tx__1d3ndjni2wnbf-fill" stroke="none" fill="#e0cb15"><g><text style="font: bold 20px Roboto, sans-serif; white-space: pre;" font-weight="bold" font-size="20px" font-family="Roboto, sans-serif"><tspan x="12" y="33.5" dominant-baseline="ideographic">轻松嵌入</tspan></text></g></g></g><g id="g-root-tx__1um6qtvi2y1os-fill" data-item-order="0" transform="translate(345, 519)"><g id="tx__1um6qtvi2y1os-fill" stroke="none" fill="#de8431"><g><text style="font: bold 20px Roboto, sans-serif; white-space: pre;" font-weight="bold" font-size="20px" font-family="Roboto, sans-serif"><tspan x="16" y="33.5" dominant-baseline="ideographic">工作效率提升</tspan></text></g></g></g><g id="g-root-tx__1uuadzni2zhfy-fill" data-item-order="0" transform="translate(135, 555)"><g id="tx__1uuadzni2zhfy-fill" stroke="none" fill="#484848"><g><text style="font: 20px Roboto, sans-serif; white-space: pre;" font-size="20px" font-family="Roboto, sans-serif"><tspan x="14" y="33.5" dominant-baseline="ideographic">方便在多个平台使</tspan><tspan x="84" y="57.5" dominant-baseline="ideographic">用</tspan></text></g></g></g><g id="g-root-tx_napkinai_mfgvo3i2zhn0-fill" data-item-order="0" transform="translate(165, 33)"><g id="tx_napkinai_mfgvo3i2zhn0-fill" stroke="none" fill="#484848"><g><text style="font: bold 20px Roboto, sans-serif; white-space: pre;" font-weight="bold" font-size="20px" font-family="Roboto, sans-serif"><tspan x="22.95" y="33.5" dominant-baseline="ideographic">Napkin.ai 如何提升沟通效率</tspan></text></g></g></g><g id="g-root-thri_qpodhvi2lg5k-fill" data-item-order="0" transform="translate(150, 396)"></g><g id="g-root-tf_18gyngzi2y32l-stroke" data-item-order="-411840" transform="translate(-9, -9)"></g><g id="g-root-0.cu_sy_4mxx03i2zhtx-stroke" data-item-order="-141690" transform="translate(231, 291)"><g id="0.cu_sy_4mxx03i2zhtx-stroke" fill="none" stroke-linecap="round" stroke-linejoin="round" stroke-miterlimit="4" stroke="#4e88e7" stroke-width="2"><g><path d="M 154 82C 154 121.7645 121.7645 154 82 154C 42.2355 154 10 121.7645 10 82C 10 42.2355 42.2355 10 82 10C 121.7645 10 154 42.2355 154 82Z"></path></g></g></g><g id="g-root-5.cu_sy_1ut1ftfi2zf9q-stroke" data-item-order="-141686" transform="translate(393, 405)"><g id="5.cu_sy_1ut1ftfi2zf9q-stroke" fill="none" stroke-linecap="round" stroke-linejoin="round" stroke-miterlimit="4" stroke="#de8431" stroke-width="2"><g><path d="M 94 52C 94 75.196 75.196 94 52 94C 28.804 94 10 75.196 10 52C 10 28.804 28.804 10 52 10C 75.196 10 94 28.804 94 52Z"></path></g></g></g><g id="g-root-4.cu_sy_1qd7xozi2zg1z-stroke" data-item-order="-141682" transform="translate(135, 381)"><g id="4.cu_sy_1qd7xozi2zg1z-stroke" fill="none" stroke-linecap="round" stroke-linejoin="round" stroke-miterlimit="4" stroke="#e0cb15" stroke-width="2"><g><path d="M 82 46C 82 65.8823 65.8823 82 46 82C 26.1177 82 10 65.8823 10 46C 10 26.1177 26.1177 10 46 10C 65.8823 10 82 26.1177 82 46Z"></path></g></g></g><g id="g-root-2.cu_sy_1lxefkji2zgu8-stroke" data-item-order="-141678" transform="translate(315, 243)"><g id="2.cu_sy_1lxefkji2zgu8-stroke" fill="none" stroke-linecap="round" stroke-linejoin="round" stroke-miterlimit="4" stroke="#3cc583" stroke-width="2"><g><path d="M 58 34C 58 47.2548 47.2548 58 34 58C 20.7452 58 10 47.2548 10 34C 10 20.7452 20.7452 10 34 10C 47.2548 10 58 20.7452 58 34Z"></path></g></g></g><g id="g-root-3.cu_sy_1d1rfbni2zhmx-stroke" data-item-order="-141674" transform="translate(519, 285)"><g id="3.cu_sy_1d1rfbni2zhmx-stroke" fill="none" stroke-linecap="round" stroke-linejoin="round" stroke-miterlimit="4" stroke="#92bd39" stroke-width="2"><g><path d="M 70 40C 70 56.5685 56.5685 70 40 70C 23.4315 70 10 56.5685 10 40C 10 23.4315 23.4315 10 40 10C 56.5685 10 70 23.4315 70 40Z"></path></g></g></g><g id="g-root-1.cu_sy_zqxe1fi2zg22-stroke" data-item-order="-141670" transform="translate(51, 273)"><g id="1.cu_sy_zqxe1fi2zg22-stroke" fill="none" stroke-linecap="round" stroke-linejoin="round" stroke-miterlimit="4" stroke="#1eabda" stroke-width="2"><g><path d="M 70 40C 70 56.5685 56.5685 70 40 70C 23.4315 70 10 56.5685 10 40C 10 23.4315 23.4315 10 40 10C 56.5685 10 70 23.4315 70 40Z"></path></g></g></g><g id="g-root--1.cu_sy_vb3vwzi2zgub-stroke" data-item-order="-141665" transform="translate(15, 267)"><g id="-1.cu_sy_vb3vwzi2zgub-stroke" fill="none" stroke-linecap="round" stroke-linejoin="round" stroke-miterlimit="4" stroke="#969696" stroke-width="2" stroke-dasharray="5.0, 7.0"><g><path d="M 130.4196 147.0691C 107.46 135.4208 94 121.2652 94 106C 94 68.2257 176.42 37.2457 281.252 34.2392M 174.9018 123.3642C 169.1534 117.9793 166 112.1236 166 106C 166 87.388 195.1309 71.2501 237.7173 63.2865M 195.1311 136.0814C 207.3092 141.5812 222.7544 146.084 240.3949 149.2002C 250.1891 150.6743 275.4221 154.0027 298 154.0027C 320.5779 154.0027 345.8109 150.6743 355.6051 149.2002C 399.6433 141.4209 430 124.9996 430 106C 430 87.4064 400.9265 71.282 358.4088 63.3101M 202.6477 169.6671C 231.1044 174.987 263.5553 178 298 178C 331.3496 178 362.8302 175.1756 390.6261 170.1675M 386.7217 197.3584C 358.7744 200.3718 328.9576 202 298 202C 255.6601 202 215.4541 198.9545 179.2462 193.4848L 160.5337 191.0135L 141.8212 186.6722C 62.4986 169.5741 10 139.8307 10 106C 10 88.9078 23.4005 72.8589 46.8905 58.957M 473.2566 182.1851C 541.8097 164.6366 586 137.0385 586 106C 586 95.2126 580.6623 84.8409 570.8192 75.1621M 453.3767 152.6573C 483.6994 140.0908 502 123.7997 502 106C 502 68.2258 419.58 37.2457 314.7481 34.2392M 359.7223 12.2098C 421.4161 16.7002 475.718 27.7819 515.6527 43.1299M 308.1833 10.0589C 304.8033 10.0197 301.4086 10 298 10C 224.0823 10 156.6686 19.2824 105.6776 34.5409"></path></g></g></g><g id="g-root-slid_14499ari2y32d-stroke" data-item-order="0" transform="translate(324, 252)"><g id="slid_14499ari2y32d-stroke" fill="none" stroke-linecap="round" stroke-linejoin="round" stroke-miterlimit="4" stroke="#3cc583" stroke-width="2"><g><path d="M 31.561251 39.375C 32.126621 39.375221 32.621754 38.995926 32.768749 38.450001C 33.873596 34.05315 34.413364 29.533377 34.375 24.999998C 34.413364 20.466621 33.873596 15.94685 32.768749 11.55C 32.621754 11.004073 32.126621 10.624779 31.561251 10.625L 18.438749 10.625C 17.873379 10.624779 17.378246 11.004073 17.231251 11.55C 16.126402 15.94685 15.586635 20.466621 15.625 24.999998C 15.586635 29.533377 16.126402 34.05315 17.231251 38.449997C 17.378246 38.995926 17.873379 39.375221 18.438749 39.375ZM 16.592501 14.375L 33.407501 14.375M 16.592501 35.625L 33.407501 35.625M 15.8875 30.625L 34.112503 30.625M 15.8875 19.375L 34.112503 19.375M 24.356249 23.125L 24.981249 23.125C 25.326427 23.125 25.606249 23.404823 25.606249 23.75L 25.606249 28.125M 24.356249 28.125L 26.856249 28.125"></path></g></g></g><g id="g-root-tx__1hjgcpfi2zfv3-stroke" data-item-order="0" transform="translate(411, 147)"></g><g id="g-root-tx__v2zpsji30uf5-stroke" data-item-order="0" transform="translate(237, 135)"></g><g id="g-root-1_4nktw3i2k0sp-stroke" data-item-order="0" transform="translate(63, 285)"><g id="1_4nktw3i2k0sp-stroke" fill="none" stroke-linecap="round" stroke-linejoin="round" stroke-miterlimit="4" stroke="#1eabda" stroke-width="2"><g><path d="M 28.75 43C 28.75 44.242641 27.742641 45.25 26.5 45.25L 13 45.25C 11.75736 45.25 10.75 44.242641 10.75 43L 10.75 25C 10.75 23.757359 11.75736 22.75 13 22.75L 21.818501 22.75C 22.414822 22.750128 22.986702 22.986973 23.408501 23.408501L 28.091499 28.091499C 28.513029 28.513298 28.749872 29.08518 28.75 29.681499ZM 15.25 28L 20.5 28M 15.25 32.875L 24.25 32.875M 15.25 37.75L 24.25 37.75M 31.75 16L 37 16M 31.75 20.875L 40.75 20.875M 31.75 25.75L 40.75 25.75M 33.25 33.25L 43 33.25C 44.242641 33.25 45.25 32.242641 45.25 31L 45.25 17.681499C 45.249874 17.08518 45.013027 16.513298 44.591499 16.091501L 39.908501 11.4085C 39.486702 10.986973 38.914822 10.750128 38.318501 10.75L 29.5 10.75C 28.25736 10.75 27.25 11.75736 27.25 13L 27.25 21.25M 18.25 11.5L 20.5 13.75L 18.25 16M 20.5 13.75L 16 13.75C 14.75736 13.75 13.75 14.75736 13.75 16L 13.75 19M 36.25 44.5L 34 42.25L 36.25 40M 34 42.25L 38.5 42.25C 39.742641 42.25 40.75 41.242641 40.75 40L 40.75 37"></path></g></g></g><g id="g-root-tx__18ntcgji2zhfk-stroke" data-item-order="0" transform="translate(27, 147)"></g><g id="g-root-tx__vb4evni2wnii-stroke" data-item-order="0" transform="translate(441, 111)"></g><g id="g-root-tran_1ulk3f7i2r0n5-stroke" data-item-order="0" transform="translate(531, 297)"><g id="tran_1ulk3f7i2r0n5-stroke" fill="none" stroke-linecap="round" stroke-linejoin="round" stroke-miterlimit="4" stroke="#92bd39" stroke-width="2"><g><path d="M 26.714285 44.714287L 34.78857 25.865715C 34.944283 25.492002 35.309433 25.248571 35.714287 25.248571C 36.119141 25.248571 36.484287 25.492002 36.639999 25.865715L 44.714287 44.714287M 30.34 36.254284L 41.08857 36.254284M 11.285714 16.428572L 34.42857 16.428572M 22.857143 11.285714L 22.857143 16.428572M 30.571428 16.428572L 15.142857 34.42857M 15.142857 16.428572L 25.274286 28.257143"></path></g></g></g><g id="g-root-ai_dilg7ni2wnpj-stroke" data-item-order="0" transform="translate(267, 327)"><g id="ai_dilg7ni2wnpj-stroke" fill="none" stroke-linecap="round" stroke-linejoin="round" stroke-miterlimit="4" stroke="#4e88e7" stroke-width="2"><g><path d="M 38.50354 80.005302L 38.500748 80.0056L 36.484482 72.504402L 62.412098 57.611801L 39.627548 80.303497C 39.62746 80.303497 39.627399 80.303497 39.627308 80.303802C 39.260201 80.668602 38.636078 80.496696 38.50354 80.005302ZM 23.302181 11.592385L 23.30341 11.593084L 37.285778 19.63225L 22.299999 28.24576L 22.299999 12.158437C 22.299999 11.66573 22.8487 11.331085 23.302181 11.592385ZM 22.299999 49.5784L 22.299999 38.37133L 46.0924 24.705971L 55.828602 30.30871L 22.299999 49.5784ZM 72.617203 39.97765L 72.617203 39.9673L 64.634499 35.3731L 22.299999 59.7043L 22.299999 69.783096C 22.299999 70.228897 22.76869 70.575104 23.238369 70.371399L 73.368401 41.542603L 72.617203 39.97765ZM 72.617203 39.97765L 73.368401 40.4104M 72.617203 39.97765L 73.368401 40.4104M 73.368401 40.4104C 73.807602 40.663601 73.808197 41.2882 73.369598 41.542L 73.368401 40.4104Z"></path></g></g></g><g id="g-root-tx__1lxeyj7i2wnih-stroke" data-item-order="0" transform="translate(261, 99)"></g><g id="g-root-tx__94mudvi2zg25-stroke" data-item-order="0" transform="translate(345, 555)"></g><g id="g-root-tx__92ry37i2wohs-stroke" data-item-order="0" transform="translate(45, 111)"></g><g id="g-root-1_m9us7ni2qzgk-stroke" data-item-order="0" transform="translate(411, 423)"><g id="1_m9us7ni2qzgk-stroke" fill="none" stroke-linecap="round" stroke-linejoin="round" stroke-miterlimit="4" stroke="#de8431" stroke-width="2"><g><path d="M 17.644001 17.133999C 17.643053 20.522383 20.389614 23.269712 23.778 23.269712C 27.166382 23.269712 29.912945 20.522383 29.911999 17.133999C 29.912945 13.745616 27.166382 10.998286 23.778 10.998286C 20.389614 10.998286 17.643053 13.745616 17.643999 17.133999M 17.644001 50.866001C 17.643053 54.254379 20.389614 57.001709 23.778 57.001709C 27.166382 57.001709 29.912945 54.254379 29.911999 50.865997C 29.912945 47.477615 27.166382 44.730286 23.778 44.730286C 20.389614 44.730286 17.643053 47.477615 17.643999 50.865997M 38.087997 37.066002C 38.087051 40.454384 40.833614 43.20171 44.221996 43.20171C 47.610382 43.20171 50.356945 40.454384 50.355999 37.065998C 50.356945 33.677612 47.610382 30.930285 44.221996 30.930285C 40.833614 30.930285 38.087051 33.677612 38.087997 37.065998M 23.778 23.265999L 23.778 44.734001M 23.778 24.799999C 24.799999 34 29.912001 37.066002 38.087997 37.066002"></path></g></g></g><g id="g-root-tx__1d3ndjni2wnbf-stroke" data-item-order="0" transform="translate(177, 519)"></g><g id="g-root-tx__1um6qtvi2y1os-stroke" data-item-order="0" transform="translate(345, 519)"></g><g id="g-root-tx__1uuadzni2zhfy-stroke" data-item-order="0" transform="translate(135, 555)"></g><g id="g-root-tx_napkinai_mfgvo3i2zhn0-stroke" data-item-order="0" transform="translate(165, 33)"></g><g id="g-root-thri_qpodhvi2lg5k-stroke" data-item-order="0" transform="translate(150, 396)"><g id="thri_qpodhvi2lg5k-stroke" fill="none" stroke-linecap="round" stroke-linejoin="round" stroke-miterlimit="4" stroke="#e0cb15" stroke-width="2"><g><path d="M 10.875 31C 10.875 42.114731 19.885269 51.125 31 51.125C 42.114731 51.125 51.125 42.114731 51.125 31C 51.125 19.885269 42.114731 10.875 31 10.875C 19.885269 10.875 10.875 19.885269 10.875 31ZM 37.777752 37.125C 38.319145 37.124187 38.830433 37.374004 39.16251 37.801598C 39.494587 38.229191 39.610058 38.786407 39.47525 39.310753C 38.482094 43.179932 34.994614 45.885288 31 45.885288C 27.005386 45.885288 23.517908 43.179932 22.52475 39.310753C 22.389942 38.786407 22.505413 38.229191 22.83749 37.801598C 23.169567 37.374004 23.680855 37.124187 24.22225 37.125ZM 42.899998 27.688999C 42.145466 26.48266 40.82288 25.749916 39.399998 25.749916C 37.977123 25.749916 36.654537 26.48266 35.900002 27.688999M 26.625 27.688999C 25.870464 26.48266 24.547876 25.749916 23.125 25.749916C 21.702124 25.749916 20.379536 26.48266 19.625 27.688999"></path></g></g></g></g></g></svg>