<svg xmlns="http://www.w3.org/2000/svg" width="801" height="312" viewBox="632 338 801 312"><defs><marker id="a" stroke-linejoin="miter" stroke-miterlimit="10" color="#666" markerHeight="6" markerUnits="strokeWidth" markerWidth="7" orient="auto" overflow="visible" viewBox="-1 -3 7 6"><path fill="currentColor" stroke="currentColor" d="M4.8 0 0-1.8v3.6Z"/></marker></defs><g fill="none"><path fill="#fff" d="M632 338h801v312H632z"/><path fill="#fff" d="M632 338.487h800.5v311.026H632z"/><path fill="#fff" d="M1161 373.919h245a8 8 0 0 1 8 8v172.412a8 8 0 0 1-8 8h-245a8 8 0 0 1-8-8V381.919a8 8 0 0 1 8-8"/><path stroke="#000" stroke-linecap="round" stroke-linejoin="round" d="M1161 373.919h245a8 8 0 0 1 8 8v172.412a8 8 0 0 1-8 8h-245a8 8 0 0 1-8-8V381.919a8 8 0 0 1 8-8"/><text fill="#000" transform="translate(1158 378.919)"><tspan x="65.612" y="16" font-family="Helvetica Neue" font-size="16" xml:space="preserve">Egress Gateway</tspan></text><path fill="#fff" d="M669 355.5h384a8 8 0 0 1 8 8v261a8 8 0 0 1-8 8H669a8 8 0 0 1-8-8v-261a8 8 0 0 1 8-8"/><path stroke="#000" stroke-linecap="round" stroke-linejoin="round" d="M669 355.5h384a8 8 0 0 1 8 8v261a8 8 0 0 1-8 8H669a8 8 0 0 1-8-8v-261a8 8 0 0 1 8-8"/><text fill="#000" transform="translate(666 360.5)"><tspan x="180.032" y="16" font-family="Helvetica Neue" font-size="16" xml:space="preserve">Pod</tspan></text><path fill="#f0f0f0" d="M687.162 396.25H805a8 8 0 0 1 8 8V532a8 8 0 0 1-8 8H687.162a8 8 0 0 1-8-8V404.25a8 8 0 0 1 8-8"/><path stroke="#000" stroke-linecap="round" stroke-linejoin="round" d="M687.162 396.25H805a8 8 0 0 1 8 8V532a8 8 0 0 1-8 8H687.162a8 8 0 0 1-8-8V404.25a8 8 0 0 1 8-8"/><text fill="#000" transform="translate(684.162 401.25)"><tspan x="5.607" y="15" font-family="Helvetica Neue" font-size="16" xml:space="preserve">App Containerd</tspan></text><path fill="#f0f0f0" d="M850 396.25h184.224a8 8 0 0 1 8 8V532a8 8 0 0 1-8 8H850a8 8 0 0 1-8-8V404.25a8 8 0 0 1 8-8"/><path stroke="#000" stroke-linecap="round" stroke-linejoin="round" d="M850 396.25h184.224a8 8 0 0 1 8 8V532a8 8 0 0 1-8 8H850a8 8 0 0 1-8-8V404.25a8 8 0 0 1 8-8"/><text fill="#000" transform="translate(847 401.25)"><tspan x="67.856" y="15" font-family="Helvetica Neue" font-size="16" xml:space="preserve">Sidecar</tspan></text><path fill="#ffff80" d="M1183.388 427.279h200.224v28.448h-200.224z"/><text fill="#000" transform="translate(1188.388 432.279)"><tspan x="0" y="15" font-family="Helvetica Neue" font-size="16" xml:space="preserve">K8s Service ExternalName</tspan></text><path fill="#ffff80" d="M1183.388 471.529h177.2v28.448h-177.2z"/><text fill="#000" transform="translate(1188.388 476.529)"><tspan x="0" y="15" font-family="Helvetica Neue" font-size="16" xml:space="preserve">Outbound Traffic Policy</tspan></text><path fill="#ffff80" d="M1183.388 515.779h159.936v28.448h-159.936z"/><text fill="#000" transform="translate(1188.388 520.779)"><tspan x="0" y="15" font-family="Helvetica Neue" font-size="16" xml:space="preserve">Service Entry Misuse</tspan></text><path fill="#ffff80" d="M755.838 553.5h229.168v28.448H755.838z"/><text fill="#000" transform="translate(760.838 558.5)"><tspan x="0" y="15" font-family="Helvetica Neue" font-size="16" xml:space="preserve">NET_ADMIN/NET_RAW Abuse</tspan></text><path fill="#ffff80" d="M755.838 590h229.04v28.448h-229.04z"/><text fill="#000" transform="translate(760.838 595)"><tspan x="0" y="15" font-family="Helvetica Neue" font-size="16" xml:space="preserve">Traffic Redirection Annotations</tspan></text><path fill="#ffff80" d="M695.577 428.052h101.008v46.896H695.577z"/><text fill="#000" transform="translate(700.577 433.052)"><tspan x="15.28" y="15" font-family="Helvetica Neue" font-size="16" xml:space="preserve">Pod UID</tspan> <tspan x="0" y="33.448" font-family="Helvetica Neue" font-size="16" xml:space="preserve">1337 Misuse</tspan></text><path fill="#ffff80" d="M869.848 437.276h144.528v28.448H869.848z"/><text fill="#000" transform="translate(874.848 442.276)"><tspan x="0" y="15" font-family="Helvetica Neue" font-size="16" xml:space="preserve">EnvoyFilter Misuse</tspan></text><path fill="#ffff80" d="M859.448 474h165.328v46.896H859.448z"/><text fill="#000" transform="translate(864.448 479)"><tspan x="0" y="15" font-family="Helvetica Neue" font-size="16" xml:space="preserve">outboundTrafficPolicy</tspan> <tspan x="29.952" y="33.448" font-family="Helvetica Neue" font-size="16" xml:space="preserve">ALLOW_ANY</tspan></text><path stroke="#666" stroke-linecap="round" stroke-linejoin="round" stroke-width="2" marker-end="url(#a)" d="M813 468.125h16.1"/><path stroke="#666" stroke-linecap="round" stroke-linejoin="round" stroke-width="2" marker-end="url(#a)" d="M1042.224 468.125h97.876"/></g></svg>