<svg xmlns="http://www.w3.org/2000/svg" xmlns:xl="http://www.w3.org/1999/xlink" width="532" height="262" version="1.1" viewBox="702 5193 532 262"><defs><marker id="FilledArrow_Marker" stroke-linejoin="miter" stroke-miterlimit="10" color="#666" markerHeight="8" markerUnits="strokeWidth" markerWidth="10" orient="auto" overflow="visible" viewBox="-1 -4 10 8"><g><path fill="currentColor" stroke="currentColor" stroke-width="1" d="M 8 0 L 0 -3 L 0 3 Z"/></g></marker><marker id="FilledArrow_Marker_2" stroke-linejoin="miter" stroke-miterlimit="10" color="#666" markerHeight="8" markerUnits="strokeWidth" markerWidth="10" orient="auto" overflow="visible" viewBox="-9 -4 10 8"><g><path fill="currentColor" stroke="currentColor" stroke-width="1" d="M -8 0 L 0 3 L 0 -3 Z"/></g></marker></defs><g id="Canvas_58" fill="none" fill-opacity="1" stroke="none" stroke-dasharray="none" stroke-opacity="1"><title>Canvas 58</title><rect width="532" height="262" x="702" y="5193" fill="#fff"/><g id="Canvas_58_Layer_1"><title>Layer 1</title><g id="Graphic_12"><path fill="#f6f6f6" d="M 879.6536 5210.079 L 1206.6457 5210.079 C 1211.064 5210.079 1214.6457 5213.6605 1214.6457 5218.079 L 1214.6457 5430.268 C 1214.6457 5434.686 1211.064 5438.268 1206.6457 5438.268 L 879.6536 5438.268 C 875.2353 5438.268 871.6536 5434.686 871.6536 5430.268 L 871.6536 5218.079 C 871.6536 5213.6605 875.2353 5210.079 879.6536 5210.079 Z"/><text fill="#000" transform="translate(881.6536 5219.079)"><tspan x="87.424" y="16" fill="#000" font-family="Helvetica Neue" font-size="16" font-weight="bold">Kubernetes Cluster</tspan></text></g><g id="Graphic_3"><path fill="#666" d="M 906.0157 5358.3306 L 1008.2204 5358.3306 C 1012.6387 5358.3306 1016.2204 5361.912 1016.2204 5366.3306 L 1016.2204 5400.5824 C 1016.2204 5405.0006 1012.6387 5408.5824 1008.2204 5408.5824 L 906.0157 5408.5824 C 901.5974 5408.5824 898.0157 5405.0006 898.0157 5400.5824 L 898.0157 5366.3306 C 898.0157 5361.912 901.5974 5358.3306 906.0157 5358.3306 Z"/><text fill="#fff" transform="translate(925.0157 5374.2325)"><tspan x="16.246" y="15" fill="#fff" font-family="Helvetica Neue" font-size="16">OPA</tspan></text></g><g id="Graphic_9"><path fill="#666" d="M 1076.0945 5259.685 L 1170.0787 5259.685 C 1174.497 5259.685 1178.0787 5263.2666 1178.0787 5267.685 L 1178.0787 5301.9367 C 1178.0787 5306.355 1174.497 5309.937 1170.0787 5309.937 L 1076.0945 5309.937 C 1071.6762 5309.937 1068.0945 5306.355 1068.0945 5301.9367 L 1068.0945 5267.685 C 1068.0945 5263.2666 1071.6762 5259.685 1076.0945 5259.685 Z"/><text fill="#fff" transform="translate(1095.0945 5275.587)"><tspan x="2.792" y="15" fill="#fff" font-family="Helvetica Neue" font-size="16">httpbin</tspan></text></g><g id="Graphic_10"><path fill="#666" d="M 906.0157 5259.685 L 1008.2204 5259.685 C 1012.6387 5259.685 1016.2204 5263.2666 1016.2204 5267.685 L 1016.2204 5301.9367 C 1016.2204 5306.355 1012.6387 5309.937 1008.2204 5309.937 L 906.0157 5309.937 C 901.5974 5309.937 898.0157 5306.355 898.0157 5301.9367 L 898.0157 5267.685 C 898.0157 5263.2666 901.5974 5259.685 906.0157 5259.685 Z"/><text fill="#fff" transform="translate(925.0157 5266.363)"><tspan x="6.174" y="15" fill="#fff" font-family="Helvetica Neue" font-size="16">Ingress </tspan> <tspan x=".558" y="33.448" fill="#fff" font-family="Helvetica Neue" font-size="16">Gateway</tspan></text></g><g id="Graphic_11"><path fill="#666" d="M 720.9134 5259.685 L 800.7244 5259.685 C 805.1427 5259.685 808.7244 5263.2666 808.7244 5267.685 L 808.7244 5301.9367 C 808.7244 5306.355 805.1427 5309.937 800.7244 5309.937 L 720.9134 5309.937 C 716.4951 5309.937 712.9134 5306.355 712.9134 5301.9367 L 712.9134 5267.685 C 712.9134 5263.2666 716.4951 5259.685 720.9134 5259.685 Z"/><text fill="#fff" transform="translate(739.9134 5275.587)"><tspan x=".169" y="15" fill="#fff" font-family="Helvetica Neue" font-size="16">Users</tspan></text></g><g id="Line_14"><line x1="818.624" x2="888.116" y1="5284.811" y2="5284.811" stroke="#666" stroke-linecap="round" stroke-linejoin="round" stroke-width="1" marker-end="url(#FilledArrow_Marker)" marker-start="url(#FilledArrow_Marker_2)"/></g><g id="Line_15"><line x1="1026.12" x2="1058.195" y1="5284.811" y2="5284.811" stroke="#666" stroke-linecap="round" stroke-linejoin="round" stroke-width="1" marker-end="url(#FilledArrow_Marker)" marker-start="url(#FilledArrow_Marker_2)"/></g><g id="Line_16"><line x1="957.118" x2="957.118" y1="5319.837" y2="5348.431" stroke="#666" stroke-linecap="round" stroke-linejoin="round" stroke-width="1" marker-end="url(#FilledArrow_Marker)" marker-start="url(#FilledArrow_Marker_2)"/></g><g id="Graphic_17"><text fill="#000" transform="translate(821.97755 5264.685)"><tspan x="0" y="11" fill="#000" font-family="Helvetica Neue" font-size="12">Request</tspan></text></g></g></g></svg>