<svg xmlns="http://www.w3.org/2000/svg" xmlns:xl="http://www.w3.org/1999/xlink" width="1106" height="726" version="1.1" viewBox="563 459 1106 726"><defs><marker id="FilledArrow_Marker" stroke-linejoin="miter" stroke-miterlimit="10" color="#000" markerHeight="6" markerUnits="strokeWidth" markerWidth="7" orient="auto" overflow="visible" viewBox="-1 -3 7 6"><g><path fill="currentColor" stroke="currentColor" stroke-width="1" d="M 4.8 0 L 0 -1.8 L 0 1.8 Z"/></g></marker></defs><g id="ambient-mode" fill="none" fill-opacity="1" stroke="none" stroke-dasharray="none" stroke-opacity="1"><title>ambient-mode</title><rect width="1106" height="726" x="563" y="459" fill="#fff"/><g id="ambient-mode_Layer_1"><title>Layer 1</title><g id="Graphic_23"><rect width="1105" height="726" x="563.563" y="459" fill="#fff"/></g><g id="Graphic_22"><rect width="223.563" height="526.854" x="1004.281" y="561.459" fill="#fbfbfb"/><path stroke="#000" stroke-dasharray="4 4" stroke-linecap="round" stroke-linejoin="round" stroke-width="1" d="M 1004.2812 561.4593 L 1227.8438 561.4593 L 1227.8438 1088.3136 L 1004.2812 1088.3136 Z"/><text fill="#000" transform="translate(1009.2812 1063.8494)"><tspan x="75.813" y="16" fill="#000" font-family="Helvetica Neue" font-size="16" xml:space="preserve">Network</tspan></text></g><g id="Graphic_12"><path fill="#f3f3f3" d="M 597.375 479 L 1020.125 479 C 1022.3341 479 1024.125 480.79086 1024.125 483 L 1024.125 1151 C 1024.125 1153.2091 1022.3341 1155 1020.125 1155 L 597.375 1155 C 595.16586 1155 593.375 1153.2091 593.375 1151 L 593.375 483 C 593.375 480.79086 595.16586 479 597.375 479 Z"/><path stroke="#000" stroke-linecap="round" stroke-linejoin="round" stroke-width="1" d="M 597.375 479 L 1020.125 479 C 1022.3341 479 1024.125 480.79086 1024.125 483 L 1024.125 1151 C 1024.125 1153.2091 1022.3341 1155 1020.125 1155 L 597.375 1155 C 595.16586 1155 593.375 1153.2091 593.375 1151 L 593.375 483 C 593.375 480.79086 595.16586 479 597.375 479 Z"/><text fill="#000" transform="translate(598.375 1130.5359)"><tspan x="391.102" y="16" fill="#000" font-family="Helvetica Neue" font-size="16" xml:space="preserve">AZ1</tspan></text></g><g id="Graphic_37"><title>Node</title><path fill="#fff" d="M 626.625 826 L 990.875 826 C 993.0841 826 994.875 827.7909 994.875 830 L 994.875 1112.5314 C 994.875 1114.7405 993.0841 1116.5314 990.875 1116.5314 L 626.625 1116.5314 C 624.41586 1116.5314 622.625 1114.7405 622.625 1112.5314 L 622.625 830 C 622.625 827.7909 624.41586 826 626.625 826 Z"/><path stroke="#a5a5a5" stroke-linecap="round" stroke-linejoin="round" stroke-width="1" d="M 626.625 826 L 990.875 826 C 993.0841 826 994.875 827.7909 994.875 830 L 994.875 1112.5314 C 994.875 1114.7405 993.0841 1116.5314 990.875 1116.5314 L 626.625 1116.5314 C 624.41586 1116.5314 622.625 1114.7405 622.625 1112.5314 L 622.625 830 C 622.625 827.7909 624.41586 826 626.625 826 Z"/><text fill="#000" transform="translate(627.625 1092.0673)"><tspan x="322.538" y="16" fill="#000" font-family="Helvetica Neue" font-size="16" xml:space="preserve">Node</tspan></text></g><g id="Graphic_10"><path fill="#d9d9d9" d="M 645 975.5729 L 972.5 975.5729 C 974.7091 975.5729 976.5 977.3637 976.5 979.5729 L 976.5 1085.4271 C 976.5 1087.6363 974.7091 1089.4271 972.5 1089.4271 L 645 1089.4271 C 642.79086 1089.4271 641 1087.6363 641 1085.4271 L 641 979.5729 C 641 977.3637 642.79086 975.5729 645 975.5729 Z"/><path stroke="#666" stroke-linecap="round" stroke-linejoin="round" stroke-width="1" d="M 645 975.5729 L 972.5 975.5729 C 974.7091 975.5729 976.5 977.3637 976.5 979.5729 L 976.5 1085.4271 C 976.5 1087.6363 974.7091 1089.4271 972.5 1089.4271 L 645 1089.4271 C 642.79086 1089.4271 641 1087.6363 641 1085.4271 L 641 979.5729 C 641 977.3637 642.79086 975.5729 645 975.5729 Z"/><text fill="#000" transform="translate(646 1064.963)"><tspan x="221.74" y="16" fill="#000" font-family="Helvetica Neue" font-size="16" xml:space="preserve">Pod (cgroups)</tspan></text></g><g id="Graphic_7"><title>Proxy</title><path fill="#f15623" d="M 686 992.9271 L 931.5 992.9271 C 933.7091 992.9271 935.5 994.718 935.5 996.9271 L 935.5 1056.9271 C 935.5 1059.1363 933.7091 1060.9271 931.5 1060.9271 L 686 1060.9271 C 683.7909 1060.9271 682 1059.1363 682 1056.9271 L 682 996.9271 C 682 994.718 683.7909 992.9271 686 992.9271 Z"/><text fill="#fff" transform="translate(687 1017.1951)"><tspan x="93.894" y="16" fill="#fff" font-family="Helvetica Neue" font-size="16" xml:space="preserve">Ztunnel</tspan></text></g><g id="Graphic_13"><path fill="#f3f3f3" d="M 1212 479.45725 L 1634.75 479.45725 C 1636.9591 479.45725 1638.75 481.2481 1638.75 483.45725 L 1638.75 1151 C 1638.75 1153.2091 1636.9591 1155 1634.75 1155 L 1212 1155 C 1209.7909 1155 1208 1153.2091 1208 1151 L 1208 483.45725 C 1208 481.2481 1209.7909 479.45725 1212 479.45725 Z"/><path stroke="#000" stroke-linecap="round" stroke-linejoin="round" stroke-width="1" d="M 1212 479.45725 L 1634.75 479.45725 C 1636.9591 479.45725 1638.75 481.2481 1638.75 483.45725 L 1638.75 1151 C 1638.75 1153.2091 1636.9591 1155 1634.75 1155 L 1212 1155 C 1209.7909 1155 1208 1153.2091 1208 1151 L 1208 483.45725 C 1208 481.2481 1209.7909 479.45725 1212 479.45725 Z"/><text fill="#000" transform="translate(1213 1130.5359)"><tspan x="391.102" y="16" fill="#000" font-family="Helvetica Neue" font-size="16" xml:space="preserve">AZ2</tspan></text></g><g id="Graphic_40"><title>Node</title><path fill="#fff" d="M 1241.25 502 L 1605.5 502 C 1607.7091 502 1609.5 503.79086 1609.5 506 L 1609.5 831 C 1609.5 833.2091 1607.7091 835 1605.5 835 L 1241.25 835 C 1239.0409 835 1237.25 833.2091 1237.25 831 L 1237.25 506 C 1237.25 503.79086 1239.0409 502 1241.25 502 Z"/><path stroke="#a5a5a5" stroke-linecap="round" stroke-linejoin="round" stroke-width="1" d="M 1241.25 502 L 1605.5 502 C 1607.7091 502 1609.5 503.79086 1609.5 506 L 1609.5 831 C 1609.5 833.2091 1607.7091 835 1605.5 835 L 1241.25 835 C 1239.0409 835 1237.25 833.2091 1237.25 831 L 1237.25 506 C 1237.25 503.79086 1239.0409 502 1241.25 502 Z"/><text fill="#000" transform="translate(1242.25 810.5359)"><tspan x="322.538" y="16" fill="#000" font-family="Helvetica Neue" font-size="16" xml:space="preserve">Node</tspan></text></g><g id="Graphic_16"><path fill="#d9d9d9" d="M 1259.625 515 L 1587.125 515 C 1589.3341 515 1591.125 516.79086 1591.125 519 L 1591.125 637.35425 C 1591.125 639.5634 1589.3341 641.35425 1587.125 641.35425 L 1259.625 641.35425 C 1257.4159 641.35425 1255.625 639.5634 1255.625 637.35425 L 1255.625 519 C 1255.625 516.79086 1257.4159 515 1259.625 515 Z"/><path stroke="#666" stroke-linecap="round" stroke-linejoin="round" stroke-width="1" d="M 1259.625 515 L 1587.125 515 C 1589.3341 515 1591.125 516.79086 1591.125 519 L 1591.125 637.35425 C 1591.125 639.5634 1589.3341 641.35425 1587.125 641.35425 L 1259.625 641.35425 C 1257.4159 641.35425 1255.625 639.5634 1255.625 637.35425 L 1255.625 519 C 1255.625 516.79086 1257.4159 515 1259.625 515 Z"/><text fill="#000" transform="translate(1260.625 616.89014)"><tspan x="221.74" y="16" fill="#000" font-family="Helvetica Neue" font-size="16" xml:space="preserve">Pod (cgroups)</tspan></text></g><g id="Graphic_15"><path fill="#000" d="M 1300.625 539.35425 L 1546.125 539.35425 C 1548.3341 539.35425 1550.125 541.1451 1550.125 543.35425 L 1550.125 603.35425 C 1550.125 605.5634 1548.3341 607.35425 1546.125 607.35425 L 1300.625 607.35425 C 1298.4159 607.35425 1296.625 605.5634 1296.625 603.35425 L 1296.625 543.35425 C 1296.625 541.1451 1298.4159 539.35425 1300.625 539.35425 Z"/><text fill="#fff" transform="translate(1301.625 563.6222)"><tspan x="35.054" y="16" fill="#fff" font-family="Helvetica Neue" font-size="16" xml:space="preserve">Application 2 Container</tspan></text></g><g id="Graphic_39"><title>Node</title><path fill="#fff" d="M 1241.25 939 L 1605.5 939 C 1607.7091 939 1609.5 940.7909 1609.5 943 L 1609.5 1118.8136 C 1609.5 1121.0227 1607.7091 1122.8136 1605.5 1122.8136 L 1241.25 1122.8136 C 1239.0409 1122.8136 1237.25 1121.0227 1237.25 1118.8136 L 1237.25 943 C 1237.25 940.7909 1239.0409 939 1241.25 939 Z"/><path stroke="#a5a5a5" stroke-linecap="round" stroke-linejoin="round" stroke-width="1" d="M 1241.25 939 L 1605.5 939 C 1607.7091 939 1609.5 940.7909 1609.5 943 L 1609.5 1118.8136 C 1609.5 1121.0227 1607.7091 1122.8136 1605.5 1122.8136 L 1241.25 1122.8136 C 1239.0409 1122.8136 1237.25 1121.0227 1237.25 1118.8136 L 1237.25 943 C 1237.25 940.7909 1239.0409 939 1241.25 939 Z"/><text fill="#000" transform="translate(1242.25 1098.3494)"><tspan x="322.538" y="16" fill="#000" font-family="Helvetica Neue" font-size="16" xml:space="preserve">Node</tspan></text></g><g id="Graphic_26"><path fill="#d9d9d9" d="M 645 839 L 972.5 839 C 974.7091 839 976.5 840.7909 976.5 843 L 976.5 948.8542 C 976.5 951.0634 974.7091 952.8542 972.5 952.8542 L 645 952.8542 C 642.79086 952.8542 641 951.0634 641 948.8542 L 641 843 C 641 840.7909 642.79086 839 645 839 Z"/><path stroke="#666" stroke-linecap="round" stroke-linejoin="round" stroke-width="1" d="M 645 839 L 972.5 839 C 974.7091 839 976.5 840.7909 976.5 843 L 976.5 948.8542 C 976.5 951.0634 974.7091 952.8542 972.5 952.8542 L 645 952.8542 C 642.79086 952.8542 641 951.0634 641 948.8542 L 641 843 C 641 840.7909 642.79086 839 645 839 Z"/><text fill="#000" transform="translate(646 928.3901)"><tspan x="221.74" y="16" fill="#000" font-family="Helvetica Neue" font-size="16" xml:space="preserve">Pod (cgroups)</tspan></text></g><g id="Graphic_25"><path fill="#4040ff" d="M 686 859.5 L 931.5 859.5 C 933.7091 859.5 935.5 861.2909 935.5 863.5 L 935.5 923.5 C 935.5 925.7091 933.7091 927.5 931.5 927.5 L 686 927.5 C 683.7909 927.5 682 925.7091 682 923.5 L 682 863.5 C 682 861.2909 683.7909 859.5 686 859.5 Z"/><text fill="#fff" transform="translate(687 883.7679)"><tspan x="35.054" y="16" fill="#fff" font-family="Helvetica Neue" font-size="16" xml:space="preserve">Application 1 Container</tspan></text></g><g id="Line_27"><line x1="808.75" x2="808.75" y1="927.5" y2="980.027" stroke="#000" stroke-linecap="round" stroke-linejoin="round" stroke-width="2" marker-end="url(#FilledArrow_Marker)"/></g><g id="Graphic_30"><path fill="#d9d9d9" d="M 1259.625 961.9593 L 1587.125 961.9593 C 1589.3341 961.9593 1591.125 963.7502 1591.125 965.9593 L 1591.125 1084.3136 C 1591.125 1086.5227 1589.3341 1088.3136 1587.125 1088.3136 L 1259.625 1088.3136 C 1257.4159 1088.3136 1255.625 1086.5227 1255.625 1084.3136 L 1255.625 965.9593 C 1255.625 963.7502 1257.4159 961.9593 1259.625 961.9593 Z"/><path stroke="#666" stroke-linecap="round" stroke-linejoin="round" stroke-width="1" d="M 1259.625 961.9593 L 1587.125 961.9593 C 1589.3341 961.9593 1591.125 963.7502 1591.125 965.9593 L 1591.125 1084.3136 C 1591.125 1086.5227 1589.3341 1088.3136 1587.125 1088.3136 L 1259.625 1088.3136 C 1257.4159 1088.3136 1255.625 1086.5227 1255.625 1084.3136 L 1255.625 965.9593 C 1255.625 963.7502 1257.4159 961.9593 1259.625 961.9593 Z"/><text fill="#000" transform="translate(1260.625 1063.8494)"><tspan x="221.74" y="16" fill="#000" font-family="Helvetica Neue" font-size="16" xml:space="preserve">Pod (cgroups)</tspan></text></g><g id="Graphic_29"><title>Proxy</title><path fill="#f15623" d="M 1300.625 992.2178 L 1546.125 992.2178 C 1548.3341 992.2178 1550.125 994.0087 1550.125 996.2178 L 1550.125 1056.2178 C 1550.125 1058.427 1548.3341 1060.2178 1546.125 1060.2178 L 1300.625 1060.2178 C 1298.4159 1060.2178 1296.625 1058.427 1296.625 1056.2178 L 1296.625 996.2178 C 1296.625 994.0087 1298.4159 992.2178 1300.625 992.2178 Z"/><text fill="#fff" transform="translate(1301.625 1016.4858)"><tspan x="63.654" y="16" fill="#fff" font-family="Helvetica Neue" font-size="16" xml:space="preserve">Waypoint Proxy</tspan></text></g><g id="Graphic_32"><path fill="#d9d9d9" d="M 1259.625 674 L 1587.125 674 C 1589.3341 674 1591.125 675.7909 1591.125 678 L 1591.125 796.35425 C 1591.125 798.5634 1589.3341 800.35425 1587.125 800.35425 L 1259.625 800.35425 C 1257.4159 800.35425 1255.625 798.5634 1255.625 796.35425 L 1255.625 678 C 1255.625 675.7909 1257.4159 674 1259.625 674 Z"/><path stroke="#666" stroke-linecap="round" stroke-linejoin="round" stroke-width="1" d="M 1259.625 674 L 1587.125 674 C 1589.3341 674 1591.125 675.7909 1591.125 678 L 1591.125 796.35425 C 1591.125 798.5634 1589.3341 800.35425 1587.125 800.35425 L 1259.625 800.35425 C 1257.4159 800.35425 1255.625 798.5634 1255.625 796.35425 L 1255.625 678 C 1255.625 675.7909 1257.4159 674 1259.625 674 Z"/><text fill="#000" transform="translate(1260.625 775.8901)"><tspan x="221.74" y="16" fill="#000" font-family="Helvetica Neue" font-size="16" xml:space="preserve">Pod (cgroups)</tspan></text></g><g id="Graphic_31"><title>Proxy</title><path fill="#f15623" d="M 1300.625 691.35425 L 1546.125 691.35425 C 1548.3341 691.35425 1550.125 693.1451 1550.125 695.35425 L 1550.125 755.35425 C 1550.125 757.5634 1548.3341 759.35425 1546.125 759.35425 L 1300.625 759.35425 C 1298.4159 759.35425 1296.625 757.5634 1296.625 755.35425 L 1296.625 695.35425 C 1296.625 693.1451 1298.4159 691.35425 1300.625 691.35425 Z"/><text fill="#fff" transform="translate(1301.625 715.6222)"><tspan x="93.894" y="16" fill="#fff" font-family="Helvetica Neue" font-size="16" xml:space="preserve">Ztunnel</tspan></text></g><g id="Line_34"><line x1="935.5" x2="1283.725" y1="1026.781" y2="1026.379" stroke="#000" stroke-linecap="round" stroke-linejoin="round" stroke-width="2" marker-end="url(#FilledArrow_Marker)"/></g><g id="Line_35"><line x1="1423.375" x2="1423.375" y1="992.218" y2="772.254" stroke="#000" stroke-linecap="round" stroke-linejoin="round" stroke-width="2" marker-end="url(#FilledArrow_Marker)"/></g><g id="Line_36"><line x1="1423.375" x2="1423.375" y1="691.354" y2="620.254" stroke="#000" stroke-linecap="round" stroke-linejoin="round" stroke-width="2" marker-end="url(#FilledArrow_Marker)"/></g><g id="Graphic_55"><title>Node</title><path fill="#fff" d="M 626.625 502 L 990.875 502 C 993.0841 502 994.875 503.79086 994.875 506 L 994.875 788.5314 C 994.875 790.7405 993.0841 792.5314 990.875 792.5314 L 626.625 792.5314 C 624.41586 792.5314 622.625 790.7405 622.625 788.5314 L 622.625 506 C 622.625 503.79086 624.41586 502 626.625 502 Z"/><path stroke="#a5a5a5" stroke-linecap="round" stroke-linejoin="round" stroke-width="1" d="M 626.625 502 L 990.875 502 C 993.0841 502 994.875 503.79086 994.875 506 L 994.875 788.5314 C 994.875 790.7405 993.0841 792.5314 990.875 792.5314 L 626.625 792.5314 C 624.41586 792.5314 622.625 790.7405 622.625 788.5314 L 622.625 506 C 622.625 503.79086 624.41586 502 626.625 502 Z"/><text fill="#000" transform="translate(627.625 768.0673)"><tspan x="322.538" y="16" fill="#000" font-family="Helvetica Neue" font-size="16" xml:space="preserve">Node</tspan></text></g><g id="Graphic_54"><path fill="#d9d9d9" d="M 645 651.5729 L 972.5 651.5729 C 974.7091 651.5729 976.5 653.3637 976.5 655.5729 L 976.5 761.4271 C 976.5 763.6363 974.7091 765.4271 972.5 765.4271 L 645 765.4271 C 642.79086 765.4271 641 763.6363 641 761.4271 L 641 655.5729 C 641 653.3637 642.79086 651.5729 645 651.5729 Z"/><path stroke="#666" stroke-linecap="round" stroke-linejoin="round" stroke-width="1" d="M 645 651.5729 L 972.5 651.5729 C 974.7091 651.5729 976.5 653.3637 976.5 655.5729 L 976.5 761.4271 C 976.5 763.6363 974.7091 765.4271 972.5 765.4271 L 645 765.4271 C 642.79086 765.4271 641 763.6363 641 761.4271 L 641 655.5729 C 641 653.3637 642.79086 651.5729 645 651.5729 Z"/><text fill="#000" transform="translate(646 740.963)"><tspan x="221.74" y="16" fill="#000" font-family="Helvetica Neue" font-size="16" xml:space="preserve">Pod (cgroups)</tspan></text></g><g id="Graphic_53"><title>Proxy</title><path fill="#f15623" d="M 686 668.9271 L 931.5 668.9271 C 933.7091 668.9271 935.5 670.718 935.5 672.9271 L 935.5 732.9271 C 935.5 735.1363 933.7091 736.9271 931.5 736.9271 L 686 736.9271 C 683.7909 736.9271 682 735.1363 682 732.9271 L 682 672.9271 C 682 670.718 683.7909 668.9271 686 668.9271 Z"/><text fill="#fff" transform="translate(687 693.1951)"><tspan x="93.894" y="16" fill="#fff" font-family="Helvetica Neue" font-size="16" xml:space="preserve">Ztunnel</tspan></text></g><g id="Graphic_52"><path fill="#d9d9d9" d="M 645 515 L 972.5 515 C 974.7091 515 976.5 516.79086 976.5 519 L 976.5 624.85425 C 976.5 627.0634 974.7091 628.85425 972.5 628.85425 L 645 628.85425 C 642.79086 628.85425 641 627.0634 641 624.85425 L 641 519 C 641 516.79086 642.79086 515 645 515 Z"/><path stroke="#666" stroke-linecap="round" stroke-linejoin="round" stroke-width="1" d="M 645 515 L 972.5 515 C 974.7091 515 976.5 516.79086 976.5 519 L 976.5 624.85425 C 976.5 627.0634 974.7091 628.85425 972.5 628.85425 L 645 628.85425 C 642.79086 628.85425 641 627.0634 641 624.85425 L 641 519 C 641 516.79086 642.79086 515 645 515 Z"/><text fill="#000" transform="translate(646 604.39014)"><tspan x="221.74" y="16" fill="#000" font-family="Helvetica Neue" font-size="16" xml:space="preserve">Pod (cgroups)</tspan></text></g><g id="Graphic_51"><path fill="#000" d="M 686 535.5 L 931.5 535.5 C 933.7091 535.5 935.5 537.29086 935.5 539.5 L 935.5 599.5 C 935.5 601.70914 933.7091 603.5 931.5 603.5 L 686 603.5 C 683.7909 603.5 682 601.70914 682 599.5 L 682 539.5 C 682 537.29086 683.7909 535.5 686 535.5 Z"/><text fill="#fff" transform="translate(687 559.76794)"><tspan x="35.054" y="16" fill="#fff" font-family="Helvetica Neue" font-size="16" xml:space="preserve">Application 2 Container</tspan></text></g><g id="Line_56"><path stroke="#000" stroke-linecap="round" stroke-linejoin="round" stroke-width="2" marker-end="url(#FilledArrow_Marker)" d="M 1422.0615 992.2178 C 1321.1857 918.5863 1239.203 847.3226 1065.7303 765.4271 C 1020.2991 743.9793 981.0749 729.47025 947.9131 719.7388"/></g><g id="Line_57"><line x1="808.75" x2="808.75" y1="668.927" y2="616.4" stroke="#000" stroke-linecap="round" stroke-linejoin="round" stroke-width="2" marker-end="url(#FilledArrow_Marker)"/></g></g></g></svg>