<?xml version="1.0" encoding="UTF-8" standalone="no"?>
<!DOCTYPE svg PUBLIC "-//W3C//DTD SVG 1.1//EN" "http://www.w3.org/Graphics/SVG/1.1/DTD/svg11.dtd">
<svg xmlns:xl="http://www.w3.org/1999/xlink" xmlns:dc="http://purl.org/dc/elements/1.1/" xmlns="http://www.w3.org/2000/svg" version="1.1" viewBox="364 235 887 575" width="887" height="575">
  <defs>
    <marker orient="auto" overflow="visible" markerUnits="strokeWidth" id="FilledArrow_Marker" stroke-linejoin="miter" stroke-miterlimit="10" viewBox="-1 -4 10 8" markerWidth="10" markerHeight="8" color="#b34400">
      <g>
        <path d="M 8 0 L 0 -3 L 0 3 Z" fill="currentColor" stroke="currentColor" stroke-width="1"/>
      </g>
    </marker>
    <marker orient="auto" overflow="visible" markerUnits="strokeWidth" id="FilledArrow_Marker_2" stroke-linejoin="miter" stroke-miterlimit="10" viewBox="-1 -4 10 8" markerWidth="10" markerHeight="8" color="#666">
      <g>
        <path d="M 8 0 L 0 -3 L 0 3 Z" fill="currentColor" stroke="currentColor" stroke-width="1"/>
      </g>
    </marker>
  </defs>
  <g id="architecture" stroke="none" fill="none" stroke-opacity="1" stroke-dasharray="none" fill-opacity="1">
    <title>architecture</title>
    <rect fill="white" x="364" y="235" width="887" height="575"/>
    <g id="architecture_Layer_1">
      <title>Layer 1</title>
      <g id="Graphic_53"/>
      <g id="Graphic_54">
        <path d="M 637.875 602.3596 L 826.625 602.3596 C 828.8341 602.3596 830.625 604.1505 830.625 606.3596 L 830.625 694.7774 C 830.625 696.9865 828.8341 698.7774 826.625 698.7774 L 637.875 698.7774 C 635.66586 698.7774 633.875 696.9865 633.875 694.7774 L 633.875 606.3596 C 633.875 604.1505 635.66586 602.3596 637.875 602.3596 Z" stroke="#a5a5a5" stroke-linecap="round" stroke-linejoin="round" stroke-dasharray="4.0,4.0" stroke-width="1"/>
        <text transform="translate(638.875 679.4414)" fill="#666">
          <tspan font-family="Helvetica Neue" font-size="12" fill="#666" x="12.789" y="11" xml:space="preserve">Deployment (not node-bound)</tspan>
        </text>
      </g>
      <g id="Graphic_24">
        <path d="M 392.75 259.25 L 564.25 259.25 C 566.45914 259.25 568.25 261.04086 568.25 263.25 L 568.25 543 C 568.25 545.20914 566.45914 547 564.25 547 L 392.75 547 C 390.54086 547 388.75 545.20914 388.75 543 L 388.75 263.25 C 388.75 261.04086 390.54086 259.25 392.75 259.25 Z" fill="#f2f2f2"/>
        <path d="M 392.75 259.25 L 564.25 259.25 C 566.45914 259.25 568.25 261.04086 568.25 263.25 L 568.25 543 C 568.25 545.20914 566.45914 547 564.25 547 L 392.75 547 C 390.54086 547 388.75 545.20914 388.75 543 L 388.75 263.25 C 388.75 261.04086 390.54086 259.25 392.75 259.25 Z" stroke="#a5a5a5" stroke-linecap="round" stroke-linejoin="round" stroke-width="1"/>
      </g>
      <g id="Graphic_19">
        <path d="M 646.5 259.25 L 818 259.25 C 820.2091 259.25 822 261.04086 822 263.25 L 822 543 C 822 545.20914 820.2091 547 818 547 L 646.5 547 C 644.29086 547 642.5 545.20914 642.5 543 L 642.5 263.25 C 642.5 261.04086 644.29086 259.25 646.5 259.25 Z" fill="#f2f2f2"/>
        <path d="M 646.5 259.25 L 818 259.25 C 820.2091 259.25 822 261.04086 822 263.25 L 822 543 C 822 545.20914 820.2091 547 818 547 L 646.5 547 C 644.29086 547 642.5 545.20914 642.5 543 L 642.5 263.25 C 642.5 261.04086 644.29086 259.25 646.5 259.25 Z" stroke="#a5a5a5" stroke-linecap="round" stroke-linejoin="round" stroke-width="1"/>
      </g>
      <g id="Graphic_22">
        <path d="M 900.25 259.25 L 1071.75 259.25 C 1073.9591 259.25 1075.75 261.04086 1075.75 263.25 L 1075.75 543 C 1075.75 545.20914 1073.9591 547 1071.75 547 L 900.25 547 C 898.0409 547 896.25 545.20914 896.25 543 L 896.25 263.25 C 896.25 261.04086 898.0409 259.25 900.25 259.25 Z" fill="#f2f2f2"/>
        <path d="M 900.25 259.25 L 1071.75 259.25 C 1073.9591 259.25 1075.75 261.04086 1075.75 263.25 L 1075.75 543 C 1075.75 545.20914 1073.9591 547 1071.75 547 L 900.25 547 C 898.0409 547 896.25 545.20914 896.25 543 L 896.25 263.25 C 896.25 261.04086 898.0409 259.25 900.25 259.25 Z" stroke="#a5a5a5" stroke-linecap="round" stroke-linejoin="round" stroke-width="1"/>
      </g>
      <g id="Line_36">
        <line x1="986" y1="336.25" x2="986" y2="520.44094" stroke="#666" stroke-linecap="round" stroke-linejoin="round" stroke-width="2"/>
      </g>
      <g id="Line_35">
        <line x1="732.25" y1="336.25" x2="732.25" y2="520.44094" stroke="#666" stroke-linecap="round" stroke-linejoin="round" stroke-width="2"/>
      </g>
      <g id="Line_34">
        <line x1="478.5" y1="336.25" x2="478.5" y2="520.44094" stroke="#666" stroke-linecap="round" stroke-linejoin="round" stroke-width="2"/>
      </g>
      <g id="Graphic_23">
        <path d="M 412.5 286.25 L 544.5 286.25 C 546.70914 286.25 548.5 288.04086 548.5 290.25 L 548.5 332.25 C 548.5 334.45914 546.70914 336.25 544.5 336.25 L 412.5 336.25 C 410.29086 336.25 408.5 334.45914 408.5 332.25 L 408.5 290.25 C 408.5 288.04086 410.29086 286.25 412.5 286.25 Z" fill="#666"/>
        <text transform="translate(413.5 302.026)" fill="white">
          <tspan font-family="Helvetica Neue" font-size="16" fill="white" x="42.92" y="15" xml:space="preserve">App A</tspan>
        </text>
      </g>
      <g id="Graphic_21">
        <path d="M 920 286.25 L 1052 286.25 C 1054.2091 286.25 1056 288.04086 1056 290.25 L 1056 332.25 C 1056 334.45914 1054.2091 336.25 1052 336.25 L 920 336.25 C 917.7909 336.25 916 334.45914 916 332.25 L 916 290.25 C 916 288.04086 917.7909 286.25 920 286.25 Z" fill="#666"/>
        <text transform="translate(921 302.026)" fill="white">
          <tspan font-family="Helvetica Neue" font-size="16" fill="white" x="42.624" y="15" xml:space="preserve">App B</tspan>
        </text>
      </g>
      <g id="Graphic_18">
        <path d="M 666.25 286.25 L 798.25 286.25 C 800.4591 286.25 802.25 288.04086 802.25 290.25 L 802.25 332.25 C 802.25 334.45914 800.4591 336.25 798.25 336.25 L 666.25 336.25 C 664.0409 336.25 662.25 334.45914 662.25 332.25 L 662.25 290.25 C 662.25 288.04086 664.0409 286.25 666.25 286.25 Z" fill="#666"/>
        <text transform="translate(667.25 302.026)" fill="white">
          <tspan font-family="Helvetica Neue" font-size="16" fill="white" x="42.92" y="15" xml:space="preserve">App A</tspan>
        </text>
      </g>
      <g id="Graphic_10">
        <path d="M 479.84535 520.674 L 537.9525 541.4265 C 540.0329 542.16954 541.1171 544.4584 540.3741 546.53884 C 539.97075 547.66826 539.0819 548.5571 537.9525 548.96046 L 479.84535 569.713 C 478.97536 570.0237 478.02464 570.0237 477.15465 569.713 L 419.0475 548.96046 C 416.96707 548.21745 415.88287 545.9286 416.6259 543.84815 C 417.02925 542.71873 417.9181 541.8299 419.0475 541.4265 L 477.15465 520.674 C 478.02464 520.36327 478.97536 520.36327 479.84535 520.674 Z" fill="#f05a26"/>
        <text transform="translate(413.5 535.9695)" fill="white">
          <tspan font-family="Helvetica Neue" font-size="16" fill="white" x="39.224" y="15" xml:space="preserve">ztunnel</tspan>
        </text>
      </g>
      <g id="Graphic_9">
        <path d="M 987.3453 520.674 L 1045.4525 541.4265 C 1047.5329 542.16954 1048.6171 544.4584 1047.8741 546.53884 C 1047.4707 547.66826 1046.5819 548.5571 1045.4525 548.96046 L 987.3453 569.713 C 986.4754 570.0237 985.5246 570.0237 984.6547 569.713 L 926.5475 548.96046 C 924.4671 548.21745 923.3829 545.9286 924.1259 543.84815 C 924.5293 542.71873 925.4181 541.8299 926.5475 541.4265 L 984.6547 520.674 C 985.5246 520.36327 986.4754 520.36327 987.3453 520.674 Z" fill="#f05a26"/>
        <text transform="translate(921 535.9695)" fill="white">
          <tspan font-family="Helvetica Neue" font-size="16" fill="white" x="39.224" y="15" xml:space="preserve">ztunnel</tspan>
        </text>
      </g>
      <g id="Graphic_8">
        <path d="M 733.59535 520.674 L 791.7025 541.4265 C 793.7829 542.16954 794.8671 544.4584 794.1241 546.53884 C 793.72075 547.66826 792.8319 548.5571 791.7025 548.96046 L 733.59535 569.713 C 732.7254 570.0237 731.7746 570.0237 730.90465 569.713 L 672.7975 548.96046 C 670.7171 548.21745 669.6329 545.9286 670.3759 543.84815 C 670.77925 542.71873 671.6681 541.8299 672.7975 541.4265 L 730.90465 520.674 C 731.7746 520.36327 732.7254 520.36327 733.59535 520.674 Z" fill="#f05a26"/>
        <text transform="translate(667.25 535.9695)" fill="white">
          <tspan font-family="Helvetica Neue" font-size="16" fill="white" x="39.224" y="15" xml:space="preserve">ztunnel</tspan>
        </text>
      </g>
      <g id="Graphic_6">
        <path d="M 412.5 443.25 L 544.5 443.25 C 546.70914 443.25 548.5 445.04086 548.5 447.25 L 548.5 489.25 C 548.5 491.45914 546.70914 493.25 544.5 493.25 L 412.5 493.25 C 410.29086 493.25 408.5 491.45914 408.5 489.25 L 408.5 447.25 C 408.5 445.04086 410.29086 443.25 412.5 443.25 Z" fill="#666"/>
        <text transform="translate(413.5 459.026)" fill="white">
          <tspan font-family="Helvetica Neue" font-size="16" fill="white" x="42.328" y="15" xml:space="preserve">App C</tspan>
        </text>
      </g>
      <g id="Graphic_5">
        <path d="M 412.5 364.75 L 544.5 364.75 C 546.70914 364.75 548.5 366.54086 548.5 368.75 L 548.5 410.75 C 548.5 412.95914 546.70914 414.75 544.5 414.75 L 412.5 414.75 C 410.29086 414.75 408.5 412.95914 408.5 410.75 L 408.5 368.75 C 408.5 366.54086 410.29086 364.75 412.5 364.75 Z" fill="#666"/>
        <text transform="translate(413.5 380.526)" fill="white">
          <tspan font-family="Helvetica Neue" font-size="16" fill="white" x="42.624" y="15" xml:space="preserve">App B</tspan>
        </text>
      </g>
      <g id="Graphic_3">
        <path d="M 920 366.3065 L 1052 366.3065 C 1054.2091 366.3065 1056 368.09736 1056 370.3065 L 1056 412.3065 C 1056 414.51564 1054.2091 416.3065 1052 416.3065 L 920 416.3065 C 917.7909 416.3065 916 414.51564 916 412.3065 L 916 370.3065 C 916 368.09736 917.7909 366.3065 920 366.3065 Z" fill="#666"/>
        <text transform="translate(921 382.0825)" fill="white">
          <tspan font-family="Helvetica Neue" font-size="16" fill="white" x="42.328" y="15" xml:space="preserve">App C</tspan>
        </text>
      </g>
      <g id="Graphic_26">
        <path d="M 666.25 366.3065 L 798.25 366.3065 C 800.4591 366.3065 802.25 368.09736 802.25 370.3065 L 802.25 412.3065 C 802.25 414.51564 800.4591 416.3065 798.25 416.3065 L 666.25 416.3065 C 664.0409 416.3065 662.25 414.51564 662.25 412.3065 L 662.25 370.3065 C 662.25 368.09736 664.0409 366.3065 666.25 366.3065 Z" fill="#666"/>
        <text transform="translate(667.25 382.0825)" fill="white">
          <tspan font-family="Helvetica Neue" font-size="16" fill="white" x="42.328" y="15" xml:space="preserve">App C</tspan>
        </text>
      </g>
      <g id="Graphic_33">
        <path d="M 666.25 607.385 L 798.25 607.385 C 800.4591 607.385 802.25 609.1758 802.25 611.385 L 802.25 653.385 C 802.25 655.5941 800.4591 657.385 798.25 657.385 L 666.25 657.385 C 664.0409 657.385 662.25 655.5941 662.25 653.385 L 662.25 611.385 C 662.25 609.1758 664.0409 607.385 666.25 607.385 Z" fill="#e14d59"/>
        <path d="M 666.25 607.385 L 798.25 607.385 C 800.4591 607.385 802.25 609.1758 802.25 611.385 L 802.25 653.385 C 802.25 655.5941 800.4591 657.385 798.25 657.385 L 666.25 657.385 C 664.0409 657.385 662.25 655.5941 662.25 653.385 L 662.25 611.385 C 662.25 609.1758 664.0409 607.385 666.25 607.385 Z" stroke="white" stroke-linecap="round" stroke-linejoin="round" stroke-width="1"/>
        <text transform="translate(667.25 623.161)" fill="white">
          <tspan font-family="Helvetica Neue" font-size="16" fill="white" x="8.848" y="15" xml:space="preserve">Waypoint Proxy</tspan>
        </text>
      </g>
      <g id="Line_37">
        <path d="M 986 569.94605 L 986 570.87964 L 985.742 570.87964 L 985.742 650.5685 L 830.625 650.5685" stroke="#666" stroke-linecap="round" stroke-linejoin="round" stroke-width="2"/>
      </g>
      <g id="Line_38">
        <path d="M 478.5 569.94605 L 478.5 580.94605 L 478.57214 599.05786 L 478.57214 650.5685 L 633.875 650.5685" stroke="#666" stroke-linecap="round" stroke-linejoin="round" stroke-width="2"/>
      </g>
      <g id="Graphic_42">
        <path d="M 582.0625 754.137 L 882.4375 754.137 C 884.6466 754.137 886.4375 755.92785 886.4375 758.137 L 886.4375 800.137 C 886.4375 802.3461 884.6466 804.137 882.4375 804.137 L 582.0625 804.137 C 579.85336 804.137 578.0625 802.3461 578.0625 800.137 L 578.0625 758.137 C 578.0625 755.92785 579.85336 754.137 582.0625 754.137 Z" fill="#f05a26"/>
        <text transform="translate(583.0625 769.913)" fill="white">
          <tspan font-family="Helvetica Neue" font-size="16" fill="white" x="129.4835" y="15" xml:space="preserve">Istiod</tspan>
        </text>
      </g>
      <g id="Line_44">
        <path d="M 828.7361 754.137 C 881.9618 737.38695 944.4019 712.2804 980.5 679 C 1023.3012 639.53964 1017.0859 599.63556 1005.049 573.804" marker-end="url(#FilledArrow_Marker)" stroke="#b34400" stroke-linecap="round" stroke-linejoin="round" stroke-width="1"/>
      </g>
      <g id="Line_45">
        <path d="M 653.6938 754.137 C 598.4035 734.2808 527.3996 703.7852 487.5 667 C 447.22835 629.87176 449.2523 596.1165 458.82224 573.6067" marker-end="url(#FilledArrow_Marker)" stroke="#b34400" stroke-linecap="round" stroke-linejoin="round" stroke-width="1"/>
      </g>
      <g id="Graphic_48">
        <text transform="translate(1131.1 621)" fill="black">
          <tspan font-family="Helvetica Neue" font-size="16" fill="black" x="16.288" y="15" xml:space="preserve">Waypoint</tspan>
          <tspan font-family="Helvetica Neue" font-size="16" fill="black" x="0" y="33.448" xml:space="preserve">Proxy Overlay</tspan>
        </text>
      </g>
      <g id="Graphic_49">
        <text transform="translate(1126.5 535.9695)" fill="black">
          <tspan font-family="Helvetica Neue" font-size="16" fill="black" x="28.6" y="15" xml:space="preserve">ztunnel </tspan>
          <tspan font-family="Helvetica Neue" font-size="16" fill="black" x="19895197e-20" y="33.448" xml:space="preserve">Secure Overlay</tspan>
        </text>
      </g>
      <g id="Graphic_57">
        <path d="M 749 468.439 L 808.5 468.439 C 810.7091 468.439 812.5 470.22986 812.5 472.439 L 812.5 492.887 C 812.5 495.09613 810.7091 496.887 808.5 496.887 L 749 496.887 C 746.7909 496.887 745 495.09613 745 492.887 L 745 472.439 C 745 470.22986 746.7909 468.439 749 468.439 Z" fill="#e14d59"/>
        <text transform="translate(750 470.383)" fill="white">
          <tspan font-family="Helvetica Neue" font-size="10" fill="white" x="7.82" y="10" xml:space="preserve">Waypoint </tspan>
          <tspan font-family="Helvetica Neue" font-size="10" fill="white" x="15.975" y="22.28" xml:space="preserve">Proxy</tspan>
        </text>
      </g>
      <g id="Line_58">
        <line x1="732.25" y1="569.94605" x2="732.25" y2="602.3596" stroke="#666" stroke-linecap="round" stroke-linejoin="round" stroke-width="2"/>
      </g>
      <g id="Graphic_59">
        <path d="M 672.5 616 L 804.5 616 C 806.7091 616 808.5 617.79086 808.5 620 L 808.5 662 C 808.5 664.2091 806.7091 666 804.5 666 L 672.5 666 C 670.2909 666 668.5 664.2091 668.5 662 L 668.5 620 C 668.5 617.79086 670.2909 616 672.5 616 Z" fill="#e14d59"/>
        <path d="M 672.5 616 L 804.5 616 C 806.7091 616 808.5 617.79086 808.5 620 L 808.5 662 C 808.5 664.2091 806.7091 666 804.5 666 L 672.5 666 C 670.2909 666 668.5 664.2091 668.5 662 L 668.5 620 C 668.5 617.79086 670.2909 616 672.5 616 Z" stroke="white" stroke-linecap="round" stroke-linejoin="round" stroke-width="1"/>
        <text transform="translate(673.5 631.776)" fill="white">
          <tspan font-family="Helvetica Neue" font-size="16" fill="white" x="8.848" y="15" xml:space="preserve">Waypoint Proxy</tspan>
        </text>
      </g>
      <g id="Graphic_60">
        <path d="M 680.5 625.5685 L 812.5 625.5685 C 814.7091 625.5685 816.5 627.35936 816.5 629.5685 L 816.5 671.5685 C 816.5 673.7776 814.7091 675.5685 812.5 675.5685 L 680.5 675.5685 C 678.2909 675.5685 676.5 673.7776 676.5 671.5685 L 676.5 629.5685 C 676.5 627.35936 678.2909 625.5685 680.5 625.5685 Z" fill="#e14d59"/>
        <path d="M 680.5 625.5685 L 812.5 625.5685 C 814.7091 625.5685 816.5 627.35936 816.5 629.5685 L 816.5 671.5685 C 816.5 673.7776 814.7091 675.5685 812.5 675.5685 L 680.5 675.5685 C 678.2909 675.5685 676.5 673.7776 676.5 671.5685 L 676.5 629.5685 C 676.5 627.35936 678.2909 625.5685 680.5 625.5685 Z" stroke="white" stroke-linecap="round" stroke-linejoin="round" stroke-width="1"/>
        <text transform="translate(681.5 641.3445)" fill="white">
          <tspan font-family="Helvetica Neue" font-size="16" fill="white" x="8.848" y="15" xml:space="preserve">Waypoint Proxy</tspan>
        </text>
      </g>
      <g id="Line_61">
        <path d="M 809.0135 625.5685 C 822.5442 616.2669 833.7538 603.9547 836.8245 587.9672 C 842.4702 558.5739 818.9647 525.2985 800.1784 504.1616" marker-end="url(#FilledArrow_Marker_2)" stroke="#666" stroke-linecap="round" stroke-linejoin="round" stroke-dasharray="4.0,4.0" stroke-width="1"/>
      </g>
      <g id="Graphic_62">
        <rect x="771.8833" y="563.8931" width="131.33" height="22.28" fill="white"/>
        <text transform="translate(776.8833 568.8931)" fill="#666">
          <tspan font-family="Helvetica Neue" font-size="10" fill="#666" x="8668621e-19" y="10" xml:space="preserve">Possible on the same node</tspan>
        </text>
      </g>
      <g id="Line_64">
        <line x1="732.25" y1="754.137" x2="732.25" y2="708.6774" marker-end="url(#FilledArrow_Marker)" stroke="#b34400" stroke-linecap="round" stroke-linejoin="round" stroke-width="1"/>
      </g>
      <g id="Group_66">
        <title>Page-1</title>
        <g id="Group_67">
          <title>brackets-curly-thin-svgrepo-com</title>
          <g id="Graphic_68">
            <title>Shape</title>
            <path d="M 1112.8346 639.74626 C 1104.4823 639.74626 1104.0584 634.982 1104.0584 627.2089 C 1104.0584 620.5058 1104.0584 612.164 1092.7747 612.164 C 1092.0823 612.164 1091.521 612.7253 1091.521 613.41774 C 1091.521 614.11016 1092.0823 614.6715 1092.7747 614.6715 C 1101.127 614.6715 1101.5509 619.43575 1101.5509 627.2089 C 1101.5509 632.33585 1101.5506 638.4218 1106.6002 641 C 1101.5506 643.5782 1101.5509 649.66415 1101.5509 654.7911 C 1101.5509 662.56425 1101.127 667.3285 1092.7747 667.3285 C 1092.0823 667.3285 1091.521 667.8898 1091.521 668.58226 C 1091.521 669.2747 1092.0823 669.836 1092.7747 669.836 C 1104.0584 669.836 1104.0584 661.4942 1104.0584 654.7911 C 1104.0584 647.018 1104.4823 642.25374 1112.8346 642.25374 C 1113.527 642.25374 1114.0883 641.6924 1114.0883 641 C 1114.0883 640.3076 1113.527 639.74626 1112.8346 639.74626 Z" fill="black"/>
          </g>
        </g>
      </g>
      <g id="Group_69">
        <title>Page-1</title>
        <g id="Group_70">
          <title>brackets-curly-thin-svgrepo-com</title>
          <g id="Graphic_71">
            <title>Shape</title>
            <path d="M 1112.8346 559.55176 C 1104.4823 559.55176 1104.0584 554.7875 1104.0584 547.01437 C 1104.0584 540.3113 1104.0584 531.9695 1092.7747 531.9695 C 1092.0823 531.9695 1091.521 532.5308 1091.521 533.22324 C 1091.521 533.91566 1092.0823 534.477 1092.7747 534.477 C 1101.127 534.477 1101.5509 539.24125 1101.5509 547.01437 C 1101.5509 552.14135 1101.5506 558.2273 1106.6002 560.8055 C 1101.5506 563.3837 1101.5509 569.46964 1101.5509 574.5966 C 1101.5509 582.36975 1101.127 587.134 1092.7747 587.134 C 1092.0823 587.134 1091.521 587.6953 1091.521 588.38776 C 1091.521 589.0802 1092.0823 589.6415 1092.7747 589.6415 C 1104.0584 589.6415 1104.0584 581.29966 1104.0584 574.5966 C 1104.0584 566.8235 1104.4823 562.05924 1112.8346 562.05924 C 1113.527 562.05924 1114.0883 561.4979 1114.0883 560.8055 C 1114.0883 560.1131 1113.527 559.55176 1112.8346 559.55176 Z" fill="black"/>
          </g>
        </g>
      </g>
    </g>
  </g>
</svg>
