<?xml version="1.0" encoding="utf-8" standalone="yes"?>
<!DOCTYPE svg PUBLIC "-//W3C//DTD SVG 1.1//EN" "http://www.w3.org/Graphics/SVG/1.1/DTD/svg11.dtd">
<svg width="848" height="806" viewBox="0 0 848 806" style="fill:none;stroke:none;fill-rule:evenodd;clip-rule:evenodd;stroke-linecap:round;stroke-linejoin:round;stroke-miterlimit:1.5;" version="1.1" xmlns="http://www.w3.org/2000/svg" xmlns:xlink="http://www.w3.org/1999/xlink"><style id="fontImports">@import url("https://fonts.googleapis.com/css2?family=Roboto:wght@400;700&amp;display=block");</style><rect id="" x="0" y="0" width="848" height="806" style="fill: none;"></rect><g id="items" style="isolation: isolate"><g id="blend" style="mix-blend-mode: normal"><g id="g-root-tf_925apoab80sm-fill" data-item-order="-680184" transform="translate(-9, -9)"></g><g id="g-root-8.cu_sy_8djekab581v-fill" data-item-order="-222906" transform="translate(264.234375, 219)"></g><g id="g-root-7.cu_sy_1qdul4sab58ng-fill" data-item-order="-222902" transform="translate(201, 282.272705078125)"></g><g id="g-root-6.cu_sy_1lynk3gab569x-fill" data-item-order="-222898" transform="translate(201, 434.9990234375)"></g><g id="g-root-5.cu_sy_1d30jukab572m-fill" data-item-order="-222894" transform="translate(264.2642517089844, 512.8798828125)"></g><g id="g-root-4.cu_sy_18n71q4ab57uv-fill" data-item-order="-222890" transform="translate(416.97265625, 512.8798828125)"></g><g id="g-root-3.cu_sy_147djloab58n4-fill" data-item-order="-222886" transform="translate(495.65625, 435)"></g><g id="g-root-2.cu_sy_vcd0fwab56a1-fill" data-item-order="-222882" transform="translate(498.759765625, 282.265625)"></g><g id="g-root-1.cu_sy_qwjibgab572a-fill" data-item-order="-222878" transform="translate(417.01641845703125, 219)"></g><g id="g-root-0.cu_sy_i0wi2kab57uz-fill" data-item-order="-222874" transform="translate(321, 336)"></g><g id="g-root-tx__1qbz5vgabauby-fill" data-item-order="0" transform="translate(477, 699)"><g id="tx__1qbz5vgabauby-fill" stroke="none" fill="#484848"><g><text style="font: 20px Roboto, sans-serif; white-space: pre;" font-size="20px" font-family="Roboto, sans-serif"><tspan x="14" y="33.5" dominant-baseline="ideographic">支持多种策略以均</tspan><tspan x="34" y="57.5" dominant-baseline="ideographic">匀分配流量。</tspan></text></g></g></g><g id="g-root-3_18hkv3waatybr-fill" data-item-order="0" transform="translate(328, 249)"></g><g id="g-root-tx__hz12t8abatje-fill" data-item-order="0" transform="translate(687, 303)"><g id="tx__hz12t8abatje-fill" stroke="none" fill="#e0cb15"><g><text style="font: bold 20px Roboto, sans-serif; white-space: pre;" font-weight="bold" font-size="20px" font-family="Roboto, sans-serif"><tspan x="12" y="33.5" dominant-baseline="ideographic">动态配置</tspan></text></g></g></g><g id="g-root-tx_luawasm_v8m5x8abasy3-fill" data-item-order="0" transform="translate(15, 339)"><g id="tx_luawasm_v8m5x8abasy3-fill" stroke="none" fill="#484848"><g><text style="font: 20px Roboto, sans-serif; white-space: pre;" font-size="20px" font-family="Roboto, sans-serif"><tspan x="16.94" y="33.5" dominant-baseline="ideographic">通过 Lua 和 Wasm </tspan><tspan x="18.56" y="57.5" dominant-baseline="ideographic">支持自定义扩展。</tspan></text></g></g></g><g id="g-root-1_htew70aay51q-fill" data-item-order="0" transform="translate(237, 345)"></g><g id="g-root-tx_envoy_4g2vekab6kuk-fill" data-item-order="0" transform="translate(333, 39)"><g id="tx_envoy_4g2vekab6kuk-fill" stroke="none" fill="#484848"><g><text style="font: bold 20px Roboto, sans-serif; white-space: pre;" font-weight="bold" font-size="20px" font-family="Roboto, sans-serif"><tspan x="14.7" y="33.5" dominant-baseline="ideographic">Envoy 的核心功能</tspan></text></g></g></g><g id="g-root-slid_1cxege4aazk78-fill" data-item-order="0" transform="translate(555, 345)"></g><g id="g-root-tx__145i4ccabaubk-fill" data-item-order="0" transform="translate(645, 339)"><g id="tx__145i4ccabaubk-fill" stroke="none" fill="#484848"><g><text style="font: 20px Roboto, sans-serif; white-space: pre;" font-size="20px" font-family="Roboto, sans-serif"><tspan x="14" y="33.5" dominant-baseline="ideographic">允许实时更新设置</tspan><tspan x="34" y="57.5" dominant-baseline="ideographic">而无需重启。</tspan></text></g></g></g><g id="g-root-diam_1hf37gcabatq9-fill" data-item-order="0" transform="translate(369, 387)"></g><g id="g-root-tx_envoyio_quo324abasqp-fill" data-item-order="0" transform="translate(477, 135)"><g id="tx_envoyio_quo324abasqp-fill" stroke="none" fill="#484848"><g><text style="font: 20px Roboto, sans-serif; white-space: pre;" font-size="20px" font-family="Roboto, sans-serif"><tspan x="25.19" y="33.5" dominant-baseline="ideographic">Envoy 通过异步 </tspan><tspan x="17.8" y="57.5" dominant-baseline="ideographic">I/O 和并发连接管</tspan><tspan x="14" y="81.5" dominant-baseline="ideographic">理实现高吞吐量和</tspan><tspan x="54" y="105.5" dominant-baseline="ideographic">低延迟。</tspan></text></g></g></g><g id="g-root-tx_istio_18jg77gabauiy-fill" data-item-order="0" transform="translate(189, 135)"><g id="tx_istio_18jg77gabauiy-fill" stroke="none" fill="#484848"><g><text style="font: 20px Roboto, sans-serif; white-space: pre;" font-size="20px" font-family="Roboto, sans-serif"><tspan x="19.77" y="33.5" dominant-baseline="ideographic">在 Istio 中作为数</tspan><tspan x="14" y="57.5" dominant-baseline="ideographic">据平面代理优化流</tspan><tspan x="54" y="81.5" dominant-baseline="ideographic">量管理。</tspan></text></g></g></g><g id="g-root-tx__1qdul4sabatcd-fill" data-item-order="0" transform="translate(81, 471)"><g id="tx__1qdul4sabatcd-fill" stroke="none" fill="#e55753"><g><text style="font: bold 20px Roboto, sans-serif; white-space: pre;" font-weight="bold" font-size="20px" font-family="Roboto, sans-serif"><tspan x="14" y="33.5" dominant-baseline="ideographic">安全</tspan></text></g></g></g><g id="g-root-4_1qclq4cab0yyo-fill" data-item-order="0" transform="translate(237, 477)"></g><g id="g-root-2_zjg1ocaatxji-fill" data-item-order="0" transform="translate(555, 477)"></g><g id="g-root-tx__147djloabatc0-fill" data-item-order="0" transform="translate(687, 483)"><g id="tx__147djloabatc0-fill" stroke="none" fill="#de8431"><g><text style="font: bold 20px Roboto, sans-serif; white-space: pre;" font-weight="bold" font-size="20px" font-family="Roboto, sans-serif"><tspan x="12" y="33.5" dominant-baseline="ideographic">流量管理</tspan></text></g></g></g><g id="g-root-tx_tls_dhymikabas5g-fill" data-item-order="0" transform="translate(27, 507)"><g id="tx_tls_dhymikabas5g-fill" stroke="none" fill="#484848"><g><text style="font: 20px Roboto, sans-serif; white-space: pre;" font-size="20px" font-family="Roboto, sans-serif"><tspan x="15.77" y="33.5" dominant-baseline="ideographic">通过 TLS 和访问</tspan><tspan x="18" y="57.5" dominant-baseline="ideographic">控制确保数据安</tspan><tspan x="68" y="81.5" dominant-baseline="ideographic">全。</tspan></text></g></g></g><g id="g-root-tx__qvx18cabauwx-fill" data-item-order="0" transform="translate(525, 99)"><g id="tx__qvx18cabauwx-fill" stroke="none" fill="#3cc583"><g><text style="font: bold 20px Roboto, sans-serif; white-space: pre;" font-weight="bold" font-size="20px" font-family="Roboto, sans-serif"><tspan x="16" y="33.5" dominant-baseline="ideographic">高性能</tspan></text></g></g></g><g id="g-root-tx__18n71q4abasjr-fill" data-item-order="0" transform="translate(207, 99)"><g id="tx__18n71q4abasjr-fill" stroke="none" fill="#de58a9"><g><text style="font: bold 20px Roboto, sans-serif; white-space: pre;" font-weight="bold" font-size="20px" font-family="Roboto, sans-serif"><tspan x="16" y="33.5" dominant-baseline="ideographic">服务网格集成</tspan></text></g></g></g><g id="g-root-tx__1d154l8abasr3-fill" data-item-order="0" transform="translate(645, 519)"><g id="tx__1d154l8abasr3-fill" stroke="none" fill="#484848"><g><text style="font: 20px Roboto, sans-serif; white-space: pre;" font-size="20px" font-family="Roboto, sans-serif"><tspan x="14" y="33.5" dominant-baseline="ideographic">提供路由、重试和</tspan><tspan x="14" y="57.5" dominant-baseline="ideographic">速率限制等功能。</tspan></text></g></g></g><g id="g-root-sear_4gpfngab58nf-fill" data-item-order="0" transform="translate(328, 573)"></g><g id="g-root-2_1um6hdoab9e6e-fill" data-item-order="0" transform="translate(459, 573)"></g><g id="g-root-tx__8djekabasqs-fill" data-item-order="0" transform="translate(231, 663)"><g id="tx__8djekabasqs-fill" stroke="none" fill="#1eabda"><g><text style="font: bold 20px Roboto, sans-serif; white-space: pre;" font-weight="bold" font-size="20px" font-family="Roboto, sans-serif"><tspan x="12" y="33.5" dominant-baseline="ideographic">可观测性</tspan></text></g></g></g><g id="g-root-tx__4nkkfwabav4b-fill" data-item-order="0" transform="translate(519, 663)"><g id="tx__4nkkfwabav4b-fill" stroke="none" fill="#92bd39"><g><text style="font: bold 20px Roboto, sans-serif; white-space: pre;" font-weight="bold" font-size="20px" font-family="Roboto, sans-serif"><tspan x="12" y="33.5" dominant-baseline="ideographic">负载均衡</tspan></text></g></g></g><g id="g-root-tx__6i458abatqd-fill" data-item-order="0" transform="translate(189, 699)"><g id="tx__6i458abatqd-fill" stroke="none" fill="#484848"><g><text style="font: 20px Roboto, sans-serif; white-space: pre;" font-size="20px" font-family="Roboto, sans-serif"><tspan x="14" y="33.5" dominant-baseline="ideographic">提供监控、日志记</tspan><tspan x="24" y="57.5" dominant-baseline="ideographic">录和追踪工具。</tspan></text></g></g></g><g id="g-root-spee_hvwvp8ab80zp-fill" data-item-order="0" transform="translate(459, 249)"></g><g id="g-root-tx__1d2e2rgabauxa-fill" data-item-order="0" transform="translate(69, 303)"><g id="tx__1d2e2rgabauxa-fill" stroke="none" fill="#7f64ea"><g><text style="font: bold 20px Roboto, sans-serif; white-space: pre;" font-weight="bold" font-size="20px" font-family="Roboto, sans-serif"><tspan x="16" y="33.5" dominant-baseline="ideographic">扩展性</tspan></text></g></g></g><g id="g-root-tf_925apoab80sm-stroke" data-item-order="-680184" transform="translate(-9, -9)"></g><g id="g-root-8.cu_sy_8djekab581v-stroke" data-item-order="-222906" transform="translate(264.234375, 219)"><g id="8.cu_sy_8djekab581v-stroke" fill="none" stroke-linecap="round" stroke-linejoin="round" stroke-miterlimit="4" stroke="#de58a9" stroke-width="2"><g><path d="M 162.766 10L 162.7843 10L 162.7868 32.619C 162.789 53.0793 162.7912 73.5397 162.7952 94L 162.766 94C 151.2191 94 140.0184 95.4826 129.3441 98.2679L 142.1646 129.2194C 130.1367 131.8501 118.9524 136.7358 109.0769 143.411L 96.0883 112.0539C 86.3215 117.7815 77.3566 124.729 69.4027 132.687C 50.2617 113.5625 29.0971 92.3987 10 73.2959C 49.0908 34.1894 103.1035 10 162.766 10Z"></path></g></g></g><g id="g-root-7.cu_sy_1qdul4sab58ng-stroke" data-item-order="-222902" transform="translate(201, 282.272705078125)"><g id="7.cu_sy_1qdul4sab58ng-stroke" fill="none" stroke-linecap="round" stroke-linejoin="round" stroke-miterlimit="4" stroke="#7f64ea" stroke-width="2"><g><path d="M 73.2573 10C 34.1735 49.0877 10 103.085 10 162.7279L 94 162.7275C 94 151.1795 95.4829 139.9778 98.2687 129.3026L 131.4497 143.0466C 133.581 130.884 138.0017 119.5093 144.2511 109.383L 112.0555 96.0472C 117.7761 86.2927 124.7135 77.3382 132.6593 69.392L 73.2573 10Z"></path></g></g></g><g id="g-root-6.cu_sy_1lynk3gab569x-stroke" data-item-order="-222898" transform="translate(201, 434.9990234375)"><g id="6.cu_sy_1lynk3gab569x-stroke" fill="none" stroke-linecap="round" stroke-linejoin="round" stroke-miterlimit="4" stroke="#e55753" stroke-width="2"><g><path d="M 10 10C 10 69.6467 34.1766 123.6467 73.2649 162.735L 132.6621 103.3383C 124.7166 95.3928 117.7793 86.4392 112.0586 76.6857L 147.356 62.065C 140.5033 52.2946 135.4248 41.1889 132.5885 29.2158L 98.2703 43.4309C 95.4835 32.7538 94 21.5502 94 10L 10 10Z"></path></g></g></g><g id="g-root-5.cu_sy_1d30jukab572m-stroke" data-item-order="-222894" transform="translate(264.2642517089844, 512.8798828125)"><g id="5.cu_sy_1d30jukab572m-stroke" fill="none" stroke-linecap="round" stroke-linejoin="round" stroke-miterlimit="4" stroke="#1eabda" stroke-width="2"><g><path d="M 110.9991 10C 121.0219 16.4254 132.3177 21.0387 144.4241 23.3775L 129.3156 59.8526C 139.9807 62.6353 151.1711 64.1177 162.7074 64.1201C 162.7113 84.4042 162.7134 104.6883 162.7156 124.9724L 162.7181 148.1201C 103.078 148.1153 49.0845 123.9392 10 84.8542L 69.3977 25.458C 77.3457 33.406 86.3025 40.3452 96.0597 46.067L 110.9991 10Z"></path></g></g></g><g id="g-root-4.cu_sy_18n71q4ab57uv-stroke" data-item-order="-222890" transform="translate(416.97265625, 512.8798828125)"><g id="4.cu_sy_18n71q4ab57uv-stroke" fill="none" stroke-linecap="round" stroke-linejoin="round" stroke-miterlimit="4" stroke="#92bd39" stroke-width="2"><g><path d="M 43.4564 59.8507L 28.3486 23.3773C 40.455 21.0386 51.7508 16.4254 61.7737 10L 76.7114 46.0629C 86.4666 40.3414 95.4217 33.403 103.3683 25.4561C 123.1679 45.2545 142.9664 65.054 162.7647 84.8536C 123.6763 123.9429 69.6755 148.1203 10.0279 148.1203L 10.0107 148.1203L 10.0082 125.5088C 10.006 105.0459 10.0039 84.5831 10 64.1203L 10.0279 64.1203C 21.5772 64.1203 32.78 62.637 43.4564 59.8507ZM 10.2171 232.1203C 10.3249 232.1204 10.4326 232.1205 10.5403 232.1203L 10.0285 232.1203L 10.2171 232.1203Z"></path></g></g></g><g id="g-root-3.cu_sy_147djloab58n4-stroke" data-item-order="-222886" transform="translate(495.65625, 435)"><g id="3.cu_sy_147djloab58n4-stroke" fill="none" stroke-linecap="round" stroke-linejoin="round" stroke-miterlimit="4" stroke="#de8431" stroke-width="2"><g><path d="M 147.3442 10.0005C 147.3442 69.647 123.1678 123.6469 84.0797 162.7351L 24.6826 103.3383C 32.6294 95.3914 39.5677 86.4359 45.2889 76.6803L 10 62.0632C 16.8527 52.2927 21.931 41.187 24.7672 29.2138L 59.0756 43.4248C 61.8613 32.7495 63.3442 21.5479 63.3442 10L 147.3442 10.0005Z"></path></g></g></g><g id="g-root-2.cu_sy_vcd0fwab56a1-stroke" data-item-order="-222882" transform="translate(498.759765625, 282.265625)"><g id="2.cu_sy_vcd0fwab56a1-stroke" fill="none" stroke-linecap="round" stroke-linejoin="round" stroke-miterlimit="4" stroke="#e0cb15" stroke-width="2"><g><path d="M 144.24 162.7346C 144.2398 103.088 120.0632 49.0882 80.9751 10L 21.5781 69.397C 29.5257 77.3446 36.4646 86.301 42.1861 96.0576L 10 109.3895C 16.2494 119.5158 20.67 130.8906 22.8012 143.0532L 55.9721 129.3134C 58.7573 139.9876 60.2399 151.188 60.24 162.7347L 144.24 162.7346Z"></path></g></g></g><g id="g-root-1.cu_sy_qwjibgab572a-stroke" data-item-order="-222878" transform="translate(417.01641845703125, 219)"><g id="1.cu_sy_qwjibgab572a-stroke" fill="none" stroke-linecap="round" stroke-linejoin="round" stroke-miterlimit="4" stroke="#3cc583" stroke-width="2"><g><path d="M 10 10C 69.6404 10.0043 123.6342 34.1801 162.719 73.2649L 103.3222 132.662C 95.377 124.7169 86.4237 117.7798 76.6707 112.0592L 63.6843 143.411C 53.8089 136.7357 42.6245 131.85 30.5967 129.2192L 43.416 98.2706C 32.7485 95.4862 21.5553 94.0027 10.016 94L 10 10Z"></path></g></g></g><g id="g-root-0.cu_sy_i0wi2kab57uz-stroke" data-item-order="-222874" transform="translate(321, 336)"><g id="0.cu_sy_i0wi2kab57uz-stroke" fill="none" stroke-linecap="round" stroke-linejoin="round" stroke-miterlimit="4" stroke="#808080" stroke-width="2"><g><path d="M 202 106C 202 159.0193 159.0193 202 106 202C 52.9807 202 10 159.0193 10 106C 10 52.9807 52.9807 10 106 10C 159.0193 10 202 52.9807 202 106Z"></path></g></g></g><g id="g-root-tx__1qbz5vgabauby-stroke" data-item-order="0" transform="translate(477, 699)"></g><g id="g-root-3_18hkv3waatybr-stroke" data-item-order="0" transform="translate(328, 249)"><g id="3_18hkv3waatybr-stroke" fill="none" stroke-linecap="round" stroke-linejoin="round" stroke-miterlimit="4" stroke="#de58a9" stroke-width="2"><g><path d="M 30.5 49.498001L 13.5 49.498001C 12.395431 49.498001 11.5 48.60257 11.5 47.498001L 11.5 28C 11.5 26.89543 12.395431 26 13.5 26L 15.5 26M 33.5 25L 35.5 25C 36.604568 25 37.5 25.895432 37.5 27L 37.5 29M 24.5 11.002L 24.5 34.001999M 16 19.501999L 24.5 11.002M 33 19.501999L 24.5 11.002M 40.5 41.998001L 53.5 41.998001C 53.5 41.998001 56.5 41.998001 56.5 44.998001L 56.5 53.998001C 56.5 53.998001 56.5 56.998001 53.5 56.998001L 40.5 56.998001C 40.5 56.998001 37.5 56.998001 37.5 53.998001L 37.5 44.998001C 37.5 44.998001 37.5 41.998001 40.5 41.998001M 40 42.040001L 40 39C 40 35.13401 43.134007 32 47 32C 50.865993 32 54 35.13401 54 39L 54 42.040001M 44 49.498001L 46 51.498001L 50 47.498001"></path></g></g></g><g id="g-root-tx__hz12t8abatje-stroke" data-item-order="0" transform="translate(687, 303)"></g><g id="g-root-tx_luawasm_v8m5x8abasy3-stroke" data-item-order="0" transform="translate(15, 339)"></g><g id="g-root-1_htew70aay51q-stroke" data-item-order="0" transform="translate(237, 345)"><g id="1_htew70aay51q-stroke" fill="none" stroke-linecap="round" stroke-linejoin="round" stroke-miterlimit="4" stroke="#7f64ea" stroke-width="2"><g><path d="M 24.022858 14.08C 25.258335 15.286715 25.992985 16.915182 26.08 18.639999L 32.354286 12.4C 32.790134 11.91136 33.413795 11.631939 34.068573 11.631939C 34.723347 11.631939 35.347008 11.91136 35.782856 12.4L 40.857143 17.68C 40.13644 18.029476 39.476597 18.492525 38.902859 19.05143C 36.366226 21.841013 36.468044 26.131165 39.134155 28.797272C 41.800262 31.463381 46.090416 31.565199 48.879997 29.02857C 49.438904 28.454834 49.901951 27.794989 50.251427 27.074286L 55.600002 32.354286C 56.088642 32.790134 56.368061 33.413795 56.368061 34.068573C 56.368061 34.723347 56.088642 35.347008 55.600002 35.782856L 49.360001 41.920002C 53.124832 42.147659 56.03883 45.306301 55.962902 49.077248C 55.886978 52.84819 52.84819 55.886978 49.077248 55.962902C 45.306301 56.03883 42.147659 53.124832 41.920002 49.360001L 35.645714 55.600002C 35.209866 56.088642 34.586205 56.368061 33.931427 56.368061C 33.276653 56.368061 32.652992 56.088642 32.217144 55.600002L 27.142857 50.32C 27.86356 49.970524 28.523405 49.507477 29.097143 48.948574C 31.852257 46.174526 31.836906 41.692257 29.062859 38.937145C 26.288811 36.182034 21.806541 36.197384 19.05143 38.971432C 18.492525 39.545166 18.029476 40.205009 17.68 40.925716L 12.4 35.645714C 11.91136 35.209866 11.631939 34.586205 11.631939 33.931427C 11.631939 33.276653 11.91136 32.652992 12.4 32.217144L 18.639999 26.08C 16.915182 25.992985 15.286715 25.258335 14.08 24.022858C 11.335168 21.277073 11.335553 16.826168 14.080861 14.080861C 16.826168 11.335553 21.277073 11.335168 24.022856 14.08Z"></path></g></g></g><g id="g-root-tx_envoy_4g2vekab6kuk-stroke" data-item-order="0" transform="translate(333, 39)"></g><g id="g-root-slid_1cxege4aazk78-stroke" data-item-order="0" transform="translate(555, 345)"><g id="slid_1cxege4aazk78-stroke" fill="none" stroke-linecap="round" stroke-linejoin="round" stroke-miterlimit="4" stroke="#e0cb15" stroke-width="2"><g><path d="M 13 11.002L 55 11.002C 55 11.002 57 11.002 57 13.002L 57 55.001999C 57 55.001999 57 57.001999 55 57.001999L 13 57.001999C 13 57.001999 11 57.001999 11 55.001999L 11 13.002C 11 13.002 11 11.002 13 11.002M 22 23.001999C 22 26.315708 24.686291 29.002001 28 29.002001C 31.313709 29.002001 34 26.315708 34 23.002001C 34 19.688292 31.313709 17.002001 28 17.002001C 24.686291 17.002001 22 19.688292 22 23.002001M 35 45.001999C 35 48.315708 37.686295 51.002003 41 51.002003C 44.313709 51.002003 47 48.315708 47 45.002003C 47 41.688293 44.313709 39.001999 41 39.001999C 37.686295 39.001999 35 41.688293 35 45.002003M 35 45.001999L 17 45.001999M 51 45.001999L 47 45.001999M 34 23.001999L 51 23.001999M 17 23.001999L 22 23.001999M 28 22.501999C 28.276142 22.501999 28.5 22.725857 28.5 23.001999C 28.5 23.278141 28.276142 23.501999 28 23.501999C 27.723858 23.501999 27.5 23.278141 27.5 23.001999C 27.5 22.725857 27.723858 22.501999 28 22.501999M 41 44.501999C 41.276142 44.501999 41.5 44.725857 41.5 45.001999C 41.5 45.278141 41.276142 45.501999 41 45.501999C 40.723858 45.501999 40.5 45.278141 40.5 45.001999C 40.5 44.725857 40.723858 44.501999 41 44.501999"></path></g></g></g><g id="g-root-tx__145i4ccabaubk-stroke" data-item-order="0" transform="translate(645, 339)"></g><g id="g-root-diam_1hf37gcabatq9-stroke" data-item-order="0" transform="translate(369, 387)"><g id="diam_1hf37gcabatq9-stroke" fill="none" stroke-linecap="round" stroke-linejoin="round" stroke-miterlimit="4" stroke="#4e88e7" stroke-width="2"><g><path d="M 15.570126 52.811859L 52.808388 15.573596C 52.808388 15.573596 57.996536 10.385454 63.184681 15.573596L 100.422935 52.811852C 100.422935 52.811852 105.611084 58 100.422935 63.188148L 63.184681 100.426407C 63.184681 100.426407 57.996536 105.614548 52.808388 100.426399L 15.570126 63.188145C 15.570126 63.188145 10.381984 58 15.570126 52.811859M 47.714287 47.714287L 58 37.428574L 68.285713 47.714287M 47.714287 68.285713L 58 78.571426L 68.285713 68.285713"></path></g></g></g><g id="g-root-tx_envoyio_quo324abasqp-stroke" data-item-order="0" transform="translate(477, 135)"></g><g id="g-root-tx_istio_18jg77gabauiy-stroke" data-item-order="0" transform="translate(189, 135)"></g><g id="g-root-tx__1qdul4sabatcd-stroke" data-item-order="0" transform="translate(81, 471)"></g><g id="g-root-4_1qclq4cab0yyo-stroke" data-item-order="0" transform="translate(237, 477)"><g id="4_1qclq4cab0yyo-stroke" fill="none" stroke-linecap="round" stroke-linejoin="round" stroke-miterlimit="4" stroke="#e55753" stroke-width="2"><g><path d="M 35.234287 56.045715L 35.234287 56.045715C 34.439972 56.352219 33.560028 56.352219 32.765713 56.045715L 32.765713 56.045715C 20.077654 51.174545 11.706056 38.985279 11.714286 25.394285L 11.714286 16.445715C 11.710423 15.674867 12.211807 14.992427 12.948571 14.765715C 26.686428 10.68641 41.313572 10.68641 55.05143 14.765715C 55.788193 14.992427 56.289577 15.674867 56.285713 16.445715L 56.285713 25.394285C 56.293945 38.985279 47.922348 51.174545 35.234283 56.045712Z"></path></g></g></g><g id="g-root-2_zjg1ocaatxji-stroke" data-item-order="0" transform="translate(555, 477)"><g id="2_zjg1ocaatxji-stroke" fill="none" stroke-linecap="round" stroke-linejoin="round" stroke-miterlimit="4" stroke="#de8431" stroke-width="2"><g><path d="M 41.5 35C 41.5 37.761425 43.738575 40 46.5 40C 49.261425 40 51.5 37.761425 51.5 35C 51.5 32.238579 49.261425 30 46.5 30C 43.738575 30 41.5 32.238579 41.5 35M 41.5 52C 41.5 54.761425 43.738575 57 46.5 57C 49.261425 57 51.5 54.761425 51.5 52C 51.5 49.238575 49.261425 47 46.5 47C 43.738575 47 41.5 49.238575 41.5 52M 28.5 23L 28.5 48C 28.5 50.209141 30.290861 52 32.5 52L 41.5 52M 28.5 35L 41.5 35M 40.5 17C 40.5 20.313709 37.813709 23 34.5 23L 22.5 23C 19.186291 23 16.5 20.313709 16.5 17C 16.5 13.686292 19.186291 11 22.5 11L 34.5 11C 37.813709 11 40.5 13.686292 40.5 17Z"></path></g></g></g><g id="g-root-tx__147djloabatc0-stroke" data-item-order="0" transform="translate(687, 483)"></g><g id="g-root-tx_tls_dhymikabas5g-stroke" data-item-order="0" transform="translate(27, 507)"></g><g id="g-root-tx__qvx18cabauwx-stroke" data-item-order="0" transform="translate(525, 99)"></g><g id="g-root-tx__18n71q4abasjr-stroke" data-item-order="0" transform="translate(207, 99)"></g><g id="g-root-tx__1d154l8abasr3-stroke" data-item-order="0" transform="translate(645, 519)"></g><g id="g-root-sear_4gpfngab58nf-stroke" data-item-order="0" transform="translate(328, 573)"><g id="sear_4gpfngab58nf-stroke" fill="none" stroke-linecap="round" stroke-linejoin="round" stroke-miterlimit="4" stroke="#1eabda" stroke-width="2"><g><path d="M 13.796 45L 30 45.001999M 15.024 21L 52.992001 21M 32 33L 11.022 33M 32.756001 56.967999C 20.366718 56.285084 10.752442 45.897995 11.027528 33.492954C 11.302614 21.087917 21.367889 11.137227 33.775265 11.004185C 46.18264 10.871143 56.458973 20.603712 57 33M 32.538002 11.052C 20.538 24.052 20.756001 40.968002 32.756001 56.967999M 35.459999 11.052C 40.187622 15.962921 43.225529 22.253826 44.132 29.01M 35 44.057999C 35 49.060593 39.055405 53.115997 44.057999 53.115997C 49.060593 53.115997 53.115997 49.060593 53.115997 44.057999C 53.115997 39.055405 49.060593 35 44.057999 35C 39.055405 35 35 39.055405 35 44.057999ZM 57 57L 50.504002 50.504002"></path></g></g></g><g id="g-root-2_1um6hdoab9e6e-stroke" data-item-order="0" transform="translate(459, 573)"><g id="2_1um6hdoab9e6e-stroke" fill="none" stroke-linecap="round" stroke-linejoin="round" stroke-miterlimit="4" stroke="#92bd39" stroke-width="2"><g><path d="M 47 51L 47 31M 37 21C 37 26.522848 41.477154 31 47 31C 52.522846 31 57 26.522848 57 21C 57 15.477153 52.522846 11 47 11C 41.477154 11 37 15.477153 37 21M 12 51L 47 51L 47 51L 47 56C 47 56.552284 46.552284 57 46 57L 12 57C 11.447716 57 11 56.552284 11 56L 11 52C 11 51.447716 11.447716 51 12 51ZM 45.062 21C 45.062 22.104568 45.957432 23 47.062 23C 48.166569 23 49.062 22.104568 49.062 21C 49.062 19.895432 48.166569 19 47.062 19C 45.957432 19 45.062 19.895432 45.062 21M 48.262001 19.4L 51 15.75M 20 31L 20 29C 20.00659 26.793596 21.793596 25.00659 24 25L 26 25C 28.206404 25.00659 29.99341 26.793596 30 29L 30 31M 18 31L 18 47M 32 31L 32 47M 15 31L 35 31C 35 31 37 31 37 33L 37 45C 37 45 37 47 35 47L 15 47C 15 47 13 47 13 45L 13 33C 13 33 13 31 15 31"></path></g></g></g><g id="g-root-tx__8djekabasqs-stroke" data-item-order="0" transform="translate(231, 663)"></g><g id="g-root-tx__4nkkfwabav4b-stroke" data-item-order="0" transform="translate(519, 663)"></g><g id="g-root-tx__6i458abatqd-stroke" data-item-order="0" transform="translate(189, 699)"></g><g id="g-root-spee_hvwvp8ab80zp-stroke" data-item-order="0" transform="translate(459, 249)"><g id="spee_hvwvp8ab80zp-stroke" fill="none" stroke-linecap="round" stroke-linejoin="round" stroke-miterlimit="4" stroke="#3cc583" stroke-width="2"><g><path d="M 11 34C 11 46.702549 21.297451 57 34 57C 46.702549 57 57 46.702549 57 34C 57 21.297451 46.702549 11 34 11C 21.297451 11 11 21.297451 11 34M 31 34C 31 35.656853 32.343147 37 34 37C 35.656853 37 37 35.656853 37 34C 37 32.343147 35.656853 31 34 31C 32.343147 31 31 32.343147 31 34M 36.122002 31.879999L 46.02 21.98M 14.888 33L 18.888 33M 16.444 41.27L 20.142 39.739998M 51.551998 41.271999L 47.858002 39.739998M 52.998001 33L 49 32.998001M 51.551998 26.73L 47.858002 28.26M 42.532001 16.448L 41 20.139999M 35 15.37L 35 19.369999M 26.73 16.445999L 28.26 20.139999M 20.566 20.563999L 23.392 23.392M 16.448 26.728001L 20.142 28.26M 26 43L 42 43C 42 43 43 43 43 44L 43 48C 43 48 43 49 42 49L 26 49C 26 49 25 49 25 48L 25 44C 25 44 25 43 26 43"></path></g></g></g><g id="g-root-tx__1d2e2rgabauxa-stroke" data-item-order="0" transform="translate(69, 303)"></g></g></g></svg>