<svg xmlns="http://www.w3.org/2000/svg" xmlns:xl="http://www.w3.org/1999/xlink" width="725" height="339" version="1.1" viewBox="-239 715 725 339"><defs><marker id="FilledArrow_Marker" stroke-linejoin="miter" stroke-miterlimit="10" color="#666" markerHeight="6" markerUnits="strokeWidth" markerWidth="7" orient="auto" overflow="visible" viewBox="-1 -3 7 6"><g><path fill="currentColor" stroke="currentColor" stroke-width="1" d="M 4.8 0 L 0 -1.8 L 0 1.8 Z"/></g></marker></defs><g id="Canvas_1" fill="none" fill-opacity="1" stroke="none" stroke-dasharray="none" stroke-opacity="1"><title>Canvas 1</title><rect width="725" height="339" x="-239" y="715" fill="#fff"/><g id="Canvas_1_Layer_1"><title>Layer 1</title><g id="Graphic_21"><path fill="#f2f2f2" d="M -216 741 L -44.5 741 C -42.29086 741 -40.5 742.7909 -40.5 745 L -40.5 1024.75 C -40.5 1026.9591 -42.29086 1028.75 -44.5 1028.75 L -216 1028.75 C -218.20914 1028.75 -220 1026.9591 -220 1024.75 L -220 745 C -220 742.7909 -218.20914 741 -216 741 Z"/><path stroke="#a5a5a5" stroke-linecap="round" stroke-linejoin="round" stroke-width="1" d="M -216 741 L -44.5 741 C -42.29086 741 -40.5 742.7909 -40.5 745 L -40.5 1024.75 C -40.5 1026.9591 -42.29086 1028.75 -44.5 1028.75 L -216 1028.75 C -218.20914 1028.75 -220 1026.9591 -220 1024.75 L -220 745 C -220 742.7909 -218.20914 741 -216 741 Z"/><text fill="#000" transform="translate(-215 746)"><tspan x="64.894" y="16" fill="#000" font-family="Helvetica Neue" font-size="16" xml:space="preserve">Node</tspan></text></g><g id="Graphic_20"><path fill="#f2f2f2" d="M 37.75 873.5 L 209.25 873.5 C 211.45914 873.5 213.25 875.2909 213.25 877.5 L 213.25 987.75 C 213.25 989.9591 211.45914 991.75 209.25 991.75 L 37.75 991.75 C 35.54086 991.75 33.75 989.9591 33.75 987.75 L 33.75 877.5 C 33.75 875.2909 35.54086 873.5 37.75 873.5 Z"/><path stroke="#a5a5a5" stroke-linecap="round" stroke-linejoin="round" stroke-width="1" d="M 37.75 873.5 L 209.25 873.5 C 211.45914 873.5 213.25 875.2909 213.25 877.5 L 213.25 987.75 C 213.25 989.9591 211.45914 991.75 209.25 991.75 L 37.75 991.75 C 35.54086 991.75 33.75 989.9591 33.75 987.75 L 33.75 877.5 C 33.75 875.2909 35.54086 873.5 37.75 873.5 Z"/><text fill="#000" transform="translate(38.75 878.5)"><tspan x="64.894" y="16" fill="#000" font-family="Helvetica Neue" font-size="16" xml:space="preserve">Node</tspan></text></g><g id="Graphic_19"><path fill="#f2f2f2" d="M 291.5 741 L 463 741 C 465.20914 741 467 742.7909 467 745 L 467 1024.75 C 467 1026.9591 465.20914 1028.75 463 1028.75 L 291.5 1028.75 C 289.29086 1028.75 287.5 1026.9591 287.5 1024.75 L 287.5 745 C 287.5 742.7909 289.29086 741 291.5 741 Z"/><path stroke="#a5a5a5" stroke-linecap="round" stroke-linejoin="round" stroke-width="1" d="M 291.5 741 L 463 741 C 465.20914 741 467 742.7909 467 745 L 467 1024.75 C 467 1026.9591 465.20914 1028.75 463 1028.75 L 291.5 1028.75 C 289.29086 1028.75 287.5 1026.9591 287.5 1024.75 L 287.5 745 C 287.5 742.7909 289.29086 741 291.5 741 Z"/><text fill="#000" transform="translate(292.5 746)"><tspan x="64.894" y="16" fill="#000" font-family="Helvetica Neue" font-size="16" xml:space="preserve">Node</tspan></text></g><g id="Line_18"><line x1="377.25" x2="377.25" y1="928.361" y2="844.9" stroke="#666" stroke-linecap="round" stroke-linejoin="round" stroke-width="2" marker-end="url(#FilledArrow_Marker)"/></g><g id="Line_17"><line x1="-130.25" x2="-130.25" y1="832" y2="928.361" stroke="#666" stroke-linecap="round" stroke-linejoin="round" stroke-width="2"/></g><g id="Graphic_16"><path fill="#666" d="M -196.25 782 L -64.25 782 C -62.04086 782 -60.25 783.7909 -60.25 786 L -60.25 828 C -60.25 830.2091 -62.04086 832 -64.25 832 L -196.25 832 C -198.45914 832 -200.25 830.2091 -200.25 828 L -200.25 786 C -200.25 783.7909 -198.45914 782 -196.25 782 Z"/><text fill="#fff" transform="translate(-195.25 797.776)"><tspan x="43.072" y="15" fill="#fff" font-family="Helvetica Neue" font-size="16" xml:space="preserve">Pod A</tspan></text></g><g id="Graphic_15"><path fill="#666" d="M 311.25 782 L 443.25 782 C 445.45914 782 447.25 783.7909 447.25 786 L 447.25 828 C 447.25 830.2091 445.45914 832 443.25 832 L 311.25 832 C 309.04086 832 307.25 830.2091 307.25 828 L 307.25 786 C 307.25 783.7909 309.04086 782 311.25 782 Z"/><text fill="#fff" transform="translate(312.25 797.776)"><tspan x="42.776" y="15" fill="#fff" font-family="Helvetica Neue" font-size="16" xml:space="preserve">Pod B</tspan></text></g><g id="Graphic_14"><path fill="#f05a26" d="M -128.90465 928.5935 L -70.79751 949.346 C -68.71707 950.089 -67.63287 952.3779 -68.37589 954.4584 C -68.77925 955.5878 -69.66809 956.4766 -70.79751 956.88 L -128.90465 977.6325 C -129.77464 977.9432 -130.72536 977.9432 -131.59535 977.6325 L -189.7025 956.88 C -191.78293 956.137 -192.86713 953.8481 -192.12411 951.7677 C -191.72075 950.6382 -190.8319 949.7494 -189.7025 949.346 L -131.59535 928.5935 C -130.72536 928.2828 -129.77464 928.2828 -128.90465 928.5935 Z"/><text fill="#fff" transform="translate(-195.25 943.889)"><tspan x="37.888" y="15" fill="#fff" font-family="Helvetica Neue" font-size="16" xml:space="preserve">zTunnel</tspan></text></g><g id="Graphic_13"><path fill="#f05a26" d="M 378.59535 928.5935 L 436.7025 949.346 C 438.78293 950.089 439.86713 952.3779 439.1241 954.4584 C 438.72075 955.5878 437.8319 956.4766 436.7025 956.88 L 378.59535 977.6325 C 377.72536 977.9432 376.77464 977.9432 375.90465 977.6325 L 317.7975 956.88 C 315.71707 956.137 314.63287 953.8481 315.3759 951.7677 C 315.77925 950.6382 316.6681 949.7494 317.7975 949.346 L 375.90465 928.5935 C 376.77464 928.2828 377.72536 928.2828 378.59535 928.5935 Z"/><text fill="#fff" transform="translate(312.25 943.889)"><tspan x="37.888" y="15" fill="#fff" font-family="Helvetica Neue" font-size="16" xml:space="preserve">zTunnel</tspan></text></g><g id="Graphic_12"><title>Rectangle</title><path fill="#f05a26" d="M 62.25 928.113 L 160.25 928.113 C 171.842 928.113 181.25 939.313 181.25 953.113 C 181.25 966.913 171.842 978.113 160.25 978.113 L 62.25 978.113 C 50.658 978.113 41.25 966.913 41.25 953.113 C 41.25 939.313 50.658 928.113 62.25 928.113 Z"/><path stroke="#fff" stroke-linecap="round" stroke-linejoin="round" stroke-width="1" d="M 62.25 928.113 L 160.25 928.113 C 171.842 928.113 181.25 939.313 181.25 953.113 C 181.25 966.913 171.842 978.113 160.25 978.113 L 62.25 978.113 C 50.658 978.113 41.25 966.913 41.25 953.113 C 41.25 939.313 50.658 928.113 62.25 928.113 Z"/><text fill="#fff" transform="translate(46.25 943.889)"><tspan x="8.848" y="15" fill="#fff" font-family="Helvetica Neue" font-size="16" xml:space="preserve">Waypoint Proxy</tspan></text></g><g id="Line_11"><line x1="-68.142" x2="-1.913" y1="953.113" y2="953.113" stroke="#666" stroke-linecap="round" stroke-linejoin="round" stroke-width="2" marker-end="url(#FilledArrow_Marker)"/></g><g id="Line_10"><line x1="235.987" x2="302.242" y1="953.113" y2="953.113" stroke="#666" stroke-linecap="round" stroke-linejoin="round" stroke-width="2" marker-end="url(#FilledArrow_Marker)"/></g><g id="Graphic_9"><text fill="#f05a26" transform="translate(303.071 987.5)"><tspan x="0" y="13" fill="#f05a26" font-family="Helvetica Neue" font-size="14" xml:space="preserve">Listening on port 15008</tspan></text></g><g id="Graphic_8"><text fill="#f05a26" transform="translate(-204.455 987.5)"><tspan x="0" y="13" fill="#f05a26" font-family="Helvetica Neue" font-size="14" xml:space="preserve">Listening on port 15008</tspan></text></g><g id="Graphic_7"><title>Rectangle</title><path fill="#f05a26" d="M 74.5 918.8065 L 172.5 918.8065 C 184.092 918.8065 193.5 930.0065 193.5 943.8065 C 193.5 957.6065 184.092 968.8065 172.5 968.8065 L 74.5 968.8065 C 62.908 968.8065 53.5 957.6065 53.5 943.8065 C 53.5 930.0065 62.908 918.8065 74.5 918.8065 Z"/><path stroke="#fff" stroke-linecap="round" stroke-linejoin="round" stroke-width="1" d="M 74.5 918.8065 L 172.5 918.8065 C 184.092 918.8065 193.5 930.0065 193.5 943.8065 C 193.5 957.6065 184.092 968.8065 172.5 968.8065 L 74.5 968.8065 C 62.908 968.8065 53.5 957.6065 53.5 943.8065 C 53.5 930.0065 62.908 918.8065 74.5 918.8065 Z"/><text fill="#fff" transform="translate(58.5 934.5825)"><tspan x="8.848" y="15" fill="#fff" font-family="Helvetica Neue" font-size="16" xml:space="preserve">Waypoint Proxy</tspan></text></g><g id="Graphic_6"><title>Rectangle</title><path fill="#f05a26" d="M 86.75 909.5 L 184.75 909.5 C 196.342 909.5 205.75 920.7 205.75 934.5 C 205.75 948.3 196.342 959.5 184.75 959.5 L 86.75 959.5 C 75.158 959.5 65.75 948.3 65.75 934.5 C 65.75 920.7 75.158 909.5 86.75 909.5 Z"/><path stroke="#fff" stroke-linecap="round" stroke-linejoin="round" stroke-width="1" d="M 86.75 909.5 L 184.75 909.5 C 196.342 909.5 205.75 920.7 205.75 934.5 C 205.75 948.3 196.342 959.5 184.75 959.5 L 86.75 959.5 C 75.158 959.5 65.75 948.3 65.75 934.5 C 65.75 920.7 75.158 909.5 86.75 909.5 Z"/><text fill="#fff" transform="translate(70.75 925.276)"><tspan x="8.848" y="15" fill="#fff" font-family="Helvetica Neue" font-size="16" xml:space="preserve">Waypoint Proxy</tspan></text></g><g id="Graphic_5"><path fill="#f2f2f2" d="M 37.75 741 L 209.25 741 C 211.45914 741 213.25 742.7909 213.25 745 L 213.25 855.25 C 213.25 857.4591 211.45914 859.25 209.25 859.25 L 37.75 859.25 C 35.54086 859.25 33.75 857.4591 33.75 855.25 L 33.75 745 C 33.75 742.7909 35.54086 741 37.75 741 Z"/><path stroke="#a5a5a5" stroke-linecap="round" stroke-linejoin="round" stroke-width="1" d="M 37.75 741 L 209.25 741 C 211.45914 741 213.25 742.7909 213.25 745 L 213.25 855.25 C 213.25 857.4591 211.45914 859.25 209.25 859.25 L 37.75 859.25 C 35.54086 859.25 33.75 857.4591 33.75 855.25 L 33.75 745 C 33.75 742.7909 35.54086 741 37.75 741 Z"/><text fill="#000" transform="translate(38.75 746)"><tspan x="64.894" y="16" fill="#000" font-family="Helvetica Neue" font-size="16" xml:space="preserve">Node</tspan></text></g><g id="Graphic_4"><title>Rectangle</title><path fill="#f05a26" d="M 74.5 782 L 172.5 782 C 184.092 782 193.5 793.2 193.5 807 C 193.5 820.8 184.092 832 172.5 832 L 74.5 832 C 62.908 832 53.5 820.8 53.5 807 C 53.5 793.2 62.908 782 74.5 782 Z"/><path stroke="#fff" stroke-linecap="round" stroke-linejoin="round" stroke-width="1" d="M 74.5 782 L 172.5 782 C 184.092 782 193.5 793.2 193.5 807 C 193.5 820.8 184.092 832 172.5 832 L 74.5 832 C 62.908 832 53.5 820.8 53.5 807 C 53.5 793.2 62.908 782 74.5 782 Z"/><text fill="#fff" transform="translate(58.5 797.776)"><tspan x="8.848" y="15" fill="#fff" font-family="Helvetica Neue" font-size="16" xml:space="preserve">Waypoint Proxy</tspan></text></g><g id="Graphic_3"><path stroke="#f05a26" stroke-dasharray="8 8" stroke-linecap="round" stroke-linejoin="round" stroke-width="2" d="M 11.987 771.5 L 234.987 771.5 L 234.987 1003.5 L 11.987 1003.5 Z"/></g><g id="Graphic_2"><text fill="#000" transform="translate(80.359 1011.5)"><tspan x="0" y="15" fill="#000" font-family="Helvetica Neue" font-size="16" xml:space="preserve">Deployment</tspan></text></g></g></g></svg>