<?xml version="1.0" encoding="UTF-8" standalone="no"?>
<!DOCTYPE svg PUBLIC "-//W3C//DTD SVG 1.1//EN" "http://www.w3.org/Graphics/SVG/1.1/DTD/svg11.dtd">
<svg xmlns:xl="http://www.w3.org/1999/xlink" xmlns:dc="http://purl.org/dc/elements/1.1/" xmlns="http://www.w3.org/2000/svg" version="1.1" viewBox="806 465 1381 1090" width="1381" height="1090">
  <defs>
    <marker orient="auto" overflow="visible" markerUnits="strokeWidth" id="FilledArrow_Marker" stroke-linejoin="miter" stroke-miterlimit="10" viewBox="-1 -3 7 6" markerWidth="7" markerHeight="6" color="#456bb0">
      <g>
        <path d="M 4.8 0 L 0 -1.8 L 0 1.8 Z" fill="currentColor" stroke="currentColor" stroke-width="1"/>
      </g>
    </marker>
  </defs>
  <g id="Ambient_Mesh_Ztunnel_L4" stroke="none" fill="none" stroke-opacity="1" stroke-dasharray="none" fill-opacity="1">
    <title>Ambient Mesh Ztunnel L4</title>
    <rect fill="white" x="806" y="465" width="1381" height="1090"/>
    <g id="Ambient_Mesh_Ztunnel_L4_Layer_2">
      <title>Layer 2</title>
      <g id="Graphic_326">
        <rect x="806.4567" y="465.59056" width="1380.4724" height="1089.2126" fill="white"/>
      </g>
      <g id="Graphic_325">
        <path d="M 1580.063 488.9764 L 2138.9921 488.9764 C 2141.2013 488.9764 2142.9921 490.76723 2142.9921 492.9764 L 2142.9921 1521.0394 C 2142.9921 1523.2485 2141.2013 1525.0394 2138.9921 1525.0394 L 1580.063 1525.0394 C 1577.8539 1525.0394 1576.063 1523.2485 1576.063 1521.0394 L 1576.063 492.9764 C 1576.063 490.76723 1577.8539 488.9764 1580.063 488.9764 Z" stroke="#a5a5a5" stroke-linecap="round" stroke-linejoin="round" stroke-width="1"/>
        <text transform="translate(1581.063 1500.5753)" fill="black">
          <tspan font-family="Helvetica Neue" font-weight="bold" font-size="16" fill="black" x="0" y="16" xml:space="preserve">Node B</tspan>
        </text>
      </g>
      <g id="Graphic_324">
        <path d="M 864.315 488.9764 L 1423.2441 488.9764 C 1425.4532 488.9764 1427.2441 490.76723 1427.2441 492.9764 L 1427.2441 1521.0394 C 1427.2441 1523.2485 1425.4532 1525.0394 1423.2441 1525.0394 L 864.315 1525.0394 C 862.1058 1525.0394 860.315 1523.2485 860.315 1521.0394 L 860.315 492.9764 C 860.315 490.76723 862.1058 488.9764 864.315 488.9764 Z" stroke="#a5a5a5" stroke-linecap="round" stroke-linejoin="round" stroke-width="1"/>
        <text transform="translate(865.315 1500.5753)" fill="black">
          <tspan font-family="Helvetica Neue" font-weight="bold" font-size="16" fill="black" x="0" y="16" xml:space="preserve">Node A</tspan>
        </text>
      </g>
      <g id="Graphic_323">
        <title>ztunnel a pod</title>
        <path d="M 896.9134 807.6325 L 1390.6457 807.6325 C 1392.8548 807.6325 1394.6457 809.4234 1394.6457 811.6325 L 1394.6457 1306.6404 C 1394.6457 1308.8495 1392.8548 1310.6404 1390.6457 1310.6404 L 896.9134 1310.6404 C 894.7043 1310.6404 892.9134 1308.8495 892.9134 1306.6404 L 892.9134 811.6325 C 892.9134 809.4234 894.7043 807.6325 896.9134 807.6325 Z" fill="#fffef3"/>
        <path d="M 896.9134 807.6325 L 1390.6457 807.6325 C 1392.8548 807.6325 1394.6457 809.4234 1394.6457 811.6325 L 1394.6457 1306.6404 C 1394.6457 1308.8495 1392.8548 1310.6404 1390.6457 1310.6404 L 896.9134 1310.6404 C 894.7043 1310.6404 892.9134 1308.8495 892.9134 1306.6404 L 892.9134 811.6325 C 892.9134 809.4234 894.7043 807.6325 896.9134 807.6325 Z" stroke="#a5a5a5" stroke-linecap="round" stroke-linejoin="round" stroke-width="1"/>
        <text transform="translate(897.9134 1286.1763)" fill="black">
          <tspan font-family="Helvetica Neue" font-weight="bold" font-size="16" fill="black" x="0" y="16" xml:space="preserve">Ztunnel Pod</tspan>
        </text>
      </g>
      <g id="Graphic_322">
        <path d="M 1614.7874 711.4961 L 2108.5197 711.4961 C 2110.7288 711.4961 2112.5197 713.2869 2112.5197 715.4961 L 2112.5197 1159.1913 C 2112.5197 1161.4004 2110.7288 1163.1913 2108.5197 1163.1913 L 1614.7874 1163.1913 C 1612.5783 1163.1913 1610.7874 1161.4004 1610.7874 1159.1913 L 1610.7874 715.4961 C 1610.7874 713.2869 1612.5783 711.4961 1614.7874 711.4961 Z" fill="#fffef3"/>
        <path d="M 1614.7874 711.4961 L 2108.5197 711.4961 C 2110.7288 711.4961 2112.5197 713.2869 2112.5197 715.4961 L 2112.5197 1159.1913 C 2112.5197 1161.4004 2110.7288 1163.1913 2108.5197 1163.1913 L 1614.7874 1163.1913 C 1612.5783 1163.1913 1610.7874 1161.4004 1610.7874 1159.1913 L 1610.7874 715.4961 C 1610.7874 713.2869 1612.5783 711.4961 1614.7874 711.4961 Z" stroke="#a5a5a5" stroke-linecap="round" stroke-linejoin="round" stroke-width="1"/>
        <text transform="translate(1615.7874 1138.7271)" fill="black">
          <tspan font-family="Helvetica Neue" font-weight="bold" font-size="16" fill="black" x="0" y="16" xml:space="preserve">Ztunnel Pod</tspan>
        </text>
      </g>
      <g id="Graphic_321">
        <path d="M 950.7397 525.82677 L 1333.9208 525.82677 C 1336.13 525.82677 1337.9208 527.6176 1337.9208 529.82677 L 1337.9208 589.85826 C 1337.9208 592.0674 1336.13 593.85826 1333.9208 593.85826 L 950.7397 593.85826 C 948.5306 593.85826 946.7397 592.0674 946.7397 589.85826 L 946.7397 529.82677 C 946.7397 527.6176 948.5306 525.82677 950.7397 525.82677 Z" fill="#333"/>
        <path d="M 950.7397 525.82677 L 1333.9208 525.82677 C 1336.13 525.82677 1337.9208 527.6176 1337.9208 529.82677 L 1337.9208 589.85826 C 1337.9208 592.0674 1336.13 593.85826 1333.9208 593.85826 L 950.7397 593.85826 C 948.5306 593.85826 946.7397 592.0674 946.7397 589.85826 L 946.7397 529.82677 C 946.7397 527.6176 948.5306 525.82677 950.7397 525.82677 Z" stroke="gray" stroke-linecap="round" stroke-linejoin="round" stroke-width="1"/>
        <text transform="translate(951.7397 530.82677)" fill="white">
          <tspan font-family="Helvetica Neue" font-weight="bold" font-size="16" fill="white" x="167.77455" y="16" xml:space="preserve">Pod A</tspan>
        </text>
      </g>
      <g id="Graphic_318">
        <path d="M 952.189 900.3078 L 1335.3701 900.3078 C 1337.5792 900.3078 1339.3701 902.0986 1339.3701 904.3078 L 1339.3701 1237.2648 C 1339.3701 1239.4739 1337.5792 1241.2648 1335.3701 1241.2648 L 952.189 1241.2648 C 949.9798 1241.2648 948.189 1239.4739 948.189 1237.2648 L 948.189 904.3078 C 948.189 902.0986 949.9798 900.3078 952.189 900.3078 Z" fill="white"/>
        <path d="M 952.189 900.3078 L 1335.3701 900.3078 C 1337.5792 900.3078 1339.3701 902.0986 1339.3701 904.3078 L 1339.3701 1237.2648 C 1339.3701 1239.4739 1337.5792 1241.2648 1335.3701 1241.2648 L 952.189 1241.2648 C 949.9798 1241.2648 948.189 1239.4739 948.189 1237.2648 L 948.189 904.3078 C 948.189 902.0986 949.9798 900.3078 952.189 900.3078 Z" stroke="gray" stroke-linecap="round" stroke-linejoin="round" stroke-width="1"/>
        <text transform="translate(953.189 1216.8007)" fill="black">
          <tspan font-family="Helvetica Neue" font-weight="bold" font-size="16" fill="black" x="0" y="16" xml:space="preserve">istio-proxy</tspan>
        </text>
      </g>
      <g id="Graphic_314">
        <path d="M 1667.937 525.82677 L 2051.1181 525.82677 C 2053.3273 525.82677 2055.1181 527.6176 2055.1181 529.82677 L 2055.1181 589.85826 C 2055.1181 592.0674 2053.3273 593.85826 2051.1181 593.85826 L 1667.937 593.85826 C 1665.7279 593.85826 1663.937 592.0674 1663.937 589.85826 L 1663.937 529.82677 C 1663.937 527.6176 1665.7279 525.82677 1667.937 525.82677 Z" fill="#333"/>
        <path d="M 1667.937 525.82677 L 2051.1181 525.82677 C 2053.3273 525.82677 2055.1181 527.6176 2055.1181 529.82677 L 2055.1181 589.85826 C 2055.1181 592.0674 2053.3273 593.85826 2051.1181 593.85826 L 1667.937 593.85826 C 1665.7279 593.85826 1663.937 592.0674 1663.937 589.85826 L 1663.937 529.82677 C 1663.937 527.6176 1665.7279 525.82677 1667.937 525.82677 Z" stroke="gray" stroke-linecap="round" stroke-linejoin="round" stroke-width="1"/>
        <text transform="translate(1668.937 530.82677)" fill="white">
          <tspan font-family="Helvetica Neue" font-weight="bold" font-size="16" fill="white" x="167.62255" y="16" xml:space="preserve">Pod B</tspan>
        </text>
      </g>
      <g id="Graphic_312">
        <path d="M 1667.937 751.70945 L 2051.1181 751.70945 C 2053.3273 751.70945 2055.1181 753.5003 2055.1181 755.70945 L 2055.1181 947.4646 C 2055.1181 949.6738 2053.3273 951.4646 2051.1181 951.4646 L 1667.937 951.4646 C 1665.7279 951.4646 1663.937 949.6738 1663.937 947.4646 L 1663.937 755.70945 C 1663.937 753.5003 1665.7279 751.70945 1667.937 751.70945 Z" fill="white"/>
        <path d="M 1667.937 751.70945 L 2051.1181 751.70945 C 2053.3273 751.70945 2055.1181 753.5003 2055.1181 755.70945 L 2055.1181 947.4646 C 2055.1181 949.6738 2053.3273 951.4646 2051.1181 951.4646 L 1667.937 951.4646 C 1665.7279 951.4646 1663.937 949.6738 1663.937 947.4646 L 1663.937 755.70945 C 1663.937 753.5003 1665.7279 751.70945 1667.937 751.70945 Z" stroke="gray" stroke-linecap="round" stroke-linejoin="round" stroke-width="1"/>
        <text transform="translate(1668.937 927.0005)" fill="black">
          <tspan font-family="Helvetica Neue" font-weight="bold" font-size="16" fill="black" x="0" y="16" xml:space="preserve">istio-proxy</tspan>
        </text>
      </g>
      <g id="Graphic_311">
        <path d="M 1747.307 843.6435 L 1971.748 843.6435 C 1973.9572 843.6435 1975.748 845.4344 1975.748 847.6435 L 1975.748 874.6337 C 1975.748 876.8428 1973.9572 878.6337 1971.748 878.6337 L 1747.307 878.6337 C 1745.098 878.6337 1743.307 876.8428 1743.307 874.6337 L 1743.307 847.6435 C 1743.307 845.4344 1745.098 843.6435 1747.307 843.6435 Z" fill="#f05a26"/>
        <text transform="translate(1748.307 851.4065)" fill="white">
          <tspan font-family="Helvetica Neue" font-weight="bold" font-size="16" fill="white" x="14.188474" y="16" xml:space="preserve">Ztunnel_inbound Listener</tspan>
        </text>
      </g>
      <g id="Graphic_310">
        <path d="M 1747.307 783.1504 L 1971.748 783.1504 C 1973.9572 783.1504 1975.748 784.9413 1975.748 787.1504 L 1975.748 814.1406 C 1975.748 816.3497 1973.9572 818.1406 1971.748 818.1406 L 1747.307 818.1406 C 1745.098 818.1406 1743.307 816.3497 1743.307 814.1406 L 1743.307 787.1504 C 1743.307 784.9413 1745.098 783.1504 1747.307 783.1504 Z" fill="#f05a26"/>
        <text transform="translate(1748.307 790.9134)" fill="white">
          <tspan font-family="Helvetica Neue" font-weight="bold" font-size="16" fill="white" x="22.196474" y="16" xml:space="preserve">Virtual_inbound Cluster</tspan>
        </text>
      </g>
      <g id="Graphic_293">
        <path d="M 950.7397 1462.6772 L 1333.9208 1462.6772 C 1336.13 1462.6772 1337.9208 1464.468 1337.9208 1466.6772 L 1337.9208 1487.0236 C 1337.9208 1489.2328 1336.13 1491.0236 1333.9208 1491.0236 L 950.7397 1491.0236 C 948.5306 1491.0236 946.7397 1489.2328 946.7397 1487.0236 L 946.7397 1466.6772 C 946.7397 1464.468 948.5306 1462.6772 950.7397 1462.6772 Z" fill="#dadada"/>
        <path d="M 950.7397 1462.6772 L 1333.9208 1462.6772 C 1336.13 1462.6772 1337.9208 1464.468 1337.9208 1466.6772 L 1337.9208 1487.0236 C 1337.9208 1489.2328 1336.13 1491.0236 1333.9208 1491.0236 L 950.7397 1491.0236 C 948.5306 1491.0236 946.7397 1489.2328 946.7397 1487.0236 L 946.7397 1466.6772 C 946.7397 1464.468 948.5306 1462.6772 950.7397 1462.6772 Z" stroke="gray" stroke-linecap="round" stroke-linejoin="round" stroke-width="1"/>
        <text transform="translate(951.7397 1467.1184)" fill="black">
          <tspan font-family="Helvetica Neue" font-weight="bold" font-size="16" fill="black" x="173.99055" y="16" xml:space="preserve">eth0</tspan>
        </text>
      </g>
      <g id="Graphic_291">
        <path d="M 1096.8692 565.5118 L 1187.7913 565.5118 C 1190.0005 565.5118 1191.7913 567.3027 1191.7913 569.5118 L 1191.7913 589.85826 C 1191.7913 592.0674 1190.0005 593.85826 1187.7913 593.85826 L 1096.8692 593.85826 C 1094.66 593.85826 1092.8692 592.0674 1092.8692 589.85826 L 1092.8692 569.5118 C 1092.8692 567.3027 1094.66 565.5118 1096.8692 565.5118 Z" fill="#dadada"/>
        <text transform="translate(1097.8692 569.953)" fill="black">
          <tspan font-family="Helvetica Neue" font-weight="bold" font-size="16" fill="black" x="27.861086" y="16" xml:space="preserve">eth0</tspan>
        </text>
      </g>
      <g id="Graphic_277">
        <path d="M 1667.937 1462.5093 L 2051.1181 1462.5093 C 2053.3273 1462.5093 2055.1181 1464.3001 2055.1181 1466.5093 L 2055.1181 1487.0236 C 2055.1181 1489.2328 2053.3273 1491.0236 2051.1181 1491.0236 L 1667.937 1491.0236 C 1665.7279 1491.0236 1663.937 1489.2328 1663.937 1487.0236 L 1663.937 1466.5093 C 1663.937 1464.3001 1665.7279 1462.5093 1667.937 1462.5093 Z" fill="#dadada"/>
        <path d="M 1667.937 1462.5093 L 2051.1181 1462.5093 C 2053.3273 1462.5093 2055.1181 1464.3001 2055.1181 1466.5093 L 2055.1181 1487.0236 C 2055.1181 1489.2328 2053.3273 1491.0236 2051.1181 1491.0236 L 1667.937 1491.0236 C 1665.7279 1491.0236 1663.937 1489.2328 1663.937 1487.0236 L 1663.937 1466.5093 C 1663.937 1464.3001 1665.7279 1462.5093 1667.937 1462.5093 Z" stroke="gray" stroke-linecap="round" stroke-linejoin="round" stroke-width="1"/>
        <text transform="translate(1668.937 1467.0344)" fill="black">
          <tspan font-family="Helvetica Neue" font-weight="bold" font-size="16" fill="black" x="173.99055" y="16" xml:space="preserve">eth0</tspan>
        </text>
      </g>
      <g id="Graphic_275">
        <path d="M 1667.937 1057.805 L 2051.1181 1057.805 C 2053.3273 1057.805 2055.1181 1059.5959 2055.1181 1061.805 L 2055.1181 1111.5388 C 2055.1181 1113.748 2053.3273 1115.5388 2051.1181 1115.5388 L 1667.937 1115.5388 C 1665.7279 1115.5388 1663.937 1113.748 1663.937 1111.5388 L 1663.937 1061.805 C 1663.937 1059.5959 1665.7279 1057.805 1667.937 1057.805 Z" fill="#dadada"/>
        <path d="M 1667.937 1057.805 L 2051.1181 1057.805 C 2053.3273 1057.805 2055.1181 1059.5959 2055.1181 1061.805 L 2055.1181 1111.5388 C 2055.1181 1113.748 2053.3273 1115.5388 2051.1181 1115.5388 L 1667.937 1115.5388 C 1665.7279 1115.5388 1663.937 1113.748 1663.937 1111.5388 L 1663.937 1061.805 C 1663.937 1059.5959 1665.7279 1057.805 1667.937 1057.805 Z" stroke="gray" stroke-linecap="round" stroke-linejoin="round" stroke-width="1"/>
        <text transform="translate(1668.937 1067.7159)" fill="black">
          <tspan font-family="Helvetica Neue" font-weight="bold" font-size="16" fill="black" x="162.76655" y="16" xml:space="preserve">pistioin</tspan>
          <tspan font-family="Helvetica Neue" font-size="16" fill="black" x="139.43855" y="34.46411" xml:space="preserve">192.168.126.2</tspan>
        </text>
      </g>
      <g id="Graphic_273">
        <path d="M 1791.4724 923.1182 L 1854.2244 923.1182 C 1856.4335 923.1182 1858.2244 924.909 1858.2244 927.1182 L 1858.2244 947.4646 C 1858.2244 949.6738 1856.4335 951.4646 1854.2244 951.4646 L 1791.4724 951.4646 C 1789.2633 951.4646 1787.4724 949.6738 1787.4724 947.4646 L 1787.4724 927.1182 C 1787.4724 924.909 1789.2633 923.1182 1791.4724 923.1182 Z" fill="#f05a26"/>
        <text transform="translate(1792.4724 927.5593)" fill="white">
          <tspan font-family="Helvetica Neue" font-weight="bold" font-size="16" fill="white" x="8.135999" y="16" xml:space="preserve">15006</tspan>
        </text>
      </g>
      <g id="Graphic_268">
        <path d="M 1814.0665 565.5118 L 1904.9887 565.5118 C 1907.1978 565.5118 1908.9887 567.3027 1908.9887 569.5118 L 1908.9887 589.85826 C 1908.9887 592.0674 1907.1978 593.85826 1904.9887 593.85826 L 1814.0665 593.85826 C 1811.8574 593.85826 1810.0665 592.0674 1810.0665 589.85826 L 1810.0665 569.5118 C 1810.0665 567.3027 1811.8574 565.5118 1814.0665 565.5118 Z" fill="#dadada"/>
        <text transform="translate(1815.0665 569.953)" fill="black">
          <tspan font-family="Helvetica Neue" font-weight="bold" font-size="16" fill="black" x="27.861086" y="16" xml:space="preserve">eth0</tspan>
        </text>
      </g>
      <g id="Graphic_262">
        <path d="M 1862.2244 923.1182 L 1924.9764 923.1182 C 1927.1855 923.1182 1928.9764 924.909 1928.9764 927.1182 L 1928.9764 947.4646 C 1928.9764 949.6738 1927.1855 951.4646 1924.9764 951.4646 L 1862.2244 951.4646 C 1860.0153 951.4646 1858.2244 949.6738 1858.2244 947.4646 L 1858.2244 927.1182 C 1858.2244 924.909 1860.0153 923.1182 1862.2244 923.1182 Z" fill="#f05a26"/>
        <text transform="translate(1863.2244 927.5593)" fill="white">
          <tspan font-family="Helvetica Neue" font-weight="bold" font-size="16" fill="white" x="8.135999" y="16" xml:space="preserve">15008</tspan>
        </text>
      </g>
      <g id="Line_261">
        <path d="M 1859.5276 1057.805 L 1859.5276 1002.9542 L 1822.8484 1002.9542 L 1822.8484 951.4646" stroke="#456bb0" stroke-linecap="round" stroke-linejoin="round" stroke-width="2"/>
      </g>
      <g id="Line_260">
        <path d="M 1859.5276 1015.7748 L 1859.5276 1002.8293 L 1893.6004 1002.8293 L 1893.6004 951.4646" stroke="#456bb0" stroke-linecap="round" stroke-linejoin="round" stroke-width="2"/>
      </g>
      <g id="Graphic_259">
        <rect x="1864.5453" y="968.0416" width="58.11024" height="24.335999" fill="#fffef4"/>
        <text transform="translate(1869.5453 973.0416)" fill="black">
          <tspan font-family="Helvetica Neue" font-size="12" fill="black" x="13.387119" y="11" xml:space="preserve">TLS</tspan>
        </text>
      </g>
      <g id="Graphic_258">
        <rect x="1793.7933" y="967.5882" width="58.11024" height="24.335999" fill="#fffef4"/>
        <text transform="translate(1798.7933 972.5882)" fill="black">
          <tspan font-family="Helvetica Neue" font-size="12" fill="black" x="10.945119" y="11" xml:space="preserve">Plain</tspan>
        </text>
      </g>
      <g id="Line_257">
        <path d="M 1822.8484 923.1182 L 1822.8484 900.8759 L 1859.5276 900.8759 L 1859.5276 878.6337" stroke="#456bb0" stroke-linecap="round" stroke-linejoin="round" stroke-width="2"/>
      </g>
      <g id="Line_256">
        <path d="M 1893.6004 923.1182 L 1893.6004 900.8759 L 1859.5276 900.8759 L 1859.5276 878.6337" stroke="#456bb0" stroke-linecap="round" stroke-linejoin="round" stroke-width="2"/>
      </g>
      <g id="Line_327">
        <line x1="1142.3303" y1="593.85826" x2="1142.3303" y2="1462.6772" stroke="#456bb0" stroke-linecap="round" stroke-linejoin="round" stroke-width="2"/>
      </g>
      <g id="Line_328">
        <line x1="1859.5276" y1="1462.5093" x2="1859.5276" y2="1115.5388" stroke="#456bb0" stroke-linecap="round" stroke-linejoin="round" stroke-width="2"/>
      </g>
      <g id="Line_329">
        <line x1="1859.5276" y1="843.6435" x2="1859.5276" y2="606.7583" marker-end="url(#FilledArrow_Marker)" stroke="#456bb0" stroke-linecap="round" stroke-linejoin="round" stroke-width="2"/>
      </g>
      <g id="Graphic_313">
        <path d="M 1667.937 1230.6718 L 2051.1181 1230.6718 C 2053.3273 1230.6718 2055.1181 1232.4627 2055.1181 1234.6718 L 2055.1181 1284.4056 C 2055.1181 1286.6147 2053.3273 1288.4056 2051.1181 1288.4056 L 1667.937 1288.4056 C 1665.7279 1288.4056 1663.937 1286.6147 1663.937 1284.4056 L 1663.937 1234.6718 C 1663.937 1232.4627 1665.7279 1230.6718 1667.937 1230.6718 Z" fill="#dadada"/>
        <path d="M 1667.937 1230.6718 L 2051.1181 1230.6718 C 2053.3273 1230.6718 2055.1181 1232.4627 2055.1181 1234.6718 L 2055.1181 1284.4056 C 2055.1181 1286.6147 2053.3273 1288.4056 2051.1181 1288.4056 L 1667.937 1288.4056 C 1665.7279 1288.4056 1663.937 1286.6147 1663.937 1284.4056 L 1663.937 1234.6718 C 1663.937 1232.4627 1665.7279 1230.6718 1667.937 1230.6718 Z" stroke="gray" stroke-linecap="round" stroke-linejoin="round" stroke-width="1"/>
        <text transform="translate(1668.937 1240.5826)" fill="black">
          <tspan font-family="Helvetica Neue" font-weight="bold" font-size="16" fill="black" x="167.65455" y="16" xml:space="preserve">istioin</tspan>
          <tspan font-family="Helvetica Neue" font-size="16" fill="black" x="139.43855" y="34.46411" xml:space="preserve">192.168.126.1</tspan>
        </text>
      </g>
      <g id="Graphic_276">
        <path d="M 1667.937 1376.4166 L 2051.1181 1376.4166 C 2053.3273 1376.4166 2055.1181 1378.2075 2055.1181 1380.4166 L 2055.1181 1430.1504 C 2055.1181 1432.3595 2053.3273 1434.1504 2051.1181 1434.1504 L 1667.937 1434.1504 C 1665.7279 1434.1504 1663.937 1432.3595 1663.937 1430.1504 L 1663.937 1380.4166 C 1663.937 1378.2075 1665.7279 1376.4166 1667.937 1376.4166 Z" fill="#fffef3"/>
        <path d="M 1667.937 1376.4166 L 2051.1181 1376.4166 C 2053.3273 1376.4166 2055.1181 1378.2075 2055.1181 1380.4166 L 2055.1181 1430.1504 C 2055.1181 1432.3595 2053.3273 1434.1504 2051.1181 1434.1504 L 1667.937 1434.1504 C 1665.7279 1434.1504 1663.937 1432.3595 1663.937 1430.1504 L 1663.937 1380.4166 C 1663.937 1378.2075 1665.7279 1376.4166 1667.937 1376.4166 Z" stroke="gray" stroke-linecap="round" stroke-linejoin="round" stroke-width="1"/>
        <text transform="translate(1668.937 1386.3274)" fill="#f05a26">
          <tspan font-family="Helvetica Neue" font-weight="bold" font-size="16" fill="#f05a26" x="110.46255" y="16" xml:space="preserve">Istio CNI Node Agent</tspan>
          <tspan font-family="Helvetica Neue" font-size="16" fill="#f05a26" x="38.558546" y="34.46411" xml:space="preserve">Setup iptables rules and veth pair for node</tspan>
        </text>
      </g>
      <g id="Graphic_272">
        <rect x="1663.937" y="1015.7748" width="391.1811" height="24.335999" fill="#fffef4"/>
        <text transform="translate(1668.937 1018.7188)" fill="#f05a26">
          <tspan font-family="Helvetica Neue" font-size="16" fill="#f05a26" x="168.07055" y="15" xml:space="preserve">tproxy</tspan>
        </text>
      </g>
      <g id="Graphic_284">
        <path d="M 950.7397 1336.8845 L 1333.9208 1336.8845 C 1336.13 1336.8845 1337.9208 1338.6753 1337.9208 1340.8845 L 1337.9208 1361.231 C 1337.9208 1363.44 1336.13 1365.231 1333.9208 1365.231 L 950.7397 1365.231 C 948.5306 1365.231 946.7397 1363.44 946.7397 1361.231 L 946.7397 1340.8845 C 946.7397 1338.6753 948.5306 1336.8845 950.7397 1336.8845 Z" fill="#dadada"/>
        <path d="M 950.7397 1336.8845 L 1333.9208 1336.8845 C 1336.13 1336.8845 1337.9208 1338.6753 1337.9208 1340.8845 L 1337.9208 1361.231 C 1337.9208 1363.44 1336.13 1365.231 1333.9208 1365.231 L 950.7397 1365.231 C 948.5306 1365.231 946.7397 1363.44 946.7397 1361.231 L 946.7397 1340.8845 C 946.7397 1338.6753 948.5306 1336.8845 950.7397 1336.8845 Z" stroke="gray" stroke-linecap="round" stroke-linejoin="round" stroke-width="1"/>
        <text transform="translate(951.7397 1341.3256)" fill="black">
          <tspan font-family="Helvetica Neue" font-weight="bold" font-size="16" fill="black" x="161.39055" y="16" xml:space="preserve">vethxxx</tspan>
        </text>
      </g>
      <g id="Graphic_303">
        <path d="M 1031.5591 958.1307 L 1256 958.1307 C 1258.2092 958.1307 1260 959.9216 1260 962.1307 L 1260 982.4772 C 1260 984.6863 1258.2092 986.4772 1256 986.4772 L 1031.5591 986.4772 C 1029.3499 986.4772 1027.5591 984.6863 1027.5591 982.4772 L 1027.5591 962.1307 C 1027.5591 959.9216 1029.3499 958.1307 1031.5591 958.1307 Z" fill="#f05a26"/>
        <text transform="translate(1032.5591 962.5719)" fill="white">
          <tspan font-family="Helvetica Neue" font-weight="bold" font-size="16" fill="white" x="8.548474" y="16" xml:space="preserve">Ztunnel_outbound Listener</tspan>
        </text>
      </g>
      <g id="Graphic_302">
        <path d="M 1031.5591 1029.5366 L 1256 1029.5366 C 1258.2092 1029.5366 1260 1031.3274 1260 1033.5366 L 1260 1053.883 C 1260 1056.0922 1258.2092 1057.883 1256 1057.883 L 1031.5591 1057.883 C 1029.3499 1057.883 1027.5591 1056.0922 1027.5591 1053.883 L 1027.5591 1033.5366 C 1027.5591 1031.3274 1029.3499 1029.5366 1031.5591 1029.5366 Z" fill="#f05a26"/>
        <text transform="translate(1032.5591 1033.9778)" fill="white">
          <tspan font-family="Helvetica Neue" font-weight="bold" font-size="16" fill="white" x="45.436474" y="16" xml:space="preserve">Service A Cluster</tspan>
        </text>
      </g>
      <g id="Graphic_301">
        <path d="M 1031.5591 1100.9424 L 1256 1100.9424 C 1258.2092 1100.9424 1260 1102.7333 1260 1104.9424 L 1260 1125.2889 C 1260 1127.498 1258.2092 1129.2889 1256 1129.2889 L 1031.5591 1129.2889 C 1029.3499 1129.2889 1027.5591 1127.498 1027.5591 1125.2889 L 1027.5591 1104.9424 C 1027.5591 1102.7333 1029.3499 1100.9424 1031.5591 1100.9424 Z" fill="#f05a26"/>
        <text transform="translate(1032.5591 1105.3836)" fill="white">
          <tspan font-family="Helvetica Neue" font-weight="bold" font-size="16" fill="white" x="9.316474" y="16" xml:space="preserve">Internal Upstream Listener</tspan>
        </text>
      </g>
      <g id="Graphic_298">
        <path d="M 1031.5591 1172.3483 L 1256 1172.3483 C 1258.2092 1172.3483 1260 1174.1391 1260 1176.3483 L 1260 1196.6947 C 1260 1198.9039 1258.2092 1200.6947 1256 1200.6947 L 1031.5591 1200.6947 C 1029.3499 1200.6947 1027.5591 1198.9039 1027.5591 1196.6947 L 1027.5591 1176.3483 C 1027.5591 1174.1391 1029.3499 1172.3483 1031.5591 1172.3483 Z" fill="#f05a26"/>
        <text transform="translate(1032.5591 1176.7894)" fill="white">
          <tspan font-family="Helvetica Neue" font-weight="bold" font-size="16" fill="white" x="16.244474" y="16" xml:space="preserve">Outbound Tunnel Cluster</tspan>
        </text>
      </g>
      <g id="Graphic_287">
        <path d="M 1112.4035 900.3078 L 1175.1555 900.3078 C 1177.3647 900.3078 1179.1555 902.0986 1179.1555 904.3078 L 1179.1555 924.6542 C 1179.1555 926.8634 1177.3647 928.6542 1175.1555 928.6542 L 1112.4035 928.6542 C 1110.1944 928.6542 1108.4035 926.8634 1108.4035 924.6542 L 1108.4035 904.3078 C 1108.4035 902.0986 1110.1944 900.3078 1112.4035 900.3078 Z" fill="#f05a26"/>
        <text transform="translate(1113.4035 904.7489)" fill="white">
          <tspan font-family="Helvetica Neue" font-weight="bold" font-size="16" fill="white" x="8.135999" y="16" xml:space="preserve">15001</tspan>
        </text>
      </g>
      <g id="Graphic_299">
        <rect x="1020.7948" y="994.9207" width="243.07087" height="24.335999" fill="white"/>
        <text transform="translate(1025.7948 999.9207)" fill="black">
          <tspan font-family="Helvetica Neue" font-size="12" fill="black" x="7.173431" y="11" xml:space="preserve">Match the destination port and cluster IP</tspan>
        </text>
      </g>
      <g id="Graphic_295">
        <rect x="1020.7948" y="772.1257" width="243.07087" height="26.391998" fill="white"/>
        <text transform="translate(1025.7948 777.1257)" fill="#f05a26">
          <tspan font-family="Helvetica Neue" font-size="14" fill="#f05a26" x="71.41343" y="13" xml:space="preserve">Geneve tunnel</tspan>
        </text>
      </g>
      <g id="Graphic_294">
        <rect x="1121.0263" y="1072.5572" width="42.608" height="24.335999" fill="white"/>
        <text transform="translate(1126.0263 1077.5572)" fill="black">
          <tspan font-family="Helvetica Neue" font-size="12" fill="black" x="4.526001" y="11" xml:space="preserve">EDS</tspan>
        </text>
      </g>
      <g id="Graphic_288">
        <rect x="997.3623" y="665.1279" width="289.936" height="39.68408" fill="white"/>
        <text transform="translate(1002.3623 670.1279)" fill="#f05a26">
          <tspan font-family="Helvetica Neue" font-weight="bold" font-size="12" fill="#f05a26" x="34.992002" y="12" xml:space="preserve">iptables chain ztunnel-PREROUTING</tspan>
          <tspan font-family="Helvetica Neue" font-size="12" fill="#f05a26" x="89.946" y="26.348083" xml:space="preserve">mark 0x100/0x100</tspan>
        </text>
      </g>
      <g id="Graphic_286">
        <rect x="1073.9444" y="1141.2295" width="136.77165" height="24.335999" fill="white"/>
        <text transform="translate(1078.9444 1146.2295)" fill="black">
          <tspan font-family="Helvetica Neue" font-size="12" fill="black" x="10.933826" y="11" xml:space="preserve">HTTP Tunnel config</tspan>
        </text>
      </g>
      <g id="Graphic_271">
        <rect x="1714.5596" y="1309.2127" width="289.936" height="43.798096" fill="white"/>
        <text transform="translate(1719.5596 1314.2127)" fill="#f05a26">
          <tspan font-family="Helvetica Neue" font-weight="bold" font-size="14" fill="#f05a26" x="17.496002" y="14" xml:space="preserve">iptables chain ztunnel-PREROUTING</tspan>
          <tspan font-family="Helvetica Neue" font-size="14" fill="#f05a26" x="81.609" y="30.406097" xml:space="preserve">mark 0x200/0x200</tspan>
        </text>
      </g>
      <g id="Graphic_270">
        <rect x="1737.9921" y="1189.3184" width="243.07087" height="26.391998" fill="white"/>
        <text transform="translate(1742.9921 1194.3184)" fill="#f05a26">
          <tspan font-family="Helvetica Neue" font-size="14" fill="#f05a26" x="71.41343" y="13" xml:space="preserve">Geneve tunnel</tspan>
        </text>
      </g>
      <g id="Graphic_292">
        <rect x="946.7397" y="863.2731" width="391.1811" height="25.348083" fill="#fffef4"/>
        <text transform="translate(951.7397 866.7232)" fill="#f05a26">
          <tspan font-family="Helvetica Neue" font-size="16" fill="#f05a26" x="168.07055" y="15" xml:space="preserve">tproxy</tspan>
        </text>
      </g>
      <g id="Graphic_319">
        <path d="M 1023.3456 807.6325 L 1261.315 807.6325 C 1263.5241 807.6325 1265.315 809.4234 1265.315 811.6325 L 1265.315 850.4042 C 1265.315 852.6133 1263.5241 854.4042 1261.315 854.4042 L 1023.3456 854.4042 C 1021.1364 854.4042 1019.3456 852.6133 1019.3456 850.4042 L 1019.3456 811.6325 C 1019.3456 809.4234 1021.1364 807.6325 1023.3456 807.6325 Z" fill="#dadada"/>
        <path d="M 1023.3456 807.6325 L 1261.315 807.6325 C 1263.5241 807.6325 1265.315 809.4234 1265.315 811.6325 L 1265.315 850.4042 C 1265.315 852.6133 1263.5241 854.4042 1261.315 854.4042 L 1023.3456 854.4042 C 1021.1364 854.4042 1019.3456 852.6133 1019.3456 850.4042 L 1019.3456 811.6325 C 1019.3456 809.4234 1021.1364 807.6325 1023.3456 807.6325 Z" stroke="gray" stroke-linecap="round" stroke-linejoin="round" stroke-width="1"/>
        <text transform="translate(1024.3456 812.0623)" fill="black">
          <tspan font-family="Helvetica Neue" font-weight="bold" font-size="16" fill="black" x="84.52071" y="16" xml:space="preserve">pistioout</tspan>
          <tspan font-family="Helvetica Neue" font-size="16" fill="black" x="66.83271" y="34.46411" xml:space="preserve">192.168.127.2</tspan>
        </text>
      </g>
      <g id="Graphic_320">
        <path d="M 950.7397 716.1306 L 1333.9208 716.1306 C 1336.13 716.1306 1337.9208 717.9214 1337.9208 720.1306 L 1337.9208 758.9022 C 1337.9208 761.1114 1336.13 762.9022 1333.9208 762.9022 L 950.7397 762.9022 C 948.5306 762.9022 946.7397 761.1114 946.7397 758.9022 L 946.7397 720.1306 C 946.7397 717.9214 948.5306 716.1306 950.7397 716.1306 Z" fill="#dadada"/>
        <path d="M 950.7397 716.1306 L 1333.9208 716.1306 C 1336.13 716.1306 1337.9208 717.9214 1337.9208 720.1306 L 1337.9208 758.9022 C 1337.9208 761.1114 1336.13 762.9022 1333.9208 762.9022 L 950.7397 762.9022 C 948.5306 762.9022 946.7397 761.1114 946.7397 758.9022 L 946.7397 720.1306 C 946.7397 717.9214 948.5306 716.1306 950.7397 716.1306 Z" stroke="gray" stroke-linecap="round" stroke-linejoin="round" stroke-width="1"/>
        <text transform="translate(951.7397 720.56035)" fill="black">
          <tspan font-family="Helvetica Neue" font-weight="bold" font-size="16" fill="black" x="162.01455" y="16" xml:space="preserve">istioout</tspan>
          <tspan font-family="Helvetica Neue" font-size="16" fill="black" x="139.43855" y="34.46411" xml:space="preserve">192.168.127.1</tspan>
        </text>
      </g>
      <g id="Graphic_290">
        <path d="M 950.7397 621.0642 L 1333.9208 621.0642 C 1336.13 621.0642 1337.9208 622.8551 1337.9208 625.0642 L 1337.9208 645.4107 C 1337.9208 647.6198 1336.13 649.4107 1333.9208 649.4107 L 950.7397 649.4107 C 948.5306 649.4107 946.7397 647.6198 946.7397 645.4107 L 946.7397 625.0642 C 946.7397 622.8551 948.5306 621.0642 950.7397 621.0642 Z" fill="#dadada"/>
        <path d="M 950.7397 621.0642 L 1333.9208 621.0642 C 1336.13 621.0642 1337.9208 622.8551 1337.9208 625.0642 L 1337.9208 645.4107 C 1337.9208 647.6198 1336.13 649.4107 1333.9208 649.4107 L 950.7397 649.4107 C 948.5306 649.4107 946.7397 647.6198 946.7397 645.4107 L 946.7397 625.0642 C 946.7397 622.8551 948.5306 621.0642 950.7397 621.0642 Z" stroke="gray" stroke-linecap="round" stroke-linejoin="round" stroke-width="1"/>
        <text transform="translate(951.7397 625.5054)" fill="black">
          <tspan font-family="Helvetica Neue" font-weight="bold" font-size="16" fill="black" x="161.39055" y="16" xml:space="preserve">vethxxx</tspan>
        </text>
      </g>
      <g id="Graphic_269">
        <path d="M 1795.1417 711.4961 L 1923.9134 711.4961 C 1926.1225 711.4961 1927.9134 713.2869 1927.9134 715.4961 L 1927.9134 728.7536 C 1927.9134 730.9627 1926.1225 732.7536 1923.9134 732.7536 L 1795.1417 732.7536 C 1792.9326 732.7536 1791.1417 730.9627 1791.1417 728.7536 L 1791.1417 715.4961 C 1791.1417 713.2869 1792.9326 711.4961 1795.1417 711.4961 Z" fill="#dadada"/>
        <path d="M 1795.1417 711.4961 L 1923.9134 711.4961 C 1926.1225 711.4961 1927.9134 713.2869 1927.9134 715.4961 L 1927.9134 728.7536 C 1927.9134 730.9627 1926.1225 732.7536 1923.9134 732.7536 L 1795.1417 732.7536 C 1792.9326 732.7536 1791.1417 730.9627 1791.1417 728.7536 L 1791.1417 715.4961 C 1791.1417 713.2869 1792.9326 711.4961 1795.1417 711.4961 Z" stroke="gray" stroke-linecap="round" stroke-linejoin="round" stroke-width="1"/>
        <text transform="translate(1796.1417 712.3928)" fill="black">
          <tspan font-family="Helvetica Neue" font-weight="bold" font-size="16" fill="black" x="46.785826" y="16" xml:space="preserve">eth0</tspan>
        </text>
      </g>
      <g id="Graphic_267">
        <path d="M 1667.937 666.1417 L 2051.1181 666.1417 C 2053.3273 666.1417 2055.1181 667.9326 2055.1181 670.1417 L 2055.1181 683.39925 C 2055.1181 685.6084 2053.3273 687.39925 2051.1181 687.39925 L 1667.937 687.39925 C 1665.7279 687.39925 1663.937 685.6084 1663.937 683.39925 L 1663.937 670.1417 C 1663.937 667.9326 1665.7279 666.1417 1667.937 666.1417 Z" fill="#dadada"/>
        <path d="M 1667.937 666.1417 L 2051.1181 666.1417 C 2053.3273 666.1417 2055.1181 667.9326 2055.1181 670.1417 L 2055.1181 683.39925 C 2055.1181 685.6084 2053.3273 687.39925 2051.1181 687.39925 L 1667.937 687.39925 C 1665.7279 687.39925 1663.937 685.6084 1663.937 683.39925 L 1663.937 670.1417 C 1663.937 667.9326 1665.7279 666.1417 1667.937 666.1417 Z" stroke="gray" stroke-linecap="round" stroke-linejoin="round" stroke-width="1"/>
        <text transform="translate(1668.937 667.0384)" fill="black">
          <tspan font-family="Helvetica Neue" font-weight="bold" font-size="16" fill="black" x="161.39055" y="16" xml:space="preserve">vethxxx</tspan>
        </text>
      </g>
      <g id="Graphic_266">
        <path d="M 1667.937 619.37124 L 2051.1181 619.37124 C 2053.3273 619.37124 2055.1181 621.1621 2055.1181 623.37124 L 2055.1181 636.62876 C 2055.1181 638.8379 2053.3273 640.62876 2051.1181 640.62876 L 1667.937 640.62876 C 1665.7279 640.62876 1663.937 638.8379 1663.937 636.62876 L 1663.937 623.37124 C 1663.937 621.1621 1665.7279 619.37124 1667.937 619.37124 Z" fill="#dadada"/>
        <path d="M 1667.937 619.37124 L 2051.1181 619.37124 C 2053.3273 619.37124 2055.1181 621.1621 2055.1181 623.37124 L 2055.1181 636.62876 C 2055.1181 638.8379 2053.3273 640.62876 2051.1181 640.62876 L 1667.937 640.62876 C 1665.7279 640.62876 1663.937 638.8379 1663.937 636.62876 L 1663.937 623.37124 C 1663.937 621.1621 1665.7279 619.37124 1667.937 619.37124 Z" stroke="gray" stroke-linecap="round" stroke-linejoin="round" stroke-width="1"/>
        <text transform="translate(1668.937 620.26794)" fill="black">
          <tspan font-family="Helvetica Neue" font-weight="bold" font-size="16" fill="black" x="161.39055" y="16" xml:space="preserve">vethxxx</tspan>
        </text>
      </g>
      <g id="Graphic_285">
        <path d="M 1037.937 1286.409 L 1249.622 1286.409 C 1251.8312 1286.409 1253.622 1288.1999 1253.622 1290.409 L 1253.622 1306.6404 C 1253.622 1308.8495 1251.8312 1310.6404 1249.622 1310.6404 L 1037.937 1310.6404 C 1035.7279 1310.6404 1033.937 1308.8495 1033.937 1306.6404 L 1033.937 1290.409 C 1033.937 1288.1999 1035.7279 1286.409 1037.937 1286.409 Z" fill="#dadada"/>
        <path d="M 1037.937 1286.409 L 1249.622 1286.409 C 1251.8312 1286.409 1253.622 1288.1999 1253.622 1290.409 L 1253.622 1306.6404 C 1253.622 1308.8495 1251.8312 1310.6404 1249.622 1310.6404 L 1037.937 1310.6404 C 1035.7279 1310.6404 1033.937 1308.8495 1033.937 1306.6404 L 1033.937 1290.409 C 1033.937 1288.1999 1035.7279 1286.409 1037.937 1286.409 Z" stroke="gray" stroke-linecap="round" stroke-linejoin="round" stroke-width="1"/>
        <text transform="translate(1038.937 1288.7926)" fill="black">
          <tspan font-family="Helvetica Neue" font-weight="bold" font-size="16" fill="black" x="88.24252" y="16" xml:space="preserve">eth0</tspan>
        </text>
      </g>
      <g id="Line_330">
        <line x1="1337.9208" y1="1476.8275" x2="1651.037" y2="1476.7909" marker-end="url(#FilledArrow_Marker)" stroke="#456bb0" stroke-linecap="round" stroke-linejoin="round" stroke-width="2"/>
      </g>
      <g id="Graphic_331">
        <path d="M 950.7397 1386.6848 L 1333.9208 1386.6848 C 1336.13 1386.6848 1337.9208 1388.4757 1337.9208 1390.6848 L 1337.9208 1440.4186 C 1337.9208 1442.6277 1336.13 1444.4186 1333.9208 1444.4186 L 950.7397 1444.4186 C 948.5306 1444.4186 946.7397 1442.6277 946.7397 1440.4186 L 946.7397 1390.6848 C 946.7397 1388.4757 948.5306 1386.6848 950.7397 1386.6848 Z" fill="#fffef3"/>
        <path d="M 950.7397 1386.6848 L 1333.9208 1386.6848 C 1336.13 1386.6848 1337.9208 1388.4757 1337.9208 1390.6848 L 1337.9208 1440.4186 C 1337.9208 1442.6277 1336.13 1444.4186 1333.9208 1444.4186 L 950.7397 1444.4186 C 948.5306 1444.4186 946.7397 1442.6277 946.7397 1440.4186 L 946.7397 1390.6848 C 946.7397 1388.4757 948.5306 1386.6848 950.7397 1386.6848 Z" stroke="gray" stroke-linecap="round" stroke-linejoin="round" stroke-width="1"/>
        <text transform="translate(951.7397 1396.5957)" fill="#f05a26">
          <tspan font-family="Helvetica Neue" font-weight="bold" font-size="16" fill="#f05a26" x="110.46255" y="16" xml:space="preserve">Istio CNI Node Agent</tspan>
          <tspan font-family="Helvetica Neue" font-size="16" fill="#f05a26" x="38.558546" y="34.46411" xml:space="preserve">Setup iptables rules and veth pair for node</tspan>
        </text>
      </g>
    </g>
  </g>
</svg>
