<?xml version="1.0" encoding="UTF-8" standalone="no"?>
<!DOCTYPE svg PUBLIC "-//W3C//DTD SVG 1.1//EN" "http://www.w3.org/Graphics/SVG/1.1/DTD/svg11.dtd">
<svg xmlns:xl="http://www.w3.org/1999/xlink" xmlns:dc="http://purl.org/dc/elements/1.1/" xmlns="http://www.w3.org/2000/svg" version="1.1" viewBox="364 744 891 574" width="891" height="574">
  <defs>
    <marker orient="auto" overflow="visible" markerUnits="strokeWidth" id="FilledArrow_Marker" stroke-linejoin="miter" stroke-miterlimit="10" viewBox="-1 -4 10 8" markerWidth="10" markerHeight="8" color="#b34400">
      <g>
        <path d="M 8 0 L 0 -3 L 0 3 Z" fill="currentColor" stroke="currentColor" stroke-width="1"/>
      </g>
    </marker>
  </defs>
  <g id="ambient-mode-architecture_1" stroke="none" fill="none" stroke-opacity="1" stroke-dasharray="none" fill-opacity="1">
    <title>ambient-mode-architecture 1</title>
    <rect fill="white" x="364" y="744" width="891" height="574"/>
    <g id="ambient-mode-architecture_1_Layer_1">
      <title>Layer 1</title>
      <g id="Graphic_101"/>
      <g id="Graphic_100">
        <path d="M 387.25 769.25 L 558.75 769.25 C 560.95914 769.25 562.75 771.0409 562.75 773.25 L 562.75 1053 C 562.75 1055.2091 560.95914 1057 558.75 1057 L 387.25 1057 C 385.04086 1057 383.25 1055.2091 383.25 1053 L 383.25 773.25 C 383.25 771.0409 385.04086 769.25 387.25 769.25 Z" fill="#f2f2f2"/>
        <path d="M 387.25 769.25 L 558.75 769.25 C 560.95914 769.25 562.75 771.0409 562.75 773.25 L 562.75 1053 C 562.75 1055.2091 560.95914 1057 558.75 1057 L 387.25 1057 C 385.04086 1057 383.25 1055.2091 383.25 1053 L 383.25 773.25 C 383.25 771.0409 385.04086 769.25 387.25 769.25 Z" stroke="#a5a5a5" stroke-linecap="round" stroke-linejoin="round" stroke-width="1"/>
      </g>
      <g id="Graphic_99">
        <path d="M 641 769.25 L 812.5 769.25 C 814.7091 769.25 816.5 771.0409 816.5 773.25 L 816.5 1053 C 816.5 1055.2091 814.7091 1057 812.5 1057 L 641 1057 C 638.79086 1057 637 1055.2091 637 1053 L 637 773.25 C 637 771.0409 638.79086 769.25 641 769.25 Z" fill="#f2f2f2"/>
        <path d="M 641 769.25 L 812.5 769.25 C 814.7091 769.25 816.5 771.0409 816.5 773.25 L 816.5 1053 C 816.5 1055.2091 814.7091 1057 812.5 1057 L 641 1057 C 638.79086 1057 637 1055.2091 637 1053 L 637 773.25 C 637 771.0409 638.79086 769.25 641 769.25 Z" stroke="#a5a5a5" stroke-linecap="round" stroke-linejoin="round" stroke-width="1"/>
      </g>
      <g id="Graphic_98">
        <path d="M 894.75 769.25 L 1066.25 769.25 C 1068.4591 769.25 1070.25 771.0409 1070.25 773.25 L 1070.25 1053 C 1070.25 1055.2091 1068.4591 1057 1066.25 1057 L 894.75 1057 C 892.5409 1057 890.75 1055.2091 890.75 1053 L 890.75 773.25 C 890.75 771.0409 892.5409 769.25 894.75 769.25 Z" fill="#f2f2f2"/>
        <path d="M 894.75 769.25 L 1066.25 769.25 C 1068.4591 769.25 1070.25 771.0409 1070.25 773.25 L 1070.25 1053 C 1070.25 1055.2091 1068.4591 1057 1066.25 1057 L 894.75 1057 C 892.5409 1057 890.75 1055.2091 890.75 1053 L 890.75 773.25 C 890.75 771.0409 892.5409 769.25 894.75 769.25 Z" stroke="#a5a5a5" stroke-linecap="round" stroke-linejoin="round" stroke-width="1"/>
      </g>
      <g id="Line_97">
        <line x1="980.5" y1="846.25" x2="980.5" y2="1030.441" stroke="#666" stroke-linecap="round" stroke-linejoin="round" stroke-width="2"/>
      </g>
      <g id="Line_96">
        <line x1="726.75" y1="846.25" x2="726.75" y2="1030.441" stroke="#666" stroke-linecap="round" stroke-linejoin="round" stroke-width="2"/>
      </g>
      <g id="Line_95">
        <line x1="473" y1="846.25" x2="473" y2="1030.441" stroke="#666" stroke-linecap="round" stroke-linejoin="round" stroke-width="2"/>
      </g>
      <g id="Graphic_94">
        <path d="M 407 796.25 L 539 796.25 C 541.20914 796.25 543 798.0409 543 800.25 L 543 842.25 C 543 844.4591 541.20914 846.25 539 846.25 L 407 846.25 C 404.79086 846.25 403 844.4591 403 842.25 L 403 800.25 C 403 798.0409 404.79086 796.25 407 796.25 Z" fill="#666"/>
        <text transform="translate(408 812.026)" fill="white">
          <tspan font-family="Helvetica Neue" font-size="16" fill="white" x="42.92" y="15" xml:space="preserve">App A</tspan>
        </text>
      </g>
      <g id="Graphic_93">
        <path d="M 914.5 796.25 L 1046.5 796.25 C 1048.7091 796.25 1050.5 798.0409 1050.5 800.25 L 1050.5 842.25 C 1050.5 844.4591 1048.7091 846.25 1046.5 846.25 L 914.5 846.25 C 912.2909 846.25 910.5 844.4591 910.5 842.25 L 910.5 800.25 C 910.5 798.0409 912.2909 796.25 914.5 796.25 Z" fill="#666"/>
        <text transform="translate(915.5 812.026)" fill="white">
          <tspan font-family="Helvetica Neue" font-size="16" fill="white" x="42.624" y="15" xml:space="preserve">App B</tspan>
        </text>
      </g>
      <g id="Graphic_92">
        <path d="M 660.75 796.25 L 792.75 796.25 C 794.9591 796.25 796.75 798.0409 796.75 800.25 L 796.75 842.25 C 796.75 844.4591 794.9591 846.25 792.75 846.25 L 660.75 846.25 C 658.5409 846.25 656.75 844.4591 656.75 842.25 L 656.75 800.25 C 656.75 798.0409 658.5409 796.25 660.75 796.25 Z" fill="#666"/>
        <text transform="translate(661.75 812.026)" fill="white">
          <tspan font-family="Helvetica Neue" font-size="16" fill="white" x="42.92" y="15" xml:space="preserve">App A</tspan>
        </text>
      </g>
      <g id="Graphic_91">
        <path d="M 474.34535 1030.674 L 532.4525 1051.4265 C 534.5329 1052.1695 535.6171 1054.4584 534.8741 1056.5388 C 534.47075 1057.6683 533.5819 1058.5571 532.4525 1058.9605 L 474.34535 1079.713 C 473.47536 1080.0237 472.52464 1080.0237 471.65465 1079.713 L 413.5475 1058.9605 C 411.46707 1058.2175 410.38287 1055.9286 411.1259 1053.8482 C 411.52925 1052.7187 412.4181 1051.8299 413.5475 1051.4265 L 471.65465 1030.674 C 472.52464 1030.3633 473.47536 1030.3633 474.34535 1030.674 Z" fill="#f05a26"/>
        <text transform="translate(408 1045.9695)" fill="white">
          <tspan font-family="Helvetica Neue" font-size="16" fill="white" x="37.888" y="15" xml:space="preserve">zTunnel</tspan>
        </text>
      </g>
      <g id="Graphic_90">
        <path d="M 981.8453 1030.674 L 1039.9525 1051.4265 C 1042.0329 1052.1695 1043.1171 1054.4584 1042.3741 1056.5388 C 1041.9707 1057.6683 1041.0819 1058.5571 1039.9525 1058.9605 L 981.8453 1079.713 C 980.9754 1080.0237 980.0246 1080.0237 979.1547 1079.713 L 921.0475 1058.9605 C 918.9671 1058.2175 917.8829 1055.9286 918.6259 1053.8482 C 919.0293 1052.7187 919.9181 1051.8299 921.0475 1051.4265 L 979.1547 1030.674 C 980.0246 1030.3633 980.9754 1030.3633 981.8453 1030.674 Z" fill="#f05a26"/>
        <text transform="translate(915.5 1045.9695)" fill="white">
          <tspan font-family="Helvetica Neue" font-size="16" fill="white" x="37.888" y="15" xml:space="preserve">zTunnel</tspan>
        </text>
      </g>
      <g id="Graphic_89">
        <path d="M 728.09535 1030.674 L 786.2025 1051.4265 C 788.2829 1052.1695 789.3671 1054.4584 788.6241 1056.5388 C 788.22075 1057.6683 787.3319 1058.5571 786.2025 1058.9605 L 728.09535 1079.713 C 727.2254 1080.0237 726.2746 1080.0237 725.40465 1079.713 L 667.2975 1058.9605 C 665.2171 1058.2175 664.1329 1055.9286 664.8759 1053.8482 C 665.27925 1052.7187 666.1681 1051.8299 667.2975 1051.4265 L 725.40465 1030.674 C 726.2746 1030.3633 727.2254 1030.3633 728.09535 1030.674 Z" fill="#f05a26"/>
        <text transform="translate(661.75 1045.9695)" fill="white">
          <tspan font-family="Helvetica Neue" font-size="16" fill="white" x="37.888" y="15" xml:space="preserve">zTunnel</tspan>
        </text>
      </g>
      <g id="Graphic_88">
        <path d="M 407 953.25 L 539 953.25 C 541.20914 953.25 543 955.0409 543 957.25 L 543 999.25 C 543 1001.4591 541.20914 1003.25 539 1003.25 L 407 1003.25 C 404.79086 1003.25 403 1001.4591 403 999.25 L 403 957.25 C 403 955.0409 404.79086 953.25 407 953.25 Z" fill="#666"/>
        <text transform="translate(408 969.026)" fill="white">
          <tspan font-family="Helvetica Neue" font-size="16" fill="white" x="42.328" y="15" xml:space="preserve">App C</tspan>
        </text>
      </g>
      <g id="Graphic_87">
        <path d="M 407 874.75 L 539 874.75 C 541.20914 874.75 543 876.5409 543 878.75 L 543 920.75 C 543 922.9591 541.20914 924.75 539 924.75 L 407 924.75 C 404.79086 924.75 403 922.9591 403 920.75 L 403 878.75 C 403 876.5409 404.79086 874.75 407 874.75 Z" fill="#666"/>
        <text transform="translate(408 890.526)" fill="white">
          <tspan font-family="Helvetica Neue" font-size="16" fill="white" x="42.624" y="15" xml:space="preserve">App B</tspan>
        </text>
      </g>
      <g id="Graphic_86">
        <path d="M 914.5 876.3065 L 1046.5 876.3065 C 1048.7091 876.3065 1050.5 878.0974 1050.5 880.3065 L 1050.5 922.3065 C 1050.5 924.5156 1048.7091 926.3065 1046.5 926.3065 L 914.5 926.3065 C 912.2909 926.3065 910.5 924.5156 910.5 922.3065 L 910.5 880.3065 C 910.5 878.0974 912.2909 876.3065 914.5 876.3065 Z" fill="#666"/>
        <text transform="translate(915.5 892.0825)" fill="white">
          <tspan font-family="Helvetica Neue" font-size="16" fill="white" x="42.328" y="15" xml:space="preserve">App C</tspan>
        </text>
      </g>
      <g id="Graphic_85">
        <path d="M 660.75 876.3065 L 792.75 876.3065 C 794.9591 876.3065 796.75 878.0974 796.75 880.3065 L 796.75 922.3065 C 796.75 924.5156 794.9591 926.3065 792.75 926.3065 L 660.75 926.3065 C 658.5409 926.3065 656.75 924.5156 656.75 922.3065 L 656.75 880.3065 C 656.75 878.0974 658.5409 876.3065 660.75 876.3065 Z" fill="#666"/>
        <text transform="translate(661.75 892.0825)" fill="white">
          <tspan font-family="Helvetica Neue" font-size="16" fill="white" x="42.328" y="15" xml:space="preserve">App C</tspan>
        </text>
      </g>
      <g id="Graphic_84">
        <title>Rectangle</title>
        <path d="M 650.875 1131.25 L 782.875 1131.25 C 785.0841 1131.25 786.875 1133.0409 786.875 1135.25 L 786.875 1177.25 C 786.875 1179.4591 785.0841 1181.25 782.875 1181.25 L 650.875 1181.25 C 648.66586 1181.25 646.875 1179.4591 646.875 1177.25 L 646.875 1135.25 C 646.875 1133.0409 648.66586 1131.25 650.875 1131.25 Z" fill="#f05a26"/>
        <path d="M 650.875 1131.25 L 782.875 1131.25 C 785.0841 1131.25 786.875 1133.0409 786.875 1135.25 L 786.875 1177.25 C 786.875 1179.4591 785.0841 1181.25 782.875 1181.25 L 650.875 1181.25 C 648.66586 1181.25 646.875 1179.4591 646.875 1177.25 L 646.875 1135.25 C 646.875 1133.0409 648.66586 1131.25 650.875 1131.25 Z" stroke="white" stroke-linecap="round" stroke-linejoin="round" stroke-width="1"/>
        <text transform="translate(651.875 1147.026)" fill="white">
          <tspan font-family="Helvetica Neue" font-size="16" fill="white" x="8.848" y="15" xml:space="preserve">Waypoint Proxy</tspan>
        </text>
      </g>
      <g id="Graphic_83">
        <path d="M 660.75 1121.5 L 792.75 1121.5 C 794.9591 1121.5 796.75 1123.2909 796.75 1125.5 L 796.75 1167.5 C 796.75 1169.7091 794.9591 1171.5 792.75 1171.5 L 660.75 1171.5 C 658.5409 1171.5 656.75 1169.7091 656.75 1167.5 L 656.75 1125.5 C 656.75 1123.2909 658.5409 1121.5 660.75 1121.5 Z" fill="#f05a26"/>
        <path d="M 660.75 1121.5 L 792.75 1121.5 C 794.9591 1121.5 796.75 1123.2909 796.75 1125.5 L 796.75 1167.5 C 796.75 1169.7091 794.9591 1171.5 792.75 1171.5 L 660.75 1171.5 C 658.5409 1171.5 656.75 1169.7091 656.75 1167.5 L 656.75 1125.5 C 656.75 1123.2909 658.5409 1121.5 660.75 1121.5 Z" stroke="white" stroke-linecap="round" stroke-linejoin="round" stroke-width="1"/>
        <text transform="translate(661.75 1137.276)" fill="white">
          <tspan font-family="Helvetica Neue" font-size="16" fill="white" x="8.848" y="15" xml:space="preserve">Waypoint Proxy</tspan>
        </text>
      </g>
      <g id="Graphic_82">
        <path d="M 670.625 1111.75 L 802.625 1111.75 C 804.8341 1111.75 806.625 1113.5409 806.625 1115.75 L 806.625 1157.75 C 806.625 1159.9591 804.8341 1161.75 802.625 1161.75 L 670.625 1161.75 C 668.4159 1161.75 666.625 1159.9591 666.625 1157.75 L 666.625 1115.75 C 666.625 1113.5409 668.4159 1111.75 670.625 1111.75 Z" fill="#f05a26"/>
        <path d="M 670.625 1111.75 L 802.625 1111.75 C 804.8341 1111.75 806.625 1113.5409 806.625 1115.75 L 806.625 1157.75 C 806.625 1159.9591 804.8341 1161.75 802.625 1161.75 L 670.625 1161.75 C 668.4159 1161.75 666.625 1159.9591 666.625 1157.75 L 666.625 1115.75 C 666.625 1113.5409 668.4159 1111.75 670.625 1111.75 Z" stroke="white" stroke-linecap="round" stroke-linejoin="round" stroke-width="1"/>
        <text transform="translate(671.625 1127.526)" fill="white">
          <tspan font-family="Helvetica Neue" font-size="16" fill="white" x="8.848" y="15" xml:space="preserve">Waypoint Proxy</tspan>
        </text>
      </g>
      <g id="Line_81">
        <path d="M 980.5 1079.946 L 980.5 1080.8796 L 980.242 1080.8796 L 980.242 1136.75 L 806.625 1136.75" stroke="#666" stroke-linecap="round" stroke-linejoin="round" stroke-width="2"/>
      </g>
      <g id="Line_80">
        <path d="M 473 1079.946 L 473 1090.946 L 473.07214 1109.0579 L 473.07214 1136.75 L 666.625 1136.75" stroke="#666" stroke-linecap="round" stroke-linejoin="round" stroke-width="2"/>
      </g>
      <g id="Line_79">
        <line x1="726.75" y1="1079.946" x2="726.75" y2="1111.75" stroke="#666" stroke-linecap="round" stroke-linejoin="round" stroke-width="2"/>
      </g>
      <g id="Graphic_78">
        <path d="M 576.5625 1247.5 L 876.9375 1247.5 C 879.1466 1247.5 880.9375 1249.2909 880.9375 1251.5 L 880.9375 1293.5 C 880.9375 1295.7091 879.1466 1297.5 876.9375 1297.5 L 576.5625 1297.5 C 574.35336 1297.5 572.5625 1295.7091 572.5625 1293.5 L 572.5625 1251.5 C 572.5625 1249.2909 574.35336 1247.5 576.5625 1247.5 Z" fill="#f05a26"/>
        <text transform="translate(577.5625 1263.276)" fill="white">
          <tspan font-family="Helvetica Neue" font-size="16" fill="white" x="129.4835" y="15" xml:space="preserve">Istiod</tspan>
        </text>
      </g>
      <g id="Line_77">
        <path d="M 628.5333 1247.5 C 573.3706 1229.8829 515.5 1203.7224 515.5 1171.5 C 515.5 1128.9435 616.4425 1089.6466 678.7734 1069.4378" marker-end="url(#FilledArrow_Marker)" stroke="#b34400" stroke-linecap="round" stroke-linejoin="round" stroke-width="1"/>
      </g>
      <g id="Line_76">
        <path d="M 847.8599 1247.5 C 894.7214 1234.288 944.3538 1215.2448 975 1189 C 1018.4348 1151.8033 1011.3912 1110.7085 999.0108 1084.0047" marker-end="url(#FilledArrow_Marker)" stroke="#b34400" stroke-linecap="round" stroke-linejoin="round" stroke-width="1"/>
      </g>
      <g id="Line_75">
        <path d="M 630.2498 1247.5 C 578.2874 1231.3267 517.69594 1207.5693 482 1177 C 440.95156 1141.8469 443.8461 1107.1247 453.8842 1083.8027" marker-end="url(#FilledArrow_Marker)" stroke="#b34400" stroke-linecap="round" stroke-linejoin="round" stroke-width="1"/>
      </g>
      <g id="Graphic_74">
        <text transform="translate(1126.729 1144.6048)" fill="black">
          <tspan font-family="Helvetica Neue" font-size="16" fill="black" x="0" y="15" xml:space="preserve">Layer 7 Overlay</tspan>
        </text>
      </g>
      <g id="Graphic_73">
        <text transform="translate(1126.729 1054.3243)" fill="black">
          <tspan font-family="Helvetica Neue" font-size="16" fill="black" x="19895197e-20" y="15" xml:space="preserve">Secure Overlay</tspan>
        </text>
      </g>
      <g id="Line_69">
        <line x1="726.75" y1="1247.5" x2="726.75" y2="1181.4" marker-end="url(#FilledArrow_Marker)" stroke="#b34400" stroke-linecap="round" stroke-linejoin="round" stroke-width="1"/>
      </g>
      <g id="Graphic_68">
        <rect x="682.782" y="1203.3849" width="87.936" height="28.447998" fill="white"/>
        <text transform="translate(687.782 1208.3849)" fill="black">
          <tspan font-family="Helvetica Neue" font-style="italic" font-size="16" fill="black" x="7531753e-19" y="15" xml:space="preserve">xDS config</tspan>
        </text>
      </g>
      <g id="Group_103">
        <title>Page-1</title>
        <g id="Group_104">
          <title>brackets-curly-thin-svgrepo-com</title>
          <g id="Graphic_105">
            <title>Shape</title>
            <path d="M 1120.09 1061.9093 C 1109.171 1061.9093 1108.6168 1055.6809 1108.6168 1045.519 C 1108.6168 1036.7561 1108.6168 1025.8507 1093.8656 1025.8507 C 1092.9604 1025.8507 1092.2265 1026.5845 1092.2265 1027.4897 C 1092.2265 1028.395 1092.9604 1029.1288 1093.8656 1029.1288 C 1104.7845 1029.1288 1105.3387 1035.3571 1105.3387 1045.519 C 1105.3387 1052.2216 1105.3383 1060.1778 1111.9397 1063.5483 C 1105.3383 1066.9188 1105.3387 1074.875 1105.3387 1081.5776 C 1105.3387 1091.7395 1104.7845 1097.9679 1093.8656 1097.9679 C 1092.9604 1097.9679 1092.2265 1098.7017 1092.2265 1099.6069 C 1092.2265 1100.5121 1092.9604 1101.2459 1093.8656 1101.2459 C 1108.6168 1101.2459 1108.6168 1090.3405 1108.6168 1081.5776 C 1108.6168 1071.4157 1109.171 1065.1873 1120.09 1065.1873 C 1120.9952 1065.1873 1121.729 1064.4535 1121.729 1063.5483 C 1121.729 1062.6431 1120.9952 1061.9093 1120.09 1061.9093 Z" fill="black"/>
          </g>
        </g>
      </g>
      <g id="Group_106">
        <title>Page-1</title>
        <g id="Group_107">
          <title>brackets-curly-thin-svgrepo-com</title>
          <g id="Graphic_108">
            <title>Shape</title>
            <path d="M 1120.09 1152.1898 C 1109.171 1152.1898 1108.6168 1145.9614 1108.6168 1135.7995 C 1108.6168 1127.0366 1108.6168 1116.1312 1093.8656 1116.1312 C 1092.9604 1116.1312 1092.2265 1116.865 1092.2265 1117.7702 C 1092.2265 1118.6755 1092.9604 1119.4093 1093.8656 1119.4093 C 1104.7845 1119.4093 1105.3387 1125.6376 1105.3387 1135.7995 C 1105.3387 1142.5021 1105.3383 1150.4583 1111.9397 1153.8288 C 1105.3383 1157.1993 1105.3387 1165.1555 1105.3387 1171.8581 C 1105.3387 1182.02 1104.7845 1188.2484 1093.8656 1188.2484 C 1092.9604 1188.2484 1092.2265 1188.9822 1092.2265 1189.8874 C 1092.2265 1190.7926 1092.9604 1191.5264 1093.8656 1191.5264 C 1108.6168 1191.5264 1108.6168 1180.621 1108.6168 1171.8581 C 1108.6168 1161.6962 1109.171 1155.4678 1120.09 1155.4678 C 1120.9952 1155.4678 1121.729 1154.734 1121.729 1153.8288 C 1121.729 1152.9236 1120.9952 1152.1898 1120.09 1152.1898 Z" fill="black"/>
          </g>
        </g>
      </g>
    </g>
  </g>
</svg>
