<svg xmlns="http://www.w3.org/2000/svg" xmlns:xl="http://www.w3.org/1999/xlink" width="1381" height="1090" version="1.1" viewBox="806 465 1381 1090"><defs><marker id="FilledArrow_Marker" stroke-linejoin="miter" stroke-miterlimit="10" color="#456bb0" markerHeight="6" markerUnits="strokeWidth" markerWidth="7" orient="auto" overflow="visible" viewBox="-1 -3 7 6"><g><path fill="currentColor" stroke="currentColor" stroke-width="1" d="M 4.8 0 L 0 -1.8 L 0 1.8 Z"/></g></marker></defs><g id="Ambient_Mesh_Ztunnel_L4" fill="none" fill-opacity="1" stroke="none" stroke-dasharray="none" stroke-opacity="1"><title>Ambient Mesh Ztunnel L4</title><rect width="1381" height="1090" x="806" y="465" fill="#fff"/><g id="Ambient_Mesh_Ztunnel_L4_Layer_2"><title>Layer 2</title><g id="Graphic_326"><rect width="1380.472" height="1089.213" x="806.457" y="465.591" fill="#fff"/></g><g id="Graphic_325"><path stroke="#a5a5a5" stroke-linecap="round" stroke-linejoin="round" stroke-width="1" d="M 1580.063 488.9764 L 2138.9921 488.9764 C 2141.2013 488.9764 2142.9921 490.76723 2142.9921 492.9764 L 2142.9921 1521.0394 C 2142.9921 1523.2485 2141.2013 1525.0394 2138.9921 1525.0394 L 1580.063 1525.0394 C 1577.8539 1525.0394 1576.063 1523.2485 1576.063 1521.0394 L 1576.063 492.9764 C 1576.063 490.76723 1577.8539 488.9764 1580.063 488.9764 Z"/><text fill="#000" transform="translate(1581.063 1500.5753)"><tspan x="0" y="16" fill="#000" font-family="Helvetica Neue" font-size="16" font-weight="bold" xml:space="preserve">Node B</tspan></text></g><g id="Graphic_324"><path stroke="#a5a5a5" stroke-linecap="round" stroke-linejoin="round" stroke-width="1" d="M 864.315 488.9764 L 1423.2441 488.9764 C 1425.4532 488.9764 1427.2441 490.76723 1427.2441 492.9764 L 1427.2441 1521.0394 C 1427.2441 1523.2485 1425.4532 1525.0394 1423.2441 1525.0394 L 864.315 1525.0394 C 862.1058 1525.0394 860.315 1523.2485 860.315 1521.0394 L 860.315 492.9764 C 860.315 490.76723 862.1058 488.9764 864.315 488.9764 Z"/><text fill="#000" transform="translate(865.315 1500.5753)"><tspan x="0" y="16" fill="#000" font-family="Helvetica Neue" font-size="16" font-weight="bold" xml:space="preserve">Node A</tspan></text></g><g id="Graphic_323"><title>ztunnel a pod</title><path fill="#fffef3" d="M 896.9134 807.6325 L 1390.6457 807.6325 C 1392.8548 807.6325 1394.6457 809.4234 1394.6457 811.6325 L 1394.6457 1306.6404 C 1394.6457 1308.8495 1392.8548 1310.6404 1390.6457 1310.6404 L 896.9134 1310.6404 C 894.7043 1310.6404 892.9134 1308.8495 892.9134 1306.6404 L 892.9134 811.6325 C 892.9134 809.4234 894.7043 807.6325 896.9134 807.6325 Z"/><path stroke="#a5a5a5" stroke-linecap="round" stroke-linejoin="round" stroke-width="1" d="M 896.9134 807.6325 L 1390.6457 807.6325 C 1392.8548 807.6325 1394.6457 809.4234 1394.6457 811.6325 L 1394.6457 1306.6404 C 1394.6457 1308.8495 1392.8548 1310.6404 1390.6457 1310.6404 L 896.9134 1310.6404 C 894.7043 1310.6404 892.9134 1308.8495 892.9134 1306.6404 L 892.9134 811.6325 C 892.9134 809.4234 894.7043 807.6325 896.9134 807.6325 Z"/><text fill="#000" transform="translate(897.9134 1286.1763)"><tspan x="0" y="16" fill="#000" font-family="Helvetica Neue" font-size="16" font-weight="bold" xml:space="preserve">Ztunnel Pod</tspan></text></g><g id="Graphic_322"><path fill="#fffef3" d="M 1614.7874 711.4961 L 2108.5197 711.4961 C 2110.7288 711.4961 2112.5197 713.2869 2112.5197 715.4961 L 2112.5197 1159.1913 C 2112.5197 1161.4004 2110.7288 1163.1913 2108.5197 1163.1913 L 1614.7874 1163.1913 C 1612.5783 1163.1913 1610.7874 1161.4004 1610.7874 1159.1913 L 1610.7874 715.4961 C 1610.7874 713.2869 1612.5783 711.4961 1614.7874 711.4961 Z"/><path stroke="#a5a5a5" stroke-linecap="round" stroke-linejoin="round" stroke-width="1" d="M 1614.7874 711.4961 L 2108.5197 711.4961 C 2110.7288 711.4961 2112.5197 713.2869 2112.5197 715.4961 L 2112.5197 1159.1913 C 2112.5197 1161.4004 2110.7288 1163.1913 2108.5197 1163.1913 L 1614.7874 1163.1913 C 1612.5783 1163.1913 1610.7874 1161.4004 1610.7874 1159.1913 L 1610.7874 715.4961 C 1610.7874 713.2869 1612.5783 711.4961 1614.7874 711.4961 Z"/><text fill="#000" transform="translate(1615.7874 1138.7271)"><tspan x="0" y="16" fill="#000" font-family="Helvetica Neue" font-size="16" font-weight="bold" xml:space="preserve">Ztunnel Pod</tspan></text></g><g id="Graphic_321"><path fill="#333" d="M 950.7397 525.82677 L 1333.9208 525.82677 C 1336.13 525.82677 1337.9208 527.6176 1337.9208 529.82677 L 1337.9208 589.85826 C 1337.9208 592.0674 1336.13 593.85826 1333.9208 593.85826 L 950.7397 593.85826 C 948.5306 593.85826 946.7397 592.0674 946.7397 589.85826 L 946.7397 529.82677 C 946.7397 527.6176 948.5306 525.82677 950.7397 525.82677 Z"/><path stroke="gray" stroke-linecap="round" stroke-linejoin="round" stroke-width="1" d="M 950.7397 525.82677 L 1333.9208 525.82677 C 1336.13 525.82677 1337.9208 527.6176 1337.9208 529.82677 L 1337.9208 589.85826 C 1337.9208 592.0674 1336.13 593.85826 1333.9208 593.85826 L 950.7397 593.85826 C 948.5306 593.85826 946.7397 592.0674 946.7397 589.85826 L 946.7397 529.82677 C 946.7397 527.6176 948.5306 525.82677 950.7397 525.82677 Z"/><text fill="#fff" transform="translate(951.7397 530.82677)"><tspan x="167.775" y="16" fill="#fff" font-family="Helvetica Neue" font-size="16" font-weight="bold" xml:space="preserve">Pod A</tspan></text></g><g id="Graphic_318"><path fill="#fff" d="M 952.189 900.3078 L 1335.3701 900.3078 C 1337.5792 900.3078 1339.3701 902.0986 1339.3701 904.3078 L 1339.3701 1237.2648 C 1339.3701 1239.4739 1337.5792 1241.2648 1335.3701 1241.2648 L 952.189 1241.2648 C 949.9798 1241.2648 948.189 1239.4739 948.189 1237.2648 L 948.189 904.3078 C 948.189 902.0986 949.9798 900.3078 952.189 900.3078 Z"/><path stroke="gray" stroke-linecap="round" stroke-linejoin="round" stroke-width="1" d="M 952.189 900.3078 L 1335.3701 900.3078 C 1337.5792 900.3078 1339.3701 902.0986 1339.3701 904.3078 L 1339.3701 1237.2648 C 1339.3701 1239.4739 1337.5792 1241.2648 1335.3701 1241.2648 L 952.189 1241.2648 C 949.9798 1241.2648 948.189 1239.4739 948.189 1237.2648 L 948.189 904.3078 C 948.189 902.0986 949.9798 900.3078 952.189 900.3078 Z"/><text fill="#000" transform="translate(953.189 1216.8007)"><tspan x="0" y="16" fill="#000" font-family="Helvetica Neue" font-size="16" font-weight="bold" xml:space="preserve">istio-proxy</tspan></text></g><g id="Graphic_314"><path fill="#333" d="M 1667.937 525.82677 L 2051.1181 525.82677 C 2053.3273 525.82677 2055.1181 527.6176 2055.1181 529.82677 L 2055.1181 589.85826 C 2055.1181 592.0674 2053.3273 593.85826 2051.1181 593.85826 L 1667.937 593.85826 C 1665.7279 593.85826 1663.937 592.0674 1663.937 589.85826 L 1663.937 529.82677 C 1663.937 527.6176 1665.7279 525.82677 1667.937 525.82677 Z"/><path stroke="gray" stroke-linecap="round" stroke-linejoin="round" stroke-width="1" d="M 1667.937 525.82677 L 2051.1181 525.82677 C 2053.3273 525.82677 2055.1181 527.6176 2055.1181 529.82677 L 2055.1181 589.85826 C 2055.1181 592.0674 2053.3273 593.85826 2051.1181 593.85826 L 1667.937 593.85826 C 1665.7279 593.85826 1663.937 592.0674 1663.937 589.85826 L 1663.937 529.82677 C 1663.937 527.6176 1665.7279 525.82677 1667.937 525.82677 Z"/><text fill="#fff" transform="translate(1668.937 530.82677)"><tspan x="167.623" y="16" fill="#fff" font-family="Helvetica Neue" font-size="16" font-weight="bold" xml:space="preserve">Pod B</tspan></text></g><g id="Graphic_312"><path fill="#fff" d="M 1667.937 751.70945 L 2051.1181 751.70945 C 2053.3273 751.70945 2055.1181 753.5003 2055.1181 755.70945 L 2055.1181 947.4646 C 2055.1181 949.6738 2053.3273 951.4646 2051.1181 951.4646 L 1667.937 951.4646 C 1665.7279 951.4646 1663.937 949.6738 1663.937 947.4646 L 1663.937 755.70945 C 1663.937 753.5003 1665.7279 751.70945 1667.937 751.70945 Z"/><path stroke="gray" stroke-linecap="round" stroke-linejoin="round" stroke-width="1" d="M 1667.937 751.70945 L 2051.1181 751.70945 C 2053.3273 751.70945 2055.1181 753.5003 2055.1181 755.70945 L 2055.1181 947.4646 C 2055.1181 949.6738 2053.3273 951.4646 2051.1181 951.4646 L 1667.937 951.4646 C 1665.7279 951.4646 1663.937 949.6738 1663.937 947.4646 L 1663.937 755.70945 C 1663.937 753.5003 1665.7279 751.70945 1667.937 751.70945 Z"/><text fill="#000" transform="translate(1668.937 927.0005)"><tspan x="0" y="16" fill="#000" font-family="Helvetica Neue" font-size="16" font-weight="bold" xml:space="preserve">istio-proxy</tspan></text></g><g id="Graphic_311"><path fill="#f05a26" d="M 1747.307 843.6435 L 1971.748 843.6435 C 1973.9572 843.6435 1975.748 845.4344 1975.748 847.6435 L 1975.748 874.6337 C 1975.748 876.8428 1973.9572 878.6337 1971.748 878.6337 L 1747.307 878.6337 C 1745.098 878.6337 1743.307 876.8428 1743.307 874.6337 L 1743.307 847.6435 C 1743.307 845.4344 1745.098 843.6435 1747.307 843.6435 Z"/><text fill="#fff" transform="translate(1748.307 851.4065)"><tspan x="14.188" y="16" fill="#fff" font-family="Helvetica Neue" font-size="16" font-weight="bold" xml:space="preserve">Ztunnel_inbound Listener</tspan></text></g><g id="Graphic_310"><path fill="#f05a26" d="M 1747.307 783.1504 L 1971.748 783.1504 C 1973.9572 783.1504 1975.748 784.9413 1975.748 787.1504 L 1975.748 814.1406 C 1975.748 816.3497 1973.9572 818.1406 1971.748 818.1406 L 1747.307 818.1406 C 1745.098 818.1406 1743.307 816.3497 1743.307 814.1406 L 1743.307 787.1504 C 1743.307 784.9413 1745.098 783.1504 1747.307 783.1504 Z"/><text fill="#fff" transform="translate(1748.307 790.9134)"><tspan x="22.196" y="16" fill="#fff" font-family="Helvetica Neue" font-size="16" font-weight="bold" xml:space="preserve">Virtual_inbound Cluster</tspan></text></g><g id="Graphic_293"><path fill="#dadada" d="M 950.7397 1462.6772 L 1333.9208 1462.6772 C 1336.13 1462.6772 1337.9208 1464.468 1337.9208 1466.6772 L 1337.9208 1487.0236 C 1337.9208 1489.2328 1336.13 1491.0236 1333.9208 1491.0236 L 950.7397 1491.0236 C 948.5306 1491.0236 946.7397 1489.2328 946.7397 1487.0236 L 946.7397 1466.6772 C 946.7397 1464.468 948.5306 1462.6772 950.7397 1462.6772 Z"/><path stroke="gray" stroke-linecap="round" stroke-linejoin="round" stroke-width="1" d="M 950.7397 1462.6772 L 1333.9208 1462.6772 C 1336.13 1462.6772 1337.9208 1464.468 1337.9208 1466.6772 L 1337.9208 1487.0236 C 1337.9208 1489.2328 1336.13 1491.0236 1333.9208 1491.0236 L 950.7397 1491.0236 C 948.5306 1491.0236 946.7397 1489.2328 946.7397 1487.0236 L 946.7397 1466.6772 C 946.7397 1464.468 948.5306 1462.6772 950.7397 1462.6772 Z"/><text fill="#000" transform="translate(951.7397 1467.1184)"><tspan x="173.991" y="16" fill="#000" font-family="Helvetica Neue" font-size="16" font-weight="bold" xml:space="preserve">eth0</tspan></text></g><g id="Graphic_291"><path fill="#dadada" d="M 1096.8692 565.5118 L 1187.7913 565.5118 C 1190.0005 565.5118 1191.7913 567.3027 1191.7913 569.5118 L 1191.7913 589.85826 C 1191.7913 592.0674 1190.0005 593.85826 1187.7913 593.85826 L 1096.8692 593.85826 C 1094.66 593.85826 1092.8692 592.0674 1092.8692 589.85826 L 1092.8692 569.5118 C 1092.8692 567.3027 1094.66 565.5118 1096.8692 565.5118 Z"/><text fill="#000" transform="translate(1097.8692 569.953)"><tspan x="27.861" y="16" fill="#000" font-family="Helvetica Neue" font-size="16" font-weight="bold" xml:space="preserve">eth0</tspan></text></g><g id="Graphic_277"><path fill="#dadada" d="M 1667.937 1462.5093 L 2051.1181 1462.5093 C 2053.3273 1462.5093 2055.1181 1464.3001 2055.1181 1466.5093 L 2055.1181 1487.0236 C 2055.1181 1489.2328 2053.3273 1491.0236 2051.1181 1491.0236 L 1667.937 1491.0236 C 1665.7279 1491.0236 1663.937 1489.2328 1663.937 1487.0236 L 1663.937 1466.5093 C 1663.937 1464.3001 1665.7279 1462.5093 1667.937 1462.5093 Z"/><path stroke="gray" stroke-linecap="round" stroke-linejoin="round" stroke-width="1" d="M 1667.937 1462.5093 L 2051.1181 1462.5093 C 2053.3273 1462.5093 2055.1181 1464.3001 2055.1181 1466.5093 L 2055.1181 1487.0236 C 2055.1181 1489.2328 2053.3273 1491.0236 2051.1181 1491.0236 L 1667.937 1491.0236 C 1665.7279 1491.0236 1663.937 1489.2328 1663.937 1487.0236 L 1663.937 1466.5093 C 1663.937 1464.3001 1665.7279 1462.5093 1667.937 1462.5093 Z"/><text fill="#000" transform="translate(1668.937 1467.0344)"><tspan x="173.991" y="16" fill="#000" font-family="Helvetica Neue" font-size="16" font-weight="bold" xml:space="preserve">eth0</tspan></text></g><g id="Graphic_275"><path fill="#dadada" d="M 1667.937 1057.805 L 2051.1181 1057.805 C 2053.3273 1057.805 2055.1181 1059.5959 2055.1181 1061.805 L 2055.1181 1111.5388 C 2055.1181 1113.748 2053.3273 1115.5388 2051.1181 1115.5388 L 1667.937 1115.5388 C 1665.7279 1115.5388 1663.937 1113.748 1663.937 1111.5388 L 1663.937 1061.805 C 1663.937 1059.5959 1665.7279 1057.805 1667.937 1057.805 Z"/><path stroke="gray" stroke-linecap="round" stroke-linejoin="round" stroke-width="1" d="M 1667.937 1057.805 L 2051.1181 1057.805 C 2053.3273 1057.805 2055.1181 1059.5959 2055.1181 1061.805 L 2055.1181 1111.5388 C 2055.1181 1113.748 2053.3273 1115.5388 2051.1181 1115.5388 L 1667.937 1115.5388 C 1665.7279 1115.5388 1663.937 1113.748 1663.937 1111.5388 L 1663.937 1061.805 C 1663.937 1059.5959 1665.7279 1057.805 1667.937 1057.805 Z"/><text fill="#000" transform="translate(1668.937 1067.7159)"><tspan x="162.767" y="16" fill="#000" font-family="Helvetica Neue" font-size="16" font-weight="bold" xml:space="preserve">pistioin</tspan> <tspan x="139.439" y="34.464" fill="#000" font-family="Helvetica Neue" font-size="16" xml:space="preserve">192.168.126.2</tspan></text></g><g id="Graphic_273"><path fill="#f05a26" d="M 1791.4724 923.1182 L 1854.2244 923.1182 C 1856.4335 923.1182 1858.2244 924.909 1858.2244 927.1182 L 1858.2244 947.4646 C 1858.2244 949.6738 1856.4335 951.4646 1854.2244 951.4646 L 1791.4724 951.4646 C 1789.2633 951.4646 1787.4724 949.6738 1787.4724 947.4646 L 1787.4724 927.1182 C 1787.4724 924.909 1789.2633 923.1182 1791.4724 923.1182 Z"/><text fill="#fff" transform="translate(1792.4724 927.5593)"><tspan x="8.136" y="16" fill="#fff" font-family="Helvetica Neue" font-size="16" font-weight="bold" xml:space="preserve">15006</tspan></text></g><g id="Graphic_268"><path fill="#dadada" d="M 1814.0665 565.5118 L 1904.9887 565.5118 C 1907.1978 565.5118 1908.9887 567.3027 1908.9887 569.5118 L 1908.9887 589.85826 C 1908.9887 592.0674 1907.1978 593.85826 1904.9887 593.85826 L 1814.0665 593.85826 C 1811.8574 593.85826 1810.0665 592.0674 1810.0665 589.85826 L 1810.0665 569.5118 C 1810.0665 567.3027 1811.8574 565.5118 1814.0665 565.5118 Z"/><text fill="#000" transform="translate(1815.0665 569.953)"><tspan x="27.861" y="16" fill="#000" font-family="Helvetica Neue" font-size="16" font-weight="bold" xml:space="preserve">eth0</tspan></text></g><g id="Graphic_262"><path fill="#f05a26" d="M 1862.2244 923.1182 L 1924.9764 923.1182 C 1927.1855 923.1182 1928.9764 924.909 1928.9764 927.1182 L 1928.9764 947.4646 C 1928.9764 949.6738 1927.1855 951.4646 1924.9764 951.4646 L 1862.2244 951.4646 C 1860.0153 951.4646 1858.2244 949.6738 1858.2244 947.4646 L 1858.2244 927.1182 C 1858.2244 924.909 1860.0153 923.1182 1862.2244 923.1182 Z"/><text fill="#fff" transform="translate(1863.2244 927.5593)"><tspan x="8.136" y="16" fill="#fff" font-family="Helvetica Neue" font-size="16" font-weight="bold" xml:space="preserve">15008</tspan></text></g><g id="Line_261"><path stroke="#456bb0" stroke-linecap="round" stroke-linejoin="round" stroke-width="2" d="M 1859.5276 1057.805 L 1859.5276 1002.9542 L 1822.8484 1002.9542 L 1822.8484 951.4646"/></g><g id="Line_260"><path stroke="#456bb0" stroke-linecap="round" stroke-linejoin="round" stroke-width="2" d="M 1859.5276 1015.7748 L 1859.5276 1002.8293 L 1893.6004 1002.8293 L 1893.6004 951.4646"/></g><g id="Graphic_259"><rect width="58.11" height="24.336" x="1864.545" y="968.042" fill="#fffef4"/><text fill="#000" transform="translate(1869.5453 973.0416)"><tspan x="13.387" y="11" fill="#000" font-family="Helvetica Neue" font-size="12" xml:space="preserve">TLS</tspan></text></g><g id="Graphic_258"><rect width="58.11" height="24.336" x="1793.793" y="967.588" fill="#fffef4"/><text fill="#000" transform="translate(1798.7933 972.5882)"><tspan x="10.945" y="11" fill="#000" font-family="Helvetica Neue" font-size="12" xml:space="preserve">Plain</tspan></text></g><g id="Line_257"><path stroke="#456bb0" stroke-linecap="round" stroke-linejoin="round" stroke-width="2" d="M 1822.8484 923.1182 L 1822.8484 900.8759 L 1859.5276 900.8759 L 1859.5276 878.6337"/></g><g id="Line_256"><path stroke="#456bb0" stroke-linecap="round" stroke-linejoin="round" stroke-width="2" d="M 1893.6004 923.1182 L 1893.6004 900.8759 L 1859.5276 900.8759 L 1859.5276 878.6337"/></g><g id="Line_327"><line x1="1142.33" x2="1142.33" y1="593.858" y2="1462.677" stroke="#456bb0" stroke-linecap="round" stroke-linejoin="round" stroke-width="2"/></g><g id="Line_328"><line x1="1859.528" x2="1859.528" y1="1462.509" y2="1115.539" stroke="#456bb0" stroke-linecap="round" stroke-linejoin="round" stroke-width="2"/></g><g id="Line_329"><line x1="1859.528" x2="1859.528" y1="843.644" y2="606.758" stroke="#456bb0" stroke-linecap="round" stroke-linejoin="round" stroke-width="2" marker-end="url(#FilledArrow_Marker)"/></g><g id="Graphic_313"><path fill="#dadada" d="M 1667.937 1230.6718 L 2051.1181 1230.6718 C 2053.3273 1230.6718 2055.1181 1232.4627 2055.1181 1234.6718 L 2055.1181 1284.4056 C 2055.1181 1286.6147 2053.3273 1288.4056 2051.1181 1288.4056 L 1667.937 1288.4056 C 1665.7279 1288.4056 1663.937 1286.6147 1663.937 1284.4056 L 1663.937 1234.6718 C 1663.937 1232.4627 1665.7279 1230.6718 1667.937 1230.6718 Z"/><path stroke="gray" stroke-linecap="round" stroke-linejoin="round" stroke-width="1" d="M 1667.937 1230.6718 L 2051.1181 1230.6718 C 2053.3273 1230.6718 2055.1181 1232.4627 2055.1181 1234.6718 L 2055.1181 1284.4056 C 2055.1181 1286.6147 2053.3273 1288.4056 2051.1181 1288.4056 L 1667.937 1288.4056 C 1665.7279 1288.4056 1663.937 1286.6147 1663.937 1284.4056 L 1663.937 1234.6718 C 1663.937 1232.4627 1665.7279 1230.6718 1667.937 1230.6718 Z"/><text fill="#000" transform="translate(1668.937 1240.5826)"><tspan x="167.655" y="16" fill="#000" font-family="Helvetica Neue" font-size="16" font-weight="bold" xml:space="preserve">istioin</tspan> <tspan x="139.439" y="34.464" fill="#000" font-family="Helvetica Neue" font-size="16" xml:space="preserve">192.168.126.1</tspan></text></g><g id="Graphic_276"><path fill="#fffef3" d="M 1667.937 1376.4166 L 2051.1181 1376.4166 C 2053.3273 1376.4166 2055.1181 1378.2075 2055.1181 1380.4166 L 2055.1181 1430.1504 C 2055.1181 1432.3595 2053.3273 1434.1504 2051.1181 1434.1504 L 1667.937 1434.1504 C 1665.7279 1434.1504 1663.937 1432.3595 1663.937 1430.1504 L 1663.937 1380.4166 C 1663.937 1378.2075 1665.7279 1376.4166 1667.937 1376.4166 Z"/><path stroke="gray" stroke-linecap="round" stroke-linejoin="round" stroke-width="1" d="M 1667.937 1376.4166 L 2051.1181 1376.4166 C 2053.3273 1376.4166 2055.1181 1378.2075 2055.1181 1380.4166 L 2055.1181 1430.1504 C 2055.1181 1432.3595 2053.3273 1434.1504 2051.1181 1434.1504 L 1667.937 1434.1504 C 1665.7279 1434.1504 1663.937 1432.3595 1663.937 1430.1504 L 1663.937 1380.4166 C 1663.937 1378.2075 1665.7279 1376.4166 1667.937 1376.4166 Z"/><text fill="#f05a26" transform="translate(1668.937 1386.3274)"><tspan x="110.463" y="16" fill="#f05a26" font-family="Helvetica Neue" font-size="16" font-weight="bold" xml:space="preserve">Istio CNI Node Agent</tspan> <tspan x="38.559" y="34.464" fill="#f05a26" font-family="Helvetica Neue" font-size="16" xml:space="preserve">Setup iptables rules and veth pair for node</tspan></text></g><g id="Graphic_272"><rect width="391.181" height="24.336" x="1663.937" y="1015.775" fill="#fffef4"/><text fill="#f05a26" transform="translate(1668.937 1018.7188)"><tspan x="168.071" y="15" fill="#f05a26" font-family="Helvetica Neue" font-size="16" xml:space="preserve">tproxy</tspan></text></g><g id="Graphic_284"><path fill="#dadada" d="M 950.7397 1336.8845 L 1333.9208 1336.8845 C 1336.13 1336.8845 1337.9208 1338.6753 1337.9208 1340.8845 L 1337.9208 1361.231 C 1337.9208 1363.44 1336.13 1365.231 1333.9208 1365.231 L 950.7397 1365.231 C 948.5306 1365.231 946.7397 1363.44 946.7397 1361.231 L 946.7397 1340.8845 C 946.7397 1338.6753 948.5306 1336.8845 950.7397 1336.8845 Z"/><path stroke="gray" stroke-linecap="round" stroke-linejoin="round" stroke-width="1" d="M 950.7397 1336.8845 L 1333.9208 1336.8845 C 1336.13 1336.8845 1337.9208 1338.6753 1337.9208 1340.8845 L 1337.9208 1361.231 C 1337.9208 1363.44 1336.13 1365.231 1333.9208 1365.231 L 950.7397 1365.231 C 948.5306 1365.231 946.7397 1363.44 946.7397 1361.231 L 946.7397 1340.8845 C 946.7397 1338.6753 948.5306 1336.8845 950.7397 1336.8845 Z"/><text fill="#000" transform="translate(951.7397 1341.3256)"><tspan x="161.391" y="16" fill="#000" font-family="Helvetica Neue" font-size="16" font-weight="bold" xml:space="preserve">vethxxx</tspan></text></g><g id="Graphic_303"><path fill="#f05a26" d="M 1031.5591 958.1307 L 1256 958.1307 C 1258.2092 958.1307 1260 959.9216 1260 962.1307 L 1260 982.4772 C 1260 984.6863 1258.2092 986.4772 1256 986.4772 L 1031.5591 986.4772 C 1029.3499 986.4772 1027.5591 984.6863 1027.5591 982.4772 L 1027.5591 962.1307 C 1027.5591 959.9216 1029.3499 958.1307 1031.5591 958.1307 Z"/><text fill="#fff" transform="translate(1032.5591 962.5719)"><tspan x="8.548" y="16" fill="#fff" font-family="Helvetica Neue" font-size="16" font-weight="bold" xml:space="preserve">Ztunnel_outbound Listener</tspan></text></g><g id="Graphic_302"><path fill="#f05a26" d="M 1031.5591 1029.5366 L 1256 1029.5366 C 1258.2092 1029.5366 1260 1031.3274 1260 1033.5366 L 1260 1053.883 C 1260 1056.0922 1258.2092 1057.883 1256 1057.883 L 1031.5591 1057.883 C 1029.3499 1057.883 1027.5591 1056.0922 1027.5591 1053.883 L 1027.5591 1033.5366 C 1027.5591 1031.3274 1029.3499 1029.5366 1031.5591 1029.5366 Z"/><text fill="#fff" transform="translate(1032.5591 1033.9778)"><tspan x="45.436" y="16" fill="#fff" font-family="Helvetica Neue" font-size="16" font-weight="bold" xml:space="preserve">Service A Cluster</tspan></text></g><g id="Graphic_301"><path fill="#f05a26" d="M 1031.5591 1100.9424 L 1256 1100.9424 C 1258.2092 1100.9424 1260 1102.7333 1260 1104.9424 L 1260 1125.2889 C 1260 1127.498 1258.2092 1129.2889 1256 1129.2889 L 1031.5591 1129.2889 C 1029.3499 1129.2889 1027.5591 1127.498 1027.5591 1125.2889 L 1027.5591 1104.9424 C 1027.5591 1102.7333 1029.3499 1100.9424 1031.5591 1100.9424 Z"/><text fill="#fff" transform="translate(1032.5591 1105.3836)"><tspan x="9.316" y="16" fill="#fff" font-family="Helvetica Neue" font-size="16" font-weight="bold" xml:space="preserve">Internal Upstream Listener</tspan></text></g><g id="Graphic_298"><path fill="#f05a26" d="M 1031.5591 1172.3483 L 1256 1172.3483 C 1258.2092 1172.3483 1260 1174.1391 1260 1176.3483 L 1260 1196.6947 C 1260 1198.9039 1258.2092 1200.6947 1256 1200.6947 L 1031.5591 1200.6947 C 1029.3499 1200.6947 1027.5591 1198.9039 1027.5591 1196.6947 L 1027.5591 1176.3483 C 1027.5591 1174.1391 1029.3499 1172.3483 1031.5591 1172.3483 Z"/><text fill="#fff" transform="translate(1032.5591 1176.7894)"><tspan x="16.244" y="16" fill="#fff" font-family="Helvetica Neue" font-size="16" font-weight="bold" xml:space="preserve">Outbound Tunnel Cluster</tspan></text></g><g id="Graphic_287"><path fill="#f05a26" d="M 1112.4035 900.3078 L 1175.1555 900.3078 C 1177.3647 900.3078 1179.1555 902.0986 1179.1555 904.3078 L 1179.1555 924.6542 C 1179.1555 926.8634 1177.3647 928.6542 1175.1555 928.6542 L 1112.4035 928.6542 C 1110.1944 928.6542 1108.4035 926.8634 1108.4035 924.6542 L 1108.4035 904.3078 C 1108.4035 902.0986 1110.1944 900.3078 1112.4035 900.3078 Z"/><text fill="#fff" transform="translate(1113.4035 904.7489)"><tspan x="8.136" y="16" fill="#fff" font-family="Helvetica Neue" font-size="16" font-weight="bold" xml:space="preserve">15001</tspan></text></g><g id="Graphic_299"><rect width="243.071" height="24.336" x="1020.795" y="994.921" fill="#fff"/><text fill="#000" transform="translate(1025.7948 999.9207)"><tspan x="7.173" y="11" fill="#000" font-family="Helvetica Neue" font-size="12" xml:space="preserve">Match the destination port and cluster IP</tspan></text></g><g id="Graphic_295"><rect width="243.071" height="26.392" x="1020.795" y="772.126" fill="#fff"/><text fill="#f05a26" transform="translate(1025.7948 777.1257)"><tspan x="71.413" y="13" fill="#f05a26" font-family="Helvetica Neue" font-size="14" xml:space="preserve">Geneve tunnel</tspan></text></g><g id="Graphic_294"><rect width="42.608" height="24.336" x="1121.026" y="1072.557" fill="#fff"/><text fill="#000" transform="translate(1126.0263 1077.5572)"><tspan x="4.526" y="11" fill="#000" font-family="Helvetica Neue" font-size="12" xml:space="preserve">EDS</tspan></text></g><g id="Graphic_288"><rect width="289.936" height="39.684" x="997.362" y="665.128" fill="#fff"/><text fill="#f05a26" transform="translate(1002.3623 670.1279)"><tspan x="34.992" y="12" fill="#f05a26" font-family="Helvetica Neue" font-size="12" font-weight="bold" xml:space="preserve">iptables chain ztunnel-PREROUTING</tspan> <tspan x="89.946" y="26.348" fill="#f05a26" font-family="Helvetica Neue" font-size="12" xml:space="preserve">mark 0x100/0x100</tspan></text></g><g id="Graphic_286"><rect width="136.772" height="24.336" x="1073.944" y="1141.229" fill="#fff"/><text fill="#000" transform="translate(1078.9444 1146.2295)"><tspan x="10.934" y="11" fill="#000" font-family="Helvetica Neue" font-size="12" xml:space="preserve">HTTP Tunnel config</tspan></text></g><g id="Graphic_271"><rect width="289.936" height="43.798" x="1714.56" y="1309.213" fill="#fff"/><text fill="#f05a26" transform="translate(1719.5596 1314.2127)"><tspan x="17.496" y="14" fill="#f05a26" font-family="Helvetica Neue" font-size="14" font-weight="bold" xml:space="preserve">iptables chain ztunnel-PREROUTING</tspan> <tspan x="81.609" y="30.406" fill="#f05a26" font-family="Helvetica Neue" font-size="14" xml:space="preserve">mark 0x200/0x200</tspan></text></g><g id="Graphic_270"><rect width="243.071" height="26.392" x="1737.992" y="1189.318" fill="#fff"/><text fill="#f05a26" transform="translate(1742.9921 1194.3184)"><tspan x="71.413" y="13" fill="#f05a26" font-family="Helvetica Neue" font-size="14" xml:space="preserve">Geneve tunnel</tspan></text></g><g id="Graphic_292"><rect width="391.181" height="25.348" x="946.74" y="863.273" fill="#fffef4"/><text fill="#f05a26" transform="translate(951.7397 866.7232)"><tspan x="168.071" y="15" fill="#f05a26" font-family="Helvetica Neue" font-size="16" xml:space="preserve">tproxy</tspan></text></g><g id="Graphic_319"><path fill="#dadada" d="M 1023.3456 807.6325 L 1261.315 807.6325 C 1263.5241 807.6325 1265.315 809.4234 1265.315 811.6325 L 1265.315 850.4042 C 1265.315 852.6133 1263.5241 854.4042 1261.315 854.4042 L 1023.3456 854.4042 C 1021.1364 854.4042 1019.3456 852.6133 1019.3456 850.4042 L 1019.3456 811.6325 C 1019.3456 809.4234 1021.1364 807.6325 1023.3456 807.6325 Z"/><path stroke="gray" stroke-linecap="round" stroke-linejoin="round" stroke-width="1" d="M 1023.3456 807.6325 L 1261.315 807.6325 C 1263.5241 807.6325 1265.315 809.4234 1265.315 811.6325 L 1265.315 850.4042 C 1265.315 852.6133 1263.5241 854.4042 1261.315 854.4042 L 1023.3456 854.4042 C 1021.1364 854.4042 1019.3456 852.6133 1019.3456 850.4042 L 1019.3456 811.6325 C 1019.3456 809.4234 1021.1364 807.6325 1023.3456 807.6325 Z"/><text fill="#000" transform="translate(1024.3456 812.0623)"><tspan x="84.521" y="16" fill="#000" font-family="Helvetica Neue" font-size="16" font-weight="bold" xml:space="preserve">pistioout</tspan> <tspan x="66.833" y="34.464" fill="#000" font-family="Helvetica Neue" font-size="16" xml:space="preserve">192.168.127.2</tspan></text></g><g id="Graphic_320"><path fill="#dadada" d="M 950.7397 716.1306 L 1333.9208 716.1306 C 1336.13 716.1306 1337.9208 717.9214 1337.9208 720.1306 L 1337.9208 758.9022 C 1337.9208 761.1114 1336.13 762.9022 1333.9208 762.9022 L 950.7397 762.9022 C 948.5306 762.9022 946.7397 761.1114 946.7397 758.9022 L 946.7397 720.1306 C 946.7397 717.9214 948.5306 716.1306 950.7397 716.1306 Z"/><path stroke="gray" stroke-linecap="round" stroke-linejoin="round" stroke-width="1" d="M 950.7397 716.1306 L 1333.9208 716.1306 C 1336.13 716.1306 1337.9208 717.9214 1337.9208 720.1306 L 1337.9208 758.9022 C 1337.9208 761.1114 1336.13 762.9022 1333.9208 762.9022 L 950.7397 762.9022 C 948.5306 762.9022 946.7397 761.1114 946.7397 758.9022 L 946.7397 720.1306 C 946.7397 717.9214 948.5306 716.1306 950.7397 716.1306 Z"/><text fill="#000" transform="translate(951.7397 720.56035)"><tspan x="162.015" y="16" fill="#000" font-family="Helvetica Neue" font-size="16" font-weight="bold" xml:space="preserve">istioout</tspan> <tspan x="139.439" y="34.464" fill="#000" font-family="Helvetica Neue" font-size="16" xml:space="preserve">192.168.127.1</tspan></text></g><g id="Graphic_290"><path fill="#dadada" d="M 950.7397 621.0642 L 1333.9208 621.0642 C 1336.13 621.0642 1337.9208 622.8551 1337.9208 625.0642 L 1337.9208 645.4107 C 1337.9208 647.6198 1336.13 649.4107 1333.9208 649.4107 L 950.7397 649.4107 C 948.5306 649.4107 946.7397 647.6198 946.7397 645.4107 L 946.7397 625.0642 C 946.7397 622.8551 948.5306 621.0642 950.7397 621.0642 Z"/><path stroke="gray" stroke-linecap="round" stroke-linejoin="round" stroke-width="1" d="M 950.7397 621.0642 L 1333.9208 621.0642 C 1336.13 621.0642 1337.9208 622.8551 1337.9208 625.0642 L 1337.9208 645.4107 C 1337.9208 647.6198 1336.13 649.4107 1333.9208 649.4107 L 950.7397 649.4107 C 948.5306 649.4107 946.7397 647.6198 946.7397 645.4107 L 946.7397 625.0642 C 946.7397 622.8551 948.5306 621.0642 950.7397 621.0642 Z"/><text fill="#000" transform="translate(951.7397 625.5054)"><tspan x="161.391" y="16" fill="#000" font-family="Helvetica Neue" font-size="16" font-weight="bold" xml:space="preserve">vethxxx</tspan></text></g><g id="Graphic_269"><path fill="#dadada" d="M 1795.1417 711.4961 L 1923.9134 711.4961 C 1926.1225 711.4961 1927.9134 713.2869 1927.9134 715.4961 L 1927.9134 728.7536 C 1927.9134 730.9627 1926.1225 732.7536 1923.9134 732.7536 L 1795.1417 732.7536 C 1792.9326 732.7536 1791.1417 730.9627 1791.1417 728.7536 L 1791.1417 715.4961 C 1791.1417 713.2869 1792.9326 711.4961 1795.1417 711.4961 Z"/><path stroke="gray" stroke-linecap="round" stroke-linejoin="round" stroke-width="1" d="M 1795.1417 711.4961 L 1923.9134 711.4961 C 1926.1225 711.4961 1927.9134 713.2869 1927.9134 715.4961 L 1927.9134 728.7536 C 1927.9134 730.9627 1926.1225 732.7536 1923.9134 732.7536 L 1795.1417 732.7536 C 1792.9326 732.7536 1791.1417 730.9627 1791.1417 728.7536 L 1791.1417 715.4961 C 1791.1417 713.2869 1792.9326 711.4961 1795.1417 711.4961 Z"/><text fill="#000" transform="translate(1796.1417 712.3928)"><tspan x="46.786" y="16" fill="#000" font-family="Helvetica Neue" font-size="16" font-weight="bold" xml:space="preserve">eth0</tspan></text></g><g id="Graphic_267"><path fill="#dadada" d="M 1667.937 666.1417 L 2051.1181 666.1417 C 2053.3273 666.1417 2055.1181 667.9326 2055.1181 670.1417 L 2055.1181 683.39925 C 2055.1181 685.6084 2053.3273 687.39925 2051.1181 687.39925 L 1667.937 687.39925 C 1665.7279 687.39925 1663.937 685.6084 1663.937 683.39925 L 1663.937 670.1417 C 1663.937 667.9326 1665.7279 666.1417 1667.937 666.1417 Z"/><path stroke="gray" stroke-linecap="round" stroke-linejoin="round" stroke-width="1" d="M 1667.937 666.1417 L 2051.1181 666.1417 C 2053.3273 666.1417 2055.1181 667.9326 2055.1181 670.1417 L 2055.1181 683.39925 C 2055.1181 685.6084 2053.3273 687.39925 2051.1181 687.39925 L 1667.937 687.39925 C 1665.7279 687.39925 1663.937 685.6084 1663.937 683.39925 L 1663.937 670.1417 C 1663.937 667.9326 1665.7279 666.1417 1667.937 666.1417 Z"/><text fill="#000" transform="translate(1668.937 667.0384)"><tspan x="161.391" y="16" fill="#000" font-family="Helvetica Neue" font-size="16" font-weight="bold" xml:space="preserve">vethxxx</tspan></text></g><g id="Graphic_266"><path fill="#dadada" d="M 1667.937 619.37124 L 2051.1181 619.37124 C 2053.3273 619.37124 2055.1181 621.1621 2055.1181 623.37124 L 2055.1181 636.62876 C 2055.1181 638.8379 2053.3273 640.62876 2051.1181 640.62876 L 1667.937 640.62876 C 1665.7279 640.62876 1663.937 638.8379 1663.937 636.62876 L 1663.937 623.37124 C 1663.937 621.1621 1665.7279 619.37124 1667.937 619.37124 Z"/><path stroke="gray" stroke-linecap="round" stroke-linejoin="round" stroke-width="1" d="M 1667.937 619.37124 L 2051.1181 619.37124 C 2053.3273 619.37124 2055.1181 621.1621 2055.1181 623.37124 L 2055.1181 636.62876 C 2055.1181 638.8379 2053.3273 640.62876 2051.1181 640.62876 L 1667.937 640.62876 C 1665.7279 640.62876 1663.937 638.8379 1663.937 636.62876 L 1663.937 623.37124 C 1663.937 621.1621 1665.7279 619.37124 1667.937 619.37124 Z"/><text fill="#000" transform="translate(1668.937 620.26794)"><tspan x="161.391" y="16" fill="#000" font-family="Helvetica Neue" font-size="16" font-weight="bold" xml:space="preserve">vethxxx</tspan></text></g><g id="Graphic_285"><path fill="#dadada" d="M 1037.937 1286.409 L 1249.622 1286.409 C 1251.8312 1286.409 1253.622 1288.1999 1253.622 1290.409 L 1253.622 1306.6404 C 1253.622 1308.8495 1251.8312 1310.6404 1249.622 1310.6404 L 1037.937 1310.6404 C 1035.7279 1310.6404 1033.937 1308.8495 1033.937 1306.6404 L 1033.937 1290.409 C 1033.937 1288.1999 1035.7279 1286.409 1037.937 1286.409 Z"/><path stroke="gray" stroke-linecap="round" stroke-linejoin="round" stroke-width="1" d="M 1037.937 1286.409 L 1249.622 1286.409 C 1251.8312 1286.409 1253.622 1288.1999 1253.622 1290.409 L 1253.622 1306.6404 C 1253.622 1308.8495 1251.8312 1310.6404 1249.622 1310.6404 L 1037.937 1310.6404 C 1035.7279 1310.6404 1033.937 1308.8495 1033.937 1306.6404 L 1033.937 1290.409 C 1033.937 1288.1999 1035.7279 1286.409 1037.937 1286.409 Z"/><text fill="#000" transform="translate(1038.937 1288.7926)"><tspan x="88.243" y="16" fill="#000" font-family="Helvetica Neue" font-size="16" font-weight="bold" xml:space="preserve">eth0</tspan></text></g><g id="Line_330"><line x1="1337.921" x2="1651.037" y1="1476.828" y2="1476.791" stroke="#456bb0" stroke-linecap="round" stroke-linejoin="round" stroke-width="2" marker-end="url(#FilledArrow_Marker)"/></g><g id="Graphic_331"><path fill="#fffef3" d="M 950.7397 1386.6848 L 1333.9208 1386.6848 C 1336.13 1386.6848 1337.9208 1388.4757 1337.9208 1390.6848 L 1337.9208 1440.4186 C 1337.9208 1442.6277 1336.13 1444.4186 1333.9208 1444.4186 L 950.7397 1444.4186 C 948.5306 1444.4186 946.7397 1442.6277 946.7397 1440.4186 L 946.7397 1390.6848 C 946.7397 1388.4757 948.5306 1386.6848 950.7397 1386.6848 Z"/><path stroke="gray" stroke-linecap="round" stroke-linejoin="round" stroke-width="1" d="M 950.7397 1386.6848 L 1333.9208 1386.6848 C 1336.13 1386.6848 1337.9208 1388.4757 1337.9208 1390.6848 L 1337.9208 1440.4186 C 1337.9208 1442.6277 1336.13 1444.4186 1333.9208 1444.4186 L 950.7397 1444.4186 C 948.5306 1444.4186 946.7397 1442.6277 946.7397 1440.4186 L 946.7397 1390.6848 C 946.7397 1388.4757 948.5306 1386.6848 950.7397 1386.6848 Z"/><text fill="#f05a26" transform="translate(951.7397 1396.5957)"><tspan x="110.463" y="16" fill="#f05a26" font-family="Helvetica Neue" font-size="16" font-weight="bold" xml:space="preserve">Istio CNI Node Agent</tspan> <tspan x="38.559" y="34.464" fill="#f05a26" font-family="Helvetica Neue" font-size="16" xml:space="preserve">Setup iptables rules and veth pair for node</tspan></text></g></g></g></svg>