<svg xmlns="http://www.w3.org/2000/svg" xmlns:xl="http://www.w3.org/1999/xlink" width="750" height="575" version="1.1" viewBox="-388 282 750 575"><defs><marker id="FilledArrow_Marker" stroke-linejoin="miter" stroke-miterlimit="10" color="#b34400" markerHeight="8" markerUnits="strokeWidth" markerWidth="10" orient="auto" overflow="visible" viewBox="-1 -4 10 8"><g><path fill="currentColor" stroke="currentColor" stroke-width="1" d="M 8 0 L 0 -3 L 0 3 Z"/></g></marker></defs><g id="control-plane-and-data-plane" fill="none" fill-opacity="1" stroke="none" stroke-dasharray="none" stroke-opacity="1"><title>control-plane-and-data-plane</title><rect width="750" height="575" x="-388" y="282" fill="#fff"/><g id="control-plane-and-data-plane_Layer_1"><title>Layer 1</title><g id="Graphic_44"><path fill="#f2f2f2" d="M -352.75 300.75 L -181.25 300.75 C -179.04086 300.75 -177.25 302.54086 -177.25 304.75 L -177.25 584.5 C -177.25 586.70914 -179.04086 588.5 -181.25 588.5 L -352.75 588.5 C -354.95914 588.5 -356.75 586.70914 -356.75 584.5 L -356.75 304.75 C -356.75 302.54086 -354.95914 300.75 -352.75 300.75 Z"/><path stroke="#a5a5a5" stroke-linecap="round" stroke-linejoin="round" stroke-width="1" d="M -352.75 300.75 L -181.25 300.75 C -179.04086 300.75 -177.25 302.54086 -177.25 304.75 L -177.25 584.5 C -177.25 586.70914 -179.04086 588.5 -181.25 588.5 L -352.75 588.5 C -354.95914 588.5 -356.75 586.70914 -356.75 584.5 L -356.75 304.75 C -356.75 302.54086 -354.95914 300.75 -352.75 300.75 Z"/></g><g id="Graphic_43"><path fill="#f2f2f2" d="M -99 300.75 L 72.5 300.75 C 74.70914 300.75 76.5 302.54086 76.5 304.75 L 76.5 584.5 C 76.5 586.70914 74.70914 588.5 72.5 588.5 L -99 588.5 C -101.20914 588.5 -103 586.70914 -103 584.5 L -103 304.75 C -103 302.54086 -101.20914 300.75 -99 300.75 Z"/><path stroke="#a5a5a5" stroke-linecap="round" stroke-linejoin="round" stroke-width="1" d="M -99 300.75 L 72.5 300.75 C 74.70914 300.75 76.5 302.54086 76.5 304.75 L 76.5 584.5 C 76.5 586.70914 74.70914 588.5 72.5 588.5 L -99 588.5 C -101.20914 588.5 -103 586.70914 -103 584.5 L -103 304.75 C -103 302.54086 -101.20914 300.75 -99 300.75 Z"/></g><g id="Graphic_42"><path fill="#f2f2f2" d="M 154.75 300.75 L 326.25 300.75 C 328.45914 300.75 330.25 302.54086 330.25 304.75 L 330.25 584.5 C 330.25 586.70914 328.45914 588.5 326.25 588.5 L 154.75 588.5 C 152.54086 588.5 150.75 586.70914 150.75 584.5 L 150.75 304.75 C 150.75 302.54086 152.54086 300.75 154.75 300.75 Z"/><path stroke="#a5a5a5" stroke-linecap="round" stroke-linejoin="round" stroke-width="1" d="M 154.75 300.75 L 326.25 300.75 C 328.45914 300.75 330.25 302.54086 330.25 304.75 L 330.25 584.5 C 330.25 586.70914 328.45914 588.5 326.25 588.5 L 154.75 588.5 C 152.54086 588.5 150.75 586.70914 150.75 584.5 L 150.75 304.75 C 150.75 302.54086 152.54086 300.75 154.75 300.75 Z"/></g><g id="Line_41"><line x1="240.5" x2="240.5" y1="377.75" y2="561.941" stroke="#666" stroke-linecap="round" stroke-linejoin="round" stroke-width="2"/></g><g id="Line_40"><line x1="-13.25" x2="-13.25" y1="377.75" y2="561.941" stroke="#666" stroke-linecap="round" stroke-linejoin="round" stroke-width="2"/></g><g id="Line_39"><line x1="-267" x2="-267" y1="377.75" y2="561.941" stroke="#666" stroke-linecap="round" stroke-linejoin="round" stroke-width="2"/></g><g id="Graphic_38"><path fill="#666" d="M -333 327.75 L -201 327.75 C -198.79086 327.75 -197 329.54086 -197 331.75 L -197 373.75 C -197 375.95914 -198.79086 377.75 -201 377.75 L -333 377.75 C -335.20914 377.75 -337 375.95914 -337 373.75 L -337 331.75 C -337 329.54086 -335.20914 327.75 -333 327.75 Z"/><text fill="#fff" transform="translate(-332 343.526)"><tspan x="42.92" y="15" fill="#fff" font-family="Helvetica Neue" font-size="16" xml:space="preserve">App A</tspan></text></g><g id="Graphic_37"><path fill="#666" d="M 174.5 327.75 L 306.5 327.75 C 308.70914 327.75 310.5 329.54086 310.5 331.75 L 310.5 373.75 C 310.5 375.95914 308.70914 377.75 306.5 377.75 L 174.5 377.75 C 172.29086 377.75 170.5 375.95914 170.5 373.75 L 170.5 331.75 C 170.5 329.54086 172.29086 327.75 174.5 327.75 Z"/><text fill="#fff" transform="translate(175.5 343.526)"><tspan x="42.624" y="15" fill="#fff" font-family="Helvetica Neue" font-size="16" xml:space="preserve">App B</tspan></text></g><g id="Graphic_36"><path fill="#666" d="M -79.25 327.75 L 52.75 327.75 C 54.95914 327.75 56.75 329.54086 56.75 331.75 L 56.75 373.75 C 56.75 375.95914 54.95914 377.75 52.75 377.75 L -79.25 377.75 C -81.45914 377.75 -83.25 375.95914 -83.25 373.75 L -83.25 331.75 C -83.25 329.54086 -81.45914 327.75 -79.25 327.75 Z"/><text fill="#fff" transform="translate(-78.25 343.526)"><tspan x="42.92" y="15" fill="#fff" font-family="Helvetica Neue" font-size="16" xml:space="preserve">App A</tspan></text></g><g id="Graphic_35"><path fill="#f05a26" d="M -265.65465 562.174 L -207.5475 582.9265 C -205.46707 583.66954 -204.38287 585.9584 -205.12589 588.03884 C -205.52925 589.16826 -206.4181 590.0571 -207.5475 590.46046 L -265.65465 611.213 C -266.52464 611.5237 -267.47536 611.5237 -268.34535 611.213 L -326.4525 590.46046 C -328.53293 589.71745 -329.61713 587.4286 -328.8741 585.34815 C -328.47075 584.2187 -327.5819 583.3299 -326.4525 582.9265 L -268.34535 562.174 C -267.47536 561.8633 -266.52464 561.8633 -265.65465 562.174 Z"/><text fill="#fff" transform="translate(-332 577.4695)"><tspan x="37.888" y="15" fill="#fff" font-family="Helvetica Neue" font-size="16" xml:space="preserve">zTunnel</tspan></text></g><g id="Graphic_34"><path fill="#f05a26" d="M 241.84535 562.174 L 299.9525 582.9265 C 302.03293 583.66954 303.11713 585.9584 302.3741 588.03884 C 301.97075 589.16826 301.0819 590.0571 299.9525 590.46046 L 241.84535 611.213 C 240.97536 611.5237 240.02464 611.5237 239.15465 611.213 L 181.0475 590.46046 C 178.96707 589.71745 177.88287 587.4286 178.62589 585.34815 C 179.02925 584.2187 179.9181 583.3299 181.0475 582.9265 L 239.15465 562.174 C 240.02464 561.8633 240.97536 561.8633 241.84535 562.174 Z"/><text fill="#fff" transform="translate(175.5 577.4695)"><tspan x="37.888" y="15" fill="#fff" font-family="Helvetica Neue" font-size="16" xml:space="preserve">zTunnel</tspan></text></g><g id="Graphic_33"><path fill="#f05a26" d="M -11.904654 562.174 L 46.20249 582.9265 C 48.28293 583.66954 49.367127 585.9584 48.62411 588.03884 C 48.22075 589.16826 47.33191 590.0571 46.20249 590.46046 L -11.904654 611.213 C -12.774642 611.5237 -13.725358 611.5237 -14.595346 611.213 L -72.70249 590.46046 C -74.78293 589.71745 -75.86713 587.4286 -75.12411 585.34815 C -74.72075 584.2187 -73.83191 583.3299 -72.70249 582.9265 L -14.595346 562.174 C -13.725358 561.8633 -12.774642 561.8633 -11.904654 562.174 Z"/><text fill="#fff" transform="translate(-78.25 577.4695)"><tspan x="37.888" y="15" fill="#fff" font-family="Helvetica Neue" font-size="16" xml:space="preserve">zTunnel</tspan></text></g><g id="Graphic_32"><path fill="#666" d="M -333 484.75 L -201 484.75 C -198.79086 484.75 -197 486.54086 -197 488.75 L -197 530.75 C -197 532.95914 -198.79086 534.75 -201 534.75 L -333 534.75 C -335.20914 534.75 -337 532.95914 -337 530.75 L -337 488.75 C -337 486.54086 -335.20914 484.75 -333 484.75 Z"/><text fill="#fff" transform="translate(-332 500.526)"><tspan x="42.328" y="15" fill="#fff" font-family="Helvetica Neue" font-size="16" xml:space="preserve">App C</tspan></text></g><g id="Graphic_31"><path fill="#666" d="M -333 406.25 L -201 406.25 C -198.79086 406.25 -197 408.04086 -197 410.25 L -197 452.25 C -197 454.45914 -198.79086 456.25 -201 456.25 L -333 456.25 C -335.20914 456.25 -337 454.45914 -337 452.25 L -337 410.25 C -337 408.04086 -335.20914 406.25 -333 406.25 Z"/><text fill="#fff" transform="translate(-332 422.026)"><tspan x="42.624" y="15" fill="#fff" font-family="Helvetica Neue" font-size="16" xml:space="preserve">App B</tspan></text></g><g id="Graphic_30"><path fill="#666" d="M 174.5 407.8065 L 306.5 407.8065 C 308.70914 407.8065 310.5 409.59736 310.5 411.8065 L 310.5 453.8065 C 310.5 456.01564 308.70914 457.8065 306.5 457.8065 L 174.5 457.8065 C 172.29086 457.8065 170.5 456.01564 170.5 453.8065 L 170.5 411.8065 C 170.5 409.59736 172.29086 407.8065 174.5 407.8065 Z"/><text fill="#fff" transform="translate(175.5 423.5825)"><tspan x="42.328" y="15" fill="#fff" font-family="Helvetica Neue" font-size="16" xml:space="preserve">App C</tspan></text></g><g id="Graphic_29"><path fill="#666" d="M -79.25 407.8065 L 52.75 407.8065 C 54.95914 407.8065 56.75 409.59736 56.75 411.8065 L 56.75 453.8065 C 56.75 456.01564 54.95914 457.8065 52.75 457.8065 L -79.25 457.8065 C -81.45914 457.8065 -83.25 456.01564 -83.25 453.8065 L -83.25 411.8065 C -83.25 409.59736 -81.45914 407.8065 -79.25 407.8065 Z"/><text fill="#fff" transform="translate(-78.25 423.5825)"><tspan x="42.328" y="15" fill="#fff" font-family="Helvetica Neue" font-size="16" xml:space="preserve">App C</tspan></text></g><g id="Graphic_28"><title>Rectangle</title><path fill="#f05a26" d="M -89.125 662.75 L 42.875 662.75 C 45.08414 662.75 46.875 664.5409 46.875 666.75 L 46.875 708.75 C 46.875 710.9591 45.08414 712.75 42.875 712.75 L -89.125 712.75 C -91.33414 712.75 -93.125 710.9591 -93.125 708.75 L -93.125 666.75 C -93.125 664.5409 -91.33414 662.75 -89.125 662.75 Z"/><path stroke="#fff" stroke-linecap="round" stroke-linejoin="round" stroke-width="1" d="M -89.125 662.75 L 42.875 662.75 C 45.08414 662.75 46.875 664.5409 46.875 666.75 L 46.875 708.75 C 46.875 710.9591 45.08414 712.75 42.875 712.75 L -89.125 712.75 C -91.33414 712.75 -93.125 710.9591 -93.125 708.75 L -93.125 666.75 C -93.125 664.5409 -91.33414 662.75 -89.125 662.75 Z"/><text fill="#fff" transform="translate(-88.125 678.526)"><tspan x="8.848" y="15" fill="#fff" font-family="Helvetica Neue" font-size="16" xml:space="preserve">Waypoint Proxy</tspan></text></g><g id="Graphic_27"><path fill="#f05a26" d="M -79.25 653 L 52.75 653 C 54.95914 653 56.75 654.7909 56.75 657 L 56.75 699 C 56.75 701.2091 54.95914 703 52.75 703 L -79.25 703 C -81.45914 703 -83.25 701.2091 -83.25 699 L -83.25 657 C -83.25 654.7909 -81.45914 653 -79.25 653 Z"/><path stroke="#fff" stroke-linecap="round" stroke-linejoin="round" stroke-width="1" d="M -79.25 653 L 52.75 653 C 54.95914 653 56.75 654.7909 56.75 657 L 56.75 699 C 56.75 701.2091 54.95914 703 52.75 703 L -79.25 703 C -81.45914 703 -83.25 701.2091 -83.25 699 L -83.25 657 C -83.25 654.7909 -81.45914 653 -79.25 653 Z"/><text fill="#fff" transform="translate(-78.25 668.776)"><tspan x="8.848" y="15" fill="#fff" font-family="Helvetica Neue" font-size="16" xml:space="preserve">Waypoint Proxy</tspan></text></g><g id="Graphic_26"><path fill="#f05a26" d="M -69.375 643.25 L 62.625 643.25 C 64.83414 643.25 66.625 645.04086 66.625 647.25 L 66.625 689.25 C 66.625 691.4591 64.83414 693.25 62.625 693.25 L -69.375 693.25 C -71.58414 693.25 -73.375 691.4591 -73.375 689.25 L -73.375 647.25 C -73.375 645.04086 -71.58414 643.25 -69.375 643.25 Z"/><path stroke="#fff" stroke-linecap="round" stroke-linejoin="round" stroke-width="1" d="M -69.375 643.25 L 62.625 643.25 C 64.83414 643.25 66.625 645.04086 66.625 647.25 L 66.625 689.25 C 66.625 691.4591 64.83414 693.25 62.625 693.25 L -69.375 693.25 C -71.58414 693.25 -73.375 691.4591 -73.375 689.25 L -73.375 647.25 C -73.375 645.04086 -71.58414 643.25 -69.375 643.25 Z"/><text fill="#fff" transform="translate(-68.375 659.026)"><tspan x="8.848" y="15" fill="#fff" font-family="Helvetica Neue" font-size="16" xml:space="preserve">Waypoint Proxy</tspan></text></g><g id="Line_25"><path stroke="#666" stroke-linecap="round" stroke-linejoin="round" stroke-width="2" d="M 240.5 611.44605 L 240.5 612.37964 L 240.24194 612.37964 L 240.24194 668.25 L 66.625 668.25"/></g><g id="Line_24"><path stroke="#666" stroke-linecap="round" stroke-linejoin="round" stroke-width="2" d="M -267 611.44605 L -267 622.44605 L -266.92786 640.55786 L -266.92786 668.25 L -73.375 668.25"/></g><g id="Line_23"><line x1="-13.25" x2="-13.25" y1="611.446" y2="643.25" stroke="#666" stroke-linecap="round" stroke-linejoin="round" stroke-width="2"/></g><g id="Graphic_22"><path fill="#f05a26" d="M -163.4375 779 L 136.9375 779 C 139.14664 779 140.9375 780.7909 140.9375 783 L 140.9375 825 C 140.9375 827.2091 139.14664 829 136.9375 829 L -163.4375 829 C -165.64664 829 -167.4375 827.2091 -167.4375 825 L -167.4375 783 C -167.4375 780.7909 -165.64664 779 -163.4375 779 Z"/><text fill="#fff" transform="translate(-162.4375 794.776)"><tspan x="129.483" y="15" fill="#fff" font-family="Helvetica Neue" font-size="16" xml:space="preserve">Istiod</tspan></text></g><g id="Line_21"><path stroke="#b34400" stroke-linecap="round" stroke-linejoin="round" stroke-width="1" marker-end="url(#FilledArrow_Marker)" d="M -111.4667 779 C -166.6294 761.3829 -224.5 735.2224 -224.5 703 C -224.5 660.4435 -123.5575 621.1466 -61.22664 600.9378"/></g><g id="Line_20"><path stroke="#b34400" stroke-linecap="round" stroke-linejoin="round" stroke-width="1" marker-end="url(#FilledArrow_Marker)" d="M 107.85993 779 C 154.72138 765.78795 204.35376 746.7448 235 720.5 C 278.43475 683.3033 271.39118 642.2085 259.01085 615.5047"/></g><g id="Line_19"><path stroke="#b34400" stroke-linecap="round" stroke-linejoin="round" stroke-width="1" marker-end="url(#FilledArrow_Marker)" d="M -109.75018 779 C -161.7126 762.8267 -222.30406 739.0693 -258 708.5 C -299.04844 673.3469 -296.1539 638.6247 -286.11582 615.3027"/></g><g id="Graphic_17"><text fill="#f05a26" transform="translate(248.854 818.1556)"><tspan x="0" y="15" fill="#f05a26" font-family="Helvetica Neue" font-size="16" xml:space="preserve">Control Plane</tspan></text></g><g id="Graphic_16"><text fill="#f05a26" transform="translate(267.814 703.2095)"><tspan x="0" y="15" fill="#f05a26" font-family="Helvetica Neue" font-size="16" xml:space="preserve">Data Plane</tspan></text></g><g id="Graphic_47"><path stroke="#f15623" stroke-dasharray="4 4" stroke-linecap="round" stroke-linejoin="round" stroke-width="1" d="M -373.25 766.3964 L 346.75 766.3964 C 348.95914 766.3964 350.75 768.1873 350.75 770.3964 L 350.75 837.6036 C 350.75 839.8127 348.95914 841.6036 346.75 841.6036 L -373.25 841.6036 C -375.45914 841.6036 -377.25 839.8127 -377.25 837.6036 L -377.25 770.3964 C -377.25 768.1873 -375.45914 766.3964 -373.25 766.3964 Z"/></g><g id="Line_48"><path stroke="#b34400" stroke-linecap="round" stroke-linejoin="round" stroke-width="1" marker-end="url(#FilledArrow_Marker)" d="M -12.879343 766.3964 C -12.794931 754.74715 -12.729553 741.6409 -12.729553 728.9891 C -12.729553 723.0732 -12.743848 717.7177 -12.767699 712.8994"/></g><g id="Graphic_18"><rect width="87.936" height="28.448" x="-56.732" y="731.736" fill="#fff"/><text fill="#000" transform="translate(-51.73223 736.7357)"><tspan x="0" y="15" fill="#000" font-family="Helvetica Neue" font-size="16" font-style="italic" xml:space="preserve">xDS config</tspan></text></g><g id="Graphic_46"><path stroke="#f15623" stroke-dasharray="4 4" stroke-linecap="round" stroke-linejoin="round" stroke-width="1" d="M -373.25 555.4075 L 346.75 555.4075 C 348.95914 555.4075 350.75 557.1984 350.75 559.4075 L 350.75 722.6575 C 350.75 724.8667 348.95914 726.6575 346.75 726.6575 L -373.25 726.6575 C -375.45914 726.6575 -377.25 724.8667 -377.25 722.6575 L -377.25 559.4075 C -377.25 557.1984 -375.45914 555.4075 -373.25 555.4075 Z"/></g></g></g></svg>