<svg xmlns="http://www.w3.org/2000/svg" xmlns:xl="http://www.w3.org/1999/xlink" width="901" height="559" version="1.1" viewBox="76 477 901 559"><defs><marker id="FilledArrow_Marker" stroke-linejoin="miter" stroke-miterlimit="10" color="#f05a26" markerHeight="6" markerUnits="strokeWidth" markerWidth="7" orient="auto" overflow="visible" viewBox="-1 -3 7 6"><g><path fill="currentColor" stroke="currentColor" stroke-width="1" d="M 4.8 0 L 0 -1.8 L 0 1.8 Z"/></g></marker></defs><g id="sidecar-mode" fill="none" fill-opacity="1" stroke="none" stroke-dasharray="none" stroke-opacity="1"><title>sidecar-mode</title><rect width="901" height="559" x="76" y="477" fill="#fff"/><g id="sidecar-mode_Layer_1"><title>Layer 1</title><g id="Graphic_21"><path fill="#f2f2f2" d="M 106 499.5 L 362 499.5 C 364.20914 499.5 366 501.29086 366 503.5 L 366 1013 C 366 1015.2091 364.20914 1017 362 1017 L 106 1017 C 103.79086 1017 102 1015.2091 102 1013 L 102 503.5 C 102 501.29086 103.79086 499.5 106 499.5 Z"/><path stroke="#a5a5a5" stroke-linecap="round" stroke-linejoin="round" stroke-width="1" d="M 106 499.5 L 362 499.5 C 364.20914 499.5 366 501.29086 366 503.5 L 366 1013 C 366 1015.2091 364.20914 1017 362 1017 L 106 1017 C 103.79086 1017 102 1015.2091 102 1013 L 102 503.5 C 102 501.29086 103.79086 499.5 106 499.5 Z"/><text fill="#000" transform="translate(107 504.5)"><tspan x="107.144" y="16" fill="#000" font-family="Helvetica Neue" font-size="16" xml:space="preserve">Node</tspan></text></g><g id="Graphic_20"><path fill="#f2f2f2" d="M 692 499.5 L 948 499.5 C 950.2091 499.5 952 501.29086 952 503.5 L 952 738.5 C 952 740.7091 950.2091 742.5 948 742.5 L 692 742.5 C 689.7909 742.5 688 740.7091 688 738.5 L 688 503.5 C 688 501.29086 689.7909 499.5 692 499.5 Z"/><path stroke="#a5a5a5" stroke-linecap="round" stroke-linejoin="round" stroke-width="1" d="M 692 499.5 L 948 499.5 C 950.2091 499.5 952 501.29086 952 503.5 L 952 738.5 C 952 740.7091 950.2091 742.5 948 742.5 L 692 742.5 C 689.7909 742.5 688 740.7091 688 738.5 L 688 503.5 C 688 501.29086 689.7909 499.5 692 499.5 Z"/><text fill="#000" transform="translate(693 504.5)"><tspan x="107.144" y="16" fill="#000" font-family="Helvetica Neue" font-size="16" xml:space="preserve">Node</tspan></text></g><g id="Graphic_19"><path fill="#fafafa" d="M 148.25 538.25 L 319.75 538.25 C 321.95914 538.25 323.75 540.04086 323.75 542.25 L 323.75 715.5 C 323.75 717.7091 321.95914 719.5 319.75 719.5 L 148.25 719.5 C 146.04086 719.5 144.25 717.7091 144.25 715.5 L 144.25 542.25 C 144.25 540.04086 146.04086 538.25 148.25 538.25 Z"/><path stroke="#a5a5a5" stroke-linecap="round" stroke-linejoin="round" stroke-width="1" d="M 148.25 538.25 L 319.75 538.25 C 321.95914 538.25 323.75 540.04086 323.75 542.25 L 323.75 715.5 C 323.75 717.7091 321.95914 719.5 319.75 719.5 L 148.25 719.5 C 146.04086 719.5 144.25 717.7091 144.25 715.5 L 144.25 542.25 C 144.25 540.04086 146.04086 538.25 148.25 538.25 Z"/><text fill="#000" transform="translate(149.25 543.25)"><tspan x="69.782" y="16" fill="#000" font-family="Helvetica Neue" font-size="16" xml:space="preserve">Pod</tspan></text></g><g id="Graphic_18"><path fill="#fafafa" d="M 148.25 815.75 L 319.75 815.75 C 321.95914 815.75 323.75 817.5409 323.75 819.75 L 323.75 993 C 323.75 995.2091 321.95914 997 319.75 997 L 148.25 997 C 146.04086 997 144.25 995.2091 144.25 993 L 144.25 819.75 C 144.25 817.5409 146.04086 815.75 148.25 815.75 Z"/><path stroke="#a5a5a5" stroke-linecap="round" stroke-linejoin="round" stroke-width="1" d="M 148.25 815.75 L 319.75 815.75 C 321.95914 815.75 323.75 817.5409 323.75 819.75 L 323.75 993 C 323.75 995.2091 321.95914 997 319.75 997 L 148.25 997 C 146.04086 997 144.25 995.2091 144.25 993 L 144.25 819.75 C 144.25 817.5409 146.04086 815.75 148.25 815.75 Z"/><text fill="#000" transform="translate(149.25 820.75)"><tspan x="69.782" y="16" fill="#000" font-family="Helvetica Neue" font-size="16" xml:space="preserve">Pod</tspan></text></g><g id="Graphic_17"><path fill="#fafafa" d="M 734.25 540.75 L 905.75 540.75 C 907.9591 540.75 909.75 542.54086 909.75 544.75 L 909.75 711 C 909.75 713.2091 907.9591 715 905.75 715 L 734.25 715 C 732.0409 715 730.25 713.2091 730.25 711 L 730.25 544.75 C 730.25 542.54086 732.0409 540.75 734.25 540.75 Z"/><path stroke="#a5a5a5" stroke-linecap="round" stroke-linejoin="round" stroke-width="1" d="M 734.25 540.75 L 905.75 540.75 C 907.9591 540.75 909.75 542.54086 909.75 544.75 L 909.75 711 C 909.75 713.2091 907.9591 715 905.75 715 L 734.25 715 C 732.0409 715 730.25 713.2091 730.25 711 L 730.25 544.75 C 730.25 542.54086 732.0409 540.75 734.25 540.75 Z"/><text fill="#000" transform="translate(735.25 545.75)"><tspan x="69.782" y="16" fill="#000" font-family="Helvetica Neue" font-size="16" xml:space="preserve">Pod</tspan></text></g><g id="Graphic_16"><path fill="#666" d="M 168 573 L 300 573 C 302.20914 573 304 574.79086 304 577 L 304 619 C 304 621.20914 302.20914 623 300 623 L 168 623 C 165.79086 623 164 621.20914 164 619 L 164 577 C 164 574.79086 165.79086 573 168 573 Z"/><text fill="#fff" transform="translate(169 588.776)"><tspan x="42.92" y="15" fill="#fff" font-family="Helvetica Neue" font-size="16" xml:space="preserve">App A</tspan></text></g><g id="Graphic_15"><path fill="#666" d="M 754 575.5 L 886 575.5 C 888.2091 575.5 890 577.29086 890 579.5 L 890 621.5 C 890 623.70914 888.2091 625.5 886 625.5 L 754 625.5 C 751.7909 625.5 750 623.70914 750 621.5 L 750 579.5 C 750 577.29086 751.7909 575.5 754 575.5 Z"/><text fill="#fff" transform="translate(755 591.276)"><tspan x="42.328" y="15" fill="#fff" font-family="Helvetica Neue" font-size="16" xml:space="preserve">App C</tspan></text></g><g id="Graphic_14"><path fill="#666" d="M 168 853.125 L 300 853.125 C 302.20914 853.125 304 854.9159 304 857.125 L 304 899.125 C 304 901.3341 302.20914 903.125 300 903.125 L 168 903.125 C 165.79086 903.125 164 901.3341 164 899.125 L 164 857.125 C 164 854.9159 165.79086 853.125 168 853.125 Z"/><text fill="#fff" transform="translate(169 868.901)"><tspan x="42.624" y="15" fill="#fff" font-family="Helvetica Neue" font-size="16" xml:space="preserve">App B</tspan></text></g><g id="Graphic_13"><path fill="#f05a26" d="M 168 646.25 L 300 646.25 C 302.20914 646.25 304 648.04086 304 650.25 L 304 692.25 C 304 694.4591 302.20914 696.25 300 696.25 L 168 696.25 C 165.79086 696.25 164 694.4591 164 692.25 L 164 650.25 C 164 648.04086 165.79086 646.25 168 646.25 Z"/><text fill="#fff" transform="translate(169 662.026)"><tspan x="15.08" y="15" fill="#fff" font-family="Helvetica Neue" font-size="16" xml:space="preserve">Sidecar Proxy</tspan></text></g><g id="Graphic_12"><path fill="#f05a26" d="M 754 646.25 L 886 646.25 C 888.2091 646.25 890 648.04086 890 650.25 L 890 692.25 C 890 694.4591 888.2091 696.25 886 696.25 L 754 696.25 C 751.7909 696.25 750 694.4591 750 692.25 L 750 650.25 C 750 648.04086 751.7909 646.25 754 646.25 Z"/><text fill="#fff" transform="translate(755 662.026)"><tspan x="15.08" y="15" fill="#fff" font-family="Helvetica Neue" font-size="16" xml:space="preserve">Sidecar Proxy</tspan></text></g><g id="Graphic_11"><path fill="#f05a26" d="M 168 925.3065 L 300 925.3065 C 302.20914 925.3065 304 927.0974 304 929.3065 L 304 971.3065 C 304 973.5156 302.20914 975.3065 300 975.3065 L 168 975.3065 C 165.79086 975.3065 164 973.5156 164 971.3065 L 164 929.3065 C 164 927.0974 165.79086 925.3065 168 925.3065 Z"/><text fill="#fff" transform="translate(169 941.0825)"><tspan x="15.08" y="15" fill="#fff" font-family="Helvetica Neue" font-size="16" xml:space="preserve">Sidecar Proxy</tspan></text></g><g id="Graphic_10"><path fill="#f05a26" d="M 441.25 733.25 L 612.75 733.25 C 614.95914 733.25 616.75 735.0409 616.75 737.25 L 616.75 779.25 C 616.75 781.4591 614.95914 783.25 612.75 783.25 L 441.25 783.25 C 439.04086 783.25 437.25 781.4591 437.25 779.25 L 437.25 737.25 C 437.25 735.0409 439.04086 733.25 441.25 733.25 Z"/><text fill="#fff" transform="translate(442.25 749.026)"><tspan x="65.046" y="15" fill="#fff" font-family="Helvetica Neue" font-size="16" xml:space="preserve">Istiod</tspan></text></g><g id="Graphic_9"><path fill="#f2f2f2" d="M 692 776.5 L 948 776.5 C 950.2091 776.5 952 778.2909 952 780.5 L 952 1015.5 C 952 1017.7091 950.2091 1019.5 948 1019.5 L 692 1019.5 C 689.7909 1019.5 688 1017.7091 688 1015.5 L 688 780.5 C 688 778.2909 689.7909 776.5 692 776.5 Z"/><path stroke="#a5a5a5" stroke-linecap="round" stroke-linejoin="round" stroke-width="1" d="M 692 776.5 L 948 776.5 C 950.2091 776.5 952 778.2909 952 780.5 L 952 1015.5 C 952 1017.7091 950.2091 1019.5 948 1019.5 L 692 1019.5 C 689.7909 1019.5 688 1017.7091 688 1015.5 L 688 780.5 C 688 778.2909 689.7909 776.5 692 776.5 Z"/><text fill="#000" transform="translate(693 781.5)"><tspan x="107.144" y="16" fill="#000" font-family="Helvetica Neue" font-size="16" xml:space="preserve">Node</tspan></text></g><g id="Graphic_8"><path fill="#fafafa" d="M 734.25 818.25 L 905.75 818.25 C 907.9591 818.25 909.75 820.0409 909.75 822.25 L 909.75 995.5 C 909.75 997.7091 907.9591 999.5 905.75 999.5 L 734.25 999.5 C 732.0409 999.5 730.25 997.7091 730.25 995.5 L 730.25 822.25 C 730.25 820.0409 732.0409 818.25 734.25 818.25 Z"/><path stroke="#a5a5a5" stroke-linecap="round" stroke-linejoin="round" stroke-width="1" d="M 734.25 818.25 L 905.75 818.25 C 907.9591 818.25 909.75 820.0409 909.75 822.25 L 909.75 995.5 C 909.75 997.7091 907.9591 999.5 905.75 999.5 L 734.25 999.5 C 732.0409 999.5 730.25 997.7091 730.25 995.5 L 730.25 822.25 C 730.25 820.0409 732.0409 818.25 734.25 818.25 Z"/><text fill="#000" transform="translate(735.25 823.25)"><tspan x="69.782" y="16" fill="#000" font-family="Helvetica Neue" font-size="16" xml:space="preserve">Pod</tspan></text></g><g id="Graphic_7"><path fill="#666" d="M 754 855.625 L 886 855.625 C 888.2091 855.625 890 857.4159 890 859.625 L 890 901.625 C 890 903.8341 888.2091 905.625 886 905.625 L 754 905.625 C 751.7909 905.625 750 903.8341 750 901.625 L 750 859.625 C 750 857.4159 751.7909 855.625 754 855.625 Z"/><text fill="#fff" transform="translate(755 871.401)"><tspan x="42.328" y="15" fill="#fff" font-family="Helvetica Neue" font-size="16" xml:space="preserve">App C</tspan></text></g><g id="Graphic_6"><path fill="#f05a26" d="M 754 925.3065 L 886 925.3065 C 888.2091 925.3065 890 927.0974 890 929.3065 L 890 971.3065 C 890 973.5156 888.2091 975.3065 886 975.3065 L 754 975.3065 C 751.7909 975.3065 750 973.5156 750 971.3065 L 750 929.3065 C 750 927.0974 751.7909 925.3065 754 925.3065 Z"/><text fill="#fff" transform="translate(755 941.0825)"><tspan x="15.08" y="15" fill="#fff" font-family="Helvetica Neue" font-size="16" xml:space="preserve">Sidecar Proxy</tspan></text></g><g id="Line_26"><path stroke="#f05a26" stroke-linecap="round" stroke-linejoin="round" stroke-width="2" marker-end="url(#FilledArrow_Marker)" d="M 527 733.25 L 527 671 L 717 671 L 731.1 671.25 L 737.1 671.25"/></g><g id="Line_30"><path stroke="#f05a26" stroke-linecap="round" stroke-linejoin="round" stroke-width="2" marker-end="url(#FilledArrow_Marker)" d="M 527 733.25 L 527 671.25 L 316.9 671.25"/></g><g id="Line_31"><path stroke="#f05a26" stroke-linecap="round" stroke-linejoin="round" stroke-width="2" marker-end="url(#FilledArrow_Marker)" d="M 527 783.25 L 527 950 L 316.9 950"/></g><g id="Line_32"><path stroke="#f05a26" stroke-linecap="round" stroke-linejoin="round" stroke-width="2" marker-end="url(#FilledArrow_Marker)" d="M 527 783.25 L 527 950 L 731.1 950.3065 L 737.1 950.3065"/></g><g id="Graphic_28"><rect width="88.512" height="28.448" x="482.744" y="819.517" fill="#fff"/><text fill="#000" transform="translate(487.744 824.5174)"><tspan x="0" y="15" fill="#000" font-family="Helvetica Neue" font-size="16" xml:space="preserve">xDS config</tspan></text></g></g></g></svg>