<svg xmlns="http://www.w3.org/2000/svg" xmlns:xl="http://www.w3.org/1999/xlink" width="496" height="58" version="1.1" viewBox="375 606 496 58"><g id="Canvas_7" fill="none" fill-opacity="1" stroke="none" stroke-dasharray="none" stroke-opacity="1"><title>spiffe</title><rect width="496" height="58" x="375" y="606" fill="#fff"/><g id="Canvas_7_Layer_1"><title>Layer 1</title><g id="Graphic_2"><rect width="57.968" height="28.448" x="385.2" y="621" fill="#f9f9f9"/><rect width="57.968" height="28.448" x="385.2" y="621" stroke="#d7d7d7" stroke-linecap="round" stroke-linejoin="round" stroke-width=".5"/><text fill="#000" transform="translate(387.2 626)"><tspan x="0" y="15" fill="#000" font-family="Helvetica Neue" font-size="16" xml:space="preserve">spiffe://</tspan></text></g><g id="Graphic_3"><rect width="113.312" height="28.448" x="443.168" y="621" fill="#ffffc0"/><rect width="113.312" height="28.448" x="443.168" y="621" stroke="#d7d7d7" stroke-linecap="round" stroke-linejoin="round" stroke-width=".5"/><text fill="#b1001c" transform="translate(445.168 626)"><tspan x="0" y="15" fill="#b1001c" font-family="Helvetica Neue" font-size="16" xml:space="preserve">&lt;trust domain&gt;</tspan></text></g><g id="Graphic_4"><rect width="31.552" height="28.448" x="556.48" y="621" fill="#f9f9f9"/><rect width="31.552" height="28.448" x="556.48" y="621" stroke="#d7d7d7" stroke-linecap="round" stroke-linejoin="round" stroke-width=".5"/><text fill="#000" transform="translate(558.48 626)"><tspan x="0" y="15" fill="#000" font-family="Helvetica Neue" font-size="16" xml:space="preserve">/ns/</tspan></text></g><g id="Graphic_5"><rect width="106.192" height="28.448" x="588.032" y="621" fill="#c0ffff"/><rect width="106.192" height="28.448" x="588.032" y="621" stroke="#d7d7d7" stroke-linecap="round" stroke-linejoin="round" stroke-width=".5"/><text fill="#235e00" transform="translate(590.032 626)"><tspan x="0" y="15" fill="#235e00" font-family="Helvetica Neue" font-size="16" xml:space="preserve">&lt;namespace&gt;</tspan></text></g><g id="Graphic_6"><rect width="31.248" height="28.448" x="694.224" y="621" fill="#f9f9f9"/><rect width="31.248" height="28.448" x="694.224" y="621" stroke="#d7d7d7" stroke-linecap="round" stroke-linejoin="round" stroke-width=".5"/><text fill="#000" transform="translate(696.224 626)"><tspan x="0" y="15" fill="#000" font-family="Helvetica Neue" font-size="16" xml:space="preserve">/sa/</tspan></text></g><g id="Graphic_7"><rect width="136.096" height="28.448" x="725.472" y="621" fill="#ffdfdc"/><rect width="136.096" height="28.448" x="725.472" y="621" stroke="#d7d7d7" stroke-linecap="round" stroke-linejoin="round" stroke-width=".5"/><text fill="#003776" transform="translate(727.472 626)"><tspan x="0" y="15" fill="#003776" font-family="Helvetica Neue" font-size="16" xml:space="preserve">&lt;service account&gt;</tspan></text></g></g></g></svg>