<?xml version="1.0" encoding="UTF-8" standalone="no"?>
<!DOCTYPE svg PUBLIC "-//W3C//DTD SVG 1.1//EN" "http://www.w3.org/Graphics/SVG/1.1/DTD/svg11.dtd">
<svg xmlns:xl="http://www.w3.org/1999/xlink" xmlns:dc="http://purl.org/dc/elements/1.1/" xmlns="http://www.w3.org/2000/svg" version="1.1" viewBox="211 455 616 159" width="616" height="159">
  <defs>
    <marker orient="auto" overflow="visible" markerUnits="strokeWidth" id="FilledArrow_Marker" stroke-linejoin="miter" stroke-miterlimit="10" viewBox="-1 -4 10 8" markerWidth="10" markerHeight="8" color="black">
      <g>
        <path d="M 8 0 L 0 -3 L 0 3 Z" fill="currentColor" stroke="currentColor" stroke-width="1"/>
      </g>
    </marker>
  </defs>
  <g id="Canvas_1" stroke="none" fill="none" stroke-opacity="1" stroke-dasharray="none" fill-opacity="1">
    <title>Canvas 1</title>
    <rect fill="white" x="211" y="455" width="616" height="159"/>
    <g id="Canvas_1_Layer_1">
      <title>Layer 1</title>
      <g id="Graphic_39">
        <rect x="211.5" y="455.99133" width="615.1181" height="140.31496" fill="white"/>
      </g>
      <g id="Graphic_38">
        <rect x="217.1693" y="455.99133" width="609.4488" height="158.00867" fill="white"/>
      </g>
      <g id="Graphic_37">
        <rect x="241.2646" y="475.68725" width="85.03855" height="83.76865" fill="white"/>
      </g>
      <g id="Group_31">
        <g id="Group_32">
          <g id="Graphic_36">
            <rect x="259.2152" y="552.19925" width="49.13571" height="5.985925" fill="#f15623"/>
          </g>
          <g id="Graphic_35">
            <rect x="266.16246" y="537.4488" width="35.171556" height="11.371542" fill="#f15623"/>
          </g>
          <g id="Graphic_34">
            <path d="M 241.26378 474.4165 L 241.26378 534.1214 L 326.30233 534.1214 L 326.30233 474.4165 Z M 321.65342 527.8096 C 321.65342 528.7358 320.90472 529.4733 319.9645 529.4733 L 247.60163 529.4733 C 246.6614 529.4733 245.9127 528.7358 245.9127 527.8096 L 245.9127 480.72833 C 245.9127 479.80214 246.6614 479.0646 247.60163 479.0646 L 319.9645 479.0646 C 320.90472 479.0646 321.65342 479.80214 321.65342 480.72833 Z" fill="#f15623"/>
          </g>
          <g id="Graphic_33">
            <path d="M 249.29056 526.1459 L 318.27556 526.1459 L 318.27556 482.39204 L 249.29056 482.39204 Z M 295.1877 507.725 C 295.1877 507.39914 295.39664 507.1247 295.6578 506.9875 L 305.182 502.6653 L 295.6578 498.4117 C 295.37922 498.27447 295.1877 498.0172 295.1877 497.67416 L 295.1877 494.31244 C 295.1877 493.74643 295.7797 493.38625 296.28463 493.62637 L 310.63184 500.19545 C 310.91043 500.33266 311.10195 500.58994 311.10195 500.933 L 311.10195 504.6549 C 311.10195 504.98076 310.893 505.2552 310.63184 505.3924 L 296.28463 511.8929 C 295.76228 512.133 295.1703 511.75566 295.1703 511.18966 L 295.1703 507.725 L 295.1877 507.725 Z M 274.08476 517.8445 L 287.2828 489.97307 C 287.4221 489.69864 287.68327 489.51 288.0315 489.51 L 291.0263 489.51 C 291.6357 489.51 292.0536 490.1446 291.79242 490.69344 L 278.57697 518.56487 C 278.43768 518.8393 278.1765 519.02796 277.82827 519.02796 L 274.83346 519.02796 C 274.24147 519.02796 273.8236 518.39335 274.08476 517.8445 Z M 256.5164 500.9501 C 256.5164 500.62424 256.72534 500.3498 256.9865 500.2126 L 271.35113 493.6435 C 271.85607 493.4034 272.44807 493.78074 272.44807 494.3296 L 272.44807 497.7599 C 272.44807 498.0858 272.23913 498.3602 271.97795 498.49744 L 262.45377 502.75105 L 271.97795 507.07326 C 272.25654 507.2105 272.44807 507.46775 272.44807 507.8108 L 272.44807 511.3097 C 272.44807 511.8586 271.87348 512.2359 271.35113 511.9958 L 256.9865 505.4953 C 256.70792 505.3581 256.5164 505.1008 256.5164 504.7578 Z" fill="#f15623"/>
          </g>
        </g>
      </g>
      <g id="Graphic_30">
        <rect x="700.7129" y="479.83275" width="85.03937" height="74.84901" fill="white"/>
      </g>
      <g id="Group_15">
        <g id="Group_16">
          <g id="Group_17">
            <g id="Graphic_29">
              <path d="M 773.7248 550.0591 C 776.9941 550.0591 779.65385 547.24817 779.65385 543.79306 C 779.65385 540.33796 776.9941 537.527 773.7248 537.527 C 770.4555 537.527 767.7958 540.33796 767.7958 543.79306 C 767.7958 547.24817 770.4555 550.0591 773.7248 550.0591 Z M 773.7248 541.1076 C 775.1259 541.1076 776.2658 542.3123 776.2658 543.79306 C 776.2658 545.2738 775.1259 546.4785 773.7248 546.4785 C 772.3237 546.4785 771.1838 545.2738 771.1838 543.79306 C 771.1838 542.3123 772.3237 541.1076 773.7248 541.1076 Z" fill="#f15623"/>
            </g>
            <g id="Graphic_28">
              <path d="M 758.8175 548.44785 C 761.246 548.44785 763.2219 546.35964 763.2219 543.79306 C 763.2219 541.2265 761.246 539.1383 758.8175 539.1383 C 756.389 539.1383 754.4131 541.2265 754.4131 543.79306 C 754.4131 546.35964 756.389 548.44785 758.8175 548.44785 Z M 758.8175 542.7189 C 759.3781 542.7189 759.8339 543.20065 759.8339 543.79306 C 759.8339 544.3855 759.3781 544.86724 758.8175 544.86724 C 758.257 544.86724 757.8011 544.3855 757.8011 543.79306 C 757.8011 543.20065 758.257 542.7189 758.8175 542.7189 Z" fill="#f15623"/>
            </g>
            <g id="Graphic_27">
              <path d="M 710.877 545.58336 L 747.637 545.58336 C 748.5726 545.58336 749.331 544.78185 749.331 543.79306 C 749.331 542.8043 748.5726 542.00276 747.637 542.00276 L 710.877 542.00276 C 709.9414 542.00276 709.183 542.8043 709.183 543.79306 C 709.183 544.78185 709.9414 545.58336 710.877 545.58336 Z" fill="#f15623"/>
            </g>
            <g id="Graphic_26">
              <path d="M 784.0583 501.18386 L 777.7904 501.18386 L 777.7904 500.53004 C 777.7904 499.54126 777.032 498.73974 776.0964 498.73974 C 775.1608 498.73974 774.4024 499.54126 774.4024 500.53004 L 774.4024 501.18386 L 711.724 501.18386 L 711.724 500.53004 C 711.724 499.54126 710.9656 498.73974 710.03 498.73974 C 709.0944 498.73974 708.336 499.54126 708.336 500.53004 L 708.336 501.18386 L 702.4069 501.18386 C 701.4713 501.18386 700.7129 501.9854 700.7129 502.97416 L 700.7129 524.81585 C 700.7129 525.80464 701.4713 526.60616 702.4069 526.60616 L 708.336 526.60616 L 708.336 531.0819 L 702.4069 531.0819 C 701.4713 531.0819 700.7129 531.88343 700.7129 532.8722 L 700.7129 554.7139 C 700.7129 555.7027 701.4713 556.5042 702.4069 556.5042 L 784.0583 556.5042 C 784.9939 556.5042 785.7523 555.7027 785.7523 554.7139 L 785.7523 532.8722 C 785.7523 531.88343 784.9939 531.0819 784.0583 531.0819 L 777.7904 531.0819 L 777.7904 526.60616 L 784.0583 526.60616 C 784.9939 526.60616 785.7523 525.80464 785.7523 524.81585 L 785.7523 502.97416 C 785.7523 501.9854 784.9939 501.18386 784.0583 501.18386 Z M 782.3643 534.6625 L 782.3643 552.9236 L 704.1009 552.9236 L 704.1009 534.6625 Z M 711.724 531.0819 L 711.724 526.60616 L 774.4024 526.60616 L 774.4024 531.0819 Z M 782.3643 523.02555 L 704.1009 523.02555 L 704.1009 504.76447 L 782.3643 504.76447 Z" fill="#f15623"/>
            </g>
            <g id="Graphic_25">
              <path d="M 773.7248 520.16107 C 776.9941 520.16107 779.65385 517.3501 779.65385 513.895 C 779.65385 510.4399 776.9941 507.62895 773.7248 507.62895 C 770.4555 507.62895 767.7958 510.4399 767.7958 513.895 C 767.7958 517.3501 770.4555 520.16107 773.7248 520.16107 Z M 773.7248 511.20956 C 775.1259 511.20956 776.2658 512.41425 776.2658 513.895 C 776.2658 515.37577 775.1259 516.58046 773.7248 516.58046 C 772.3237 516.58046 771.1838 515.37577 771.1838 513.895 C 771.1838 512.41425 772.3237 511.20956 773.7248 511.20956 Z" fill="#f15623"/>
            </g>
            <g id="Graphic_24">
              <path d="M 758.8175 518.5498 C 761.246 518.5498 763.2219 516.4616 763.2219 513.895 C 763.2219 511.32843 761.246 509.2402 758.8175 509.2402 C 756.389 509.2402 754.4131 511.32843 754.4131 513.895 C 754.4131 516.4616 756.389 518.5498 758.8175 518.5498 Z M 758.8175 512.8208 C 759.3781 512.8208 759.8339 513.3026 759.8339 513.895 C 759.8339 514.4874 759.3781 514.9692 758.8175 514.9692 C 758.257 514.9692 757.8011 514.4874 757.8011 513.895 C 757.8011 513.3026 758.257 512.8208 758.8175 512.8208 Z" fill="#f15623"/>
            </g>
            <g id="Graphic_23">
              <path d="M 710.877 515.6853 L 747.637 515.6853 C 748.5726 515.6853 749.331 514.8838 749.331 513.895 C 749.331 512.9062 748.5726 512.1047 747.637 512.1047 L 710.877 512.1047 C 709.9414 512.1047 709.183 512.9062 709.183 513.895 C 709.183 514.8838 709.9414 515.6853 710.877 515.6853 Z" fill="#f15623"/>
            </g>
            <g id="Graphic_22">
              <path d="M 784.0583 471.46484 L 702.4069 471.46484 C 701.4713 471.46484 700.7129 472.26636 700.7129 473.25514 L 700.7129 495.09683 C 700.7129 496.0856 701.4713 496.88714 702.4069 496.88714 L 784.0583 496.88714 C 784.9939 496.88714 785.7523 496.0856 785.7523 495.09683 L 785.7523 473.25514 C 785.7523 472.26636 784.9939 471.46484 784.0583 471.46484 Z M 782.3643 493.30653 L 704.1009 493.30653 L 704.1009 475.04544 L 782.3643 475.04544 Z" fill="#f15623"/>
            </g>
            <g id="Graphic_21">
              <path d="M 773.7248 490.44205 C 776.9941 490.44205 779.65385 487.6311 779.65385 484.176 C 779.65385 480.7209 776.9941 477.90993 773.7248 477.90993 C 770.4555 477.90993 767.7958 480.7209 767.7958 484.176 C 767.7958 487.6311 770.4555 490.44205 773.7248 490.44205 Z M 773.7248 481.49053 C 775.1259 481.49053 776.2658 482.6952 776.2658 484.176 C 776.2658 485.65675 775.1259 486.86144 773.7248 486.86144 C 772.3237 486.86144 771.1838 485.65675 771.1838 484.176 C 771.1838 482.6952 772.3237 481.49053 773.7248 481.49053 Z" fill="#f15623"/>
            </g>
            <g id="Graphic_20">
              <path d="M 758.8175 488.8308 C 761.246 488.8308 763.2219 486.74257 763.2219 484.176 C 763.2219 481.6094 761.246 479.5212 758.8175 479.5212 C 756.389 479.5212 754.4131 481.6094 754.4131 484.176 C 754.4131 486.74257 756.389 488.8308 758.8175 488.8308 Z M 758.8175 483.1018 C 759.3781 483.1018 759.8339 483.5836 759.8339 484.176 C 759.8339 484.7684 759.3781 485.25017 758.8175 485.25017 C 758.257 485.25017 757.8011 484.7684 757.8011 484.176 C 757.8011 483.5836 758.257 483.1018 758.8175 483.1018 Z" fill="#f15623"/>
            </g>
            <g id="Graphic_19">
              <path d="M 710.877 485.9663 L 736.2872 485.9663 C 737.2228 485.9663 737.9812 485.1648 737.9812 484.176 C 737.9812 483.1872 737.2228 482.3857 736.2872 482.3857 L 710.877 482.3857 C 709.9414 482.3857 709.183 483.1872 709.183 484.176 C 709.183 485.1648 709.9414 485.9663 710.877 485.9663 Z" fill="#f15623"/>
            </g>
            <g id="Graphic_18">
              <path d="M 742.555 485.9663 L 747.637 485.9663 C 748.5726 485.9663 749.331 485.1648 749.331 484.176 C 749.331 483.1872 748.5726 482.3857 747.637 482.3857 L 742.555 482.3857 C 741.6194 482.3857 740.861 483.1872 740.861 484.176 C 740.861 485.1648 741.6194 485.9663 742.555 485.9663 Z" fill="#f15623"/>
            </g>
          </g>
        </g>
      </g>
      <g id="Graphic_14">
        <rect x="479.374" y="471.46484" width="85.03937" height="85.03937" fill="white"/>
      </g>
      <g id="Graphic_13">
        <path d="M 506.66614 477.733 C 505.10167 477.733 503.84204 479.36806 503.84204 481.3988 L 503.84204 488.8478 C 503.84204 490.87855 505.10167 492.5136 506.66614 492.5136 L 537.12126 492.5136 C 538.68574 492.5136 539.94537 490.87855 539.94537 488.8478 L 539.94537 481.3988 C 539.94537 479.36806 538.68574 477.733 537.12126 477.733 Z M 509.2417 482.1613 C 509.30337 482.14564 509.3572 482.1613 509.42247 482.1613 L 516.3359 482.1613 C 516.858 482.1613 517.28477 482.68594 517.28477 483.3637 L 517.28477 486.85357 C 517.28477 487.53134 516.858 488.0853 516.3359 488.0853 L 509.42247 488.0853 C 508.9003 488.0853 508.47357 487.53134 508.47357 486.85357 L 508.47357 483.3637 C 508.47357 482.77066 508.81025 482.271 509.2417 482.1613 Z M 506.66614 499.0534 C 505.10167 499.0534 503.84204 500.6885 503.84204 502.71925 L 503.84204 510.1682 C 503.84204 512.199 505.10167 513.834 506.66614 513.834 L 537.12126 513.834 C 538.68574 513.834 539.94537 512.199 539.94537 510.1682 L 539.94537 502.71925 C 539.94537 500.6885 538.68574 499.0534 537.12126 499.0534 Z M 509.2417 503.48174 C 509.30337 503.4661 509.3572 503.48174 509.42247 503.48174 L 516.3359 503.48174 C 516.858 503.48174 517.28477 504.00637 517.28477 504.68413 L 517.28477 508.174 C 517.28477 508.85176 516.858 509.4057 516.3359 509.4057 L 509.42247 509.4057 C 508.9003 509.4057 508.47357 508.85176 508.47357 508.174 L 508.47357 504.68413 C 508.47357 504.0911 508.81025 503.5914 509.2417 503.48174 Z M 493.74305 508.262 L 479.374 517.1186 L 493.74305 525.97523 L 493.74305 521.34163 L 499.41385 521.34163 C 500.2381 521.34163 500.905 520.476 500.905 519.4061 L 500.905 514.83113 C 500.905 513.7612 500.2381 512.8956 499.41385 512.8956 L 493.74305 512.8956 Z M 550.04436 508.262 L 550.04436 512.8956 L 544.39615 512.8956 C 543.5719 512.8956 542.905 513.7612 542.905 514.83113 L 542.905 519.4061 C 542.905 520.476 543.5719 521.34163 544.39615 521.34163 L 550.04436 521.34163 L 550.04436 525.97523 L 564.4134 517.1186 Z M 506.66614 520.4032 C 505.10167 520.4032 503.84204 522.03824 503.84204 524.069 L 503.84204 531.51796 C 503.84204 533.5487 505.10167 535.1838 506.66614 535.1838 L 537.12126 535.1838 C 538.68574 535.1838 539.94537 533.5487 539.94537 531.51796 L 539.94537 524.069 C 539.94537 522.03824 538.68574 520.4032 537.12126 520.4032 Z M 509.2417 524.8315 C 509.30337 524.8158 509.3572 524.8315 509.42247 524.8315 L 516.3359 524.8315 C 516.858 524.8315 517.28477 525.3561 517.28477 526.0339 L 517.28477 529.52375 C 517.28477 530.2015 516.858 530.75547 516.3359 530.75547 L 509.42247 530.75547 C 508.9003 530.75547 508.47357 530.2015 508.47357 529.52375 L 508.47357 526.0339 C 508.47357 525.44084 508.81025 524.9412 509.2417 524.8315 Z M 506.66614 541.7236 C 505.10167 541.7236 503.84204 543.35867 503.84204 545.38943 L 503.84204 552.8384 C 503.84204 554.86916 505.10167 556.5042 506.66614 556.5042 L 537.12126 556.5042 C 538.68574 556.5042 539.94537 554.86916 539.94537 552.8384 L 539.94537 545.38943 C 539.94537 543.35867 538.68574 541.7236 537.12126 541.7236 Z M 509.2417 546.1519 C 509.30337 546.13625 509.3572 546.1519 509.42247 546.1519 L 516.3359 546.1519 C 516.858 546.1519 517.28477 546.67655 517.28477 547.3543 L 517.28477 550.8442 C 517.28477 551.52195 516.858 552.0759 516.3359 552.0759 L 509.42247 552.0759 C 508.9003 552.0759 508.47357 551.52195 508.47357 550.8442 L 508.47357 547.3543 C 508.47357 546.7613 508.81025 546.2616 509.2417 546.1519 Z" fill="#f15623"/>
      </g>
      <g id="Line_12">
        <path d="M 326.30315 517.5716 L 336.30315 517.5716 L 402.8386 517.3451 L 464.474 517.1186 L 469.474 517.1186" marker-end="url(#FilledArrow_Marker)" stroke="black" stroke-linecap="round" stroke-linejoin="round" stroke-width="1"/>
      </g>
      <g id="Graphic_11">
        <text transform="translate(586.3812 474.7882)" fill="#f15623">
          <tspan font-family="Helvetica Neue" font-size="16" fill="#f15623" x="0" y="15" xml:space="preserve">SRC IP: A</tspan>
          <tspan font-family="Helvetica Neue" font-size="16" fill="black" x=".44" y="33.448" xml:space="preserve">DST IP: C</tspan>
        </text>
      </g>
      <g id="Graphic_10">
        <text transform="translate(263.19146 560.2039)" fill="black">
          <tspan font-family="Helvetica Neue" font-size="16" fill="black" x="55422333e-20" y="15" xml:space="preserve">Client</tspan>
          <tspan font-family="Helvetica Neue" font-size="16" fill="black" x="5.928" y="33.448" xml:space="preserve">IP A</tspan>
        </text>
      </g>
      <g id="Graphic_9">
        <text transform="translate(720.1286 560.2039)" fill="black">
          <tspan font-family="Helvetica Neue" font-size="16" fill="black" x="0" y="15" xml:space="preserve">Server</tspan>
          <tspan font-family="Helvetica Neue" font-size="16" fill="black" x="7.848" y="33.448" xml:space="preserve">IP C</tspan>
        </text>
      </g>
      <g id="Graphic_8">
        <text transform="translate(372.8376 474.7882)" fill="black">
          <tspan font-family="Helvetica Neue" font-size="16" fill="black" x="0" y="15" xml:space="preserve">SRC IP: A</tspan>
          <tspan font-family="Helvetica Neue" font-size="16" fill="#f15623" x=".44" y="33.448" xml:space="preserve">DST IP: C</tspan>
        </text>
      </g>
      <g id="Graphic_7">
        <text transform="translate(501.4537 560.2039)" fill="black">
          <tspan font-family="Helvetica Neue" font-size="16" fill="black" x="50448534e-20" y="15" xml:space="preserve">Proxy</tspan>
          <tspan font-family="Helvetica Neue" font-size="16" fill="black" x="5.48" y="33.448" xml:space="preserve">IP B</tspan>
        </text>
      </g>
      <g id="Line_6">
        <path d="M 564.4134 517.1186 L 574.4134 517.1186 L 632.56315 517.1879 L 685.8129 517.25725 L 690.8129 517.25725" marker-end="url(#FilledArrow_Marker)" stroke="black" stroke-linecap="round" stroke-linejoin="round" stroke-width="1"/>
      </g>
      <g id="Line_5">
        <line x1="699.0591" y1="531.10944" x2="565.7273" y2="531.10944" marker-end="url(#FilledArrow_Marker)" stroke="black" stroke-linecap="round" stroke-linejoin="round" stroke-width="1"/>
      </g>
      <g id="Line_4">
        <line x1="487.87796" y1="531.10944" x2="338.80107" y2="531.10944" marker-end="url(#FilledArrow_Marker)" stroke="black" stroke-linecap="round" stroke-linejoin="round" stroke-width="1"/>
      </g>
      <g id="Graphic_3">
        <text transform="translate(585.3147 536.62997)" fill="black">
          <tspan font-family="Helvetica Neue" font-size="16" fill="black" x="22737368e-20" y="15" xml:space="preserve">SRC IP: C</tspan>
          <tspan font-family="Helvetica Neue" font-size="16" fill="#f15623" x="1.624" y="33.448" xml:space="preserve">DST IP: A</tspan>
        </text>
      </g>
      <g id="Graphic_2">
        <text transform="translate(372.60345 536.62997)" fill="#f05a26">
          <tspan font-family="Helvetica Neue" font-size="16" fill="#f05a26" x="22737368e-20" y="15" xml:space="preserve">SRC IP: C</tspan>
          <tspan font-family="Helvetica Neue" font-size="16" fill="black" x="1.624" y="33.448" xml:space="preserve">DST IP: A</tspan>
        </text>
      </g>
    </g>
  </g>
</svg>
