<?xml version="1.0" encoding="UTF-8" standalone="no"?>
<!DOCTYPE svg PUBLIC "-//W3C//DTD SVG 1.1//EN" "http://www.w3.org/Graphics/SVG/1.1/DTD/svg11.dtd">
<svg xmlns:xl="http://www.w3.org/1999/xlink" xmlns:dc="http://purl.org/dc/elements/1.1/" xmlns="http://www.w3.org/2000/svg" version="1.1" viewBox="-603 -155 2250 1153" width="2250" height="1153">
  <defs>
    <marker orient="auto" overflow="visible" markerUnits="strokeWidth" id="FilledArrow_Marker" stroke-linejoin="miter" stroke-miterlimit="10" viewBox="-1 -3 7 6" markerWidth="7" markerHeight="6" color="#456bb0">
      <g>
        <path d="M 4.8 0 L 0 -1.8 L 0 1.8 Z" fill="currentColor" stroke="currentColor" stroke-width="1"/>
      </g>
    </marker>
  </defs>
  <g id="amient-mode-l7" stroke="none" fill="none" stroke-opacity="1" stroke-dasharray="none" fill-opacity="1">
    <title>amient-mode-l7</title>
    <rect fill="white" x="-603" y="-155" width="2250" height="1153"/>
    <g id="amient-mode-l7_Layer_1">
      <title>Layer 1</title>
      <g id="Graphic_118">
        <rect x="-603" y="-154.30723" width="2249.6448" height="1151.6145" fill="white"/>
      </g>
      <g id="Graphic_117">
        <path d="M -567.6413 -131.25591 L -8.71214 -131.25591 C -6.503001 -131.25591 -4.71214 -129.46505 -4.71214 -127.25591 L -4.71214 970.2559 C -4.71214 972.465 -6.503001 974.2559 -8.71214 974.2559 L -567.6413 974.2559 C -569.8504 974.2559 -571.6413 972.465 -571.6413 970.2559 L -571.6413 -127.25591 C -571.6413 -129.46505 -569.8504 -131.25591 -567.6413 -131.25591 Z" stroke="#a5a5a5" stroke-linecap="round" stroke-linejoin="round" stroke-width="1"/>
        <text transform="translate(-566.6413 949.7918)" fill="black">
          <tspan font-family="Helvetica Neue" font-weight="bold" font-size="16" fill="black" x="0" y="16" xml:space="preserve">Node A</tspan>
        </text>
      </g>
      <g id="Graphic_116">
        <path d="M 1045.095 -131.25591 L 1604.024 -131.25591 C 1606.2332 -131.25591 1608.024 -129.46505 1608.024 -127.25591 L 1608.024 970.2559 C 1608.024 972.465 1606.2332 974.2559 1604.024 974.2559 L 1045.095 974.2559 C 1042.8858 974.2559 1041.095 972.465 1041.095 970.2559 L 1041.095 -127.25591 C 1041.095 -129.46505 1042.8858 -131.25591 1045.095 -131.25591 Z" stroke="#a5a5a5" stroke-linecap="round" stroke-linejoin="round" stroke-width="1"/>
        <text transform="translate(1046.095 949.7918)" fill="black">
          <tspan font-family="Helvetica Neue" font-weight="bold" font-size="16" fill="black" x="0" y="16" xml:space="preserve">Node B</tspan>
        </text>
      </g>
      <g id="Graphic_115">
        <title>ztunnel a pod</title>
        <path d="M -535.04285 187.40022 L -41.310565 187.40022 C -39.101426 187.40022 -37.310565 189.19108 -37.310565 191.40022 L -37.310565 771.8307 C -37.310565 774.03985 -39.101426 775.8307 -41.310565 775.8307 L -535.04285 775.8307 C -537.252 775.8307 -539.04285 774.03985 -539.04285 771.8307 L -539.04285 191.40022 C -539.04285 189.19108 -537.252 187.40022 -535.04285 187.40022 Z" fill="#fffef3"/>
        <path d="M -535.04285 187.40022 L -41.310565 187.40022 C -39.101426 187.40022 -37.310565 189.19108 -37.310565 191.40022 L -37.310565 771.8307 C -37.310565 774.03985 -39.101426 775.8307 -41.310565 775.8307 L -535.04285 775.8307 C -537.252 775.8307 -539.04285 774.03985 -539.04285 771.8307 L -539.04285 191.40022 C -539.04285 189.19108 -537.252 187.40022 -535.04285 187.40022 Z" stroke="#a5a5a5" stroke-linecap="round" stroke-linejoin="round" stroke-width="1"/>
        <text transform="translate(-534.04285 751.3666)" fill="black">
          <tspan font-family="Helvetica Neue" font-weight="bold" font-size="16" fill="black" x="0" y="16" xml:space="preserve">Ztunnel Pod</tspan>
        </text>
      </g>
      <g id="Graphic_114">
        <path d="M 1079.8194 91.26378 L 1573.5517 91.26378 C 1575.7608 91.26378 1577.5517 93.05464 1577.5517 95.26378 L 1577.5517 617.0325 C 1577.5517 619.2416 1575.7608 621.0325 1573.5517 621.0325 L 1079.8194 621.0325 C 1077.6102 621.0325 1075.8194 619.2416 1075.8194 617.0325 L 1075.8194 95.26378 C 1075.8194 93.05464 1077.6102 91.26378 1079.8194 91.26378 Z" fill="#fffef3"/>
        <path d="M 1079.8194 91.26378 L 1573.5517 91.26378 C 1575.7608 91.26378 1577.5517 93.05464 1577.5517 95.26378 L 1577.5517 617.0325 C 1577.5517 619.2416 1575.7608 621.0325 1573.5517 621.0325 L 1079.8194 621.0325 C 1077.6102 621.0325 1075.8194 619.2416 1075.8194 617.0325 L 1075.8194 95.26378 C 1075.8194 93.05464 1077.6102 91.26378 1079.8194 91.26378 Z" stroke="#a5a5a5" stroke-linecap="round" stroke-linejoin="round" stroke-width="1"/>
        <text transform="translate(1080.8194 596.5684)" fill="black">
          <tspan font-family="Helvetica Neue" font-weight="bold" font-size="16" fill="black" x="0" y="16" xml:space="preserve">Ztunnel Pod</tspan>
        </text>
      </g>
      <g id="Graphic_113">
        <path d="M -481.21654 -94.40552 L -98.03543 -94.40552 C -95.82629 -94.40552 -94.03543 -92.61466 -94.03543 -90.40552 L -94.03543 -30.37402 C -94.03543 -28.16488 -95.82629 -26.37402 -98.03543 -26.37402 L -481.21654 -26.37402 C -483.4257 -26.37402 -485.21654 -28.16488 -485.21654 -30.37402 L -485.21654 -90.40552 C -485.21654 -92.61466 -483.4257 -94.40552 -481.21654 -94.40552 Z" fill="#333"/>
        <path d="M -481.21654 -94.40552 L -98.03543 -94.40552 C -95.82629 -94.40552 -94.03543 -92.61466 -94.03543 -90.40552 L -94.03543 -30.37402 C -94.03543 -28.16488 -95.82629 -26.37402 -98.03543 -26.37402 L -481.21654 -26.37402 C -483.4257 -26.37402 -485.21654 -28.16488 -485.21654 -30.37402 L -485.21654 -90.40552 C -485.21654 -92.61466 -483.4257 -94.40552 -481.21654 -94.40552 Z" stroke="gray" stroke-linecap="round" stroke-linejoin="round" stroke-width="1"/>
        <text transform="translate(-480.21654 -89.40552)" fill="white">
          <tspan font-family="Helvetica Neue" font-weight="bold" font-size="16" fill="white" x="137.24655" y="16" xml:space="preserve">Service A Pod</tspan>
        </text>
      </g>
      <g id="Graphic_112">
        <path d="M -481.21654 91.26378 L -98.03543 91.26378 C -95.82629 91.26378 -94.03543 93.05464 -94.03543 95.26378 L -94.03543 134.03543 C -94.03543 136.24457 -95.82629 138.03543 -98.03543 138.03543 L -481.21654 138.03543 C -483.4257 138.03543 -485.21654 136.24457 -485.21654 134.03543 L -485.21654 95.26378 C -485.21654 93.05464 -483.4257 91.26378 -481.21654 91.26378 Z" fill="#dadada"/>
        <path d="M -481.21654 91.26378 L -98.03543 91.26378 C -95.82629 91.26378 -94.03543 93.05464 -94.03543 95.26378 L -94.03543 134.03543 C -94.03543 136.24457 -95.82629 138.03543 -98.03543 138.03543 L -481.21654 138.03543 C -483.4257 138.03543 -485.21654 136.24457 -485.21654 134.03543 L -485.21654 95.26378 C -485.21654 93.05464 -483.4257 91.26378 -481.21654 91.26378 Z" stroke="gray" stroke-linecap="round" stroke-linejoin="round" stroke-width="1"/>
        <text transform="translate(-480.21654 95.69355)" fill="black">
          <tspan font-family="Helvetica Neue" font-weight="bold" font-size="16" fill="black" x="162.01455" y="16" xml:space="preserve">istioout</tspan>
          <tspan font-family="Helvetica Neue" font-size="16" fill="black" x="139.43855" y="34.46411" xml:space="preserve">192.168.127.1</tspan>
        </text>
      </g>
      <g id="Graphic_111">
        <path d="M -408.6107 187.40022 L -170.64128 187.40022 C -168.43214 187.40022 -166.64128 189.19108 -166.64128 191.40022 L -166.64128 230.17187 C -166.64128 232.381 -168.43214 234.17187 -170.64128 234.17187 L -408.6107 234.17187 C -410.81983 234.17187 -412.6107 232.381 -412.6107 230.17187 L -412.6107 191.40022 C -412.6107 189.19108 -410.81983 187.40022 -408.6107 187.40022 Z" fill="#dadada"/>
        <path d="M -408.6107 187.40022 L -170.64128 187.40022 C -168.43214 187.40022 -166.64128 189.19108 -166.64128 191.40022 L -166.64128 230.17187 C -166.64128 232.381 -168.43214 234.17187 -170.64128 234.17187 L -408.6107 234.17187 C -410.81983 234.17187 -412.6107 232.381 -412.6107 230.17187 L -412.6107 191.40022 C -412.6107 189.19108 -410.81983 187.40022 -408.6107 187.40022 Z" stroke="gray" stroke-linecap="round" stroke-linejoin="round" stroke-width="1"/>
        <text transform="translate(-407.6107 191.83)" fill="black">
          <tspan font-family="Helvetica Neue" font-weight="bold" font-size="16" fill="black" x="84.52071" y="16" xml:space="preserve">pistioout</tspan>
          <tspan font-family="Helvetica Neue" font-size="16" fill="black" x="66.83271" y="34.46411" xml:space="preserve">192.168.127.2</tspan>
        </text>
      </g>
      <g id="Graphic_110">
        <path d="M -479.76726 299.61024 L -96.58616 299.61024 C -94.37702 299.61024 -92.58616 301.4011 -92.58616 303.61024 L -92.58616 661.2795 C -92.58616 663.4887 -94.37702 665.2795 -96.58616 665.2795 L -479.76726 665.2795 C -481.9764 665.2795 -483.76726 663.4887 -483.76726 661.2795 L -483.76726 303.61024 C -483.76726 301.4011 -481.9764 299.61024 -479.76726 299.61024 Z" fill="white"/>
        <path d="M -479.76726 299.61024 L -96.58616 299.61024 C -94.37702 299.61024 -92.58616 301.4011 -92.58616 303.61024 L -92.58616 661.2795 C -92.58616 663.4887 -94.37702 665.2795 -96.58616 665.2795 L -479.76726 665.2795 C -481.9764 665.2795 -483.76726 663.4887 -483.76726 661.2795 L -483.76726 303.61024 C -483.76726 301.4011 -481.9764 299.61024 -479.76726 299.61024 Z" stroke="gray" stroke-linecap="round" stroke-linejoin="round" stroke-width="1"/>
        <text transform="translate(-478.76726 640.8154)" fill="black">
          <tspan font-family="Helvetica Neue" font-weight="bold" font-size="16" fill="black" x="0" y="16" xml:space="preserve">Envoy Proxy</tspan>
        </text>
      </g>
      <g id="Line_109">
        <line x1="-289.626" y1="-26.37402" x2="-289.626" y2=".8319352" stroke="#456bb0" stroke-linecap="round" stroke-linejoin="round" stroke-width="2"/>
      </g>
      <g id="Line_108">
        <line x1="-289.626" y1="138.03543" x2="-289.626" y2="187.40022" stroke="#456bb0" stroke-linecap="round" stroke-linejoin="round" stroke-width="2"/>
      </g>
      <g id="Line_107">
        <line x1="-289.50122" y1="234.17187" x2="-289.1521" y2="299.61024" stroke="#456bb0" stroke-linecap="round" stroke-linejoin="round" stroke-width="2"/>
      </g>
      <g id="Graphic_106">
        <path d="M 1132.969 -94.40552 L 1516.15 -94.40552 C 1518.3592 -94.40552 1520.15 -92.61466 1520.15 -90.40552 L 1520.15 -30.37402 C 1520.15 -28.16488 1518.3592 -26.37402 1516.15 -26.37402 L 1132.969 -26.37402 C 1130.7598 -26.37402 1128.969 -28.16488 1128.969 -30.37402 L 1128.969 -90.40552 C 1128.969 -92.61466 1130.7598 -94.40552 1132.969 -94.40552 Z" fill="#333"/>
        <path d="M 1132.969 -94.40552 L 1516.15 -94.40552 C 1518.3592 -94.40552 1520.15 -92.61466 1520.15 -90.40552 L 1520.15 -30.37402 C 1520.15 -28.16488 1518.3592 -26.37402 1516.15 -26.37402 L 1132.969 -26.37402 C 1130.7598 -26.37402 1128.969 -28.16488 1128.969 -30.37402 L 1128.969 -90.40552 C 1128.969 -92.61466 1130.7598 -94.40552 1132.969 -94.40552 Z" stroke="gray" stroke-linecap="round" stroke-linejoin="round" stroke-width="1"/>
        <text transform="translate(1133.969 -89.40552)" fill="white">
          <tspan font-family="Helvetica Neue" font-weight="bold" font-size="16" fill="white" x="137.09455" y="16" xml:space="preserve">Service B Pod</tspan>
        </text>
      </g>
      <g id="Graphic_105">
        <path d="M 1132.969 693.626 L 1516.15 693.626 C 1518.3592 693.626 1520.15 695.41685 1520.15 697.626 L 1520.15 747.35975 C 1520.15 749.5689 1518.3592 751.35975 1516.15 751.35975 L 1132.969 751.35975 C 1130.7598 751.35975 1128.969 749.5689 1128.969 747.35975 L 1128.969 697.626 C 1128.969 695.41685 1130.7598 693.626 1132.969 693.626 Z" fill="#dadada"/>
        <path d="M 1132.969 693.626 L 1516.15 693.626 C 1518.3592 693.626 1520.15 695.41685 1520.15 697.626 L 1520.15 747.35975 C 1520.15 749.5689 1518.3592 751.35975 1516.15 751.35975 L 1132.969 751.35975 C 1130.7598 751.35975 1128.969 749.5689 1128.969 747.35975 L 1128.969 697.626 C 1128.969 695.41685 1130.7598 693.626 1132.969 693.626 Z" stroke="gray" stroke-linecap="round" stroke-linejoin="round" stroke-width="1"/>
        <text transform="translate(1133.969 703.5368)" fill="black">
          <tspan font-family="Helvetica Neue" font-weight="bold" font-size="16" fill="black" x="167.65455" y="16" xml:space="preserve">istioin</tspan>
          <tspan font-family="Helvetica Neue" font-size="16" fill="black" x="139.43855" y="34.46411" xml:space="preserve">192.168.126.1</tspan>
        </text>
      </g>
      <g id="Graphic_104">
        <path d="M 1132.969 131.47717 L 1516.15 131.47717 C 1518.3592 131.47717 1520.15 133.26803 1520.15 135.47717 L 1520.15 327.23235 C 1520.15 329.4415 1518.3592 331.23235 1516.15 331.23235 L 1132.969 331.23235 C 1130.7598 331.23235 1128.969 329.4415 1128.969 327.23235 L 1128.969 135.47717 C 1128.969 133.26803 1130.7598 131.47717 1132.969 131.47717 Z" fill="white"/>
        <path d="M 1132.969 131.47717 L 1516.15 131.47717 C 1518.3592 131.47717 1520.15 133.26803 1520.15 135.47717 L 1520.15 327.23235 C 1520.15 329.4415 1518.3592 331.23235 1516.15 331.23235 L 1132.969 331.23235 C 1130.7598 331.23235 1128.969 329.4415 1128.969 327.23235 L 1128.969 135.47717 C 1128.969 133.26803 1130.7598 131.47717 1132.969 131.47717 Z" stroke="gray" stroke-linecap="round" stroke-linejoin="round" stroke-width="1"/>
        <text transform="translate(1133.969 306.76824)" fill="black">
          <tspan font-family="Helvetica Neue" font-weight="bold" font-size="16" fill="black" x="0" y="16" xml:space="preserve">Envoy Proxy</tspan>
        </text>
      </g>
      <g id="Line_101">
        <line x1="1324.5595" y1="918.8124" x2="1324.5595" y2="751.35975" stroke="#456bb0" stroke-linecap="round" stroke-linejoin="round" stroke-width="2"/>
      </g>
      <g id="Line_100">
        <line x1="1324.5595" y1="693.626" x2="1324.5595" y2="495.3065" stroke="#456bb0" stroke-linecap="round" stroke-linejoin="round" stroke-width="2"/>
      </g>
      <g id="Line_99">
        <line x1="1324.5595" y1="437.57277" x2="1324.5595" y2="419.87855" stroke="#456bb0" stroke-linecap="round" stroke-linejoin="round" stroke-width="2"/>
      </g>
      <g id="Line_98">
        <line x1="1324.5595" y1="223.4112" x2="1324.5595" y2="197.9083" stroke="#456bb0" stroke-linecap="round" stroke-linejoin="round" stroke-width="2"/>
      </g>
      <g id="Line_97">
        <line x1="1324.5595" y1="91.26378" x2="1324.5595" y2="67.166965" stroke="#456bb0" stroke-linecap="round" stroke-linejoin="round" stroke-width="2"/>
      </g>
      <g id="Line_93">
        <line x1="-288.1767" y1="385.77967" x2="-288.1767" y2="437.57277" stroke="#456bb0" stroke-linecap="round" stroke-linejoin="round" stroke-width="2"/>
      </g>
      <g id="Graphic_92">
        <path d="M -173.53983 396.46767 L -408.6107 396.46767 C -410.81983 396.46767 -412.6107 398.25853 -412.6107 400.46767 L -412.6107 416.80367 C -412.6107 419.0128 -410.81983 420.80367 -408.6107 420.80367 L -173.53983 420.80367 C -171.33069 420.80367 -169.53983 419.0128 -169.53983 416.80367 L -169.53983 400.46767 C -169.53983 398.25853 -171.33069 396.46767 -173.53983 396.46767 Z" fill="white"/>
        <text transform="translate(-407.6107 401.46767)" fill="#f05a26">
          <tspan font-family="Helvetica Neue" font-size="12" fill="#f05a26" x="7.173431" y="11" xml:space="preserve">Match the destination port and cluster IP</tspan>
        </text>
      </g>
      <g id="Line_90">
        <line x1="-288.1767" y1="465.9192" x2="-288.1767" y2="517.7123" stroke="#456bb0" stroke-linecap="round" stroke-linejoin="round" stroke-width="2"/>
      </g>
      <g id="Line_89">
        <line x1="-288.1767" y1="546.0588" x2="-288.1767" y2="597.85186" stroke="#456bb0" stroke-linecap="round" stroke-linejoin="round" stroke-width="2"/>
      </g>
      <g id="Graphic_88">
        <path d="M -170.64128 146.3495 L -405.71214 146.3495 C -407.9213 146.3495 -409.71214 148.14037 -409.71214 150.3495 L -409.71214 167.69759 C -409.71214 169.90673 -407.9213 171.69759 -405.71214 171.69759 L -170.64128 171.69759 C -168.43214 171.69759 -166.64128 169.90673 -166.64128 167.69759 L -166.64128 150.3495 C -166.64128 148.14037 -168.43214 146.3495 -170.64128 146.3495 Z" fill="white"/>
        <text transform="translate(-404.71214 151.3495)" fill="#f05a26">
          <tspan font-family="Helvetica Neue" font-weight="bold" font-size="12" fill="#f05a26" x="75.52543" y="12" xml:space="preserve">Geneve tunnel</tspan>
        </text>
      </g>
      <g id="Graphic_87">
        <path d="M -305.4807 474.6573 L -270.8727 474.6573 C -268.66357 474.6573 -266.8727 476.4482 -266.8727 478.6573 L -266.8727 494.9933 C -266.8727 497.20246 -268.66357 498.9933 -270.8727 498.9933 L -305.4807 498.9933 C -307.68985 498.9933 -309.4807 497.20246 -309.4807 494.9933 L -309.4807 478.6573 C -309.4807 476.4482 -307.68985 474.6573 -305.4807 474.6573 Z" fill="white"/>
        <text transform="translate(-304.4807 479.6573)" fill="#f05a26">
          <tspan font-family="Helvetica Neue" font-size="12" fill="#f05a26" x="4.526001" y="11" xml:space="preserve">EDS</tspan>
        </text>
      </g>
      <g id="Graphic_86">
        <path d="M -479.76726 918.9803 L -96.58616 918.9803 C -94.37702 918.9803 -92.58616 920.7712 -92.58616 922.9803 L -92.58616 943.3268 C -92.58616 945.5359 -94.37702 947.3268 -96.58616 947.3268 L -479.76726 947.3268 C -481.9764 947.3268 -483.76726 945.5359 -483.76726 943.3268 L -483.76726 922.9803 C -483.76726 920.7712 -481.9764 918.9803 -479.76726 918.9803 Z" fill="#dadada"/>
        <path d="M -479.76726 918.9803 L -96.58616 918.9803 C -94.37702 918.9803 -92.58616 920.7712 -92.58616 922.9803 L -92.58616 943.3268 C -92.58616 945.5359 -94.37702 947.3268 -96.58616 947.3268 L -479.76726 947.3268 C -481.9764 947.3268 -483.76726 945.5359 -483.76726 943.3268 L -483.76726 922.9803 C -483.76726 920.7712 -481.9764 918.9803 -479.76726 918.9803 Z" stroke="gray" stroke-linecap="round" stroke-linejoin="round" stroke-width="1"/>
        <text transform="translate(-478.76726 923.4215)" fill="black">
          <tspan font-family="Helvetica Neue" font-weight="bold" font-size="16" fill="black" x="173.99055" y="16" xml:space="preserve">eth0</tspan>
        </text>
      </g>
      <g id="Graphic_85">
        <path d="M -479.76726 250.8866 L -96.58616 250.8866 C -94.37702 250.8866 -92.58616 252.67745 -92.58616 254.8866 L -92.58616 272.23467 C -92.58616 274.4438 -94.37702 276.23467 -96.58616 276.23467 L -479.76726 276.23467 C -481.9764 276.23467 -483.76726 274.4438 -483.76726 272.23467 L -483.76726 254.8866 C -483.76726 252.67745 -481.9764 250.8866 -479.76726 250.8866 Z" fill="#fffef3"/>
        <text transform="translate(-478.76726 253.82858)" fill="#f05a26">
          <tspan font-family="Helvetica Neue" font-weight="bold" font-size="16" fill="#f05a26" x="166.58255" y="16" xml:space="preserve">tproxy</tspan>
        </text>
      </g>
      <g id="Graphic_84">
        <path d="M -335.08707 -54.720476 L -244.1649 -54.720476 C -241.95576 -54.720476 -240.1649 -52.929615 -240.1649 -50.720476 L -240.1649 -30.37402 C -240.1649 -28.16488 -241.95576 -26.37402 -244.1649 -26.37402 L -335.08707 -26.37402 C -337.2962 -26.37402 -339.08707 -28.16488 -339.08707 -30.37402 L -339.08707 -50.720476 C -339.08707 -52.929615 -337.2962 -54.720476 -335.08707 -54.720476 Z" fill="#dadada"/>
        <text transform="translate(-334.08707 -50.279304)" fill="black">
          <tspan font-family="Helvetica Neue" font-weight="bold" font-size="16" fill="black" x="27.861086" y="16" xml:space="preserve">eth0</tspan>
        </text>
      </g>
      <g id="Graphic_83">
        <path d="M -481.21654 .8319352 L -98.03543 .8319352 C -95.82629 .8319352 -94.03543 2.6227962 -94.03543 4.831935 L -94.03543 25.178392 C -94.03543 27.38753 -95.82629 29.17839 -98.03543 29.17839 L -481.21654 29.17839 C -483.4257 29.17839 -485.21654 27.38753 -485.21654 25.178392 L -485.21654 4.831935 C -485.21654 2.6227962 -483.4257 .8319352 -481.21654 .8319352 Z" fill="#dadada"/>
        <path d="M -481.21654 .8319352 L -98.03543 .8319352 C -95.82629 .8319352 -94.03543 2.6227962 -94.03543 4.831935 L -94.03543 25.178392 C -94.03543 27.38753 -95.82629 29.17839 -98.03543 29.17839 L -481.21654 29.17839 C -483.4257 29.17839 -485.21654 27.38753 -485.21654 25.178392 L -485.21654 4.831935 C -485.21654 2.6227962 -483.4257 .8319352 -481.21654 .8319352 Z" stroke="gray" stroke-linecap="round" stroke-linejoin="round" stroke-width="1"/>
        <text transform="translate(-480.21654 5.273108)" fill="black">
          <tspan font-family="Helvetica Neue" font-weight="bold" font-size="16" fill="black" x="161.39055" y="16" xml:space="preserve">vethxxx</tspan>
        </text>
      </g>
      <g id="Line_82">
        <line x1="-289.626" y1="29.17839" x2="-289.626" y2="91.26378" stroke="#456bb0" stroke-linecap="round" stroke-linejoin="round" stroke-width="2"/>
      </g>
      <g id="Graphic_81">
        <path d="M -430.594 41.58488 L -148.65798 41.58488 C -146.44885 41.58488 -144.65798 43.37574 -144.65798 45.58488 L -144.65798 77.26896 C -144.65798 79.4781 -146.44885 81.26896 -148.65798 81.26896 L -430.594 81.26896 C -432.8031 81.26896 -434.594 79.4781 -434.594 77.26896 L -434.594 45.58488 C -434.594 43.37574 -432.8031 41.58488 -430.594 41.58488 Z" fill="white"/>
        <text transform="translate(-429.594 46.58488)" fill="#f05a26">
          <tspan font-family="Helvetica Neue" font-weight="bold" font-size="12" fill="#f05a26" x="34.992002" y="12" xml:space="preserve">iptables chain ztunnel-PREROUTING</tspan>
          <tspan font-family="Helvetica Neue" font-size="12" fill="#f05a26" x="89.946" y="26.348083" xml:space="preserve">mark 0x100/0x100</tspan>
        </text>
      </g>
      <g id="Graphic_79">
        <path d="M -352.56254 555.44374 L -223.79088 555.44374 C -221.58174 555.44374 -219.79088 557.2346 -219.79088 559.44374 L -219.79088 575.77974 C -219.79088 577.9889 -221.58174 579.77974 -223.79088 579.77974 L -352.56254 579.77974 C -354.77168 579.77974 -356.56254 577.9889 -356.56254 575.77974 L -356.56254 559.44374 C -356.56254 557.2346 -354.77168 555.44374 -352.56254 555.44374 Z" fill="white"/>
        <text transform="translate(-351.56254 560.44374)" fill="#f05a26">
          <tspan font-family="Helvetica Neue" font-size="12" fill="#f05a26" x="10.933826" y="11" xml:space="preserve">HTTP Tunnel config</tspan>
        </text>
      </g>
      <g id="Graphic_78">
        <path d="M -394.01923 747.48425 L -182.33419 747.48425 C -180.12505 747.48425 -178.33419 749.2751 -178.33419 751.48425 L -178.33419 771.8307 C -178.33419 774.03985 -180.12505 775.8307 -182.33419 775.8307 L -394.01923 775.8307 C -396.22837 775.8307 -398.01923 774.03985 -398.01923 771.8307 L -398.01923 751.48425 C -398.01923 749.2751 -396.22837 747.48425 -394.01923 747.48425 Z" fill="#dadada"/>
        <path d="M -394.01923 747.48425 L -182.33419 747.48425 C -180.12505 747.48425 -178.33419 749.2751 -178.33419 751.48425 L -178.33419 771.8307 C -178.33419 774.03985 -180.12505 775.8307 -182.33419 775.8307 L -394.01923 775.8307 C -396.22837 775.8307 -398.01923 774.03985 -398.01923 771.8307 L -398.01923 751.48425 C -398.01923 749.2751 -396.22837 747.48425 -394.01923 747.48425 Z" stroke="gray" stroke-linecap="round" stroke-linejoin="round" stroke-width="1"/>
        <text transform="translate(-393.01923 751.9254)" fill="black">
          <tspan font-family="Helvetica Neue" font-weight="bold" font-size="16" fill="black" x="88.24252" y="16" xml:space="preserve">eth0</tspan>
        </text>
      </g>
      <g id="Graphic_77">
        <path d="M -479.76726 801.3425 L -96.58616 801.3425 C -94.37702 801.3425 -92.58616 803.1334 -92.58616 805.3425 L -92.58616 825.689 C -92.58616 827.8981 -94.37702 829.689 -96.58616 829.689 L -479.76726 829.689 C -481.9764 829.689 -483.76726 827.8981 -483.76726 825.689 L -483.76726 805.3425 C -483.76726 803.1334 -481.9764 801.3425 -479.76726 801.3425 Z" fill="#dadada"/>
        <path d="M -479.76726 801.3425 L -96.58616 801.3425 C -94.37702 801.3425 -92.58616 803.1334 -92.58616 805.3425 L -92.58616 825.689 C -92.58616 827.8981 -94.37702 829.689 -96.58616 829.689 L -479.76726 829.689 C -481.9764 829.689 -483.76726 827.8981 -483.76726 825.689 L -483.76726 805.3425 C -483.76726 803.1334 -481.9764 801.3425 -479.76726 801.3425 Z" stroke="gray" stroke-linecap="round" stroke-linejoin="round" stroke-width="1"/>
        <text transform="translate(-478.76726 805.7837)" fill="black">
          <tspan font-family="Helvetica Neue" font-weight="bold" font-size="16" fill="black" x="161.39055" y="16" xml:space="preserve">vethxxx</tspan>
        </text>
      </g>
      <g id="Line_76">
        <line x1="-288.1767" y1="327.9567" x2="-288.1767" y2="357.4332" stroke="#456bb0" stroke-linecap="round" stroke-linejoin="round" stroke-width="2"/>
      </g>
      <g id="Line_75">
        <line x1="-288.1767" y1="626.1983" x2="-288.1767" y2="747.48425" stroke="#456bb0" stroke-linecap="round" stroke-linejoin="round" stroke-width="2"/>
      </g>
      <g id="Line_73">
        <line x1="-288.1767" y1="775.8307" x2="-288.1767" y2="801.3425" stroke="#456bb0" stroke-linecap="round" stroke-linejoin="round" stroke-width="2"/>
      </g>
      <g id="Line_72">
        <line x1="-288.1767" y1="829.689" x2="-288.1767" y2="906.0803" marker-end="url(#FilledArrow_Marker)" stroke="#456bb0" stroke-linecap="round" stroke-linejoin="round" stroke-width="2"/>
      </g>
      <g id="Graphic_71">
        <path d="M -479.76726 848.913 L -96.58616 848.913 C -94.37702 848.913 -92.58616 850.7038 -92.58616 852.913 L -92.58616 895.5289 C -92.58616 897.738 -94.37702 899.5289 -96.58616 899.5289 L -479.76726 899.5289 C -481.9764 899.5289 -483.76726 897.738 -483.76726 895.5289 L -483.76726 852.913 C -483.76726 850.7038 -481.9764 848.913 -479.76726 848.913 Z" fill="#fffef3"/>
        <path d="M -479.76726 848.913 L -96.58616 848.913 C -94.37702 848.913 -92.58616 850.7038 -92.58616 852.913 L -92.58616 895.5289 C -92.58616 897.738 -94.37702 899.5289 -96.58616 899.5289 L -479.76726 899.5289 C -481.9764 899.5289 -483.76726 897.738 -483.76726 895.5289 L -483.76726 852.913 C -483.76726 850.7038 -481.9764 848.913 -479.76726 848.913 Z" stroke="gray" stroke-linecap="round" stroke-linejoin="round" stroke-width="1"/>
        <text transform="translate(-478.76726 855.2649)" fill="#f05a26">
          <tspan font-family="Helvetica Neue" font-weight="bold" font-size="16" fill="#f05a26" x="157.72655" y="16" xml:space="preserve">Istio CNI</tspan>
          <tspan font-family="Helvetica Neue" font-size="16" fill="#f05a26" x="38.558546" y="34.46411" xml:space="preserve">Setup iptables rules and veth pair for node</tspan>
        </text>
      </g>
      <g id="Graphic_70">
        <path d="M 1132.969 918.8124 L 1516.15 918.8124 C 1518.3592 918.8124 1520.15 920.6033 1520.15 922.8124 L 1520.15 943.3268 C 1520.15 945.5359 1518.3592 947.3268 1516.15 947.3268 L 1132.969 947.3268 C 1130.7598 947.3268 1128.969 945.5359 1128.969 943.3268 L 1128.969 922.8124 C 1128.969 920.6033 1130.7598 918.8124 1132.969 918.8124 Z" fill="#dadada"/>
        <path d="M 1132.969 918.8124 L 1516.15 918.8124 C 1518.3592 918.8124 1520.15 920.6033 1520.15 922.8124 L 1520.15 943.3268 C 1520.15 945.5359 1518.3592 947.3268 1516.15 947.3268 L 1132.969 947.3268 C 1130.7598 947.3268 1128.969 945.5359 1128.969 943.3268 L 1128.969 922.8124 C 1128.969 920.6033 1130.7598 918.8124 1132.969 918.8124 Z" stroke="gray" stroke-linecap="round" stroke-linejoin="round" stroke-width="1"/>
        <text transform="translate(1133.969 923.3375)" fill="black">
          <tspan font-family="Helvetica Neue" font-weight="bold" font-size="16" fill="black" x="173.99055" y="16" xml:space="preserve">eth0</tspan>
        </text>
      </g>
      <g id="Graphic_69">
        <path d="M 1132.969 841.7951 L 1516.15 841.7951 C 1518.3592 841.7951 1520.15 843.586 1520.15 845.7951 L 1520.15 895.5289 C 1520.15 897.738 1518.3592 899.5289 1516.15 899.5289 L 1132.969 899.5289 C 1130.7598 899.5289 1128.969 897.738 1128.969 895.5289 L 1128.969 845.7951 C 1128.969 843.586 1130.7598 841.7951 1132.969 841.7951 Z" fill="#fffef3"/>
        <path d="M 1132.969 841.7951 L 1516.15 841.7951 C 1518.3592 841.7951 1520.15 843.586 1520.15 845.7951 L 1520.15 895.5289 C 1520.15 897.738 1518.3592 899.5289 1516.15 899.5289 L 1132.969 899.5289 C 1130.7598 899.5289 1128.969 897.738 1128.969 895.5289 L 1128.969 845.7951 C 1128.969 843.586 1130.7598 841.7951 1132.969 841.7951 Z" stroke="gray" stroke-linecap="round" stroke-linejoin="round" stroke-width="1"/>
        <text transform="translate(1133.969 851.7059)" fill="#f05a26">
          <tspan font-family="Helvetica Neue" font-weight="bold" font-size="16" fill="#f05a26" x="157.72655" y="16" xml:space="preserve">Istio CNI</tspan>
          <tspan font-family="Helvetica Neue" font-size="16" fill="#f05a26" x="38.558546" y="34.46411" xml:space="preserve">Setup iptables rules and veth pair for node</tspan>
        </text>
      </g>
      <g id="Graphic_68">
        <path d="M 1132.969 437.57277 L 1516.15 437.57277 C 1518.3592 437.57277 1520.15 439.3636 1520.15 441.57277 L 1520.15 491.3065 C 1520.15 493.51566 1518.3592 495.3065 1516.15 495.3065 L 1132.969 495.3065 C 1130.7598 495.3065 1128.969 493.51566 1128.969 491.3065 L 1128.969 441.57277 C 1128.969 439.3636 1130.7598 437.57277 1132.969 437.57277 Z" fill="#dadada"/>
        <path d="M 1132.969 437.57277 L 1516.15 437.57277 C 1518.3592 437.57277 1520.15 439.3636 1520.15 441.57277 L 1520.15 491.3065 C 1520.15 493.51566 1518.3592 495.3065 1516.15 495.3065 L 1132.969 495.3065 C 1130.7598 495.3065 1128.969 493.51566 1128.969 491.3065 L 1128.969 441.57277 C 1128.969 439.3636 1130.7598 437.57277 1132.969 437.57277 Z" stroke="gray" stroke-linecap="round" stroke-linejoin="round" stroke-width="1"/>
        <text transform="translate(1133.969 447.4836)" fill="black">
          <tspan font-family="Helvetica Neue" font-weight="bold" font-size="16" fill="black" x="162.76655" y="16" xml:space="preserve">pistioin</tspan>
          <tspan font-family="Helvetica Neue" font-size="16" fill="black" x="139.43855" y="34.46411" xml:space="preserve">192.168.126.2</tspan>
        </text>
      </g>
      <g id="Graphic_65">
        <path d="M 1132.969 400.52357 L 1516.15 400.52357 C 1518.3592 400.52357 1520.15 402.31443 1520.15 404.52357 L 1520.15 415.87855 C 1520.15 418.0877 1518.3592 419.87855 1516.15 419.87855 L 1132.969 419.87855 C 1130.7598 419.87855 1128.969 418.0877 1128.969 415.87855 L 1128.969 404.52357 C 1128.969 402.31443 1130.7598 400.52357 1132.969 400.52357 Z" fill="#fffef3"/>
        <text transform="translate(1133.969 400.469)" fill="#f05a26">
          <tspan font-family="Helvetica Neue" font-weight="bold" font-size="16" fill="#f05a26" x="166.58255" y="16" xml:space="preserve">tproxy</tspan>
        </text>
      </g>
      <g id="Graphic_64">
        <path d="M 1185.7175 782.8275 L 1467.6535 782.8275 C 1469.8626 782.8275 1471.6535 784.6184 1471.6535 786.8275 L 1471.6535 818.5116 C 1471.6535 820.7207 1469.8626 822.5116 1467.6535 822.5116 L 1185.7175 822.5116 C 1183.5084 822.5116 1181.7175 820.7207 1181.7175 818.5116 L 1181.7175 786.8275 C 1181.7175 784.6184 1183.5084 782.8275 1185.7175 782.8275 Z" fill="white"/>
        <text transform="translate(1186.7175 787.8275)" fill="#f05a26">
          <tspan font-family="Helvetica Neue" font-weight="bold" font-size="12" fill="#f05a26" x="34.992002" y="12" xml:space="preserve">iptables chain ztunnel-PREROUTING</tspan>
          <tspan font-family="Helvetica Neue" font-size="12" fill="#f05a26" x="89.946" y="26.348083" xml:space="preserve">mark 0x200/0x200</tspan>
        </text>
      </g>
      <g id="Graphic_63">
        <path d="M 1442.095 640.9435 L 1207.0241 640.9435 C 1204.815 640.9435 1203.0241 642.7344 1203.0241 644.9435 L 1203.0241 662.2916 C 1203.0241 664.50075 1204.815 666.2916 1207.0241 666.2916 L 1442.095 666.2916 C 1444.3041 666.2916 1446.095 664.50075 1446.095 662.2916 L 1446.095 644.9435 C 1446.095 642.7344 1444.3041 640.9435 1442.095 640.9435 Z" fill="white"/>
        <text transform="translate(1208.0241 645.9435)" fill="#f05a26">
          <tspan font-family="Helvetica Neue" font-weight="bold" font-size="12" fill="#f05a26" x="75.52543" y="12" xml:space="preserve">Geneve tunnel</tspan>
        </text>
      </g>
      <g id="Graphic_62">
        <path d="M 1260.1737 91.26378 L 1388.9454 91.26378 C 1391.1545 91.26378 1392.9454 93.05464 1392.9454 95.26378 L 1392.9454 108.5213 C 1392.9454 110.73043 1391.1545 112.5213 1388.9454 112.5213 L 1260.1737 112.5213 C 1257.9646 112.5213 1256.1737 110.73043 1256.1737 108.5213 L 1256.1737 95.26378 C 1256.1737 93.05464 1257.9646 91.26378 1260.1737 91.26378 Z" fill="#dadada"/>
        <path d="M 1260.1737 91.26378 L 1388.9454 91.26378 C 1391.1545 91.26378 1392.9454 93.05464 1392.9454 95.26378 L 1392.9454 108.5213 C 1392.9454 110.73043 1391.1545 112.5213 1388.9454 112.5213 L 1260.1737 112.5213 C 1257.9646 112.5213 1256.1737 110.73043 1256.1737 108.5213 L 1256.1737 95.26378 C 1256.1737 93.05464 1257.9646 91.26378 1260.1737 91.26378 Z" stroke="gray" stroke-linecap="round" stroke-linejoin="round" stroke-width="1"/>
        <text transform="translate(1261.1737 92.16048)" fill="black">
          <tspan font-family="Helvetica Neue" font-weight="bold" font-size="16" fill="black" x="46.785826" y="16" xml:space="preserve">eth0</tspan>
        </text>
      </g>
      <g id="Graphic_61">
        <path d="M 1279.0984 -54.720476 L 1370.0206 -54.720476 C 1372.2298 -54.720476 1374.0206 -52.929615 1374.0206 -50.720476 L 1374.0206 -30.37402 C 1374.0206 -28.16488 1372.2298 -26.37402 1370.0206 -26.37402 L 1279.0984 -26.37402 C 1276.8893 -26.37402 1275.0984 -28.16488 1275.0984 -30.37402 L 1275.0984 -50.720476 C 1275.0984 -52.929615 1276.8893 -54.720476 1279.0984 -54.720476 Z" fill="#dadada"/>
        <text transform="translate(1280.0984 -50.279304)" fill="black">
          <tspan font-family="Helvetica Neue" font-weight="bold" font-size="16" fill="black" x="27.861086" y="16" xml:space="preserve">eth0</tspan>
        </text>
      </g>
      <g id="Graphic_60">
        <path d="M 1132.969 45.909445 L 1516.15 45.909445 C 1518.3592 45.909445 1520.15 47.700306 1520.15 49.909445 L 1520.15 63.166965 C 1520.15 65.3761 1518.3592 67.166965 1516.15 67.166965 L 1132.969 67.166965 C 1130.7598 67.166965 1128.969 65.3761 1128.969 63.166965 L 1128.969 49.909445 C 1128.969 47.700306 1130.7598 45.909445 1132.969 45.909445 Z" fill="#dadada"/>
        <path d="M 1132.969 45.909445 L 1516.15 45.909445 C 1518.3592 45.909445 1520.15 47.700306 1520.15 49.909445 L 1520.15 63.166965 C 1520.15 65.3761 1518.3592 67.166965 1516.15 67.166965 L 1132.969 67.166965 C 1130.7598 67.166965 1128.969 65.3761 1128.969 63.166965 L 1128.969 49.909445 C 1128.969 47.700306 1130.7598 45.909445 1132.969 45.909445 Z" stroke="gray" stroke-linecap="round" stroke-linejoin="round" stroke-width="1"/>
        <text transform="translate(1133.969 46.80615)" fill="black">
          <tspan font-family="Helvetica Neue" font-weight="bold" font-size="16" fill="black" x="161.39055" y="16" xml:space="preserve">vethxxx</tspan>
        </text>
      </g>
      <g id="Graphic_59">
        <path d="M 1132.969 -.8610468 L 1516.15 -.8610468 C 1518.3592 -.8610468 1520.15 .9298142 1520.15 3.1389532 L 1520.15 16.396472 C 1520.15 18.605611 1518.3592 20.396472 1516.15 20.396472 L 1132.969 20.396472 C 1130.7598 20.396472 1128.969 18.605611 1128.969 16.396472 L 1128.969 3.1389532 C 1128.969 .9298142 1130.7598 -.8610468 1132.969 -.8610468 Z" fill="#dadada"/>
        <path d="M 1132.969 -.8610468 L 1516.15 -.8610468 C 1518.3592 -.8610468 1520.15 .9298142 1520.15 3.1389532 L 1520.15 16.396472 C 1520.15 18.605611 1518.3592 20.396472 1516.15 20.396472 L 1132.969 20.396472 C 1130.7598 20.396472 1128.969 18.605611 1128.969 16.396472 L 1128.969 3.1389532 C 1128.969 .9298142 1130.7598 -.8610468 1132.969 -.8610468 Z" stroke="gray" stroke-linecap="round" stroke-linejoin="round" stroke-width="1"/>
        <text transform="translate(1133.969 .035657136)" fill="black">
          <tspan font-family="Helvetica Neue" font-weight="bold" font-size="16" fill="black" x="161.39055" y="16" xml:space="preserve">vethxxx</tspan>
        </text>
      </g>
      <g id="Line_58">
        <line x1="1324.5595" y1="45.909445" x2="1324.5595" y2="20.396472" stroke="#456bb0" stroke-linecap="round" stroke-linejoin="round" stroke-width="2"/>
      </g>
      <g id="Line_57">
        <line x1="1324.5595" y1="-.8610468" x2="1324.5595" y2="-13.47402" marker-end="url(#FilledArrow_Marker)" stroke="#456bb0" stroke-linecap="round" stroke-linejoin="round" stroke-width="2"/>
      </g>
      <g id="Line_55">
        <path d="M 1324.5595 400.52357 L 1324.5595 380.7366 L 1358.6323 380.7366 L 1358.6323 331.23235" stroke="#456bb0" stroke-linecap="round" stroke-linejoin="round" stroke-width="2"/>
      </g>
      <g id="Graphic_54">
        <path d="M 1383.6875 346.0026 L 1333.5772 346.0026 C 1331.3681 346.0026 1329.5772 347.79344 1329.5772 350.0026 L 1329.5772 366.3386 C 1329.5772 368.5477 1331.3681 370.3386 1333.5772 370.3386 L 1383.6875 370.3386 C 1385.8966 370.3386 1387.6875 368.5477 1387.6875 366.3386 L 1387.6875 350.0026 C 1387.6875 347.79344 1385.8966 346.0026 1383.6875 346.0026 Z" fill="#fffef3"/>
        <text transform="translate(1334.5772 351.0026)" fill="#f05a26">
          <tspan font-family="Helvetica Neue" font-size="12" fill="#f05a26" x="13.387119" y="11" xml:space="preserve">TLS</tspan>
        </text>
      </g>
      <g id="Line_53">
        <path d="M 1287.9375 302.90157 L 1287.9375 280.65147 L 1324.5595 280.65147 L 1324.5595 258.40137" stroke="#456bb0" stroke-linecap="round" stroke-linejoin="round" stroke-width="2"/>
      </g>
      <g id="Line_52">
        <path d="M 1358.6323 302.8859 L 1358.6323 280.64363 L 1324.5595 280.64363 L 1324.5595 258.40137" stroke="#456bb0" stroke-linecap="round" stroke-linejoin="round" stroke-width="2"/>
      </g>
      <g id="Line_51">
        <line x1="1324.5595" y1="162.91813" x2="1324.5595" y2="112.5213" stroke="#456bb0" stroke-linecap="round" stroke-linejoin="round" stroke-width="2"/>
      </g>
      <g id="Line_50">
        <path d="M 1324.5595 400.52357 L 1324.5595 380.7657 L 1287.9375 380.7657 L 1287.9375 330.90157" stroke="#456bb0" stroke-linecap="round" stroke-linejoin="round" stroke-width="2"/>
      </g>
      <g id="Graphic_49">
        <path d="M 1312.9926 346.50663 L 1262.8823 346.50663 C 1260.6732 346.50663 1258.8823 348.2975 1258.8823 350.50663 L 1258.8823 366.84263 C 1258.8823 369.05177 1260.6732 370.84263 1262.8823 370.84263 L 1312.9926 370.84263 C 1315.2017 370.84263 1316.9926 369.05177 1316.9926 366.84263 L 1316.9926 350.50663 C 1316.9926 348.2975 1315.2017 346.50663 1312.9926 346.50663 Z" fill="#fffef3"/>
        <text transform="translate(1263.8823 351.50663)" fill="#f05a26">
          <tspan font-family="Helvetica Neue" font-size="12" fill="#f05a26" x="10.945119" y="11" xml:space="preserve">Plain</tspan>
        </text>
      </g>
      <g id="Line_48">
        <line x1="-92.58616" y1="933.1329" x2="298.0956" y2="933.0916" marker-end="url(#FilledArrow_Marker)" stroke="#456bb0" stroke-linecap="round" stroke-linejoin="round" stroke-width="2"/>
      </g>
      <g id="Graphic_47">
        <text transform="translate(24.671361 913.649)" fill="#f05a26">
          <tspan font-family="Helvetica Neue" font-weight="bold" font-size="16" fill="#f05a26" x="13.624" y="16" xml:space="preserve">HBONE Tunnel</tspan>
          <tspan font-family="Helvetica Neue" font-weight="bold" font-size="16" fill="#f05a26" x="0" y="35.46411" xml:space="preserve">Waypoint IP:15006</tspan>
        </text>
      </g>
      <g id="Line_46">
        <line x1="702.1767" y1="933.0696" x2="1116.069" y2="933.0696" marker-end="url(#FilledArrow_Marker)" stroke="#456bb0" stroke-linecap="round" stroke-linejoin="round" stroke-width="2"/>
      </g>
      <g id="Graphic_45">
        <text transform="translate(860.1456 913.6055)" fill="#f05a26">
          <tspan font-family="Helvetica Neue" font-weight="bold" font-size="16" fill="#f05a26" x="1.192" y="16" xml:space="preserve">HBONE Tunnel</tspan>
          <tspan font-family="Helvetica Neue" font-weight="bold" font-size="16" fill="#f05a26" x="7673862e-19" y="35.46411" xml:space="preserve">Pod B IP:15008</tspan>
        </text>
      </g>
      <g id="Graphic_44">
        <path d="M 222.42763 -131.25591 L 781.3568 -131.25591 C 783.5659 -131.25591 785.3568 -129.46505 785.3568 -127.25591 L 785.3568 970.2559 C 785.3568 972.465 783.5659 974.2559 781.3568 974.2559 L 222.42763 974.2559 C 220.2185 974.2559 218.42763 972.465 218.42763 970.2559 L 218.42763 -127.25591 C 218.42763 -129.46505 220.2185 -131.25591 222.42763 -131.25591 Z" stroke="#a5a5a5" stroke-linecap="round" stroke-linejoin="round" stroke-width="1"/>
        <text transform="translate(223.42763 949.7918)" fill="black">
          <tspan font-family="Helvetica Neue" font-weight="bold" font-size="16" fill="black" x="0" y="16" xml:space="preserve">Node C</tspan>
        </text>
      </g>
      <g id="Graphic_43">
        <path d="M 255.02605 -46.21654 L 748.7583 -46.21654 C 750.9675 -46.21654 752.7583 -44.42568 752.7583 -42.21654 L 752.7583 669.52 C 752.7583 671.7292 750.9675 673.52 748.7583 673.52 L 255.02605 673.52 C 252.8169 673.52 251.02605 671.7292 251.02605 669.52 L 251.02605 -42.21654 C 251.02605 -44.42568 252.8169 -46.21654 255.02605 -46.21654 Z" fill="#fffef3"/>
        <path d="M 255.02605 -46.21654 L 748.7583 -46.21654 C 750.9675 -46.21654 752.7583 -44.42568 752.7583 -42.21654 L 752.7583 669.52 C 752.7583 671.7292 750.9675 673.52 748.7583 673.52 L 255.02605 673.52 C 252.8169 673.52 251.02605 671.7292 251.02605 669.52 L 251.02605 -42.21654 C 251.02605 -44.42568 252.8169 -46.21654 255.02605 -46.21654 Z" stroke="#a5a5a5" stroke-linecap="round" stroke-linejoin="round" stroke-width="1"/>
        <text transform="translate(256.02605 649.0559)" fill="black">
          <tspan font-family="Helvetica Neue" font-weight="bold" font-size="16" fill="black" x="0" y="16" xml:space="preserve">Waypoint Proxy</tspan>
        </text>
      </g>
      <g id="Graphic_42">
        <path d="M 314.9956 718.74934 L 698.1767 718.74934 C 700.38584 718.74934 702.1767 720.5402 702.1767 722.74934 L 702.1767 772.4831 C 702.1767 774.6922 700.38584 776.4831 698.1767 776.4831 L 314.9956 776.4831 C 312.78646 776.4831 310.9956 774.6922 310.9956 772.4831 L 310.9956 722.74934 C 310.9956 720.5402 312.78646 718.74934 314.9956 718.74934 Z" fill="#dadada"/>
        <path d="M 314.9956 718.74934 L 698.1767 718.74934 C 700.38584 718.74934 702.1767 720.5402 702.1767 722.74934 L 702.1767 772.4831 C 702.1767 774.6922 700.38584 776.4831 698.1767 776.4831 L 314.9956 776.4831 C 312.78646 776.4831 310.9956 774.6922 310.9956 772.4831 L 310.9956 722.74934 C 310.9956 720.5402 312.78646 718.74934 314.9956 718.74934 Z" stroke="gray" stroke-linecap="round" stroke-linejoin="round" stroke-width="1"/>
        <text transform="translate(315.9956 728.6602)" fill="black">
          <tspan font-family="Helvetica Neue" font-weight="bold" font-size="16" fill="black" x="167.65455" y="16" xml:space="preserve">istioin</tspan>
          <tspan font-family="Helvetica Neue" font-size="16" fill="black" x="139.43855" y="34.46411" xml:space="preserve">192.168.126.1</tspan>
        </text>
      </g>
      <g id="Line_41">
        <line x1="506.58615" y1="918.8124" x2="506.58615" y2="776.4831" stroke="#456bb0" stroke-linecap="round" stroke-linejoin="round" stroke-width="2"/>
      </g>
      <g id="Line_40">
        <line x1="506.58615" y1="718.74934" x2="506.58615" y2="575.4461" stroke="#456bb0" stroke-linecap="round" stroke-linejoin="round" stroke-width="2"/>
      </g>
      <g id="Line_39">
        <line x1="506.58615" y1="517.7123" x2="506.58615" y2="501.49326" stroke="#456bb0" stroke-linecap="round" stroke-linejoin="round" stroke-width="2"/>
      </g>
      <g id="Graphic_38">
        <path d="M 314.9956 918.8124 L 698.1767 918.8124 C 700.38584 918.8124 702.1767 920.6033 702.1767 922.8124 L 702.1767 943.3268 C 702.1767 945.5359 700.38584 947.3268 698.1767 947.3268 L 314.9956 947.3268 C 312.78646 947.3268 310.9956 945.5359 310.9956 943.3268 L 310.9956 922.8124 C 310.9956 920.6033 312.78646 918.8124 314.9956 918.8124 Z" fill="#dadada"/>
        <path d="M 314.9956 918.8124 L 698.1767 918.8124 C 700.38584 918.8124 702.1767 920.6033 702.1767 922.8124 L 702.1767 943.3268 C 702.1767 945.5359 700.38584 947.3268 698.1767 947.3268 L 314.9956 947.3268 C 312.78646 947.3268 310.9956 945.5359 310.9956 943.3268 L 310.9956 922.8124 C 310.9956 920.6033 312.78646 918.8124 314.9956 918.8124 Z" stroke="gray" stroke-linecap="round" stroke-linejoin="round" stroke-width="1"/>
        <text transform="translate(315.9956 923.3375)" fill="black">
          <tspan font-family="Helvetica Neue" font-weight="bold" font-size="16" fill="black" x="173.99055" y="16" xml:space="preserve">eth0</tspan>
        </text>
      </g>
      <g id="Graphic_37">
        <path d="M 314.9956 517.7123 L 698.1767 517.7123 C 700.38584 517.7123 702.1767 519.5032 702.1767 521.7123 L 702.1767 571.4461 C 702.1767 573.6552 700.38584 575.4461 698.1767 575.4461 L 314.9956 575.4461 C 312.78646 575.4461 310.9956 573.6552 310.9956 571.4461 L 310.9956 521.7123 C 310.9956 519.5032 312.78646 517.7123 314.9956 517.7123 Z" fill="#dadada"/>
        <path d="M 314.9956 517.7123 L 698.1767 517.7123 C 700.38584 517.7123 702.1767 519.5032 702.1767 521.7123 L 702.1767 571.4461 C 702.1767 573.6552 700.38584 575.4461 698.1767 575.4461 L 314.9956 575.4461 C 312.78646 575.4461 310.9956 573.6552 310.9956 571.4461 L 310.9956 521.7123 C 310.9956 519.5032 312.78646 517.7123 314.9956 517.7123 Z" stroke="gray" stroke-linecap="round" stroke-linejoin="round" stroke-width="1"/>
        <text transform="translate(315.9956 527.62314)" fill="black">
          <tspan font-family="Helvetica Neue" font-weight="bold" font-size="16" fill="black" x="162.76655" y="16" xml:space="preserve">pistioin</tspan>
          <tspan font-family="Helvetica Neue" font-size="16" fill="black" x="139.43855" y="34.46411" xml:space="preserve">192.168.126.2</tspan>
        </text>
      </g>
      <g id="Graphic_35">
        <path d="M 314.9956 482.1383 L 698.1767 482.1383 C 700.38584 482.1383 702.1767 483.92914 702.1767 486.1383 L 702.1767 497.49326 C 702.1767 499.7024 700.38584 501.49326 698.1767 501.49326 L 314.9956 501.49326 C 312.78646 501.49326 310.9956 499.7024 310.9956 497.49326 L 310.9956 486.1383 C 310.9956 483.92914 312.78646 482.1383 314.9956 482.1383 Z" fill="#fffef3"/>
        <text transform="translate(315.9956 482.0837)" fill="#f05a26">
          <tspan font-family="Helvetica Neue" font-weight="bold" font-size="16" fill="#f05a26" x="166.58255" y="16" xml:space="preserve">tproxy</tspan>
        </text>
      </g>
      <g id="Graphic_34">
        <path d="M 367.74413 795.6737 L 649.6801 795.6737 C 651.8893 795.6737 653.6801 797.4646 653.6801 799.6737 L 653.6801 831.3578 C 653.6801 833.5669 651.8893 835.3578 649.6801 835.3578 L 367.74413 835.3578 C 365.535 835.3578 363.74413 833.5669 363.74413 831.3578 L 363.74413 799.6737 C 363.74413 797.4646 365.535 795.6737 367.74413 795.6737 Z" fill="white"/>
        <text transform="translate(368.74413 800.6737)" fill="#f05a26">
          <tspan font-family="Helvetica Neue" font-weight="bold" font-size="12" fill="#f05a26" x="34.992002" y="12" xml:space="preserve">iptables chain ztunnel-PREROUTING</tspan>
          <tspan font-family="Helvetica Neue" font-size="12" fill="#f05a26" x="89.946" y="26.348083" xml:space="preserve">mark 0x200/0x200</tspan>
        </text>
      </g>
      <g id="Graphic_33">
        <path d="M 624.1216 683.9667 L 389.0507 683.9667 C 386.8416 683.9667 385.0507 685.75755 385.0507 687.9667 L 385.0507 705.3148 C 385.0507 707.5239 386.8416 709.3148 389.0507 709.3148 L 624.1216 709.3148 C 626.3307 709.3148 628.1216 707.5239 628.1216 705.3148 L 628.1216 687.9667 C 628.1216 685.75755 626.3307 683.9667 624.1216 683.9667 Z" fill="white"/>
        <text transform="translate(390.0507 688.9667)" fill="#f05a26">
          <tspan font-family="Helvetica Neue" font-weight="bold" font-size="12" fill="#f05a26" x="75.52543" y="12" xml:space="preserve">Geneve tunnel</tspan>
        </text>
      </g>
      <g id="Graphic_31">
        <path d="M 314.9956 1.9724371 L 698.1767 1.9724371 C 700.38584 1.9724371 702.1767 3.763298 702.1767 5.972437 L 702.1767 461.53896 C 702.1767 463.7481 700.38584 465.53896 698.1767 465.53896 L 314.9956 465.53896 C 312.78646 465.53896 310.9956 463.7481 310.9956 461.53896 L 310.9956 5.972437 C 310.9956 3.763298 312.78646 1.9724371 314.9956 1.9724371 Z" fill="white"/>
        <path d="M 314.9956 1.9724371 L 698.1767 1.9724371 C 700.38584 1.9724371 702.1767 3.763298 702.1767 5.972437 L 702.1767 461.53896 C 702.1767 463.7481 700.38584 465.53896 698.1767 465.53896 L 314.9956 465.53896 C 312.78646 465.53896 310.9956 463.7481 310.9956 461.53896 L 310.9956 5.972437 C 310.9956 3.763298 312.78646 1.9724371 314.9956 1.9724371 Z" stroke="gray" stroke-linecap="round" stroke-linejoin="round" stroke-width="1"/>
        <text transform="translate(315.9956 438.53896)" fill="black">
          <tspan font-family="Helvetica Neue" font-weight="bold" font-size="16" fill="black" x="0" y="17" xml:space="preserve">E</tspan>
          <tspan font-family="PingFang SC" font-weight="bold" font-size="16" fill="black" y="17" xml:space="preserve">nvoy Proxy</tspan>
        </text>
      </g>
      <g id="Line_17">
        <line x1="506.48786" y1="482.1383" x2="506.3231" y2="465.9192" stroke="#456bb0" stroke-linecap="round" stroke-linejoin="round" stroke-width="2"/>
      </g>
      <g id="Graphic_11">
        <path d="M 314.9956 -94.40552 L 698.1767 -94.40552 C 700.38584 -94.40552 702.1767 -92.61466 702.1767 -90.40552 L 702.1767 -70.05906 C 702.1767 -67.84992 700.38584 -66.05906 698.1767 -66.05906 L 314.9956 -66.05906 C 312.78646 -66.05906 310.9956 -67.84992 310.9956 -70.05906 L 310.9956 -90.40552 C 310.9956 -92.61466 312.78646 -94.40552 314.9956 -94.40552 Z" fill="#dadada"/>
        <path d="M 314.9956 -94.40552 L 698.1767 -94.40552 C 700.38584 -94.40552 702.1767 -92.61466 702.1767 -90.40552 L 702.1767 -70.05906 C 702.1767 -67.84992 700.38584 -66.05906 698.1767 -66.05906 L 314.9956 -66.05906 C 312.78646 -66.05906 310.9956 -67.84992 310.9956 -70.05906 L 310.9956 -90.40552 C 310.9956 -92.61466 312.78646 -94.40552 314.9956 -94.40552 Z" stroke="gray" stroke-linecap="round" stroke-linejoin="round" stroke-width="1"/>
        <text transform="translate(315.9956 -89.96434)" fill="black">
          <tspan font-family="Helvetica Neue" font-weight="bold" font-size="16" fill="black" x="161.39055" y="16" xml:space="preserve">vethxxx</tspan>
        </text>
      </g>
      <g id="Line_9">
        <path d="M 702.1767 -80.23229 L 769.0438 -80.23229 L 769.0438 814.2719 L 666.2258 814.2719 L 666.2258 905.9124" marker-end="url(#FilledArrow_Marker)" stroke="#456bb0" stroke-linecap="round" stroke-linejoin="round" stroke-width="2"/>
      </g>
      <g id="Graphic_8">
        <text transform="translate(720.2209 -98.68029)" fill="#f05a26">
          <tspan font-family="Helvetica Neue" font-size="16" fill="#f05a26" x="7.416" y="15" xml:space="preserve">To</tspan>
          <tspan font-family="Helvetica Neue" font-size="16" fill="#f05a26" x="0" y="33.448" xml:space="preserve">eth0</tspan>
        </text>
      </g>
      <g id="Graphic_7">
        <text transform="translate(516.81346 327.23335)" fill="black">
          <tspan font-family="Helvetica Neue" font-size="12" fill="black" x="2.4831344" y="11" xml:space="preserve">STATIC</tspan>
        </text>
      </g>
      <g id="Graphic_6">
        <text transform="translate(516.81346 216.73622)" fill="black">
          <tspan font-family="Helvetica Neue" font-size="12" fill="black" x="4.526001" y="11" xml:space="preserve">EDS</tspan>
        </text>
      </g>
      <g id="Graphic_5">
        <text transform="translate(516.81346 111.85433)" fill="black">
          <tspan font-family="Helvetica Neue" font-size="12" fill="black" x="2.4831344" y="11" xml:space="preserve">STATIC</tspan>
        </text>
      </g>
      <g id="Graphic_4">
        <text transform="translate(512.5615 6.972437)" fill="black">
          <tspan font-family="Helvetica Neue" font-size="12" fill="black" x="4.967499" y="11" xml:space="preserve">ORIGINAL_DST</tspan>
        </text>
      </g>
      <g id="Graphic_3">
        <path d="M 314.9956 841.7951 L 698.1767 841.7951 C 700.38584 841.7951 702.1767 843.586 702.1767 845.7951 L 702.1767 895.5289 C 702.1767 897.738 700.38584 899.5289 698.1767 899.5289 L 314.9956 899.5289 C 312.78646 899.5289 310.9956 897.738 310.9956 895.5289 L 310.9956 845.7951 C 310.9956 843.586 312.78646 841.7951 314.9956 841.7951 Z" fill="#fffef3"/>
        <path d="M 314.9956 841.7951 L 698.1767 841.7951 C 700.38584 841.7951 702.1767 843.586 702.1767 845.7951 L 702.1767 895.5289 C 702.1767 897.738 700.38584 899.5289 698.1767 899.5289 L 314.9956 899.5289 C 312.78646 899.5289 310.9956 897.738 310.9956 895.5289 L 310.9956 845.7951 C 310.9956 843.586 312.78646 841.7951 314.9956 841.7951 Z" stroke="gray" stroke-linecap="round" stroke-linejoin="round" stroke-width="1"/>
        <text transform="translate(315.9956 851.7059)" fill="#f05a26">
          <tspan font-family="Helvetica Neue" font-weight="bold" font-size="16" fill="#f05a26" x="157.72655" y="16" xml:space="preserve">Istio CNI</tspan>
          <tspan font-family="Helvetica Neue" font-size="16" fill="#f05a26" x="38.558546" y="34.46411" xml:space="preserve">Setup iptables rules and veth pair for node</tspan>
        </text>
      </g>
      <g id="Graphic_2">
        <rect x="-337.18647" y="633.0284" width="98.01953" height="24" fill="white"/>
        <text transform="translate(-332.18647 638.0284)" fill="#f05a26">
          <tspan font-family="Helvetica" font-size="12" fill="#f05a26" x="0" y="11" xml:space="preserve">ORIGINAL_DST</tspan>
        </text>
      </g>
      <g id="Line_119">
        <line x1="506.19464" y1="438.58785" x2="506.5657" y2="-53.159063" marker-end="url(#FilledArrow_Marker)" stroke="#456bb0" stroke-linecap="round" stroke-linejoin="round" stroke-width="2"/>
      </g>
      <g id="Graphic_103">
        <path d="M 1212.339 223.4112 L 1436.78 223.4112 C 1438.9891 223.4112 1440.78 225.20207 1440.78 227.4112 L 1440.78 254.40137 C 1440.78 256.6105 1438.9891 258.40137 1436.78 258.40137 L 1212.339 258.40137 C 1210.1299 258.40137 1208.339 256.6105 1208.339 254.40137 L 1208.339 227.4112 C 1208.339 225.20207 1210.1299 223.4112 1212.339 223.4112 Z" fill="#f05a26"/>
        <text transform="translate(1213.339 231.17423)" fill="white">
          <tspan font-family="Helvetica Neue" font-weight="bold" font-size="16" fill="white" x="14.188474" y="16" xml:space="preserve">Ztunnel_inbound Listener</tspan>
        </text>
      </g>
      <g id="Graphic_102">
        <path d="M 1212.339 162.91813 L 1436.78 162.91813 C 1438.9891 162.91813 1440.78 164.709 1440.78 166.91813 L 1440.78 193.9083 C 1440.78 196.11743 1438.9891 197.9083 1436.78 197.9083 L 1212.339 197.9083 C 1210.1299 197.9083 1208.339 196.11743 1208.339 193.9083 L 1208.339 166.91813 C 1208.339 164.709 1210.1299 162.91813 1212.339 162.91813 Z" fill="#f05a26"/>
        <text transform="translate(1213.339 170.68115)" fill="white">
          <tspan font-family="Helvetica Neue" font-weight="bold" font-size="16" fill="white" x="22.196474" y="16" xml:space="preserve">Virtual_inbound Cluster</tspan>
        </text>
      </g>
      <g id="Graphic_96">
        <path d="M -400.3972 357.4332 L -175.95624 357.4332 C -173.7471 357.4332 -171.95624 359.22408 -171.95624 361.4332 L -171.95624 381.77967 C -171.95624 383.9888 -173.7471 385.77967 -175.95624 385.77967 L -400.3972 385.77967 C -402.6063 385.77967 -404.3972 383.9888 -404.3972 381.77967 L -404.3972 361.4332 C -404.3972 359.22408 -402.6063 357.4332 -400.3972 357.4332 Z" fill="#f05a26"/>
        <text transform="translate(-399.3972 361.8744)" fill="white">
          <tspan font-family="Helvetica Neue" font-weight="bold" font-size="16" fill="white" x="8.548474" y="16" xml:space="preserve">Ztunnel_outbound Listener</tspan>
        </text>
      </g>
      <g id="Graphic_95">
        <path d="M -400.3972 437.57277 L -175.95624 437.57277 C -173.7471 437.57277 -171.95624 439.3636 -171.95624 441.57277 L -171.95624 461.9192 C -171.95624 464.12836 -173.7471 465.9192 -175.95624 465.9192 L -400.3972 465.9192 C -402.6063 465.9192 -404.3972 464.12836 -404.3972 461.9192 L -404.3972 441.57277 C -404.3972 439.3636 -402.6063 437.57277 -400.3972 437.57277 Z" fill="#f05a26"/>
        <text transform="translate(-399.3972 442.01394)" fill="white">
          <tspan font-family="Helvetica Neue" font-weight="bold" font-size="16" fill="white" x="45.436474" y="16" xml:space="preserve">Service A Cluster</tspan>
        </text>
      </g>
      <g id="Graphic_94">
        <path d="M -400.3972 517.7123 L -175.95624 517.7123 C -173.7471 517.7123 -171.95624 519.5032 -171.95624 521.7123 L -171.95624 542.0588 C -171.95624 544.2679 -173.7471 546.0588 -175.95624 546.0588 L -400.3972 546.0588 C -402.6063 546.0588 -404.3972 544.2679 -404.3972 542.0588 L -404.3972 521.7123 C -404.3972 519.5032 -402.6063 517.7123 -400.3972 517.7123 Z" fill="#f05a26"/>
        <text transform="translate(-399.3972 522.1535)" fill="white">
          <tspan font-family="Helvetica Neue" font-weight="bold" font-size="16" fill="white" x="9.316474" y="16" xml:space="preserve">Internal Upstream Listener</tspan>
        </text>
      </g>
      <g id="Graphic_91">
        <path d="M -400.3972 597.85186 L -175.95624 597.85186 C -173.7471 597.85186 -171.95624 599.6427 -171.95624 601.85186 L -171.95624 622.1983 C -171.95624 624.40746 -173.7471 626.1983 -175.95624 626.1983 L -400.3972 626.1983 C -402.6063 626.1983 -404.3972 624.40746 -404.3972 622.1983 L -404.3972 601.85186 C -404.3972 599.6427 -402.6063 597.85186 -400.3972 597.85186 Z" fill="#f05a26"/>
        <text transform="translate(-399.3972 602.293)" fill="white">
          <tspan font-family="Helvetica Neue" font-weight="bold" font-size="16" fill="white" x="16.244474" y="16" xml:space="preserve">Outbound Tunnel Cluster</tspan>
        </text>
      </g>
      <g id="Graphic_80">
        <path d="M -319.5527 299.61024 L -256.8007 299.61024 C -254.59157 299.61024 -252.8007 301.4011 -252.8007 303.61024 L -252.8007 323.9567 C -252.8007 326.16583 -254.59157 327.9567 -256.8007 327.9567 L -319.5527 327.9567 C -321.76185 327.9567 -323.5527 326.16583 -323.5527 323.9567 L -323.5527 303.61024 C -323.5527 301.4011 -321.76185 299.61024 -319.5527 299.61024 Z" fill="#f05a26"/>
        <text transform="translate(-318.5527 304.0514)" fill="white">
          <tspan font-family="Helvetica Neue" font-weight="bold" font-size="16" fill="white" x="8.135999" y="16" xml:space="preserve">15001</tspan>
        </text>
      </g>
      <g id="Graphic_66">
        <path d="M 1256.9375 302.90157 L 1318.9375 302.90157 C 1321.1466 302.90157 1322.9375 304.69243 1322.9375 306.90157 L 1322.9375 326.90157 C 1322.9375 329.1107 1321.1466 330.90157 1318.9375 330.90157 L 1256.9375 330.90157 C 1254.7283 330.90157 1252.9375 329.1107 1252.9375 326.90157 L 1252.9375 306.90157 C 1252.9375 304.69243 1254.7283 302.90157 1256.9375 302.90157 Z" fill="#f05a26"/>
        <text transform="translate(1257.9375 307.1695)" fill="white">
          <tspan font-family="Helvetica Neue" font-weight="bold" font-size="16" fill="white" x="7.76" y="16" xml:space="preserve">15006</tspan>
        </text>
      </g>
      <g id="Graphic_56">
        <path d="M 1327.2563 302.8859 L 1390.0083 302.8859 C 1392.2175 302.8859 1394.0083 304.67675 1394.0083 306.8859 L 1394.0083 327.23235 C 1394.0083 329.4415 1392.2175 331.23235 1390.0083 331.23235 L 1327.2563 331.23235 C 1325.0472 331.23235 1323.2563 329.4415 1323.2563 327.23235 L 1323.2563 306.8859 C 1323.2563 304.67675 1325.0472 302.8859 1327.2563 302.8859 Z" fill="#f05a26"/>
        <text transform="translate(1328.2563 307.32707)" fill="white">
          <tspan font-family="Helvetica Neue" font-weight="bold" font-size="16" fill="white" x="8.135999" y="16" xml:space="preserve">15008</tspan>
        </text>
      </g>
      <g id="Graphic_30">
        <path d="M 349.278 392.5786 L 663.8943 392.5786 C 666.1034 392.5786 667.8943 394.36946 667.8943 396.5786 L 667.8943 416.24815 C 667.8943 418.4573 666.1034 420.24815 663.8943 420.24815 L 349.278 420.24815 C 347.0689 420.24815 345.278 418.4573 345.278 416.24815 L 345.278 396.5786 C 345.278 394.36946 347.0689 392.5786 349.278 392.5786 Z" fill="#f05a26"/>
        <text transform="translate(350.278 396.6813)" fill="white">
          <tspan font-family="Helvetica Neue" font-weight="bold" font-size="16" fill="white" x="2.836136" y="16" xml:space="preserve">inbound_CONNECT_terminate Listnener</tspan>
        </text>
      </g>
      <g id="Graphic_29">
        <path d="M 349.278 346.56935 L 663.8943 346.56935 C 666.1034 346.56935 667.8943 348.3602 667.8943 350.56935 L 667.8943 370.2389 C 667.8943 372.44804 666.1034 374.2389 663.8943 374.2389 L 349.278 374.2389 C 347.0689 374.2389 345.278 372.44804 345.278 370.2389 L 345.278 350.56935 C 345.278 348.3602 347.0689 346.56935 349.278 346.56935 Z" fill="#f05a26"/>
        <text transform="translate(350.278 350.67207)" fill="white">
          <tspan font-family="Helvetica Neue" font-weight="bold" font-size="16" fill="white" x="48.924136" y="16" xml:space="preserve">Internal Inbound VIP Cluster</tspan>
        </text>
      </g>
      <g id="Graphic_28">
        <path d="M 349.278 290.9616 L 663.8943 290.9616 C 666.1034 290.9616 667.8943 292.75245 667.8943 294.9616 L 667.8943 314.63114 C 667.8943 316.84028 666.1034 318.63114 663.8943 318.63114 L 349.278 318.63114 C 347.0689 318.63114 345.278 316.84028 345.278 314.63114 L 345.278 294.9616 C 345.278 292.75245 347.0689 290.9616 349.278 290.9616 Z" fill="#f05a26"/>
        <text transform="translate(350.278 295.0643)" fill="white">
          <tspan font-family="Helvetica Neue" font-weight="bold" font-size="16" fill="white" x="76.90814" y="16" xml:space="preserve">Inbound VIP Listener</tspan>
        </text>
      </g>
      <g id="Graphic_27">
        <path d="M 349.278 235.35383 L 663.8943 235.35383 C 666.1034 235.35383 667.8943 237.1447 667.8943 239.35383 L 667.8943 259.0234 C 667.8943 261.23252 666.1034 263.0234 663.8943 263.0234 L 349.278 263.0234 C 347.0689 263.0234 345.278 261.23252 345.278 259.0234 L 345.278 239.35383 C 345.278 237.1447 347.0689 235.35383 349.278 235.35383 Z" fill="#f05a26"/>
        <text transform="translate(350.278 239.45655)" fill="white">
          <tspan font-family="Helvetica Neue" font-weight="bold" font-size="16" fill="white" x="80.31614" y="16" xml:space="preserve">Inbound VIP Cluster</tspan>
        </text>
      </g>
      <g id="Graphic_20">
        <path d="M 349.278 182.94558 L 663.8943 182.94558 C 666.1034 182.94558 667.8943 184.73644 667.8943 186.94558 L 667.8943 206.61513 C 667.8943 208.82427 666.1034 210.61513 663.8943 210.61513 L 349.278 210.61513 C 347.0689 210.61513 345.278 208.82427 345.278 206.61513 L 345.278 186.94558 C 345.278 184.73644 347.0689 182.94558 349.278 182.94558 Z" fill="#f05a26"/>
        <text transform="translate(350.278 187.0483)" fill="white">
          <tspan font-family="Helvetica Neue" font-weight="bold" font-size="16" fill="white" x="74.53214" y="16" xml:space="preserve">Inbound Pod Listener</tspan>
        </text>
      </g>
      <g id="Graphic_19">
        <path d="M 349.278 130.53732 L 663.8943 130.53732 C 666.1034 130.53732 667.8943 132.32818 667.8943 134.53732 L 667.8943 154.20687 C 667.8943 156.41601 666.1034 158.20687 663.8943 158.20687 L 349.278 158.20687 C 347.0689 158.20687 345.278 156.41601 345.278 154.20687 L 345.278 134.53732 C 345.278 132.32818 347.0689 130.53732 349.278 130.53732 Z" fill="#f05a26"/>
        <text transform="translate(350.278 134.64004)" fill="white">
          <tspan font-family="Helvetica Neue" font-weight="bold" font-size="16" fill="white" x="77.94014" y="16" xml:space="preserve">Inbound Pod Cluster</tspan>
        </text>
      </g>
      <g id="Graphic_18">
        <path d="M 442.2003 438.58785 L 570.1683 438.58785 C 572.37746 438.58785 574.1683 440.3787 574.1683 442.58785 L 574.1683 461.9192 C 574.1683 464.12836 572.37746 465.9192 570.1683 465.9192 L 442.2003 465.9192 C 439.9912 465.9192 438.2003 464.12836 438.2003 461.9192 L 438.2003 442.58785 C 438.2003 440.3787 439.9912 438.58785 442.2003 438.58785 Z" fill="#f05a26"/>
        <text transform="translate(443.2003 442.5215)" fill="white">
          <tspan font-family="Helvetica Neue" font-weight="bold" font-size="16" fill="white" x="40.744" y="16" xml:space="preserve">15006</tspan>
        </text>
      </g>
      <g id="Graphic_26">
        <path d="M 349.278 77.96518 L 663.8943 77.96518 C 666.1034 77.96518 667.8943 79.75604 667.8943 81.96518 L 667.8943 101.79862 C 667.8943 104.00776 666.1034 105.79862 663.8943 105.79862 L 349.278 105.79862 C 347.0689 105.79862 345.278 104.00776 345.278 101.79862 L 345.278 81.96518 C 345.278 79.75604 347.0689 77.96518 349.278 77.96518 Z" fill="#f05a26"/>
        <text transform="translate(350.278 82.96518)" fill="white">
          <tspan font-family="Helvetica Neue" font-weight="bold" font-size="16" fill="white" x="10.396136" y="16" xml:space="preserve">inbound_CONNECT_originate Listener</tspan>
        </text>
      </g>
      <g id="Graphic_25">
        <path d="M 349.278 25.229137 L 663.8943 25.229137 C 666.1034 25.229137 667.8943 27.019998 667.8943 29.229137 L 667.8943 49.06258 C 667.8943 51.27172 666.1034 53.06258 663.8943 53.06258 L 349.278 53.06258 C 347.0689 53.06258 345.278 51.27172 345.278 49.06258 L 345.278 29.229137 C 345.278 27.019998 347.0689 25.229137 349.278 25.229137 Z" fill="#f05a26"/>
        <text transform="translate(350.278 30.229137)" fill="white">
          <tspan font-family="Helvetica Neue" font-weight="bold" font-size="16" fill="white" x="13.804136" y="16" xml:space="preserve">inbound_CONNECT_originate Cluster</tspan>
        </text>
      </g>
      <g id="Graphic_32">
        <path d="M 365.61815 -46.30049 L 647.55415 -46.30049 C 649.7633 -46.30049 651.55415 -44.50963 651.55415 -42.30049 L 651.55415 -21.786132 C 651.55415 -19.576993 649.7633 -17.786132 647.55415 -17.786132 L 365.61815 -17.786132 C 363.409 -17.786132 361.61815 -19.576993 361.61815 -21.786132 L 361.61815 -42.30049 C 361.61815 -44.50963 363.409 -46.30049 365.61815 -46.30049 Z" fill="#dadada"/>
        <path d="M 365.61815 -46.30049 L 647.55415 -46.30049 C 649.7633 -46.30049 651.55415 -44.50963 651.55415 -42.30049 L 651.55415 -21.786132 C 651.55415 -19.576993 649.7633 -17.786132 647.55415 -17.786132 L 365.61815 -17.786132 C 363.409 -17.786132 361.61815 -19.576993 361.61815 -21.786132 L 361.61815 -42.30049 C 361.61815 -44.50963 363.409 -46.30049 365.61815 -46.30049 Z" stroke="gray" stroke-linecap="round" stroke-linejoin="round" stroke-width="1"/>
        <text transform="translate(366.61815 -41.775367)" fill="black">
          <tspan font-family="Helvetica Neue" font-weight="bold" font-size="16" fill="black" x="123.368" y="16" xml:space="preserve">eth0</tspan>
        </text>
      </g>
    </g>
  </g>
</svg>
