<?xml version="1.0" encoding="UTF-8" standalone="no"?>
<!DOCTYPE svg PUBLIC "-//W3C//DTD SVG 1.1//EN" "http://www.w3.org/Graphics/SVG/1.1/DTD/svg11.dtd">
<svg xmlns:xl="http://www.w3.org/1999/xlink" xmlns:dc="http://purl.org/dc/elements/1.1/" xmlns="http://www.w3.org/2000/svg" version="1.1" viewBox="-221 740 689 290" width="689" height="290">
  <defs>
    <marker orient="auto" overflow="visible" markerUnits="strokeWidth" id="FilledArrow_Marker" stroke-linejoin="miter" stroke-miterlimit="10" viewBox="-1 -3 7 6" markerWidth="7" markerHeight="6" color="#666">
      <g>
        <path d="M 4.8 0 L 0 -1.8 L 0 1.8 Z" fill="currentColor" stroke="currentColor" stroke-width="1"/>
      </g>
    </marker>
  </defs>
  <g id="waypoint-proxy" stroke="none" fill="none" stroke-opacity="1" stroke-dasharray="none" fill-opacity="1">
    <title>waypoint-proxy</title>
    <rect fill="white" x="-221" y="740" width="689" height="290"/>
    <g id="waypoint-proxy_Layer_1">
      <title>Layer 1</title>
      <g id="Graphic_63">
        <path d="M -216 741 L -44.5 741 C -42.29086 741 -40.5 742.7909 -40.5 745 L -40.5 1024.75 C -40.5 1026.9591 -42.29086 1028.75 -44.5 1028.75 L -216 1028.75 C -218.20914 1028.75 -220 1026.9591 -220 1024.75 L -220 745 C -220 742.7909 -218.20914 741 -216 741 Z" fill="#f2f2f2"/>
        <path d="M -216 741 L -44.5 741 C -42.29086 741 -40.5 742.7909 -40.5 745 L -40.5 1024.75 C -40.5 1026.9591 -42.29086 1028.75 -44.5 1028.75 L -216 1028.75 C -218.20914 1028.75 -220 1026.9591 -220 1024.75 L -220 745 C -220 742.7909 -218.20914 741 -216 741 Z" stroke="#a5a5a5" stroke-linecap="round" stroke-linejoin="round" stroke-width="1"/>
        <text transform="translate(-215 746)" fill="black">
          <tspan font-family="Helvetica Neue" font-size="16" fill="black" x="64.894" y="16" xml:space="preserve">Node</tspan>
        </text>
      </g>
      <g id="Graphic_62">
        <path d="M 37.75 741 L 209.25 741 C 211.45914 741 213.25 742.7909 213.25 745 L 213.25 1024.75 C 213.25 1026.9591 211.45914 1028.75 209.25 1028.75 L 37.75 1028.75 C 35.54086 1028.75 33.75 1026.9591 33.75 1024.75 L 33.75 745 C 33.75 742.7909 35.54086 741 37.75 741 Z" fill="#f2f2f2"/>
        <path d="M 37.75 741 L 209.25 741 C 211.45914 741 213.25 742.7909 213.25 745 L 213.25 1024.75 C 213.25 1026.9591 211.45914 1028.75 209.25 1028.75 L 37.75 1028.75 C 35.54086 1028.75 33.75 1026.9591 33.75 1024.75 L 33.75 745 C 33.75 742.7909 35.54086 741 37.75 741 Z" stroke="#a5a5a5" stroke-linecap="round" stroke-linejoin="round" stroke-width="1"/>
        <text transform="translate(38.75 746)" fill="black">
          <tspan font-family="Helvetica Neue" font-size="16" fill="black" x="64.894" y="16" xml:space="preserve">Node</tspan>
        </text>
      </g>
      <g id="Graphic_61">
        <path d="M 291.5 741 L 463 741 C 465.20914 741 467 742.7909 467 745 L 467 1024.75 C 467 1026.9591 465.20914 1028.75 463 1028.75 L 291.5 1028.75 C 289.29086 1028.75 287.5 1026.9591 287.5 1024.75 L 287.5 745 C 287.5 742.7909 289.29086 741 291.5 741 Z" fill="#f2f2f2"/>
        <path d="M 291.5 741 L 463 741 C 465.20914 741 467 742.7909 467 745 L 467 1024.75 C 467 1026.9591 465.20914 1028.75 463 1028.75 L 291.5 1028.75 C 289.29086 1028.75 287.5 1026.9591 287.5 1024.75 L 287.5 745 C 287.5 742.7909 289.29086 741 291.5 741 Z" stroke="#a5a5a5" stroke-linecap="round" stroke-linejoin="round" stroke-width="1"/>
        <text transform="translate(292.5 746)" fill="black">
          <tspan font-family="Helvetica Neue" font-size="16" fill="black" x="64.894" y="16" xml:space="preserve">Node</tspan>
        </text>
      </g>
      <g id="Line_60">
        <line x1="377.25" y1="928.3605" x2="377.25" y2="844.9" marker-end="url(#FilledArrow_Marker)" stroke="#666" stroke-linecap="round" stroke-linejoin="round" stroke-width="2"/>
      </g>
      <g id="Line_58">
        <line x1="-130.25" y1="832" x2="-130.25" y2="928.3605" stroke="#666" stroke-linecap="round" stroke-linejoin="round" stroke-width="2"/>
      </g>
      <g id="Graphic_57">
        <path d="M -196.25 782 L -64.25 782 C -62.04086 782 -60.25 783.7909 -60.25 786 L -60.25 828 C -60.25 830.2091 -62.04086 832 -64.25 832 L -196.25 832 C -198.45914 832 -200.25 830.2091 -200.25 828 L -200.25 786 C -200.25 783.7909 -198.45914 782 -196.25 782 Z" fill="#666"/>
        <text transform="translate(-195.25 797.776)" fill="white">
          <tspan font-family="Helvetica Neue" font-size="16" fill="white" x="43.072" y="15" xml:space="preserve">Pod A</tspan>
        </text>
      </g>
      <g id="Graphic_56">
        <path d="M 311.25 782 L 443.25 782 C 445.45914 782 447.25 783.7909 447.25 786 L 447.25 828 C 447.25 830.2091 445.45914 832 443.25 832 L 311.25 832 C 309.04086 832 307.25 830.2091 307.25 828 L 307.25 786 C 307.25 783.7909 309.04086 782 311.25 782 Z" fill="#666"/>
        <text transform="translate(312.25 797.776)" fill="white">
          <tspan font-family="Helvetica Neue" font-size="16" fill="white" x="42.776" y="15" xml:space="preserve">Pod B</tspan>
        </text>
      </g>
      <g id="Graphic_54">
        <path d="M -128.90465 928.5935 L -70.79751 949.346 C -68.71707 950.089 -67.63287 952.3779 -68.37589 954.4584 C -68.77925 955.5878 -69.66809 956.4766 -70.79751 956.88 L -128.90465 977.6325 C -129.77464 977.9432 -130.72536 977.9432 -131.59535 977.6325 L -189.7025 956.88 C -191.78293 956.137 -192.86713 953.8481 -192.12411 951.7677 C -191.72075 950.6382 -190.8319 949.7494 -189.7025 949.346 L -131.59535 928.5935 C -130.72536 928.2828 -129.77464 928.2828 -128.90465 928.5935 Z" fill="#f05a26"/>
        <text transform="translate(-195.25 943.889)" fill="white">
          <tspan font-family="Helvetica Neue" font-size="16" fill="white" x="37.888" y="15" xml:space="preserve">zTunnel</tspan>
        </text>
      </g>
      <g id="Graphic_53">
        <path d="M 378.59535 928.5935 L 436.7025 949.346 C 438.78293 950.089 439.86713 952.3779 439.1241 954.4584 C 438.72075 955.5878 437.8319 956.4766 436.7025 956.88 L 378.59535 977.6325 C 377.72536 977.9432 376.77464 977.9432 375.90465 977.6325 L 317.7975 956.88 C 315.71707 956.137 314.63287 953.8481 315.3759 951.7677 C 315.77925 950.6382 316.6681 949.7494 317.7975 949.346 L 375.90465 928.5935 C 376.77464 928.2828 377.72536 928.2828 378.59535 928.5935 Z" fill="#f05a26"/>
        <text transform="translate(312.25 943.889)" fill="white">
          <tspan font-family="Helvetica Neue" font-size="16" fill="white" x="37.888" y="15" xml:space="preserve">zTunnel</tspan>
        </text>
      </g>
      <g id="Graphic_47">
        <title>Rectangle</title>
        <path d="M 74.5 928.113 L 172.5 928.113 C 184.092 928.113 193.5 939.313 193.5 953.113 C 193.5 966.913 184.092 978.113 172.5 978.113 L 74.5 978.113 C 62.908 978.113 53.5 966.913 53.5 953.113 C 53.5 939.313 62.908 928.113 74.5 928.113 Z" fill="#f05a26"/>
        <path d="M 74.5 928.113 L 172.5 928.113 C 184.092 928.113 193.5 939.313 193.5 953.113 C 193.5 966.913 184.092 978.113 172.5 978.113 L 74.5 978.113 C 62.908 978.113 53.5 966.913 53.5 953.113 C 53.5 939.313 62.908 928.113 74.5 928.113 Z" stroke="white" stroke-linecap="round" stroke-linejoin="round" stroke-width="1"/>
        <text transform="translate(58.5 943.889)" fill="white">
          <tspan font-family="Helvetica Neue" font-size="16" fill="white" x="8.848" y="15" xml:space="preserve">Waypoint Proxy</tspan>
        </text>
      </g>
      <g id="Line_64">
        <line x1="-68.141765" y1="953.113" x2="53.5" y2="953.113" stroke="#666" stroke-linecap="round" stroke-linejoin="round" stroke-width="2"/>
      </g>
      <g id="Line_65">
        <line x1="193.5" y1="953.113" x2="315.14177" y2="953.113" stroke="#666" stroke-linecap="round" stroke-linejoin="round" stroke-width="2"/>
      </g>
      <g id="Graphic_66">
        <text transform="translate(225.875 933.113)" fill="black">
          <tspan font-family="Helvetica Neue" font-size="14" fill="black" x="0" y="13" xml:space="preserve">HBONE</tspan>
        </text>
      </g>
      <g id="Graphic_67">
        <text transform="translate(303.071 987.5)" fill="#f05a26">
          <tspan font-family="Helvetica Neue" font-size="14" fill="#f05a26" x="9947598e-20" y="13" xml:space="preserve">Listening on port 15008</tspan>
        </text>
      </g>
      <g id="Graphic_70">
        <text transform="translate(-204.455 987.5)" fill="#f05a26">
          <tspan font-family="Helvetica Neue" font-size="14" fill="#f05a26" x="9947598e-20" y="13" xml:space="preserve">Listening on port 15008</tspan>
        </text>
      </g>
      <g id="Graphic_72">
        <text transform="translate(-27.875 933.113)" fill="black">
          <tspan font-family="Helvetica Neue" font-size="14" fill="black" x="0" y="13" xml:space="preserve">HBONE</tspan>
        </text>
      </g>
    </g>
  </g>
</svg>
