<svg xmlns="http://www.w3.org/2000/svg" xmlns:xl="http://www.w3.org/1999/xlink" width="749" height="353" version="1.1" viewBox="-536 390 749 353"><g id="ztunnel" fill="none" fill-opacity="1" stroke="none" stroke-dasharray="none" stroke-opacity="1"><title>ztunnel</title><rect width="749" height="353" x="-536" y="390" fill="#fff"/><g id="ztunnel_Layer_1"><title>Layer 1</title><g id="Graphic_83"><path fill="#f2f2f2" d="M -500.75 406 L -329.25 406 C -327.04086 406 -325.25 407.79086 -325.25 410 L -325.25 724 C -325.25 726.2091 -327.04086 728 -329.25 728 L -500.75 728 C -502.95914 728 -504.75 726.2091 -504.75 724 L -504.75 410 C -504.75 407.79086 -502.95914 406 -500.75 406 Z"/><path stroke="#a5a5a5" stroke-linecap="round" stroke-linejoin="round" stroke-width="1" d="M -500.75 406 L -329.25 406 C -327.04086 406 -325.25 407.79086 -325.25 410 L -325.25 724 C -325.25 726.2091 -327.04086 728 -329.25 728 L -500.75 728 C -502.95914 728 -504.75 726.2091 -504.75 724 L -504.75 410 C -504.75 407.79086 -502.95914 406 -500.75 406 Z"/><text fill="#000" transform="translate(-499.75 411)"><tspan x="64.894" y="16" fill="#000" font-family="Helvetica Neue" font-size="16" xml:space="preserve">Node</tspan></text></g><g id="Graphic_77"><path fill="#666" d="M -481 441.25 L -349 441.25 C -346.79086 441.25 -345 443.04086 -345 445.25 L -345 487.25 C -345 489.45914 -346.79086 491.25 -349 491.25 L -481 491.25 C -483.20914 491.25 -485 489.45914 -485 487.25 L -485 445.25 C -485 443.04086 -483.20914 441.25 -481 441.25 Z"/><text fill="#fff" transform="translate(-480 457.026)"><tspan x="50.48" y="15" fill="#fff" font-family="Helvetica Neue" font-size="16" xml:space="preserve">Pod</tspan></text></g><g id="Graphic_74"><path fill="#f05a26" d="M -419.15465 653.4805 L -361.0475 674.233 C -358.96707 674.97605 -357.88287 677.2649 -358.6259 679.34535 C -359.02925 680.4748 -359.9181 681.3636 -361.0475 681.767 L -419.15465 702.5195 C -420.02464 702.8302 -420.97536 702.8302 -421.84535 702.5195 L -479.9525 681.767 C -482.03293 681.02395 -483.1171 678.7351 -482.3741 676.65465 C -481.97075 675.5252 -481.0819 674.6364 -479.9525 674.233 L -421.84535 653.4805 C -420.97536 653.1698 -420.02464 653.1698 -419.15465 653.4805 Z"/><text fill="#fff" transform="translate(-485.5 668.776)"><tspan x="37.888" y="15" fill="#fff" font-family="Helvetica Neue" font-size="16" xml:space="preserve">zTunnel</tspan></text></g><g id="Graphic_70"><path fill="#666" d="M -481 519.75 L -349 519.75 C -346.79086 519.75 -345 521.54086 -345 523.75 L -345 565.75 C -345 567.95914 -346.79086 569.75 -349 569.75 L -481 569.75 C -483.20914 569.75 -485 567.95914 -485 565.75 L -485 523.75 C -485 521.54086 -483.20914 519.75 -481 519.75 Z"/><text fill="#fff" transform="translate(-480 535.526)"><tspan x="50.48" y="15" fill="#fff" font-family="Helvetica Neue" font-size="16" xml:space="preserve">Pod</tspan></text></g><g id="Graphic_88"><path fill="#f2f2f2" d="M -252 406 L -80.5 406 C -78.29086 406 -76.5 407.79086 -76.5 410 L -76.5 724 C -76.5 726.2091 -78.29086 728 -80.5 728 L -252 728 C -254.20914 728 -256 726.2091 -256 724 L -256 410 C -256 407.79086 -254.20914 406 -252 406 Z"/><path stroke="#a5a5a5" stroke-linecap="round" stroke-linejoin="round" stroke-width="1" d="M -252 406 L -80.5 406 C -78.29086 406 -76.5 407.79086 -76.5 410 L -76.5 724 C -76.5 726.2091 -78.29086 728 -80.5 728 L -252 728 C -254.20914 728 -256 726.2091 -256 724 L -256 410 C -256 407.79086 -254.20914 406 -252 406 Z"/><text fill="#000" transform="translate(-251 411)"><tspan x="64.894" y="16" fill="#000" font-family="Helvetica Neue" font-size="16" xml:space="preserve">Node</tspan></text></g><g id="Graphic_87"><path fill="#666" d="M -237.75 441.25 L -105.75 441.25 C -103.54086 441.25 -101.75 443.04086 -101.75 445.25 L -101.75 487.25 C -101.75 489.45914 -103.54086 491.25 -105.75 491.25 L -237.75 491.25 C -239.95914 491.25 -241.75 489.45914 -241.75 487.25 L -241.75 445.25 C -241.75 443.04086 -239.95914 441.25 -237.75 441.25 Z"/><text fill="#fff" transform="translate(-236.75 457.026)"><tspan x="50.48" y="15" fill="#fff" font-family="Helvetica Neue" font-size="16" xml:space="preserve">Pod</tspan></text></g><g id="Graphic_86"><path fill="#f05a26" d="M -164.90465 653.4805 L -106.79751 674.233 C -104.71707 674.97605 -103.63287 677.2649 -104.37589 679.34535 C -104.77925 680.4748 -105.66809 681.3636 -106.79751 681.767 L -164.90465 702.5195 C -165.77464 702.8302 -166.72536 702.8302 -167.59535 702.5195 L -225.7025 681.767 C -227.78293 681.02395 -228.86713 678.7351 -228.1241 676.65465 C -227.72075 675.5252 -226.8319 674.6364 -225.7025 674.233 L -167.59535 653.4805 C -166.72536 653.1698 -165.77464 653.1698 -164.90465 653.4805 Z"/><text fill="#fff" transform="translate(-231.25 668.776)"><tspan x="37.888" y="15" fill="#fff" font-family="Helvetica Neue" font-size="16" xml:space="preserve">zTunnel</tspan></text></g><g id="Graphic_85"><path fill="#666" d="M -232.25 519.75 L -100.25 519.75 C -98.04086 519.75 -96.25 521.54086 -96.25 523.75 L -96.25 565.75 C -96.25 567.95914 -98.04086 569.75 -100.25 569.75 L -232.25 569.75 C -234.45914 569.75 -236.25 567.95914 -236.25 565.75 L -236.25 523.75 C -236.25 521.54086 -234.45914 519.75 -232.25 519.75 Z"/><text fill="#fff" transform="translate(-231.25 535.526)"><tspan x="50.48" y="15" fill="#fff" font-family="Helvetica Neue" font-size="16" xml:space="preserve">Pod</tspan></text></g><g id="Graphic_92"><path fill="#f2f2f2" d="M -3.25 406 L 168.25 406 C 170.45914 406 172.25 407.79086 172.25 410 L 172.25 724 C 172.25 726.2091 170.45914 728 168.25 728 L -3.25 728 C -5.459139 728 -7.25 726.2091 -7.25 724 L -7.25 410 C -7.25 407.79086 -5.459139 406 -3.25 406 Z"/><path stroke="#a5a5a5" stroke-linecap="round" stroke-linejoin="round" stroke-width="1" d="M -3.25 406 L 168.25 406 C 170.45914 406 172.25 407.79086 172.25 410 L 172.25 724 C 172.25 726.2091 170.45914 728 168.25 728 L -3.25 728 C -5.459139 728 -7.25 726.2091 -7.25 724 L -7.25 410 C -7.25 407.79086 -5.459139 406 -3.25 406 Z"/><text fill="#000" transform="translate(-2.25 411)"><tspan x="64.894" y="16" fill="#000" font-family="Helvetica Neue" font-size="16" xml:space="preserve">Node</tspan></text></g><g id="Graphic_91"><path fill="#666" d="M 16.5 441.25 L 148.5 441.25 C 150.70914 441.25 152.5 443.04086 152.5 445.25 L 152.5 487.25 C 152.5 489.45914 150.70914 491.25 148.5 491.25 L 16.5 491.25 C 14.290861 491.25 12.5 489.45914 12.5 487.25 L 12.5 445.25 C 12.5 443.04086 14.290861 441.25 16.5 441.25 Z"/><text fill="#fff" transform="translate(17.5 457.026)"><tspan x="50.48" y="15" fill="#fff" font-family="Helvetica Neue" font-size="16" xml:space="preserve">Pod</tspan></text></g><g id="Graphic_90"><path fill="#f05a26" d="M 83.84535 653.4805 L 141.95249 674.233 C 144.03293 674.97605 145.11713 677.2649 144.37411 679.34535 C 143.97075 680.4748 143.08191 681.3636 141.95249 681.767 L 83.84535 702.5195 C 82.97536 702.8302 82.02464 702.8302 81.15465 702.5195 L 23.04751 681.767 C 20.96707 681.02395 19.882873 678.7351 20.625887 676.65465 C 21.02925 675.5252 21.91809 674.6364 23.04751 674.233 L 81.15465 653.4805 C 82.02464 653.1698 82.97536 653.1698 83.84535 653.4805 Z"/><text fill="#fff" transform="translate(17.5 668.776)"><tspan x="37.888" y="15" fill="#fff" font-family="Helvetica Neue" font-size="16" xml:space="preserve">zTunnel</tspan></text></g><g id="Graphic_89"><path fill="#666" d="M 16.5 519.75 L 148.5 519.75 C 150.70914 519.75 152.5 521.54086 152.5 523.75 L 152.5 565.75 C 152.5 567.95914 150.70914 569.75 148.5 569.75 L 16.5 569.75 C 14.290861 569.75 12.5 567.95914 12.5 565.75 L 12.5 523.75 C 12.5 521.54086 14.290861 519.75 16.5 519.75 Z"/><text fill="#fff" transform="translate(17.5 535.526)"><tspan x="50.48" y="15" fill="#fff" font-family="Helvetica Neue" font-size="16" xml:space="preserve">Pod</tspan></text></g><g id="Line_96"><line x1="-358.392" x2="-228.358" y1="678" y2="678" stroke="#000" stroke-linecap="round" stroke-linejoin="round" stroke-width="1"/></g><g id="Line_97"><line x1="-104.142" x2="20.392" y1="678" y2="678" stroke="#000" stroke-linecap="round" stroke-linejoin="round" stroke-width="1"/></g><g id="Graphic_98"><text fill="#000" transform="translate(-314.95043 661.608)"><tspan x="8.953" y="13" fill="#000" font-family="Helvetica Neue" font-size="14" xml:space="preserve">HTTP</tspan> <tspan x="0" y="29.392" fill="#000" font-family="Helvetica Neue" font-size="14" xml:space="preserve">Connect</tspan></text></g><g id="Graphic_99"><text fill="#000" transform="translate(-67.82542 661.608)"><tspan x="8.953" y="13" fill="#000" font-family="Helvetica Neue" font-size="14" xml:space="preserve">HTTP</tspan> <tspan x="0" y="29.392" fill="#000" font-family="Helvetica Neue" font-size="14" xml:space="preserve">Connect</tspan></text></g><g id="Graphic_94"><path stroke="#f05a26" stroke-dasharray="4 4" stroke-linecap="round" stroke-linejoin="round" stroke-width="1" d="M -522.125 715.125 L -522.125 640.875 L 199.125 640.875 L 199.125 715.125 Z"/><text fill="#f05a26" transform="translate(179.789 710.125) rotate(-90)"><tspan x=".559" y="11" fill="#f05a26" font-family="Helvetica Neue" font-size="12" xml:space="preserve">DaemonSet</tspan></text></g><g id="Graphic_100"><path fill="#fff" d="M -481 598.25 L -349 598.25 C -346.79086 598.25 -345 600.04086 -345 602.25 L -345 625.75 C -345 627.95914 -346.79086 629.75 -349 629.75 L -481 629.75 C -483.20914 629.75 -485 627.95914 -485 625.75 L -485 602.25 C -485 600.04086 -483.20914 598.25 -481 598.25 Z"/><path stroke="#666" stroke-linecap="round" stroke-linejoin="round" stroke-width="1" d="M -481 598.25 L -349 598.25 C -346.79086 598.25 -345 600.04086 -345 602.25 L -345 625.75 C -345 627.95914 -346.79086 629.75 -349 629.75 L -481 629.75 C -483.20914 629.75 -485 627.95914 -485 625.75 L -485 602.25 C -485 600.04086 -483.20914 598.25 -481 598.25 Z"/><text fill="#000" transform="translate(-480 604.776)"><tspan x="51.376" y="15" fill="#000" font-family="Helvetica Neue" font-size="16" xml:space="preserve">CNI</tspan></text></g><g id="Graphic_101"><path fill="#fff" d="M -232.25 598.25 L -100.25 598.25 C -98.04086 598.25 -96.25 600.04086 -96.25 602.25 L -96.25 625.75 C -96.25 627.95914 -98.04086 629.75 -100.25 629.75 L -232.25 629.75 C -234.45914 629.75 -236.25 627.95914 -236.25 625.75 L -236.25 602.25 C -236.25 600.04086 -234.45914 598.25 -232.25 598.25 Z"/><path stroke="#666" stroke-linecap="round" stroke-linejoin="round" stroke-width="1" d="M -232.25 598.25 L -100.25 598.25 C -98.04086 598.25 -96.25 600.04086 -96.25 602.25 L -96.25 625.75 C -96.25 627.95914 -98.04086 629.75 -100.25 629.75 L -232.25 629.75 C -234.45914 629.75 -236.25 627.95914 -236.25 625.75 L -236.25 602.25 C -236.25 600.04086 -234.45914 598.25 -232.25 598.25 Z"/><text fill="#000" transform="translate(-231.25 604.776)"><tspan x="51.376" y="15" fill="#000" font-family="Helvetica Neue" font-size="16" xml:space="preserve">CNI</tspan></text></g><g id="Graphic_102"><path fill="#fff" d="M 16.5 598.25 L 148.5 598.25 C 150.70914 598.25 152.5 600.04086 152.5 602.25 L 152.5 625.75 C 152.5 627.95914 150.70914 629.75 148.5 629.75 L 16.5 629.75 C 14.290861 629.75 12.5 627.95914 12.5 625.75 L 12.5 602.25 C 12.5 600.04086 14.290861 598.25 16.5 598.25 Z"/><path stroke="#666" stroke-linecap="round" stroke-linejoin="round" stroke-width="1" d="M 16.5 598.25 L 148.5 598.25 C 150.70914 598.25 152.5 600.04086 152.5 602.25 L 152.5 625.75 C 152.5 627.95914 150.70914 629.75 148.5 629.75 L 16.5 629.75 C 14.290861 629.75 12.5 627.95914 12.5 625.75 L 12.5 602.25 C 12.5 600.04086 14.290861 598.25 16.5 598.25 Z"/><text fill="#000" transform="translate(17.5 604.776)"><tspan x="51.376" y="15" fill="#000" font-family="Helvetica Neue" font-size="16" xml:space="preserve">CNI</tspan></text></g></g></g></svg>