<svg xmlns="http://www.w3.org/2000/svg" xmlns:xlink="http://www.w3.org/1999/xlink" width="668" height="584" version="1.1" viewBox="0 0 668 584"><title>ai-platform-svgrepo-com</title><g id="Page-1" fill="none" fill-rule="evenodd" stroke="none" stroke-width="1"><g id="ai-platform-svgrepo-com" fill="#1255A7" transform="translate(0.666667, 0.333333)"><polygon id="Path" points="488 396 512.667 354.333 630.333 354.333 666.667 291.667 594 166.667 491.667 166.667 456.333 104.667 416.667 104.667 416.667 62.667 481.333 62.667 516.667 125 569.667 125 496.667 0 354.333 0 354.333 166.667 412 166.667 436.333 208.333 354.333 208.333 354.333 291.667 429.667 291.667 464.667 229.333 558.333 229.333 582.333 271 489 271 454 333.333 354.333 333.333 354.333 479.333 467.667 479.333 443.667 521 354.333 521 354.333 583.333 496.667 583.333 606 396 536.333 396 512 437.667 416.667 437.667 416.667 396"/><polygon id="Path" points="178.667 396 154 354.333 36.333 354.333 0 291.667 72.667 166.667 175 166.667 210.333 104.667 250 104.667 250 62.667 185.333 62.667 150 125 97 125 170 0 312.667 0 312.667 166.667 254.667 166.667 230.333 208.333 312.667 208.333 312.667 291.667 237 291.667 202 229.333 108.333 229.333 84.333 271 177.667 271 212.667 333.333 312.667 333.333 312.667 479.333 199 479.333 223 521 312.667 521 312.667 583.333 170 583.333 60.667 396 130.333 396 154.667 437.667 250 437.667 250 396"/></g></g></svg>