<?xml version="1.0" encoding="UTF-8"?>
<svg width="668px" height="584px" viewBox="0 0 668 584" version="1.1" xmlns="http://www.w3.org/2000/svg" xmlns:xlink="http://www.w3.org/1999/xlink">
    <title>ai-platform-svgrepo-com</title>
    <g id="Page-1" stroke="none" stroke-width="1" fill="none" fill-rule="evenodd">
        <g id="ai-platform-svgrepo-com" transform="translate(0.666667, 0.333333)" fill="#1255A7">
            <polygon id="Path" points="488 396 512.666667 354.333333 630.333333 354.333333 666.666667 291.666667 594 166.666667 491.666667 166.666667 456.333333 104.666667 416.666667 104.666667 416.666667 62.6666667 481.333333 62.6666667 516.666667 125 569.666667 125 496.666667 0 354.333333 0 354.333333 166.666667 412 166.666667 436.333333 208.333333 354.333333 208.333333 354.333333 291.666667 429.666667 291.666667 464.666667 229.333333 558.333333 229.333333 582.333333 271 489 271 454 333.333333 354.333333 333.333333 354.333333 479.333333 467.666667 479.333333 443.666667 521 354.333333 521 354.333333 583.333333 496.666667 583.333333 606 396 536.333333 396 512 437.666667 416.666667 437.666667 416.666667 396"></polygon>
            <polygon id="Path" points="178.666667 396 154 354.333333 36.3333333 354.333333 0 291.666667 72.6666667 166.666667 175 166.666667 210.333333 104.666667 250 104.666667 250 62.6666667 185.333333 62.6666667 150 125 97 125 170 0 312.666667 0 312.666667 166.666667 254.666667 166.666667 230.333333 208.333333 312.666667 208.333333 312.666667 291.666667 237 291.666667 202 229.333333 108.333333 229.333333 84.3333333 271 177.666667 271 212.666667 333.333333 312.666667 333.333333 312.666667 479.333333 199 479.333333 223 521 312.666667 521 312.666667 583.333333 170 583.333333 60.6666667 396 130.333333 396 154.666667 437.666667 250 437.666667 250 396"></polygon>
        </g>
    </g>
</svg>