<svg xmlns="http://www.w3.org/2000/svg" xmlns:xlink="http://www.w3.org/1999/xlink" width="520" height="800" version="1.1" viewBox="0 0 520 800"><title>travel-luggage-svgrepo-com</title><g id="Page-1" fill="none" fill-rule="evenodd" stroke="none" stroke-width="1"><g id="travel-luggage-svgrepo-com" fill="#1255A7" fill-rule="nonzero" transform="translate(-0.000000, 0.000000)"><path id="Shape" d="M62.0442708,175.78125 L76.2369792,175.78125 C76.2369792,176.757812 76.3671875,177.734375 76.6276042,178.710937 L92.1875,237.890625 C96.6145833,254.817708 104.166667,270.768229 115.494792,282.03125 C125.846354,292.382812 139.127604,298.828125 155.729167,298.828125 L217.96875,298.828125 L217.96875,332.096354 C217.96875,337.369792 222.265625,341.666667 227.473958,341.666667 L299.739583,341.666667 C305.013021,341.666667 309.244792,337.369792 309.244792,332.161458 L309.244792,298.828125 L374.479167,298.828125 C391.276042,298.828125 405.013021,292.252604 415.625,281.640625 C426.953125,270.3125 434.440104,254.361979 438.085938,237.304687 L450.520833,178.841146 C450.78125,177.864583 450.911458,176.822917 450.911458,175.78125 L457.617188,175.78125 C491.731771,175.78125 519.661458,203.710937 519.661458,237.825521 L519.661458,687.174479 C519.661458,721.09375 492.057292,748.893229 458.268229,749.21875 L458.268229,773.763021 C458.268229,788.216146 446.484375,800 432.03125,800 L432.03125,800 C417.578125,800 405.794271,788.216146 405.794271,773.763021 L405.794271,749.21875 L113.867188,749.21875 L113.867188,773.763021 C113.867188,788.216146 102.083333,800 87.6302083,800 L87.6302083,800 C73.1770833,800 61.3932292,788.216146 61.3932292,773.763021 L61.3932292,749.21875 C27.5390625,748.893229 0,721.09375 0,687.174479 L0,237.825521 C0,203.710937 27.9296875,175.78125 62.0442708,175.78125 L62.0442708,175.78125 Z M107.877604,653.710938 C101.5625,653.710938 96.4192708,648.567708 96.4192708,642.252604 C96.4192708,635.9375 101.5625,630.794271 107.877604,630.794271 L413.476563,630.794271 C419.791667,630.794271 424.934896,635.9375 424.934896,642.252604 C424.934896,648.567708 419.791667,653.710938 413.476563,653.710938 L107.877604,653.710938 L107.877604,653.710938 Z M107.877604,542.773438 C101.5625,542.773438 96.4192708,537.630208 96.4192708,531.315104 C96.4192708,525 101.5625,519.856771 107.877604,519.856771 L413.476563,519.856771 C419.791667,519.856771 424.934896,525 424.934896,531.315104 C424.934896,537.630208 419.791667,542.773438 413.476563,542.773438 L107.877604,542.773438 L107.877604,542.773438 Z M107.877604,431.835938 C101.5625,431.835938 96.4192708,426.692708 96.4192708,420.377604 C96.4192708,414.0625 101.5625,408.919271 107.877604,408.919271 L413.476563,408.919271 C419.791667,408.919271 424.934896,414.0625 424.934896,420.377604 C424.934896,426.692708 419.791667,431.835938 413.476563,431.835938 L107.877604,431.835938 L107.877604,431.835938 Z M425.260417,187.304688 L102.539063,187.304688 L114.322917,232.03125 C117.838542,245.3125 123.4375,257.552083 131.705729,265.755208 C137.890625,271.940104 145.833333,275.846354 155.664063,275.846354 L374.479167,275.846354 C384.635417,275.846354 392.96875,271.809896 399.414063,265.364583 C407.486979,257.291667 412.955729,245.442708 415.690104,232.552083 L425.260417,187.304688 L425.260417,187.304688 Z M103.320313,0 L418.684896,0 C422.330729,0 425.325521,2.99479167 425.325521,6.640625 L425.325521,49.3489583 C425.325521,52.9947917 422.330729,55.9895833 418.684896,55.9895833 L371.289062,55.9895833 L371.289062,163.28125 L343.424479,163.28125 L343.424479,55.9244792 L181.575521,55.9244792 L181.575521,163.216146 L153.710938,163.216146 L153.710938,55.9244792 L103.320313,55.9244792 C99.6744792,55.9244792 96.6796875,52.9296875 96.6796875,49.2838542 L96.6796875,6.640625 C96.6796875,2.99479167 99.6744792,0 103.320313,0 L103.320313,0 Z"/></g></g></svg>