<?xml version="1.0" encoding="UTF-8" standalone="no"?>
<!DOCTYPE svg PUBLIC "-//W3C//DTD SVG 1.1//EN" "http://www.w3.org/Graphics/SVG/1.1/DTD/svg11.dtd">
<svg version="1.1" xmlns="http://www.w3.org/2000/svg" xmlns:xl="http://www.w3.org/1999/xlink" xmlns:dc="http://purl.org/dc/elements/1.1/" viewBox="910 686 1051 537" width="1051" height="537">
  <defs>
    <marker orient="auto" overflow="visible" markerUnits="strokeWidth" id="FilledArrow_Marker" stroke-linejoin="miter" stroke-miterlimit="10" viewBox="-1 -3 7 6" markerWidth="7" markerHeight="6" color="black">
      <g>
        <path d="M 4.8 0 L 0 -1.8 L 0 1.8 Z" fill="currentColor" stroke="currentColor" stroke-width="1"/>
      </g>
    </marker>
  </defs>
  <g id="envoy-gateway-observability-pipeline" fill-opacity="1" stroke="none" stroke-opacity="1" fill="none" stroke-dasharray="none">
    <title>envoy-gateway-observability-pipeline</title>
    <rect fill="white" x="910" y="686" width="1051" height="537"/>
    <g id="envoy-gateway-observability-pipeline_Layer_1">
      <title>Layer 1</title>
      <g id="Graphic_233"/>
      <g id="Group_189">
        <g id="Graphic_76">
          <path d="M 1359.4451 715.0646 L 1535.445 715.0646 C 1542.0725 715.0646 1547.445 720.43715 1547.445 727.0646 L 1547.445 763.0646 C 1547.445 769.692 1542.0725 775.0646 1535.445 775.0646 L 1359.4451 775.0646 C 1352.8177 775.0646 1347.4451 769.692 1347.4451 763.0646 L 1347.4451 727.0646 C 1347.4451 720.43715 1352.8177 715.0646 1359.4451 715.0646 Z" fill="#fef2e5"/>
          <path d="M 1359.4451 715.0646 L 1535.445 715.0646 C 1542.0725 715.0646 1547.445 720.43715 1547.445 727.0646 L 1547.445 763.0646 C 1547.445 769.692 1542.0725 775.0646 1535.445 775.0646 L 1359.4451 775.0646 C 1352.8177 775.0646 1347.4451 769.692 1347.4451 763.0646 L 1347.4451 727.0646 C 1347.4451 720.43715 1352.8177 715.0646 1359.4451 715.0646 Z" stroke="#f03c00" stroke-linecap="round" stroke-linejoin="round" stroke-width="2"/>
          <text transform="translate(1359.4451 735.3325)" fill="black">
            <tspan font-family="Helvetica Neue" font-weight="bold" font-size="16" fill="black" x="58.64" y="16" xml:space="preserve">Envoy Gateway</tspan>
          </text>
        </g>
        <g id="Group_72">
          <g id="Graphic_75">
            <path d="M 1374.8036 746.3682 L 1371.7145 744.4456 L 1371.7793 747.3835 L 1374.8684 749.3061 Z M 1379.2537 756.6509 L 1379.1889 753.7778 L 1376.4886 752.0928 C 1376.4454 752.0712 1376.4022 752.028 1376.3806 752.0064 L 1376.4454 754.9011 Z M 1369.5975 760.5178 L 1362.5335 756.1325 L 1362.3607 748.7877 L 1365.817 747.2971 L 1365.7522 744.3592 L 1360.222 746.73545 C 1359.79 746.9299 1359.5308 747.3187 1359.5524 747.7724 L 1359.7684 756.5861 C 1359.7684 757.0398 1360.0492 757.4934 1360.4813 757.75265 L 1368.9494 763.002 C 1369.3382 763.23965 1369.8135 763.3045 1370.224 763.19645 C 1370.2671 763.1748 1370.3103 763.1748 1370.3535 763.1532 L 1375.5597 760.9066 L 1372.7298 759.1568 Z" fill="#b31aab"/>
          </g>
          <g id="Graphic_74">
            <path d="M 1392.4312 744.2728 C 1392.4096 743.7543 1392.1071 743.2143 1391.5887 742.9118 L 1381.306 736.5391 L 1380.9819 736.66875 L 1381.0467 739.7579 L 1389.1908 744.8128 L 1389.3852 753.0649 L 1392.496 754.98755 L 1392.6688 754.9227 Z M 1380.1178 758.768 L 1370.548 752.8489 L 1370.3103 742.9118 L 1374.674 741.0324 L 1374.5876 737.59765 L 1367.826 740.514 C 1367.3292 740.73 1367.0268 741.1836 1367.0484 741.7237 L 1367.3292 753.389 C 1367.3292 753.929 1367.6532 754.4475 1368.1717 754.7499 L 1379.3833 761.7059 C 1379.837 761.9867 1380.3986 762.0731 1380.8739 761.9219 C 1380.9171 761.9003 1380.9603 761.8787 1381.0035 761.8787 L 1387.6138 759.0272 L 1384.3303 756.9966 Z" fill="#d163ce"/>
          </g>
          <g id="Graphic_73">
            <path d="M 1407.0128 736.1071 L 1392.6472 727.2069 C 1392.1071 726.8829 1391.4807 726.7965 1390.9406 726.9693 C 1390.8974 726.9909 1390.8326 727.0125 1390.7894 727.0341 L 1376.7694 733.08275 C 1376.2078 733.3204 1375.8621 733.8388 1375.8837 734.4653 L 1376.2294 749.4141 C 1376.251 750.019 1376.6182 750.6239 1377.2015 750.9695 L 1391.567 759.8697 C 1392.0855 760.1937 1392.7336 760.2801 1393.2736 760.1073 C 1393.3169 760.0857 1393.3817 760.0641 1393.4249 760.0425 L 1407.4448 753.9938 C 1408.0065 753.7562 1408.3521 753.2162 1408.3305 752.6113 L 1407.9849 737.66245 C 1407.9633 737.0576 1407.596 736.4743 1407.0128 736.1071 Z M 1392.4096 756.5213 L 1379.9234 748.7877 L 1379.621 735.80465 L 1391.8047 730.5553 L 1404.2909 738.2889 L 1404.5933 751.2719 Z" fill="#e13eaf"/>
          </g>
        </g>
      </g>
      <g id="Graphic_186">
        <path d="M 1376.6256 836.5389 L 1518.2646 836.5389 C 1524.892 836.5389 1530.2646 841.9115 1530.2646 848.5389 L 1530.2646 884.5389 C 1530.2646 891.1663 1524.892 896.5389 1518.2646 896.5389 L 1376.6256 896.5389 C 1369.9982 896.5389 1364.6256 891.1663 1364.6256 884.5389 L 1364.6256 848.5389 C 1364.6256 841.9115 1369.9982 836.5389 1376.6256 836.5389 Z" fill="#0b2d5c"/>
        <text transform="translate(1369.6256 847.0748)" fill="white">
          <tspan font-family="Helvetica Neue" font-weight="bold" font-size="16" fill="white" x="16.643466" y="16" xml:space="preserve">Access Logging</tspan>
          <tspan font-family="Helvetica Neue" font-weight="bold" font-size="16" fill="white" x="46.723466" y="35.46411" xml:space="preserve">(default)</tspan>
        </text>
      </g>
      <g id="Graphic_190">
        <path d="M 1240.0301 974.7852 L 1381.669 974.7852 C 1388.2965 974.7852 1393.669 980.1578 1393.669 986.7852 L 1393.669 1022.7852 C 1393.669 1029.4127 1388.2965 1034.7852 1381.669 1034.7852 L 1240.0301 1034.7852 C 1233.4027 1034.7852 1228.0301 1029.4127 1228.0301 1022.7852 L 1228.0301 986.7852 C 1228.0301 980.1578 1233.4027 974.7852 1240.0301 974.7852 Z" fill="#0b2d5c"/>
        <text transform="translate(1233.0301 995.0532)" fill="white">
          <tspan font-family="Helvetica Neue" font-weight="bold" font-size="16" fill="white" x="4.5474656" y="16" xml:space="preserve">Log Output Targets</tspan>
        </text>
      </g>
      <g id="Graphic_192">
        <path d="M 934.541 974.7852 L 1076.18 974.7852 C 1082.8074 974.7852 1088.18 980.1578 1088.18 986.7852 L 1088.18 1022.7852 C 1088.18 1029.4127 1082.8074 1034.7852 1076.18 1034.7852 L 934.541 1034.7852 C 927.9136 1034.7852 922.541 1029.4127 922.541 1022.7852 L 922.541 986.7852 C 922.541 980.1578 927.9136 974.7852 934.541 974.7852 Z" fill="#0b2d5c"/>
        <text transform="translate(927.541 985.3211)" fill="white">
          <tspan font-family="Helvetica Neue" font-weight="bold" font-size="16" fill="white" x="33.675466" y="16" xml:space="preserve">Log Format </tspan>
          <tspan font-family="Helvetica Neue" font-weight="bold" font-size="16" fill="white" x="25.523466" y="35.46411" xml:space="preserve">Configuration</tspan>
        </text>
      </g>
      <g id="Graphic_193">
        <path d="M 934.541 1113.0316 L 1076.18 1113.0316 C 1082.8074 1113.0316 1088.18 1118.4042 1088.18 1125.0316 L 1088.18 1161.0316 C 1088.18 1167.659 1082.8074 1173.0316 1076.18 1173.0316 L 934.541 1173.0316 C 927.9136 1173.0316 922.541 1167.659 922.541 1161.0316 L 922.541 1125.0316 C 922.541 1118.4042 927.9136 1113.0316 934.541 1113.0316 Z" fill="#0b2d5c"/>
        <text transform="translate(927.541 1133.2995)" fill="white">
          <tspan font-family="Helvetica Neue" font-weight="bold" font-size="16" fill="white" x="3.2674656" y="16" xml:space="preserve">Log Entry Structure</tspan>
        </text>
      </g>
      <g id="Graphic_194">
        <path d="M 1155.5833 1113.0316 L 1297.2223 1113.0316 C 1303.8497 1113.0316 1309.2223 1118.4042 1309.2223 1125.0316 L 1309.2223 1161.0316 C 1309.2223 1167.659 1303.8497 1173.0316 1297.2223 1173.0316 L 1155.5833 1173.0316 C 1148.9559 1173.0316 1143.5833 1167.659 1143.5833 1161.0316 L 1143.5833 1125.0316 C 1143.5833 1118.4042 1148.9559 1113.0316 1155.5833 1113.0316 Z" fill="#0b2d5c"/>
        <text transform="translate(1148.5833 1133.2995)" fill="white">
          <tspan font-family="Helvetica Neue" font-weight="bold" font-size="16" fill="white" x="20.051466" y="16" xml:space="preserve">stdout (default)</tspan>
        </text>
      </g>
      <g id="Line_196">
        <line x1="1447.4451" y1="776.0646" x2="1447.4451" y2="823.6389" marker-end="url(#FilledArrow_Marker)" stroke="black" stroke-linecap="round" stroke-linejoin="round" stroke-width="2"/>
      </g>
      <g id="Line_197">
        <path d="M 1392.9775 896.5389 C 1371.894 909.5187 1348.9649 925.5048 1332.6667 942 C 1325.0797 949.6787 1319.629 956.7598 1315.7687 963.1825" marker-end="url(#FilledArrow_Marker)" stroke="black" stroke-linecap="round" stroke-linejoin="round" stroke-width="2"/>
      </g>
      <g id="Graphic_218">
        <path d="M 1511.3365 974.7852 L 1652.9754 974.7852 C 1659.6028 974.7852 1664.9754 980.1578 1664.9754 986.7852 L 1664.9754 1022.7852 C 1664.9754 1029.4127 1659.6028 1034.7852 1652.9754 1034.7852 L 1511.3365 1034.7852 C 1504.709 1034.7852 1499.3365 1029.4127 1499.3365 1022.7852 L 1499.3365 986.7852 C 1499.3365 980.1578 1504.709 974.7852 1511.3365 974.7852 Z" fill="#0b2d5c"/>
        <text transform="translate(1504.3365 995.0532)" fill="white">
          <tspan font-family="Helvetica Neue" font-weight="bold" font-size="16" fill="white" x="1.1234656" y="16" xml:space="preserve">Filtering &amp; Sampling</tspan>
        </text>
      </g>
      <g id="Graphic_219">
        <path d="M 1782.6428 974.7852 L 1924.2818 974.7852 C 1930.9092 974.7852 1936.2818 980.1578 1936.2818 986.7852 L 1936.2818 1022.7852 C 1936.2818 1029.4127 1930.9092 1034.7852 1924.2818 1034.7852 L 1782.6428 1034.7852 C 1776.0154 1034.7852 1770.6428 1029.4127 1770.6428 1022.7852 L 1770.6428 986.7852 C 1770.6428 980.1578 1776.0154 974.7852 1782.6428 974.7852 Z" fill="#0b2d5c"/>
        <text transform="translate(1775.6428 985.3211)" fill="white">
          <tspan font-family="Helvetica Neue" font-weight="bold" font-size="16" fill="white" x="16.787466" y="16" xml:space="preserve">Security-related </tspan>
          <tspan font-family="Helvetica Neue" font-weight="bold" font-size="16" fill="white" x="46.715466" y="35.46411" xml:space="preserve">Logging</tspan>
        </text>
      </g>
      <g id="Graphic_220">
        <path d="M 1364.6032 1113.0316 L 1506.2421 1113.0316 C 1512.8695 1113.0316 1518.2421 1118.4042 1518.2421 1125.0316 L 1518.2421 1161.0316 C 1518.2421 1167.659 1512.8695 1173.0316 1506.2421 1173.0316 L 1364.6032 1173.0316 C 1357.9757 1173.0316 1352.6032 1167.659 1352.6032 1161.0316 L 1352.6032 1125.0316 C 1352.6032 1118.4042 1357.9757 1113.0316 1364.6032 1113.0316 Z" fill="#0b2d5c"/>
        <text transform="translate(1357.6032 1133.2995)" fill="white">
          <tspan font-family="Helvetica Neue" font-weight="bold" font-size="16" fill="white" x="66.275466" y="16" xml:space="preserve">file</tspan>
        </text>
      </g>
      <g id="Graphic_221">
        <path d="M 1573.623 1113.0316 L 1715.262 1113.0316 C 1721.8893 1113.0316 1727.262 1118.4042 1727.262 1125.0316 L 1727.262 1161.0316 C 1727.262 1167.659 1721.8893 1173.0316 1715.262 1173.0316 L 1573.623 1173.0316 C 1566.9956 1173.0316 1561.623 1167.659 1561.623 1161.0316 L 1561.623 1125.0316 C 1561.623 1118.4042 1566.9956 1113.0316 1573.623 1113.0316 Z" fill="#0b2d5c"/>
        <text transform="translate(1566.623 1133.2995)" fill="white">
          <tspan font-family="Helvetica Neue" font-weight="bold" font-size="16" fill="white" x="53.235466" y="16" xml:space="preserve">syslog</tspan>
        </text>
      </g>
      <g id="Graphic_222">
        <path d="M 1782.6428 1113.0316 L 1924.2818 1113.0316 C 1930.9092 1113.0316 1936.2818 1118.4042 1936.2818 1125.0316 L 1936.2818 1161.0316 C 1936.2818 1167.659 1930.9092 1173.0316 1924.2818 1173.0316 L 1782.6428 1173.0316 C 1776.0154 1173.0316 1770.6428 1167.659 1770.6428 1161.0316 L 1770.6428 1125.0316 C 1770.6428 1118.4042 1776.0154 1113.0316 1782.6428 1113.0316 Z" fill="#0b2d5c"/>
        <text transform="translate(1775.6428 1133.2995)" fill="white">
          <tspan font-family="Helvetica Neue" font-weight="bold" font-size="16" fill="white" x="20.931466" y="16" xml:space="preserve">HTTP endpoint</tspan>
        </text>
      </g>
      <g id="Line_223">
        <path d="M 1497.4648 896.5389 C 1517.7716 909.9409 1540.259 926.4951 1556.6667 943.3333 C 1563.8056 950.6597 1569.1657 957.3954 1573.1625 963.505" marker-end="url(#FilledArrow_Marker)" stroke="black" stroke-linecap="round" stroke-linejoin="round" stroke-width="2"/>
      </g>
      <g id="Line_224">
        <path d="M 1530.2646 880.4737 C 1591.5049 891.7958 1675.0694 909.4519 1739.3333 931.3333 C 1777.2638 944.2484 1802.5889 956.6329 1819.4975 967.4323" marker-end="url(#FilledArrow_Marker)" stroke="black" stroke-linecap="round" stroke-linejoin="round" stroke-width="2"/>
      </g>
      <g id="Line_225">
        <path d="M 1364.6256 873.7245 C 1288.4696 881.5188 1176.1274 896.1531 1099.8296 920.0125 C 1052.4191 934.8385 1027.3655 950.5874 1014.5364 964.4361" marker-end="url(#FilledArrow_Marker)" stroke="black" stroke-linecap="round" stroke-linejoin="round" stroke-width="2"/>
      </g>
      <g id="Line_226">
        <line x1="1005.3605" y1="1034.7852" x2="1005.3605" y2="1100.1316" marker-end="url(#FilledArrow_Marker)" stroke="black" stroke-linecap="round" stroke-linejoin="round" stroke-width="2"/>
      </g>
      <g id="Line_228">
        <path d="M 1271.1322 1034.7852 C 1253.485 1049.5999 1234.2668 1068.101 1223.3333 1086 C 1220.1684 1091.1813 1217.8945 1095.9899 1216.3314 1100.4336" marker-end="url(#FilledArrow_Marker)" stroke="black" stroke-linecap="round" stroke-linejoin="round" stroke-width="2"/>
      </g>
      <g id="Line_229">
        <path d="M 1350.212 1034.7852 C 1366.1915 1047.898 1384.371 1064.0621 1399.3333 1080.6667 C 1406.3985 1088.5073 1412.0812 1095.708 1416.6519 1102.2109" marker-end="url(#FilledArrow_Marker)" stroke="black" stroke-linecap="round" stroke-linejoin="round" stroke-width="2"/>
      </g>
      <g id="Line_230">
        <path d="M 1387.1302 1033.4734 C 1429.8585 1049.7747 1483.7442 1070.7212 1530.2646 1090 C 1546.3131 1096.6508 1560.2036 1102.572 1572.2062 1107.8197" marker-end="url(#FilledArrow_Marker)" stroke="black" stroke-linecap="round" stroke-linejoin="round" stroke-width="2"/>
      </g>
      <g id="Line_231">
        <path d="M 1393.669 1020.6222 C 1483.7658 1038.1981 1628.1575 1067.4169 1727.262 1092.6667 C 1751.5483 1098.8543 1771.3108 1104.344 1787.3727 1109.2017" marker-end="url(#FilledArrow_Marker)" stroke="black" stroke-linecap="round" stroke-linejoin="round" stroke-width="2"/>
      </g>
      <g id="Graphic_232">
        <rect x="944.4885" y="1051.8065" width="121.744" height="28.447998" fill="white"/>
        <text transform="translate(949.4885 1056.8065)" fill="black">
          <tspan font-family="Helvetica Neue" font-size="16" fill="black" x="0" y="15" xml:space="preserve">Custom Format</tspan>
        </text>
      </g>
    </g>
  </g>
</svg>
