<?xml version="1.0" encoding="UTF-8" standalone="no"?>
<!DOCTYPE svg PUBLIC "-//W3C//DTD SVG 1.1//EN" "http://www.w3.org/Graphics/SVG/1.1/DTD/svg11.dtd">
<svg version="1.1" xmlns:dc="http://purl.org/dc/elements/1.1/" xmlns="http://www.w3.org/2000/svg" xmlns:xl="http://www.w3.org/1999/xlink" viewBox="563 526 1106 659" width="1106" height="659">
  <defs>
    <marker orient="auto" overflow="visible" markerUnits="strokeWidth" id="FilledArrow_Marker" stroke-linejoin="miter" stroke-miterlimit="10" viewBox="-1 -3 7 6" markerWidth="7" markerHeight="6" color="black">
      <g>
        <path d="M 4.8 0 L 0 -1.8 L 0 1.8 Z" fill="currentColor" stroke="currentColor" stroke-width="1"/>
      </g>
    </marker>
  </defs>
  <g id="Cilium_mesh_mode" fill-opacity="1" stroke="none" stroke-opacity="1" stroke-dasharray="none" fill="none">
    <title>cilium-mesh-mode</title>
    <rect fill="white" x="563" y="526" width="1106" height="659"/>
    <g id="Cilium_mesh_mode_Layer_1">
      <title>Layer 1</title>
      <g id="Graphic_23">
        <rect x="563.5625" y="526" width="1105" height="659" fill="white"/>
      </g>
      <g id="Graphic_22">
        <rect x="1004.2812" y="580.64575" width="223.5625" height="526.85425" fill="#fbfbfb"/>
        <rect x="1004.2812" y="580.64575" width="223.5625" height="526.85425" stroke="black" stroke-linecap="round" stroke-linejoin="round" stroke-width="1"/>
        <text transform="translate(1009.2812 1083.0359)" fill="black">
          <tspan font-family="Helvetica Neue" font-size="16" fill="black" x="75.81325" y="16" xml:space="preserve">Network</tspan>
        </text>
      </g>
      <g id="Graphic_12">
        <path d="M 597.375 557 L 1020.125 557 C 1022.3341 557 1024.125 558.79086 1024.125 561 L 1024.125 1150 C 1024.125 1152.2091 1022.3341 1154 1020.125 1154 L 597.375 1154 C 595.16586 1154 593.375 1152.2091 593.375 1150 L 593.375 561 C 593.375 558.79086 595.16586 557 597.375 557 Z" fill="#f3f3f3"/>
        <path d="M 597.375 557 L 1020.125 557 C 1022.3341 557 1024.125 558.79086 1024.125 561 L 1024.125 1150 C 1024.125 1152.2091 1022.3341 1154 1020.125 1154 L 597.375 1154 C 595.16586 1154 593.375 1152.2091 593.375 1150 L 593.375 561 C 593.375 558.79086 595.16586 557 597.375 557 Z" stroke="black" stroke-linecap="round" stroke-linejoin="round" stroke-width="1"/>
        <text transform="translate(598.375 1129.5359)" fill="black">
          <tspan font-family="Helvetica Neue" font-size="16" fill="black" x="348.142" y="16" xml:space="preserve">Node(VM)</tspan>
        </text>
      </g>
      <g id="Graphic_10">
        <path d="M 626.625 981.1458 L 990.875 981.1458 C 993.0841 981.1458 994.875 982.9366 994.875 985.1458 L 994.875 1103.5 C 994.875 1105.7091 993.0841 1107.5 990.875 1107.5 L 626.625 1107.5 C 624.41586 1107.5 622.625 1105.7091 622.625 1103.5 L 622.625 985.1458 C 622.625 982.9366 624.41586 981.1458 626.625 981.1458 Z" fill="#d9d9d9"/>
        <path d="M 626.625 981.1458 L 990.875 981.1458 C 993.0841 981.1458 994.875 982.9366 994.875 985.1458 L 994.875 1103.5 C 994.875 1105.7091 993.0841 1107.5 990.875 1107.5 L 626.625 1107.5 C 624.41586 1107.5 622.625 1105.7091 622.625 1103.5 L 622.625 985.1458 C 622.625 982.9366 624.41586 981.1458 626.625 981.1458 Z" stroke="#666" stroke-linecap="round" stroke-linejoin="round" stroke-width="1"/>
        <text transform="translate(627.625 1083.0359)" fill="black">
          <tspan font-family="Helvetica Neue" font-size="16" fill="black" x="258.49" y="16" xml:space="preserve">Pod (cgroups)</tspan>
        </text>
      </g>
      <g id="Graphic_7">
        <title>Proxy</title>
        <path d="M 645 998.5 L 972.5 998.5 C 974.7091 998.5 976.5 1000.2909 976.5 1002.5 L 976.5 1062.5 C 976.5 1064.7091 974.7091 1066.5 972.5 1066.5 L 645 1066.5 C 642.79086 1066.5 641 1064.7091 641 1062.5 L 641 1002.5 C 641 1000.2909 642.79086 998.5 645 998.5 Z" fill="#f15623"/>
        <text transform="translate(646 1022.768)" fill="white">
          <tspan font-family="Helvetica Neue" font-size="16" fill="white" x="111.998" y="16" xml:space="preserve">L4 + L7 Proxy</tspan>
        </text>
      </g>
      <g id="Graphic_13">
        <path d="M 1212 557 L 1634.75 557 C 1636.9591 557 1638.75 558.79086 1638.75 561 L 1638.75 1150 C 1638.75 1152.2091 1636.9591 1154 1634.75 1154 L 1212 1154 C 1209.7909 1154 1208 1152.2091 1208 1150 L 1208 561 C 1208 558.79086 1209.7909 557 1212 557 Z" fill="#f3f3f3"/>
        <path d="M 1212 557 L 1634.75 557 C 1636.9591 557 1638.75 558.79086 1638.75 561 L 1638.75 1150 C 1638.75 1152.2091 1636.9591 1154 1634.75 1154 L 1212 1154 C 1209.7909 1154 1208 1152.2091 1208 1150 L 1208 561 C 1208 558.79086 1209.7909 557 1212 557 Z" stroke="black" stroke-linecap="round" stroke-linejoin="round" stroke-width="1"/>
        <text transform="translate(1213 1129.5359)" fill="black">
          <tspan font-family="Helvetica Neue" font-size="16" fill="black" x="348.142" y="16" xml:space="preserve">Node(VM)</tspan>
        </text>
      </g>
      <g id="Graphic_16">
        <path d="M 1241.25 580.64575 L 1605.5 580.64575 C 1607.7091 580.64575 1609.5 582.4366 1609.5 584.64575 L 1609.5 703 C 1609.5 705.2091 1607.7091 707 1605.5 707 L 1241.25 707 C 1239.0409 707 1237.25 705.2091 1237.25 703 L 1237.25 584.64575 C 1237.25 582.4366 1239.0409 580.64575 1241.25 580.64575 Z" fill="#d9d9d9"/>
        <path d="M 1241.25 580.64575 L 1605.5 580.64575 C 1607.7091 580.64575 1609.5 582.4366 1609.5 584.64575 L 1609.5 703 C 1609.5 705.2091 1607.7091 707 1605.5 707 L 1241.25 707 C 1239.0409 707 1237.25 705.2091 1237.25 703 L 1237.25 584.64575 C 1237.25 582.4366 1239.0409 580.64575 1241.25 580.64575 Z" stroke="#666" stroke-linecap="round" stroke-linejoin="round" stroke-width="1"/>
        <text transform="translate(1242.25 682.5359)" fill="black">
          <tspan font-family="Helvetica Neue" font-size="16" fill="black" x="258.49" y="16" xml:space="preserve">Pod (cgroups)</tspan>
        </text>
      </g>
      <g id="Graphic_15">
        <path d="M 1259.625 605 L 1587.125 605 C 1589.3341 605 1591.125 606.79086 1591.125 609 L 1591.125 669 C 1591.125 671.2091 1589.3341 673 1587.125 673 L 1259.625 673 C 1257.4159 673 1255.625 671.2091 1255.625 669 L 1255.625 609 C 1255.625 606.79086 1257.4159 605 1259.625 605 Z" fill="#666"/>
        <text transform="translate(1260.625 629.26794)" fill="white">
          <tspan font-family="Helvetica Neue" font-size="16" fill="white" x="76.054" y="16" xml:space="preserve">Application 3 Container</tspan>
        </text>
      </g>
      <g id="Graphic_24">
        <path d="M 626.625 580.64575 L 990.875 580.64575 C 993.0841 580.64575 994.875 582.4366 994.875 584.64575 L 994.875 703 C 994.875 705.2091 993.0841 707 990.875 707 L 626.625 707 C 624.41586 707 622.625 705.2091 622.625 703 L 622.625 584.64575 C 622.625 582.4366 624.41586 580.64575 626.625 580.64575 Z" fill="#d9d9d9"/>
        <path d="M 626.625 580.64575 L 990.875 580.64575 C 993.0841 580.64575 994.875 582.4366 994.875 584.64575 L 994.875 703 C 994.875 705.2091 993.0841 707 990.875 707 L 626.625 707 C 624.41586 707 622.625 705.2091 622.625 703 L 622.625 584.64575 C 622.625 582.4366 624.41586 580.64575 626.625 580.64575 Z" stroke="#666" stroke-linecap="round" stroke-linejoin="round" stroke-width="1"/>
        <text transform="translate(627.625 682.5359)" fill="black">
          <tspan font-family="Helvetica Neue" font-size="16" fill="black" x="258.49" y="16" xml:space="preserve">Pod (cgroups)</tspan>
        </text>
      </g>
      <g id="Graphic_2">
        <path d="M 645 605 L 972.5 605 C 974.7091 605 976.5 606.79086 976.5 609 L 976.5 669 C 976.5 671.2091 974.7091 673 972.5 673 L 645 673 C 642.79086 673 641 671.2091 641 669 L 641 609 C 641 606.79086 642.79086 605 645 605 Z" fill="#666"/>
        <text transform="translate(646 629.26794)" fill="white">
          <tspan font-family="Helvetica Neue" font-size="16" fill="white" x="76.054" y="16" xml:space="preserve">Application 1 Container</tspan>
        </text>
      </g>
      <g id="Graphic_26">
        <path d="M 626.625 772.5729 L 990.875 772.5729 C 993.0841 772.5729 994.875 774.3637 994.875 776.5729 L 994.875 894.9271 C 994.875 897.1363 993.0841 898.9271 990.875 898.9271 L 626.625 898.9271 C 624.41586 898.9271 622.625 897.1363 622.625 894.9271 L 622.625 776.5729 C 622.625 774.3637 624.41586 772.5729 626.625 772.5729 Z" fill="#d9d9d9"/>
        <path d="M 626.625 772.5729 L 990.875 772.5729 C 993.0841 772.5729 994.875 774.3637 994.875 776.5729 L 994.875 894.9271 C 994.875 897.1363 993.0841 898.9271 990.875 898.9271 L 626.625 898.9271 C 624.41586 898.9271 622.625 897.1363 622.625 894.9271 L 622.625 776.5729 C 622.625 774.3637 624.41586 772.5729 626.625 772.5729 Z" stroke="#666" stroke-linecap="round" stroke-linejoin="round" stroke-width="1"/>
        <text transform="translate(627.625 874.463)" fill="black">
          <tspan font-family="Helvetica Neue" font-size="16" fill="black" x="258.49" y="16" xml:space="preserve">Pod (cgroups)</tspan>
        </text>
      </g>
      <g id="Graphic_25">
        <path d="M 645 793.0729 L 972.5 793.0729 C 974.7091 793.0729 976.5 794.8637 976.5 797.0729 L 976.5 857.0729 C 976.5 859.282 974.7091 861.0729 972.5 861.0729 L 645 861.0729 C 642.79086 861.0729 641 859.282 641 857.0729 L 641 797.0729 C 641 794.8637 642.79086 793.0729 645 793.0729 Z" fill="#666"/>
        <text transform="translate(646 817.3408)" fill="white">
          <tspan font-family="Helvetica Neue" font-size="16" fill="white" x="76.054" y="16" xml:space="preserve">Application 2 Container</tspan>
        </text>
      </g>
      <g id="Line_27">
        <line x1="808.75" y1="998.5" x2="808.75" y2="873.9729" marker-end="url(#FilledArrow_Marker)" stroke="black" stroke-linecap="round" stroke-linejoin="round" stroke-width="2"/>
      </g>
      <g id="Line_28">
        <path d="M 976.5 637.5731 C 1022.1499 739.1864 1027.8216 886.9527 982.7158 998.0988 C 982.489 998.6577 982.2602 999.212 982.0295 999.7617" marker-end="url(#FilledArrow_Marker)" stroke="black" stroke-linecap="round" stroke-linejoin="round" stroke-width="2"/>
      </g>
      <g id="Graphic_30">
        <path d="M 1241.25 981.1458 L 1605.5 981.1458 C 1607.7091 981.1458 1609.5 982.9366 1609.5 985.1458 L 1609.5 1103.5 C 1609.5 1105.7091 1607.7091 1107.5 1605.5 1107.5 L 1241.25 1107.5 C 1239.0409 1107.5 1237.25 1105.7091 1237.25 1103.5 L 1237.25 985.1458 C 1237.25 982.9366 1239.0409 981.1458 1241.25 981.1458 Z" fill="#d9d9d9"/>
        <path d="M 1241.25 981.1458 L 1605.5 981.1458 C 1607.7091 981.1458 1609.5 982.9366 1609.5 985.1458 L 1609.5 1103.5 C 1609.5 1105.7091 1607.7091 1107.5 1605.5 1107.5 L 1241.25 1107.5 C 1239.0409 1107.5 1237.25 1105.7091 1237.25 1103.5 L 1237.25 985.1458 C 1237.25 982.9366 1239.0409 981.1458 1241.25 981.1458 Z" stroke="#666" stroke-linecap="round" stroke-linejoin="round" stroke-width="1"/>
        <text transform="translate(1242.25 1083.0359)" fill="black">
          <tspan font-family="Helvetica Neue" font-size="16" fill="black" x="258.49" y="16" xml:space="preserve">Pod (cgroups)</tspan>
        </text>
      </g>
      <g id="Graphic_29">
        <title>Proxy</title>
        <path d="M 1259.625 998.5 L 1587.125 998.5 C 1589.3341 998.5 1591.125 1000.2909 1591.125 1002.5 L 1591.125 1062.5 C 1591.125 1064.7091 1589.3341 1066.5 1587.125 1066.5 L 1259.625 1066.5 C 1257.4159 1066.5 1255.625 1064.7091 1255.625 1062.5 L 1255.625 1002.5 C 1255.625 1000.2909 1257.4159 998.5 1259.625 998.5 Z" fill="#f15623"/>
        <text transform="translate(1260.625 1022.768)" fill="white">
          <tspan font-family="Helvetica Neue" font-size="16" fill="white" x="111.998" y="16" xml:space="preserve">L4 + L7 Proxy</tspan>
        </text>
      </g>
      <g id="Line_34">
        <line x1="976.5" y1="1032.5" x2="1242.725" y2="1032.5" marker-end="url(#FilledArrow_Marker)" stroke="black" stroke-linecap="round" stroke-linejoin="round" stroke-width="2"/>
      </g>
      <g id="Line_37">
        <line x1="1423.375" y1="998.5" x2="1423.375" y2="685.9" marker-end="url(#FilledArrow_Marker)" stroke="black" stroke-linecap="round" stroke-linejoin="round" stroke-width="2"/>
      </g>
    </g>
  </g>
</svg>
