<svg xmlns="http://www.w3.org/2000/svg" xmlns:xl="http://www.w3.org/1999/xlink" width="868" height="466" version="1.1" viewBox="604 534 868 466"><defs><linearGradient id="Gradient" x1="0" x2="1" gradientUnits="userSpaceOnUse"><stop offset="0" stop-color="#72c9c9"/><stop offset=".091" stop-color="#46bdbb"/><stop offset="1" stop-color="#02b0ad"/></linearGradient><linearGradient id="Obj_Gradient" gradientTransform="translate(694.0509 899.4277) rotate(-45) scale(10.891353)" xl:href="#Gradient"/><linearGradient id="Gradient_2" x1="0" x2="1" gradientUnits="userSpaceOnUse"><stop offset="0" stop-color="#03b6b4"/><stop offset="0" stop-color="#48c1bf"/><stop offset="1" stop-color="#74cbca"/></linearGradient><linearGradient id="Obj_Gradient_2" gradientTransform="translate(706.166 897.7901) rotate(-45) scale(6.38835)" xl:href="#Gradient_2"/><marker id="FilledArrow_Marker" stroke-linejoin="miter" stroke-miterlimit="10" color="#000" markerHeight="6" markerUnits="strokeWidth" markerWidth="7" orient="auto" overflow="visible" viewBox="-1 -3 7 6"><g><path fill="currentColor" stroke="currentColor" stroke-width="1" d="M 4.8 0 L 0 -1.8 L 0 1.8 Z"/></g></marker></defs><g id="gRPC_mode" fill="none" fill-opacity="1" stroke="none" stroke-dasharray="none" stroke-opacity="1"><title>grpc-mode</title><rect width="868" height="466" x="604" y="534" fill="#fff"/><g id="gRPC_mode_Layer_1"><title>Layer 1</title><g id="Graphic_23"><rect width="867.885" height="465.339" x="604.115" y="534.661" fill="#fff"/></g><g id="Graphic_12"><path fill="#f3f3f3" d="M 648.3125 552.5 L 969.1875 552.5 C 971.3966 552.5 973.1875 554.29086 973.1875 556.5 L 973.1875 967 C 973.1875 969.2091 971.3966 971 969.1875 971 L 648.3125 971 C 646.10336 971 644.3125 969.2091 644.3125 967 L 644.3125 556.5 C 644.3125 554.29086 646.10336 552.5 648.3125 552.5 Z"/><path stroke="#000" stroke-linecap="round" stroke-linejoin="round" stroke-width="1" d="M 648.3125 552.5 L 969.1875 552.5 C 971.3966 552.5 973.1875 554.29086 973.1875 556.5 L 973.1875 967 C 973.1875 969.2091 971.3966 971 969.1875 971 L 648.3125 971 C 646.10336 971 644.3125 969.2091 644.3125 967 L 644.3125 556.5 C 644.3125 554.29086 646.10336 552.5 648.3125 552.5 Z"/><text fill="#000" transform="translate(649.3125 557.5)"><tspan x="0" y="16" fill="#000" font-family="Helvetica Neue" font-size="16" xml:space="preserve">Pod or Virtual Machine</tspan></text></g><g id="Graphic_7"><title>Proxy</title><path fill="#fcd88a" d="M 674.25 869 L 943.25 869 C 945.4591 869 947.25 870.7909 947.25 873 L 947.25 933 C 947.25 935.2091 945.4591 937 943.25 937 L 674.25 937 C 672.0409 937 670.25 935.2091 670.25 933 L 670.25 873 C 670.25 870.7909 672.0409 869 674.25 869 Z"/><path stroke="#666" stroke-linecap="round" stroke-linejoin="round" stroke-width="1" d="M 674.25 869 L 943.25 869 C 945.4591 869 947.25 870.7909 947.25 873 L 947.25 933 C 947.25 935.2091 945.4591 937 943.25 937 L 674.25 937 C 672.0409 937 670.25 935.2091 670.25 933 L 670.25 873 C 670.25 870.7909 672.0409 869 674.25 869 Z"/><text fill="#000" transform="translate(675.25 893.2679)"><tspan x="91.708" y="16" fill="#000" font-family="Helvetica Neue" font-size="16" xml:space="preserve">Applicaiton</tspan></text></g><g id="Graphic_24"><path fill="#fff" d="M 674.25 605.3229 L 943.25 605.3229 C 945.4591 605.3229 947.25 607.11374 947.25 609.3229 L 947.25 678.3229 C 947.25 680.532 945.4591 682.3229 943.25 682.3229 L 674.25 682.3229 C 672.0409 682.3229 670.25 680.532 670.25 678.3229 L 670.25 609.3229 C 670.25 607.11374 672.0409 605.3229 674.25 605.3229 Z"/><path stroke="#666" stroke-linecap="round" stroke-linejoin="round" stroke-width="1" d="M 674.25 605.3229 L 943.25 605.3229 C 945.4591 605.3229 947.25 607.11374 947.25 609.3229 L 947.25 678.3229 C 947.25 680.532 945.4591 682.3229 943.25 682.3229 L 674.25 682.3229 C 672.0409 682.3229 670.25 680.532 670.25 678.3229 L 670.25 609.3229 C 670.25 607.11374 672.0409 605.3229 674.25 605.3229 Z"/><text fill="#000" transform="translate(675.25 634.0908)"><tspan x="93.78" y="16" fill="#000" font-family="Helvetica Neue" font-size="16" xml:space="preserve">Istio Agent</tspan></text></g><g id="Graphic_39"><path fill="#466bb0" d="M 706.5 656.2524 L 737.1667 656.2524 L 718.0049 662 Z M 706.5 654.3333 L 718.0049 652.4142 L 718.0049 631.3333 Z M 719.9142 652.4142 L 737.1667 654.3333 L 719.9142 616 Z"/></g><g id="Graphic_42"><path fill="#fff" d="M 1165 605.3229 L 1434 605.3229 C 1436.2091 605.3229 1438 607.11374 1438 609.3229 L 1438 678.3229 C 1438 680.532 1436.2091 682.3229 1434 682.3229 L 1165 682.3229 C 1162.7909 682.3229 1161 680.532 1161 678.3229 L 1161 609.3229 C 1161 607.11374 1162.7909 605.3229 1165 605.3229 Z"/><path stroke="#666" stroke-linecap="round" stroke-linejoin="round" stroke-width="1" d="M 1165 605.3229 L 1434 605.3229 C 1436.2091 605.3229 1438 607.11374 1438 609.3229 L 1438 678.3229 C 1438 680.532 1436.2091 682.3229 1434 682.3229 L 1165 682.3229 C 1162.7909 682.3229 1161 680.532 1161 678.3229 L 1161 609.3229 C 1161 607.11374 1162.7909 605.3229 1165 605.3229 Z"/><text fill="#000" transform="translate(1166 634.0908)"><tspan x="83.404" y="16" fill="#000" font-family="Helvetica Neue" font-size="16" xml:space="preserve">Control Plane</tspan></text></g><g id="Graphic_41"><path fill="#466bb0" d="M 1197.25 656.2524 L 1227.9167 656.2524 L 1208.7549 662 Z M 1197.25 654.3333 L 1208.7549 652.4142 L 1208.7549 631.3333 Z M 1210.6642 652.4142 L 1227.9167 654.3333 L 1210.6642 616 Z"/></g><g id="Group_44"><g id="Graphic_48"><path fill="#244b5a" d="M 700.2019 911.2465 C 700.6144 911.7954 701.15055 912.2393 701.76675 912.5421 C 702.4332 912.8722 703.1685 913.0391 703.91214 913.0291 C 704.5134 913.0448 705.1119 912.9428 705.674 912.7286 C 706.1235 912.552 706.5248 912.2714 706.845 911.9099 C 707.1455 911.5577 707.3649 911.1437 707.4876 910.6972 C 707.6214 910.2147 707.68766 909.716 707.68445 909.2153 L 707.68445 907.4742 L 707.6431 907.4742 C 707.2534 908.0919 706.6913 908.5819 706.02615 908.8837 C 705.392 909.1598 704.7073 909.301 704.0157 909.2982 C 703.3379 909.3033 702.6657 909.1766 702.0363 908.9252 C 701.44035 908.6886 700.8951 908.3403 700.4298 907.8991 C 699.96815 907.4559 699.6014 906.9234 699.35195 906.334 C 699.0865 905.7118 698.9524 905.0414 698.95814 904.365 C 698.9524 903.6905 699.0792 903.0214 699.33136 902.3958 C 699.5697 901.8039 699.9178 901.2624 700.3573 900.7999 C 700.7967 900.3411 701.3259 899.9777 701.9119 899.7324 C 702.5389 899.4717 703.2124 899.3412 703.8914 899.3489 C 704.2006 899.3507 704.5091 899.3784 704.81364 899.4317 C 705.1486 899.4902 705.4755 899.5876 705.78786 899.722 C 706.5294 900.0434 707.1704 900.5591 707.6431 901.2146 L 707.68445 901.2146 L 707.68445 899.5976 L 709.0526 899.5976 L 709.0526 909.2153 C 709.0479 909.7804 708.9819 910.3434 708.8556 910.8942 C 708.72356 911.4898 708.4617 912.0489 708.0888 912.5316 C 707.6644 913.0642 707.1214 913.4902 706.503 913.7755 C 705.8258 914.107 704.9414 914.2727 703.8498 914.2727 C 702.96306 914.2878 702.0822 914.1258 701.2589 913.7961 C 700.4712 913.4586 699.7646 912.957 699.1864 912.3246 Z M 700.4506 904.3237 C 700.44714 904.8176 700.5423 905.3073 700.7305 905.7641 C 700.9099 906.2024 701.16995 906.6032 701.4972 906.9455 C 701.82255 907.2848 702.20945 907.5592 702.6373 907.754 C 703.083 907.9566 703.5676 908.0591 704.0571 908.0545 C 705.0266 908.058 705.96085 907.691 706.6688 907.0286 C 707.01645 906.7005 707.2888 906.3009 707.4669 905.8573 C 707.6589 905.3696 707.7471 904.8473 707.7261 904.3237 C 707.7295 903.8324 707.6453 903.3445 707.47725 902.8829 C 707.3176 902.4442 707.0708 902.0423 706.7517 901.7015 C 706.42375 901.356 706.0288 901.081 705.591 900.8932 C 705.1063 900.6871 704.5838 900.5847 704.0571 900.5925 C 703.5676 900.588 703.083 900.6907 702.6373 900.8932 C 702.2096 901.0882 701.8227 901.3624 701.4972 901.7015 C 701.17005 902.044 700.90995 902.4447 700.7303 902.8829 C 700.54225 903.3398 700.4471 903.8296 700.4506 904.3237 Z M 714.62805 909.2982 L 713.1358 909.2982 L 713.1358 894.6229 L 717.6544 894.6229 C 719.1467 894.6229 720.3247 894.9476 721.1884 895.5971 C 722.0519 896.2467 722.4838 897.2279 722.484 898.5404 C 722.5102 899.4932 722.1645 900.4187 721.5201 901.121 C 720.87745 901.8189 719.9482 902.2231 718.73225 902.3335 L 722.9607 909.2982 L 721.1365 909.2982 L 717.1156 902.4788 L 714.6282 902.4788 Z M 714.62805 901.1107 L 717.2813 901.1107 C 717.8514 901.1227 718.4203 901.0529 718.9705 900.9034 C 719.373 900.7958 719.75 900.6091 720.0795 900.3542 C 720.3454 900.1403 720.5522 899.8621 720.6805 899.5459 C 720.8066 899.2258 720.87 898.8845 720.8671 898.5404 C 720.86865 898.2034 720.8053 897.8691 720.6805 897.556 C 720.5507 897.2377 720.3443 896.9564 720.0795 896.7372 C 719.7532 896.4772 719.3751 896.2899 718.9705 896.1878 C 718.419 896.0458 717.8507 895.9796 717.2813 895.991 L 714.62805 895.991 Z M 725.5306 894.6229 L 729.8006 894.6229 C 731.2929 894.6229 732.4709 894.9476 733.3345 895.5972 C 734.198 896.2469 734.6299 897.228 734.6301 898.5406 C 734.6301 899.8535 734.1982 900.8381 733.3345 901.4942 C 732.4709 902.1507 731.2929 902.4789 729.8006 902.4788 L 727.0231 902.4788 L 727.0231 909.2982 L 725.5306 909.2982 Z M 727.0233 901.1109 L 729.4277 901.1109 C 729.9978 901.1229 730.5667 901.053 731.117 900.9035 C 731.5194 900.7959 731.8964 900.6092 732.2259 900.3544 C 732.49175 900.1404 732.6986 899.8622 732.8269 899.546 C 732.9531 899.226 733.01645 898.8846 733.01355 898.5406 C 733.0151 898.2035 732.9518 897.8693 732.8269 897.5561 C 732.6971 897.2379 732.4907 896.9566 732.2259 896.7373 C 731.89956 896.4774 731.5215 896.2901 731.117 896.188 C 730.5654 896.046 729.9971 895.9798 729.4277 895.9912 L 727.0231 895.9912 Z M 749.6158 906.9768 C 749.3532 907.3658 749.0435 907.7209 748.6937 908.0339 C 748.315 908.3741 747.8934 908.6632 747.4396 908.8939 C 746.9551 909.1413 746.444 909.3326 745.9162 909.4641 C 745.35 909.6046 744.7685 909.6742 744.1852 909.6713 C 743.1446 909.6811 742.11245 909.4838 741.1488 909.091 C 739.31095 908.3484 737.8551 906.8888 737.1172 905.0491 C 736.72225 904.0678 736.52506 903.0182 736.5369 901.9606 C 736.5251 900.9029 736.7223 899.8533 737.1172 898.872 C 737.8551 897.0324 739.31095 895.5729 741.1488 894.8303 C 742.1124 894.4375 743.1446 894.2402 744.1852 894.2499 C 745.1231 894.255 746.05155 894.4378 746.92135 894.7887 C 747.849 895.16 748.6585 895.7761 749.2634 896.5714 L 747.9578 897.5456 C 747.7824 897.2843 747.5732 897.0473 747.3357 896.8408 C 747.0615 896.598 746.7588 896.3892 746.4344 896.2191 C 746.0877 896.0365 745.72295 895.8906 745.346 895.7838 C 744.9687 895.6747 744.578 895.6188 744.1852 895.6179 C 743.3145 895.6037 742.4513 895.7806 741.6565 896.1362 C 740.9354 896.4633 740.2897 896.9361 739.76 897.5248 C 739.2358 898.1151 738.831 898.8015 738.568 899.5459 C 738.01535 901.1082 738.01535 902.8129 738.568 904.3752 C 738.83095 905.1196 739.2358 905.8059 739.76 906.3962 C 740.2895 906.9851 740.9352 907.4579 741.6565 907.785 C 742.4513 908.1408 743.3145 908.3177 744.1852 908.3033 C 744.571 908.3035 744.95605 908.2688 745.3356 908.1996 C 745.7218 908.1286 746.09776 908.0103 746.455 907.8473 C 746.83155 907.6746 747.1807 907.4475 747.4914 907.1734 C 747.8404 906.8617 748.1439 906.5024 748.3929 906.1062 Z"/></g><g id="Graphic_47"><path fill="url(#Obj_Gradient)" d="M 697.9159 899.4277 L 694.0509 895.5913 L 697.88726 891.7263 L 701.75225 895.5627 Z"/></g><g id="Graphic_46"><path fill="url(#Obj_Gradient_2)" d="M 708.433 897.7901 L 706.166 895.5399 L 708.41624 893.2729 L 710.6833 895.5231 Z"/></g><g id="Graphic_45"><path fill="#244b5a" d="M 698.0565 893.2486 L 695.7333 895.5893 L 698.0738 897.9125 L 700.0539 897.9052 L 697.97745 895.8454 L 708.2306 895.8074 L 707.332 896.7121 L 708.322 896.7085 L 709.4837 895.5382 L 708.3134 894.3766 L 707.3233 894.3802 L 708.2287 895.2784 L 697.9756 895.3164 L 700.0365 893.2413 Z"/></g></g><g id="Line_49"><line x1="947.25" x2="1148.1" y1="643.823" y2="643.823" stroke="#000" stroke-linecap="round" stroke-linejoin="round" stroke-width="2" marker-end="url(#FilledArrow_Marker)"/></g><g id="Graphic_50"><rect width="100.368" height="28.448" x="996.149" y="629.599" fill="#fff"/><text fill="#000" transform="translate(1001.1492 634.5989)"><tspan x="0" y="15" fill="#000" font-family="Helvetica Neue" font-size="16" xml:space="preserve">xDS (secure)</tspan></text></g><g id="Line_51"><line x1="712.083" x2="712.083" y1="869" y2="695.223" stroke="#000" stroke-linecap="round" stroke-linejoin="round" stroke-width="2" marker-end="url(#FilledArrow_Marker)"/></g><g id="Graphic_52"><path fill="#fff" d="M 826 756.6472 C 826 747.822 824.9713 746.73015 817.4569 737.9963 L 817.37755 737.9059 C 809.8235 729.0807 809.7449 729.0807 801.9924 729.0807 C 791.6698 729.0807 745 729.0807 745 729.0807 L 745 822.2422 L 826 822.2422 L 826 756.6472 Z"/><path stroke="#000" stroke-linecap="round" stroke-linejoin="round" stroke-width="1" d="M 826 756.6472 C 826 747.822 824.9713 746.73015 817.4569 737.9963 L 817.37755 737.9059 C 809.8235 729.0807 809.7449 729.0807 801.9924 729.0807 C 791.6698 729.0807 745 729.0807 745 729.0807 L 745 822.2422 L 826 822.2422 L 826 756.6472 Z M 826 756.1926 C 826 747.822 825.9206 747.822 809.7449 747.822 L 809.7449 747.822 C 809.7449 729.172 809.7449 729.0807 802.4671 729.0807"/><text fill="#000" transform="translate(750 766.4374)"><tspan x="16.244" y="15" fill="#000" font-family="Helvetica Neue" font-size="16" xml:space="preserve">Certs</tspan></text></g><g id="Graphic_53"><path fill="#fff" d="M 937 756.6472 C 937 747.822 935.9713 746.73015 928.4569 737.9963 L 928.3776 737.9059 C 920.8235 729.0807 920.7449 729.0807 912.9924 729.0807 C 902.6698 729.0807 856 729.0807 856 729.0807 L 856 822.2422 L 937 822.2422 L 937 756.6472 Z"/><path stroke="#000" stroke-linecap="round" stroke-linejoin="round" stroke-width="1" d="M 937 756.6472 C 937 747.822 935.9713 746.73015 928.4569 737.9963 L 928.3776 737.9059 C 920.8235 729.0807 920.7449 729.0807 912.9924 729.0807 C 902.6698 729.0807 856 729.0807 856 729.0807 L 856 822.2422 L 937 822.2422 L 937 756.6472 Z M 937 756.1926 C 937 747.822 936.9206 747.822 920.7449 747.822 L 920.7449 747.822 C 920.7449 729.172 920.7449 729.0807 913.4671 729.0807"/><text fill="#000" transform="translate(861 747.9894)"><tspan x="14.468" y="15" fill="#000" font-family="Helvetica Neue" font-size="16" xml:space="preserve">gRPC</tspan> <tspan x="20.54" y="33.448" fill="#000" font-family="Helvetica Neue" font-size="16" xml:space="preserve">xDS</tspan> <tspan x=".092" y="51.896" fill="#000" font-family="Helvetica Neue" font-size="16" xml:space="preserve">Bootstrap</tspan></text></g><g id="Line_54"><line x1="785.5" x2="785.5" y1="682.323" y2="716.181" stroke="#000" stroke-linecap="round" stroke-linejoin="round" stroke-width="2" marker-end="url(#FilledArrow_Marker)"/></g><g id="Line_55"><path stroke="#000" stroke-linecap="round" stroke-linejoin="round" stroke-width="2" marker-end="url(#FilledArrow_Marker)" d="M 785.5 822.2422 L 785.5 833.2422 L 785.3393 856.1003"/></g><g id="Line_56"><line x1="896.5" x2="896.5" y1="822.242" y2="856.1" stroke="#000" stroke-linecap="round" stroke-linejoin="round" stroke-width="2" marker-end="url(#FilledArrow_Marker)"/></g><g id="Line_57"><line x1="896.5" x2="896.5" y1="682.323" y2="716.181" stroke="#000" stroke-linecap="round" stroke-linejoin="round" stroke-width="2" marker-end="url(#FilledArrow_Marker)"/></g><g id="Graphic_58"><rect width="51.472" height="46.896" x="686.347" y="749.8" fill="#f3f3f2"/><text fill="#000" transform="translate(691.3473 754.7999)"><tspan x="5.776" y="15" fill="#000" font-family="Helvetica Neue" font-size="16" xml:space="preserve">xDS</tspan> <tspan x="0" y="33.448" fill="#000" font-family="Helvetica Neue" font-size="16" xml:space="preserve">(UDS)</tspan></text></g></g></g></svg>