<svg xmlns="http://www.w3.org/2000/svg" width="617" height="432" viewBox="229 164 617 432"><defs><marker id="a" stroke-linejoin="miter" stroke-miterlimit="10" color="#000" markerHeight="6" markerUnits="strokeWidth" markerWidth="7" orient="auto" overflow="visible" viewBox="-1 -3 7 6"><path fill="currentColor" stroke="currentColor" d="M4.8 0 0-1.8v3.6Z"/></marker></defs><g fill="none"><path fill="#fff" d="M229 164h617v432H229z"/><path stroke="gray" stroke-dasharray="4 4" stroke-linecap="round" stroke-linejoin="round" d="M653.292 330h148.416a8 8 0 0 1 8 8v231a8 8 0 0 1-8 8H653.292a8 8 0 0 1-8-8V338a8 8 0 0 1 8-8"/><text fill="#000" transform="translate(650.292 552.536)"><tspan x="48.904" y="16" font-family="Helvetica Neue" font-size="16" font-weight="bold">Service</tspan></text><path fill="#0a55a8" d="M257.5 416h107a8 8 0 0 1 8 8v38a8 8 0 0 1-8 8h-107a8 8 0 0 1-8-8v-38a8 8 0 0 1 8-8"/><text fill="#fff" transform="translate(254.5 433.268)"><tspan x="34.292" y="16" font-family="Helvetica Neue" font-size="16" font-weight="bold">Client</tspan></text><path fill="#0a55a8" d="M674 490h107a8 8 0 0 1 8 8v38a8 8 0 0 1-8 8H674a8 8 0 0 1-8-8v-38a8 8 0 0 1 8-8"/><text fill="#fff" transform="translate(671 507.268)"><tspan x="15.612" y="16" font-family="Helvetica Neue" font-size="16" font-weight="bold">Instance C</tspan></text><path fill="#0a55a8" d="M674 416h107a8 8 0 0 1 8 8v38a8 8 0 0 1-8 8H674a8 8 0 0 1-8-8v-38a8 8 0 0 1 8-8"/><text fill="#fff" transform="translate(671 433.268)"><tspan x="15.908" y="16" font-family="Helvetica Neue" font-size="16" font-weight="bold">Instance B</tspan></text><path fill="#0a55a8" d="M674 342h107a8 8 0 0 1 8 8v38a8 8 0 0 1-8 8H674a8 8 0 0 1-8-8v-38a8 8 0 0 1 8-8"/><text fill="#fff" transform="translate(671 359.268)"><tspan x="16.06" y="16" font-family="Helvetica Neue" font-size="16" font-weight="bold">Instance A</tspan></text><path fill="#0a55a8" d="M416 234.5v-52c0-3.588 29.12-6.5 65-6.5s65 2.912 65 6.5v52c0 3.588-29.12 6.5-65 6.5s-65-2.912-65-6.5"/><path stroke="#fff" stroke-linecap="round" stroke-linejoin="round" d="M416 234.5v-52c0-3.588 29.12-6.5 65-6.5s65 2.912 65 6.5v52c0 3.588-29.12 6.5-65 6.5s-65-2.912-65-6.5m0-52c0 3.588 29.12 6.5 65 6.5s65-2.912 65-6.5"/><text fill="#fff" transform="translate(421 192.286)"><tspan x="31.696" y="16" font-family="Helvetica Neue" font-size="16" font-weight="bold">Service </tspan> <tspan x="28.304" y="35.464" font-family="Helvetica Neue" font-size="16" font-weight="bold">Registry</tspan></text><path stroke="#000" stroke-linecap="round" stroke-linejoin="round" stroke-width="2" marker-end="url(#a)" d="M291.57 416c-3.245-14.483-.193-35.382 20.61-64.077 26.629-36.733 75.422-76.692 113.728-105.08"/><path fill="#fff" d="M267.36 295.475h164.416v29.464H267.36z"/><text fill="#000" transform="translate(272.36 300.475)"><tspan x="0" y="16" font-family="Helvetica Neue" font-size="16" font-weight="bold">2. Service Discovery</tspan></text><path stroke="#000" stroke-linecap="round" stroke-linejoin="round" stroke-width="2" marker-end="url(#a)" d="M744.033 330c-4.711-20.225-14.398-40.214-31.854-57.564-37.708-37.48-102.098-53.125-153.36-59.588"/><path fill="#fff" d="M607.444 236.1h153.12v29.464h-153.12z"/><text fill="#000" transform="translate(612.444 241.1)"><tspan x="0" y="16" font-family="Helvetica Neue" font-size="16" font-weight="bold">1. Service Register</tspan></text><path stroke="#000" stroke-linecap="round" stroke-linejoin="round" stroke-width="2" marker-end="url(#a)" d="M371.65 420.407c36.087-11.95 86.009-26.22 143.49-36.433 52.846-9.389 100.953-13.372 137.965-14.907"/><path stroke="#000" stroke-linecap="round" stroke-linejoin="round" stroke-width="2" marker-end="url(#a)" d="M372.5 443h280.6"/><path stroke="#000" stroke-linecap="round" stroke-linejoin="round" stroke-width="2" marker-end="url(#a)" d="M371.167 466.424c24.752 7.518 57.997 15.888 101.269 23.576 62.648 11.13 130.673 18.053 180.704 22.098"/><path fill="#fff" d="M452 404h146.288v29.464H452z"/><text fill="#000" transform="translate(457 409)"><tspan x="0" y="16" font-family="Helvetica Neue" font-size="16" font-weight="bold">3. Load Balancing</tspan></text></g></svg>