<svg xmlns="http://www.w3.org/2000/svg" xmlns:xl="http://www.w3.org/1999/xlink" width="937" height="729" viewBox="-129 -107 937 729"><defs><linearGradient id="a" x1="0" x2="1" gradientUnits="userSpaceOnUse"><stop offset="0" stop-color="#4387fd"/><stop offset="1" stop-color="#4683ea"/></linearGradient><linearGradient xl:href="#a" id="c" gradientTransform="translate(-59.764 -35.462)scale(39.68504)"/><linearGradient xl:href="#a" id="d" gradientTransform="translate(396.319 -35.462)scale(39.68504)"/><linearGradient xl:href="#a" id="e" gradientTransform="translate(396.319 329.264)scale(39.68504)"/><marker id="b" stroke-linejoin="miter" stroke-miterlimit="10" color="#000" markerHeight="6" markerUnits="strokeWidth" markerWidth="7" orient="auto" overflow="visible" viewBox="-1 -3 7 6"><path fill="currentColor" stroke="currentColor" d="M4.8 0 0-1.8v3.6Z"/></marker></defs><g fill="none"><path fill="#fff" d="M-129-107h937v729h-937z"/><path stroke="gray" stroke-dasharray="1 4" stroke-linecap="round" stroke-linejoin="round" d="M-107.953-91h423.78v338.348h-423.78Z"/><text fill="#a5a5a5" transform="translate(-102.953 222.884)"><tspan x="157.122" y="16" font-family="Helvetica Neue" font-size="16" font-weight="bold">Tier 1 cluster</tspan></text><path stroke="gray" stroke-dasharray="1 4" stroke-linecap="round" stroke-linejoin="round" d="M351.79-91h423.78v697.323H351.79Z"/><text fill="#a5a5a5" transform="translate(356.79 581.859)"><tspan x="152.826" y="16" font-family="Helvetica Neue" font-size="16" font-weight="bold">Tier 2 clusters</tspan></text><path fill="#ccc" d="M-60.268-58.99h324.157a8 8 0 0 1 8 8v247.623a8 8 0 0 1-8 8H-60.268a8 8 0 0 1-8-8V-50.99a8 8 0 0 1 8-8"/><text fill="#000" transform="translate(-63.268 -53.99)"><tspan x="74.231" y="16" font-family="Helvetica Neue" font-size="16">gke-jimmy-us-central1-1</tspan></text><path fill="#ccc" d="M398.945-58.99h324.157a8 8 0 0 1 8 8v247.623a8 8 0 0 1-8 8H398.945a8 8 0 0 1-8-8V-50.99a8 8 0 0 1 8-8"/><text fill="#000" transform="translate(395.945 -53.99)"><tspan x="82.087" y="16" font-family="Helvetica Neue" font-size="16">gke-jimmy-us-west1-1</tspan></text><path fill="#ccc" d="M398.945 302.583h324.157a8 8 0 0 1 8 8v247.622a8 8 0 0 1-8 8H398.945a8 8 0 0 1-8-8V310.583a8 8 0 0 1 8-8"/><text fill="#000" transform="translate(395.945 307.583)"><tspan x="82.087" y="16" font-family="Helvetica Neue" font-size="16">gke-jimmy-us-west1-2</tspan></text><path fill="#fff" d="M-9.263-5.514h226.399a8 8 0 0 1 8 8v164a8 8 0 0 1-8 8H-9.263a8 8 0 0 1-8-8v-164a8 8 0 0 1 8-8"/><path stroke="gray" stroke-linecap="round" stroke-linejoin="round" d="M-9.263-5.514h226.399a8 8 0 0 1 8 8v164a8 8 0 0 1-8 8H-9.263a8 8 0 0 1-8-8v-164a8 8 0 0 1 8-8"/><text fill="#000" transform="translate(-12.263 4.486)"><tspan x="53.223" y="15" font-family="Helvetica Neue" font-size="16">Namespace: tier1</tspan></text><path fill="#fff" d="M447.824-5.514h226.399a8 8 0 0 1 8 8v164a8 8 0 0 1-8 8h-226.4a8 8 0 0 1-8-8v-164a8 8 0 0 1 8-8"/><path stroke="gray" stroke-linecap="round" stroke-linejoin="round" d="M447.824-5.514h226.399a8 8 0 0 1 8 8v164a8 8 0 0 1-8 8h-226.4a8 8 0 0 1-8-8v-164a8 8 0 0 1 8-8"/><text fill="#000" transform="translate(444.824 4.486)"><tspan x="4.615" y="15" font-family="Helvetica Neue" font-size="16">Namespace: bookinfo-frontend</tspan></text><path fill="#fff" d="M453.139 344.394h221.084a8 8 0 0 1 8 8v164a8 8 0 0 1-8 8H453.139a8 8 0 0 1-8-8v-164a8 8 0 0 1 8-8"/><path stroke="gray" stroke-linecap="round" stroke-linejoin="round" d="M453.139 344.394h221.084a8 8 0 0 1 8 8v164a8 8 0 0 1-8 8H453.139a8 8 0 0 1-8-8v-164a8 8 0 0 1 8-8"/><text fill="#000" transform="translate(450.139 354.394)"><tspan x=".918" y="15" font-family="Helvetica Neue" font-size="16">Namespace: bookinfo-backend</tspan></text><path fill="#333" d="M564.771 70.84h81.796a8 8 0 0 1 8 8v23.686a8 8 0 0 1-8 8H564.77a8 8 0 0 1-8-8V78.84a8 8 0 0 1 8-8"/><text fill="#fff" transform="translate(561.771 81.98)"><tspan x="2.402" y="14" font-family="Helvetica Neue" font-size="14">productpage</tspan></text><path fill="#333" d="M559.922 395.384h57.087a8 8 0 0 1 8 8v11.655a8 8 0 0 1-8 8h-57.087a8 8 0 0 1-8-8v-11.655a8 8 0 0 1 8-8"/><text fill="#fff" transform="translate(556.922 403.066)"><tspan x="1.904" y="10" font-family="Helvetica Neue" font-size="10">productpage</tspan></text><path fill="#333" d="M480.717 474.062h40.77a8 8 0 0 1 8 8v11.655a8 8 0 0 1-8 8h-40.77a8 8 0 0 1-8-8v-11.655a8 8 0 0 1 8-8"/><text fill="#fff" transform="translate(477.717 481.745)"><tspan x="5.87" y="10" font-family="Helvetica Neue" font-size="10">reviews</tspan></text><path fill="#333" d="M554.496 474.062h40.77a8 8 0 0 1 8 8v11.655a8 8 0 0 1-8 8h-40.77a8 8 0 0 1-8-8v-11.655a8 8 0 0 1 8-8"/><text fill="#fff" transform="translate(551.496 481.745)"><tspan x="8.1" y="10" font-family="Helvetica Neue" font-size="10">details</tspan></text><path fill="#333" d="M480.717 395.384h40.77a8 8 0 0 1 8 8v11.655a8 8 0 0 1-8 8h-40.77a8 8 0 0 1-8-8v-11.655a8 8 0 0 1 8-8"/><text fill="#fff" transform="translate(477.717 403.066)"><tspan x="7.545" y="10" font-family="Helvetica Neue" font-size="10">ratings</tspan></text><path fill="#f15623" d="M624.274 462.032h31.685a4 4 0 0 1 4 4v31.685a4 4 0 0 1-4 4h-31.685a4 4 0 0 1-4-4v-31.685a4 4 0 0 1 4-4"/><path fill="#fff" d="M637.204 496.864c-2.373-2.382-2.722-2.76-2.763-2.987-.14-.79.523-1.423 1.332-1.27.22.04.483.27 1.702 1.48l1.443 1.432v-16.6l-4.1 4.1-4.1 4.099 1.963.035c1.923.034 1.969.038 2.232.202.283.175.527.597.527.91 0 .312-.244.734-.527.91l-.269.167H627v-3.87c0-3.798.003-3.872.144-4.06.27-.361.495-.478.921-.478.297 0 .448.038.612.155.423.301.443.42.443 2.6v1.97l4.899-4.9 4.899-4.898v-5.112l-.296-.128c-.572-.247-1.22-.826-1.562-1.396-.462-.77-.573-1.93-.268-2.795.69-1.954 2.98-2.85 4.795-1.876.462.249 1.17.958 1.393 1.399.853 1.685.229 3.685-1.422 4.553l-.486.255v5.1l5.003 5.003 5.003 5.003v-2.075c0-1.985.006-2.087.147-2.337.293-.52.991-.712 1.457-.398.129.087.305.264.393.393l.158.236-.018 3.828-.018 3.828-3.578.02c-1.969.011-3.714 0-3.88-.023a1.04 1.04 0 0 1-.572-.288c-.603-.545-.484-1.276.3-1.841.01-.007.87-.03 1.911-.052l1.894-.04-4.1-4.1-4.1-4.1v16.537l1.372-1.368c.755-.753 1.46-1.401 1.568-1.441a1.09 1.09 0 0 1 1.281.413c.192.282.214.854.043 1.114-.123.185-5.316 5.418-5.378 5.418-.02 0-1.26-1.227-2.754-2.727"/><path fill="#f15623" d="M476.717 70.84h31.685a4 4 0 0 1 4 4v31.686a4 4 0 0 1-4 4h-31.685a4 4 0 0 1-4-4V74.84a4 4 0 0 1 4-4"/><path fill="#fff" d="M489.647 105.672c-2.373-2.382-2.723-2.76-2.763-2.987-.14-.789.523-1.422 1.332-1.27.22.041.483.27 1.702 1.48l1.442 1.432v-16.6l-4.1 4.1-4.1 4.1 1.963.034c1.924.034 1.97.038 2.233.202.283.176.527.598.527.91s-.244.734-.527.91l-.27.167h-7.643v-3.869c0-3.799.003-3.872.143-4.06.27-.362.496-.479.922-.479.297 0 .448.039.612.155.422.302.443.42.443 2.6v1.97l4.898-4.899 4.9-4.898v-5.113l-.296-.127c-.572-.247-1.22-.827-1.562-1.397-.462-.77-.573-1.93-.268-2.794.69-1.954 2.98-2.85 4.794-1.876.463.248 1.17.958 1.393 1.398.854 1.685.23 3.686-1.421 4.553l-.487.256v5.1l5.004 5.003 5.003 5.002V92.6c0-1.984.006-2.086.147-2.336.293-.521.991-.712 1.456-.399.13.087.306.264.393.394l.159.235-.018 3.828-.018 3.828-3.579.02c-1.968.012-3.713.001-3.879-.022-.208-.03-.384-.118-.573-.288-.603-.545-.483-1.276.3-1.842.01-.006.87-.03 1.912-.052l1.894-.04-4.1-4.099-4.1-4.1v16.537l1.372-1.369c.755-.752 1.46-1.4 1.568-1.44a1.09 1.09 0 0 1 1.28.413c.193.282.215.854.044 1.113-.123.186-5.317 5.419-5.378 5.419-.02 0-1.26-1.228-2.754-2.728"/><path stroke="#000" stroke-linecap="round" stroke-linejoin="round" stroke-width="2" marker-end="url(#b)" d="M512.402 90.683h31.469"/><path stroke="#000" stroke-linecap="round" stroke-linejoin="round" stroke-width="2" marker-end="url(#b)" d="M642.98 462.032c-.826-5.355-3.001-11.468-7.585-17.915-3.402-4.787-7.76-9.235-12.444-13.243"/><path stroke="#000" stroke-linecap="round" stroke-linejoin="round" stroke-width="2" marker-end="url(#b)" d="M597.821 423.039c3.964 7.713 7.29 17.904 5.445 28.592-.741 4.297-2.252 8.284-4.207 11.922"/><path stroke="#000" stroke-linecap="round" stroke-linejoin="round" stroke-width="2" marker-end="url(#b)" d="M596.304 423.039c1.099 6.76-.969 15.563-11.9 25.408-10.753 9.683-27.883 18.396-43.82 25.155"/><path stroke="#000" stroke-linecap="round" stroke-linejoin="round" stroke-width="2" marker-end="url(#b)" d="M501.102 474.062v-38.123"/><path fill="#000" d="M-39.933 303.588v37.921c0 2.98 2.41 5.418 5.417 5.418H3.406c2.98 0 5.417-2.438 5.417-5.418v-37.921c0-2.98-2.438-5.417-5.417-5.417h-37.922a5.416 5.416 0 0 0-5.417 5.417m32.504 10.835a8.115 8.115 0 0 1-8.126 8.126 8.115 8.115 0 0 1-8.126-8.126 8.115 8.115 0 0 1 8.126-8.126 8.115 8.115 0 0 1 8.126 8.126m-24.378 21.669c0-5.417 10.835-8.397 16.252-8.397s16.252 2.98 16.252 8.397v2.709h-32.504z"/><path stroke="#000" stroke-linecap="round" stroke-linejoin="round" stroke-width="2" marker-end="url(#b)" d="M-6.824 298.17c6.363-15.919 16.857-39.8 33.517-72.128 19.759-38.341 42.768-78.039 58.501-104.448"/><path fill="url(#c)" d="m-51.148-19.582-8.139-14.097a3.57 3.57 0 0 1 0-3.565l8.139-14.098a3.57 3.57 0 0 1 3.088-1.783h16.277c1.274 0 2.45.68 3.088 1.783l8.138 14.098a3.57 3.57 0 0 1 0 3.565l-8.138 14.097a3.57 3.57 0 0 1-3.088 1.783H-48.06c-1.274 0-2.45-.68-3.088-1.783"/><path fill="#fff" d="m-32.161-40.425-7.34-4.238a.84.84 0 0 0-.838 0l-7.34 4.238a.84.84 0 0 0-.418.725v8.476c0 .299.159.575.418.725l7.34 4.238c.26.15.578.15.837 0l7.34-4.238a.84.84 0 0 0 .419-.725V-39.7a.84.84 0 0 0-.418-.725m-1.007 8.39-2.561-1.479v-3.895l-3.782 2.183v4.369l3.373-1.948 2.56 1.479-6.342 3.662-6.344-3.662 2.561-1.479 3.374 1.948v-4.369l-3.782-2.183v3.895l-2.561 1.479v-7.324l6.343-3.663v2.958l-3.373 1.947 3.782 2.183 3.781-2.183-3.372-1.947v-2.958l6.343 3.663z"/><path fill="url(#d)" d="m404.935-19.582-8.138-14.097a3.57 3.57 0 0 1 0-3.565l8.138-14.098a3.57 3.57 0 0 1 3.088-1.783H424.3c1.274 0 2.45.68 3.088 1.783l8.138 14.098a3.57 3.57 0 0 1 0 3.565l-8.138 14.097a3.57 3.57 0 0 1-3.088 1.783h-16.277c-1.274 0-2.45-.68-3.087-1.783"/><path fill="#fff" d="m423.922-40.425-7.34-4.238a.84.84 0 0 0-.837 0l-7.341 4.238a.84.84 0 0 0-.418.725v8.476c0 .299.16.575.418.725l7.34 4.238c.26.15.578.15.837 0l7.34-4.238a.84.84 0 0 0 .42-.725V-39.7a.84.84 0 0 0-.42-.725m-1.006 8.39-2.561-1.479v-3.895l-3.782 2.183v4.369l3.373-1.948 2.56 1.479-6.342 3.662-6.343-3.662 2.56-1.479 3.374 1.948v-4.369l-3.782-2.183v3.895l-2.561 1.479v-7.324l6.343-3.663v2.958l-3.373 1.947 3.782 2.183 3.782-2.183-3.373-1.947v-2.958l6.343 3.663z"/><path fill="url(#e)" d="m404.935 345.144-8.138-14.097a3.57 3.57 0 0 1 0-3.566l8.138-14.097a3.57 3.57 0 0 1 3.088-1.783H424.3c1.274 0 2.45.68 3.088 1.783l8.138 14.097a3.57 3.57 0 0 1 0 3.566l-8.138 14.097a3.57 3.57 0 0 1-3.088 1.783h-16.277c-1.274 0-2.45-.68-3.087-1.783"/><path fill="#fff" d="m423.922 324.301-7.34-4.238a.84.84 0 0 0-.837 0l-7.341 4.238a.84.84 0 0 0-.418.725v8.476c0 .299.16.575.418.724l7.34 4.239c.26.15.578.15.837 0l7.34-4.239a.84.84 0 0 0 .42-.724v-8.476a.84.84 0 0 0-.42-.725m-1.006 8.39-2.561-1.479v-3.895l-3.782 2.183v4.368l3.373-1.947 2.56 1.478-6.342 3.663-6.343-3.663 2.56-1.478 3.374 1.947V329.5l-3.782-2.183v3.895l-2.561 1.479v-7.325l6.343-3.662v2.957l-3.373 1.948 3.782 2.182 3.782-2.182-3.373-1.948v-2.957l6.343 3.662z"/><path stroke="#000" stroke-linecap="round" stroke-linejoin="round" stroke-width="2" marker-end="url(#b)" d="M118.002 110.526c7.502 16.685 18.73 46.843 35.3 101.055 41.175 134.718-41.942 278.049 95.976 354.624 108.433 60.206 287.957-26.387 359.757-66.162"/><path fill="#fff" d="M-6.342 385.169h342.528v42.784H-6.342z"/><text fill="#000" transform="translate(-1.342 390.17)"><tspan x="55.146" y="13" font-family="Helvetica Neue" font-size="14">1.2 bookinfo.tetrate.io/productpage</tspan> <tspan x="0" y="29.392" font-family="Helvetica Neue" font-size="14">and X-CLUSTER-SELECTOR=gke-jimmy-us-west1-2</tspan></text><path fill="#fff" d="M235.039 211.581h568.656v26.392H235.039z"/><text fill="#000" transform="translate(240.039 216.58)"><tspan x="0" y="13" font-family="Helvetica Neue" font-size="14">1.1 bookinfo.tetrate.io/productpage and X-CLUSTER-SELECTOR=gke-jimmy-us-west1-1</tspan></text><text fill="#000" transform="translate(-37.78 351.927)"><tspan x="0" y="16" font-family="Helvetica Neue" font-size="16" font-weight="bold">Users</tspan></text><path fill="#fff" d="M-124 252.427h262.574v26.392H-124z"/><text fill="#000" transform="translate(-119 257.427)"><tspan x="0" y="13" font-family="Helvetica Neue" font-size="14">1. http://bookinfo.tetrate.io/productpage</tspan></text><path stroke="#000" stroke-linecap="round" stroke-linejoin="round" d="M231.218 56.487h33.408v68.392h-33.408z"/><text fill="#000" transform="translate(236.218 61.487)"><tspan x="1.472" y="16" font-family="Helvetica Neue" font-size="16" font-weight="bold">VS</tspan> <tspan x="0" y="35.464" font-family="Helvetica Neue" font-size="16" font-weight="bold">DR</tspan> <tspan x="1.328" y="54.928" font-family="Helvetica Neue" font-size="16" font-weight="bold">SE</tspan></text><path fill="#466bb0" d="M-56.499 191.652h33.154l-20.716 6.214Zm0-2.074 12.438-2.075v-22.79Zm14.503-2.075 18.651 2.075-18.651-41.443Zm441.581 4.149h33.154l-20.716 6.214Zm0-2.074 12.438-2.075v-22.79Zm14.502-2.075 18.652 2.075-18.652-41.443Zm-14.502 362.732h33.154l-20.716 6.214Zm0-2.075 12.438-2.074v-22.791Zm14.502-2.074 18.652 2.074-18.652-41.442Z"/><path stroke="#000" stroke-linecap="round" stroke-linejoin="round" d="M689.308 64.463h33.408v68.392h-33.408z"/><text fill="#000" transform="translate(694.308 69.463)"><tspan x="1.472" y="16" font-family="Helvetica Neue" font-size="16" font-weight="bold">VS</tspan> <tspan x="0" y="35.464" font-family="Helvetica Neue" font-size="16" font-weight="bold">DR</tspan> <tspan x="1.328" y="54.928" font-family="Helvetica Neue" font-size="16" font-weight="bold">SE</tspan></text><path stroke="#000" stroke-linecap="round" stroke-linejoin="round" d="M689.308 380.933h33.408v68.392h-33.408z"/><text fill="#000" transform="translate(694.308 385.933)"><tspan x="1.472" y="16" font-family="Helvetica Neue" font-size="16" font-weight="bold">VS</tspan> <tspan x="0" y="35.464" font-family="Helvetica Neue" font-size="16" font-weight="bold">DR</tspan> <tspan x="1.328" y="54.928" font-family="Helvetica Neue" font-size="16" font-weight="bold">SE</tspan></text><path fill="#f15623" d="M88.094 70.84h31.685a4 4 0 0 1 4 4v31.686a4 4 0 0 1-4 4H88.094a4 4 0 0 1-4-4V74.84a4 4 0 0 1 4-4"/><path fill="#fff" d="M101.024 105.672c-2.373-2.382-2.723-2.76-2.763-2.987-.14-.789.523-1.422 1.332-1.27.22.041.483.27 1.702 1.48l1.442 1.432v-16.6l-4.1 4.1-4.1 4.1 1.963.034c1.924.034 1.97.038 2.233.202.283.176.527.598.527.91s-.244.734-.527.91l-.27.167H90.82v-3.869c0-3.799.003-3.872.143-4.06.27-.362.496-.479.922-.479.297 0 .448.039.612.155.422.302.443.42.443 2.6v1.97l4.898-4.899 4.9-4.898v-5.113l-.296-.127c-.572-.247-1.22-.827-1.562-1.397-.462-.77-.573-1.93-.268-2.794.69-1.954 2.98-2.85 4.795-1.876.462.248 1.17.958 1.392 1.398.854 1.685.23 3.686-1.42 4.553l-.488.256v5.1l5.004 5.003 5.003 5.002V92.6c0-1.984.006-2.086.147-2.336.293-.521.991-.712 1.456-.399.13.087.306.264.393.394l.159.235-.018 3.828-.018 3.828-3.579.02c-1.968.012-3.713.001-3.879-.022a1.04 1.04 0 0 1-.572-.288c-.604-.545-.484-1.276.3-1.842.01-.006.87-.03 1.91-.052l1.895-.04-4.1-4.099-4.1-4.1v16.537l1.372-1.369c.755-.752 1.46-1.4 1.568-1.44a1.09 1.09 0 0 1 1.28.413c.193.282.215.854.044 1.113-.123.186-5.317 5.419-5.378 5.419-.02 0-1.26-1.228-2.754-2.728"/><text fill="#000" transform="translate(69.713 180.169)"><tspan x="0" y="16" font-family="Helvetica Neue" font-size="16" font-weight="bold">Cluster 0</tspan></text><text fill="#000" transform="translate(526.8 180.169)"><tspan x="0" y="16" font-family="Helvetica Neue" font-size="16" font-weight="bold">Cluster 1</tspan></text><text fill="#000" transform="translate(526.8 541.741)"><tspan x="0" y="16" font-family="Helvetica Neue" font-size="16" font-weight="bold">Cluster 2</tspan></text><path stroke="#000" stroke-linecap="round" stroke-linejoin="round" stroke-width="2" marker-end="url(#b)" d="M115.977 110.526a1478 1478 0 0 0 7.802 7.616c60.03 58.188 87.57 185.712 192.047 177.933 78.056-5.812 138.127-117.584 163.518-173.744"/><path fill="#fff" d="M268.956 249.703h232.236v26.392H268.956z"/><text fill="#000" transform="translate(273.956 254.703)"><tspan x="0" y="13" font-family="Helvetica Neue" font-size="14">1.3 bookinfo.tetrate.io/productpage</tspan></text></g></svg>