<svg xmlns="http://www.w3.org/2000/svg" xmlns:xl="http://www.w3.org/1999/xlink" width="937" height="728" viewBox="-312 -225 937 728"><defs><linearGradient id="a" x1="0" x2="1" gradientUnits="userSpaceOnUse"><stop offset="0" stop-color="#4387fd"/><stop offset="1" stop-color="#4683ea"/></linearGradient><linearGradient xl:href="#a" id="b" gradientTransform="translate(-242.764 -154.123)scale(39.68504)"/><linearGradient xl:href="#a" id="c" gradientTransform="translate(213.319 -154.123)scale(39.68504)"/><linearGradient xl:href="#a" id="d" gradientTransform="translate(213.319 210.602)scale(39.68504)"/></defs><g fill="none"><path fill="#fff" d="M-312-225h937v728h-937z"/><path stroke="gray" stroke-dasharray="1 4" stroke-linecap="round" stroke-linejoin="round" d="M-290.953-209.661h423.78v338.347h-423.78Z"/><text fill="#a5a5a5" transform="translate(-285.953 104.222)"><tspan x="157.122" y="16" font-family="Helvetica Neue" font-size="16" font-weight="bold">Tier 1 cluster</tspan></text><path stroke="gray" stroke-dasharray="1 4" stroke-linecap="round" stroke-linejoin="round" d="M168.791-209.661h423.78V487.66H168.79Z"/><text fill="#a5a5a5" transform="translate(173.791 463.197)"><tspan x="152.826" y="16" font-family="Helvetica Neue" font-size="16" font-weight="bold">Tier 2 clusters</tspan></text><path fill="#ccc" d="M-243.268-177.65H80.889a8 8 0 0 1 8 8V77.97a8 8 0 0 1-8 8h-324.157a8 8 0 0 1-8-8v-247.62a8 8 0 0 1 8-8"/><text fill="#000" transform="translate(-246.268 -172.65)"><tspan x="74.231" y="16" font-family="Helvetica Neue" font-size="16">gke-jimmy-us-central1-1</tspan></text><path fill="#ccc" d="M215.945-177.65h324.157a8 8 0 0 1 8 8V77.97a8 8 0 0 1-8 8H215.945a8 8 0 0 1-8-8v-247.62a8 8 0 0 1 8-8"/><text fill="#000" transform="translate(212.945 -172.65)"><tspan x="82.087" y="16" font-family="Helvetica Neue" font-size="16">gke-jimmy-us-west1-1</tspan></text><path fill="#ccc" d="M215.945 183.922h324.157a8 8 0 0 1 8 8v247.622a8 8 0 0 1-8 8H215.945a8 8 0 0 1-8-8V191.922a8 8 0 0 1 8-8"/><text fill="#000" transform="translate(212.945 188.922)"><tspan x="82.087" y="16" font-family="Helvetica Neue" font-size="16">gke-jimmy-us-west1-2</tspan></text><path fill="#fff" d="M-192.263-124.176H34.136a8 8 0 0 1 8 8v164a8 8 0 0 1-8 8h-226.399a8 8 0 0 1-8-8v-164a8 8 0 0 1 8-8"/><path stroke="gray" stroke-linecap="round" stroke-linejoin="round" d="M-192.263-124.176H34.136a8 8 0 0 1 8 8v164a8 8 0 0 1-8 8h-226.399a8 8 0 0 1-8-8v-164a8 8 0 0 1 8-8"/><text fill="#000" transform="translate(-195.263 -114.176)"><tspan x="53.223" y="15" font-family="Helvetica Neue" font-size="16">Namespace: tier1</tspan></text><path fill="#fff" d="M264.824-124.176h226.399a8 8 0 0 1 8 8v164a8 8 0 0 1-8 8h-226.4a8 8 0 0 1-8-8v-164a8 8 0 0 1 8-8"/><path stroke="gray" stroke-linecap="round" stroke-linejoin="round" d="M264.824-124.176h226.399a8 8 0 0 1 8 8v164a8 8 0 0 1-8 8h-226.4a8 8 0 0 1-8-8v-164a8 8 0 0 1 8-8"/><text fill="#000" transform="translate(261.824 -114.176)"><tspan x="4.615" y="15" font-family="Helvetica Neue" font-size="16">Namespace: bookinfo-frontend</tspan></text><path fill="#fff" d="M270.139 225.733h221.084a8 8 0 0 1 8 8v164a8 8 0 0 1-8 8H270.139a8 8 0 0 1-8-8v-164a8 8 0 0 1 8-8"/><path stroke="gray" stroke-linecap="round" stroke-linejoin="round" d="M270.139 225.733h221.084a8 8 0 0 1 8 8v164a8 8 0 0 1-8 8H270.139a8 8 0 0 1-8-8v-164a8 8 0 0 1 8-8"/><text fill="#000" transform="translate(267.139 235.733)"><tspan x=".918" y="15" font-family="Helvetica Neue" font-size="16">Namespace: bookinfo-backend</tspan></text><path fill="#333" d="M381.771-47.82h81.796a8 8 0 0 1 8 8v23.684a8 8 0 0 1-8 8H381.77a8 8 0 0 1-8-8V-39.82a8 8 0 0 1 8-8"/><text fill="#fff" transform="translate(378.771 -36.681)"><tspan x="2.402" y="14" font-family="Helvetica Neue" font-size="14">productpage</tspan></text><path fill="#333" d="M376.922 276.722h57.087a8 8 0 0 1 8 8v11.655a8 8 0 0 1-8 8h-57.088a8 8 0 0 1-8-8v-11.655a8 8 0 0 1 8-8"/><text fill="#fff" transform="translate(373.921 284.405)"><tspan x="1.904" y="10" font-family="Helvetica Neue" font-size="10">productpage</tspan></text><path fill="#333" d="M297.717 355.4h40.77a8 8 0 0 1 8 8v11.656a8 8 0 0 1-8 8h-40.77a8 8 0 0 1-8-8V363.4a8 8 0 0 1 8-8"/><text fill="#fff" transform="translate(294.717 363.083)"><tspan x="5.87" y="10" font-family="Helvetica Neue" font-size="10">reviews</tspan></text><path fill="#333" d="M371.496 355.4h40.77a8 8 0 0 1 8 8v11.656a8 8 0 0 1-8 8h-40.77a8 8 0 0 1-8-8V363.4a8 8 0 0 1 8-8"/><text fill="#fff" transform="translate(368.496 363.083)"><tspan x="8.1" y="10" font-family="Helvetica Neue" font-size="10">details</tspan></text><path fill="#333" d="M297.717 276.722h40.77a8 8 0 0 1 8 8v11.655a8 8 0 0 1-8 8h-40.77a8 8 0 0 1-8-8v-11.655a8 8 0 0 1 8-8"/><text fill="#fff" transform="translate(294.717 284.405)"><tspan x="7.545" y="10" font-family="Helvetica Neue" font-size="10">ratings</tspan></text><path fill="url(#b)" d="m-234.148-138.243-8.139-14.098a3.57 3.57 0 0 1 0-3.565l8.139-14.097a3.57 3.57 0 0 1 3.088-1.783h16.277c1.274 0 2.45.68 3.088 1.783l8.138 14.097a3.57 3.57 0 0 1 0 3.565l-8.138 14.098a3.57 3.57 0 0 1-3.088 1.782h-16.277c-1.274 0-2.45-.68-3.088-1.782"/><path fill="#fff" d="m-215.161-159.086-7.34-4.238a.84.84 0 0 0-.838 0l-7.34 4.238a.84.84 0 0 0-.418.724v8.477c0 .299.159.575.418.724l7.34 4.238c.26.15.578.15.837 0l7.34-4.238a.84.84 0 0 0 .419-.724v-8.477a.84.84 0 0 0-.418-.724m-1.007 8.39-2.561-1.479v-3.895l-3.782 2.183v4.368l3.373-1.947 2.56 1.478-6.342 3.663-6.344-3.663 2.561-1.478 3.374 1.947v-4.368l-3.782-2.183v3.895l-2.561 1.479v-7.325l6.343-3.662v2.957l-3.373 1.947 3.782 2.183 3.781-2.183-3.372-1.947v-2.957l6.343 3.662z"/><path fill="url(#c)" d="m221.935-138.243-8.138-14.098a3.57 3.57 0 0 1 0-3.565l8.138-14.097a3.57 3.57 0 0 1 3.088-1.783H241.3c1.274 0 2.45.68 3.088 1.783l8.138 14.097a3.57 3.57 0 0 1 0 3.565l-8.138 14.098a3.57 3.57 0 0 1-3.088 1.782h-16.277c-1.274 0-2.45-.68-3.087-1.782"/><path fill="#fff" d="m240.922-159.086-7.34-4.238a.84.84 0 0 0-.837 0l-7.341 4.238a.84.84 0 0 0-.418.724v8.477c0 .299.16.575.418.724l7.34 4.238c.26.15.578.15.837 0l7.34-4.238a.84.84 0 0 0 .42-.724v-8.477a.84.84 0 0 0-.42-.724m-1.006 8.39-2.561-1.479v-3.895l-3.782 2.183v4.368l3.373-1.947 2.56 1.478-6.342 3.663-6.343-3.663 2.56-1.478 3.374 1.947v-4.368l-3.782-2.183v3.895l-2.561 1.479v-7.325l6.343-3.662v2.957l-3.373 1.947 3.782 2.183 3.782-2.183-3.373-1.947v-2.957l6.343 3.662z"/><path fill="url(#d)" d="m221.935 226.483-8.138-14.098a3.57 3.57 0 0 1 0-3.565l8.138-14.098a3.57 3.57 0 0 1 3.088-1.782H241.3c1.274 0 2.45.68 3.088 1.782l8.138 14.098a3.57 3.57 0 0 1 0 3.565l-8.138 14.098a3.57 3.57 0 0 1-3.088 1.782h-16.277c-1.274 0-2.45-.68-3.087-1.782"/><path fill="#fff" d="m240.922 205.64-7.34-4.239a.84.84 0 0 0-.837 0l-7.341 4.239a.84.84 0 0 0-.418.724v8.476c0 .3.16.575.418.725l7.34 4.238c.26.15.578.15.837 0l7.34-4.238a.84.84 0 0 0 .42-.725v-8.476a.84.84 0 0 0-.42-.724m-1.006 8.39-2.561-1.48v-3.894l-3.782 2.182v4.369l3.373-1.948 2.56 1.479-6.342 3.662-6.343-3.662 2.56-1.479 3.374 1.948v-4.369l-3.782-2.182v3.895l-2.561 1.478v-7.324l6.343-3.662V206l-3.373 1.947 3.782 2.183 3.782-2.183-3.373-1.947v-2.957l6.343 3.662z"/><path fill="#466bb0" d="M-239.499 72.991h33.154l-20.716 6.214Zm0-2.075 12.438-2.075v-22.79Zm14.503-2.075 18.651 2.075-18.651-41.442Zm441.581 4.15h33.154l-20.716 6.214Zm0-2.075 12.438-2.075v-22.79Zm14.502-2.075 18.652 2.075-18.652-41.442Zm-14.502 362.733h33.154l-20.716 6.213Zm0-2.075 12.438-2.075v-22.79Zm14.502-2.075 18.652 2.075-18.652-41.443Z"/><text fill="#000" transform="translate(-113.287 61.507)"><tspan x="0" y="16" font-family="Helvetica Neue" font-size="16" font-weight="bold">Cluster 0</tspan></text><text fill="#000" transform="translate(343.8 61.507)"><tspan x="0" y="16" font-family="Helvetica Neue" font-size="16" font-weight="bold">Cluster 1</tspan></text><text fill="#000" transform="translate(343.8 423.08)"><tspan x="0" y="16" font-family="Helvetica Neue" font-size="16" font-weight="bold">Cluster 2</tspan></text></g></svg>