<svg xmlns="http://www.w3.org/2000/svg" xmlns:xl="http://www.w3.org/1999/xlink" width="457" height="366" viewBox="-69 198 457 366"><defs><linearGradient id="a" x1="0" x2="1" gradientUnits="userSpaceOnUse"><stop offset="0" stop-color="#4387fd"/><stop offset="1" stop-color="#4683ea"/></linearGradient><linearGradient xl:href="#a" id="b" gradientTransform="translate(-3.811 267.538)scale(39.68504)"/><marker id="c" stroke-linejoin="miter" stroke-miterlimit="10" color="#000" markerHeight="6" markerUnits="strokeWidth" markerWidth="7" orient="auto" overflow="visible" viewBox="-1 -3 7 6"><path fill="currentColor" stroke="currentColor" d="M4.8 0 0-1.8v3.6Z"/></marker></defs><g fill="none"><path fill="#fff" d="M-69 198h457v366H-69z"/><path stroke="gray" stroke-dasharray="1 4" stroke-linecap="round" stroke-linejoin="round" d="M-52 212h423.78v338.348H-52Z"/><text fill="#a5a5a5" transform="translate(-47 525.884)"><tspan x="157.122" y="16" font-family="Helvetica Neue" font-size="16" font-weight="bold">Tier 1 cluster</tspan></text><path fill="#ccc" d="M-4.315 244.01h324.157a8 8 0 0 1 8 8v247.623a8 8 0 0 1-8 8H-4.315a8 8 0 0 1-8-8V252.01a8 8 0 0 1 8-8"/><text fill="#000" transform="translate(-7.315 249.01)"><tspan x="74.231" y="16" font-family="Helvetica Neue" font-size="16">gke-jimmy-us-central1-1</tspan></text><path fill="#fff" d="M46.69 298.169H141a8 8 0 0 1 8 8V333.5a8 8 0 0 1-8 8H46.69a8 8 0 0 1-8-8v-27.331a8 8 0 0 1 8-8"/><path stroke="gray" stroke-linecap="round" stroke-linejoin="round" d="M46.69 298.169H141a8 8 0 0 1 8 8V333.5a8 8 0 0 1-8 8H46.69a8 8 0 0 1-8-8v-27.331a8 8 0 0 1 8-8"/><text fill="#000" transform="translate(43.69 310.61)"><tspan x="18.611" y="15" font-family="Helvetica Neue" font-size="16">Gateway</tspan></text><path fill="url(#b)" d="m4.805 283.418-8.138-14.097a3.57 3.57 0 0 1 0-3.565l8.138-14.098a3.57 3.57 0 0 1 3.088-1.783H24.17c1.274 0 2.45.68 3.088 1.783l8.138 14.098a3.57 3.57 0 0 1 0 3.565l-8.138 14.097a3.57 3.57 0 0 1-3.088 1.783H7.893c-1.274 0-2.45-.68-3.087-1.783"/><path fill="#fff" d="m23.792 262.575-7.34-4.238a.84.84 0 0 0-.838 0l-7.34 4.238a.84.84 0 0 0-.418.725v8.476c0 .299.16.575.418.725l7.34 4.238c.26.15.578.15.837 0l7.34-4.238a.84.84 0 0 0 .42-.725V263.3a.84.84 0 0 0-.42-.725m-1.006 8.39-2.561-1.479v-3.895l-3.782 2.183v4.369l3.373-1.948 2.56 1.479-6.342 3.662-6.343-3.662 2.56-1.479 3.374 1.948v-4.369l-3.782-2.183v3.895l-2.561 1.479v-7.324l6.343-3.663v2.958l-3.373 1.947 3.782 2.183 3.782-2.183-3.373-1.947v-2.958l6.343 3.663z"/><path fill="#466bb0" d="M-.545 494.652h33.153l-20.715 6.214Zm0-2.074 12.438-2.075v-22.79Zm14.502-2.075 18.651 2.075-18.651-41.443Z"/><text fill="#000" transform="translate(125.666 483.169)"><tspan x="0" y="16" font-family="Helvetica Neue" font-size="16" font-weight="bold">Cluster 0</tspan></text><path fill="#fff" d="M46.69 379H141a8 8 0 0 1 8 8v27.331a8 8 0 0 1-8 8H46.69a8 8 0 0 1-8-8V387a8 8 0 0 1 8-8"/><path stroke="gray" stroke-linecap="round" stroke-linejoin="round" d="M46.69 379H141a8 8 0 0 1 8 8v27.331a8 8 0 0 1-8 8H46.69a8 8 0 0 1-8-8V387a8 8 0 0 1 8-8"/><text fill="#000" transform="translate(43.69 391.442)"><tspan x="1.419" y="15" font-family="Helvetica Neue" font-size="16">VirtualService</tspan></text><path fill="#fff" d="M197.5 298.169H306a8 8 0 0 1 8 8V333.5a8 8 0 0 1-8 8H197.5a8 8 0 0 1-8-8v-27.331a8 8 0 0 1 8-8"/><path stroke="gray" stroke-linecap="round" stroke-linejoin="round" d="M197.5 298.169H306a8 8 0 0 1 8 8V333.5a8 8 0 0 1-8 8H197.5a8 8 0 0 1-8-8v-27.331a8 8 0 0 1 8-8"/><text fill="#000" transform="translate(194.5 310.61)"><tspan x=".946" y="15" font-family="Helvetica Neue" font-size="16">DestinationRule</tspan></text><path fill="#fff" d="M197.5 379H306a8 8 0 0 1 8 8v27.331a8 8 0 0 1-8 8H197.5a8 8 0 0 1-8-8V387a8 8 0 0 1 8-8"/><path stroke="gray" stroke-linecap="round" stroke-linejoin="round" d="M197.5 379H306a8 8 0 0 1 8 8v27.331a8 8 0 0 1-8 8H197.5a8 8 0 0 1-8-8V387a8 8 0 0 1 8-8"/><text fill="#000" transform="translate(194.5 391.442)"><tspan x="12.218" y="15" font-family="Helvetica Neue" font-size="16">ServiceEntry</tspan></text><path stroke="#000" stroke-linecap="round" stroke-linejoin="round" stroke-width="2" marker-end="url(#c)" d="M93.845 341.5v24.6"/><path stroke="#000" stroke-linecap="round" stroke-linejoin="round" stroke-width="2" marker-end="url(#c)" d="m136.169 379 61.774-31.622"/><path stroke="#000" stroke-linecap="round" stroke-linejoin="round" stroke-width="2" marker-end="url(#c)" d="M251.75 341.5v24.6"/></g></svg>