<svg xmlns="http://www.w3.org/2000/svg" width="519" height="333" viewBox="322 457 519 333"><defs><marker id="a" stroke-linejoin="miter" stroke-miterlimit="10" color="#000" markerHeight="6" markerUnits="strokeWidth" markerWidth="7" orient="auto" overflow="visible" viewBox="-1 -3 7 6"><path fill="currentColor" stroke="currentColor" d="M4.8 0 0-1.8v3.6Z"/></marker></defs><g fill="none"><path fill="#fff" d="M322 457h519v333H322z"/><path fill="#fff" d="M488.86 718.5h146.288v29.464H488.86z"/><text fill="#000" transform="translate(493.86 723.5)"><tspan x="0" y="16" font-family="Helvetica Neue" font-size="16" font-weight="bold">2. Load Balancing</tspan></text><path fill="#fff" d="M330.5 600.275h148.416a8 8 0 0 1 8 8V767.05a8 8 0 0 1-8 8H330.5a8 8 0 0 1-8-8V608.275a8 8 0 0 1 8-8"/><path stroke="gray" stroke-dasharray="4 4" stroke-linecap="round" stroke-linejoin="round" d="M330.5 600.275h148.416a8 8 0 0 1 8 8V767.05a8 8 0 0 1-8 8H330.5a8 8 0 0 1-8-8V608.275a8 8 0 0 1 8-8"/><text fill="#000" transform="translate(327.5 750.586)"><tspan x="62.096" y="16" font-family="Helvetica Neue" font-size="16" font-weight="bold">Pod</tspan></text><path fill="#0a55a8" d="M351.208 614.05h107a8 8 0 0 1 8 8v38a8 8 0 0 1-8 8h-107a8 8 0 0 1-8-8v-38a8 8 0 0 1 8-8"/><text fill="#fff" transform="translate(348.208 631.318)"><tspan x="34.292" y="16" font-family="Helvetica Neue" font-size="16" font-weight="bold">Client</tspan></text><path fill="#0a55a8" d="M514 457h107a8 8 0 0 1 8 8v38a8 8 0 0 1-8 8H514a8 8 0 0 1-8-8v-38a8 8 0 0 1 8-8"/><text fill="#fff" transform="translate(511 474.268)"><tspan x="35.188" y="16" font-family="Helvetica Neue" font-size="16" font-weight="bold">Istiod</tspan></text><path stroke="#000" stroke-linecap="round" stroke-linejoin="round" stroke-width="2" marker-end="url(#a)" d="M452.163 688.05c27.226-17.901 60.522-44.184 83.837-77.275 22.722-32.25 30.7-63.494 32.948-86.895"/><path fill="#fff" d="M479.796 543.629h164.416v29.464H479.796z"/><text fill="#000" transform="translate(484.796 548.63)"><tspan x="0" y="16" font-family="Helvetica Neue" font-size="16" font-weight="bold">1. Service Discovery</tspan></text><path fill="#0a55a8" d="M351.208 688.05h107a8 8 0 0 1 8 8v38a8 8 0 0 1-8 8h-107a8 8 0 0 1-8-8v-38a8 8 0 0 1 8-8"/><text fill="#fff" transform="translate(348.208 705.318)"><tspan x="9.508" y="16" font-family="Helvetica Neue" font-size="16" font-weight="bold">Envoy Proxy</tspan></text><path fill="#fff" d="M654 586.5h148.416a8 8 0 0 1 8 8v158.775a8 8 0 0 1-8 8H654a8 8 0 0 1-8-8V594.5a8 8 0 0 1 8-8"/><path stroke="gray" stroke-dasharray="4 4" stroke-linecap="round" stroke-linejoin="round" d="M654 586.5h148.416a8 8 0 0 1 8 8v158.775a8 8 0 0 1-8 8H654a8 8 0 0 1-8-8V594.5a8 8 0 0 1 8-8"/><text fill="#000" transform="translate(651 736.811)"><tspan x="62.096" y="16" font-family="Helvetica Neue" font-size="16" font-weight="bold">Pod</tspan></text><path fill="#0a55a8" d="M669.999 610.775h107a8 8 0 0 1 8 8v38a8 8 0 0 1-8 8h-107a8 8 0 0 1-8-8v-38a8 8 0 0 1 8-8"/><text fill="#fff" transform="translate(666.999 628.043)"><tspan x="16.06" y="16" font-family="Helvetica Neue" font-size="16" font-weight="bold">Instance A</tspan></text><path fill="#0a55a8" d="M669.999 678.5h107a8 8 0 0 1 8 8v38a8 8 0 0 1-8 8h-107a8 8 0 0 1-8-8v-38a8 8 0 0 1 8-8"/><text fill="#fff" transform="translate(666.999 695.768)"><tspan x="9.508" y="16" font-family="Helvetica Neue" font-size="16" font-weight="bold">Envoy Proxy</tspan></text><path stroke="#000" stroke-linecap="round" stroke-linejoin="round" stroke-width="2" marker-end="url(#a)" d="m466.208 713.208 182.897-5.479"/><path fill="#fff" d="M670 600.275h148.416a8 8 0 0 1 8 8V767.05a8 8 0 0 1-8 8H670a8 8 0 0 1-8-8V608.275a8 8 0 0 1 8-8"/><path stroke="gray" stroke-dasharray="4 4" stroke-linecap="round" stroke-linejoin="round" d="M670 600.275h148.416a8 8 0 0 1 8 8V767.05a8 8 0 0 1-8 8H670a8 8 0 0 1-8-8V608.275a8 8 0 0 1 8-8"/><text fill="#000" transform="translate(667 750.586)"><tspan x="62.096" y="16" font-family="Helvetica Neue" font-size="16" font-weight="bold">Pod</tspan></text><path fill="#0a55a8" d="M685.999 624.55h107a8 8 0 0 1 8 8v38a8 8 0 0 1-8 8h-107a8 8 0 0 1-8-8v-38a8 8 0 0 1 8-8"/><text fill="#fff" transform="translate(682.999 641.818)"><tspan x="16.06" y="16" font-family="Helvetica Neue" font-size="16" font-weight="bold">Instance A</tspan></text><path fill="#0a55a8" d="M685.999 692.275h107a8 8 0 0 1 8 8v38a8 8 0 0 1-8 8h-107a8 8 0 0 1-8-8v-38a8 8 0 0 1 8-8"/><text fill="#fff" transform="translate(682.999 709.543)"><tspan x="9.508" y="16" font-family="Helvetica Neue" font-size="16" font-weight="bold">Envoy Proxy</tspan></text><path fill="#fff" d="M684 613.888h148.416a8 8 0 0 1 8 8v158.775a8 8 0 0 1-8 8H684a8 8 0 0 1-8-8V621.888a8 8 0 0 1 8-8"/><path stroke="gray" stroke-dasharray="4 4" stroke-linecap="round" stroke-linejoin="round" d="M684 613.888h148.416a8 8 0 0 1 8 8v158.775a8 8 0 0 1-8 8H684a8 8 0 0 1-8-8V621.888a8 8 0 0 1 8-8"/><text fill="#000" transform="translate(681 764.198)"><tspan x="62.096" y="16" font-family="Helvetica Neue" font-size="16" font-weight="bold">Pod</tspan></text><path fill="#0a55a8" d="M699.999 638.163h107a8 8 0 0 1 8 8v38a8 8 0 0 1-8 8h-107a8 8 0 0 1-8-8v-38a8 8 0 0 1 8-8"/><text fill="#fff" transform="translate(696.999 655.43)"><tspan x="16.06" y="16" font-family="Helvetica Neue" font-size="16" font-weight="bold">Instance A</tspan></text><path fill="#0a55a8" d="M699.999 705.888h107a8 8 0 0 1 8 8v38a8 8 0 0 1-8 8h-107a8 8 0 0 1-8-8v-38a8 8 0 0 1 8-8"/><text fill="#fff" transform="translate(696.999 723.155)"><tspan x="9.508" y="16" font-family="Helvetica Neue" font-size="16" font-weight="bold">Envoy Proxy</tspan></text><path stroke="#000" stroke-linecap="round" stroke-linejoin="round" stroke-width="2" marker-end="url(#a)" d="M466.208 714.134c32.129-.024 74.215.581 119.777 2.911a2033 2033 0 0 1 93.179 6.914"/><path stroke="#000" stroke-linecap="round" stroke-linejoin="round" stroke-width="2" marker-end="url(#a)" d="M466.208 713.18c19.852-1.4 44.589-3.715 74.322-7.498 31.79-4.045 64.106-9.11 92.76-13.999"/></g></svg>