<svg xmlns="http://www.w3.org/2000/svg" width="616" height="323" viewBox="190 25 616 323"><defs><marker id="a" stroke-linejoin="miter" stroke-miterlimit="10" color="#000" markerHeight="6" markerUnits="strokeWidth" markerWidth="7" orient="auto" overflow="visible" viewBox="-1 -3 7 6"><path fill="currentColor" stroke="currentColor" d="M4.8 0 0-1.8v3.6Z"/></marker></defs><g fill="none"><path fill="#fff" d="M190 25h616v323H190z"/><path stroke="gray" stroke-dasharray="4 4" stroke-linecap="round" stroke-linejoin="round" d="M431.673 33.375h353.5a8 8 0 0 1 8 8v290.25a8 8 0 0 1-8 8h-353.5a8 8 0 0 1-8-8V41.375a8 8 0 0 1 8-8"/><text fill="#000" transform="translate(428.673 315.16)"><tspan x="151.446" y="16" font-family="Helvetica Neue" font-size="16" font-weight="bold">Service</tspan></text><path fill="#0a55a8" d="M210.5 159.5h107a8 8 0 0 1 8 8v38a8 8 0 0 1-8 8h-107a8 8 0 0 1-8-8v-38a8 8 0 0 1 8-8"/><text fill="#fff" transform="translate(207.5 176.768)"><tspan x="34.292" y="16" font-family="Helvetica Neue" font-size="16" font-weight="bold">Client</tspan></text><path fill="#0a55a8" d="M629 248.5h107a8 8 0 0 1 8 8v38a8 8 0 0 1-8 8H629a8 8 0 0 1-8-8v-38a8 8 0 0 1 8-8"/><text fill="#fff" transform="translate(626 265.768)"><tspan x="15.612" y="16" font-family="Helvetica Neue" font-size="16" font-weight="bold">Instance C</tspan></text><path fill="#333" d="M467.5 143.157h78.685a4 4 0 0 1 4 4v78.686a4 4 0 0 1-4 4H467.5a4 4 0 0 1-4-4v-78.686a4 4 0 0 1 4-4"/><path fill="#fff" d="M500.48 219.241c-5.183-5.203-5.947-6.03-6.035-6.524-.307-1.724 1.143-3.107 2.909-2.776.48.09 1.056.591 3.718 3.235l3.151 3.128v-36.26l-8.956 8.955-8.956 8.954 4.288.076c4.202.075 4.301.084 4.876.441.618.384 1.152 1.305 1.152 1.988 0 .682-.534 1.603-1.152 1.988l-.587.365h-16.696v-8.451c0-8.299.006-8.459.313-8.87.59-.79 1.082-1.045 2.013-1.045.648 0 .979.083 1.336.338.923.659.967.918.967 5.68v4.302l10.701-10.7 10.701-10.7v-11.168l-.645-.278c-1.25-.54-2.666-1.805-3.412-3.05-1.01-1.684-1.252-4.215-.586-6.105 1.507-4.267 6.51-6.225 10.473-4.097 1.011.542 2.555 2.093 3.043 3.055 1.864 3.68.5 8.05-3.105 9.944l-1.063.559v11.14l10.929 10.928 10.928 10.928v-4.533c0-4.335.014-4.557.322-5.104.639-1.138 2.165-1.555 3.181-.87.282.19.668.576.859.859l.346.514-.04 8.362-.038 8.362-7.817.044c-4.3.024-8.113.002-8.474-.05-.455-.064-.84-.257-1.25-.629-1.318-1.19-1.058-2.787.655-4.022.02-.015 1.9-.066 4.174-.114l4.138-.087-8.957-8.954-8.956-8.955v36.12l2.998-2.988c1.649-1.644 3.19-3.06 3.425-3.148a2.38 2.38 0 0 1 2.798.903c.42.616.468 1.866.093 2.433-.267.405-11.612 11.835-11.746 11.835-.045 0-2.752-2.681-6.016-5.958"/><path fill="#0a55a8" d="M629 159.5h107a8 8 0 0 1 8 8v38a8 8 0 0 1-8 8H629a8 8 0 0 1-8-8v-38a8 8 0 0 1 8-8"/><text fill="#fff" transform="translate(626 176.768)"><tspan x="15.908" y="16" font-family="Helvetica Neue" font-size="16" font-weight="bold">Instance B</tspan></text><path fill="#0a55a8" d="M629 70.5h107a8 8 0 0 1 8 8v38a8 8 0 0 1-8 8H629a8 8 0 0 1-8-8v-38a8 8 0 0 1 8-8"/><text fill="#fff" transform="translate(626 87.768)"><tspan x="16.06" y="16" font-family="Helvetica Neue" font-size="16" font-weight="bold">Instance A</tspan></text><path stroke="#000" stroke-linecap="round" stroke-linejoin="round" stroke-width="2" marker-end="url(#a)" d="M325.5 186.5h125.1"/><path stroke="#000" stroke-linecap="round" stroke-linejoin="round" stroke-width="2" marker-end="url(#a)" d="M550.185 186.5H608.1"/><path stroke="#000" stroke-linecap="round" stroke-linejoin="round" stroke-width="2" marker-end="url(#a)" d="m550.185 164.54 67.518-34.21"/><path stroke="#000" stroke-linecap="round" stroke-linejoin="round" stroke-width="2" marker-end="url(#a)" d="m550.185 208.46 67.518 34.21"/><text fill="#000" transform="translate(451.587 234.843)"><tspan x="0" y="16" font-family="Helvetica Neue" font-size="16" font-weight="bold">Load Balancer</tspan></text></g></svg>