<?xml version="1.0" encoding="UTF-8" standalone="no"?>
<!DOCTYPE svg PUBLIC "-//W3C//DTD SVG 1.1//EN" "http://www.w3.org/Graphics/SVG/1.1/DTD/svg11.dtd">
<svg version="1.1" xmlns:dc="http://purl.org/dc/elements/1.1/" xmlns="http://www.w3.org/2000/svg" xmlns:xl="http://www.w3.org/1999/xlink" viewBox="663 781 1033 417" width="1033" height="417">
  <defs>
    <marker orient="auto" overflow="visible" markerUnits="strokeWidth" id="FilledArrow_Marker" stroke-linejoin="miter" stroke-miterlimit="10" viewBox="-1 -4 10 8" markerWidth="10" markerHeight="8" color="black">
      <g>
        <path d="M 8 0 L 0 -3 L 0 3 Z" fill="currentColor" stroke="currentColor" stroke-width="1"/>
      </g>
    </marker>
    <marker orient="auto" overflow="visible" markerUnits="strokeWidth" id="FilledArrow_Marker_2" stroke-linejoin="miter" stroke-miterlimit="10" viewBox="-1 -3 7 6" markerWidth="7" markerHeight="6" color="#f05a26">
      <g>
        <path d="M 4.8 0 L 0 -1.8 L 0 1.8 Z" fill="currentColor" stroke="currentColor" stroke-width="1"/>
      </g>
    </marker>
  </defs>
  <g id="kmesh" stroke="none" stroke-dasharray="none" fill="none" stroke-opacity="1" fill-opacity="1">
    <title>kmesh</title>
    <rect fill="white" x="663" y="781" width="1033" height="417"/>
    <g id="kmesh_Layer_1">
      <title>Layer 1</title>
      <g id="Graphic_89">
        <rect x="663.9375" y="781.5" width="1031.5" height="415.974" fill="white"/>
      </g>
      <g id="Graphic_80">
        <path d="M 694.875 892.5 L 1664.5 892.5 C 1666.7091 892.5 1668.5 894.2909 1668.5 896.5 L 1668.5 1032 C 1668.5 1034.2091 1666.7091 1036 1664.5 1036 L 694.875 1036 C 692.6659 1036 690.875 1034.2091 690.875 1032 L 690.875 896.5 C 690.875 894.2909 692.6659 892.5 694.875 892.5 Z" fill="#f7f7f7"/>
        <path d="M 694.875 892.5 L 1664.5 892.5 C 1666.7091 892.5 1668.5 894.2909 1668.5 896.5 L 1668.5 1032 C 1668.5 1034.2091 1666.7091 1036 1664.5 1036 L 694.875 1036 C 692.6659 1036 690.875 1034.2091 690.875 1032 L 690.875 896.5 C 690.875 894.2909 692.6659 892.5 694.875 892.5 Z" stroke="#f05a26" stroke-linecap="round" stroke-linejoin="round" stroke-dasharray="2.0,2.0" stroke-width="1"/>
      </g>
      <g id="Graphic_79">
        <path d="M 694.875 1036 L 1664.5 1036 C 1666.7091 1036 1668.5 1037.7909 1668.5 1040 L 1668.5 1171 C 1668.5 1173.2091 1666.7091 1175 1664.5 1175 L 694.875 1175 C 692.6659 1175 690.875 1173.2091 690.875 1171 L 690.875 1040 C 690.875 1037.7909 692.6659 1036 694.875 1036 Z" stroke="#f05a26" stroke-linecap="round" stroke-linejoin="round" stroke-dasharray="2.0,2.0" stroke-width="1"/>
      </g>
      <g id="Graphic_12">
        <path d="M 694.875 892.5 L 1060.5 892.5 C 1062.7091 892.5 1064.5 894.2909 1064.5 896.5 L 1064.5 1171 C 1064.5 1173.2091 1062.7091 1175 1060.5 1175 L 694.875 1175 C 692.6659 1175 690.875 1173.2091 690.875 1171 L 690.875 896.5 C 690.875 894.2909 692.6659 892.5 694.875 892.5 Z" stroke="#666" stroke-linecap="round" stroke-linejoin="round" stroke-width="1"/>
        <text transform="translate(695.875 1150.5359)" fill="black">
          <tspan font-family="Helvetica Neue" font-size="16" fill="black" x="323.913" y="16" xml:space="preserve">Node</tspan>
        </text>
      </g>
      <g id="Graphic_50">
        <rect x="873.5" y="914.5" width="171.5" height="107" fill="white"/>
        <path d="M 873.5 914.5 L 1045 914.5 L 1045 1021.5 L 873.5 1021.5 Z" stroke="black" stroke-linecap="round" stroke-linejoin="round" stroke-dasharray="4.0,4.0" stroke-width="1"/>
        <text transform="translate(878.5 919.5)" fill="black">
          <tspan font-family="Helvetica Neue" font-size="16" fill="black" x="0" y="15" xml:space="preserve">namespace</tspan>
        </text>
      </g>
      <g id="Graphic_7">
        <title>Proxy</title>
        <path d="M 718.50986 1113.5 L 857.0099 1113.5 C 859.219 1113.5 861.0099 1115.2909 861.0099 1117.5 L 861.0099 1156.5 C 861.0099 1158.7091 859.219 1160.5 857.0099 1160.5 L 718.50986 1160.5 C 716.3007 1160.5 714.50986 1158.7091 714.50986 1156.5 L 714.50986 1117.5 C 714.50986 1115.2909 716.3007 1113.5 718.50986 1113.5 Z" fill="white"/>
        <path d="M 718.50986 1113.5 L 857.0099 1113.5 C 859.219 1113.5 861.0099 1115.2909 861.0099 1117.5 L 861.0099 1156.5 C 861.0099 1158.7091 859.219 1160.5 857.0099 1160.5 L 718.50986 1160.5 C 716.3007 1160.5 714.50986 1158.7091 714.50986 1156.5 L 714.50986 1117.5 C 714.50986 1115.2909 716.3007 1113.5 718.50986 1113.5 Z" stroke="#666" stroke-linecap="round" stroke-linejoin="round" stroke-width="1"/>
        <text transform="translate(719.50986 1127.268)" fill="black">
          <tspan font-family="Helvetica Neue" font-size="16" fill="black" x="14.458" y="16" xml:space="preserve">Kernel Module</tspan>
        </text>
      </g>
      <g id="Group_29">
        <g id="Graphic_28">
          <path d="M 1111.5 805.5 L 1215.5 805.5 C 1217.7091 805.5 1219.5 807.2909 1219.5 809.5 L 1219.5 848.5 C 1219.5 850.7091 1217.7091 852.5 1215.5 852.5 L 1111.5 852.5 C 1109.2909 852.5 1107.5 850.7091 1107.5 848.5 L 1107.5 809.5 C 1107.5 807.2909 1109.2909 805.5 1111.5 805.5 Z" fill="white"/>
          <path d="M 1111.5 805.5 L 1215.5 805.5 C 1217.7091 805.5 1219.5 807.2909 1219.5 809.5 L 1219.5 848.5 C 1219.5 850.7091 1217.7091 852.5 1215.5 852.5 L 1111.5 852.5 C 1109.2909 852.5 1107.5 850.7091 1107.5 848.5 L 1107.5 809.5 C 1107.5 807.2909 1109.2909 805.5 1111.5 805.5 Z" stroke="black" stroke-linecap="round" stroke-linejoin="round" stroke-width="1"/>
        </g>
        <g id="Graphic_26">
          <path d="M 1122.7083 841.7373 L 1147 841.7373 L 1131.8215 846.2901 Z M 1122.7083 840.2171 L 1131.8215 838.697 L 1131.8215 821.9983 Z M 1133.334 838.697 L 1147 840.2171 L 1133.334 809.8525 Z" fill="#466bb0"/>
        </g>
        <g id="Graphic_27">
          <text transform="translate(1152 816.7099)" fill="black">
            <tspan font-family="Helvetica Neue" font-size="20" fill="black" x="0" y="20" xml:space="preserve">Istiod</tspan>
          </text>
        </g>
      </g>
      <g id="Group_48">
        <g id="Graphic_30">
          <title>Proxy</title>
          <path d="M 718.50986 1052.5 L 857.0099 1052.5 C 859.219 1052.5 861.0099 1054.2909 861.0099 1056.5 L 861.0099 1095.5 C 861.0099 1097.7091 859.219 1099.5 857.0099 1099.5 L 718.50986 1099.5 C 716.3007 1099.5 714.50986 1097.7091 714.50986 1095.5 L 714.50986 1056.5 C 714.50986 1054.2909 716.3007 1052.5 718.50986 1052.5 Z" fill="white"/>
          <path d="M 718.50986 1052.5 L 857.0099 1052.5 C 859.219 1052.5 861.0099 1054.2909 861.0099 1056.5 L 861.0099 1095.5 C 861.0099 1097.7091 859.219 1099.5 857.0099 1099.5 L 718.50986 1099.5 C 716.3007 1099.5 714.50986 1097.7091 714.50986 1095.5 L 714.50986 1056.5 C 714.50986 1054.2909 716.3007 1052.5 718.50986 1052.5 Z" stroke="#666" stroke-linecap="round" stroke-linejoin="round" stroke-width="1"/>
        </g>
        <g id="Group_41">
          <g id="Graphic_40">
            <path d="M 771.27785 1065.9517 C 771.5454 1066.0904 771.6544 1066.4174 771.5157 1066.685 C 771.2382 1067.2102 771.0896 1067.9733 771.04 1068.7562 C 770.98055 1069.5292 771.0202 1070.2526 771.07965 1070.6788 C 771.1193 1070.976 770.9112 1071.2535 770.604 1071.2932 C 770.3067 1071.3328 770.0292 1071.1247 769.9895 1070.8274 C 769.9202 1070.322 769.8805 1069.5193 769.94 1068.6769 C 769.99945 1067.8445 770.158 1066.9129 770.5346 1066.1895 C 770.6733 1065.9219 771.0103 1065.8129 771.27785 1065.9517 Z" fill="#1a1a1a"/>
          </g>
          <g id="Graphic_39">
            <path d="M 768.0769 1074.5734 C 768.4039 1073.0175 765.0345 1072.7698 763.31015 1072.8292 C 756.5019 1072.9779 759.3461 1077.0906 763.1219 1077.5464 C 764.6678 1077.7446 767.6607 1076.5158 768.0769 1074.5734 Z" fill="#cfedfc"/>
          </g>
          <g id="Graphic_38">
            <path d="M 759.7029 1073.7013 C 759.8912 1073.5428 760.1389 1073.404 760.45605 1073.2851 L 760.55515 1073.5824 L 761.0507 1074.1968 L 761.7741 1074.841 L 762.3291 1074.7617 L 765.1039 1074.4743 L 768.02735 1074.7815 C 767.9382 1075.0689 767.7895 1075.3464 767.5913 1075.5942 C 766.7291 1075.4257 764.7075 1075.3761 763.6174 1075.3662 C 763.3201 1075.7032 763.221 1076.8626 763.1912 1077.5563 C 762.8642 1077.5167 762.5372 1077.4572 762.22005 1077.368 C 762.1903 1076.8329 762.3786 1076.0599 762.51735 1075.6338 C 761.6552 1075.6833 760.7534 1076.0996 760.2479 1076.387 C 760.0299 1076.2185 759.8317 1076.0203 759.6533 1075.8023 L 760.7633 1075.1978 C 760.5948 1075.1185 760.0497 1074.2761 759.7029 1073.7013 Z" fill="#00ace6"/>
          </g>
          <g id="Graphic_37">
            <path d="M 767.5021 1076.4464 L 768.503 1077.1104 L 763.9741 1083.7204 L 762.884 1082.997 L 762.0516 1081.788 L 761.63535 1079.7861 L 762.3885 1078.0221 L 764.1822 1078.5672 L 767.5021 1076.4464 Z" fill="#ffe100"/>
          </g>
          <g id="Graphic_36">
            <path d="M 766.5904 1072.0662 C 767.92825 1069.2121 771.1986 1069.9157 772.7346 1070.9364 L 768.503 1077.1203 L 768.0174 1076.7933 C 767.403 1077.4969 766.1444 1078.032 765.5895 1078.2104 C 765.6489 1079.0032 766.3228 1079.6176 766.64985 1079.8258 L 765.2624 1081.8573 C 763.6372 1080.7771 763.1615 1079.2212 763.1318 1078.587 L 762.5273 1078.5573 C 761.4669 1080.9357 763.1318 1082.779 764.1624 1083.4727 L 762.3687 1086.0988 L 762.6858 1083.6411 C 760.6642 1081.9267 761.0209 1079.3402 761.457 1078.26 C 760.05965 1077.9825 757.6416 1075.9906 758.0975 1074.2959 C 758.8704 1071.3229 764.0633 1071.3725 766.5904 1072.0662 Z M 768.0769 1074.5635 C 768.394 1073.0175 765.0345 1072.7698 763.31015 1072.8292 C 762.22005 1072.8491 761.3678 1072.9779 760.7335 1073.1761 C 761.011 1074.0383 761.6651 1074.4644 761.9822 1074.5734 C 763.984 1074.1374 766.5805 1074.3455 768.0769 1074.5635 Z M 767.9481 1074.9797 C 766.9075 1074.841 765.3417 1074.8113 764.539 1074.8113 C 763.439 1075.5545 763.3002 1076.7933 763.3993 1077.5762 C 764.8859 1077.6059 767.294 1076.5852 767.9481 1074.9797 Z M 762.8939 1077.5266 C 762.6957 1076.3969 763.3399 1075.3266 763.7363 1074.8905 C 761.7047 1074.9698 760.4263 1075.5347 759.802 1075.9806 C 760.466 1076.7041 761.6155 1077.3185 762.8939 1077.5266 Z M 759.4452 1075.5149 C 759.9506 1075.2077 760.8525 1074.9302 761.33805 1074.8113 C 760.6344 1074.286 760.3173 1073.741 760.2083 1073.3941 C 759.0984 1073.9094 758.97945 1074.732 759.4452 1075.5149 Z M 777.96715 1070.4112 C 777.7392 1070.213 777.3924 1070.2328 777.1843 1070.4607 C 776.78785 1070.9067 776.1338 1071.3229 775.4203 1071.6698 C 774.71665 1072.0067 774.0229 1072.2445 773.5968 1072.3536 C 773.3094 1072.4229 773.131 1072.7202 773.2004 1073.0076 C 773.2797 1073.3049 773.577 1073.4734 773.8743 1073.404 C 774.3698 1073.2752 775.1428 1073.0175 775.9059 1072.641 C 776.659 1072.2743 777.4816 1071.7788 778.0167 1071.1644 C 778.2149 1070.9562 778.1951 1070.6193 777.96715 1070.4112 C 777.96715 1070.4211 777.96715 1070.4112 777.96715 1070.4112 Z" fill="#1a1a1a"/>
          </g>
          <g id="Graphic_35">
            <path d="M 771.0499 1076.5554 C 772.3878 1075.6734 773.8842 1078.6663 774.459 1080.2717 C 776.8572 1086.5547 771.9319 1085.4844 770.0886 1082.2042 C 769.3355 1080.8564 769.3751 1077.6654 771.0499 1076.5554 Z" fill="#cfedfc"/>
          </g>
          <g id="Graphic_34">
            <path d="M 774.9941 1083.8988 C 775.0734 1083.6709 775.11305 1083.3835 775.1031 1083.0564 L 774.786 1083.0763 L 774.0229 1082.8582 L 773.1409 1082.442 L 773.0121 1081.9069 L 772.2391 1079.2609 L 770.8616 1076.7041 C 770.6238 1076.8924 770.4256 1077.1302 770.2571 1077.3978 C 770.7427 1078.1212 771.5355 1079.9546 771.9517 1080.9555 C 771.7436 1081.3519 770.6932 1081.8771 770.049 1082.1546 L 770.0787 1082.2141 C 770.2274 1082.4817 770.3959 1082.7294 770.58415 1082.9672 C 771.0995 1082.7889 771.7535 1082.333 772.1103 1082.0456 C 772.3878 1082.8483 772.3283 1083.8393 772.249 1084.4042 C 772.5067 1084.543 772.7644 1084.6619 773.0121 1084.7312 L 773.1608 1083.4826 C 773.3193 1083.6114 774.3202 1083.7898 774.9941 1083.8988 Z" fill="#00ace6"/>
          </g>
          <g id="Graphic_33">
            <path d="M 769.494 1077.7843 L 768.4931 1077.1203 L 763.9741 1083.7204 L 765.0642 1084.4438 L 766.521 1084.751 L 768.5625 1084.3844 L 769.94 1083.0465 L 768.7607 1081.5997 C 768.7508 1081.5997 769.494 1077.7843 769.494 1077.7843 Z" fill="#ffe100"/>
          </g>
          <g id="Graphic_32">
            <path d="M 773.9635 1076.9816 C 776.1437 1074.6923 774.2707 1071.9671 772.7346 1070.9364 L 768.503 1077.1203 L 768.9886 1077.4473 C 768.5526 1078.2798 768.52285 1079.6276 768.5625 1080.2023 C 767.7994 1080.4501 766.967 1080.0537 766.64985 1079.8357 L 765.2624 1081.8672 C 766.8877 1082.9474 768.52285 1082.8087 769.1373 1082.6006 L 769.3949 1083.1456 C 767.5517 1085.0087 765.1931 1084.1664 764.1723 1083.4826 L 762.3786 1086.1087 L 764.5786 1084.9096 C 766.94715 1086.1286 769.2463 1084.8303 770.09855 1084.0276 C 770.8715 1085.2069 773.6563 1086.6736 775.0833 1085.6231 C 777.541 1083.7799 775.559 1079.033 773.9635 1076.9816 Z M 771.0499 1076.5554 C 772.3878 1075.6933 773.8743 1078.6762 774.4491 1080.2717 C 774.8356 1081.2825 775.0338 1082.1051 775.0833 1082.7591 C 774.1716 1082.8186 773.5274 1082.3826 773.2995 1082.1348 C 772.9824 1080.1429 771.8229 1077.8437 771.0499 1076.5554 Z M 770.7229 1076.823 C 771.2382 1077.7248 771.8526 1079.142 772.1499 1079.8852 C 771.8625 1081.1636 770.7427 1081.7582 769.9697 1081.9663 C 769.3949 1080.6087 769.4544 1078.0221 770.7229 1076.823 Z M 770.19765 1082.4024 C 771.3373 1082.1645 772.1004 1081.1735 772.368 1080.6483 C 773.0518 1082.5411 772.9923 1083.9186 772.804 1084.6619 C 771.8824 1084.315 770.8715 1083.4925 770.19765 1082.4024 Z M 773.3788 1084.8105 C 773.4779 1084.2357 773.3986 1083.3141 773.33915 1082.8186 C 774.0923 1083.2745 774.7266 1083.3537 775.0932 1083.324 C 775.01395 1084.5231 774.2905 1084.9493 773.3788 1084.8105 Z M 788.5016 1078.4582 L 788.5016 1072.5617 L 791.3854 1072.5617 C 793.635 1072.5617 794.3881 1072.5815 794.8044 1072.6608 C 795.0918 1072.7202 795.4981 1072.8392 795.7062 1072.9283 C 795.9143 1073.0175 796.2314 1073.2356 796.4197 1073.414 C 796.608 1073.5923 796.8458 1073.8896 796.935 1074.0779 C 797.0341 1074.2662 797.1332 1074.623 797.1729 1074.8707 C 797.2224 1075.168 797.2224 1075.4554 797.1729 1075.7527 C 797.1332 1076.0005 797.0242 1076.3572 796.9251 1076.5455 C 796.826 1076.7437 796.6179 1077.0212 796.4395 1077.1699 C 796.2314 1077.3383 796.0134 1077.487 795.77555 1077.6059 L 795.4188 1077.7744 L 795.6269 1077.8239 C 795.7359 1077.8537 795.9638 1077.9329 796.1224 1078.0023 C 796.281 1078.0717 796.5584 1078.26 796.7368 1078.4185 C 796.9152 1078.5771 797.1332 1078.8248 797.2125 1078.9537 C 797.3017 1079.0924 797.4206 1079.36 797.4801 1079.5582 C 797.5395 1079.7663 797.5891 1080.1726 797.5891 1080.4897 C 797.5891 1080.8762 797.5395 1081.1834 797.4404 1081.4906 C 797.3612 1081.7285 797.1828 1082.0753 797.044 1082.2537 C 796.9053 1082.4321 796.6179 1082.6997 796.4098 1082.8384 C 796.1521 1083.0069 795.8846 1083.1357 795.5972 1083.2348 C 795.3593 1083.3141 794.8737 1083.4033 794.5269 1083.4429 C 794.18 1083.4826 792.6737 1083.5123 791.1872 1083.5123 L 788.4817 1083.5123 L 788.4718 1080.4204 L 788.2934 1080.6582 C 788.1943 1080.787 787.897 1081.114 787.6295 1081.3717 C 787.3619 1081.6393 786.9457 1081.9862 786.7078 1082.1447 C 786.47 1082.3033 786.0141 1082.551 785.7069 1082.6997 C 785.3997 1082.8384 784.9141 1083.0267 784.6267 1083.106 C 784.3294 1083.1952 783.8042 1083.2645 783.37805 1083.2943 C 782.8231 1083.324 782.5159 1083.3042 782.1195 1083.215 C 781.7726 1083.1357 781.4357 1083.0168 781.11855 1082.8681 C 780.8609 1082.7393 780.4843 1082.4916 780.296 1082.3231 C 780.1077 1082.1546 779.8005 1081.7979 779.632 1081.5402 C 779.4636 1081.2825 779.2356 1080.8564 779.14645 1080.5987 C 779.0374 1080.2618 778.9582 1079.915 778.9086 1079.5681 C 778.869 1079.2609 778.8591 1078.805 778.8789 1078.5672 C 778.8987 1078.3194 778.978 1077.9032 779.0573 1077.6257 C 779.1266 1077.3482 779.2753 1076.9717 779.3744 1076.7735 C 779.4735 1076.5753 779.6816 1076.2383 779.8302 1076.0104 C 779.9888 1075.7824 780.3357 1075.386 780.6032 1075.1284 C 780.8708 1074.8707 781.2672 1074.5536 781.4852 1074.4248 C 781.70325 1074.2959 782.0699 1074.1176 782.3078 1074.0185 C 782.6943 1073.8599 783.2096 1073.8004 783.5168 1073.8004 C 783.824 1073.8004 784.3492 1073.85 784.6862 1074.0284 C 784.8844 1074.1374 785.1916 1074.3554 785.3601 1074.5239 C 785.5781 1074.7419 785.697 1074.9401 785.7763 1075.2077 C 785.8556 1075.4653 785.8754 1075.6933 785.8457 1075.9509 C 785.8159 1076.1491 785.7069 1076.5059 785.588 1076.7437 C 785.4493 1077.0113 785.1817 1077.3581 784.85465 1077.6852 C 784.5673 1077.9726 784.0618 1078.3789 783.7348 1078.587 C 783.4078 1078.7951 782.942 1079.0627 782.7042 1079.1618 C 782.4663 1079.2708 782.0303 1079.4294 781.7231 1079.5285 C 781.4159 1079.6176 781.0294 1079.7167 780.8411 1079.7465 C 780.62305 1079.7762 780.514 1079.8258 780.514 1079.8951 C 780.514 1079.9546 780.6032 1080.1924 780.72215 1080.4204 C 780.8312 1080.6582 781.0591 1080.9753 781.2077 1081.1339 C 781.3663 1081.2924 781.6933 1081.5105 781.9411 1081.6294 C 782.29785 1081.7979 782.506 1081.8474 782.9916 1081.8672 C 783.4177 1081.887 783.7546 1081.8672 784.1213 1081.788 C 784.4087 1081.7285 784.9141 1081.5402 785.25105 1081.3816 C 785.6574 1081.1834 786.0439 1080.9456 786.4105 1080.678 C 786.7673 1080.4104 787.1042 1080.1131 787.41145 1079.8059 C 787.6889 1079.5185 787.9466 1079.2212 788.1844 1078.9041 L 788.5016 1078.4582 Z M 794.408 1075.2077 C 794.29895 1075.059 794.1701 1074.9401 794.0116 1074.8608 C 793.8034 1074.7617 793.5656 1074.7419 792.416 1074.7419 L 791.0584 1074.7419 L 791.0584 1076.7834 L 792.3863 1076.7834 C 793.6251 1076.7834 793.7341 1076.7735 794.0215 1076.6347 C 794.2197 1076.5356 794.3683 1076.3969 794.4476 1076.2482 C 794.517 1076.1194 794.5665 1075.8815 794.5665 1075.7329 C 794.5665 1075.5347 794.5071 1075.3464 794.408 1075.2077 Z M 784.6069 1075.4257 C 784.5177 1075.3266 784.4186 1075.2374 784.2997 1075.1779 C 784.1808 1075.1185 783.9132 1075.0788 783.6555 1075.0788 C 783.2889 1075.0788 783.1303 1075.1185 782.7042 1075.3266 C 782.3375 1075.505 782.0501 1075.7131 781.6834 1076.0897 C 781.3267 1076.4464 781.0789 1076.7735 780.8708 1077.16 C 780.7122 1077.4672 780.5339 1077.923 780.4744 1078.1708 C 780.42485 1078.4284 780.3951 1078.6465 780.4149 1078.6663 C 780.4348 1078.6861 780.6924 1078.6564 780.9798 1078.587 C 781.3465 1078.5077 781.70325 1078.3888 782.06 1078.25 C 782.3573 1078.1311 782.8726 1077.8437 783.2096 1077.6257 C 783.5366 1077.4077 783.9528 1077.0708 784.1312 1076.8726 C 784.3096 1076.6744 784.5078 1076.3969 784.5871 1076.2383 C 784.6664 1076.0897 784.7258 1075.8716 784.7258 1075.7626 C 784.7159 1075.6734 784.6664 1075.5149 784.6069 1075.4257 Z M 794.6854 1079.4194 C 794.59625 1079.2906 794.3881 1079.1221 794.2197 1079.033 C 793.9323 1078.8942 793.8233 1078.8843 792.5151 1078.8843 L 791.1178 1078.8843 L 791.1178 1081.342 L 792.5449 1081.3222 C 793.8332 1081.3024 794.0016 1081.2825 794.2494 1081.1537 C 794.408 1081.0744 794.5863 1080.906 794.6755 1080.7474 C 794.7845 1080.5492 794.8341 1080.3708 794.8341 1080.0636 C 794.844 1079.7465 794.8044 1079.5978 794.6854 1079.4194 Z M 799.0756 1083.4727 L 799.0459 1072.5617 L 801.6919 1072.5617 C 803.7532 1072.5617 804.4667 1072.5815 804.9523 1072.6608 C 805.3388 1072.7301 805.7054 1072.8392 806.0622 1072.9977 C 806.3496 1073.1265 806.7262 1073.3743 806.9343 1073.5725 C 807.1325 1073.7608 807.3802 1074.0581 807.4793 1074.2365 C 807.5784 1074.4149 807.7073 1074.7518 807.7667 1074.9995 C 807.8361 1075.2671 807.8757 1075.6933 807.8757 1076.1194 C 807.8757 1076.5059 807.8262 1076.9717 807.7667 1077.1996 C 807.7073 1077.4374 807.6181 1077.6554 807.519 1077.8834 C 807.41 1078.0915 807.2811 1078.2897 807.1424 1078.4879 C 807.0136 1078.6663 806.6964 1078.9438 806.4487 1079.1122 C 806.2009 1079.2807 805.7946 1079.4789 805.5667 1079.5582 C 805.2595 1079.6474 804.9325 1079.7167 804.6153 1079.7663 C 804.318 1079.8059 803.555 1079.8357 802.9108 1079.8357 L 801.7414 1079.8357 L 801.7018 1083.4727 L 799.0756 1083.4727 Z M 804.9523 1075.396 C 804.8532 1075.2275 804.6946 1075.0689 804.5261 1074.9797 C 804.2784 1074.8509 804.1099 1074.8113 802.9901 1074.7914 L 801.7315 1074.7914 L 801.7315 1077.5861 L 802.8513 1077.5861 C 803.4658 1077.5861 804.0901 1077.5563 804.2288 1077.5167 C 804.3676 1077.4771 804.5955 1077.3482 804.7243 1077.2392 C 804.8928 1077.0906 805.0018 1076.9221 805.0712 1076.6545 C 805.1406 1076.4167 805.1703 1076.169 805.1406 1075.9707 C 805.1108 1075.7725 805.0415 1075.5743 804.9523 1075.396 Z" fill="#1a1a1a"/>
          </g>
          <g id="Graphic_31">
            <path d="M 809.5704 1078.1014 L 809.5902 1083.4727 L 812.2064 1083.4727 L 812.2461 1079.2906 L 816.8245 1079.251 L 816.8642 1077.041 L 812.2461 1077.041 L 812.2461 1074.8707 L 817.4786 1074.8707 L 817.4786 1072.5617 L 809.5704 1072.5617 C 809.5704 1073.5031 809.5704 1076.0302 809.5704 1078.1014 Z" fill="#1a1a1a"/>
          </g>
        </g>
      </g>
      <g id="Graphic_42">
        <title>Proxy</title>
        <path d="M 718 925 L 856.5 925 C 858.7091 925 860.5 926.7909 860.5 929 L 860.5 968 C 860.5 970.2091 858.7091 972 856.5 972 L 718 972 C 715.7909 972 714 970.2091 714 968 L 714 929 C 714 926.7909 715.7909 925 718 925 Z" fill="#f05a26"/>
        <text transform="translate(719 938.768)" fill="white">
          <tspan font-family="Helvetica Neue" font-size="16" fill="white" x="10.61" y="16" xml:space="preserve">kmesh-daemon</tspan>
        </text>
      </g>
      <g id="Group_47">
        <g id="Graphic_43">
          <title>Proxy</title>
          <path d="M 896.75 941 L 1008.75 941 C 1010.9591 941 1012.75 942.7909 1012.75 945 L 1012.75 984 C 1012.75 986.2091 1010.9591 988 1008.75 988 L 896.75 988 C 894.5409 988 892.75 986.2091 892.75 984 L 892.75 945 C 892.75 942.7909 894.5409 941 896.75 941 Z" fill="white"/>
          <path d="M 896.75 941 L 1008.75 941 C 1010.9591 941 1012.75 942.7909 1012.75 945 L 1012.75 984 C 1012.75 986.2091 1010.9591 988 1008.75 988 L 896.75 988 C 894.5409 988 892.75 986.2091 892.75 984 L 892.75 945 C 892.75 942.7909 894.5409 941 896.75 941 Z" stroke="#666" stroke-linecap="round" stroke-linejoin="round" stroke-width="1"/>
          <text transform="translate(897.75 954.768)" fill="black">
            <tspan font-family="Helvetica Neue" font-size="16" fill="black" x="20.016" y="16" xml:space="preserve">Service A</tspan>
          </text>
        </g>
        <g id="Graphic_44">
          <title>Proxy</title>
          <path d="M 903.25 952.5 L 1015.25 952.5 C 1017.4591 952.5 1019.25 954.2909 1019.25 956.5 L 1019.25 995.5 C 1019.25 997.7091 1017.4591 999.5 1015.25 999.5 L 903.25 999.5 C 901.0409 999.5 899.25 997.7091 899.25 995.5 L 899.25 956.5 C 899.25 954.2909 901.0409 952.5 903.25 952.5 Z" fill="white"/>
          <path d="M 903.25 952.5 L 1015.25 952.5 C 1017.4591 952.5 1019.25 954.2909 1019.25 956.5 L 1019.25 995.5 C 1019.25 997.7091 1017.4591 999.5 1015.25 999.5 L 903.25 999.5 C 901.0409 999.5 899.25 997.7091 899.25 995.5 L 899.25 956.5 C 899.25 954.2909 901.0409 952.5 903.25 952.5 Z" stroke="#666" stroke-linecap="round" stroke-linejoin="round" stroke-width="1"/>
          <text transform="translate(904.25 966.268)" fill="black">
            <tspan font-family="Helvetica Neue" font-size="16" fill="black" x="20.016" y="16" xml:space="preserve">Service A</tspan>
          </text>
        </g>
        <g id="Graphic_45">
          <title>Proxy</title>
          <path d="M 909.75 964 L 1021.75 964 C 1023.9591 964 1025.75 965.7909 1025.75 968 L 1025.75 1007 C 1025.75 1009.2091 1023.9591 1011 1021.75 1011 L 909.75 1011 C 907.5409 1011 905.75 1009.2091 905.75 1007 L 905.75 968 C 905.75 965.7909 907.5409 964 909.75 964 Z" fill="white"/>
          <path d="M 909.75 964 L 1021.75 964 C 1023.9591 964 1025.75 965.7909 1025.75 968 L 1025.75 1007 C 1025.75 1009.2091 1023.9591 1011 1021.75 1011 L 909.75 1011 C 907.5409 1011 905.75 1009.2091 905.75 1007 L 905.75 968 C 905.75 965.7909 907.5409 964 909.75 964 Z" stroke="#666" stroke-linecap="round" stroke-linejoin="round" stroke-width="1"/>
          <text transform="translate(910.75 977.768)" fill="black">
            <tspan font-family="Helvetica Neue" font-size="16" fill="black" x="20.016" y="16" xml:space="preserve">Service A</tspan>
          </text>
        </g>
      </g>
      <g id="Graphic_46">
        <title>Proxy</title>
        <path d="M 1111.5 925 L 1215.5 925 C 1217.7091 925 1219.5 926.7909 1219.5 929 L 1219.5 968 C 1219.5 970.2091 1217.7091 972 1215.5 972 L 1111.5 972 C 1109.2909 972 1107.5 970.2091 1107.5 968 L 1107.5 929 C 1107.5 926.7909 1109.2909 925 1111.5 925 Z" fill="#f05a26"/>
        <text transform="translate(1112.5 929.0359)" fill="white">
          <tspan font-family="Helvetica Neue" font-size="16" fill="white" x="16.328" y="16" xml:space="preserve">Waypoint</tspan>
          <tspan font-family="Helvetica Neue" font-size="16" fill="white" x="29.8" y="35.46411" xml:space="preserve">Proxy</tspan>
        </text>
      </g>
      <g id="Line_49">
        <path d="M 1107.5 829 L 787.7599 829 L 787.7599 915.1" marker-end="url(#FilledArrow_Marker)" stroke="black" stroke-linecap="round" stroke-linejoin="round" stroke-width="1"/>
      </g>
      <g id="Line_51">
        <path d="M 787.25 972 L 787.25 982 L 787.5049 1012.25 L 787.7599 1037.6 L 787.7599 1042.6" marker-end="url(#FilledArrow_Marker)" stroke="black" stroke-linecap="round" stroke-linejoin="round" stroke-width="1"/>
      </g>
      <g id="Graphic_74">
        <path d="M 1266.5 892.5 L 1632.125 892.5 C 1634.3341 892.5 1636.125 894.2909 1636.125 896.5 L 1636.125 1171 C 1636.125 1173.2091 1634.3341 1175 1632.125 1175 L 1266.5 1175 C 1264.2909 1175 1262.5 1173.2091 1262.5 1171 L 1262.5 896.5 C 1262.5 894.2909 1264.2909 892.5 1266.5 892.5 Z" stroke="#666" stroke-linecap="round" stroke-linejoin="round" stroke-width="1"/>
        <text transform="translate(1267.5 1150.5359)" fill="black">
          <tspan font-family="Helvetica Neue" font-size="16" fill="black" x="0" y="16" xml:space="preserve">Node</tspan>
        </text>
      </g>
      <g id="Graphic_73">
        <rect x="1282" y="914.5" width="171.5" height="107" fill="white"/>
        <path d="M 1282 914.5 L 1453.5 914.5 L 1453.5 1021.5 L 1282 1021.5 Z" stroke="black" stroke-linecap="round" stroke-linejoin="round" stroke-dasharray="4.0,4.0" stroke-width="1"/>
        <text transform="translate(1287 919.5)" fill="black">
          <tspan font-family="Helvetica Neue" font-size="16" fill="black" x="78.508" y="15" xml:space="preserve">namespace</tspan>
        </text>
      </g>
      <g id="Graphic_72">
        <title>Proxy</title>
        <path d="M 1470.5 1113.5 L 1609 1113.5 C 1611.2091 1113.5 1613 1115.2909 1613 1117.5 L 1613 1156.5 C 1613 1158.7091 1611.2091 1160.5 1609 1160.5 L 1470.5 1160.5 C 1468.2909 1160.5 1466.5 1158.7091 1466.5 1156.5 L 1466.5 1117.5 C 1466.5 1115.2909 1468.2909 1113.5 1470.5 1113.5 Z" fill="white"/>
        <path d="M 1470.5 1113.5 L 1609 1113.5 C 1611.2091 1113.5 1613 1115.2909 1613 1117.5 L 1613 1156.5 C 1613 1158.7091 1611.2091 1160.5 1609 1160.5 L 1470.5 1160.5 C 1468.2909 1160.5 1466.5 1158.7091 1466.5 1156.5 L 1466.5 1117.5 C 1466.5 1115.2909 1468.2909 1113.5 1470.5 1113.5 Z" stroke="#666" stroke-linecap="round" stroke-linejoin="round" stroke-width="1"/>
        <text transform="translate(1471.5 1127.268)" fill="black">
          <tspan font-family="Helvetica Neue" font-size="16" fill="black" x="14.458" y="16" xml:space="preserve">Kernel Module</tspan>
        </text>
      </g>
      <g id="Group_59">
        <g id="Graphic_71">
          <title>Proxy</title>
          <path d="M 1470.5 1052.5 L 1609 1052.5 C 1611.2091 1052.5 1613 1054.2909 1613 1056.5 L 1613 1095.5 C 1613 1097.7091 1611.2091 1099.5 1609 1099.5 L 1470.5 1099.5 C 1468.2909 1099.5 1466.5 1097.7091 1466.5 1095.5 L 1466.5 1056.5 C 1466.5 1054.2909 1468.2909 1052.5 1470.5 1052.5 Z" fill="white"/>
          <path d="M 1470.5 1052.5 L 1609 1052.5 C 1611.2091 1052.5 1613 1054.2909 1613 1056.5 L 1613 1095.5 C 1613 1097.7091 1611.2091 1099.5 1609 1099.5 L 1470.5 1099.5 C 1468.2909 1099.5 1466.5 1097.7091 1466.5 1095.5 L 1466.5 1056.5 C 1466.5 1054.2909 1468.2909 1052.5 1470.5 1052.5 Z" stroke="#666" stroke-linecap="round" stroke-linejoin="round" stroke-width="1"/>
        </g>
        <g id="Group_60">
          <g id="Graphic_70">
            <path d="M 1523.268 1065.9517 C 1523.5356 1066.0904 1523.6446 1066.4174 1523.5058 1066.685 C 1523.2284 1067.2102 1523.0797 1067.9733 1523.0302 1068.7562 C 1522.9707 1069.5292 1523.0103 1070.2526 1523.0698 1070.6788 C 1523.1094 1070.976 1522.9013 1071.2535 1522.5941 1071.2932 C 1522.2968 1071.3328 1522.0193 1071.1247 1521.9797 1070.8274 C 1521.9103 1070.322 1521.8707 1069.5193 1521.9301 1068.6769 C 1521.9896 1067.8445 1522.1482 1066.9129 1522.5247 1066.1895 C 1522.6635 1065.9219 1523.0004 1065.8129 1523.268 1065.9517 Z" fill="#1a1a1a"/>
          </g>
          <g id="Graphic_69">
            <path d="M 1520.067 1074.5734 C 1520.394 1073.0175 1517.0247 1072.7698 1515.3003 1072.8292 C 1508.492 1072.9779 1511.3363 1077.0906 1515.112 1077.5464 C 1516.658 1077.7446 1519.6508 1076.5158 1520.067 1074.5734 Z" fill="#cfedfc"/>
          </g>
          <g id="Graphic_68">
            <path d="M 1511.693 1073.7013 C 1511.8813 1073.5428 1512.129 1073.404 1512.4462 1073.2851 L 1512.5453 1073.5824 L 1513.0408 1074.1968 L 1513.7642 1074.841 L 1514.3192 1074.7617 L 1517.094 1074.4743 L 1520.0175 1074.7815 C 1519.9283 1075.0689 1519.7797 1075.3464 1519.5814 1075.5942 C 1518.7193 1075.4257 1516.6976 1075.3761 1515.6075 1075.3662 C 1515.3102 1075.7032 1515.2111 1076.8626 1515.1814 1077.5563 C 1514.8543 1077.5167 1514.5273 1077.4572 1514.2102 1077.368 C 1514.1805 1076.8329 1514.3688 1076.0599 1514.5075 1075.6338 C 1513.6453 1075.6833 1512.7435 1076.0996 1512.238 1076.387 C 1512.02 1076.2185 1511.8219 1076.0203 1511.6435 1075.8023 L 1512.7534 1075.1978 C 1512.585 1075.1185 1512.0399 1074.2761 1511.693 1073.7013 Z" fill="#00ace6"/>
          </g>
          <g id="Graphic_67">
            <path d="M 1519.4923 1076.4464 L 1520.4932 1077.1104 L 1515.9643 1083.7204 L 1514.8742 1082.997 L 1514.0417 1081.788 L 1513.6255 1079.7861 L 1514.3787 1078.0221 L 1516.1724 1078.5672 L 1519.4923 1076.4464 Z" fill="#ffe100"/>
          </g>
          <g id="Graphic_66">
            <path d="M 1518.5805 1072.0662 C 1519.9184 1069.2121 1523.1887 1069.9157 1524.7248 1070.9364 L 1520.4932 1077.1203 L 1520.0076 1076.7933 C 1519.3932 1077.4969 1518.1346 1078.032 1517.5796 1078.2104 C 1517.639 1079.0032 1518.313 1079.6176 1518.64 1079.8258 L 1517.2526 1081.8573 C 1515.6273 1080.7771 1515.1516 1079.2212 1515.122 1078.587 L 1514.5174 1078.5573 C 1513.457 1080.9357 1515.122 1082.779 1516.1526 1083.4727 L 1514.3588 1086.0988 L 1514.676 1083.6411 C 1512.6543 1081.9267 1513.011 1079.3402 1513.4471 1078.26 C 1512.0498 1077.9825 1509.6317 1075.9906 1510.0876 1074.2959 C 1510.8606 1071.3229 1516.0535 1071.3725 1518.5805 1072.0662 Z M 1520.067 1074.5635 C 1520.3842 1073.0175 1517.0247 1072.7698 1515.3003 1072.8292 C 1514.2102 1072.8491 1513.358 1072.9779 1512.7237 1073.1761 C 1513.0012 1074.0383 1513.6552 1074.4644 1513.9723 1074.5734 C 1515.9742 1074.1374 1518.5706 1074.3455 1520.067 1074.5635 Z M 1519.9382 1074.9797 C 1518.8977 1074.841 1517.3319 1074.8113 1516.5291 1074.8113 C 1515.4291 1075.5545 1515.2904 1076.7933 1515.3895 1077.5762 C 1516.876 1077.6059 1519.2841 1076.5852 1519.9382 1074.9797 Z M 1514.884 1077.5266 C 1514.6859 1076.3969 1515.33 1075.3266 1515.7264 1074.8905 C 1513.6949 1074.9698 1512.4165 1075.5347 1511.7921 1075.9806 C 1512.4561 1076.7041 1513.6057 1077.3185 1514.884 1077.5266 Z M 1511.4354 1075.5149 C 1511.9408 1075.2077 1512.8426 1074.9302 1513.3282 1074.8113 C 1512.6246 1074.286 1512.3075 1073.741 1512.1984 1073.3941 C 1511.0885 1073.9094 1510.9696 1074.732 1511.4354 1075.5149 Z M 1529.9573 1070.4112 C 1529.7294 1070.213 1529.3825 1070.2328 1529.1744 1070.4607 C 1528.778 1070.9067 1528.124 1071.3229 1527.4104 1071.6698 C 1526.7068 1072.0067 1526.013 1072.2445 1525.587 1072.3536 C 1525.2996 1072.4229 1525.1212 1072.7202 1525.1906 1073.0076 C 1525.2698 1073.3049 1525.5671 1073.4734 1525.8644 1073.404 C 1526.36 1073.2752 1527.133 1073.0175 1527.896 1072.641 C 1528.6492 1072.2743 1529.4717 1071.7788 1530.0068 1071.1644 C 1530.205 1070.9562 1530.1852 1070.6193 1529.9573 1070.4112 C 1529.9573 1070.4211 1529.9573 1070.4112 1529.9573 1070.4112 Z" fill="#1a1a1a"/>
          </g>
          <g id="Graphic_65">
            <path d="M 1523.04 1076.5554 C 1524.378 1075.6734 1525.8743 1078.6663 1526.4491 1080.2717 C 1528.8474 1086.5547 1523.922 1085.4844 1522.0788 1082.2042 C 1521.3256 1080.8564 1521.3653 1077.6654 1523.04 1076.5554 Z" fill="#cfedfc"/>
          </g>
          <g id="Graphic_64">
            <path d="M 1526.9843 1083.8988 C 1527.0636 1083.6709 1527.1032 1083.3835 1527.0933 1083.0564 L 1526.7762 1083.0763 L 1526.013 1082.8582 L 1525.131 1082.442 L 1525.0023 1081.9069 L 1524.2293 1079.2609 L 1522.8518 1076.7041 C 1522.614 1076.8924 1522.4157 1077.1302 1522.2473 1077.3978 C 1522.7329 1078.1212 1523.5257 1079.9546 1523.9419 1080.9555 C 1523.7338 1081.3519 1522.6833 1081.8771 1522.0391 1082.1546 L 1522.0689 1082.2141 C 1522.2175 1082.4817 1522.386 1082.7294 1522.5743 1082.9672 C 1523.0896 1082.7889 1523.7437 1082.333 1524.1004 1082.0456 C 1524.378 1082.8483 1524.3185 1083.8393 1524.2392 1084.4042 C 1524.4968 1084.543 1524.7545 1084.6619 1525.0023 1084.7312 L 1525.151 1083.4826 C 1525.3095 1083.6114 1526.3104 1083.7898 1526.9843 1083.8988 Z" fill="#00ace6"/>
          </g>
          <g id="Graphic_63">
            <path d="M 1521.4842 1077.7843 L 1520.4833 1077.1203 L 1515.9643 1083.7204 L 1517.0544 1084.4438 L 1518.5112 1084.751 L 1520.5526 1084.3844 L 1521.9301 1083.0465 L 1520.7508 1081.5997 C 1520.741 1081.5997 1521.4842 1077.7843 1521.4842 1077.7843 Z" fill="#ffe100"/>
          </g>
          <g id="Graphic_62">
            <path d="M 1525.9536 1076.9816 C 1528.1338 1074.6923 1526.2608 1071.9671 1524.7248 1070.9364 L 1520.4932 1077.1203 L 1520.9788 1077.4473 C 1520.5427 1078.2798 1520.513 1079.6276 1520.5526 1080.2023 C 1519.7896 1080.4501 1518.9571 1080.0537 1518.64 1079.8357 L 1517.2526 1081.8672 C 1518.8778 1082.9474 1520.513 1082.8087 1521.1274 1082.6006 L 1521.385 1083.1456 C 1519.5418 1085.0087 1517.1832 1084.1664 1516.1625 1083.4826 L 1514.3688 1086.1087 L 1516.5688 1084.9096 C 1518.9373 1086.1286 1521.2364 1084.8303 1522.0887 1084.0276 C 1522.8617 1085.2069 1525.6464 1086.6736 1527.0735 1085.6231 C 1529.5312 1083.7799 1527.5491 1079.033 1525.9536 1076.9816 Z M 1523.04 1076.5554 C 1524.378 1075.6933 1525.8644 1078.6762 1526.4392 1080.2717 C 1526.8257 1081.2825 1527.024 1082.1051 1527.0735 1082.7591 C 1526.1617 1082.8186 1525.5176 1082.3826 1525.2897 1082.1348 C 1524.9725 1080.1429 1523.813 1077.8437 1523.04 1076.5554 Z M 1522.713 1076.823 C 1523.2284 1077.7248 1523.8428 1079.142 1524.14 1079.8852 C 1523.8527 1081.1636 1522.7329 1081.7582 1521.9599 1081.9663 C 1521.385 1080.6087 1521.4445 1078.0221 1522.713 1076.823 Z M 1522.1878 1082.4024 C 1523.3275 1082.1645 1524.0905 1081.1735 1524.3581 1080.6483 C 1525.0419 1082.5411 1524.9824 1083.9186 1524.7941 1084.6619 C 1523.8725 1084.315 1522.8617 1083.4925 1522.1878 1082.4024 Z M 1525.369 1084.8105 C 1525.468 1084.2357 1525.3888 1083.3141 1525.3293 1082.8186 C 1526.0825 1083.2745 1526.7167 1083.3537 1527.0834 1083.324 C 1527.0041 1084.5231 1526.2807 1084.9493 1525.369 1084.8105 Z M 1540.4917 1078.4582 L 1540.4917 1072.5617 L 1543.3755 1072.5617 C 1545.6251 1072.5617 1546.3783 1072.5815 1546.7945 1072.6608 C 1547.0819 1072.7202 1547.4882 1072.8392 1547.6963 1072.9283 C 1547.9044 1073.0175 1548.2216 1073.2356 1548.4098 1073.414 C 1548.5981 1073.5923 1548.836 1073.8896 1548.9252 1074.0779 C 1549.0243 1074.2662 1549.1234 1074.623 1549.163 1074.8707 C 1549.2126 1075.168 1549.2126 1075.4554 1549.163 1075.7527 C 1549.1234 1076.0005 1549.0144 1076.3572 1548.9153 1076.5455 C 1548.8162 1076.7437 1548.608 1077.0212 1548.4297 1077.1699 C 1548.2216 1077.3383 1548.0035 1077.487 1547.7657 1077.6059 L 1547.409 1077.7744 L 1547.617 1077.8239 C 1547.726 1077.8537 1547.954 1077.9329 1548.1125 1078.0023 C 1548.2711 1078.0717 1548.5486 1078.26 1548.727 1078.4185 C 1548.9054 1078.5771 1549.1234 1078.8248 1549.2027 1078.9537 C 1549.2918 1079.0924 1549.4108 1079.36 1549.4702 1079.5582 C 1549.5297 1079.7663 1549.5792 1080.1726 1549.5792 1080.4897 C 1549.5792 1080.8762 1549.5297 1081.1834 1549.4306 1081.4906 C 1549.3513 1081.7285 1549.173 1082.0753 1549.0342 1082.2537 C 1548.8954 1082.4321 1548.608 1082.6997 1548.4 1082.8384 C 1548.1423 1083.0069 1547.8747 1083.1357 1547.5873 1083.2348 C 1547.3495 1083.3141 1546.8639 1083.4033 1546.517 1083.4429 C 1546.1702 1083.4826 1544.6638 1083.5123 1543.1773 1083.5123 L 1540.4719 1083.5123 L 1540.462 1080.4204 L 1540.2836 1080.6582 C 1540.1845 1080.787 1539.8872 1081.114 1539.6196 1081.3717 C 1539.352 1081.6393 1538.9358 1081.9862 1538.698 1082.1447 C 1538.4601 1082.3033 1538.0043 1082.551 1537.697 1082.6997 C 1537.3898 1082.8384 1536.9043 1083.0267 1536.6169 1083.106 C 1536.3196 1083.1952 1535.7943 1083.2645 1535.3682 1083.2943 C 1534.8132 1083.324 1534.506 1083.3042 1534.1096 1083.215 C 1533.7628 1083.1357 1533.4258 1083.0168 1533.1087 1082.8681 C 1532.851 1082.7393 1532.4745 1082.4916 1532.2862 1082.3231 C 1532.0979 1082.1546 1531.7907 1081.7979 1531.6222 1081.5402 C 1531.4537 1081.2825 1531.2258 1080.8564 1531.1366 1080.5987 C 1531.0276 1080.2618 1530.9483 1079.915 1530.8988 1079.5681 C 1530.8591 1079.2609 1530.8492 1078.805 1530.869 1078.5672 C 1530.8888 1078.3194 1530.9681 1077.9032 1531.0474 1077.6257 C 1531.1168 1077.3482 1531.2654 1076.9717 1531.3645 1076.7735 C 1531.4636 1076.5753 1531.6717 1076.2383 1531.8204 1076.0104 C 1531.979 1075.7824 1532.3258 1075.386 1532.5934 1075.1284 C 1532.861 1074.8707 1533.2573 1074.5536 1533.4754 1074.4248 C 1533.6934 1074.2959 1534.06 1074.1176 1534.2979 1074.0185 C 1534.6844 1073.8599 1535.1997 1073.8004 1535.507 1073.8004 C 1535.8141 1073.8004 1536.3394 1073.85 1536.6763 1074.0284 C 1536.8745 1074.1374 1537.1817 1074.3554 1537.3502 1074.5239 C 1537.5682 1074.7419 1537.6872 1074.9401 1537.7664 1075.2077 C 1537.8457 1075.4653 1537.8655 1075.6933 1537.8358 1075.9509 C 1537.806 1076.1491 1537.697 1076.5059 1537.5781 1076.7437 C 1537.4394 1077.0113 1537.1718 1077.3581 1536.8448 1077.6852 C 1536.5574 1077.9726 1536.052 1078.3789 1535.725 1078.587 C 1535.398 1078.7951 1534.9322 1079.0627 1534.6943 1079.1618 C 1534.4565 1079.2708 1534.0204 1079.4294 1533.7132 1079.5285 C 1533.406 1079.6176 1533.0195 1079.7167 1532.8312 1079.7465 C 1532.6132 1079.7762 1532.5042 1079.8258 1532.5042 1079.8951 C 1532.5042 1079.9546 1532.5934 1080.1924 1532.7123 1080.4204 C 1532.8213 1080.6582 1533.0492 1080.9753 1533.1979 1081.1339 C 1533.3564 1081.2924 1533.6835 1081.5105 1533.9312 1081.6294 C 1534.288 1081.7979 1534.4961 1081.8474 1534.9817 1081.8672 C 1535.4078 1081.887 1535.7448 1081.8672 1536.1114 1081.788 C 1536.3988 1081.7285 1536.9043 1081.5402 1537.2412 1081.3816 C 1537.6475 1081.1834 1538.034 1080.9456 1538.4007 1080.678 C 1538.7574 1080.4104 1539.0944 1080.1131 1539.4016 1079.8059 C 1539.679 1079.5185 1539.9367 1079.2212 1540.1746 1078.9041 L 1540.4917 1078.4582 Z M 1546.3981 1075.2077 C 1546.2891 1075.059 1546.1603 1074.9401 1546.0017 1074.8608 C 1545.7936 1074.7617 1545.5557 1074.7419 1544.4062 1074.7419 L 1543.0485 1074.7419 L 1543.0485 1076.7834 L 1544.3764 1076.7834 C 1545.6152 1076.7834 1545.7242 1076.7735 1546.0116 1076.6347 C 1546.2098 1076.5356 1546.3585 1076.3969 1546.4377 1076.2482 C 1546.5071 1076.1194 1546.5567 1075.8815 1546.5567 1075.7329 C 1546.5567 1075.5347 1546.4972 1075.3464 1546.3981 1075.2077 Z M 1536.597 1075.4257 C 1536.5079 1075.3266 1536.4088 1075.2374 1536.2898 1075.1779 C 1536.171 1075.1185 1535.9033 1075.0788 1535.6457 1075.0788 C 1535.279 1075.0788 1535.1204 1075.1185 1534.6943 1075.3266 C 1534.3276 1075.505 1534.0402 1075.7131 1533.6736 1076.0897 C 1533.3168 1076.4464 1533.069 1076.7735 1532.861 1077.16 C 1532.7024 1077.4672 1532.524 1077.923 1532.4645 1078.1708 C 1532.415 1078.4284 1532.3853 1078.6465 1532.405 1078.6663 C 1532.4249 1078.6861 1532.6826 1078.6564 1532.97 1078.587 C 1533.3366 1078.5077 1533.6934 1078.3888 1534.0502 1078.25 C 1534.3475 1078.1311 1534.8628 1077.8437 1535.1997 1077.6257 C 1535.5268 1077.4077 1535.943 1077.0708 1536.1214 1076.8726 C 1536.2997 1076.6744 1536.498 1076.3969 1536.5772 1076.2383 C 1536.6565 1076.0897 1536.716 1075.8716 1536.716 1075.7626 C 1536.706 1075.6734 1536.6565 1075.5149 1536.597 1075.4257 Z M 1546.6756 1079.4194 C 1546.5864 1079.2906 1546.3783 1079.1221 1546.2098 1079.033 C 1545.9224 1078.8942 1545.8134 1078.8843 1544.5053 1078.8843 L 1543.108 1078.8843 L 1543.108 1081.342 L 1544.535 1081.3222 C 1545.8233 1081.3024 1545.9918 1081.2825 1546.2395 1081.1537 C 1546.3981 1081.0744 1546.5765 1080.906 1546.6657 1080.7474 C 1546.7747 1080.5492 1546.8242 1080.3708 1546.8242 1080.0636 C 1546.8341 1079.7465 1546.7945 1079.5978 1546.6756 1079.4194 Z M 1551.0657 1083.4727 L 1551.036 1072.5617 L 1553.682 1072.5617 C 1555.7433 1072.5617 1556.4568 1072.5815 1556.9424 1072.6608 C 1557.329 1072.7301 1557.6956 1072.8392 1558.0523 1072.9977 C 1558.3397 1073.1265 1558.7163 1073.3743 1558.9244 1073.5725 C 1559.1226 1073.7608 1559.3704 1074.0581 1559.4695 1074.2365 C 1559.5686 1074.4149 1559.6974 1074.7518 1559.7569 1074.9995 C 1559.8263 1075.2671 1559.8659 1075.6933 1559.8659 1076.1194 C 1559.8659 1076.5059 1559.8163 1076.9717 1559.7569 1077.1996 C 1559.6974 1077.4374 1559.6082 1077.6554 1559.5091 1077.8834 C 1559.4001 1078.0915 1559.2713 1078.2897 1559.1325 1078.4879 C 1559.0037 1078.6663 1558.6866 1078.9438 1558.4388 1079.1122 C 1558.191 1079.2807 1557.7848 1079.4789 1557.5568 1079.5582 C 1557.2496 1079.6474 1556.9226 1079.7167 1556.6055 1079.7663 C 1556.3082 1079.8059 1555.5451 1079.8357 1554.901 1079.8357 L 1553.7316 1079.8357 L 1553.692 1083.4727 L 1551.0657 1083.4727 Z M 1556.9424 1075.396 C 1556.8433 1075.2275 1556.6848 1075.0689 1556.5163 1074.9797 C 1556.2685 1074.8509 1556.1 1074.8113 1554.9802 1074.7914 L 1553.7216 1074.7914 L 1553.7216 1077.5861 L 1554.8415 1077.5861 C 1555.456 1077.5861 1556.0802 1077.5563 1556.219 1077.5167 C 1556.3577 1077.4771 1556.5857 1077.3482 1556.7145 1077.2392 C 1556.883 1077.0906 1556.992 1076.9221 1557.0613 1076.6545 C 1557.1307 1076.4167 1557.1604 1076.169 1557.1307 1075.9707 C 1557.101 1075.7725 1557.0316 1075.5743 1556.9424 1075.396 Z" fill="#1a1a1a"/>
          </g>
          <g id="Graphic_61">
            <path d="M 1561.5605 1078.1014 L 1561.5803 1083.4727 L 1564.1966 1083.4727 L 1564.2362 1079.2906 L 1568.8147 1079.251 L 1568.8543 1077.041 L 1564.2362 1077.041 L 1564.2362 1074.8707 L 1569.4688 1074.8707 L 1569.4688 1072.5617 L 1561.5605 1072.5617 C 1561.5605 1073.5031 1561.5605 1076.0302 1561.5605 1078.1014 Z" fill="#1a1a1a"/>
          </g>
        </g>
      </g>
      <g id="Graphic_58">
        <title>Proxy</title>
        <path d="M 1470.5 925 L 1609 925 C 1611.2091 925 1613 926.7909 1613 929 L 1613 968 C 1613 970.2091 1611.2091 972 1609 972 L 1470.5 972 C 1468.2909 972 1466.5 970.2091 1466.5 968 L 1466.5 929 C 1466.5 926.7909 1468.2909 925 1470.5 925 Z" fill="#f05a26"/>
        <text transform="translate(1471.5 938.768)" fill="white">
          <tspan font-family="Helvetica Neue" font-size="16" fill="white" x="10.61" y="16" xml:space="preserve">kmesh-daemon</tspan>
        </text>
      </g>
      <g id="Group_54">
        <g id="Graphic_57">
          <title>Proxy</title>
          <path d="M 1305.25 941 L 1417.25 941 C 1419.4591 941 1421.25 942.7909 1421.25 945 L 1421.25 984 C 1421.25 986.2091 1419.4591 988 1417.25 988 L 1305.25 988 C 1303.0409 988 1301.25 986.2091 1301.25 984 L 1301.25 945 C 1301.25 942.7909 1303.0409 941 1305.25 941 Z" fill="white"/>
          <path d="M 1305.25 941 L 1417.25 941 C 1419.4591 941 1421.25 942.7909 1421.25 945 L 1421.25 984 C 1421.25 986.2091 1419.4591 988 1417.25 988 L 1305.25 988 C 1303.0409 988 1301.25 986.2091 1301.25 984 L 1301.25 945 C 1301.25 942.7909 1303.0409 941 1305.25 941 Z" stroke="#666" stroke-linecap="round" stroke-linejoin="round" stroke-width="1"/>
          <text transform="translate(1306.25 954.768)" fill="black">
            <tspan font-family="Helvetica Neue" font-size="16" fill="black" x="20.016" y="16" xml:space="preserve">Service A</tspan>
          </text>
        </g>
        <g id="Graphic_56">
          <title>Proxy</title>
          <path d="M 1311.75 952.5 L 1423.75 952.5 C 1425.9591 952.5 1427.75 954.2909 1427.75 956.5 L 1427.75 995.5 C 1427.75 997.7091 1425.9591 999.5 1423.75 999.5 L 1311.75 999.5 C 1309.5409 999.5 1307.75 997.7091 1307.75 995.5 L 1307.75 956.5 C 1307.75 954.2909 1309.5409 952.5 1311.75 952.5 Z" fill="white"/>
          <path d="M 1311.75 952.5 L 1423.75 952.5 C 1425.9591 952.5 1427.75 954.2909 1427.75 956.5 L 1427.75 995.5 C 1427.75 997.7091 1425.9591 999.5 1423.75 999.5 L 1311.75 999.5 C 1309.5409 999.5 1307.75 997.7091 1307.75 995.5 L 1307.75 956.5 C 1307.75 954.2909 1309.5409 952.5 1311.75 952.5 Z" stroke="#666" stroke-linecap="round" stroke-linejoin="round" stroke-width="1"/>
          <text transform="translate(1312.75 966.268)" fill="black">
            <tspan font-family="Helvetica Neue" font-size="16" fill="black" x="20.016" y="16" xml:space="preserve">Service A</tspan>
          </text>
        </g>
        <g id="Graphic_55">
          <title>Proxy</title>
          <path d="M 1318.25 964 L 1430.25 964 C 1432.4591 964 1434.25 965.7909 1434.25 968 L 1434.25 1007 C 1434.25 1009.2091 1432.4591 1011 1430.25 1011 L 1318.25 1011 C 1316.0409 1011 1314.25 1009.2091 1314.25 1007 L 1314.25 968 C 1314.25 965.7909 1316.0409 964 1318.25 964 Z" fill="white"/>
          <path d="M 1318.25 964 L 1430.25 964 C 1432.4591 964 1434.25 965.7909 1434.25 968 L 1434.25 1007 C 1434.25 1009.2091 1432.4591 1011 1430.25 1011 L 1318.25 1011 C 1316.0409 1011 1314.25 1009.2091 1314.25 1007 L 1314.25 968 C 1314.25 965.7909 1316.0409 964 1318.25 964 Z" stroke="#666" stroke-linecap="round" stroke-linejoin="round" stroke-width="1"/>
          <text transform="translate(1319.25 977.768)" fill="black">
            <tspan font-family="Helvetica Neue" font-size="16" fill="black" x="20.016" y="16" xml:space="preserve">Service A</tspan>
          </text>
        </g>
      </g>
      <g id="Line_52">
        <line x1="1539.75" y1="972" x2="1539.75" y2="1042.6" marker-end="url(#FilledArrow_Marker)" stroke="black" stroke-linecap="round" stroke-linejoin="round" stroke-width="1"/>
      </g>
      <g id="Line_75">
        <path d="M 1219.5 829 L 1539.8863 829 L 1539.8863 915.1009" marker-end="url(#FilledArrow_Marker)" stroke="black" stroke-linecap="round" stroke-linejoin="round" stroke-width="1"/>
      </g>
      <g id="Line_76">
        <path d="M 905.75 987.5 L 815.1224 987.5 L 815.1224 1052.5" stroke="#f05a26" stroke-linecap="round" stroke-linejoin="round" stroke-width="2"/>
      </g>
      <g id="Line_77">
        <path d="M 1498.5758 1052.5 L 1498.5758 987.5 L 1447.15 987.5" marker-end="url(#FilledArrow_Marker_2)" stroke="#f05a26" stroke-linecap="round" stroke-linejoin="round" stroke-width="2"/>
      </g>
      <g id="Line_78">
        <line x1="1466.5" y1="1077.5294" x2="861.0099" y2="1077.1913" stroke="#f05a26" stroke-linecap="round" stroke-linejoin="round" stroke-width="2"/>
      </g>
      <g id="Graphic_81">
        <text transform="translate(1641.125 1009.48) rotate(-90)" fill="#f05a26">
          <tspan font-family="Helvetica Neue" font-style="italic" font-size="16" fill="#f05a26" x="0" y="15" xml:space="preserve">User Space</tspan>
        </text>
      </g>
      <g id="Graphic_82">
        <text transform="translate(1641.125 1146.106) rotate(-90)" fill="#f05a26">
          <tspan font-family="Helvetica Neue" font-style="italic" font-size="16" fill="#f05a26" x="0" y="15" xml:space="preserve">Kernel Space</tspan>
        </text>
      </g>
      <g id="Line_83">
        <path d="M 861.0099 1062.3046 L 1080.4919 1062.3046 L 1080.4919 948.5 L 1094.6 948.5" marker-end="url(#FilledArrow_Marker_2)" stroke="#f05a26" stroke-linecap="round" stroke-linejoin="round" stroke-dasharray="8.0,8.0" stroke-width="2"/>
      </g>
      <g id="Line_84">
        <path d="M 1219.5 948.5 L 1236.1733 948.5 L 1236.1733 1061.4205 L 1453.6 1061.4205" marker-end="url(#FilledArrow_Marker_2)" stroke="#f05a26" stroke-linecap="round" stroke-linejoin="round" stroke-dasharray="8.0,8.0" stroke-width="2"/>
      </g>
      <g id="Graphic_85">
        <text transform="translate(1104.668 977)" fill="black">
          <tspan font-family="Helvetica Neue" font-size="16" fill="black" x="3339551e-19" y="15" xml:space="preserve">Advanced Mode</tspan>
        </text>
      </g>
      <g id="Graphic_86">
        <text transform="translate(1112.5 1096.276)" fill="black">
          <tspan font-family="Helvetica Neue" font-size="16" fill="black" x="8881784e-19" y="15" xml:space="preserve">Simple Mode</tspan>
        </text>
      </g>
      <g id="Graphic_87">
        <rect x="768.0959" y="844.5816" width="39.328" height="28.447998" fill="white"/>
        <text transform="translate(773.0959 849.5816)" fill="black">
          <tspan font-family="Helvetica Neue" font-style="italic" font-size="16" fill="black" x="6679102e-19" y="15" xml:space="preserve">xDS</tspan>
        </text>
      </g>
      <g id="Graphic_88">
        <rect x="1520.2223" y="844.4105" width="39.328" height="28.447998" fill="white"/>
        <text transform="translate(1525.2223 849.4105)" fill="black">
          <tspan font-family="Helvetica Neue" font-style="italic" font-size="16" fill="black" x="6679102e-19" y="15" xml:space="preserve">xDS</tspan>
        </text>
      </g>
      <g id="Graphic_91">
        <title>XMLID_505_</title>
        <path d="M 953.8058 1072.8046 L 966.5331 1072.8046 C 967.0603 1072.8046 967.4876 1072.3772 967.4876 1071.85 L 967.4876 1061.0318 C 967.4876 1060.5047 967.0603 1060.0773 966.5331 1060.0773 L 965.5785 1060.0773 L 965.5785 1057.2137 C 965.5785 1054.2311 963.152 1051.8046 960.1695 1051.8046 C 957.1869 1051.8046 954.7604 1054.2311 954.7604 1057.2137 L 954.7604 1060.0773 L 953.8058 1060.0773 C 953.2787 1060.0773 952.8513 1060.5047 952.8513 1061.0318 L 952.8513 1071.85 C 952.8513 1072.3772 953.2787 1072.8046 953.8058 1072.8046 Z M 962.8728 1065.7636 L 960.1682 1068.4681 C 959.9819 1068.6545 959.7376 1068.7478 959.4933 1068.7478 C 959.2491 1068.7478 959.0047 1068.6545 958.8184 1068.4681 L 957.4661 1067.1159 C 957.0933 1066.7431 957.0933 1066.1388 957.4661 1065.766 C 957.8388 1065.3932 958.4433 1065.3932 958.816 1065.766 L 959.4934 1066.4432 L 961.523 1064.4137 C 961.8957 1064.0409 962.5001 1064.0409 962.8729 1064.4137 C 963.2456 1064.7865 963.2456 1065.3908 962.8728 1065.7636 Z M 956.6695 1057.2137 C 956.6695 1055.2838 958.2396 1053.7137 960.1695 1053.7137 C 962.0994 1053.7137 963.6695 1055.2838 963.6695 1057.2137 L 963.6695 1060.0773 L 956.6695 1060.0773 Z" fill="#68bc36"/>
      </g>
      <g id="Graphic_92">
        <title>XMLID_505_</title>
        <path d="M 1150.042 1088.6462 L 1162.7693 1088.6462 C 1163.2965 1088.6462 1163.7238 1088.2188 1163.7238 1087.6916 L 1163.7238 1076.8735 C 1163.7238 1076.3463 1163.2965 1075.9189 1162.7693 1075.9189 L 1161.8148 1075.9189 L 1161.8148 1073.0553 C 1161.8148 1070.0727 1159.3882 1067.6462 1156.4057 1067.6462 C 1153.4231 1067.6462 1150.9966 1070.0727 1150.9966 1073.0553 L 1150.9966 1075.9189 L 1150.042 1075.9189 C 1149.5149 1075.9189 1149.0875 1076.3463 1149.0875 1076.8735 L 1149.0875 1087.6916 C 1149.0875 1088.2188 1149.5149 1088.6462 1150.042 1088.6462 Z M 1159.109 1081.6052 L 1156.4045 1084.3098 C 1156.218 1084.4961 1155.9738 1084.5894 1155.7295 1084.5894 C 1155.4853 1084.5894 1155.2409 1084.4961 1155.0546 1084.3098 L 1153.7023 1082.9575 C 1153.3295 1082.5847 1153.3295 1081.9804 1153.7023 1081.6076 C 1154.075 1081.2348 1154.6795 1081.2348 1155.0522 1081.6076 L 1155.7296 1082.2848 L 1157.7592 1080.2553 C 1158.1319 1079.8825 1158.7363 1079.8825 1159.1091 1080.2553 C 1159.4818 1080.6281 1159.4818 1081.2324 1159.109 1081.6052 Z M 1152.9057 1073.0553 C 1152.9057 1071.1254 1154.4758 1069.5553 1156.4057 1069.5553 C 1158.3356 1069.5553 1159.9057 1071.1254 1159.9057 1073.0553 L 1159.9057 1075.9189 L 1152.9057 1075.9189 Z" fill="#68bc36"/>
      </g>
      <g id="Graphic_93">
        <title>XMLID_505_</title>
        <path d="M 1367.7086 1071.9205 L 1380.4359 1071.9205 C 1380.963 1071.9205 1381.3904 1071.4931 1381.3904 1070.9659 L 1381.3904 1060.1477 C 1381.3904 1059.6206 1380.963 1059.1932 1380.4359 1059.1932 L 1379.4813 1059.1932 L 1379.4813 1056.3295 C 1379.4813 1053.347 1377.0548 1050.9205 1374.0722 1050.9205 C 1371.0897 1050.9205 1368.6631 1053.347 1368.6631 1056.3295 L 1368.6631 1059.1932 L 1367.7086 1059.1932 C 1367.1814 1059.1932 1366.754 1059.6206 1366.754 1060.1477 L 1366.754 1070.9659 C 1366.754 1071.4931 1367.1814 1071.9205 1367.7086 1071.9205 Z M 1376.7756 1064.8795 L 1374.071 1067.584 C 1373.8846 1067.7704 1373.6403 1067.8636 1373.3961 1067.8636 C 1373.1519 1067.8636 1372.9075 1067.7704 1372.7212 1067.584 L 1371.3689 1066.2317 C 1370.9961 1065.859 1370.9961 1065.2547 1371.3689 1064.8818 C 1371.7416 1064.509 1372.346 1064.509 1372.7188 1064.8818 L 1373.3962 1065.5591 L 1375.4258 1063.5296 C 1375.7985 1063.1568 1376.4029 1063.1568 1376.7757 1063.5296 C 1377.1484 1063.9024 1377.1484 1064.5067 1376.7756 1064.8795 Z M 1370.5722 1056.3295 C 1370.5722 1054.3996 1372.1423 1052.8295 1374.0722 1052.8295 C 1376.0021 1052.8295 1377.5722 1054.3996 1377.5722 1056.3295 L 1377.5722 1059.1932 L 1370.5722 1059.1932 Z" fill="#68bc36"/>
      </g>
    </g>
  </g>
</svg>
