<?xml version="1.0" encoding="UTF-8" standalone="no"?>
<!DOCTYPE svg PUBLIC "-//W3C//DTD SVG 1.1//EN" "http://www.w3.org/Graphics/SVG/1.1/DTD/svg11.dtd">
<svg version="1.1" xmlns:dc="http://purl.org/dc/elements/1.1/" xmlns="http://www.w3.org/2000/svg" xmlns:xl="http://www.w3.org/1999/xlink" viewBox="563 526 1106 659" width="1106" height="659">
  <defs>
    <marker orient="auto" overflow="visible" markerUnits="strokeWidth" id="FilledArrow_Marker" stroke-linejoin="miter" stroke-miterlimit="10" viewBox="-1 -3 7 6" markerWidth="7" markerHeight="6" color="black">
      <g>
        <path d="M 4.8 0 L 0 -1.8 L 0 1.8 Z" fill="currentColor" stroke="currentColor" stroke-width="1"/>
      </g>
    </marker>
  </defs>
  <g id="Sidecar_Mode" fill-opacity="1" stroke="none" stroke-opacity="1" stroke-dasharray="none" fill="none">
    <title>sidecar-mode</title>
    <rect fill="white" x="563" y="526" width="1106" height="659"/>
    <g id="Sidecar_Mode_Layer_1">
      <title>Layer 1</title>
      <g id="Graphic_23">
        <rect x="563.5625" y="526" width="1105" height="659" fill="white"/>
      </g>
      <g id="Graphic_22">
        <rect x="1004.2812" y="580.64575" width="223.5625" height="526.85425" fill="#fbfbfb"/>
        <rect x="1004.2812" y="580.64575" width="223.5625" height="526.85425" stroke="black" stroke-linecap="round" stroke-linejoin="round" stroke-width="1"/>
        <text transform="translate(1009.2812 1083.0359)" fill="black">
          <tspan font-family="Helvetica Neue" font-size="16" fill="black" x="75.81325" y="16" xml:space="preserve">Network</tspan>
        </text>
      </g>
      <g id="Graphic_12">
        <path d="M 597.375 557 L 1020.125 557 C 1022.3341 557 1024.125 558.79086 1024.125 561 L 1024.125 1150 C 1024.125 1152.2091 1022.3341 1154 1020.125 1154 L 597.375 1154 C 595.16586 1154 593.375 1152.2091 593.375 1150 L 593.375 561 C 593.375 558.79086 595.16586 557 597.375 557 Z" fill="#f3f3f3"/>
        <path d="M 597.375 557 L 1020.125 557 C 1022.3341 557 1024.125 558.79086 1024.125 561 L 1024.125 1150 C 1024.125 1152.2091 1022.3341 1154 1020.125 1154 L 597.375 1154 C 595.16586 1154 593.375 1152.2091 593.375 1150 L 593.375 561 C 593.375 558.79086 595.16586 557 597.375 557 Z" stroke="black" stroke-linecap="round" stroke-linejoin="round" stroke-width="1"/>
        <text transform="translate(598.375 1129.5359)" fill="black">
          <tspan font-family="Helvetica Neue" font-size="16" fill="black" x="348.142" y="16" xml:space="preserve">Node(VM)</tspan>
        </text>
      </g>
      <g id="Graphic_10">
        <path d="M 626.625 864 L 990.875 864 C 993.0841 864 994.875 865.7909 994.875 868 L 994.875 1103.5 C 994.875 1105.7091 993.0841 1107.5 990.875 1107.5 L 626.625 1107.5 C 624.41586 1107.5 622.625 1105.7091 622.625 1103.5 L 622.625 868 C 622.625 865.7909 624.41586 864 626.625 864 Z" fill="#d9d9d9"/>
        <path d="M 626.625 864 L 990.875 864 C 993.0841 864 994.875 865.7909 994.875 868 L 994.875 1103.5 C 994.875 1105.7091 993.0841 1107.5 990.875 1107.5 L 626.625 1107.5 C 624.41586 1107.5 622.625 1105.7091 622.625 1103.5 L 622.625 868 C 622.625 865.7909 624.41586 864 626.625 864 Z" stroke="#666" stroke-linecap="round" stroke-linejoin="round" stroke-width="1"/>
        <text transform="translate(627.625 1083.0359)" fill="black">
          <tspan font-family="Helvetica Neue" font-size="16" fill="black" x="258.49" y="16" xml:space="preserve">Pod (cgroups)</tspan>
        </text>
      </g>
      <g id="Graphic_5">
        <path d="M 626.625 580.64575 L 990.875 580.64575 C 993.0841 580.64575 994.875 582.4366 994.875 584.64575 L 994.875 820.1458 C 994.875 822.3549 993.0841 824.1458 990.875 824.1458 L 626.625 824.1458 C 624.41586 824.1458 622.625 822.3549 622.625 820.1458 L 622.625 584.64575 C 622.625 582.4366 624.41586 580.64575 626.625 580.64575 Z" fill="#d9d9d9"/>
        <path d="M 626.625 580.64575 L 990.875 580.64575 C 993.0841 580.64575 994.875 582.4366 994.875 584.64575 L 994.875 820.1458 C 994.875 822.3549 993.0841 824.1458 990.875 824.1458 L 626.625 824.1458 C 624.41586 824.1458 622.625 822.3549 622.625 820.1458 L 622.625 584.64575 C 622.625 582.4366 624.41586 580.64575 626.625 580.64575 Z" stroke="#666" stroke-linecap="round" stroke-linejoin="round" stroke-width="1"/>
        <text transform="translate(627.625 799.6816)" fill="black">
          <tspan font-family="Helvetica Neue" font-size="16" fill="black" x="258.49" y="16" xml:space="preserve">Pod (cgroups)</tspan>
        </text>
      </g>
      <g id="Graphic_2">
        <path d="M 645 605 L 972.5 605 C 974.7091 605 976.5 606.79086 976.5 609 L 976.5 669 C 976.5 671.2091 974.7091 673 972.5 673 L 645 673 C 642.79086 673 641 671.2091 641 669 L 641 609 C 641 606.79086 642.79086 605 645 605 Z" fill="#666"/>
        <text transform="translate(646 629.26794)" fill="white">
          <tspan font-family="Helvetica Neue" font-size="16" fill="white" x="76.054" y="16" xml:space="preserve">Application 1 Container</tspan>
        </text>
      </g>
      <g id="Graphic_3">
        <title>Proxy</title>
        <path d="M 645 714.5 L 972.5 714.5 C 974.7091 714.5 976.5 716.2909 976.5 718.5 L 976.5 778.5 C 976.5 780.7091 974.7091 782.5 972.5 782.5 L 645 782.5 C 642.79086 782.5 641 780.7091 641 778.5 L 641 718.5 C 641 716.2909 642.79086 714.5 645 714.5 Z" fill="#f15623"/>
        <text transform="translate(646 738.76794)" fill="white">
          <tspan font-family="Helvetica Neue" font-size="16" fill="white" x="111.998" y="16" xml:space="preserve">L4 + L7 Proxy</tspan>
        </text>
      </g>
      <g id="Line_4">
        <line x1="808.75" y1="673" x2="808.75" y2="701.6" marker-end="url(#FilledArrow_Marker)" stroke="black" stroke-linecap="round" stroke-linejoin="round" stroke-width="2"/>
      </g>
      <g id="Graphic_8">
        <path d="M 645 889 L 972.5 889 C 974.7091 889 976.5 890.7909 976.5 893 L 976.5 953 C 976.5 955.2091 974.7091 957 972.5 957 L 645 957 C 642.79086 957 641 955.2091 641 953 L 641 893 C 641 890.7909 642.79086 889 645 889 Z" fill="#666"/>
        <text transform="translate(646 913.2679)" fill="white">
          <tspan font-family="Helvetica Neue" font-size="16" fill="white" x="76.054" y="16" xml:space="preserve">Application 2 Container</tspan>
        </text>
      </g>
      <g id="Graphic_7">
        <title>Proxy</title>
        <path d="M 645 998.5 L 972.5 998.5 C 974.7091 998.5 976.5 1000.2909 976.5 1002.5 L 976.5 1062.5 C 976.5 1064.7091 974.7091 1066.5 972.5 1066.5 L 645 1066.5 C 642.79086 1066.5 641 1064.7091 641 1062.5 L 641 1002.5 C 641 1000.2909 642.79086 998.5 645 998.5 Z" fill="#f15623"/>
        <text transform="translate(646 1022.768)" fill="white">
          <tspan font-family="Helvetica Neue" font-size="16" fill="white" x="111.998" y="16" xml:space="preserve">L4 + L7 Proxy</tspan>
        </text>
      </g>
      <g id="Line_11">
        <line x1="808.75" y1="998.5" x2="808.75" y2="969.9" marker-end="url(#FilledArrow_Marker)" stroke="black" stroke-linecap="round" stroke-linejoin="round" stroke-width="2"/>
      </g>
      <g id="Graphic_13">
        <path d="M 1212 557 L 1634.75 557 C 1636.9591 557 1638.75 558.79086 1638.75 561 L 1638.75 1150 C 1638.75 1152.2091 1636.9591 1154 1634.75 1154 L 1212 1154 C 1209.7909 1154 1208 1152.2091 1208 1150 L 1208 561 C 1208 558.79086 1209.7909 557 1212 557 Z" fill="#f3f3f3"/>
        <path d="M 1212 557 L 1634.75 557 C 1636.9591 557 1638.75 558.79086 1638.75 561 L 1638.75 1150 C 1638.75 1152.2091 1636.9591 1154 1634.75 1154 L 1212 1154 C 1209.7909 1154 1208 1152.2091 1208 1150 L 1208 561 C 1208 558.79086 1209.7909 557 1212 557 Z" stroke="black" stroke-linecap="round" stroke-linejoin="round" stroke-width="1"/>
        <text transform="translate(1213 1129.5359)" fill="black">
          <tspan font-family="Helvetica Neue" font-size="16" fill="black" x="348.142" y="16" xml:space="preserve">Node(VM)</tspan>
        </text>
      </g>
      <g id="Graphic_16">
        <path d="M 1241.25 580.64575 L 1605.5 580.64575 C 1607.7091 580.64575 1609.5 582.4366 1609.5 584.64575 L 1609.5 820.1458 C 1609.5 822.3549 1607.7091 824.1458 1605.5 824.1458 L 1241.25 824.1458 C 1239.0409 824.1458 1237.25 822.3549 1237.25 820.1458 L 1237.25 584.64575 C 1237.25 582.4366 1239.0409 580.64575 1241.25 580.64575 Z" fill="#d9d9d9"/>
        <path d="M 1241.25 580.64575 L 1605.5 580.64575 C 1607.7091 580.64575 1609.5 582.4366 1609.5 584.64575 L 1609.5 820.1458 C 1609.5 822.3549 1607.7091 824.1458 1605.5 824.1458 L 1241.25 824.1458 C 1239.0409 824.1458 1237.25 822.3549 1237.25 820.1458 L 1237.25 584.64575 C 1237.25 582.4366 1239.0409 580.64575 1241.25 580.64575 Z" stroke="#666" stroke-linecap="round" stroke-linejoin="round" stroke-width="1"/>
        <text transform="translate(1242.25 799.6816)" fill="black">
          <tspan font-family="Helvetica Neue" font-size="16" fill="black" x="258.49" y="16" xml:space="preserve">Pod (cgroups)</tspan>
        </text>
      </g>
      <g id="Graphic_15">
        <path d="M 1259.625 605 L 1587.125 605 C 1589.3341 605 1591.125 606.79086 1591.125 609 L 1591.125 669 C 1591.125 671.2091 1589.3341 673 1587.125 673 L 1259.625 673 C 1257.4159 673 1255.625 671.2091 1255.625 669 L 1255.625 609 C 1255.625 606.79086 1257.4159 605 1259.625 605 Z" fill="#666"/>
        <text transform="translate(1260.625 629.26794)" fill="white">
          <tspan font-family="Helvetica Neue" font-size="16" fill="white" x="76.054" y="16" xml:space="preserve">Application 3 Container</tspan>
        </text>
      </g>
      <g id="Graphic_14">
        <title>Proxy</title>
        <path d="M 1259.625 714.5 L 1587.125 714.5 C 1589.3341 714.5 1591.125 716.2909 1591.125 718.5 L 1591.125 778.5 C 1591.125 780.7091 1589.3341 782.5 1587.125 782.5 L 1259.625 782.5 C 1257.4159 782.5 1255.625 780.7091 1255.625 778.5 L 1255.625 718.5 C 1255.625 716.2909 1257.4159 714.5 1259.625 714.5 Z" fill="#f15623"/>
        <text transform="translate(1260.625 738.76794)" fill="white">
          <tspan font-family="Helvetica Neue" font-size="16" fill="white" x="111.998" y="16" xml:space="preserve">L4 + L7 Proxy</tspan>
        </text>
      </g>
      <g id="Line_17">
        <line x1="1423.375" y1="714.5" x2="1423.375" y2="685.9" marker-end="url(#FilledArrow_Marker)" stroke="black" stroke-linecap="round" stroke-linejoin="round" stroke-width="2"/>
      </g>
      <g id="Line_18">
        <line x1="976.5" y1="748.5" x2="1242.725" y2="748.5" marker-end="url(#FilledArrow_Marker)" stroke="black" stroke-linecap="round" stroke-linejoin="round" stroke-width="2"/>
      </g>
      <g id="Line_21">
        <path d="M 976.5 748.3252 C 982.7359 754.1398 988.239 761.2708 992.7641 769.94135 C 1032.1828 845.4712 1021.7742 948.2345 982.7765 1022.4386" marker-end="url(#FilledArrow_Marker)" stroke="black" stroke-linecap="round" stroke-linejoin="round" stroke-width="2"/>
      </g>
    </g>
  </g>
</svg>
