<?xml version="1.0" encoding="UTF-8" standalone="no"?>
<!DOCTYPE svg PUBLIC "-//W3C//DTD SVG 1.1//EN" "http://www.w3.org/Graphics/SVG/1.1/DTD/svg11.dtd">
<svg xmlns:xl="http://www.w3.org/1999/xlink" xmlns:dc="http://purl.org/dc/elements/1.1/" xmlns="http://www.w3.org/2000/svg" version="1.1" viewBox="321 -682 1013 581" width="1013" height="581">
  <defs>
    <marker orient="auto" overflow="visible" markerUnits="strokeWidth" id="FilledArrow_Marker" stroke-linejoin="miter" stroke-miterlimit="10" viewBox="-1 -4 10 8" markerWidth="10" markerHeight="8" color="#456bb0">
      <g>
        <path d="M 8 0 L 0 -3 L 0 3 Z" fill="currentColor" stroke="currentColor" stroke-width="1"/>
      </g>
    </marker>
    <marker orient="auto" overflow="visible" markerUnits="strokeWidth" id="FilledArrow_Marker_2" stroke-linejoin="miter" stroke-miterlimit="10" viewBox="-1 -3 6 6" markerWidth="6" markerHeight="6" color="#ff2600">
      <g>
        <path d="M 3.7333333 0 L 0 -1.4 L 0 1.4 Z" fill="currentColor" stroke="currentColor" stroke-width="1"/>
      </g>
    </marker>
    <marker orient="auto" overflow="visible" markerUnits="strokeWidth" id="FilledArrow_Marker_3" stroke-linejoin="miter" stroke-miterlimit="10" viewBox="-1 -4 10 8" markerWidth="10" markerHeight="8" color="black">
      <g>
        <path d="M 8 0 L 0 -3 L 0 3 Z" fill="currentColor" stroke="currentColor" stroke-width="1"/>
      </g>
    </marker>
    <marker orient="auto" overflow="visible" markerUnits="strokeWidth" id="FilledArrow_Marker_4" stroke-linejoin="miter" stroke-miterlimit="10" viewBox="-1 -3 6 6" markerWidth="6" markerHeight="6" color="#0432ff">
      <g>
        <path d="M 3.7333333 0 L 0 -1.4 L 0 1.4 Z" fill="currentColor" stroke="currentColor" stroke-width="1"/>
      </g>
    </marker>
  </defs>
  <g id="cross-node-hbone" fill-opacity="1" stroke="none" stroke-dasharray="none" fill="none" stroke-opacity="1">
    <title>cross-node-hbone</title>
    <rect fill="white" x="321" y="-682" width="1013" height="581"/>
    <g id="cross-node-hbone_Layer_1">
      <title>Layer 1</title>
      <g id="Graphic_80"/>
      <g id="Graphic_35">
        <path d="M 342 -664 L 1084.5 -664 C 1086.7091 -664 1088.5 -662.2091 1088.5 -660 L 1088.5 -125 C 1088.5 -122.79086 1086.7091 -121 1084.5 -121 L 342 -121 C 339.79086 -121 338 -122.79086 338 -125 L 338 -660 C 338 -662.2091 339.79086 -664 342 -664 Z" stroke="#a5a5a5" stroke-linecap="round" stroke-linejoin="round" stroke-width="1"/>
        <text transform="translate(343 -144.448)" fill="#666">
          <tspan font-family="Helvetica Neue" font-size="16" fill="#666" x="350.842" y="15" xml:space="preserve">Node</tspan>
        </text>
      </g>
      <g id="Graphic_49">
        <path d="M 363.6346 -258.85244 L 807.737 -258.85244 C 809.9461 -258.85244 811.737 -257.06157 811.737 -254.85244 L 811.737 -172.85244 C 811.737 -170.6433 809.9461 -168.85244 807.737 -168.85244 L 363.6346 -168.85244 C 361.42547 -168.85244 359.6346 -170.6433 359.6346 -172.85244 L 359.6346 -254.85244 C 359.6346 -257.06157 361.42547 -258.85244 363.6346 -258.85244 Z" fill="#d1d1d1"/>
        <text transform="translate(364.6346 -192.30043)" fill="black">
          <tspan font-family="Helvetica Neue" font-size="16" fill="black" x="206.53118" y="15" xml:space="preserve">Pod</tspan>
        </text>
      </g>
      <g id="Graphic_33">
        <path d="M 363.6346 -632.5 L 807.737 -632.5 C 809.9461 -632.5 811.737 -630.70914 811.737 -628.5 L 811.737 -546.5 C 811.737 -544.29086 809.9461 -542.5 807.737 -542.5 L 363.6346 -542.5 C 361.42547 -542.5 359.6346 -544.29086 359.6346 -546.5 L 359.6346 -628.5 C 359.6346 -630.70914 361.42547 -632.5 363.6346 -632.5 Z" fill="#d1d1d1"/>
        <text transform="translate(364.6346 -565.948)" fill="black">
          <tspan font-family="Helvetica Neue" font-size="16" fill="black" x="206.53118" y="15" xml:space="preserve">Pod</tspan>
        </text>
      </g>
      <g id="Graphic_31">
        <path d="M 379 -239.93276 L 495 -239.93276 C 497.20914 -239.93276 499 -238.1419 499 -235.93276 L 499 -191.93276 C 499 -189.72363 497.20914 -187.93276 495 -187.93276 L 379 -187.93276 C 376.79086 -187.93276 375 -189.72363 375 -191.93276 L 375 -235.93276 C 375 -238.1419 376.79086 -239.93276 379 -239.93276 Z" fill="#787cc4"/>
        <text transform="translate(380 -232.38076)" fill="white">
          <tspan font-family="Helvetica Neue" font-size="16" fill="white" x="31.664" y="15" xml:space="preserve">Source </tspan>
          <tspan font-family="Helvetica Neue" font-size="16" fill="white" x="23.232" y="33.448" xml:space="preserve">Workload</tspan>
        </text>
      </g>
      <g id="Graphic_30">
        <path d="M 499 -239.93276 L 528.348 -239.93276 L 543 -213.93276 L 528.348 -187.93276 L 499 -187.93276 Z" fill="#ff8080"/>
        <text transform="translate(522.92 -234.93276) rotate(90)" fill="white">
          <tspan font-family="Helvetica Neue" font-size="16" fill="white" x="12.104" y="15" xml:space="preserve">80</tspan>
        </text>
      </g>
      <g id="Graphic_28">
        <path d="M 941.5 -492 L 1057.5 -492 C 1059.7091 -492 1061.5 -490.20914 1061.5 -488 L 1061.5 -444 C 1061.5 -441.79086 1059.7091 -440 1057.5 -440 L 941.5 -440 C 939.2909 -440 937.5 -441.79086 937.5 -444 L 937.5 -488 C 937.5 -490.20914 939.2909 -492 941.5 -492 Z" fill="#456bb0"/>
        <text transform="translate(942.5 -475.73206)" fill="white">
          <tspan font-family="Helvetica Neue" font-size="16" fill="white" x="30.184" y="16" xml:space="preserve">ztunnel</tspan>
        </text>
      </g>
      <g id="Graphic_27">
        <path d="M 1197 -436 L 1313 -436 C 1315.2091 -436 1317 -434.20914 1317 -432 L 1317 -388 C 1317 -385.79086 1315.2091 -384 1313 -384 L 1197 -384 C 1194.7909 -384 1193 -385.79086 1193 -388 L 1193 -432 C 1193 -434.20914 1194.7909 -436 1197 -436 Z" fill="#456bb0"/>
        <text transform="translate(1198 -419.73206)" fill="white">
          <tspan font-family="Helvetica Neue" font-size="16" fill="white" x="36.696" y="16" xml:space="preserve">istiod</tspan>
        </text>
      </g>
      <g id="Line_25">
        <line x1="1193" y1="-423.58904" x2="1071.1704" y2="-450.2914" marker-end="url(#FilledArrow_Marker)" stroke="#456bb0" stroke-linecap="round" stroke-linejoin="round" stroke-dasharray="4.0,4.0" stroke-width="1"/>
      </g>
      <g id="Graphic_22">
        <text transform="translate(1123.08 -424.336)" fill="black">
          <tspan font-family="Helvetica Neue" font-style="italic" font-size="12" fill="black" x="6.672" y="11" xml:space="preserve">xDS</tspan>
          <tspan font-family="Helvetica Neue" font-style="italic" font-size="12" fill="black" x="7105427e-20" y="25.336" xml:space="preserve">Config</tspan>
        </text>
      </g>
      <g id="Graphic_21">
        <path d="M 380.3226 -613.75 L 496.3226 -613.75 C 498.53176 -613.75 500.3226 -611.95914 500.3226 -609.75 L 500.3226 -565.75 C 500.3226 -563.54086 498.53176 -561.75 496.3226 -561.75 L 380.3226 -561.75 C 378.1135 -561.75 376.3226 -563.54086 376.3226 -565.75 L 376.3226 -609.75 C 376.3226 -611.95914 378.1135 -613.75 380.3226 -613.75 Z" fill="#787cc4"/>
        <text transform="translate(381.3226 -606.198)" fill="white">
          <tspan font-family="Helvetica Neue" font-size="16" fill="white" x="16.696" y="15" xml:space="preserve">Destination </tspan>
          <tspan font-family="Helvetica Neue" font-size="16" fill="white" x="23.232" y="33.448" xml:space="preserve">Workload</tspan>
        </text>
      </g>
      <g id="Graphic_20">
        <path d="M 500.3226 -613.75 L 529.6706 -613.75 L 544.3226 -587.75 L 529.6706 -561.75 L 500.3226 -561.75 Z" fill="#ff8080"/>
        <text transform="translate(524.2426 -608.75) rotate(90)" fill="white">
          <tspan font-family="Helvetica Neue" font-size="16" fill="white" x="12.104" y="15" xml:space="preserve">80</tspan>
        </text>
      </g>
      <g id="Graphic_2">
        <path d="M 666.5 -239.68276 L 782.5 -239.68276 C 784.7091 -239.68276 786.5 -237.8919 786.5 -235.68276 L 786.5 -191.68276 C 786.5 -189.47363 784.7091 -187.68276 782.5 -187.68276 L 666.5 -187.68276 C 664.2909 -187.68276 662.5 -189.47363 662.5 -191.68276 L 662.5 -235.68276 C 662.5 -237.8919 664.2909 -239.68276 666.5 -239.68276 Z" fill="#ff8080"/>
        <path d="M 666.5 -239.68276 L 782.5 -239.68276 C 784.7091 -239.68276 786.5 -237.8919 786.5 -235.68276 L 786.5 -191.68276 C 786.5 -189.47363 784.7091 -187.68276 782.5 -187.68276 L 666.5 -187.68276 C 664.2909 -187.68276 662.5 -189.47363 662.5 -191.68276 L 662.5 -235.68276 C 662.5 -237.8919 664.2909 -239.68276 666.5 -239.68276 Z" stroke="#a5a5a5" stroke-linecap="round" stroke-linejoin="round" stroke-width="1"/>
        <text transform="translate(667.5 -222.90676)" fill="white">
          <tspan font-family="Helvetica Neue" font-size="16" fill="white" x="28.848" y="15" xml:space="preserve">iptables</tspan>
        </text>
      </g>
      <g id="Graphic_41">
        <path d="M 787.8226 -561.5 L 787.8226 -538.63847 L 758.5726 -527.22484 L 729.3226 -538.63847 L 729.3226 -561.5 Z" fill="#ff8080"/>
        <clipPath id="clip_path">
          <path d="M 58.5 -11368684e-20 L 58.5 22.861532 L 29.25 34.27516 L 0 22.861532 L 0 0 Z" fill="#ff8080"/>
        </clipPath>
        <text clip-path="url(#clip_path)" transform="translate(729.3226 -561.5)" fill="white">
          <tspan font-family="Helvetica Neue" font-size="14" fill="white" x="9.614818" y="21" xml:space="preserve">15008</tspan>
        </text>
      </g>
      <g id="Graphic_46">
        <path d="M 662.5 -239.68276 L 662.5 -269.03076 L 687.193 -283.68276 L 711.886 -269.03076 L 711.886 -239.68276 Z" fill="#ff8080"/>
        <text transform="translate(667.5 -262.57476)" fill="white">
          <tspan font-family="Helvetica Neue" font-size="14" fill="white" x=".2330008" y="13" xml:space="preserve">15001</tspan>
        </text>
      </g>
      <g id="Line_47">
        <path d="M 543 -213.93276 L 555 -213.93276 L 650.5 -213.68276 L 662.5 -213.68276" stroke="#ff2600" stroke-linecap="round" stroke-linejoin="round" stroke-width="3"/>
      </g>
      <g id="Graphic_63">
        <path d="M 941.5 -351.5 L 1057.5 -351.5 C 1059.7091 -351.5 1061.5 -349.70914 1061.5 -347.5 L 1061.5 -303.5 C 1061.5 -301.29086 1059.7091 -299.5 1057.5 -299.5 L 941.5 -299.5 C 939.2909 -299.5 937.5 -301.29086 937.5 -303.5 L 937.5 -347.5 C 937.5 -349.70914 939.2909 -351.5 941.5 -351.5 Z" fill="#456bb0"/>
        <text transform="translate(942.5 -335.23206)" fill="white">
          <tspan font-family="Helvetica Neue" font-size="16" fill="white" x="30.184" y="16" xml:space="preserve">ztunnel</tspan>
        </text>
      </g>
      <g id="Line_64">
        <path d="M 687.193 -283.68276 L 687.193 -286.9489 L 687.2297 -286.9489 L 687.2297 -325.5 L 924.75 -325.5" marker-end="url(#FilledArrow_Marker_2)" stroke="#ff2600" stroke-linecap="round" stroke-linejoin="round" stroke-width="3"/>
      </g>
      <g id="Line_65">
        <path d="M 999.5 -492 L 999.5 -588.3664 L 786.2607 -588.3664 L 786.2607 -587.75 L 554.2226 -587.75" marker-end="url(#FilledArrow_Marker_3)" stroke="black" stroke-linecap="round" stroke-linejoin="round" stroke-width="1"/>
      </g>
      <g id="Line_66">
        <path d="M 758.5726 -527.22484 L 758.5726 -515.22484 L 758.3021 -503.8951 L 758.3021 -466 L 924.75 -466" marker-end="url(#FilledArrow_Marker_4)" stroke="#0432ff" stroke-linecap="round" stroke-linejoin="round" stroke-width="3"/>
      </g>
      <g id="Line_67">
        <path d="M 999.5 -351.5 L 999.5 -363.5 L 683.5 -363.5 L 683.5 -548.75" marker-end="url(#FilledArrow_Marker_4)" stroke="#0432ff" stroke-linecap="round" stroke-linejoin="round" stroke-width="3"/>
      </g>
      <g id="Graphic_68">
        <rect x="744.1557" y="-337.1663" width="104.464" height="24.335999" fill="white"/>
        <text transform="translate(749.1557 -332.1663)" fill="black">
          <tspan font-family="Helvetica Neue" font-style="italic" font-size="12" fill="black" x="0" y="11" xml:space="preserve">Outbound Socket</tspan>
        </text>
      </g>
      <g id="Graphic_69">
        <rect x="714.7366" y="-373.668" width="156.952" height="24.335999" fill="white"/>
        <text transform="translate(719.7366 -368.668)" fill="black">
          <tspan font-family="Helvetica Neue" font-style="italic" font-size="12" fill="black" x="0" y="11" xml:space="preserve">dst_pod_ip:15008 Encaped</tspan>
        </text>
      </g>
      <g id="Graphic_70">
        <rect x="802.0988" y="-478.168" width="92.428" height="24.335999" fill="white"/>
        <text transform="translate(807.0988 -473.168)" fill="black">
          <tspan font-family="Helvetica Neue" font-style="italic" font-size="12" fill="black" x="0" y="11" xml:space="preserve">HBONE Socket</tspan>
        </text>
      </g>
      <g id="Graphic_71">
        <rect x="830.9992" y="-600.5344" width="137.824" height="24.335999" fill="white"/>
        <text transform="translate(835.9992 -595.5344)" fill="black">
          <tspan font-family="Helvetica Neue" font-style="italic" font-size="12" fill="black" x="0" y="11" xml:space="preserve">dst_pod_ip:80 Decaped</tspan>
        </text>
      </g>
      <g id="Graphic_72">
        <rect x="963.492" y="-567.457" width="72.016" height="24.335999" fill="white"/>
        <text transform="translate(968.492 -562.457)" fill="black">
          <tspan font-family="Helvetica Neue" font-style="italic" font-size="12" fill="black" x="0" y="11" xml:space="preserve">0x539 mark</tspan>
        </text>
      </g>
      <g id="Graphic_18">
        <path d="M 667.8226 -613.5 L 783.8226 -613.5 C 786.0318 -613.5 787.8226 -611.70914 787.8226 -609.5 L 787.8226 -565.5 C 787.8226 -563.29086 786.0318 -561.5 783.8226 -561.5 L 667.8226 -561.5 C 665.6135 -561.5 663.8226 -563.29086 663.8226 -565.5 L 663.8226 -609.5 C 663.8226 -611.70914 665.6135 -613.5 667.8226 -613.5 Z" fill="#ff8080"/>
        <path d="M 667.8226 -613.5 L 783.8226 -613.5 C 786.0318 -613.5 787.8226 -611.70914 787.8226 -609.5 L 787.8226 -565.5 C 787.8226 -563.29086 786.0318 -561.5 783.8226 -561.5 L 667.8226 -561.5 C 665.6135 -561.5 663.8226 -563.29086 663.8226 -565.5 L 663.8226 -609.5 C 663.8226 -611.70914 665.6135 -613.5 667.8226 -613.5 Z" stroke="#a5a5a5" stroke-linecap="round" stroke-linejoin="round" stroke-width="1"/>
        <text transform="translate(668.8226 -596.724)" fill="white">
          <tspan font-family="Helvetica Neue" font-size="16" fill="white" x="28.848" y="15" xml:space="preserve">iptables</tspan>
        </text>
      </g>
      <g id="Line_78">
        <line x1="1193" y1="-389.4951" x2="1070.8993" y2="-349.11347" marker-end="url(#FilledArrow_Marker)" stroke="#456bb0" stroke-linecap="round" stroke-linejoin="round" stroke-dasharray="4.0,4.0" stroke-width="1"/>
      </g>
    </g>
  </g>
</svg>
