<?xml version="1.0" encoding="UTF-8" standalone="no"?>
<!DOCTYPE svg PUBLIC "-//W3C//DTD SVG 1.1//EN" "http://www.w3.org/Graphics/SVG/1.1/DTD/svg11.dtd">
<svg xmlns:xl="http://www.w3.org/1999/xlink" xmlns:dc="http://purl.org/dc/elements/1.1/" xmlns="http://www.w3.org/2000/svg" version="1.1" viewBox="318 -554 1025 456" width="1025" height="456">
  <defs>
    <marker orient="auto" overflow="visible" markerUnits="strokeWidth" id="FilledArrow_Marker" stroke-linejoin="miter" stroke-miterlimit="10" viewBox="-1 -4 10 8" markerWidth="10" markerHeight="8" color="#456bb0">
      <g>
        <path d="M 8 0 L 0 -3 L 0 3 Z" fill="currentColor" stroke="currentColor" stroke-width="1"/>
      </g>
    </marker>
    <marker orient="auto" overflow="visible" markerUnits="strokeWidth" id="FilledArrow_Marker_2" stroke-linejoin="miter" stroke-miterlimit="10" viewBox="-1 -3 6 6" markerWidth="6" markerHeight="6" color="#0432ff">
      <g>
        <path d="M 3.7333333 0 L 0 -1.4 L 0 1.4 Z" fill="currentColor" stroke="currentColor" stroke-width="1"/>
      </g>
    </marker>
    <marker orient="auto" overflow="visible" markerUnits="strokeWidth" id="FilledArrow_Marker_3" stroke-linejoin="miter" stroke-miterlimit="10" viewBox="-1 -3 6 6" markerWidth="6" markerHeight="6" color="#ff2600">
      <g>
        <path d="M 3.7333333 0 L 0 -1.4 L 0 1.4 Z" fill="currentColor" stroke="currentColor" stroke-width="1"/>
      </g>
    </marker>
    <marker orient="auto" overflow="visible" markerUnits="strokeWidth" id="FilledArrow_Marker_4" stroke-linejoin="miter" stroke-miterlimit="10" viewBox="-1 -4 10 8" markerWidth="10" markerHeight="8" color="black">
      <g>
        <path d="M 8 0 L 0 -3 L 0 3 Z" fill="currentColor" stroke="currentColor" stroke-width="1"/>
      </g>
    </marker>
  </defs>
  <g id="same-node-hbone" fill-opacity="1" stroke="none" stroke-dasharray="none" fill="none" stroke-opacity="1">
    <title>same-node-hbone</title>
    <rect fill="white" x="318" y="-554" width="1025" height="456"/>
    <g id="same-node-hbone_Layer_1">
      <title>Layer 1</title>
      <g id="Graphic_63"/>
      <g id="Graphic_49">
        <path d="M 363.6346 -258.85244 L 807.737 -258.85244 C 809.9461 -258.85244 811.737 -257.06157 811.737 -254.85244 L 811.737 -172.85244 C 811.737 -170.6433 809.9461 -168.85244 807.737 -168.85244 L 363.6346 -168.85244 C 361.42547 -168.85244 359.6346 -170.6433 359.6346 -172.85244 L 359.6346 -254.85244 C 359.6346 -257.06157 361.42547 -258.85244 363.6346 -258.85244 Z" fill="#d1d1d1"/>
        <text transform="translate(364.6346 -192.30043)" fill="black">
          <tspan font-family="Helvetica Neue" font-size="16" fill="black" x="206.53118" y="15" xml:space="preserve">Pod</tspan>
        </text>
      </g>
      <g id="Graphic_35">
        <path d="M 342 -530 L 1084.5 -530 C 1086.7091 -530 1088.5 -528.20914 1088.5 -526 L 1088.5 -125 C 1088.5 -122.79086 1086.7091 -121 1084.5 -121 L 342 -121 C 339.79086 -121 338 -122.79086 338 -125 L 338 -526 C 338 -528.20914 339.79086 -530 342 -530 Z" stroke="#a5a5a5" stroke-linecap="round" stroke-linejoin="round" stroke-width="1"/>
        <text transform="translate(343 -144.448)" fill="#666">
          <tspan font-family="Helvetica Neue" font-size="16" fill="#666" x="350.842" y="15" xml:space="preserve">Node</tspan>
        </text>
      </g>
      <g id="Graphic_33">
        <path d="M 362.312 -486.93276 L 806.4143 -486.93276 C 808.6235 -486.93276 810.4143 -485.1419 810.4143 -482.93276 L 810.4143 -400.93276 C 810.4143 -398.72363 808.6235 -396.93276 806.4143 -396.93276 L 362.312 -396.93276 C 360.10285 -396.93276 358.312 -398.72363 358.312 -400.93276 L 358.312 -482.93276 C 358.312 -485.1419 360.10285 -486.93276 362.312 -486.93276 Z" fill="#d1d1d1"/>
        <text transform="translate(363.312 -420.38076)" fill="black">
          <tspan font-family="Helvetica Neue" font-size="16" fill="black" x="206.53118" y="15" xml:space="preserve">Pod</tspan>
        </text>
      </g>
      <g id="Graphic_31">
        <path d="M 379 -239.93276 L 495 -239.93276 C 497.20914 -239.93276 499 -238.1419 499 -235.93276 L 499 -191.93276 C 499 -189.72363 497.20914 -187.93276 495 -187.93276 L 379 -187.93276 C 376.79086 -187.93276 375 -189.72363 375 -191.93276 L 375 -235.93276 C 375 -238.1419 376.79086 -239.93276 379 -239.93276 Z" fill="#787cc4"/>
        <text transform="translate(380 -232.38076)" fill="white">
          <tspan font-family="Helvetica Neue" font-size="16" fill="white" x="31.664" y="15" xml:space="preserve">Source </tspan>
          <tspan font-family="Helvetica Neue" font-size="16" fill="white" x="23.232" y="33.448" xml:space="preserve">Workload</tspan>
        </text>
      </g>
      <g id="Graphic_30">
        <path d="M 499 -239.93276 L 528.348 -239.93276 L 543 -213.93276 L 528.348 -187.93276 L 499 -187.93276 Z" fill="#ff8080"/>
        <text transform="translate(522.92 -234.93276) rotate(90)" fill="white">
          <tspan font-family="Helvetica Neue" font-size="16" fill="white" x="12.104" y="15" xml:space="preserve">80</tspan>
        </text>
      </g>
      <g id="Graphic_28">
        <path d="M 941.5 -351.28726 L 1057.5 -351.28726 C 1059.7091 -351.28726 1061.5 -349.4964 1061.5 -347.28726 L 1061.5 -303.28726 C 1061.5 -301.07813 1059.7091 -299.28726 1057.5 -299.28726 L 941.5 -299.28726 C 939.2909 -299.28726 937.5 -301.07813 937.5 -303.28726 L 937.5 -347.28726 C 937.5 -349.4964 939.2909 -351.28726 941.5 -351.28726 Z" fill="#456bb0"/>
        <text transform="translate(942.5 -335.01932)" fill="white">
          <tspan font-family="Helvetica Neue" font-size="16" fill="white" x="30.184" y="16" xml:space="preserve">ztunnel</tspan>
        </text>
      </g>
      <g id="Graphic_27">
        <path d="M 1202.5 -351.5 L 1318.5 -351.5 C 1320.7091 -351.5 1322.5 -349.70914 1322.5 -347.5 L 1322.5 -303.5 C 1322.5 -301.29086 1320.7091 -299.5 1318.5 -299.5 L 1202.5 -299.5 C 1200.2909 -299.5 1198.5 -301.29086 1198.5 -303.5 L 1198.5 -347.5 C 1198.5 -349.70914 1200.2909 -351.5 1202.5 -351.5 Z" fill="#456bb0"/>
        <text transform="translate(1203.5 -335.23206)" fill="white">
          <tspan font-family="Helvetica Neue" font-size="16" fill="white" x="36.696" y="16" xml:space="preserve">istiod</tspan>
        </text>
      </g>
      <g id="Line_25">
        <line x1="1198.5" y1="-325.44947" x2="1071.4" y2="-325.34587" marker-end="url(#FilledArrow_Marker)" stroke="#456bb0" stroke-linecap="round" stroke-linejoin="round" stroke-dasharray="4.0,4.0" stroke-width="1"/>
      </g>
      <g id="Graphic_22">
        <rect x="1121.7043" y="-344.74135" width="45.34" height="38.671997" fill="white"/>
        <text transform="translate(1126.7043 -339.74135)" fill="black">
          <tspan font-family="Helvetica Neue" font-style="italic" font-size="12" fill="black" x="6.672" y="11" xml:space="preserve">xDS</tspan>
          <tspan font-family="Helvetica Neue" font-style="italic" font-size="12" fill="black" x="7105427e-20" y="25.336" xml:space="preserve">Config</tspan>
        </text>
      </g>
      <g id="Graphic_21">
        <path d="M 379 -468.18276 L 495 -468.18276 C 497.20914 -468.18276 499 -466.3919 499 -464.18276 L 499 -420.18276 C 499 -417.97363 497.20914 -416.18276 495 -416.18276 L 379 -416.18276 C 376.79086 -416.18276 375 -417.97363 375 -420.18276 L 375 -464.18276 C 375 -466.3919 376.79086 -468.18276 379 -468.18276 Z" fill="#787cc4"/>
        <text transform="translate(380 -460.63076)" fill="white">
          <tspan font-family="Helvetica Neue" font-size="16" fill="white" x="16.696" y="15" xml:space="preserve">Destination </tspan>
          <tspan font-family="Helvetica Neue" font-size="16" fill="white" x="23.232" y="33.448" xml:space="preserve">Workload</tspan>
        </text>
      </g>
      <g id="Graphic_20">
        <path d="M 499 -468.18276 L 528.348 -468.18276 L 543 -442.18276 L 528.348 -416.18276 L 499 -416.18276 Z" fill="#ff8080"/>
        <text transform="translate(522.92 -463.18276) rotate(90)" fill="white">
          <tspan font-family="Helvetica Neue" font-size="16" fill="white" x="12.104" y="15" xml:space="preserve">80</tspan>
        </text>
      </g>
      <g id="Line_19">
        <path d="M 999.5 -351.28726 L 999.5 -421.6 L 799.25 -421.6" marker-end="url(#FilledArrow_Marker_2)" stroke="#0432ff" stroke-linecap="round" stroke-linejoin="round" stroke-width="3"/>
      </g>
      <g id="Graphic_7">
        <rect x="824.6282" y="-433.768" width="156.952" height="24.335999" fill="white"/>
        <text transform="translate(829.6282 -428.768)" fill="black">
          <tspan font-family="Helvetica Neue" font-style="italic" font-size="12" fill="black" x="0" y="11" xml:space="preserve">dst_pod_ip:15008 Encaped</tspan>
        </text>
      </g>
      <g id="Graphic_2">
        <path d="M 666.5 -239.68276 L 782.5 -239.68276 C 784.7091 -239.68276 786.5 -237.8919 786.5 -235.68276 L 786.5 -191.68276 C 786.5 -189.47363 784.7091 -187.68276 782.5 -187.68276 L 666.5 -187.68276 C 664.2909 -187.68276 662.5 -189.47363 662.5 -191.68276 L 662.5 -235.68276 C 662.5 -237.8919 664.2909 -239.68276 666.5 -239.68276 Z" fill="#ff8080"/>
        <path d="M 666.5 -239.68276 L 782.5 -239.68276 C 784.7091 -239.68276 786.5 -237.8919 786.5 -235.68276 L 786.5 -191.68276 C 786.5 -189.47363 784.7091 -187.68276 782.5 -187.68276 L 666.5 -187.68276 C 664.2909 -187.68276 662.5 -189.47363 662.5 -191.68276 L 662.5 -235.68276 C 662.5 -237.8919 664.2909 -239.68276 666.5 -239.68276 Z" stroke="#a5a5a5" stroke-linecap="round" stroke-linejoin="round" stroke-width="1"/>
        <text transform="translate(667.5 -222.90676)" fill="white">
          <tspan font-family="Helvetica Neue" font-size="16" fill="white" x="28.848" y="15" xml:space="preserve">iptables</tspan>
        </text>
      </g>
      <g id="Graphic_41">
        <path d="M 786.5 -415.93276 L 786.5 -393.07123 L 757.25 -381.6576 L 728 -393.07123 L 728 -415.93276 Z" fill="#ff8080"/>
        <clipPath id="clip_path">
          <path d="M 58.5 0 L 58.5 22.861532 L 29.25 34.27516 L 0 22.861532 L 0 0 Z" fill="#ff8080"/>
        </clipPath>
        <text clip-path="url(#clip_path)" transform="translate(728 -415.93276)" fill="white">
          <tspan font-family="Helvetica Neue" font-size="14" fill="white" x="9.614818" y="21" xml:space="preserve">15008</tspan>
        </text>
      </g>
      <g id="Graphic_46">
        <path d="M 662.5 -239.68276 L 662.5 -269.03076 L 687.193 -283.68276 L 711.886 -269.03076 L 711.886 -239.68276 Z" fill="#ff8080"/>
        <text transform="translate(667.5 -262.57476)" fill="white">
          <tspan font-family="Helvetica Neue" font-size="14" fill="white" x=".2330008" y="13" xml:space="preserve">15001</tspan>
        </text>
      </g>
      <g id="Line_47">
        <path d="M 543 -213.93276 L 555 -213.93276 L 650.5 -213.68276 L 662.5 -213.68276" stroke="#ff2600" stroke-linecap="round" stroke-linejoin="round" stroke-width="3"/>
      </g>
      <g id="Line_48">
        <path d="M 687.193 -283.68276 L 687.193 -324.81063 L 717.5636 -324.81063 L 917.75 -325.28726 L 924.75 -325.28726" marker-end="url(#FilledArrow_Marker_3)" stroke="#ff2600" stroke-linecap="round" stroke-linejoin="round" stroke-width="3"/>
      </g>
      <g id="Line_50">
        <path d="M 757.25 -381.6576 L 757.25 -370 L 965.3333 -370 L 965.3333 -364.03726" marker-end="url(#FilledArrow_Marker_2)" stroke="#0432ff" stroke-linecap="round" stroke-linejoin="round" stroke-width="3"/>
      </g>
      <g id="Graphic_51">
        <rect x="800.5059" y="-382.168" width="92.428" height="24.335999" fill="white"/>
        <text transform="translate(805.5059 -377.168)" fill="black">
          <tspan font-family="Helvetica Neue" font-style="italic" font-size="12" fill="black" x="0" y="11" xml:space="preserve">HBONE Socket</tspan>
        </text>
      </g>
      <g id="Graphic_37">
        <rect x="652.193" y="-317.59702" width="70" height="24.335999" fill="white"/>
        <text transform="translate(657.193 -312.59702)" fill="black">
          <tspan font-family="Helvetica Neue" font-style="italic" font-size="12" fill="black" x="0" y="11" xml:space="preserve">des_svc:80</tspan>
        </text>
      </g>
      <g id="Graphic_57">
        <rect x="744.1557" y="-337.1663" width="104.464" height="24.335999" fill="white"/>
        <text transform="translate(749.1557 -332.1663)" fill="black">
          <tspan font-family="Helvetica Neue" font-style="italic" font-size="12" fill="black" x="0" y="11" xml:space="preserve">Outbound Socket</tspan>
        </text>
      </g>
      <g id="Line_58">
        <path d="M 1041.5333 -351.28726 L 1041.5333 -443.13333 L 728 -443.13333 L 728 -442.18276 L 552.9 -442.18276" marker-end="url(#FilledArrow_Marker_4)" stroke="black" stroke-linecap="round" stroke-linejoin="round" stroke-width="1"/>
      </g>
      <g id="Graphic_59">
        <rect x="841.2048" y="-455.30133" width="137.824" height="24.335999" fill="white"/>
        <text transform="translate(846.2048 -450.30133)" fill="black">
          <tspan font-family="Helvetica Neue" font-style="italic" font-size="12" fill="black" x="0" y="11" xml:space="preserve">dst_pod_ip:80 Decaped</tspan>
        </text>
      </g>
      <g id="Graphic_18">
        <path d="M 666.5 -467.93276 L 782.5 -467.93276 C 784.7091 -467.93276 786.5 -466.1419 786.5 -463.93276 L 786.5 -419.93276 C 786.5 -417.72363 784.7091 -415.93276 782.5 -415.93276 L 666.5 -415.93276 C 664.2909 -415.93276 662.5 -417.72363 662.5 -419.93276 L 662.5 -463.93276 C 662.5 -466.1419 664.2909 -467.93276 666.5 -467.93276 Z" fill="#ff8080"/>
        <path d="M 666.5 -467.93276 L 782.5 -467.93276 C 784.7091 -467.93276 786.5 -466.1419 786.5 -463.93276 L 786.5 -419.93276 C 786.5 -417.72363 784.7091 -415.93276 782.5 -415.93276 L 666.5 -415.93276 C 664.2909 -415.93276 662.5 -417.72363 662.5 -419.93276 L 662.5 -463.93276 C 662.5 -466.1419 664.2909 -467.93276 666.5 -467.93276 Z" stroke="#a5a5a5" stroke-linecap="round" stroke-linejoin="round" stroke-width="1"/>
        <text transform="translate(667.5 -451.15676)" fill="white">
          <tspan font-family="Helvetica Neue" font-size="16" fill="white" x="28.848" y="15" xml:space="preserve">iptables</tspan>
        </text>
      </g>
    </g>
  </g>
</svg>
