<svg xmlns="http://www.w3.org/2000/svg" fill="none" stroke-linecap="square" stroke-miterlimit="10" viewBox="0 0 1280 720"><clipPath id="a"><path d="M0 0h1280v720H0z"/></clipPath><g clip-path="url(#a)"><path fill="#fff" fill-rule="evenodd" d="M0 0h1280v720H0z"/><path d="M227.522 105.415c0-4.6 3.73-8.33 8.33-8.33h902.867a8.33 8.33 0 0 1 8.33 8.33v539.812a8.33 8.33 0 0 1-8.33 8.33H235.853a8.33 8.33 0 0 1-8.33-8.33z"/><path stroke="#b7b7b7" stroke-linecap="butt" stroke-linejoin="round" d="M227.522 105.415c0-4.6 3.73-8.33 8.33-8.33h902.867a8.33 8.33 0 0 1 8.33 8.33v539.812a8.33 8.33 0 0 1-8.33 8.33H235.853a8.33 8.33 0 0 1-8.33-8.33z"/><path fill="#f15a29" fill-rule="evenodd" d="M227.528 78.35a8.326 8.326 0 0 1 8.325-8.326h902.877a8.325 8.325 0 0 1 8.325 8.326v72.325a8.326 8.326 0 0 1-8.325 8.326H235.853a8.326 8.326 0 0 1-8.325-8.326z"/><path fill="#fff" fill-rule="evenodd" d="M404.182 332.632a5.86 5.86 0 0 1 5.859-5.858h295.306a5.86 5.86 0 0 1 5.859 5.858v127.905a5.86 5.86 0 0 1-5.859 5.859H410.041a5.86 5.86 0 0 1-5.859-5.859z"/><path stroke="#999" stroke-dasharray="4 3" stroke-linecap="butt" stroke-linejoin="round" d="M404.182 332.632a5.86 5.86 0 0 1 5.859-5.858h295.306a5.86 5.86 0 0 1 5.859 5.858v127.905a5.86 5.86 0 0 1-5.859 5.859H410.041a5.86 5.86 0 0 1-5.859-5.859z"/><path d="M404.181 334.27h307.024v35.56H404.181z"/><path fill="#000" d="M525.698 347.618h-3.047v8.453h-1.235v-8.453h-3.047v-1.016h7.329zm2.53 8.453h-1.203v-7.047h1.203zm-1.297-8.907q0-.296.172-.5.188-.203.532-.203.359 0 .53.203.188.204.188.5t-.187.5q-.172.188-.531.188-.344 0-.532-.188-.172-.203-.172-.5m6.141 9.032q-1.422 0-2.328-.938-.89-.937-.89-2.515v-.22q0-1.046.39-1.859.406-.828 1.125-1.296.719-.47 1.563-.47 1.375 0 2.125.907.765.906.765 2.594v.5h-4.765q.015 1.031.593 1.672.594.64 1.485.64.64 0 1.078-.25.453-.265.781-.687l.734.562q-.875 1.36-2.656 1.36m-.14-6.313q-.735 0-1.235.531-.484.532-.61 1.485h3.532v-.078q-.047-.922-.5-1.422-.437-.516-1.187-.516m7.686.219q-.266-.031-.594-.031-1.188 0-1.61 1v5h-1.203v-7.047h1.172l.031.812q.579-.937 1.672-.937.344 0 .532.094zm3.619 2.437h-3.188v-.984h3.188zm5.005 3.532h-1.219v-8.032l-2.422.907v-1.094l3.453-1.297h.188zm14.096-3q-.172 1.5-1.11 2.312-.921.813-2.468.813-1.688 0-2.703-1.203-1-1.204-1-3.22v-.905q0-1.329.469-2.329t1.328-1.53q.875-.548 2.015-.548 1.5 0 2.407.844.921.844 1.062 2.328h-1.25q-.156-1.125-.703-1.625-.547-.515-1.516-.515-1.203 0-1.89.89-.672.875-.672 2.516v.922q0 1.531.64 2.453.641.906 1.813.906 1.031 0 1.578-.469.563-.468.75-1.64zm2.831 3h-1.203v-10h1.203zm6.282-.703q-.704.828-2.063.828-1.14 0-1.734-.64-.578-.657-.578-1.938v-4.594h1.203v4.547q0 1.61 1.297 1.61 1.375 0 1.828-1.032v-5.125h1.218v7.047h-1.156zm7.097-1.172q0-.485-.375-.75-.36-.266-1.281-.453-.906-.204-1.453-.47-.532-.28-.797-.655-.25-.391-.25-.907 0-.859.734-1.453.735-.61 1.875-.61 1.188 0 1.938.626.75.61.75 1.578h-1.22q0-.5-.421-.86-.422-.359-1.047-.359-.656 0-1.031.297-.375.281-.375.75 0 .422.344.656.343.22 1.25.422.906.203 1.453.485.562.265.828.671.281.391.281.954 0 .937-.765 1.515-.75.563-1.954.563-.843 0-1.5-.297-.64-.297-1.015-.828-.36-.547-.36-1.172h1.204q.03.61.484.969.453.343 1.187.343.688 0 1.094-.265.422-.282.422-.75m4.404-6.875v1.703h1.312v.937h-1.312v4.36q0 .422.171.64.172.22.594.22.219 0 .578-.079v.969q-.468.125-.922.125-.812 0-1.218-.485-.407-.484-.407-1.39v-4.36h-1.28v-.937h1.28v-1.703zm5.635 8.875q-1.422 0-2.329-.938-.89-.937-.89-2.515v-.22q0-1.046.39-1.859.407-.828 1.125-1.296.72-.47 1.563-.47 1.375 0 2.125.907.766.906.766 2.594v.5h-4.766q.016 1.031.594 1.672.593.64 1.484.64.64 0 1.078-.25.453-.265.781-.687l.735.562q-.875 1.36-2.656 1.36m-.141-6.313q-.734 0-1.234.531-.485.532-.61 1.485h3.531v-.078q-.046-.922-.5-1.422-.437-.516-1.187-.516m7.686.219q-.266-.031-.594-.031-1.187 0-1.61 1v5h-1.202v-7.047h1.172l.03.812q.579-.937 1.673-.937.343 0 .531.094z"/><path fill="#6d6d6d" fill-rule="evenodd" d="M499.043 380.632a2.876 2.876 0 0 1 2.876-2.876h113.524a2.876 2.876 0 0 1 2.876 2.876v39.918a2.876 2.876 0 0 1-2.876 2.876H501.919a2.876 2.876 0 0 1-2.876-2.876z"/><path fill="#fff" d="M520.485 396.39h-3.344v9.28h-1.375v-9.28h-3.344v-1.14h8.063zm2.776 9.28h-1.328v-7.75h1.328zm-1.422-9.796q0-.328.188-.547.203-.219.578-.219.39 0 .594.22.203.218.203.546t-.203.547q-.203.203-.594.203-.375 0-.578-.203-.188-.219-.188-.547m6.76 9.938q-1.578 0-2.562-1.032-.985-1.03-.985-2.765v-.25q0-1.14.438-2.047.437-.906 1.219-1.422.796-.516 1.718-.516 1.516 0 2.344 1 .844 1 .844 2.844v.547h-5.25q.031 1.156.672 1.86.64.702 1.625.702.703 0 1.187-.28.5-.298.86-.766l.812.625q-.984 1.5-2.922 1.5m-.172-6.938q-.797 0-1.343.594-.547.578-.672 1.625h3.875v-.11q-.047-1-.547-1.546-.485-.563-1.313-.563m8.468.234q-.312-.046-.656-.046-1.297 0-1.766 1.109v5.5h-1.328v-7.75h1.297l.016.906q.656-1.047 1.843-1.047.391 0 .594.11zm5.428 6.563h-1.328v-8.828l-2.672.984v-1.203l3.797-1.422h.203zm15.546-1.36q-.531.75-1.485 1.126-.953.375-2.203.375-1.281 0-2.265-.594t-1.532-1.688q-.53-1.11-.546-2.562v-.922q0-2.344 1.093-3.64 1.094-1.298 3.094-1.298 1.625 0 2.625.844 1 .828 1.219 2.36h-1.375q-.39-2.079-2.469-2.079-1.375 0-2.094.97-.703.968-.718 2.812v.86q0 1.75.796 2.78.813 1.032 2.172 1.032.782 0 1.36-.172t.953-.578v-2.344h-2.406v-1.11h3.78zm6.858 1.36q-.11-.234-.188-.813-.921.954-2.203.954-1.14 0-1.875-.641-.734-.656-.734-1.64 0-1.22.922-1.876.922-.672 2.578-.672h1.297v-.609q0-.703-.422-1.11-.406-.406-1.219-.406-.703 0-1.187.36-.485.344-.485.86h-1.328q0-.579.406-1.11.422-.547 1.125-.86.704-.328 1.547-.328 1.344 0 2.094.672.766.672.797 1.844v3.562q0 1.063.266 1.704v.109zm-2.203-1.016q.625 0 1.187-.312.563-.328.813-.844v-1.578h-1.047q-2.422 0-2.422 1.422 0 .625.406.969.422.343 1.063.343m7.19-8.61v1.876h1.454v1.031h-1.453v4.797q0 .469.187.703.203.235.672.235.219 0 .625-.094v1.078q-.531.14-1.015.14-.891 0-1.344-.53-.453-.548-.453-1.532v-4.797h-1.407v-1.031h1.407v-1.875zm6.21 9.767q-1.578 0-2.562-1.032-.985-1.03-.985-2.765v-.25q0-1.14.438-2.047.437-.906 1.219-1.422.797-.516 1.718-.516 1.516 0 2.344 1 .844 1 .844 2.844v.547h-5.25q.031 1.156.672 1.86.64.702 1.625.702.703 0 1.187-.28.5-.298.86-.766l.812.625q-.984 1.5-2.922 1.5m-.172-6.938q-.796 0-1.343.594-.547.578-.672 1.625h3.875v-.11q-.047-1-.547-1.546-.484-.563-1.313-.563m11.578 4.969 1.484-5.922h1.328l-2.25 7.75h-1.078l-1.89-5.875-1.829 5.875h-1.062l-2.25-7.75h1.312l1.531 5.797 1.797-5.797h1.063zm8.935 1.828q-.11-.234-.187-.813-.922.954-2.204.954-1.14 0-1.875-.641-.734-.656-.734-1.64 0-1.22.922-1.876.922-.672 2.578-.672h1.297v-.609q0-.703-.422-1.11-.406-.406-1.219-.406-.703 0-1.187.36-.485.344-.485.86h-1.328q0-.579.407-1.11.421-.547 1.125-.86.703-.328 1.546-.328 1.344 0 2.094.672.766.672.797 1.844v3.562q0 1.063.266 1.704v.109zm-2.203-1.016q.625 0 1.187-.312.563-.328.813-.844v-1.578h-1.047q-2.422 0-2.422 1.422 0 .625.406.969.422.343 1.063.343m7.818-.922 1.812-5.812h1.407l-3.11 8.937q-.719 1.938-2.297 1.938l-.25-.016-.5-.093v-1.079l.36.032q.672 0 1.047-.282.39-.265.625-.984l.296-.781-2.765-7.672h1.453z"/><path d="M354.27 400.59h140.724"/><path stroke="#6d6d6d" stroke-linecap="butt" stroke-linejoin="round" stroke-width="2" d="M354.27 400.59h128.724"/><path fill="#6d6d6d" fill-rule="evenodd" stroke="#6d6d6d" stroke-linecap="butt" stroke-width="2" d="m482.994 403.894 9.076-3.303-9.076-3.304z"/><path d="m621.218 401.092 180.315-96.441"/><path stroke="#6d6d6d" stroke-linecap="butt" stroke-linejoin="round" stroke-width="2" d="m621.218 401.092 169.733-90.782"/><path fill="#6d6d6d" fill-rule="evenodd" stroke="#6d6d6d" stroke-linecap="butt" stroke-width="2" d="m792.51 313.223 6.445-7.193-9.562 1.367z"/><path d="m621.22 400.6 181.638 118.3"/><path stroke="#6d6d6d" stroke-linecap="butt" stroke-linejoin="round" stroke-width="2" d="m621.22 400.6 171.583 111.751"/><path fill="#6d6d6d" fill-rule="evenodd" stroke="#6d6d6d" stroke-linecap="butt" stroke-width="2" d="m791 515.12 9.408 2.184-5.802-7.721z"/><path fill="#efefef" fill-rule="evenodd" d="M822.339 204a6.863 6.863 0 0 1 6.863-6.864h255.187a6.863 6.863 0 0 1 6.863 6.863v187.125a6.863 6.863 0 0 1-6.863 6.863H829.202a6.863 6.863 0 0 1-6.863-6.863z"/><path fill="#fff" fill-rule="evenodd" d="M810.863 348.21a4.857 4.857 0 0 1-4.858-4.857v-78.727a4.857 4.857 0 0 1 4.858-4.857h28.143a4.857 4.857 0 0 1 4.858 4.857v78.727a4.857 4.857 0 0 1-4.858 4.857z"/><path stroke="#b7b7b7" stroke-dasharray="4 3" stroke-linecap="butt" stroke-linejoin="round" d="M810.863 348.21a4.857 4.857 0 0 1-4.858-4.857v-78.727a4.857 4.857 0 0 1 4.858-4.857h28.143a4.857 4.857 0 0 1 4.858 4.857v78.727a4.857 4.857 0 0 1-4.858 4.857z"/><path fill="#000" d="M826 324.788h-1.125l-.015-4.032h3.546q.75.922 1.125 1.922.36.985.36 2.032 0 1.406-.594 2.562-.61 1.14-1.734 1.734-1.14.579-2.547.579-1.406 0-2.61-.579-1.203-.593-1.78-1.687-.595-1.094-.595-2.516 0-1.031.344-1.86.328-.843.938-1.312.593-.484 1.547-.734l.312 1.14q-.719.22-1.14.532-.422.312-.672.906t-.25 1.313q0 .875.265 1.515.266.625.703 1.016.422.375.938.594.875.359 1.922.359 1.265 0 2.125-.437.86-.438 1.28-1.266.423-.844.423-1.797 0-.812-.313-1.594-.328-.781-.687-1.187H826zm2.875-10.258q.563.656.797 1.266.219.593.219 1.28 0 1.141-.547 1.75-.563.61-1.438.61-.5 0-.921-.219-.422-.234-.672-.609t-.39-.844q-.08-.343-.173-1.047-.172-1.421-.406-2.093h-.297q-.719 0-1.016.328-.39.453-.39 1.344 0 .812.297 1.218.28.391 1.015.578l-.156 1.141q-.734-.156-1.187-.516-.454-.359-.688-1.03-.25-.673-.25-1.563t.203-1.438q.203-.562.531-.812.313-.266.797-.375.297-.047 1.078-.047h1.563q1.625 0 2.062-.078.438-.078.829-.297v1.219q-.36.187-.86.234m-2.61.094q.266.64.438 1.922.11.718.25 1.015.125.297.375.469.25.156.547.156.469 0 .781-.344.313-.359.313-1.046 0-.672-.297-1.204-.297-.53-.812-.78-.391-.188-1.172-.188zm2.423-5.553 1.03-.172q.11.5.11.89 0 .641-.203 1-.203.344-.531.485-.328.14-1.39.14h-3.97v.86h-.906v-.86h-1.718l-.704-1.172h2.422v-1.171h.907v1.171h4.046q.5 0 .641-.046.14-.063.234-.204.079-.14.079-.406 0-.203-.047-.515m-1.172-5.875.14-1.203q1.063.28 1.657 1.062.578.766.578 1.969 0 1.516-.938 2.406t-2.61.89q-1.75 0-2.702-.89-.969-.906-.969-2.344 0-1.39.938-2.265t2.656-.875h.312v5.156q1.14-.062 1.75-.64.594-.579.594-1.438 0-.656-.328-1.11-.344-.453-1.078-.718m-1.906 3.844v-3.86q-.86.078-1.297.438-.688.562-.688 1.453 0 .812.547 1.36.531.546 1.438.609m4.125-7.804-6.907 2.125v-1.218l3.985-1.094 1.484-.422q-.11-.016-1.422-.36l-4.047-1.093v-1.203l4-1.031 1.328-.344-1.343-.406-3.985-1.172v-1.141l6.907 2.156v1.219l-4.141 1.094-1.172.265 5.313 1.407zm-.86-12.86q.563.657.797 1.267.219.593.219 1.28 0 1.141-.547 1.75-.563.61-1.438.61-.5 0-.921-.219-.422-.234-.672-.609t-.39-.844q-.08-.343-.173-1.047-.172-1.421-.406-2.093h-.297q-.719 0-1.016.328-.39.453-.39 1.344 0 .812.297 1.218.28.39 1.015.578l-.156 1.141q-.734-.156-1.187-.516-.454-.359-.688-1.03-.25-.673-.25-1.563 0-.891.203-1.438.203-.562.531-.812.313-.266.797-.375.297-.047 1.078-.047h1.563q1.625 0 2.062-.078.438-.078.829-.297v1.219q-.36.187-.86.234m-2.61.095q.266.64.438 1.922.11.718.25 1.015.125.297.375.469.25.156.547.156.469 0 .781-.344.313-.359.313-1.046 0-.672-.297-1.204-.297-.53-.812-.78-.391-.188-1.172-.188zm6.126-2.944-1.094.125q.11-.375.11-.656 0-.391-.141-.625-.125-.235-.36-.391-.171-.11-.875-.36-.093-.03-.28-.109l-6.923 2.625v-1.265l4-1.438q.766-.281 1.594-.5-.797-.203-1.578-.469l-4.016-1.484v-1.172l7.016 2.625q1.14.422 1.578.656.578.313.844.72.281.405.281.968 0 .328-.156.75"/><path fill="#fbfbfb" fill-rule="evenodd" d="M896.709 246.065a3.446 3.446 0 0 1 3.446-3.446h147.762a3.446 3.446 0 0 1 3.445 3.446v48.638a3.446 3.446 0 0 1-3.445 3.446H900.155a3.446 3.446 0 0 1-3.446-3.446z"/><path fill="#ead1dc" fill-opacity=".706" fill-rule="evenodd" d="M912.848 250.588a2.805 2.805 0 0 1 2.805-2.804h44.46a2.805 2.805 0 0 1 2.805 2.804v39.593a2.805 2.805 0 0 1-2.805 2.805h-44.46a2.805 2.805 0 0 1-2.805-2.805z"/><path fill="#4a0d66" fill-rule="evenodd" d="M924.912 278.567q.466 0 .8.136c.222.09.4.225.533.36.177.182.266.362.355.588.044.226.089.452.089.722h-3.643c0-.18 0-.406.089-.632.133-.226.222-.406.4-.587s.355-.316.622-.406c.222-.136.488-.18.755-.18m.044-.993c-.444 0-.888.045-1.288.226-.4.18-.71.406-.977.722a2.3 2.3 0 0 0-.667 1.039 3.1 3.1 0 0 0-.266 1.31c0 .45.089.902.222 1.309.133.361.355.722.622 1.038.267.271.622.497 1.022.678q.6.27 1.332.27c1.155 0 2.088-.451 2.71-1.264l-.888-.722a2.9 2.9 0 0 1-.755.722 2.04 2.04 0 0 1-.933.226 2.5 2.5 0 0 1-.8-.136c-.222-.09-.444-.18-.666-.36-.178-.136-.311-.362-.445-.588-.133-.226-.177-.451-.177-.722h4.975v-.452a3.8 3.8 0 0 0-.178-1.219 2.6 2.6 0 0 0-.533-1.039 2.3 2.3 0 0 0-.933-.767c-.355-.18-.844-.271-1.377-.271m7.241-.001c-.488 0-.888.135-1.244.316-.355.18-.621.496-.8.813v-.949H929v6.277h1.155v-3.251c0-.361.044-.632.133-.903a2.4 2.4 0 0 1 .355-.678q.267-.27.534-.406a3.4 3.4 0 0 1 .71-.09c.178 0 .356 0 .489.09.178.045.355.135.489.27.088.136.222.272.31.498.045.225.09.451.09.767v3.703h1.199v-4.064c0-.406-.089-.768-.178-1.084-.133-.27-.31-.542-.533-.722-.178-.181-.4-.316-.71-.452a2.6 2.6 0 0 0-.845-.135m2.62.18 2.532 6.277h1.289l2.398-6.277h-1.243l-1.777 4.787-1.822-4.787zm9.596.949c.31 0 .577.045.844.18.266.09.444.271.621.452q.267.27.4.677c.134.271.178.542.178.858s-.044.632-.178.903a1.7 1.7 0 0 1-.4.678c-.177.18-.355.36-.621.451-.267.136-.534.18-.844.18-.311 0-.578-.09-.845-.18-.266-.09-.488-.27-.666-.451a1.7 1.7 0 0 1-.4-.678 3 3 0 0 1-.133-.903c0-.316.044-.587.133-.858.09-.27.267-.497.4-.677.178-.226.4-.361.666-.452.267-.135.534-.18.845-.18m0-1.13c-.445 0-.889.091-1.289.272-.4.18-.755.406-1.021.722-.311.271-.534.632-.711 1.039a3.1 3.1 0 0 0-.267 1.264c0 .452.089.903.267 1.31.177.361.4.722.71 1.038.267.271.622.497 1.022.678.4.18.844.27 1.289.27s.888-.09 1.288-.27q.6-.271 1.066-.678c.266-.316.533-.632.666-1.038.178-.407.267-.858.267-1.31a3.1 3.1 0 0 0-.267-1.264c-.133-.407-.4-.723-.666-1.039a3.5 3.5 0 0 0-1.066-.722c-.4-.18-.844-.271-1.288-.271m3.376.18 2.576 6.322-.4.994c-.089.135-.133.27-.177.406-.09.135-.134.226-.222.316-.134.09-.223.18-.356.226-.089.045-.266.045-.444.045-.222 0-.489-.045-.71-.135l-.134 1.083q.267.135.533.136c.178.045.355.045.533.045q.467 0 .8-.135c.222-.09.4-.226.577-.362.133-.18.267-.361.356-.587.133-.226.222-.451.355-.722l2.932-7.632h-1.288l-1.733 4.877h-.044l-1.822-4.877z"/><path fill="#b31aab" fill-rule="evenodd" d="M931.087 264.93v1.626l1.732 1.129-.044-1.671zm2.576 4.245v.003zm0 .003.045 1.667 1.554.994-.044-1.626-1.51-.993s-.042 0-.045-.042m-5.908-4.338-3.11 1.354a.71.71 0 0 0-.355.587l.133 5.013q0 .405.4.677l4.709 2.935c.167.102.358.153.537.153q.09 0 .174-.017s.044 0 .044-.046l2.932-1.264-1.6-.993-1.732.767-3.953-2.483-.09-4.155 1.91-.858z"/><path fill="#d163ce" fill-rule="evenodd" d="m936.417 260.414-.177.09.044 1.762 4.531 2.844.09 4.697 1.732 1.084.133-.046-.133-6.05c-.045-.271-.178-.588-.489-.768zm-3.731.632-3.776 1.626a.715.715 0 0 0-.444.677l.133 6.639c0 .315.222.586.489.767l6.263 3.929c.148.12.356.18.543.18a.7.7 0 0 0 .257-.045c.044 0 .089-.045.089-.045l3.687-1.58-1.822-1.174-2.354.993-5.33-3.342-.134-5.644 2.443-1.039z"/><path fill="#e13eaf" fill-rule="evenodd" d="m942.281 257.028 6.93 4.38.178 7.36-6.797 2.98-6.93-4.38-.177-7.36zm-.167-2.078q-.166 0-.321.046c-.045 0-.045.045-.09.045l-7.818 3.432c-.31.135-.488.406-.488.767l.177 8.49c0 .316.222.677.533.858l8.041 5.057c.178.12.395.18.612.18q.165 0 .32-.044c.045 0 .09 0 .09-.046l7.818-3.432c.311-.135.489-.406.489-.767l-.178-8.49c0-.316-.222-.677-.533-.857l-8.04-5.058a1.1 1.1 0 0 0-.612-.18"/><path fill="#a0d5e1" fill-opacity=".329" fill-rule="evenodd" d="M968.625 250.589a2.805 2.805 0 0 1 2.805-2.805h71.802a2.805 2.805 0 0 1 2.805 2.805v39.592a2.805 2.805 0 0 1-2.805 2.805H971.43a2.805 2.805 0 0 1-2.805-2.805z"/><path fill="#134f5c" d="m984.908 265.217.172 1.125.234-1.015 1.688-5.953h.953l1.64 5.953.235 1.031.187-1.156 1.328-5.828h1.125l-2.062 8.53h-1.031l-1.766-6.218-.125-.656-.14.656-1.813 6.219h-1.031l-2.063-8.531h1.125zm8.168-.546q0-.922.36-1.672.374-.75 1.03-1.14.657-.407 1.485-.407 1.297 0 2.094.89.812.891.812 2.391v.078q0 .922-.36 1.656-.359.735-1.015 1.157-.656.406-1.515.406-1.282 0-2.094-.89-.797-.907-.797-2.391zm1.094.14q0 1.047.484 1.688.5.64 1.313.64.828 0 1.312-.64.484-.657.484-1.828 0-1.032-.5-1.672-.484-.657-1.312-.657-.797 0-1.297.641-.484.625-.484 1.828m9.11-2.281q-.25-.031-.532-.031-1.078 0-1.453.906v4.5h-1.078v-6.344h1.046l.016.735q.531-.844 1.516-.844.312 0 .484.078zm2.763 2.437-.688.704v2.234h-1.078v-9h1.078v5.437l.578-.687 1.985-2.094h1.312l-2.469 2.656 2.766 3.688h-1.281zm5.488 2.938h-1.078v-9h1.078zm1.443-3.234q0-.922.36-1.672.375-.75 1.031-1.14.656-.407 1.484-.407 1.297 0 2.094.89.813.891.813 2.391v.078q0 .922-.36 1.656-.36.735-1.015 1.157-.657.406-1.516.406-1.281 0-2.094-.89-.797-.907-.797-2.391zm1.094.14q0 1.047.484 1.688.5.64 1.313.64.828 0 1.312-.64.485-.657.485-1.828 0-1.032-.5-1.672-.485-.657-1.313-.657-.797 0-1.297.641-.484.625-.484 1.828m9.953 3.094q-.094-.188-.156-.672-.75.797-1.797.797-.937 0-1.547-.531-.594-.532-.594-1.36 0-.984.75-1.53.75-.548 2.125-.548h1.047v-.5q0-.562-.343-.89-.329-.344-1-.344-.579 0-.97.297-.39.28-.39.703h-1.094q0-.485.329-.922.343-.438.921-.688.579-.265 1.266-.265 1.11 0 1.719.547.625.547.656 1.5v2.922q0 .875.219 1.39v.094zm-1.797-.828q.516 0 .97-.266.452-.265.655-.687v-1.297h-.843q-2 0-2 1.172 0 .5.343.797.344.28.875.28m4.153-2.39q0-1.47.687-2.345.688-.89 1.813-.89 1.11 0 1.765.75v-3.297h1.078v9h-1l-.046-.688q-.657.813-1.813.813-1.094 0-1.797-.906-.687-.907-.687-2.36zm1.078.124q0 1.078.437 1.688.453.61 1.235.61 1.031 0 1.515-.938v-2.907q-.484-.89-1.5-.89-.797 0-1.25.61-.437.608-.437 1.827m-42.983 13.626q0-1.312.344-2.531.36-1.219 1.063-2.219t1.468-1.406l.22.719q-.86.656-1.407 2t-.594 3.015l-.015.5q0 2.266.828 3.922.5 1 1.187 1.563l-.219.656q-.78-.422-1.5-1.453-1.375-1.985-1.375-4.766m6.82-.328q-1.437-.422-2.109-1.031-.656-.61-.656-1.5 0-1 .797-1.656.812-.672 2.11-.672.874 0 1.562.343.687.344 1.062.938.391.594.391 1.312h-1.14q0-.78-.5-1.218-.485-.438-1.376-.438-.828 0-1.297.375-.468.36-.468 1 0 .531.437.89.453.36 1.516.657t1.656.656q.61.36.89.844.298.484.298 1.125 0 1.047-.813 1.672t-2.156.625q-.89 0-1.656-.344-.75-.344-1.172-.922-.407-.593-.407-1.328h1.125q0 .766.579 1.219.578.453 1.53.453.891 0 1.36-.36.469-.374.469-1 0-.624-.438-.968-.437-.344-1.593-.672m7.073 3.922q-1.297 0-2.11-.844-.796-.86-.796-2.281v-.188q0-.953.36-1.687.358-.75 1-1.156.655-.422 1.405-.422 1.235 0 1.922.812.688.813.688 2.328v.454h-4.297q.031.937.547 1.515.531.578 1.343.578.563 0 .954-.234.406-.234.718-.625l.657.516q-.797 1.234-2.391 1.234m-.14-5.688q-.657 0-1.11.485-.438.469-.531 1.328h3.172v-.078q-.047-.828-.454-1.281-.39-.454-1.078-.454m6.935.188q-.25-.031-.531-.031-1.078 0-1.453.906v4.5h-1.079v-6.344h1.047l.016.735q.531-.844 1.516-.844.312 0 .484.078zm3.182 3.906 1.578-4.875h1.109l-2.281 6.344h-.828l-2.297-6.344h1.11zm4.906 1.469h-1.078v-6.344h1.078zm-1.172-8.016q0-.265.156-.453.172-.187.485-.187.312 0 .468.187.172.188.172.453 0 .25-.172.438-.156.172-.468.172t-.485-.172q-.156-.188-.156-.438m5.443 7.25q.578 0 1.016-.343.437-.36.484-.891h1.032q-.032.547-.391 1.047-.344.484-.922.781-.562.297-1.219.297-1.297 0-2.062-.86-.75-.874-.75-2.374v-.188q0-.922.328-1.64.344-.72.969-1.11.64-.406 1.515-.406 1.063 0 1.766.64.719.625.766 1.657h-1.032q-.047-.625-.468-1.016-.422-.39-1.032-.39-.828 0-1.281.593-.453.594-.453 1.719v.203q0 1.094.453 1.688t1.281.593m6.375.89q-1.297 0-2.11-.843-.796-.86-.796-2.281v-.188q0-.953.36-1.687.359-.75 1-1.156.656-.422 1.406-.422 1.234 0 1.922.812t.687 2.328v.454h-4.297q.031.937.547 1.515.531.578 1.344.578.562 0 .953-.234.406-.234.719-.625l.656.516q-.797 1.234-2.39 1.234m-.14-5.687q-.657 0-1.11.485-.437.469-.531 1.328h3.172v-.078q-.047-.828-.453-1.281-.39-.454-1.078-.454m6.373 2.157q0 1.312-.344 2.515-.344 1.188-1.063 2.203-.703 1.016-1.468 1.438l-.235-.656q.907-.688 1.453-2.14.547-1.47.563-3.235v-.188q0-1.234-.266-2.297-.25-1.062-.718-1.89-.454-.844-1.032-1.313l.235-.656q.765.422 1.468 1.422.704 1 1.047 2.219.36 1.203.36 2.578"/><path d="M898.314 296.524v-53.88H914.1v53.88z"/><path fill="#999" d="M903.76 276.075h2.234v.75h-5.688v-2.11q0-.922.485-1.453.468-.531 1.25-.531.828 0 1.28.515.438.516.438 1.485zm-.61 0v-1.36q0-.594-.281-.906-.282-.328-.813-.328-.515 0-.812.328-.313.312-.328.875v1.39zm.187-8.672q.829 0 1.454.28.625.282.953.798.328.515.328 1.203 0 .672-.328 1.187-.328.516-.938.813-.625.281-1.422.281h-.406q-.828 0-1.453-.281t-.953-.797q-.344-.531-.344-1.203 0-.688.328-1.203t.953-.797 1.47-.281zm-.375.734q-1.015 0-1.546.406-.547.407-.547 1.14 0 .72.547 1.126.53.406 1.5.422h.421q.97 0 1.532-.406.562-.422.562-1.141 0-.734-.531-1.125-.531-.406-1.516-.422zm3.032-1.86h-5.688v-1.609q0-.75.328-1.312.328-.578.938-.875.594-.313 1.39-.328h.36q.797 0 1.406.312.61.313.938.89.312.579.328 1.345zm-5.078-.75h4.468v-.796q0-.86-.53-1.344-.548-.484-1.548-.484h-.328q-.969 0-1.5.453-.547.453-.562 1.297z"/><path fill="#fbfbfb" fill-rule="evenodd" d="M896.709 313.544a3.446 3.446 0 0 1 3.446-3.446h147.762a3.446 3.446 0 0 1 3.445 3.446v48.638a3.446 3.446 0 0 1-3.445 3.446H900.155a3.446 3.446 0 0 1-3.446-3.446z"/><path fill="#ead1dc" fill-opacity=".706" fill-rule="evenodd" d="M912.849 318.067a2.805 2.805 0 0 1 2.804-2.804h44.46a2.805 2.805 0 0 1 2.805 2.804v39.593a2.805 2.805 0 0 1-2.804 2.805h-44.46a2.805 2.805 0 0 1-2.805-2.805z"/><path fill="#4a0d66" fill-rule="evenodd" d="M924.912 346.046q.466 0 .8.136c.222.09.4.226.533.361.177.18.266.361.355.587.044.226.089.452.089.722h-3.643c0-.18 0-.406.089-.632.133-.225.222-.406.4-.587s.355-.316.622-.406c.222-.136.488-.18.755-.18m.044-.993c-.444 0-.888.045-1.288.226-.4.18-.71.406-.977.722a2.3 2.3 0 0 0-.667 1.039 3.1 3.1 0 0 0-.266 1.31c0 .45.089.902.222 1.309.133.361.355.722.622 1.039.267.27.622.496 1.022.677q.6.27 1.332.27c1.155 0 2.088-.45 2.71-1.264l-.888-.722a2.9 2.9 0 0 1-.755.722 2.04 2.04 0 0 1-.933.226q-.4 0-.8-.135c-.222-.09-.444-.181-.666-.362-.178-.135-.311-.36-.445-.587a1.34 1.34 0 0 1-.177-.722h4.975v-.452c0-.406-.044-.812-.178-1.219a2.6 2.6 0 0 0-.533-1.039 2.3 2.3 0 0 0-.933-.767c-.355-.18-.844-.271-1.377-.271m7.241-.001c-.488 0-.888.135-1.244.316-.355.18-.621.497-.8.813v-.949H929v6.277h1.155v-3.251c0-.361.044-.632.133-.903s.222-.497.355-.678q.267-.27.534-.406a3.4 3.4 0 0 1 .71-.09c.178 0 .356 0 .49.09.177.045.354.136.488.271.088.135.222.271.31.497.045.225.09.451.09.767v3.703h1.199v-4.064c0-.406-.089-.768-.178-1.084-.133-.27-.31-.542-.533-.722-.178-.18-.4-.316-.71-.452a2.6 2.6 0 0 0-.845-.135m2.62.181 2.533 6.276h1.288l2.398-6.277h-1.243l-1.777 4.787-1.822-4.786zm9.596.948c.31 0 .577.045.844.18.266.09.444.271.622.452q.265.27.4.677c.133.271.177.542.177.858s-.044.632-.178.903a1.7 1.7 0 0 1-.4.678c-.177.18-.355.36-.621.451-.267.136-.534.18-.844.18-.311 0-.578-.09-.844-.18-.267-.09-.49-.27-.667-.451a1.7 1.7 0 0 1-.4-.678 3 3 0 0 1-.133-.903c0-.316.044-.587.134-.858.088-.27.266-.496.4-.677.177-.226.4-.361.666-.452.266-.135.533-.18.844-.18m0-1.13c-.445 0-.889.091-1.289.272-.4.18-.755.406-1.021.722-.311.271-.534.632-.711 1.039a3.1 3.1 0 0 0-.267 1.264c0 .452.09.903.267 1.31.177.361.4.722.71 1.039.267.27.623.496 1.022.677.4.18.844.27 1.289.27s.888-.09 1.288-.27q.6-.271 1.066-.677c.266-.317.533-.633.666-1.04.178-.406.267-.857.267-1.309a3.1 3.1 0 0 0-.267-1.264c-.133-.407-.4-.723-.666-1.039a3.5 3.5 0 0 0-1.066-.722c-.4-.18-.844-.271-1.288-.271m3.376.181 2.576 6.321-.4.994c-.089.135-.133.27-.177.406-.09.136-.133.226-.222.316-.134.09-.222.18-.356.226-.088.045-.266.045-.444.045-.222 0-.489-.045-.71-.135l-.134 1.084q.267.135.533.135c.178.045.356.045.533.045q.467 0 .8-.135c.222-.09.4-.226.577-.362.134-.18.267-.36.356-.587.133-.225.222-.451.355-.722l2.932-7.632h-1.288l-1.733 4.877h-.044l-1.821-4.877z"/><path fill="#b31aab" fill-rule="evenodd" d="M931.087 332.41v1.625l1.732 1.129-.044-1.671zm2.576 4.244v.003zm0 .003.045 1.668 1.554.993-.044-1.626-1.51-.993s-.042 0-.044-.042m-5.909-4.338-3.11 1.354a.71.71 0 0 0-.355.588l.133 5.012q0 .405.4.677l4.71 2.935c.166.102.357.153.536.153a1 1 0 0 0 .174-.017s.044 0 .044-.045l2.932-1.265-1.6-.993-1.732.768-3.953-2.484-.09-4.154 1.911-.858z"/><path fill="#d163ce" fill-rule="evenodd" d="m936.418 327.894-.178.09.044 1.76 4.531 2.846.09 4.696 1.732 1.084.133-.045-.133-6.051c-.045-.271-.178-.587-.489-.768zm-3.732.632-3.776 1.625a.715.715 0 0 0-.444.678l.133 6.638c0 .316.222.587.489.767l6.263 3.929a.9.9 0 0 0 .543.18.7.7 0 0 0 .257-.045c.044 0 .089-.045.089-.045l3.687-1.58-1.822-1.174-2.354.993-5.33-3.341-.134-5.645 2.443-1.039z"/><path fill="#e13eaf" fill-rule="evenodd" d="m942.281 324.507 6.93 4.38.178 7.36-6.797 2.98-6.93-4.38-.177-7.36zm-.167-2.077q-.166 0-.321.045c-.045 0-.045.045-.09.045l-7.818 3.432c-.31.135-.488.406-.488.767l.177 8.49c0 .316.222.677.533.858l8.041 5.057c.178.12.395.18.612.18q.164 0 .32-.044c.045 0 .09 0 .09-.045l7.818-3.432c.311-.136.489-.407.489-.768l-.178-8.49c0-.316-.222-.677-.533-.857l-8.04-5.058a1.1 1.1 0 0 0-.612-.18"/><path fill="#a0d5e1" fill-opacity=".329" fill-rule="evenodd" d="M968.625 318.068a2.805 2.805 0 0 1 2.805-2.805h71.802a2.805 2.805 0 0 1 2.805 2.805v39.592a2.805 2.805 0 0 1-2.805 2.805H971.43a2.805 2.805 0 0 1-2.805-2.805z"/><path fill="#134f5c" d="m984.908 332.697.172 1.125.234-1.016 1.688-5.953h.953l1.64 5.953.235 1.031.187-1.156 1.329-5.828h1.125l-2.063 8.531h-1.031l-1.766-6.219-.125-.656-.14.656-1.813 6.22h-1.031l-2.063-8.532h1.125zm8.168-.547q0-.922.36-1.672.374-.75 1.03-1.14.657-.407 1.485-.407 1.297 0 2.094.89.812.891.812 2.391v.078q0 .922-.36 1.657-.358.734-1.015 1.156-.656.406-1.515.406-1.282 0-2.094-.89-.797-.907-.797-2.391zm1.094.14q0 1.047.484 1.688.5.64 1.313.64.828 0 1.312-.64.485-.656.485-1.828 0-1.032-.5-1.672-.485-.656-1.313-.656-.797 0-1.297.64-.484.625-.484 1.828m9.11-2.28q-.25-.032-.532-.032-1.078 0-1.453.906v4.5h-1.078v-6.344h1.047l.015.735q.531-.844 1.516-.844.312 0 .484.078zm2.763 2.437-.688.703v2.234h-1.078v-9h1.078v5.438l.578-.688 1.985-2.094h1.312l-2.468 2.657 2.765 3.687h-1.281zm5.488 2.937h-1.078v-9h1.078zm1.444-3.234q0-.922.359-1.672.375-.75 1.031-1.14.656-.407 1.485-.407 1.296 0 2.093.89.813.891.813 2.391v.078q0 .922-.36 1.657-.359.734-1.015 1.156-.656.406-1.516.406-1.281 0-2.094-.89-.796-.907-.796-2.391zm1.093.14q0 1.047.485 1.688.5.64 1.312.64.828 0 1.313-.64.484-.656.484-1.828 0-1.032-.5-1.672-.484-.656-1.312-.656-.797 0-1.297.64-.485.625-.485 1.828m9.953 3.094q-.093-.187-.156-.672-.75.797-1.797.797-.937 0-1.547-.531-.593-.531-.593-1.36 0-.984.75-1.53.75-.548 2.125-.548h1.047v-.5q0-.562-.344-.89-.328-.344-1-.344-.578 0-.969.297-.39.281-.39.703h-1.094q0-.484.328-.922.344-.437.922-.687.578-.266 1.265-.266 1.11 0 1.719.547.625.547.656 1.5v2.922q0 .875.219 1.39v.094zm-1.796-.828q.515 0 .968-.266.453-.265.657-.687v-1.297h-.844q-2 0-2 1.172 0 .5.344.797.343.28.875.28m4.152-2.39q0-1.47.687-2.344.688-.891 1.813-.891 1.11 0 1.765.75v-3.297h1.079v9h-1l-.047-.687q-.657.812-1.813.812-1.094 0-1.797-.906-.687-.906-.687-2.36zm1.078.124q0 1.078.437 1.688.454.61 1.235.61 1.031 0 1.515-.938v-2.907q-.484-.89-1.5-.89-.796 0-1.25.61-.437.609-.437 1.827m-42.982 13.626q0-1.312.343-2.531.36-1.219 1.063-2.219t1.469-1.406l.218.719q-.86.656-1.406 2-.547 1.344-.594 3.015l-.015.5q0 2.266.828 3.922.5 1 1.187 1.563l-.218.656q-.782-.422-1.5-1.453-1.375-1.984-1.375-4.766m6.82-.328q-1.438-.422-2.11-1.031-.656-.61-.656-1.5 0-1 .797-1.656.813-.672 2.11-.672.874 0 1.562.344.687.343 1.062.937.391.594.391 1.313h-1.14q0-.782-.5-1.22-.485-.437-1.376-.437-.828 0-1.296.375-.47.36-.47 1 0 .532.438.89.453.36 1.516.657t1.656.656q.61.36.89.844.298.485.298 1.125 0 1.047-.813 1.672t-2.156.625q-.89 0-1.656-.344-.75-.343-1.172-.922-.406-.593-.406-1.328h1.125q0 .766.578 1.219t1.531.453q.89 0 1.36-.36.468-.374.468-1 0-.624-.437-.968-.438-.344-1.594-.672m7.072 3.922q-1.297 0-2.11-.844-.796-.86-.796-2.281v-.187q0-.954.36-1.688.359-.75 1-1.156.655-.422 1.405-.422 1.235 0 1.922.812.688.813.688 2.329v.453h-4.297q.031.937.547 1.515.531.578 1.344.578.562 0 .953-.234.406-.234.718-.625l.657.516q-.797 1.234-2.39 1.234m-.14-5.687q-.657 0-1.11.484-.437.469-.531 1.328h3.172v-.078q-.047-.828-.453-1.281-.391-.453-1.079-.453m6.935.187q-.25-.031-.531-.031-1.078 0-1.453.906v4.5h-1.078v-6.344h1.046l.016.735q.531-.844 1.516-.844.312 0 .484.078zm3.182 3.906 1.578-4.875h1.11l-2.282 6.344h-.828l-2.297-6.344h1.11zm4.906 1.469h-1.078v-6.344h1.078zm-1.172-8.016q0-.265.156-.453.172-.187.485-.187.312 0 .468.187.172.188.172.453 0 .25-.172.438-.156.172-.468.172t-.485-.172q-.156-.188-.156-.438m5.443 7.25q.579 0 1.016-.343.438-.36.484-.89h1.032q-.032.546-.391 1.046-.344.484-.922.781-.562.297-1.219.297-1.296 0-2.062-.86-.75-.874-.75-2.374v-.188q0-.922.328-1.64.344-.72.969-1.11.64-.406 1.515-.406 1.063 0 1.766.64.719.626.766 1.657h-1.032q-.046-.625-.468-1.016-.422-.39-1.032-.39-.828 0-1.28.593-.454.594-.454 1.719v.203q0 1.094.453 1.688t1.281.593m6.375.891q-1.296 0-2.109-.844-.797-.86-.797-2.281v-.187q0-.954.36-1.688.359-.75 1-1.156.656-.422 1.406-.422 1.234 0 1.922.812t.687 2.329v.453h-4.297q.032.937.547 1.515.531.578 1.344.578.562 0 .953-.234.406-.234.719-.625l.656.516q-.797 1.234-2.39 1.234m-.14-5.687q-.656 0-1.11.484-.437.469-.53 1.328h3.171v-.078q-.047-.828-.453-1.281-.39-.453-1.078-.453m6.373 2.156q0 1.312-.344 2.515-.344 1.188-1.062 2.204-.704 1.015-1.47 1.437l-.234-.656q.907-.688 1.454-2.14.546-1.47.562-3.235v-.188q0-1.234-.266-2.297-.25-1.062-.718-1.89-.453-.844-1.032-1.313l.235-.656q.765.422 1.469 1.422.703 1 1.046 2.219.36 1.203.36 2.578"/><path d="M898.314 364.003v-53.88H914.1v53.88z"/><path fill="#999" d="M903.76 343.554h2.234v.75h-5.688v-2.11q0-.922.485-1.453.468-.531 1.25-.531.828 0 1.281.516.437.515.437 1.484zm-.61 0v-1.36q0-.593-.281-.906-.281-.328-.813-.328-.515 0-.812.328-.313.313-.328.875v1.39zm.188-8.672q.828 0 1.453.281t.953.797.328 1.203q0 .672-.328 1.188t-.938.812q-.625.281-1.422.281h-.406q-.828 0-1.453-.281t-.953-.797q-.344-.531-.344-1.203 0-.687.328-1.203t.953-.797 1.47-.281zm-.375.734q-1.016 0-1.547.406-.547.407-.547 1.141 0 .719.547 1.125.531.406 1.5.422h.422q.968 0 1.53-.406.563-.422.563-1.141 0-.734-.53-1.125-.532-.406-1.517-.422zm3.03-1.86h-5.687v-1.609q0-.75.328-1.312.329-.578.938-.875.594-.313 1.39-.328h.36q.797 0 1.406.312.61.313.938.89.312.579.328 1.345zm-5.077-.75h4.468v-.796q0-.86-.53-1.344-.548-.484-1.548-.484h-.328q-.969 0-1.5.453-.547.453-.562 1.297z"/><path d="m843.864 303.99 54.456 33.07"/><path stroke="#6d6d6d" stroke-linecap="butt" stroke-linejoin="round" stroke-width="2" d="m843.864 303.99 44.2 26.841"/><path fill="#6d6d6d" fill-rule="evenodd" stroke="#6d6d6d" stroke-linecap="butt" stroke-width="2" d="m886.349 333.655 9.472 1.888-6.043-7.535z"/><path d="m843.864 303.99 54.456-34.394"/><path stroke="#6d6d6d" stroke-linecap="butt" stroke-linejoin="round" stroke-width="2" d="m843.864 303.99 44.31-27.986"/><path fill="#6d6d6d" fill-rule="evenodd" stroke="#6d6d6d" stroke-linecap="butt" stroke-width="2" d="m889.939 278.797 5.91-7.64-9.439 2.053z"/><path fill="#326ce5" fill-rule="evenodd" d="M860.44 353.2a1.9 1.9 0 0 0-.707.179l-9.66 4.615a1.84 1.84 0 0 0-1 1.243l-2.382 10.367a1.82 1.82 0 0 0 .356 1.55l6.685 8.313c.351.436.882.69 1.445.69l10.721-.003c.562 0 1.094-.253 1.444-.688l6.684-8.314a1.82 1.82 0 0 0 .357-1.55l-2.387-10.368c-.125-.543-.493-1-1-1.242l-9.66-4.613a1.86 1.86 0 0 0-.896-.18"/><path stroke="#fff" stroke-linecap="butt" stroke-miterlimit="8" d="M860.44 353.2a1.9 1.9 0 0 0-.707.179l-9.66 4.615a1.84 1.84 0 0 0-1 1.243l-2.382 10.367a1.82 1.82 0 0 0 .356 1.55l6.685 8.313c.351.436.882.69 1.445.69l10.721-.003c.562 0 1.094-.253 1.444-.688l6.684-8.314a1.82 1.82 0 0 0 .357-1.55l-2.387-10.368c-.125-.543-.493-1-1-1.242l-9.66-4.613a1.86 1.86 0 0 0-.896-.18z"/><path fill="#fff" fill-rule="evenodd" d="M860.536 356.728c-.32 0-.578.287-.578.642l.001.016c0 .048-.003.106 0 .148.007.205.051.362.078.55.049.404.09.738.064 1.049a.63.63 0 0 1-.187.299l-.014.245a7.44 7.44 0 0 0-4.823 2.319l-.209-.149c-.103.014-.207.046-.343-.033-.259-.174-.495-.415-.78-.704-.13-.139-.225-.27-.38-.404-.035-.03-.09-.072-.129-.103a.7.7 0 0 0-.402-.152.56.56 0 0 0-.461.204c-.2.25-.136.631.142.852l.009.007c.038.03.084.07.12.096.164.122.315.184.479.28.346.214.632.39.86.604.088.095.104.262.116.334l.185.166a7.48 7.48 0 0 0-1.18 5.215l-.242.07c-.064.083-.154.213-.248.251-.298.094-.633.129-1.037.171-.19.016-.353.006-.554.044-.045.009-.106.025-.155.036l-.005.001-.008.003c-.341.082-.56.396-.49.704.07.309.404.497.747.423l.008-.002q.005 0 .011-.003c.048-.01.108-.022.15-.034.198-.053.34-.13.519-.199.382-.137.699-.251 1.008-.296.129-.01.264.08.332.117l.252-.043a7.52 7.52 0 0 0 3.334 4.163l-.105.252c.038.098.08.23.052.327-.113.291-.305.598-.524.94-.106.159-.214.282-.31.463-.023.043-.052.11-.074.156-.148.317-.04.684.246.821.287.138.644-.008.798-.326l.001-.001v-.002c.022-.045.053-.104.072-.147.082-.187.11-.348.167-.53.153-.384.237-.787.447-1.038.058-.07.152-.096.25-.122l.13-.237a7.47 7.47 0 0 0 5.336.014l.124.222c.099.032.207.049.295.18.157.268.265.587.396.972.058.181.086.342.168.53l.072.148c.154.32.512.466.8.327.285-.137.394-.504.245-.821-.022-.046-.052-.113-.075-.156-.096-.181-.204-.303-.31-.46-.22-.343-.4-.628-.513-.919-.047-.15.008-.243.045-.34-.022-.026-.07-.168-.097-.234a7.52 7.52 0 0 0 3.333-4.193c.075.012.205.035.247.043.087-.057.167-.132.324-.12.309.045.625.16 1.008.297.178.068.321.147.519.2.042.011.102.022.15.032l.01.004.01.001c.342.074.675-.114.745-.422.07-.31-.148-.622-.489-.705-.05-.01-.12-.03-.168-.04-.201-.037-.365-.028-.555-.044-.404-.042-.739-.076-1.036-.17-.121-.047-.208-.192-.25-.25l-.233-.069a7.5 7.5 0 0 0-.121-2.7 7.5 7.5 0 0 0-1.084-2.503l.205-.184c.01-.104.002-.213.11-.328.226-.213.513-.39.859-.604.164-.096.316-.159.48-.28.038-.028.089-.071.128-.103.277-.221.341-.603.142-.852-.2-.25-.585-.273-.862-.052-.04.031-.094.072-.129.102-.155.134-.251.266-.382.404-.285.29-.52.532-.78.706-.111.065-.276.043-.35.038l-.22.157a7.58 7.58 0 0 0-4.8-2.319l-.013-.258c-.075-.072-.166-.133-.189-.289-.025-.31.017-.645.066-1.049.026-.188.071-.345.079-.55.001-.046-.001-.114-.002-.164 0-.355-.259-.642-.578-.642m-.724 4.484-.171 3.033-.013.006a.51.51 0 0 1-.809.39l-.005.003-2.487-1.763a5.96 5.96 0 0 1 3.485-1.669m1.45 0a6 6 0 0 1 3.463 1.67l-2.47 1.752-.009-.004a.51.51 0 0 1-.81-.389l-.003-.001zm-5.837 2.802 2.271 2.03-.002.013a.509.509 0 0 1-.2.876l-.003.01-2.91.84a5.96 5.96 0 0 1 .844-3.77m10.206.001c.337.547.593 1.158.745 1.82a6 6 0 0 1 .126 1.938l-2.926-.842-.002-.013a.51.51 0 0 1-.2-.876l-.001-.006zm-5.56 2.187h.93l.578.722-.208.902-.835.402-.837-.403-.208-.902zm2.982 2.473a.5.5 0 0 1 .117.009l.005-.007 3.01.51a5.96 5.96 0 0 1-2.41 3.027l-1.168-2.822.003-.005a.51.51 0 0 1 .443-.712m-5.057.012a.51.51 0 0 1 .461.71l.009.012-1.157 2.794a6 6 0 0 1-2.402-3.007l2.984-.506.005.006a.5.5 0 0 1 .1-.009m2.522 1.225a.51.51 0 0 1 .467.268h.01l1.472 2.658a5.98 5.98 0 0 1-3.85-.004l1.467-2.653h.003a.51.51 0 0 1 .43-.27"/><path stroke="#fff" stroke-linecap="butt" stroke-miterlimit="8" d="M860.536 356.728c-.32 0-.578.287-.578.642l.001.016c0 .048-.003.106 0 .148.007.205.051.362.078.55.049.404.09.738.064 1.049a.63.63 0 0 1-.187.299l-.014.245a7.44 7.44 0 0 0-4.823 2.319l-.209-.149c-.103.014-.207.046-.343-.033-.259-.174-.495-.415-.78-.704-.13-.139-.225-.27-.38-.404-.035-.03-.09-.072-.129-.103a.7.7 0 0 0-.402-.152.56.56 0 0 0-.461.204c-.2.25-.136.631.142.852l.009.007c.038.03.084.07.12.096.164.122.315.184.479.28.346.214.632.39.86.604.088.095.104.262.116.334l.185.166a7.48 7.48 0 0 0-1.18 5.215l-.242.07c-.064.083-.154.213-.248.251-.298.094-.633.129-1.037.171-.19.016-.353.006-.554.044-.045.009-.106.025-.155.036l-.005.001-.008.003c-.341.082-.56.396-.49.704.07.309.404.497.747.423l.008-.002q.005 0 .011-.003c.048-.01.108-.022.15-.034.198-.053.34-.13.519-.199.382-.137.699-.251 1.008-.296.129-.01.264.08.332.117l.252-.043a7.52 7.52 0 0 0 3.334 4.163l-.105.252c.038.098.08.23.052.327-.113.291-.305.598-.524.94-.106.159-.214.282-.31.463-.023.043-.052.11-.074.156-.148.317-.04.684.246.821.287.138.644-.008.798-.326l.001-.001v-.002c.022-.045.053-.104.072-.147.082-.187.11-.348.167-.53.153-.384.237-.787.447-1.038.058-.07.152-.096.25-.122l.13-.237a7.47 7.47 0 0 0 5.336.014l.124.222c.099.032.207.049.295.18.157.268.265.587.396.972.058.181.086.342.168.53l.072.148c.154.32.512.466.8.327.285-.137.394-.504.245-.821-.022-.046-.052-.113-.075-.156-.096-.181-.204-.303-.31-.46-.22-.343-.4-.628-.513-.919-.047-.15.008-.243.045-.34-.022-.026-.07-.168-.097-.234a7.52 7.52 0 0 0 3.333-4.193c.075.012.205.035.247.043.087-.057.167-.132.324-.12.309.045.625.16 1.008.297.178.068.321.147.519.2.042.011.102.022.15.032l.01.004.01.001c.342.074.675-.114.745-.422.07-.31-.148-.622-.489-.705-.05-.01-.12-.03-.168-.04-.201-.037-.365-.028-.555-.044-.404-.042-.739-.076-1.036-.17-.121-.047-.208-.192-.25-.25l-.233-.069a7.5 7.5 0 0 0-.121-2.7 7.5 7.5 0 0 0-1.084-2.503l.205-.184c.01-.104.002-.213.11-.328.226-.213.513-.39.859-.604.164-.096.316-.159.48-.28.038-.028.089-.071.128-.103.277-.221.341-.603.142-.852-.2-.25-.585-.273-.862-.052-.04.031-.094.072-.129.102-.155.134-.251.266-.382.404-.285.29-.52.532-.78.706-.111.065-.276.043-.35.038l-.22.157a7.58 7.58 0 0 0-4.8-2.319l-.013-.258c-.075-.072-.166-.133-.189-.289-.025-.31.017-.645.066-1.049.026-.188.071-.345.079-.55.001-.046-.001-.114-.002-.164 0-.355-.259-.642-.578-.642zm-.724 4.484-.171 3.033-.013.006a.51.51 0 0 1-.809.39l-.005.003-2.487-1.763a5.96 5.96 0 0 1 3.485-1.669zm1.45 0a6 6 0 0 1 3.463 1.67l-2.47 1.752-.009-.004a.51.51 0 0 1-.81-.389l-.003-.001zm-5.837 2.802 2.271 2.03-.002.013a.509.509 0 0 1-.2.876l-.003.01-2.91.84a5.96 5.96 0 0 1 .844-3.77zm10.206.001c.337.547.593 1.158.745 1.82a6 6 0 0 1 .126 1.938l-2.926-.842-.002-.013a.51.51 0 0 1-.2-.876l-.001-.006zm-5.56 2.187h.93l.578.722-.208.902-.835.402-.837-.403-.208-.902zm2.982 2.473a.5.5 0 0 1 .117.009l.005-.007 3.01.51a5.96 5.96 0 0 1-2.41 3.027l-1.168-2.822.003-.005a.51.51 0 0 1 .443-.712zm-5.057.012a.51.51 0 0 1 .461.71l.009.012-1.157 2.794a6 6 0 0 1-2.402-3.007l2.984-.506.005.006a.5.5 0 0 1 .1-.009zm2.522 1.225a.51.51 0 0 1 .467.268h.01l1.472 2.658a5.98 5.98 0 0 1-3.85-.004l1.467-2.653h.003a.51.51 0 0 1 .43-.27z"/><path d="M822.347 199.396h268.913v35.56H822.347z"/><path fill="#000" d="M921.589 218.727h-3.97l-.89 2.47h-1.281l3.61-9.47h1.093l3.625 9.47h-1.281zm-3.594-1.03h3.234l-1.625-4.438zm12.82.062q0 1.609-.735 2.593-.734.97-2 .97-1.281 0-2.016-.813v3.39h-1.203v-9.75h1.11l.046.782q.75-.907 2.047-.907 1.266 0 2 .953.75.954.75 2.672zm-1.204-.141q0-1.187-.515-1.875-.5-.703-1.391-.703-1.094 0-1.64.969v3.375q.546.953 1.656.953.875 0 1.375-.672.515-.688.515-2.047m8.68.14q0 1.61-.734 2.594-.734.97-2 .97-1.28 0-2.015-.813v3.39h-1.203v-9.75h1.11l.046.782q.75-.907 2.047-.907 1.265 0 2 .953.75.954.75 2.672zm-1.202-.14q0-1.187-.516-1.875-.5-.703-1.39-.703-1.094 0-1.641.969v3.375q.547.953 1.656.953.875 0 1.375-.672.516-.688.516-2.047m13.183.578q-.172 1.5-1.11 2.313-.921.812-2.468.812-1.688 0-2.703-1.203-1-1.203-1-3.219v-.906q0-1.328.469-2.328t1.328-1.531q.875-.547 2.015-.547 1.5 0 2.407.844.921.843 1.062 2.328h-1.25q-.156-1.125-.703-1.625-.547-.516-1.516-.516-1.203 0-1.89.89-.672.876-.672 2.516v.922q0 1.531.64 2.453.641.907 1.813.907 1.031 0 1.578-.47.563-.468.75-1.64zm2.831 3H951.9v-10h1.203zm6.282-.703q-.704.828-2.063.828-1.14 0-1.734-.64-.578-.657-.578-1.938v-4.594h1.203v4.547q0 1.61 1.297 1.61 1.375 0 1.828-1.032v-5.125h1.218v7.047H959.4zm7.097-1.172q0-.484-.375-.75-.36-.265-1.281-.453-.907-.203-1.453-.469-.532-.281-.797-.656-.25-.39-.25-.906 0-.86.734-1.453.734-.61 1.875-.61 1.188 0 1.938.625.75.61.75 1.578h-1.22q0-.5-.421-.859-.422-.36-1.047-.36-.656 0-1.031.298-.375.28-.375.75 0 .421.344.656.343.219 1.25.422.906.203 1.453.484.562.266.828.672.281.39.281.953 0 .938-.766 1.516-.75.562-1.953.562-.843 0-1.5-.297-.64-.297-1.015-.828-.36-.547-.36-1.172h1.203q.032.61.485.969.453.344 1.187.344.688 0 1.094-.266.422-.281.422-.75m4.404-6.875v1.703h1.312v.938h-1.312v4.36q0 .421.171.64t.594.219q.219 0 .578-.079v.97q-.468.124-.922.124-.812 0-1.218-.484-.407-.485-.407-1.39v-4.36h-1.28v-.938h1.28v-1.703zm5.635 8.875q-1.422 0-2.329-.937-.89-.938-.89-2.516v-.219q0-1.047.39-1.86.407-.827 1.125-1.296.72-.469 1.563-.469 1.375 0 2.125.907.766.906.766 2.593v.5h-4.766q.016 1.032.594 1.672.593.64 1.484.64.64 0 1.078-.25.453-.265.781-.687l.735.563q-.875 1.36-2.656 1.36m-.141-6.312q-.734 0-1.234.53-.485.532-.61 1.485h3.531v-.078q-.046-.922-.5-1.422-.437-.515-1.187-.515m7.686.218q-.266-.03-.594-.03-1.187 0-1.61 1v5h-1.202v-7.048h1.172l.03.813q.579-.938 1.673-.938.343 0 .531.094zm11.546 5.97h-1.218v-8.032l-2.422.906v-1.094l3.453-1.296h.187z"/><path fill="#efefef" fill-rule="evenodd" d="M822.436 419.603a6.863 6.863 0 0 1 6.863-6.863h255.187a6.863 6.863 0 0 1 6.863 6.863v187.124a6.863 6.863 0 0 1-6.863 6.863H829.3a6.863 6.863 0 0 1-6.863-6.863z"/><path fill="#fff" fill-rule="evenodd" d="M810.96 563.814a4.857 4.857 0 0 1-4.857-4.858V480.23a4.857 4.857 0 0 1 4.857-4.857h28.144a4.857 4.857 0 0 1 4.857 4.857v78.726a4.857 4.857 0 0 1-4.857 4.858z"/><path stroke="#b7b7b7" stroke-dasharray="4 3" stroke-linecap="butt" stroke-linejoin="round" d="M810.96 563.814a4.857 4.857 0 0 1-4.857-4.858V480.23a4.857 4.857 0 0 1 4.857-4.857h28.144a4.857 4.857 0 0 1 4.857 4.857v78.726a4.857 4.857 0 0 1-4.857 4.858z"/><path fill="#000" d="M826.097 540.391h-1.125l-.015-4.03h3.547q.75.921 1.125 1.921.359.984.359 2.031 0 1.406-.594 2.563-.61 1.14-1.734 1.734-1.14.578-2.547.578-1.406 0-2.61-.578-1.203-.594-1.78-1.687-.594-1.094-.594-2.516 0-1.031.343-1.86.328-.843.938-1.312.594-.484 1.547-.734l.312 1.14q-.719.22-1.14.532-.422.312-.672.906t-.25 1.312q0 .875.265 1.516.266.625.703 1.016.422.375.938.593.875.36 1.922.36 1.265 0 2.125-.438.86-.437 1.281-1.265.422-.844.422-1.797 0-.813-.313-1.594-.328-.781-.687-1.188h-1.766zm2.875-10.257q.563.656.797 1.265.219.594.219 1.282 0 1.14-.547 1.75-.562.609-1.437.609-.5 0-.922-.219-.422-.234-.672-.61-.25-.374-.39-.843-.079-.344-.173-1.047-.172-1.422-.406-2.094h-.297q-.719 0-1.015.329-.391.453-.391 1.343 0 .813.297 1.219.281.39 1.015.578l-.156 1.14q-.734-.155-1.187-.515t-.688-1.031q-.25-.672-.25-1.563t.203-1.437q.203-.563.532-.813.312-.265.796-.375.297-.046 1.079-.046h1.562q1.625 0 2.063-.079.437-.078.828-.296v1.218q-.36.188-.86.235m-2.61.093q.267.641.438 1.922.11.719.25 1.016.125.297.375.469.25.156.547.156.47 0 .782-.344.312-.36.312-1.047 0-.672-.297-1.203t-.812-.781q-.39-.188-1.172-.188zm2.423-5.553 1.031-.172q.11.5.11.891 0 .64-.204 1-.203.344-.53.484-.33.141-1.392.141h-3.968v.86h-.907v-.86h-1.718l-.703-1.172h2.421v-1.172h.907v1.172h4.047q.5 0 .64-.047.14-.062.235-.203.078-.14.078-.406 0-.203-.047-.516m-1.172-5.875.14-1.203q1.063.282 1.657 1.063.578.765.578 1.969 0 1.515-.938 2.406-.937.89-2.609.89-1.75 0-2.703-.89-.969-.906-.969-2.344 0-1.39.938-2.266.937-.875 2.656-.875h.312v5.157q1.141-.063 1.75-.64.594-.58.594-1.438 0-.657-.328-1.11-.344-.453-1.078-.719m-1.906 3.844v-3.86q-.86.079-1.297.438-.688.563-.688 1.453 0 .813.547 1.36.531.547 1.438.61m4.125-7.803-6.907 2.125v-1.219l3.985-1.093 1.484-.422q-.11-.016-1.422-.36l-4.047-1.093v-1.204l4-1.03 1.329-.345-1.344-.406-3.985-1.172v-1.14l6.907 2.156v1.219l-4.14 1.093-1.173.266 5.313 1.406zm-.86-12.86q.563.657.797 1.266.219.594.219 1.281 0 1.141-.547 1.75-.562.61-1.437.61-.5 0-.922-.219-.422-.234-.672-.61-.25-.374-.39-.843-.079-.344-.173-1.047-.172-1.422-.406-2.094h-.297q-.719 0-1.015.328-.391.454-.391 1.344 0 .813.297 1.219.281.39 1.015.578l-.156 1.14q-.734-.156-1.187-.515-.453-.36-.688-1.031-.25-.672-.25-1.563t.203-1.437q.203-.563.532-.813.312-.265.796-.375.297-.047 1.079-.047h1.562q1.625 0 2.063-.078.437-.078.828-.297v1.22q-.36.187-.86.234m-2.61.094q.267.64.438 1.922.11.719.25 1.016.125.297.375.469.25.156.547.156.47 0 .782-.344.312-.36.312-1.047 0-.672-.297-1.203t-.812-.781q-.39-.188-1.172-.188zm6.126-2.943-1.094.125q.11-.375.11-.657 0-.39-.141-.625-.125-.234-.36-.39-.171-.11-.874-.36-.094-.03-.282-.109l-6.922 2.625v-1.266l4-1.437q.766-.281 1.594-.5-.797-.203-1.578-.469l-4.016-1.484v-1.172l7.016 2.625q1.14.422 1.578.656.578.313.844.719.281.406.281.969 0 .328-.156.75"/><path fill="#fbfbfb" fill-rule="evenodd" d="M896.806 461.668a3.446 3.446 0 0 1 3.446-3.445h147.762a3.446 3.446 0 0 1 3.445 3.445v48.639a3.446 3.446 0 0 1-3.445 3.445H900.252a3.446 3.446 0 0 1-3.446-3.445z"/><path fill="#ead1dc" fill-opacity=".706" fill-rule="evenodd" d="M912.946 466.192a2.805 2.805 0 0 1 2.804-2.805h44.46a2.805 2.805 0 0 1 2.805 2.805v39.593a2.805 2.805 0 0 1-2.804 2.805h-44.46a2.805 2.805 0 0 1-2.805-2.805z"/><path fill="#4a0d66" fill-rule="evenodd" d="M925.01 494.17q.465 0 .799.136c.222.09.4.226.533.362.177.18.266.36.355.587.044.225.089.451.089.722h-3.643c0-.18 0-.406.09-.632.132-.226.221-.406.399-.587s.355-.316.622-.407c.222-.135.488-.18.755-.18m.043-.993c-.444 0-.888.046-1.288.226s-.71.407-.977.723a2.3 2.3 0 0 0-.667 1.038 3.1 3.1 0 0 0-.266 1.31c0 .451.089.903.222 1.31.133.36.355.722.622 1.038.267.27.622.497 1.022.677q.6.271 1.332.271c1.156 0 2.088-.451 2.71-1.264l-.888-.723a2.9 2.9 0 0 1-.755.723 2.04 2.04 0 0 1-.933.226 2.5 2.5 0 0 1-.8-.136c-.222-.09-.444-.18-.666-.361-.178-.136-.311-.361-.445-.587-.133-.226-.177-.452-.177-.723h4.975v-.451c0-.407-.044-.813-.178-1.22a2.6 2.6 0 0 0-.533-1.038 2.3 2.3 0 0 0-.933-.768c-.355-.18-.844-.27-1.377-.27m7.242-.002c-.488 0-.888.136-1.244.316-.355.181-.621.497-.8.813v-.948h-1.154v6.277h1.155v-3.252c0-.36.044-.632.133-.903.09-.27.222-.496.355-.677q.267-.27.534-.407c.222-.045.444-.09.71-.09.178 0 .356 0 .49.09.177.046.355.136.488.272.088.135.222.27.31.496.045.226.09.452.09.768v3.703h1.199v-4.064c0-.407-.089-.768-.178-1.084-.133-.271-.31-.542-.533-.723-.178-.18-.4-.316-.71-.451a2.6 2.6 0 0 0-.845-.136m2.621.181 2.533 6.277h1.288l2.399-6.277h-1.244l-1.777 4.787-1.821-4.787zm9.595.948c.312 0 .578.045.845.181.266.09.444.27.622.452q.265.27.4.677c.133.27.177.542.177.858s-.044.632-.178.903a1.7 1.7 0 0 1-.4.677c-.177.18-.355.361-.621.452-.267.135-.533.18-.844.18s-.578-.09-.844-.18c-.267-.09-.49-.271-.667-.452a1.7 1.7 0 0 1-.4-.677 3 3 0 0 1-.133-.903c0-.316.045-.587.134-.858.088-.271.266-.497.4-.677.177-.226.4-.362.666-.452.266-.136.533-.18.844-.18m0-1.129c-.444 0-.888.09-1.288.271s-.755.407-1.021.723c-.311.27-.533.632-.711 1.039a3.1 3.1 0 0 0-.267 1.264c0 .451.09.903.267 1.31.178.36.4.722.71 1.038.267.27.623.497 1.022.677.4.181.844.271 1.289.271s.888-.09 1.288-.27q.6-.271 1.066-.678c.267-.316.533-.632.666-1.039a3.3 3.3 0 0 0 .267-1.31 3.1 3.1 0 0 0-.267-1.263c-.133-.407-.4-.723-.666-1.04a3.5 3.5 0 0 0-1.066-.722c-.4-.18-.844-.27-1.288-.27m3.375.179 2.576 6.322-.4.993a1.6 1.6 0 0 0-.177.407c-.09.135-.133.226-.222.316-.134.09-.222.18-.356.226-.088.045-.266.045-.444.045-.222 0-.489-.045-.71-.136l-.134 1.084q.267.135.533.135c.178.046.356.046.533.046q.467 0 .8-.136c.222-.09.4-.225.577-.361.134-.18.267-.361.356-.587.133-.226.222-.452.355-.723l2.932-7.631h-1.288l-1.733 4.877h-.044l-1.821-4.877z"/><path fill="#b31aab" fill-rule="evenodd" d="M931.184 480.534v1.625l1.732 1.13-.044-1.672zm2.576 4.244v.004zm0 .004.045 1.667 1.554.994-.044-1.626-1.51-.993s-.042 0-.044-.042m-5.909-4.339-3.11 1.355a.71.71 0 0 0-.355.587l.133 5.012q0 .407.4.678l4.71 2.935c.166.102.357.152.536.152q.09 0 .174-.017s.044 0 .044-.045l2.932-1.264-1.6-.994-1.732.768-3.953-2.484-.09-4.154 1.911-.858z"/><path fill="#d163ce" fill-rule="evenodd" d="m936.515 476.018-.178.09.044 1.761 4.531 2.845.09 4.696 1.732 1.084.133-.045-.133-6.05c-.045-.272-.178-.588-.489-.768zm-3.732.632-3.776 1.626a.715.715 0 0 0-.444.677l.133 6.638c0 .316.222.587.489.768l6.263 3.928a.9.9 0 0 0 .543.181.7.7 0 0 0 .257-.045c.045 0 .089-.045.089-.045l3.687-1.58-1.821-1.175-2.355.994-5.33-3.342-.134-5.644 2.444-1.04z"/><path fill="#e13eaf" fill-rule="evenodd" d="m942.378 472.631 6.93 4.38.178 7.36-6.797 2.981-6.93-4.38-.177-7.36zm-.167-2.077q-.166 0-.321.045c-.045 0-.045.045-.089.045l-7.818 3.432c-.311.136-.49.407-.49.768l.179 8.49c0 .315.221.677.532.857l8.041 5.058c.178.12.395.18.612.18q.165 0 .32-.045c.045 0 .09 0 .09-.045l7.818-3.432c.311-.135.489-.406.489-.768l-.178-8.489c0-.316-.222-.677-.533-.858l-8.04-5.057a1.1 1.1 0 0 0-.612-.18"/><path fill="#a0d5e1" fill-opacity=".329" fill-rule="evenodd" d="M968.722 466.192a2.805 2.805 0 0 1 2.805-2.805h71.802a2.805 2.805 0 0 1 2.805 2.805v39.593a2.805 2.805 0 0 1-2.805 2.805h-71.802a2.805 2.805 0 0 1-2.805-2.805z"/><path fill="#134f5c" d="m985.005 480.821.172 1.125.234-1.016 1.688-5.953h.953l1.64 5.953.235 1.032.187-1.157 1.329-5.828h1.125l-2.063 8.532h-1.031l-1.766-6.22-.125-.655-.14.656-1.813 6.219h-1.03l-2.063-8.532h1.125zm8.168-.547q0-.922.36-1.672.374-.75 1.03-1.14.657-.407 1.485-.407 1.297 0 2.094.891.812.89.812 2.39v.079q0 .922-.36 1.656-.358.734-1.015 1.156-.656.407-1.515.407-1.282 0-2.094-.891-.797-.906-.797-2.39zm1.094.14q0 1.048.484 1.688.5.641 1.313.641.828 0 1.312-.64.485-.657.485-1.829 0-1.031-.5-1.672-.485-.656-1.313-.656-.797 0-1.297.64-.484.626-.484 1.829m9.11-2.28q-.25-.032-.532-.032-1.078 0-1.453.907v4.5h-1.078v-6.344h1.047l.015.734q.531-.844 1.516-.844.312 0 .484.079zm2.763 2.437-.688.703v2.235h-1.078v-9h1.078v5.437l.578-.687 1.985-2.094h1.312l-2.468 2.656 2.765 3.688h-1.281zm5.488 2.938h-1.078v-9h1.078zm1.443-3.235q0-.922.36-1.672.375-.75 1.031-1.14.656-.407 1.484-.407 1.297 0 2.094.891.813.89.813 2.39v.079q0 .922-.36 1.656-.359.734-1.015 1.156-.657.407-1.516.407-1.281 0-2.094-.891-.797-.906-.797-2.39zm1.094.14q0 1.048.485 1.688.5.641 1.312.641.828 0 1.313-.64.484-.657.484-1.829 0-1.031-.5-1.672-.484-.656-1.313-.656-.796 0-1.296.64-.485.626-.485 1.829m9.953 3.095q-.093-.188-.156-.672-.75.797-1.797.797-.937 0-1.547-.532-.593-.53-.593-1.359 0-.984.75-1.531t2.125-.547h1.046v-.5q0-.563-.343-.89-.328-.345-1-.345-.578 0-.969.297-.39.282-.39.703h-1.094q0-.484.328-.921.343-.438.922-.688.578-.266 1.265-.266 1.11 0 1.719.547.625.547.656 1.5v2.922q0 .875.219 1.39v.095zm-1.797-.829q.516 0 .97-.265.452-.266.655-.688v-1.297h-.843q-2 0-2 1.172 0 .5.343.797.344.281.875.281m4.153-2.39q0-1.469.687-2.344.688-.89 1.813-.89 1.11 0 1.766.75v-3.297h1.078v9h-1l-.047-.688q-.656.813-1.813.813-1.093 0-1.797-.907-.687-.906-.687-2.359zm1.078.125q0 1.078.438 1.687.453.61 1.234.61 1.031 0 1.516-.938v-2.906q-.485-.89-1.5-.89-.797 0-1.25.609-.438.61-.438 1.828M984.57 494.04q0-1.313.343-2.531.36-1.22 1.063-2.22t1.468-1.405l.22.718q-.86.657-1.407 2-.547 1.344-.594 3.016l-.015.5q0 2.266.828 3.922.5 1 1.187 1.562l-.219.657q-.78-.422-1.5-1.454-1.375-1.984-1.375-4.765m6.82-.328q-1.438-.422-2.11-1.032-.656-.609-.656-1.5 0-1 .797-1.656.813-.672 2.11-.672.874 0 1.562.344.687.344 1.062.938.391.593.391 1.312h-1.14q0-.781-.5-1.219-.485-.437-1.376-.437-.828 0-1.296.375-.47.36-.47 1 0 .531.438.89.453.36 1.516.657t1.656.656q.61.36.89.844.298.484.298 1.125 0 1.047-.813 1.672t-2.156.625q-.89 0-1.656-.344-.75-.344-1.172-.922-.406-.594-.406-1.328h1.125q0 .765.578 1.219.578.453 1.53.453.892 0 1.36-.36.47-.375.47-1t-.438-.968-1.594-.672m7.072 3.922q-1.297 0-2.11-.844-.796-.86-.796-2.281v-.188q0-.953.36-1.687.359-.75 1-1.157.655-.422 1.405-.422 1.235 0 1.922.813.688.812.688 2.328v.453h-4.297q.031.938.547 1.516.531.578 1.344.578.562 0 .953-.234.406-.235.718-.625l.657.515q-.797 1.235-2.39 1.235m-.14-5.688q-.657 0-1.11.484-.437.47-.531 1.329h3.172v-.079q-.047-.828-.453-1.28-.391-.454-1.079-.454m6.935.188q-.25-.032-.531-.032-1.078 0-1.453.907v4.5h-1.078v-6.344h1.046l.016.734q.531-.844 1.516-.844.312 0 .484.079zm3.182 3.906 1.578-4.875h1.11l-2.282 6.344h-.828l-2.297-6.344h1.11zm4.906 1.469h-1.078v-6.344h1.078zm-1.172-8.016q0-.266.156-.453.172-.188.485-.188.312 0 .468.188.172.187.172.453 0 .25-.172.437-.156.172-.468.172t-.485-.172q-.156-.187-.156-.437m5.443 7.25q.579 0 1.016-.344.438-.36.484-.89h1.032q-.032.546-.391 1.046-.344.485-.922.782-.562.297-1.219.297-1.296 0-2.062-.86-.75-.875-.75-2.375v-.187q0-.922.328-1.64.344-.72.969-1.11.64-.407 1.515-.407 1.063 0 1.766.641.719.625.766 1.656h-1.032q-.046-.625-.468-1.015t-1.032-.39q-.828 0-1.28.593-.454.594-.454 1.719v.203q0 1.093.453 1.687t1.281.594m6.375.89q-1.296 0-2.109-.843-.797-.86-.797-2.281v-.188q0-.953.36-1.687.359-.75 1-1.157.656-.422 1.406-.422 1.234 0 1.922.813t.687 2.328v.453h-4.297q.032.938.547 1.516.531.578 1.344.578.562 0 .953-.234.406-.235.719-.625l.656.515q-.797 1.235-2.39 1.235m-.14-5.687q-.656 0-1.11.484-.437.47-.53 1.329h3.171v-.079q-.047-.828-.453-1.28-.39-.454-1.078-.454m6.373 2.156q0 1.313-.344 2.516-.344 1.187-1.062 2.203-.704 1.016-1.47 1.438l-.234-.657q.907-.687 1.454-2.14.546-1.469.562-3.235v-.187q0-1.235-.266-2.297-.25-1.063-.718-1.89-.453-.844-1.032-1.313l.235-.656q.765.421 1.469 1.421.703 1 1.046 2.22.36 1.202.36 2.577"/><path d="M898.41 512.127V458.25h15.788v53.878z"/><path fill="#999" d="M903.856 491.678h2.235v.75h-5.688v-2.11q0-.921.485-1.452.468-.532 1.25-.532.828 0 1.28.516.438.516.438 1.484zm-.609 0v-1.36q0-.593-.281-.905-.281-.329-.813-.329-.515 0-.812.329-.313.312-.328.875v1.39zm.188-8.672q.828 0 1.453.282.625.28.953.796t.328 1.204q0 .671-.328 1.187t-.938.813q-.625.28-1.422.28h-.406q-.828 0-1.453-.28-.625-.282-.953-.797-.344-.532-.344-1.203 0-.688.328-1.204.328-.515.953-.796t1.47-.282zm-.375.735q-1.016 0-1.547.406-.547.406-.547 1.14 0 .72.547 1.126.53.406 1.5.421h.422q.968 0 1.53-.406.563-.422.563-1.14 0-.735-.53-1.125-.532-.407-1.517-.422zm3.03-1.86h-5.687v-1.609q0-.75.328-1.313.329-.578.938-.875.594-.312 1.39-.328h.36q.797 0 1.406.313.61.312.938.89.312.579.328 1.344zm-5.077-.75h4.468v-.797q0-.859-.53-1.343-.548-.485-1.548-.485h-.328q-.969 0-1.5.453-.547.454-.562 1.297z"/><path fill="#fbfbfb" fill-rule="evenodd" d="M896.806 529.147a3.446 3.446 0 0 1 3.446-3.445h147.762a3.445 3.445 0 0 1 3.445 3.445v48.639a3.446 3.446 0 0 1-3.445 3.445H900.252a3.446 3.446 0 0 1-3.446-3.445z"/><path fill="#ead1dc" fill-opacity=".706" fill-rule="evenodd" d="M912.946 533.671a2.805 2.805 0 0 1 2.805-2.805h44.46a2.805 2.805 0 0 1 2.804 2.805v39.593a2.805 2.805 0 0 1-2.804 2.805h-44.46a2.805 2.805 0 0 1-2.805-2.805z"/><path fill="#4a0d66" fill-rule="evenodd" d="M925.01 561.65q.465 0 .799.135c.222.09.4.226.533.362.178.18.266.36.355.587.045.225.089.451.089.722h-3.643c0-.18 0-.406.09-.632.133-.226.221-.406.399-.587s.355-.316.622-.406c.222-.136.489-.181.755-.181m.044-.994c-.445 0-.889.046-1.289.226s-.71.407-.977.723a2.3 2.3 0 0 0-.666 1.038 3.1 3.1 0 0 0-.267 1.31c0 .452.089.903.222 1.31.134.36.356.722.622 1.038.267.271.622.497 1.022.677q.6.271 1.333.271c1.155 0 2.087-.451 2.71-1.264l-.889-.723a2.9 2.9 0 0 1-.755.723 2.04 2.04 0 0 1-.933.226q-.4 0-.8-.136c-.222-.09-.444-.18-.666-.361-.178-.135-.311-.361-.444-.587a1.34 1.34 0 0 1-.178-.722h4.975v-.452c0-.406-.044-.813-.177-1.22a2.6 2.6 0 0 0-.533-1.038 2.3 2.3 0 0 0-.933-.768c-.356-.18-.844-.27-1.377-.27m7.241-.001c-.488 0-.888.136-1.243.317-.356.18-.622.496-.8.812v-.948h-1.155v6.277h1.155v-3.252c0-.36.044-.632.133-.903.09-.27.222-.496.356-.677q.266-.27.533-.406c.222-.045.444-.09.71-.09.178 0 .356 0 .49.09.177.045.355.135.488.27.089.136.222.272.31.497.045.226.09.452.09.768v3.703h1.199v-4.064c0-.407-.089-.768-.178-1.084-.133-.27-.31-.542-.533-.722-.177-.181-.4-.317-.71-.452a2.6 2.6 0 0 0-.845-.136m2.621.181 2.533 6.277h1.288l2.399-6.277h-1.244l-1.777 4.787-1.821-4.787zm9.595.948c.312 0 .578.046.845.181.266.09.444.27.622.452q.265.27.4.677c.133.27.177.542.177.858s-.044.632-.178.903a1.7 1.7 0 0 1-.4.678c-.177.18-.355.36-.621.451-.267.135-.533.18-.844.18s-.578-.09-.844-.18c-.267-.09-.489-.271-.667-.451a1.7 1.7 0 0 1-.4-.678 3 3 0 0 1-.133-.903c0-.316.045-.587.134-.858.088-.271.266-.497.4-.677.177-.226.4-.362.666-.452.266-.135.533-.18.844-.18m0-1.129c-.444 0-.888.09-1.288.271s-.755.407-1.021.723c-.311.271-.533.632-.711 1.039a3.1 3.1 0 0 0-.267 1.264c0 .452.09.903.267 1.31.178.36.4.722.71 1.038.267.271.623.497 1.022.677.4.181.844.271 1.289.271s.888-.09 1.288-.27q.6-.271 1.066-.678c.267-.316.533-.632.666-1.039.178-.406.267-.857.267-1.309s-.089-.858-.267-1.264c-.133-.407-.4-.723-.666-1.039a3.4 3.4 0 0 0-1.066-.723c-.4-.18-.844-.27-1.288-.27m3.375.179 2.576 6.322-.4.993a1.6 1.6 0 0 0-.177.407c-.089.135-.133.226-.222.316-.134.09-.222.18-.356.226-.088.045-.266.045-.444.045-.222 0-.489-.045-.71-.136l-.134 1.084q.266.135.533.136c.178.045.356.045.533.045q.467 0 .8-.136c.222-.09.4-.225.577-.36.134-.181.267-.362.356-.588.133-.226.222-.451.355-.722l2.932-7.632h-1.288l-1.733 4.877h-.044l-1.821-4.877z"/><path fill="#b31aab" fill-rule="evenodd" d="M931.184 548.013v1.625l1.732 1.13-.044-1.671zm2.576 4.244v.004zm0 .004.045 1.667 1.555.994-.045-1.626-1.51-.993s-.042 0-.044-.042m-5.909-4.338-3.11 1.354a.71.71 0 0 0-.355.587l.134 5.013q0 .405.4.677l4.708 2.935c.167.102.358.152.537.152q.09 0 .174-.017s.044 0 .044-.045l2.932-1.264-1.599-.993-1.732.767-3.954-2.484-.089-4.154 1.91-.858z"/><path fill="#d163ce" fill-rule="evenodd" d="m936.515 543.497-.178.09.044 1.761 4.531 2.845.09 4.697 1.732 1.083.133-.045-.133-6.05c-.045-.272-.178-.588-.489-.768zm-3.732.633-3.776 1.625a.715.715 0 0 0-.444.677l.133 6.638c0 .316.222.587.489.768l6.263 3.928a.9.9 0 0 0 .543.181.7.7 0 0 0 .257-.045c.045 0 .089-.045.089-.045l3.687-1.58-1.821-1.175-2.355.994-5.33-3.342-.134-5.644 2.444-1.039z"/><path fill="#e13eaf" fill-rule="evenodd" d="m942.378 540.11 6.93 4.38.178 7.36-6.797 2.981-6.93-4.38-.177-7.36zm-.167-2.077q-.166 0-.321.045c-.045 0-.045.045-.089.045l-7.818 3.432c-.311.136-.49.407-.49.768l.179 8.49c0 .316.222.677.533.857l8.04 5.058c.178.12.395.18.612.18q.164 0 .321-.045c.044 0 .089 0 .089-.045l7.818-3.432c.311-.135.489-.406.489-.767l-.178-8.49c0-.316-.222-.677-.533-.858l-8.04-5.057a1.1 1.1 0 0 0-.612-.18"/><path fill="#a0d5e1" fill-opacity=".329" fill-rule="evenodd" d="M968.722 533.671a2.805 2.805 0 0 1 2.805-2.805h71.802a2.805 2.805 0 0 1 2.805 2.805v39.593a2.805 2.805 0 0 1-2.805 2.805h-71.802a2.805 2.805 0 0 1-2.805-2.805z"/><path fill="#134f5c" d="m985.005 548.3.172 1.125.234-1.015 1.688-5.954h.953l1.64 5.954.235 1.03.188-1.155 1.328-5.829h1.125l-2.063 8.532h-1.031l-1.766-6.219-.125-.656-.14.656-1.813 6.219h-1.03l-2.063-8.532h1.125zm8.168-.547q0-.922.36-1.672.375-.75 1.03-1.14.657-.406 1.485-.406 1.297 0 2.094.89.812.89.812 2.39v.079q0 .922-.359 1.656-.36.735-1.016 1.156-.656.407-1.515.407-1.281 0-2.094-.89-.797-.907-.797-2.392zm1.094.141q0 1.047.484 1.687.5.641 1.313.641.828 0 1.312-.64.485-.657.485-1.829 0-1.03-.5-1.672-.485-.656-1.313-.656-.797 0-1.297.64-.484.626-.484 1.829m9.11-2.281q-.25-.032-.532-.032-1.078 0-1.453.907v4.5h-1.078v-6.344h1.047l.015.734q.532-.843 1.516-.843.312 0 .484.078zm2.763 2.437-.688.703v2.235h-1.078v-9h1.078v5.437l.579-.687 1.984-2.094h1.312l-2.468 2.656 2.765 3.688h-1.28zm5.488 2.938h-1.078v-9h1.078zm1.444-3.235q0-.922.359-1.672.375-.75 1.031-1.14.656-.406 1.485-.406 1.296 0 2.093.89.813.89.813 2.39v.079q0 .922-.36 1.656-.359.735-1.015 1.156-.656.407-1.516.407-1.281 0-2.094-.89-.796-.907-.796-2.392zm1.093.141q0 1.047.485 1.687.5.641 1.312.641.828 0 1.313-.64.484-.657.484-1.829 0-1.03-.5-1.672-.484-.656-1.312-.656-.797 0-1.297.64-.485.626-.485 1.829m9.953 3.094q-.093-.188-.156-.672-.75.797-1.797.797-.937 0-1.547-.532-.593-.53-.593-1.359 0-.984.75-1.531t2.125-.547h1.047v-.5q0-.563-.344-.89-.328-.344-1-.344-.578 0-.969.296-.39.282-.39.704h-1.094q0-.485.328-.922.344-.438.922-.688.578-.265 1.265-.265 1.11 0 1.719.546.625.547.656 1.5v2.922q0 .875.219 1.391v.094zm-1.796-.828q.515 0 .968-.266t.657-.688v-1.296h-.844q-2 0-2 1.171 0 .5.344.797.343.282.875.282m4.152-2.391q0-1.469.687-2.344.688-.89 1.813-.89 1.11 0 1.766.75v-3.297h1.078v9h-1l-.047-.688q-.656.813-1.813.813-1.093 0-1.797-.907-.687-.906-.687-2.359zm1.078.125q0 1.078.438 1.687.453.61 1.234.61 1.031 0 1.516-.938v-2.906q-.485-.89-1.5-.89-.797 0-1.25.609-.438.61-.438 1.828m-42.982 13.625q0-1.312.343-2.531.36-1.219 1.063-2.219t1.469-1.406l.218.718q-.859.657-1.406 2-.547 1.344-.594 3.016l-.015.5q0 2.266.828 3.922.5 1 1.187 1.563l-.218.656q-.782-.422-1.5-1.453-1.375-1.985-1.375-4.766m6.82-.328q-1.438-.422-2.11-1.031-.656-.61-.656-1.5 0-1 .797-1.657.813-.672 2.11-.672.875 0 1.562.344t1.063.938q.39.593.39 1.312h-1.14q0-.781-.5-1.218-.485-.438-1.375-.438-.829 0-1.297.375-.469.36-.469 1 0 .531.437.89.454.36 1.516.657t1.656.656q.61.36.891.844.297.484.297 1.125 0 1.047-.813 1.672t-2.156.625q-.89 0-1.656-.344-.75-.344-1.172-.922-.406-.594-.406-1.328h1.125q0 .766.578 1.219t1.531.453q.89 0 1.36-.36.468-.375.468-1t-.437-.968-1.594-.672m7.072 3.922q-1.297 0-2.11-.844-.796-.86-.796-2.281v-.188q0-.953.36-1.687.359-.75 1-1.157.656-.421 1.406-.421 1.234 0 1.921.812t.688 2.328v.453h-4.297q.031.938.547 1.516.531.578 1.344.578.562 0 .953-.234.406-.235.719-.625l.656.515q-.797 1.235-2.39 1.235m-.14-5.688q-.657 0-1.11.485-.437.468-.531 1.328h3.172v-.078q-.047-.828-.453-1.282-.39-.453-1.078-.453m6.935.188q-.25-.032-.531-.032-1.078 0-1.453.907v4.5h-1.078v-6.344h1.047l.015.734q.531-.843 1.516-.843.312 0 .484.078zm3.182 3.906 1.578-4.875h1.11l-2.282 6.344h-.828l-2.297-6.344h1.11zm4.906 1.469h-1.078v-6.344h1.078zm-1.172-8.016q0-.265.156-.453.172-.187.485-.187.312 0 .469.187.171.188.171.453 0 .25-.171.438-.157.172-.47.172t-.484-.172q-.156-.188-.156-.438m5.444 7.25q.578 0 1.015-.344.438-.359.485-.89h1.03q-.03.547-.39 1.047-.344.484-.922.78-.562.298-1.218.298-1.297 0-2.063-.86-.75-.875-.75-2.375v-.187q0-.922.328-1.64.344-.72.969-1.11.64-.406 1.516-.406 1.062 0 1.765.64.719.625.766 1.657h-1.031q-.047-.625-.47-1.016-.421-.39-1.03-.39-.829 0-1.282.593-.453.594-.453 1.719v.203q0 1.094.453 1.687.453.594 1.282.594m6.375.89q-1.297 0-2.11-.843-.797-.86-.797-2.281v-.188q0-.953.36-1.687.359-.75 1-1.157.656-.421 1.406-.421 1.234 0 1.922.812t.687 2.328v.453h-4.297q.032.938.547 1.516.532.578 1.344.578.562 0 .953-.234.406-.235.719-.625l.656.515q-.797 1.235-2.39 1.235m-.141-5.687q-.656 0-1.11.485-.437.468-.53 1.328h3.171v-.078q-.047-.828-.453-1.282-.39-.453-1.078-.453m6.373 2.157q0 1.312-.344 2.515-.344 1.188-1.062 2.203-.703 1.016-1.47 1.438l-.233-.657q.906-.687 1.453-2.14.547-1.469.562-3.235v-.187q0-1.234-.265-2.297-.25-1.062-.72-1.89-.452-.844-1.03-1.313l.234-.656q.766.422 1.469 1.422t1.047 2.218q.359 1.203.359 2.578"/><path d="M898.41 579.607v-53.88h15.788v53.88z"/><path fill="#999" d="M903.857 559.157h2.234v.75h-5.688v-2.109q0-.922.485-1.453.469-.531 1.25-.531.828 0 1.281.515.438.516.438 1.485zm-.61 0v-1.359q0-.594-.281-.906-.281-.328-.813-.328-.515 0-.812.328-.313.312-.328.875v1.39zm.188-8.672q.828 0 1.453.282t.953.797.328 1.203q0 .672-.328 1.187-.328.516-.938.813-.625.281-1.421.281h-.407q-.828 0-1.453-.281t-.953-.797q-.344-.531-.344-1.203 0-.688.328-1.203.329-.516.954-.797t1.468-.282zm-.375.735q-1.016 0-1.547.406-.547.406-.547 1.14 0 .72.547 1.126.531.406 1.5.422h.422q.968 0 1.53-.407.563-.422.563-1.14 0-.735-.53-1.125-.532-.407-1.516-.422zm3.03-1.86h-5.687v-1.609q0-.75.329-1.312.328-.579.937-.875.594-.313 1.39-.329h.36q.797 0 1.406.313.61.312.938.89.312.579.328 1.344zm-5.077-.75h4.469v-.796q0-.86-.532-1.344-.547-.485-1.547-.485h-.328q-.968 0-1.5.454-.547.453-.562 1.296z"/><path d="m843.96 519.593 54.457 33.07"/><path stroke="#6d6d6d" stroke-linecap="butt" stroke-linejoin="round" stroke-width="2" d="m843.96 519.593 44.2 26.842"/><path fill="#6d6d6d" fill-rule="evenodd" stroke="#6d6d6d" stroke-linecap="butt" stroke-width="2" d="m886.446 549.259 9.472 1.887-6.043-7.535z"/><path d="m843.96 519.593 54.457-34.394"/><path stroke="#6d6d6d" stroke-linecap="butt" stroke-linejoin="round" stroke-width="2" d="m843.96 519.593 44.312-27.986"/><path fill="#6d6d6d" fill-rule="evenodd" stroke="#6d6d6d" stroke-linecap="butt" stroke-width="2" d="m890.036 494.4 5.91-7.64-9.438 2.054z"/><path fill="#326ce5" fill-rule="evenodd" d="M860.538 568.803a1.9 1.9 0 0 0-.708.18l-9.66 4.615a1.84 1.84 0 0 0-1 1.243l-2.382 10.367a1.82 1.82 0 0 0 .356 1.55l6.686 8.313c.35.436.882.69 1.444.69l10.721-.003c.562 0 1.094-.253 1.445-.688l6.683-8.314a1.82 1.82 0 0 0 .357-1.55l-2.387-10.368c-.125-.543-.493-1-1-1.243l-9.66-4.613a1.86 1.86 0 0 0-.895-.179"/><path stroke="#fff" stroke-linecap="butt" stroke-miterlimit="8" d="M860.538 568.803a1.9 1.9 0 0 0-.708.18l-9.66 4.615a1.84 1.84 0 0 0-1 1.243l-2.382 10.367a1.82 1.82 0 0 0 .356 1.55l6.686 8.313c.35.436.882.69 1.444.69l10.721-.003c.562 0 1.094-.253 1.445-.688l6.683-8.314a1.82 1.82 0 0 0 .357-1.55l-2.387-10.368c-.125-.543-.493-1-1-1.243l-9.66-4.613a1.86 1.86 0 0 0-.895-.179z"/><path fill="#fff" fill-rule="evenodd" d="M860.633 572.331c-.319 0-.578.288-.578.643l.001.016c0 .048-.002.106 0 .148.007.205.051.361.078.55.049.403.09.738.064 1.049a.63.63 0 0 1-.187.299l-.014.244a7.44 7.44 0 0 0-4.823 2.319l-.209-.148c-.103.014-.207.046-.343-.034-.259-.174-.494-.414-.78-.704-.13-.138-.225-.27-.38-.404-.035-.03-.09-.071-.129-.102a.7.7 0 0 0-.402-.152.56.56 0 0 0-.461.204c-.2.25-.135.63.142.852l.009.006c.038.031.084.07.12.097.164.121.315.183.479.28.346.214.632.39.86.604.088.095.104.262.116.334l.185.165a7.48 7.48 0 0 0-1.18 5.216l-.242.07c-.064.083-.154.212-.248.251-.298.094-.632.128-1.037.17-.19.016-.353.007-.554.045-.045.008-.106.025-.155.036l-.005.001-.008.003c-.341.082-.56.395-.49.704s.404.496.747.422l.008-.001q.006-.001.011-.004c.048-.01.108-.022.15-.033.198-.053.34-.13.519-.199.382-.137.7-.252 1.008-.296.129-.01.265.08.332.117l.252-.043a7.52 7.52 0 0 0 3.334 4.163l-.105.252c.038.098.08.23.052.327-.112.29-.305.598-.524.94-.105.159-.214.281-.31.462-.022.044-.052.11-.074.156-.148.318-.04.684.246.822.287.138.644-.008.798-.326l.001-.002c.022-.046.054-.106.072-.148.082-.188.11-.348.167-.53.153-.384.237-.787.447-1.039.058-.068.152-.095.25-.12l.13-.238a7.47 7.47 0 0 0 5.336.013c.037.066.105.191.124.223.099.032.207.049.295.179.157.27.265.588.396.972.058.182.087.342.168.53l.072.148c.154.32.512.466.8.328.285-.138.394-.504.245-.822-.022-.046-.052-.112-.075-.155-.096-.181-.204-.303-.31-.461-.22-.343-.4-.627-.513-.918-.047-.15.008-.243.045-.341-.022-.025-.07-.167-.097-.234a7.52 7.52 0 0 0 3.333-4.192c.075.011.205.034.247.043.087-.058.167-.132.324-.12.309.045.626.16 1.008.297.178.068.321.147.519.2.042.01.102.021.15.032l.01.003.01.002c.342.073.675-.114.745-.423.07-.308-.148-.622-.489-.704-.05-.011-.12-.03-.168-.04-.201-.038-.365-.028-.554-.044-.405-.042-.74-.077-1.037-.17-.121-.048-.208-.192-.25-.251l-.233-.068a7.5 7.5 0 0 0-.121-2.7 7.5 7.5 0 0 0-1.084-2.504l.206-.184c.009-.103 0-.212.108-.327.228-.213.514-.39.86-.604.164-.097.316-.159.48-.28.038-.028.089-.072.128-.103.277-.221.341-.603.142-.853s-.585-.273-.862-.051c-.04.03-.093.072-.129.102-.155.134-.25.266-.382.404-.285.29-.52.531-.78.706-.111.065-.275.042-.35.038l-.22.157a7.58 7.58 0 0 0-4.8-2.32l-.013-.257c-.075-.072-.166-.134-.189-.29-.025-.31.017-.645.066-1.048.026-.189.071-.345.079-.55.001-.046-.001-.114-.002-.164 0-.355-.258-.643-.578-.643m-.724 4.485-.171 3.033-.013.006a.51.51 0 0 1-.809.39l-.005.003-2.487-1.763a5.96 5.96 0 0 1 3.485-1.67m1.45 0a6 6 0 0 1 3.463 1.67l-2.47 1.752-.009-.004a.51.51 0 0 1-.81-.39h-.003zm-5.836 2.802 2.27 2.03-.002.013a.51.51 0 0 1-.2.876l-.003.01-2.91.84a5.96 5.96 0 0 1 .845-3.77m10.205 0c.337.548.593 1.158.745 1.82a6 6 0 0 1 .126 1.939l-2.925-.843-.003-.012a.51.51 0 0 1-.2-.876l-.001-.006zm-5.56 2.187h.93l.578.723-.208.902-.835.401-.837-.402-.208-.902zm2.982 2.474a.5.5 0 0 1 .117.008l.005-.006 3.01.51a5.96 5.96 0 0 1-2.41 3.027l-1.168-2.823.003-.005a.51.51 0 0 1 .443-.711m-5.057.012a.51.51 0 0 1 .461.71l.009.011-1.157 2.795a6 6 0 0 1-2.402-3.007l2.984-.507.005.007a.5.5 0 0 1 .1-.009m2.522 1.224a.51.51 0 0 1 .467.268h.01l1.472 2.659a5.98 5.98 0 0 1-3.85-.004l1.467-2.653h.003a.51.51 0 0 1 .43-.27"/><path stroke="#fff" stroke-linecap="butt" stroke-miterlimit="8" d="M860.633 572.331c-.319 0-.578.288-.578.643l.001.016c0 .048-.002.106 0 .148.007.205.051.361.078.55.049.403.09.738.064 1.049a.63.63 0 0 1-.187.299l-.014.244a7.44 7.44 0 0 0-4.823 2.319l-.209-.148c-.103.014-.207.046-.343-.034-.259-.174-.494-.414-.78-.704-.13-.138-.225-.27-.38-.404-.035-.03-.09-.071-.129-.102a.7.7 0 0 0-.402-.152.56.56 0 0 0-.461.204c-.2.25-.135.63.142.852l.009.006c.038.031.084.07.12.097.164.121.315.183.479.28.346.214.632.39.86.604.088.095.104.262.116.334l.185.165a7.48 7.48 0 0 0-1.18 5.216l-.242.07c-.064.083-.154.212-.248.251-.298.094-.632.128-1.037.17-.19.016-.353.007-.554.045-.045.008-.106.025-.155.036l-.005.001-.008.003c-.341.082-.56.395-.49.704s.404.496.747.422l.008-.001q.006-.001.011-.004c.048-.01.108-.022.15-.033.198-.053.34-.13.519-.199.382-.137.7-.252 1.008-.296.129-.01.265.08.332.117l.252-.043a7.52 7.52 0 0 0 3.334 4.163l-.105.252c.038.098.08.23.052.327-.112.29-.305.598-.524.94-.105.159-.214.281-.31.462-.022.044-.052.11-.074.156-.148.318-.04.684.246.822.287.138.644-.008.798-.326l.001-.002c.022-.046.054-.106.072-.148.082-.188.11-.348.167-.53.153-.384.237-.787.447-1.039.058-.068.152-.095.25-.12l.13-.238a7.47 7.47 0 0 0 5.336.013c.037.066.105.191.124.223.099.032.207.049.295.179.157.27.265.588.396.972.058.182.087.342.168.53l.072.148c.154.32.512.466.8.328.285-.138.394-.504.245-.822-.022-.046-.052-.112-.075-.155-.096-.181-.204-.303-.31-.461-.22-.343-.4-.627-.513-.918-.047-.15.008-.243.045-.341-.022-.025-.07-.167-.097-.234a7.52 7.52 0 0 0 3.333-4.192c.075.011.205.034.247.043.087-.058.167-.132.324-.12.309.045.626.16 1.008.297.178.068.321.147.519.2.042.01.102.021.15.032l.01.003.01.002c.342.073.675-.114.745-.423.07-.308-.148-.622-.489-.704-.05-.011-.12-.03-.168-.04-.201-.038-.365-.028-.554-.044-.405-.042-.74-.077-1.037-.17-.121-.048-.208-.192-.25-.251l-.233-.068a7.5 7.5 0 0 0-.121-2.7 7.5 7.5 0 0 0-1.084-2.504l.206-.184c.009-.103 0-.212.108-.327.228-.213.514-.39.86-.604.164-.097.316-.159.48-.28.038-.028.089-.072.128-.103.277-.221.341-.603.142-.853s-.585-.273-.862-.051c-.04.03-.093.072-.129.102-.155.134-.25.266-.382.404-.285.29-.52.531-.78.706-.111.065-.275.042-.35.038l-.22.157a7.58 7.58 0 0 0-4.8-2.32l-.013-.257c-.075-.072-.166-.134-.189-.29-.025-.31.017-.645.066-1.048.026-.189.071-.345.079-.55.001-.046-.001-.114-.002-.164 0-.355-.258-.643-.578-.643zm-.724 4.485-.171 3.033-.013.006a.51.51 0 0 1-.809.39l-.005.003-2.487-1.763a5.96 5.96 0 0 1 3.485-1.67zm1.45 0a6 6 0 0 1 3.463 1.67l-2.47 1.752-.009-.004a.51.51 0 0 1-.81-.39h-.003zm-5.836 2.802 2.27 2.03-.002.013a.51.51 0 0 1-.2.876l-.003.01-2.91.84a5.96 5.96 0 0 1 .845-3.77zm10.205 0c.337.548.593 1.158.745 1.82a6 6 0 0 1 .126 1.939l-2.925-.843-.003-.012a.51.51 0 0 1-.2-.876l-.001-.006zm-5.56 2.187h.93l.578.723-.208.902-.835.401-.837-.402-.208-.902zm2.982 2.474a.5.5 0 0 1 .117.008l.005-.006 3.01.51a5.96 5.96 0 0 1-2.41 3.027l-1.168-2.823.003-.005a.51.51 0 0 1 .443-.711zm-5.057.012a.51.51 0 0 1 .461.71l.009.011-1.157 2.795a6 6 0 0 1-2.402-3.007l2.984-.507.005.007a.5.5 0 0 1 .1-.009zm2.522 1.224a.51.51 0 0 1 .467.268h.01l1.472 2.659a5.98 5.98 0 0 1-3.85-.004l1.467-2.653h.003a.51.51 0 0 1 .43-.27z"/><path d="M822.444 415h268.913v35.559H822.444z"/><path fill="#000" d="M921.686 434.331h-3.97l-.89 2.469h-1.281l3.61-9.469h1.093l3.625 9.469h-1.281zm-3.594-1.031h3.234l-1.625-4.438zm12.82.062q0 1.61-.735 2.594-.734.969-2 .969-1.281 0-2.016-.813v3.39h-1.203v-9.75h1.11l.046.782q.75-.906 2.047-.906 1.266 0 2 .953.75.953.75 2.672zm-1.204-.14q0-1.188-.515-1.875-.5-.703-1.391-.703-1.094 0-1.64.968v3.375q.546.953 1.656.953.875 0 1.375-.671.515-.688.515-2.047m8.681.14q0 1.61-.734 2.594-.735.969-2 .969-1.282 0-2.016-.813v3.39h-1.203v-9.75h1.11l.046.782q.75-.906 2.047-.906 1.266 0 2 .953.75.953.75 2.672zm-1.203-.14q0-1.188-.516-1.875-.5-.703-1.39-.703-1.094 0-1.641.968v3.375q.547.953 1.656.953.875 0 1.375-.671.516-.688.516-2.047m13.183.578q-.172 1.5-1.11 2.312-.921.813-2.468.813-1.687 0-2.703-1.203-1-1.203-1-3.22v-.905q0-1.328.469-2.328t1.328-1.532q.875-.547 2.015-.547 1.5 0 2.407.844.922.844 1.062 2.328h-1.25q-.156-1.125-.703-1.625-.547-.515-1.516-.515-1.203 0-1.89.89-.672.875-.672 2.516v.922q0 1.531.64 2.453.641.906 1.813.906 1.031 0 1.578-.469.563-.468.75-1.64zm2.831 3h-1.203v-10h1.203zm6.282-.703q-.703.828-2.063.828-1.14 0-1.734-.64-.578-.657-.578-1.938v-4.594h1.203v4.547q0 1.61 1.297 1.61 1.375 0 1.828-1.032v-5.125h1.219v7.047h-1.157zm7.097-1.172q0-.485-.375-.75-.36-.266-1.281-.453-.906-.203-1.453-.47-.532-.28-.797-.655-.25-.39-.25-.907 0-.859.734-1.453.735-.61 1.875-.61 1.188 0 1.938.626.75.61.75 1.578h-1.22q0-.5-.422-.86-.422-.359-1.047-.359-.656 0-1.031.297-.375.281-.375.75 0 .422.344.656.343.22 1.25.422.906.203 1.453.485.562.265.828.672.281.39.281.953 0 .937-.765 1.515-.75.563-1.954.563-.843 0-1.5-.297-.64-.297-1.015-.828-.36-.547-.36-1.172h1.204q.03.61.484.969.453.343 1.187.343.688 0 1.094-.265.422-.281.422-.75m4.404-6.875v1.703h1.312v.937h-1.312v4.36q0 .422.172.64.171.22.593.22.219 0 .578-.079v.969q-.468.125-.921.125-.813 0-1.22-.485-.405-.484-.405-1.39v-4.36h-1.282v-.937h1.282v-1.703zm5.635 8.875q-1.422 0-2.328-.938-.891-.937-.891-2.515v-.22q0-1.046.39-1.858.407-.829 1.126-1.297.718-.47 1.562-.47 1.375 0 2.125.907.766.906.766 2.594v.5h-4.766q.016 1.031.594 1.672.594.64 1.484.64.64 0 1.078-.25.453-.265.782-.687l.734.562q-.875 1.36-2.656 1.36m-.141-6.313q-.734 0-1.234.532-.485.53-.61 1.484h3.532v-.078q-.047-.922-.5-1.422-.438-.516-1.188-.516m7.686.219q-.266-.031-.594-.031-1.187 0-1.609 1v5h-1.203v-7.047h1.172l.031.812q.578-.937 1.672-.937.344 0 .531.094zm13.797 5.969h-6.22v-.86l3.282-3.656q.734-.828 1-1.344.281-.515.281-1.062 0-.75-.453-1.219-.437-.469-1.187-.469-.891 0-1.391.516-.5.5-.5 1.406h-1.203q0-1.297.844-2.11.843-.812 2.25-.812 1.328 0 2.093.704.766.687.766 1.843 0 1.39-1.781 3.328l-2.547 2.75h4.766z"/><path fill="#6d6d6d" fill-rule="evenodd" d="M310.961 383.21c-5.714 1.279-10.429 5.194-12.666 10.509h9.19c.599-4.316 1.798-8.191 3.476-10.509m-12.706 24.214v.04c2.237 5.274 6.912 9.31 12.706 10.588-1.678-2.357-2.877-6.273-3.476-10.628zm-.599-11.867a17.7 17.7 0 0 0-.76 5.034c0 1.718.24 3.356.68 4.955h9.67c-.16-1.599-.28-3.277-.28-4.955s.12-3.396.28-5.034zm11.467 0a51 51 0 0 0-.24 5.034c0 1.758.08 3.396.24 4.955h11.148c.16-1.559.24-3.197.24-4.955 0-1.798-.08-3.436-.24-5.034zm5.554-12.747c-2.118 0-4.395 4.236-5.354 10.909h10.708c-.959-6.673-3.276-10.908-5.354-10.908m-5.354 24.653c.959 6.672 3.236 10.988 5.354 10.988 2.078 0 4.395-4.316 5.354-10.988zm9.11-24.254c1.678 2.318 2.877 6.193 3.476 10.509h9.19c-2.238-5.315-6.952-9.31-12.666-10.509m3.716 12.347c.16 1.718.28 3.396.28 5.034 0 1.678-.12 3.317-.28 4.955h9.669c.44-1.559.68-3.237.68-4.955s-.24-3.436-.76-5.034z"/><path fill="#6d6d6d" fill-rule="evenodd" d="M314.717 380.933c10.828 0 19.698 8.83 19.698 19.658 0 10.868-8.87 19.699-19.738 19.699-10.828 0-19.619-8.83-19.619-19.699 0-10.828 8.83-19.659 19.659-19.659m-.04-11.308c-17.141 0-30.966 13.865-30.966 30.966 0 17.142 13.825 30.966 30.966 30.966s30.966-13.824 30.966-30.966c0-17.061-13.825-30.966-30.966-30.966"/><path fill="#6d6d6d" fill-rule="evenodd" d="M321.909 407.424c-.6 4.355-1.758 8.27-3.476 10.628 5.714-1.279 10.468-5.274 12.666-10.628z"/><path d="M283.886 429.084h61.89v37.166h-61.89z"/><path fill="#000" d="M302.72 442.883h-3.344v9.281h-1.375v-9.281h-3.344v-1.14h8.063zm4.552 2.719q-.313-.047-.657-.047-1.297 0-1.765 1.11v5.5h-1.328v-7.75h1.296l.016.906q.656-1.047 1.844-1.047.39 0 .594.109zm5.704 6.562q-.11-.234-.188-.812-.922.953-2.203.953-1.14 0-1.875-.64-.734-.657-.734-1.641 0-1.22.922-1.875.921-.672 2.578-.672h1.297v-.61q0-.703-.422-1.109-.407-.406-1.219-.406-.703 0-1.188.36-.484.343-.484.859h-1.328q0-.579.406-1.11.422-.547 1.125-.86.703-.327 1.547-.327 1.344 0 2.094.672.765.671.797 1.843v3.563q0 1.062.265 1.703v.11zm-2.203-1.015q.625 0 1.187-.313.563-.328.813-.844v-1.578h-1.047q-2.422 0-2.422 1.422 0 .625.406.969.422.344 1.063.344m6.05 1.015v-6.718h-1.234v-1.032h1.234v-.781q0-1.25.656-1.922.672-.687 1.89-.687.454 0 .907.125l-.078 1.062q-.328-.062-.703-.062-.656 0-1 .375t-.344 1.078v.812h2.86v-.656q0-1.297.734-2.016.75-.718 2.094-.718.796 0 2.03.437l-.218 1.11q-.906-.36-1.719-.36-.843 0-1.234.39-.375.376-.375 1.141v.672h1.594v1.032h-1.594v6.718h-1.313v-6.718h-2.859v6.718zm9.687 0h-1.312v-7.75h1.312zm5.275-.937q.704 0 1.235-.422.531-.438.594-1.078h1.25q-.032.656-.454 1.265-.421.594-1.14.954-.703.359-1.485.359-1.578 0-2.515-1.047-.938-1.062-.938-2.89v-.22q0-1.14.407-2.015.421-.875 1.203-1.36.78-.5 1.828-.5 1.312 0 2.172.782.859.781.922 2.031h-1.25q-.063-.75-.579-1.234-.5-.485-1.265-.485-1 0-1.563.735-.547.719-.547 2.094v.25q0 1.328.547 2.062.547.719 1.578.719"/><path fill="#326ce5" fill-rule="evenodd" d="M435.157 426.783a1.9 1.9 0 0 0-.708.179l-9.66 4.615a1.84 1.84 0 0 0-1 1.243l-2.382 10.367a1.82 1.82 0 0 0 .356 1.55l6.685 8.313c.351.436.883.69 1.445.69l10.721-.003c.562 0 1.094-.253 1.445-.688l6.683-8.314a1.82 1.82 0 0 0 .357-1.55l-2.387-10.368c-.125-.543-.493-1-1-1.242l-9.66-4.613a1.86 1.86 0 0 0-.895-.18"/><path stroke="#fff" stroke-linecap="butt" stroke-miterlimit="8" d="M435.157 426.783a1.9 1.9 0 0 0-.708.179l-9.66 4.615a1.84 1.84 0 0 0-1 1.243l-2.382 10.367a1.82 1.82 0 0 0 .356 1.55l6.685 8.313c.351.436.883.69 1.445.69l10.721-.003c.562 0 1.094-.253 1.445-.688l6.683-8.314a1.82 1.82 0 0 0 .357-1.55l-2.387-10.368c-.125-.543-.493-1-1-1.242l-9.66-4.613a1.86 1.86 0 0 0-.895-.18z"/><path fill="#fff" fill-rule="evenodd" d="M435.252 430.31c-.319 0-.578.288-.578.643l.001.016c0 .048-.002.106 0 .148.007.205.051.362.078.55.049.404.09.738.064 1.049a.63.63 0 0 1-.187.299l-.014.245a7.44 7.44 0 0 0-4.823 2.319l-.209-.149c-.103.014-.207.046-.343-.033-.259-.174-.494-.415-.78-.704-.13-.139-.225-.27-.38-.404-.035-.03-.09-.072-.129-.103a.7.7 0 0 0-.402-.152.56.56 0 0 0-.461.204c-.2.25-.135.631.142.852l.009.007c.038.03.084.07.12.096.164.121.315.184.479.28.346.214.632.39.86.604.088.095.104.262.116.334l.185.166a7.48 7.48 0 0 0-1.18 5.215l-.242.07c-.064.083-.154.213-.248.251-.298.094-.632.129-1.037.17-.19.017-.353.007-.554.045-.045.009-.106.025-.155.036l-.005.001-.008.003c-.341.082-.56.395-.49.704s.404.496.747.423l.008-.002q.006 0 .011-.003c.048-.01.108-.023.15-.034.198-.053.34-.13.519-.199.382-.137.7-.251 1.008-.296.129-.01.264.08.332.117l.252-.043a7.52 7.52 0 0 0 3.334 4.163l-.105.252c.038.098.08.23.052.327-.112.291-.305.598-.524.94-.106.159-.214.282-.31.463-.023.043-.052.11-.074.155-.148.318-.04.685.246.822.287.138.644-.008.798-.326l.001-.001v-.002c.022-.045.053-.104.072-.147.082-.187.11-.348.167-.53.153-.384.237-.787.447-1.038.058-.07.152-.096.25-.122l.13-.237a7.47 7.47 0 0 0 5.336.014l.124.222c.099.032.207.049.295.18.157.268.265.587.396.972.058.181.087.342.168.53l.072.148c.154.32.512.466.8.327.285-.137.394-.504.245-.821-.022-.046-.052-.113-.075-.156-.096-.181-.204-.303-.31-.46-.22-.343-.4-.628-.513-.919-.047-.15.008-.243.045-.34-.022-.026-.07-.168-.097-.234a7.52 7.52 0 0 0 3.333-4.193c.075.012.205.035.247.043.087-.057.167-.132.324-.12.309.045.625.16 1.008.297.178.068.321.147.519.2.042.011.102.022.15.032l.01.004.01.001c.342.074.675-.114.745-.422.07-.31-.148-.622-.489-.705-.05-.01-.12-.03-.168-.04-.201-.037-.365-.028-.555-.044-.404-.042-.739-.076-1.036-.17-.121-.047-.208-.192-.25-.25l-.233-.069a7.5 7.5 0 0 0-.121-2.7 7.5 7.5 0 0 0-1.084-2.503l.205-.184c.01-.104.002-.213.11-.328.227-.213.513-.39.859-.604.164-.096.316-.159.48-.28.038-.028.089-.071.128-.103.277-.221.341-.603.142-.852-.2-.25-.585-.273-.862-.052-.04.031-.093.072-.129.102-.155.134-.251.266-.382.404-.285.29-.52.532-.78.706-.111.065-.275.043-.35.038l-.22.157a7.58 7.58 0 0 0-4.8-2.319l-.013-.258c-.075-.072-.166-.133-.189-.29-.025-.31.017-.644.066-1.048.026-.188.071-.345.079-.55.001-.046-.001-.114-.002-.164 0-.355-.258-.642-.578-.642m-.724 4.485-.171 3.033-.013.006a.51.51 0 0 1-.809.39l-.005.003-2.487-1.763a5.96 5.96 0 0 1 3.485-1.669m1.45 0a6 6 0 0 1 3.463 1.67l-2.47 1.752-.009-.004a.51.51 0 0 1-.81-.389l-.003-.001zm-5.837 2.802 2.271 2.03-.002.013a.51.51 0 0 1-.2.876l-.003.01-2.91.84a5.96 5.96 0 0 1 .844-3.77m10.206.001c.337.547.593 1.158.745 1.82a6 6 0 0 1 .126 1.938l-2.925-.842-.003-.013a.51.51 0 0 1-.2-.876l-.001-.006zm-5.56 2.187h.93l.578.722-.208.902-.835.402-.837-.403-.208-.902zm2.982 2.473a.5.5 0 0 1 .117.009l.005-.007 3.01.51a5.96 5.96 0 0 1-2.41 3.027l-1.168-2.823.003-.004a.51.51 0 0 1 .443-.712m-5.057.012a.51.51 0 0 1 .461.71l.009.012-1.157 2.794a6 6 0 0 1-2.402-3.007l2.984-.506.005.006a.5.5 0 0 1 .1-.009m2.522 1.225a.51.51 0 0 1 .467.268h.01l1.472 2.658a5.98 5.98 0 0 1-3.85-.004l1.467-2.653h.003a.51.51 0 0 1 .43-.27"/><path stroke="#fff" stroke-linecap="butt" stroke-miterlimit="8" d="M435.252 430.31c-.319 0-.578.288-.578.643l.001.016c0 .048-.002.106 0 .148.007.205.051.362.078.55.049.404.09.738.064 1.049a.63.63 0 0 1-.187.299l-.014.245a7.44 7.44 0 0 0-4.823 2.319l-.209-.149c-.103.014-.207.046-.343-.033-.259-.174-.494-.415-.78-.704-.13-.139-.225-.27-.38-.404-.035-.03-.09-.072-.129-.103a.7.7 0 0 0-.402-.152.56.56 0 0 0-.461.204c-.2.25-.135.631.142.852l.009.007c.038.03.084.07.12.096.164.121.315.184.479.28.346.214.632.39.86.604.088.095.104.262.116.334l.185.166a7.48 7.48 0 0 0-1.18 5.215l-.242.07c-.064.083-.154.213-.248.251-.298.094-.632.129-1.037.17-.19.017-.353.007-.554.045-.045.009-.106.025-.155.036l-.005.001-.008.003c-.341.082-.56.395-.49.704s.404.496.747.423l.008-.002q.006 0 .011-.003c.048-.01.108-.023.15-.034.198-.053.34-.13.519-.199.382-.137.7-.251 1.008-.296.129-.01.264.08.332.117l.252-.043a7.52 7.52 0 0 0 3.334 4.163l-.105.252c.038.098.08.23.052.327-.112.291-.305.598-.524.94-.106.159-.214.282-.31.463-.023.043-.052.11-.074.155-.148.318-.04.685.246.822.287.138.644-.008.798-.326l.001-.001v-.002c.022-.045.053-.104.072-.147.082-.187.11-.348.167-.53.153-.384.237-.787.447-1.038.058-.07.152-.096.25-.122l.13-.237a7.47 7.47 0 0 0 5.336.014l.124.222c.099.032.207.049.295.18.157.268.265.587.396.972.058.181.087.342.168.53l.072.148c.154.32.512.466.8.327.285-.137.394-.504.245-.821-.022-.046-.052-.113-.075-.156-.096-.181-.204-.303-.31-.46-.22-.343-.4-.628-.513-.919-.047-.15.008-.243.045-.34-.022-.026-.07-.168-.097-.234a7.52 7.52 0 0 0 3.333-4.193c.075.012.205.035.247.043.087-.057.167-.132.324-.12.309.045.625.16 1.008.297.178.068.321.147.519.2.042.011.102.022.15.032l.01.004.01.001c.342.074.675-.114.745-.422.07-.31-.148-.622-.489-.705-.05-.01-.12-.03-.168-.04-.201-.037-.365-.028-.555-.044-.404-.042-.739-.076-1.036-.17-.121-.047-.208-.192-.25-.25l-.233-.069a7.5 7.5 0 0 0-.121-2.7 7.5 7.5 0 0 0-1.084-2.503l.205-.184c.01-.104.002-.213.11-.328.227-.213.513-.39.859-.604.164-.096.316-.159.48-.28.038-.028.089-.071.128-.103.277-.221.341-.603.142-.852-.2-.25-.585-.273-.862-.052-.04.031-.093.072-.129.102-.155.134-.251.266-.382.404-.285.29-.52.532-.78.706-.111.065-.275.043-.35.038l-.22.157a7.58 7.58 0 0 0-4.8-2.319l-.013-.258c-.075-.072-.166-.133-.189-.29-.025-.31.017-.644.066-1.048.026-.188.071-.345.079-.55.001-.046-.001-.114-.002-.164 0-.355-.258-.642-.578-.642zm-.724 4.485-.171 3.033-.013.006a.51.51 0 0 1-.809.39l-.005.003-2.487-1.763a5.96 5.96 0 0 1 3.485-1.669zm1.45 0a6 6 0 0 1 3.463 1.67l-2.47 1.752-.009-.004a.51.51 0 0 1-.81-.389l-.003-.001zm-5.837 2.802 2.271 2.03-.002.013a.51.51 0 0 1-.2.876l-.003.01-2.91.84a5.96 5.96 0 0 1 .844-3.77zm10.206.001c.337.547.593 1.158.745 1.82a6 6 0 0 1 .126 1.938l-2.925-.842-.003-.013a.51.51 0 0 1-.2-.876l-.001-.006zm-5.56 2.187h.93l.578.722-.208.902-.835.402-.837-.403-.208-.902zm2.982 2.473a.5.5 0 0 1 .117.009l.005-.007 3.01.51a5.96 5.96 0 0 1-2.41 3.027l-1.168-2.823.003-.004a.51.51 0 0 1 .443-.712zm-5.057.012a.51.51 0 0 1 .461.71l.009.012-1.157 2.794a6 6 0 0 1-2.402-3.007l2.984-.506.005.006a.5.5 0 0 1 .1-.009zm2.522 1.225a.51.51 0 0 1 .467.268h.01l1.472 2.658a5.98 5.98 0 0 1-3.85-.004l1.467-2.653h.003a.51.51 0 0 1 .43-.27z"/><path fill="#326ce5" fill-rule="evenodd" d="M269.647 114.26a1.9 1.9 0 0 0-.704.178l-9.607 4.59c-.503.24-.869.695-.993 1.236l-2.37 10.31a1.81 1.81 0 0 0 .353 1.542l6.65 8.267c.348.433.877.686 1.436.686l10.662-.003c.56 0 1.088-.251 1.437-.684l6.646-8.268a1.81 1.81 0 0 0 .355-1.542l-2.373-10.31a1.83 1.83 0 0 0-.994-1.236l-9.608-4.588a1.85 1.85 0 0 0-.89-.178"/><path stroke="#fff" stroke-linecap="butt" stroke-miterlimit="8" d="M269.647 114.26a1.9 1.9 0 0 0-.704.178l-9.607 4.59c-.503.24-.869.695-.993 1.236l-2.37 10.31a1.81 1.81 0 0 0 .353 1.542l6.65 8.267c.348.433.877.686 1.436.686l10.662-.003c.56 0 1.088-.251 1.437-.684l6.646-8.268a1.81 1.81 0 0 0 .355-1.542l-2.373-10.31a1.83 1.83 0 0 0-.994-1.236l-9.608-4.588a1.85 1.85 0 0 0-.89-.178z"/><path fill="#fff" fill-rule="evenodd" d="M269.762 117.788c-.317 0-.575.286-.575.639l.002.016c0 .048-.003.106-.002.147.008.204.052.36.079.547.048.401.089.734.064 1.043a.63.63 0 0 1-.187.297l-.013.244q-.52.041-1.04.16a7.4 7.4 0 0 0-3.757 2.146l-.207-.148c-.103.014-.207.046-.342-.033-.257-.173-.492-.412-.775-.7-.13-.138-.224-.27-.379-.402-.035-.03-.088-.07-.127-.102a.7.7 0 0 0-.4-.151.55.55 0 0 0-.46.203c-.197.248-.134.627.142.847l.009.007c.038.03.084.07.119.095.164.121.313.183.477.28.343.212.629.388.855.6.088.094.103.26.115.332l.184.164a7.44 7.44 0 0 0-1.173 5.187l-.24.07c-.064.082-.154.211-.248.25-.295.093-.628.127-1.03.17-.19.015-.352.006-.552.044-.044.008-.105.024-.154.035l-.004.001-.01.003c-.338.082-.556.393-.486.7s.402.494.742.42h.01q.004-.004.01-.004c.048-.011.107-.023.149-.034.197-.052.339-.13.516-.197.38-.137.695-.25 1.002-.295.129-.01.264.079.33.116l.251-.043a7.48 7.48 0 0 0 3.316 4.14l-.104.251c.038.098.08.23.051.325-.112.29-.303.595-.52.936-.106.157-.214.28-.309.46-.023.042-.052.109-.073.154-.148.316-.04.68.244.817.286.138.64-.007.794-.324v-.003c.023-.045.054-.104.072-.146.082-.187.109-.346.166-.527.152-.382.236-.783.445-1.033.057-.068.151-.095.248-.12l.13-.236a7.43 7.43 0 0 0 5.306.013l.123.221c.099.032.206.049.294.178.156.268.264.585.394.967.057.18.086.34.167.527.019.043.05.103.072.148.153.318.508.463.794.325.284-.136.393-.5.245-.817-.022-.045-.052-.111-.075-.155-.095-.18-.203-.3-.308-.458-.218-.34-.399-.623-.51-.913-.047-.149.008-.242.044-.339-.022-.025-.068-.166-.096-.232a7.48 7.48 0 0 0 3.315-4.17l.246.043c.086-.057.165-.131.321-.119.307.045.622.159 1.003.295.177.068.32.146.516.199.041.011.101.022.149.032l.01.004h.01c.34.074.671-.112.741-.42.07-.306-.147-.618-.486-.7-.05-.01-.12-.03-.167-.039-.2-.038-.363-.028-.552-.044-.402-.042-.735-.076-1.03-.17-.121-.046-.207-.19-.249-.249l-.232-.068a7.4 7.4 0 0 0-.12-2.684 7.5 7.5 0 0 0-1.078-2.49l.204-.183c.01-.104.001-.212.108-.326.226-.212.511-.388.855-.6.163-.097.314-.159.478-.28.037-.027.088-.07.127-.102.275-.22.339-.6.141-.847-.198-.249-.582-.272-.858-.052-.039.031-.092.072-.127.102-.155.133-.25.264-.38.402-.284.288-.518.528-.775.701-.112.065-.275.043-.35.038l-.218.156a7.54 7.54 0 0 0-4.773-2.306l-.013-.256c-.075-.072-.166-.133-.188-.288-.025-.31.016-.642.065-1.043.027-.187.07-.343.078-.547.002-.046 0-.113 0-.163 0-.353-.258-.639-.576-.639m-.72 4.46-.17 3.016-.013.006a.507.507 0 0 1-.804.388l-.005.003-2.473-1.753a5.92 5.92 0 0 1 3.465-1.66m1.441 0a5.97 5.97 0 0 1 3.445 1.66l-2.457 1.743-.008-.004a.507.507 0 0 1-.806-.387l-.003-.001zm-5.803 2.786 2.258 2.02-.003.012a.506.506 0 0 1-.199.871l-.002.01-2.895.836a5.92 5.92 0 0 1 .84-3.749m10.149.001c.335.544.59 1.152.74 1.81.15.65.188 1.3.126 1.928l-2.91-.838-.002-.012a.507.507 0 0 1-.199-.871l-.001-.007zm-5.53 2.175h.925l.575.719-.206.897-.83.399-.834-.4-.206-.898zm2.966 2.46a.5.5 0 0 1 .117.008l.004-.006 2.994.506a5.93 5.93 0 0 1-2.396 3.011l-1.163-2.807.004-.005a.507.507 0 0 1 .44-.707m-5.029.012a.507.507 0 0 1 .459.706l.008.011-1.15 2.78a5.95 5.95 0 0 1-2.39-2.99l2.969-.505.005.006a.5.5 0 0 1 .1-.008m2.508 1.217q.12-.004.237.05c.1.05.178.126.227.217h.011l1.463 2.644q-.285.096-.584.163a5.95 5.95 0 0 1-3.245-.167l1.46-2.639h.002a.51.51 0 0 1 .429-.268"/><path stroke="#fff" stroke-linecap="butt" stroke-miterlimit="8" d="M269.762 117.788c-.317 0-.575.286-.575.639l.002.016c0 .048-.003.106-.002.147.008.204.052.36.079.547.048.401.089.734.064 1.043a.63.63 0 0 1-.187.297l-.013.244q-.52.041-1.04.16a7.4 7.4 0 0 0-3.757 2.146l-.207-.148c-.103.014-.207.046-.342-.033-.257-.173-.492-.412-.775-.7-.13-.138-.224-.27-.379-.402-.035-.03-.088-.07-.127-.102a.7.7 0 0 0-.4-.151.55.55 0 0 0-.46.203c-.197.248-.134.627.142.847l.009.007c.038.03.084.07.119.095.164.121.313.183.477.28.343.212.629.388.855.6.088.094.103.26.115.332l.184.164a7.44 7.44 0 0 0-1.173 5.187l-.24.07c-.064.082-.154.211-.248.25-.295.093-.628.127-1.03.17-.19.015-.352.006-.552.044-.044.008-.105.024-.154.035l-.004.001-.01.003c-.338.082-.556.393-.486.7s.402.494.742.42h.01q.004-.004.01-.004c.048-.011.107-.023.149-.034.197-.052.339-.13.516-.197.38-.137.695-.25 1.002-.295.129-.01.264.079.33.116l.251-.043a7.48 7.48 0 0 0 3.316 4.14l-.104.251c.038.098.08.23.051.325-.112.29-.303.595-.52.936-.106.157-.214.28-.309.46-.023.042-.052.109-.073.154-.148.316-.04.68.244.817.286.138.64-.007.794-.324v-.003c.023-.045.054-.104.072-.146.082-.187.109-.346.166-.527.152-.382.236-.783.445-1.033.057-.068.151-.095.248-.12l.13-.236a7.43 7.43 0 0 0 5.306.013l.123.221c.099.032.206.049.294.178.156.268.264.585.394.967.057.18.086.34.167.527.019.043.05.103.072.148.153.318.508.463.794.325.284-.136.393-.5.245-.817-.022-.045-.052-.111-.075-.155-.095-.18-.203-.3-.308-.458-.218-.34-.399-.623-.51-.913-.047-.149.008-.242.044-.339-.022-.025-.068-.166-.096-.232a7.48 7.48 0 0 0 3.315-4.17l.246.043c.086-.057.165-.131.321-.119.307.045.622.159 1.003.295.177.068.32.146.516.199.041.011.101.022.149.032l.01.004h.01c.34.074.671-.112.741-.42.07-.306-.147-.618-.486-.7-.05-.01-.12-.03-.167-.039-.2-.038-.363-.028-.552-.044-.402-.042-.735-.076-1.03-.17-.121-.046-.207-.19-.249-.249l-.232-.068a7.4 7.4 0 0 0-.12-2.684 7.5 7.5 0 0 0-1.078-2.49l.204-.183c.01-.104.001-.212.108-.326.226-.212.511-.388.855-.6.163-.097.314-.159.478-.28.037-.027.088-.07.127-.102.275-.22.339-.6.141-.847-.198-.249-.582-.272-.858-.052-.039.031-.092.072-.127.102-.155.133-.25.264-.38.402-.284.288-.518.528-.775.701-.112.065-.275.043-.35.038l-.218.156a7.54 7.54 0 0 0-4.773-2.306l-.013-.256c-.075-.072-.166-.133-.188-.288-.025-.31.016-.642.065-1.043.027-.187.07-.343.078-.547.002-.046 0-.113 0-.163 0-.353-.258-.639-.576-.639zm-.72 4.46-.17 3.016-.013.006a.507.507 0 0 1-.804.388l-.005.003-2.473-1.753a5.92 5.92 0 0 1 3.465-1.66zm1.441 0a5.97 5.97 0 0 1 3.445 1.66l-2.457 1.743-.008-.004a.507.507 0 0 1-.806-.387l-.003-.001zm-5.803 2.786 2.258 2.02-.003.012a.506.506 0 0 1-.199.871l-.002.01-2.895.836a5.92 5.92 0 0 1 .84-3.749zm10.149.001c.335.544.59 1.152.74 1.81.15.65.188 1.3.126 1.928l-2.91-.838-.002-.012a.507.507 0 0 1-.199-.871l-.001-.007zm-5.53 2.175h.925l.575.719-.206.897-.83.399-.834-.4-.206-.898zm2.966 2.46a.5.5 0 0 1 .117.008l.004-.006 2.994.506a5.93 5.93 0 0 1-2.396 3.011l-1.163-2.807.004-.005a.507.507 0 0 1 .44-.707zm-5.029.012a.507.507 0 0 1 .459.706l.008.011-1.15 2.78a5.95 5.95 0 0 1-2.39-2.99l2.969-.505.005.006a.5.5 0 0 1 .1-.008zm2.508 1.217q.12-.004.237.05c.1.05.178.126.227.217h.011l1.463 2.644q-.285.096-.584.163a5.95 5.95 0 0 1-3.245-.167l1.46-2.639h.002a.51.51 0 0 1 .429-.268z"/><path d="M227.528 79.9h919.527v35.56H227.528z"/><path fill="#fff" d="M660.229 93.248h-3.047v8.453h-1.234v-8.453H652.9v-1.016h7.328zm4.098 4.234q-1.61-.469-2.344-1.14-.734-.673-.734-1.657 0-1.125.89-1.86.907-.734 2.344-.734.97 0 1.735.391.765.375 1.187 1.047.422.656.422 1.437h-1.265q0-.859-.547-1.343-.547-.5-1.532-.5-.921 0-1.453.406-.515.406-.515 1.125 0 .578.484.984.5.406 1.672.735 1.187.328 1.86.734.671.39.984.937.328.532.328 1.25 0 1.157-.906 1.844-.891.688-2.391.688-.984 0-1.828-.375t-1.313-1.016q-.453-.656-.453-1.484h1.266q0 .86.625 1.36.64.5 1.703.5.984 0 1.516-.407.53-.406.53-1.094 0-.703-.5-1.078-.484-.39-1.765-.75m5.11 4.219v-9.469h3.11q1.531 0 2.312.64.782.626.782 1.876 0 .671-.375 1.187-.375.5-1.032.781.766.22 1.203.828.454.594.454 1.422 0 1.282-.829 2.016-.828.719-2.328.719zm1.25-4.438v3.422h2.063q.875 0 1.375-.453.516-.453.516-1.25 0-1.719-1.86-1.719zm0-1h1.891q.828 0 1.313-.406.5-.406.5-1.11 0-.78-.47-1.14-.452-.36-1.374-.36h-1.86zm17.316 2.438q-.172 1.5-1.11 2.312-.921.813-2.468.813-1.687 0-2.703-1.203-1-1.204-1-3.22v-.905q0-1.329.469-2.329t1.328-1.53q.875-.548 2.015-.548 1.5 0 2.407.844.922.844 1.062 2.328h-1.25q-.156-1.125-.703-1.625-.547-.515-1.516-.515-1.203 0-1.89.89-.672.875-.672 2.516v.922q0 1.531.64 2.453.641.906 1.813.906 1.031 0 1.578-.469.563-.468.75-1.64zm2.831 3h-1.203v-10h1.203zm6.282-.703q-.703.828-2.063.828-1.14 0-1.734-.64-.578-.657-.578-1.938v-4.594h1.203V99.2q0 1.61 1.297 1.61 1.375 0 1.828-1.032v-5.125h1.219v7.047h-1.157zm7.097-1.172q0-.485-.375-.75-.36-.266-1.281-.453-.906-.204-1.453-.47-.531-.28-.797-.655-.25-.391-.25-.907 0-.859.734-1.453.735-.61 1.875-.61 1.188 0 1.938.626.75.61.75 1.578h-1.219q0-.5-.422-.86-.422-.359-1.047-.359-.656 0-1.031.297-.375.281-.375.75 0 .422.344.656.344.22 1.25.422.906.203 1.453.485.562.265.828.671.281.391.281.954 0 .937-.765 1.515-.75.563-1.953.563-.844 0-1.5-.297-.641-.297-1.016-.828-.36-.547-.36-1.172h1.204q.03.61.484.969.453.343 1.188.343.687 0 1.093-.265.422-.282.422-.75m4.404-6.875v1.703h1.312v.937h-1.312v4.36q0 .422.172.64.171.22.593.22.22 0 .578-.079v.969q-.468.125-.921.125-.813 0-1.22-.485-.405-.484-.405-1.39v-4.36h-1.282v-.937h1.282V92.95zm5.635 8.875q-1.422 0-2.328-.938-.891-.937-.891-2.515v-.22q0-1.046.39-1.859.407-.828 1.126-1.296.718-.47 1.562-.47 1.375 0 2.125.907.766.906.766 2.594v.5h-4.766q.016 1.031.594 1.672.594.64 1.484.64.64 0 1.078-.25.453-.265.782-.687l.734.562q-.875 1.36-2.656 1.36m-.14-6.313q-.735 0-1.235.531-.485.532-.61 1.485h3.532v-.078q-.047-.922-.5-1.422-.438-.516-1.188-.516m7.685.219q-.265-.031-.594-.031-1.187 0-1.609 1v5h-1.203v-7.047h1.172l.031.812q.578-.937 1.672-.937.344 0 .531.094z"/><path d="M227.517 102.153h919.528v45.26H227.517z"/><path fill="#fff" d="M587.9 131.633v-13.468h-5.03v-1.797h12.093v1.797h-5.047v13.468zm14.117-3.562 1.922.234q-.453 1.703-1.688 2.64t-3.171.938q-2.422 0-3.844-1.484-1.422-1.5-1.422-4.203 0-2.797 1.437-4.328 1.438-1.547 3.735-1.547 2.219 0 3.61 1.515 1.405 1.5 1.405 4.25v.5h-8.25q.11 1.813 1.032 2.782.922.968 2.312.968 1.031 0 1.75-.53.735-.548 1.172-1.735m-6.156-3.031h6.172q-.125-1.391-.703-2.094-.907-1.078-2.329-1.078-1.296 0-2.171.859-.875.86-.97 2.313m14.533 4.921.266 1.657q-.781.156-1.406.156-1.031 0-1.594-.313-.562-.328-.797-.843-.219-.532-.219-2.22v-6.374h-1.375v-1.453h1.375v-2.735l1.86-1.125v3.86h1.89v1.453h-1.89v6.469q0 .812.094 1.047.109.218.328.359.234.125.64.125.313 0 .828-.063m1.817 1.672v-11.062h1.687v1.672q.64-1.172 1.188-1.547t1.203-.375q.953 0 1.922.61l-.64 1.734q-.688-.407-1.376-.407-.61 0-1.11.375-.484.36-.687 1.016-.312 1-.312 2.187v5.797zm14.336-1.36q-1.046.876-2.015 1.25-.953.36-2.063.36-1.812 0-2.797-.89-.984-.891-.984-2.282 0-.812.375-1.484t.969-1.078 1.344-.61q.562-.14 1.671-.28 2.266-.266 3.344-.641.016-.391.016-.5 0-1.141-.531-1.61-.72-.64-2.141-.64-1.328 0-1.953.468-.625.47-.938 1.641l-1.828-.25q.25-1.172.813-1.89.578-.735 1.656-1.126 1.094-.39 2.516-.39t2.296.344q.891.328 1.313.828t.578 1.28q.094.47.094 1.72v2.5q0 2.625.125 3.312.125.688.469 1.328h-1.954q-.296-.578-.375-1.36m-.156-4.187q-1.015.407-3.062.704-1.157.171-1.64.375-.47.203-.735.609-.266.406-.266.89 0 .75.563 1.25.578.5 1.671.5 1.079 0 1.922-.468.844-.485 1.25-1.297.297-.64.297-1.875zm8.893 3.875.266 1.657q-.781.156-1.406.156-1.032 0-1.594-.313-.563-.328-.797-.843-.219-.532-.219-2.22v-6.374h-1.375v-1.453h1.375v-2.735l1.86-1.125v3.86h1.89v1.453h-1.89v6.469q0 .812.093 1.047.11.218.328.359.235.125.641.125.313 0 .828-.063m9.41-1.89 1.922.234q-.453 1.703-1.687 2.64-1.235.938-3.172.938-2.422 0-3.844-1.484-1.422-1.5-1.422-4.203 0-2.797 1.438-4.328 1.437-1.547 3.734-1.547 2.219 0 3.61 1.515 1.406 1.5 1.406 4.25v.5h-8.25q.109 1.813 1.03 2.782.923.968 2.313.968 1.032 0 1.75-.53.735-.548 1.172-1.735m-6.156-3.031h6.172q-.125-1.391-.703-2.094-.907-1.078-2.328-1.078-1.297 0-2.172.859-.875.86-.969 2.313m15.912 1.687 1.907-.172q.14 1.156.625 1.89.5.735 1.546 1.188t2.344.453q1.156 0 2.031-.343.891-.344 1.313-.938.437-.61.437-1.312 0-.72-.421-1.25-.407-.547-1.36-.907-.61-.25-2.719-.75t-2.953-.953q-1.093-.578-1.625-1.422-.53-.843-.53-1.89 0-1.156.655-2.156.657-1.016 1.907-1.532 1.265-.531 2.812-.531 1.688 0 2.984.547t1.985 1.61q.703 1.062.765 2.406l-1.937.156q-.156-1.453-1.063-2.188-.89-.75-2.656-.75-1.828 0-2.672.672-.843.672-.843 1.625 0 .813.593 1.344.594.531 3.047 1.094 2.469.562 3.39.968 1.329.625 1.954 1.563.64.937.64 2.172 0 1.219-.703 2.297-.687 1.078-2 1.687-1.296.594-2.937.594-2.078 0-3.484-.61-1.391-.609-2.188-1.812-.797-1.219-.844-2.75m22.257 1.344 1.922.234q-.453 1.703-1.687 2.64-1.235.938-3.172.938-2.422 0-3.844-1.484-1.422-1.5-1.422-4.203 0-2.797 1.438-4.328 1.437-1.547 3.734-1.547 2.219 0 3.61 1.515 1.406 1.5 1.406 4.25v.5h-8.25q.109 1.813 1.03 2.782.923.968 2.313.968 1.032 0 1.75-.53.735-.548 1.172-1.735m-6.156-3.031h6.172q-.125-1.391-.703-2.094-.907-1.078-2.328-1.078-1.297 0-2.172.859-.875.86-.969 2.313m10.424 6.593v-11.062h1.688v1.672q.64-1.172 1.187-1.547t1.203-.375q.953 0 1.922.61l-.64 1.734q-.688-.407-1.375-.407-.61 0-1.11.375-.484.36-.687 1.016-.313 1-.313 2.187v5.797zm10.196 0-4.218-11.062h1.984l2.375 6.625q.39 1.078.703 2.234.25-.875.703-2.11l2.453-6.75h1.938l-4.188 11.063zm7.602-13.11v-2.155h1.875v2.156zm0 13.11v-11.062h1.875v11.062zm11.941-4.047 1.844.235q-.297 1.906-1.547 2.984t-3.062 1.078q-2.266 0-3.656-1.484-1.375-1.484-1.375-4.25 0-1.797.593-3.14.594-1.344 1.813-2.016t2.64-.672q1.797 0 2.938.922 1.156.906 1.484 2.578l-1.828.281q-.265-1.11-.922-1.672-.656-.562-1.593-.562-1.422 0-2.313 1.015-.875 1.016-.875 3.203 0 2.235.844 3.25.86 1 2.234 1 1.11 0 1.844-.671.734-.672.937-2.079m11.024.485 1.922.234q-.453 1.703-1.688 2.64t-3.172.938q-2.421 0-3.843-1.484-1.422-1.5-1.422-4.203 0-2.797 1.437-4.328 1.438-1.547 3.735-1.547 2.218 0 3.609 1.515 1.406 1.5 1.406 4.25v.5h-8.25q.11 1.813 1.032 2.782.921.968 2.312.968 1.031 0 1.75-.53.734-.548 1.172-1.735m-6.156-3.031h6.172q-.125-1.391-.704-2.094-.906-1.078-2.328-1.078-1.297 0-2.172.859-.875.86-.968 2.313m16.521 6.593v-15.265h5.735q1.75 0 2.797.468 1.062.454 1.656 1.422.594.969.594 2.016 0 .969-.532 1.844-.53.859-1.593 1.39 1.375.407 2.125 1.39.75.97.75 2.313 0 1.063-.453 1.985-.454.922-1.125 1.422-.672.5-1.672.765-1 .25-2.453.25zm2.016-8.86h3.313q1.343 0 1.921-.171.766-.234 1.157-.766.39-.53.39-1.328 0-.75-.36-1.328-.358-.578-1.046-.797-.672-.218-2.312-.218h-3.063zm0 7.063h3.813q.968 0 1.375-.078.687-.125 1.156-.406.469-.297.765-.86.313-.562.313-1.28 0-.86-.438-1.485-.437-.64-1.218-.89-.766-.25-2.235-.25h-3.531zm12.038 1.797v-11.062h1.688v1.672q.64-1.172 1.187-1.547t1.203-.375q.953 0 1.922.61l-.64 1.734q-.688-.407-1.375-.407-.61 0-1.11.375-.484.36-.687 1.016-.313 1-.313 2.187v5.797zm7.134-13.11v-2.155h1.875v2.156zm0 13.11v-11.062h1.875v11.062zm11.895 0v-1.39q-1.047 1.64-3.094 1.64-1.313 0-2.422-.718-1.11-.735-1.719-2.047-.61-1.313-.61-3 0-1.657.548-3 .547-1.36 1.656-2.078 1.11-.72 2.469-.72 1 0 1.78.423.782.422 1.267 1.093v-5.468h1.875v15.265zm-5.922-5.515q0 2.125.89 3.172.907 1.046 2.125 1.046 1.219 0 2.078-1 .86-1 .86-3.062 0-2.281-.875-3.344t-2.156-1.062q-1.25 0-2.094 1.03-.828 1.017-.828 3.22m10.268 6.437 1.828.266q.11.844.625 1.234.703.516 1.906.516 1.312 0 2.016-.531.703-.516.953-1.454.156-.562.14-2.406-1.234 1.453-3.062 1.453-2.281 0-3.531-1.64-1.25-1.657-1.25-3.953 0-1.579.562-2.922.578-1.344 1.672-2.063 1.094-.734 2.562-.734 1.954 0 3.22 1.578v-1.328h1.734v9.562q0 2.578-.532 3.657-.515 1.078-1.656 1.703-1.14.625-2.812.625-1.985 0-3.204-.891-1.218-.89-1.171-2.672m1.546-6.656q0 2.187.86 3.187.875 1 2.172 1t2.172-1 .875-3.125q0-2.03-.907-3.062-.89-1.031-2.172-1.031-1.25 0-2.125 1.015-.875 1.016-.875 3.016m18.237 2.172 1.922.234q-.453 1.703-1.687 2.64-1.235.938-3.172.938-2.422 0-3.844-1.484-1.422-1.5-1.422-4.203 0-2.797 1.438-4.328 1.437-1.547 3.734-1.547 2.219 0 3.61 1.515 1.406 1.5 1.406 4.25v.5h-8.25q.109 1.813 1.03 2.782.923.968 2.313.968 1.032 0 1.75-.53.735-.548 1.172-1.735m-6.156-3.031h6.172q-.125-1.391-.703-2.094-.907-1.078-2.328-1.078-1.297 0-2.172.859-.875.86-.97 2.313"/></g></svg>