<?xml version="1.0" encoding="UTF-8" standalone="no"?>
<!DOCTYPE svg PUBLIC "-//W3C//DTD SVG 1.1//EN" "http://www.w3.org/Graphics/SVG/1.1/DTD/svg11.dtd">
<svg xmlns:xl="http://www.w3.org/1999/xlink" xmlns="http://www.w3.org/2000/svg" xmlns:dc="http://purl.org/dc/elements/1.1/" version="1.1" viewBox="983 686 576 454" width="576" height="454">
  <defs>
    <marker orient="auto" overflow="visible" markerUnits="strokeWidth" id="FilledArrow_Marker" stroke-linejoin="miter" stroke-miterlimit="10" viewBox="-1 -3 7 6" markerWidth="7" markerHeight="6" color="#666">
      <g>
        <path d="M 4.8 0 L 0 -1.8 L 0 1.8 Z" fill="currentColor" stroke="currentColor" stroke-width="1"/>
      </g>
    </marker>
  </defs>
  <g id="envoy-gateway-observability-pipeline" fill="none" fill-opacity="1" stroke-opacity="1" stroke="none" stroke-dasharray="none">
    <title>envoy-gateway-observability-pipeline</title>
    <rect fill="white" x="983" y="686" width="576" height="454"/>
    <g id="envoy-gateway-observability-pipeline_Layer_1">
      <title>Layer 1</title>
      <g id="Graphic_233"/>
      <g id="Group_189">
        <g id="Graphic_76">
          <path d="M 1359.4451 715.0646 L 1535.445 715.0646 C 1542.0725 715.0646 1547.445 720.43715 1547.445 727.0646 L 1547.445 805 C 1547.445 811.6274 1542.0725 817 1535.445 817 L 1359.4451 817 C 1352.8177 817 1347.4451 811.6274 1347.4451 805 L 1347.4451 727.0646 C 1347.4451 720.43715 1352.8177 715.0646 1359.4451 715.0646 Z" fill="#fef2e5"/>
          <path d="M 1359.4451 715.0646 L 1535.445 715.0646 C 1542.0725 715.0646 1547.445 720.43715 1547.445 727.0646 L 1547.445 805 C 1547.445 811.6274 1542.0725 817 1535.445 817 L 1359.4451 817 C 1352.8177 817 1347.4451 811.6274 1347.4451 805 L 1347.4451 727.0646 C 1347.4451 720.43715 1352.8177 715.0646 1359.4451 715.0646 Z" stroke="#f03c00" stroke-linecap="round" stroke-linejoin="round" stroke-width="2"/>
        </g>
        <g id="Group_72">
          <g id="Graphic_75">
            <path d="M 1374.8036 746.3682 L 1371.7145 744.4456 L 1371.7793 747.3835 L 1374.8684 749.3061 Z M 1379.2537 756.6509 L 1379.1889 753.7778 L 1376.4886 752.0928 C 1376.4454 752.0712 1376.4022 752.028 1376.3806 752.0064 L 1376.4454 754.9011 Z M 1369.5975 760.5178 L 1362.5335 756.1325 L 1362.3607 748.7877 L 1365.817 747.2971 L 1365.7522 744.3592 L 1360.222 746.73545 C 1359.79 746.9299 1359.5308 747.3187 1359.5524 747.7724 L 1359.7684 756.5861 C 1359.7684 757.0398 1360.0492 757.4934 1360.4813 757.75265 L 1368.9494 763.002 C 1369.3382 763.23965 1369.8135 763.3045 1370.224 763.19645 C 1370.2671 763.1748 1370.3103 763.1748 1370.3535 763.1532 L 1375.5597 760.9066 L 1372.7298 759.1568 Z" fill="#b31aab"/>
          </g>
          <g id="Graphic_74">
            <path d="M 1392.4312 744.2728 C 1392.4096 743.7543 1392.1071 743.2143 1391.5887 742.9118 L 1381.306 736.5391 L 1380.9819 736.66875 L 1381.0467 739.7579 L 1389.1908 744.8128 L 1389.3852 753.0649 L 1392.496 754.98755 L 1392.6688 754.9227 Z M 1380.1178 758.768 L 1370.548 752.8489 L 1370.3103 742.9118 L 1374.674 741.0324 L 1374.5876 737.59765 L 1367.826 740.514 C 1367.3292 740.73 1367.0268 741.1836 1367.0484 741.7237 L 1367.3292 753.389 C 1367.3292 753.929 1367.6532 754.4475 1368.1717 754.7499 L 1379.3833 761.7059 C 1379.837 761.9867 1380.3986 762.0731 1380.8739 761.9219 C 1380.9171 761.9003 1380.9603 761.8787 1381.0035 761.8787 L 1387.6138 759.0272 L 1384.3303 756.9966 Z" fill="#d163ce"/>
          </g>
          <g id="Graphic_73">
            <path d="M 1407.0128 736.1071 L 1392.6472 727.2069 C 1392.1071 726.8829 1391.4807 726.7965 1390.9406 726.9693 C 1390.8974 726.9909 1390.8326 727.0125 1390.7894 727.0341 L 1376.7694 733.08275 C 1376.2078 733.3204 1375.8621 733.8388 1375.8837 734.4653 L 1376.2294 749.4141 C 1376.251 750.019 1376.6182 750.6239 1377.2015 750.9695 L 1391.567 759.8697 C 1392.0855 760.1937 1392.7336 760.2801 1393.2736 760.1073 C 1393.3169 760.0857 1393.3817 760.0641 1393.4249 760.0425 L 1407.4448 753.9938 C 1408.0065 753.7562 1408.3521 753.2162 1408.3305 752.6113 L 1407.9849 737.66245 C 1407.9633 737.0576 1407.596 736.4743 1407.0128 736.1071 Z M 1392.4096 756.5213 L 1379.9234 748.7877 L 1379.621 735.80465 L 1391.8047 730.5553 L 1404.2909 738.2889 L 1404.5933 751.2719 Z" fill="#e13eaf"/>
          </g>
        </g>
      </g>
      <g id="Graphic_186">
        <path d="M 1376.6256 898.1817 L 1518.2646 898.1817 C 1524.892 898.1817 1530.2646 903.5543 1530.2646 910.1817 L 1530.2646 946.1817 C 1530.2646 952.8091 1524.892 958.1817 1518.2646 958.1817 L 1376.6256 958.1817 C 1369.9982 958.1817 1364.6256 952.8091 1364.6256 946.1817 L 1364.6256 910.1817 C 1364.6256 903.5543 1369.9982 898.1817 1376.6256 898.1817 Z" fill="#0b2d5c"/>
        <text transform="translate(1369.6256 909.2257)" fill="white">
          <tspan font-family="Helvetica Neue" font-weight="bold" font-size="16" fill="white" x="23.315466" y="16" xml:space="preserve">GatewayClass</tspan>
          <tspan font-family="Helvetica Neue" font-size="16" fill="white" x="12.619466" y="34.46411" xml:space="preserve">(manually created)</tspan>
        </text>
      </g>
      <g id="Graphic_192">
        <path d="M 1027.5211 898.1817 L 1169.16 898.1817 C 1175.7875 898.1817 1181.16 903.5543 1181.16 910.1817 L 1181.16 946.1817 C 1181.16 952.8091 1175.7875 958.1817 1169.16 958.1817 L 1027.5211 958.1817 C 1020.8937 958.1817 1015.5211 952.8091 1015.5211 946.1817 L 1015.5211 910.1817 C 1015.5211 903.5543 1020.8937 898.1817 1027.5211 898.1817 Z" fill="#c4d7ec"/>
        <text transform="translate(1020.5211 918.4497)" fill="black">
          <tspan font-family="Helvetica Neue" font-weight="bold" font-size="16" fill="black" x="13.379466" y="16" xml:space="preserve">ingress2gateway</tspan>
        </text>
      </g>
      <g id="Graphic_193">
        <path d="M 1027.5211 1059.6081 L 1169.16 1059.6081 C 1175.7875 1059.6081 1181.16 1064.9807 1181.16 1071.6081 L 1181.16 1107.6081 C 1181.16 1114.2355 1175.7875 1119.6081 1169.16 1119.6081 L 1027.5211 1119.6081 C 1020.8937 1119.6081 1015.5211 1114.2355 1015.5211 1107.6081 L 1015.5211 1071.6081 C 1015.5211 1064.9807 1020.8937 1059.6081 1027.5211 1059.6081 Z" fill="#0b2d5c"/>
        <text transform="translate(1020.5211 1079.876)" fill="white">
          <tspan font-family="Helvetica Neue" font-weight="bold" font-size="16" fill="white" x="33.963466" y="16" xml:space="preserve">HTTPRoute</tspan>
        </text>
      </g>
      <g id="Line_196">
        <line x1="1447.4451" y1="818" x2="1447.4451" y2="885.2817" marker-end="url(#FilledArrow_Marker)" stroke="#666" stroke-linecap="round" stroke-linejoin="round" stroke-width="2"/>
      </g>
      <g id="Line_226">
        <line x1="1098.3406" y1="958.1817" x2="1098.3406" y2="1046.7081" marker-end="url(#FilledArrow_Marker)" stroke="#666" stroke-linecap="round" stroke-linejoin="round" stroke-width="2"/>
      </g>
      <g id="Graphic_232">
        <rect x="1057.9326" y="994.8539" width="80.816" height="28.447998" fill="white"/>
        <text transform="translate(1062.9326 999.8539)" fill="black">
          <tspan font-family="Helvetica Neue" font-size="16" fill="black" x="0" y="15" xml:space="preserve">generates</tspan>
        </text>
      </g>
      <g id="Graphic_234">
        <text transform="translate(1420.8656 737.5155)" fill="black">
          <tspan font-family="Helvetica Neue" font-weight="bold" font-size="16" fill="black" x="2842171e-19" y="16" xml:space="preserve">Envoy Gateway</tspan>
        </text>
      </g>
      <g id="Graphic_235">
        <text transform="translate(1356.6451 778.8392)" fill="black">
          <tspan font-family="Helvetica Neue" font-size="16" fill="black" x="0" y="15" xml:space="preserve">Gateway Class Controller</tspan>
        </text>
      </g>
      <g id="Graphic_236">
        <path d="M 1376.6256 1059.6081 L 1518.2646 1059.6081 C 1524.892 1059.6081 1530.2646 1064.9807 1530.2646 1071.6081 L 1530.2646 1107.6081 C 1530.2646 1114.2355 1524.892 1119.6081 1518.2646 1119.6081 L 1376.6256 1119.6081 C 1369.9982 1119.6081 1364.6256 1114.2355 1364.6256 1107.6081 L 1364.6256 1071.6081 C 1364.6256 1064.9807 1369.9982 1059.6081 1376.6256 1059.6081 Z" fill="#0b2d5c"/>
        <text transform="translate(1369.6256 1079.876)" fill="white">
          <tspan font-family="Helvetica Neue" font-weight="bold" font-size="16" fill="white" x="44.491466" y="16" xml:space="preserve">Gateway</tspan>
        </text>
      </g>
      <g id="Graphic_237">
        <path d="M 1027.5211 715.0646 L 1169.16 715.0646 C 1175.7875 715.0646 1181.16 720.43715 1181.16 727.0646 L 1181.16 763.0646 C 1181.16 769.692 1175.7875 775.0646 1169.16 775.0646 L 1027.5211 775.0646 C 1020.8937 775.0646 1015.5211 769.692 1015.5211 763.0646 L 1015.5211 727.0646 C 1015.5211 720.43715 1020.8937 715.0646 1027.5211 715.0646 Z" fill="#0b2d5c"/>
        <text transform="translate(1020.5211 735.3325)" fill="white">
          <tspan font-family="Helvetica Neue" font-weight="bold" font-size="16" fill="white" x="49.675466" y="16" xml:space="preserve">Ingress</tspan>
        </text>
      </g>
      <g id="Line_238">
        <line x1="1163.2193" y1="958.1817" x2="1370.8575" y2="1054.1939" marker-end="url(#FilledArrow_Marker)" stroke="#666" stroke-linecap="round" stroke-linejoin="round" stroke-width="2"/>
      </g>
      <g id="Graphic_239">
        <rect x="1230.4444" y="993.7274" width="80.816" height="28.447998" fill="white"/>
        <text transform="translate(1235.4444 998.7274)" fill="black">
          <tspan font-family="Helvetica Neue" font-size="16" fill="black" x="0" y="15" xml:space="preserve">generates</tspan>
        </text>
      </g>
      <g id="Line_240">
        <line x1="1098.3406" y1="775.0646" x2="1098.3406" y2="885.2817" marker-end="url(#FilledArrow_Marker)" stroke="#666" stroke-linecap="round" stroke-linejoin="round" stroke-width="2"/>
      </g>
      <g id="Line_241">
        <line x1="1447.4451" y1="958.1817" x2="1447.4451" y2="1046.7081" marker-end="url(#FilledArrow_Marker)" stroke="#666" stroke-linecap="round" stroke-linejoin="round" stroke-width="2"/>
      </g>
      <g id="Graphic_242">
        <rect x="1045.1726" y="814.4517" width="106.336" height="28.447998" fill="white"/>
        <text transform="translate(1050.1726 819.4517)" fill="black">
          <tspan font-family="Helvetica Neue" font-size="16" fill="black" x="0" y="15" xml:space="preserve">used as input</tspan>
        </text>
      </g>
      <g id="Graphic_243">
        <rect x="1045.4226" y="814.7017" width="106.336" height="28.447998" fill="white"/>
        <text transform="translate(1050.4226 819.7017)" fill="black">
          <tspan font-family="Helvetica Neue" font-size="16" fill="black" x="0" y="15" xml:space="preserve">used as input</tspan>
        </text>
      </g>
      <g id="Graphic_244">
        <rect x="1393.3971" y="996.7644" width="108.096" height="28.447998" fill="white"/>
        <text transform="translate(1398.3971 1001.7644)" fill="black">
          <tspan font-family="Helvetica Neue" font-size="16" fill="black" x="682121e-18" y="15" xml:space="preserve">referenced by</tspan>
        </text>
      </g>
      <g id="Graphic_245">
        <rect x="1401.1911" y="837.1702" width="93.008" height="28.447998" fill="white"/>
        <text transform="translate(1406.1911 842.1702)" fill="black">
          <tspan font-family="Helvetica Neue" font-size="16" fill="black" x="8171241e-19" y="15" xml:space="preserve">implements</tspan>
        </text>
      </g>
    </g>
  </g>
</svg>
