<?xml version="1.0" encoding="UTF-8" standalone="no"?>
<!DOCTYPE svg PUBLIC "-//W3C//DTD SVG 1.1//EN" "http://www.w3.org/Graphics/SVG/1.1/DTD/svg11.dtd">
<svg xmlns="http://www.w3.org/2000/svg" xmlns:xl="http://www.w3.org/1999/xlink" xmlns:dc="http://purl.org/dc/elements/1.1/" version="1.1" viewBox="866 762 651 508" width="651" height="508">
  <defs>
    <linearGradient x1="0" x2="1" id="Gradient" gradientUnits="userSpaceOnUse">
      <stop offset="0" stop-color="#fff100"/>
      <stop offset=".17476833" stop-color="#f8aa17"/>
      <stop offset="1" stop-color="#f05a28"/>
    </linearGradient>
    <linearGradient id="Obj_Gradient" xl:href="#Gradient" gradientTransform="translate(1184.8385 1099.6744) rotate(-17.142598) scale(46.661107)"/>
    <marker orient="auto" overflow="visible" markerUnits="strokeWidth" id="FilledArrow_Marker" stroke-linejoin="miter" stroke-miterlimit="10" viewBox="-1 -4 10 8" markerWidth="10" markerHeight="8" color="#0a55a8">
      <g>
        <path d="M 8 0 L 0 -3 L 0 3 Z" fill="currentColor" stroke="currentColor" stroke-width="1"/>
      </g>
    </marker>
    <linearGradient x1="0" x2="1" id="Gradient_2" gradientUnits="userSpaceOnUse">
      <stop offset="0" stop-color="#fcee1f"/>
      <stop offset=".20747734" stop-color="#f7a925"/>
      <stop offset="1" stop-color="#f15b2a"/>
    </linearGradient>
    <linearGradient id="Obj_Gradient_2" xl:href="#Gradient_2" gradientTransform="translate(1230.6679 1190.7875) rotate(90) scale(44.544096)"/>
  </defs>
  <g id="envoy-gateway-observability-pipeline" fill="none" stroke-dasharray="none" fill-opacity="1" stroke="none" stroke-opacity="1">
    <title>envoy-gateway-observability-pipeline</title>
    <rect fill="white" x="866" y="762" width="651" height="508"/>
    <g id="envoy-gateway-observability-pipeline_Layer_1">
      <title>Layer 1</title>
      <g id="Graphic_147"/>
      <g id="Graphic_171"/>
      <g id="Graphic_140">
        <rect x="884.072" y="1168.957" width="614.7235" height="1" fill="#e2e2e2"/>
      </g>
      <g id="Graphic_141">
        <rect x="881.644" y="902.2495" width="614.7235" height="1" fill="#e2e2e2"/>
      </g>
      <g id="Group_151">
        <g id="Graphic_76">
          <path d="M 1142.6679 779.3128 L 1318.6679 779.3128 C 1325.2953 779.3128 1330.6679 784.6854 1330.6679 791.3128 L 1330.6679 827.3128 C 1330.6679 833.9402 1325.2953 839.3128 1318.6679 839.3128 L 1142.6679 839.3128 C 1136.0405 839.3128 1130.6679 833.9402 1130.6679 827.3128 L 1130.6679 791.3128 C 1130.6679 784.6854 1136.0405 779.3128 1142.6679 779.3128 Z" fill="#fef2e5"/>
          <path d="M 1142.6679 779.3128 L 1318.6679 779.3128 C 1325.2953 779.3128 1330.6679 784.6854 1330.6679 791.3128 L 1330.6679 827.3128 C 1330.6679 833.9402 1325.2953 839.3128 1318.6679 839.3128 L 1142.6679 839.3128 C 1136.0405 839.3128 1130.6679 833.9402 1130.6679 827.3128 L 1130.6679 791.3128 C 1130.6679 784.6854 1136.0405 779.3128 1142.6679 779.3128 Z" stroke="#f03c00" stroke-linecap="round" stroke-linejoin="round" stroke-width="2"/>
          <text transform="translate(1142.6679 800.0888)" fill="black">
            <tspan font-family="Helvetica Neue" font-size="16" fill="black" x="64.608" y="15" xml:space="preserve">Envoy Gateway</tspan>
          </text>
        </g>
        <g id="Group_72">
          <g id="Graphic_75">
            <path d="M 1159.0412 810.9105 L 1155.4806 808.6945 L 1155.5553 812.0808 L 1159.1159 814.2967 Z M 1164.1703 822.7623 L 1164.0956 819.4508 L 1160.9833 817.5087 C 1160.9335 817.4838 1160.8837 817.434 1160.8588 817.4091 L 1160.9335 820.7455 Z M 1153.0406 827.2192 L 1144.8987 822.1648 L 1144.6995 813.6992 L 1148.6833 811.9812 L 1148.6086 808.5949 L 1142.2345 811.3338 C 1141.7365 811.5579 1141.4377 812.0061 1141.4626 812.5289 L 1141.7116 822.6876 C 1141.7116 823.2105 1142.0353 823.7334 1142.5333 824.0322 L 1152.2936 830.0826 C 1152.7418 830.3565 1153.2895 830.4312 1153.7626 830.3067 C 1153.8124 830.2818 1153.8622 830.2818 1153.912 830.2569 L 1159.9126 827.6674 L 1156.6509 825.6506 Z" fill="#b31aab"/>
          </g>
          <g id="Graphic_74">
            <path d="M 1179.3586 808.4953 C 1179.3337 807.8978 1178.9851 807.2753 1178.3875 806.9267 L 1166.5357 799.5816 L 1166.1622 799.731 L 1166.2369 803.2915 L 1175.6238 809.1178 L 1175.8478 818.6291 L 1179.4333 820.8451 L 1179.6325 820.7704 Z M 1165.1663 825.2024 L 1154.1361 818.3801 L 1153.8622 806.9267 L 1158.8918 804.7605 L 1158.7922 800.8016 L 1150.9989 804.1629 C 1150.4262 804.4119 1150.0776 804.9348 1150.1025 805.5573 L 1150.4262 819.0026 C 1150.4262 819.6251 1150.7997 820.2227 1151.3972 820.5712 L 1164.3197 828.5886 C 1164.8426 828.9123 1165.49 829.0119 1166.0377 828.8376 C 1166.0875 828.8127 1166.1373 828.7878 1166.1871 828.7878 L 1173.8061 825.5012 L 1170.0215 823.1607 Z" fill="#d163ce"/>
          </g>
          <g id="Graphic_73">
            <path d="M 1196.1653 799.0836 L 1179.6076 788.8253 C 1178.9851 788.4518 1178.263 788.3522 1177.6406 788.5514 C 1177.5908 788.5763 1177.516 788.6012 1177.4663 788.6261 L 1161.307 795.5978 C 1160.6596 795.8716 1160.2612 796.4692 1160.2861 797.1913 L 1160.6845 814.4212 C 1160.7094 815.1184 1161.1327 815.8156 1161.805 816.214 L 1178.3626 826.47225 C 1178.9602 826.8457 1179.7072 826.9453 1180.3296 826.7461 C 1180.3794 826.7212 1180.4541 826.6963 1180.5039 826.6714 L 1196.6632 819.6998 C 1197.3106 819.4259 1197.709 818.8034 1197.6841 818.1063 L 1197.2857 800.8763 C 1197.2608 800.1791 1196.8375 799.5069 1196.1653 799.0836 Z M 1179.3337 822.6129 L 1164.9422 813.6992 L 1164.5936 798.735 L 1178.6365 792.6846 L 1193.028 801.5984 L 1193.3766 816.5625 Z" fill="#e13eaf"/>
          </g>
        </g>
      </g>
      <g id="Graphic_78">
        <text transform="translate(885.476 801.7793)" fill="black">
          <tspan font-family="Helvetica Neue" font-weight="bold" font-size="16" fill="black" x="0" y="16" xml:space="preserve">Data Plane</tspan>
        </text>
      </g>
      <g id="Graphic_84">
        <text transform="translate(886.644 943.8616)" fill="black">
          <tspan font-family="Helvetica Neue" font-weight="bold" font-size="16" fill="black" x="0" y="16" xml:space="preserve">Collectors/</tspan>
        </text>
      </g>
      <g id="Group_85">
        <g id="Graphic_113"/>
        <g id="Group_86">
          <g id="Graphic_112">
            <path d="M 1392.8245 963.6459 C 1391.5971 963.4719 1388.8853 963.4138 1383.5189 964.5451 C 1382.8834 964.6987 1382.2309 964.7669 1381.5779 964.7482 C 1380.8695 964.6661 1380.1714 964.5106 1379.4942 964.2841 C 1376.554 963.2688 1374.1277 963.5879 1372.7005 964.3421 C 1371.8596 964.8047 1371.1363 965.4603 1370.5882 966.2565 C 1369.7033 967.4749 1367.8479 971.1877 1365.3074 972.174 C 1363.8802 973.1022 1362.3388 974.0595 1360.9972 975.4228 C 1360.1408 976.3221 1359.9125 978.4396 1357.6575 980.499 C 1355.4413 983.817 1352.6102 986.6645 1349.3224 988.8821 C 1345.0693 991.8989 1341.5012 992.8271 1341.5012 992.8271 C 1341.5012 992.8271 1350.9495 995.4667 1361.3111 990.5355 C 1369.1895 986.7646 1373.2714 979.4258 1374.2134 977.8014 L 1379.3514 968.9252 C 1379.8081 968.113 1380.636 967.0687 1381.4066 966.6627 C 1381.6635 966.5176 1381.8919 966.4306 1381.949 966.3725 C 1382.5199 966.0825 1383.1193 965.8505 1383.7187 965.6184 C 1387.3154 964.3131 1391.0547 964.197 1392.796 963.994 C 1393.0243 963.936 1392.9958 963.675 1392.8245 963.6459 Z" fill="#333"/>
            <path d="M 1392.8245 963.6459 C 1391.5971 963.4719 1388.8853 963.4138 1383.5189 964.5451 C 1382.8834 964.6987 1382.2309 964.7669 1381.5779 964.7482 C 1380.8695 964.6661 1380.1714 964.5106 1379.4942 964.2841 C 1376.554 963.2688 1374.1277 963.5879 1372.7005 964.3421 C 1371.8596 964.8047 1371.1363 965.4603 1370.5882 966.2565 C 1369.7033 967.4749 1367.8479 971.1877 1365.3074 972.174 C 1363.8802 973.1022 1362.3388 974.0595 1360.9972 975.4228 C 1360.1408 976.3221 1359.9125 978.4396 1357.6575 980.499 C 1355.4413 983.817 1352.6102 986.6645 1349.3224 988.8821 C 1345.0693 991.8989 1341.5012 992.8271 1341.5012 992.8271 C 1341.5012 992.8271 1350.9495 995.4667 1361.3111 990.5355 C 1369.1895 986.7646 1373.2714 979.4258 1374.2134 977.8014 L 1379.3514 968.9252 C 1379.8081 968.113 1380.636 967.0687 1381.4066 966.6627 C 1381.6635 966.5176 1381.8919 966.4306 1381.949 966.3725 C 1382.5199 966.0825 1383.1193 965.8505 1383.7187 965.6184 C 1387.3154 964.3131 1391.0547 964.197 1392.796 963.994 C 1393.0243 963.936 1392.9958 963.675 1392.8245 963.6459 Z" stroke="white" stroke-linecap="butt" stroke-linejoin="round" stroke-width=".5"/>
          </g>
          <g id="Graphic_111">
            <path d="M 1392.8244 963.6457 C 1391.597 963.4717 1388.8852 963.4136 1383.5189 964.5449 C 1382.8833 964.6984 1382.2308 964.7667 1381.5778 964.748 C 1380.8695 964.6659 1380.1713 964.5104 1379.494 964.2839 C 1376.4683 963.2686 1374.1562 963.5296 1372.7005 964.3418 C 1371.8595 964.8045 1371.1363 965.4601 1370.5881 966.2563 C 1369.7032 967.4747 1367.8478 971.1875 1365.3074 972.1738 C 1362.453 969.4471 1359.941 967.1556 1357.5147 965.1251 C 1356.1445 964.0227 1354.8029 962.9786 1353.6611 962.2243 C 1350.87 960.235 1347.9305 958.47 1344.8694 956.945 C 1343.5563 956.3359 1342.1862 955.7848 1340.6733 955.2046 C 1340.0168 955.0016 1339.6457 955.3206 1339.5315 955.8428 C 1339.4744 956.0168 1339.4174 956.481 1339.7028 957.2931 C 1340.4798 959.3471 1341.4151 961.3354 1342.5002 963.2396 C 1342.9284 964.0227 1343.4136 964.835 1343.9274 965.6472 C 1346.3191 969.4726 1349.1244 973.0142 1352.291 976.2058 C 1352.9475 976.8439 1353.5755 977.4241 1354.2606 977.9752 C 1355.0803 978.6717 1355.938 979.3205 1356.8296 979.9187 C 1356.9153 979.9767 1357.3434 980.2378 1357.6289 980.4119 C 1358.1997 980.7309 1358.9705 981.108 1359.4557 981.311 C 1361.434 982.2321 1363.5881 982.6977 1365.764 982.6744 C 1368.9325 982.7614 1371.5015 981.7462 1372.7576 980.0347 C 1373.2854 979.3098 1373.7715 978.5544 1374.2133 977.7722 L 1379.3514 968.896 C 1379.8081 968.0838 1380.6358 967.0395 1381.4065 966.6335 C 1381.6635 966.4884 1381.8919 966.4014 1381.949 966.3433 C 1382.4912 966.0823 1382.4912 966.1693 1383.0622 965.9373 C 1386.7159 964.632 1391.0832 964.1679 1392.8244 963.9648 C 1392.8628 963.9601 1392.8982 963.9412 1392.9238 963.9119 C 1392.9494 963.8824 1392.9636 963.8445 1392.9636 963.8052 C 1392.9636 963.766 1392.9494 963.7281 1392.9238 963.6987 C 1392.8982 963.6692 1392.8628 963.6504 1392.8244 963.6457 Z" fill="#333"/>
            <path d="M 1392.8244 963.6457 C 1391.597 963.4717 1388.8852 963.4136 1383.5189 964.5449 C 1382.8833 964.6984 1382.2308 964.7667 1381.5778 964.748 C 1380.8695 964.6659 1380.1713 964.5104 1379.494 964.2839 C 1376.4683 963.2686 1374.1562 963.5296 1372.7005 964.3418 C 1371.8595 964.8045 1371.1363 965.4601 1370.5881 966.2563 C 1369.7032 967.4747 1367.8478 971.1875 1365.3074 972.1738 C 1362.453 969.4471 1359.941 967.1556 1357.5147 965.1251 C 1356.1445 964.0227 1354.8029 962.9786 1353.6611 962.2243 C 1350.87 960.235 1347.9305 958.47 1344.8694 956.945 C 1343.5563 956.3359 1342.1862 955.7848 1340.6733 955.2046 C 1340.0168 955.0016 1339.6457 955.3206 1339.5315 955.8428 C 1339.4744 956.0168 1339.4174 956.481 1339.7028 957.2931 C 1340.4798 959.3471 1341.4151 961.3354 1342.5002 963.2396 C 1342.9284 964.0227 1343.4136 964.835 1343.9274 965.6472 C 1346.3191 969.4726 1349.1244 973.0142 1352.291 976.2058 C 1352.9475 976.8439 1353.5755 977.4241 1354.2606 977.9752 C 1355.0803 978.6717 1355.938 979.3205 1356.8296 979.9187 C 1356.9153 979.9767 1357.3434 980.2378 1357.6289 980.4119 C 1358.1997 980.7309 1358.9705 981.108 1359.4557 981.311 C 1361.434 982.2321 1363.5881 982.6977 1365.764 982.6744 C 1368.9325 982.7614 1371.5015 981.7462 1372.7576 980.0347 C 1373.2854 979.3098 1373.7715 978.5544 1374.2133 977.7722 L 1379.3514 968.896 C 1379.8081 968.0838 1380.6358 967.0395 1381.4065 966.6335 C 1381.6635 966.4884 1381.8919 966.4014 1381.949 966.3433 C 1382.4912 966.0823 1382.4912 966.1693 1383.0622 965.9373 C 1386.7159 964.632 1391.0832 964.1679 1392.8244 963.9648 C 1392.8628 963.9601 1392.8982 963.9412 1392.9238 963.9119 C 1392.9494 963.8824 1392.9636 963.8445 1392.9636 963.8052 C 1392.9636 963.766 1392.9494 963.7281 1392.9238 963.6987 C 1392.8982 963.6692 1392.8628 963.6504 1392.8244 963.6457 Z" stroke="white" stroke-linecap="butt" stroke-linejoin="round" stroke-width=".5"/>
          </g>
          <g id="Graphic_110"/>
          <g id="Graphic_109"/>
          <g id="Graphic_108">
            <path d="M 1342.7573 955.988 C 1342.7288 955.988 1342.6717 955.959 1342.6431 955.959 C 1342.716 955.996 1342.7926 956.0252 1342.8715 956.046 C 1342.8144 956.017 1342.7859 955.988 1342.7573 955.988 Z" fill="#ffffc0"/>
          </g>
          <g id="Graphic_107">
            <path d="M 1359.513 972.6959 C 1361.4526 972.9925 1363.4343 972.7931 1365.2791 972.1158 C 1363.5664 970.4913 1361.9393 969.012 1360.4264 967.6776 C 1359.6558 967.0105 1358.9136 966.3433 1358.2 965.7342 C 1358.1715 965.7052 1358.1143 965.6761 1358.1143 965.6472 C 1357.9145 965.4732 1357.7433 965.3282 1357.572 965.183 C 1357.515 965.1541 1357.4864 965.096 1357.4578 965.096 C 1356.0876 963.9938 1354.7461 962.9786 1353.6614 962.1953 C 1350.7498 960.1938 1347.8382 958.3374 1344.8982 956.916 C 1344.6413 956.771 1344.3844 956.684 1344.099 956.5389 C 1344.026 956.502 1343.9495 956.4728 1343.8706 956.4519 C 1355.2314 962.6884 1358.8566 968.3448 1359.513 972.6959 Z" fill="#333"/>
            <path d="M 1359.513 972.6959 C 1361.4526 972.9925 1363.4343 972.7931 1365.2791 972.1158 C 1363.5664 970.4913 1361.9393 969.012 1360.4264 967.6776 C 1359.6558 967.0105 1358.9136 966.3433 1358.2 965.7342 C 1358.1715 965.7052 1358.1143 965.6761 1358.1143 965.6472 C 1357.9145 965.4732 1357.7433 965.3282 1357.572 965.183 C 1357.515 965.1541 1357.4864 965.096 1357.4578 965.096 C 1356.0876 963.9938 1354.7461 962.9786 1353.6614 962.1953 C 1350.7498 960.1938 1347.8382 958.3374 1344.8982 956.916 C 1344.6413 956.771 1344.3844 956.684 1344.099 956.5389 C 1344.026 956.502 1343.9495 956.4728 1343.8706 956.4519 C 1355.2314 962.6884 1358.8566 968.3448 1359.513 972.6959 Z" stroke="white" stroke-linecap="butt" stroke-linejoin="round" stroke-width=".5"/>
          </g>
          <g id="Graphic_106"/>
          <g id="Graphic_105"/>
          <g id="Graphic_104"/>
          <g id="Graphic_103"/>
          <g id="Graphic_102">
            <path d="M 1343.6991 956.3941 L 1343.8704 956.481 C 1343.5564 956.336 1343.2139 956.191 1342.8713 956.046 C 1342.9855 956.104 1343.0711 956.133 1343.1853 956.191 C 1343.3612 956.246 1343.5329 956.3139 1343.6991 956.3941 Z" fill="#ffffc0"/>
          </g>
          <g id="Graphic_101">
            <path d="M 1347.0676 966.6046 C 1344.0133 964.11 1341.1303 960.6292 1339.9029 957.8734 C 1342.7573 965.2123 1350.179 975.6258 1356.8014 979.9189 C 1356.9155 980.0059 1357.3151 980.238 1357.6291 980.412 C 1358.4855 979.0777 1360.0554 976.322 1359.5131 972.6961 C 1355.4312 972.1449 1351.0353 969.8824 1347.0676 966.6046 Z" fill="#333"/>
            <path d="M 1347.0676 966.6046 C 1344.0133 964.11 1341.1303 960.6292 1339.9029 957.8734 C 1342.7573 965.2123 1350.179 975.6258 1356.8014 979.9189 C 1356.9155 980.0059 1357.3151 980.238 1357.6291 980.412 C 1358.4855 979.0777 1360.0554 976.322 1359.5131 972.6961 C 1355.4312 972.1449 1351.0353 969.8824 1347.0676 966.6046 Z" stroke="white" stroke-linecap="butt" stroke-linejoin="round" stroke-width=".5"/>
          </g>
          <g id="Graphic_100">
            <path d="M 1342.643 955.9587 L 1342.0436 955.6977 C 1342.0721 955.6977 1342.1007 955.7267 1342.1292 955.7267 C 1342.272 955.7847 1342.4432 955.8717 1342.643 955.9587 Z" fill="#ffffc0"/>
          </g>
          <g id="Graphic_99">
            <path d="M 1347.0675 966.6046 C 1351.0352 969.8824 1355.4311 972.116 1359.513 972.6671 C 1358.8565 968.345 1355.2313 962.6597 1343.8705 956.4811 C 1343.8107 956.458 1343.7533 956.4289 1343.6993 956.3941 C 1343.528 956.3071 1343.3567 956.2491 1343.214 956.162 C 1343.0998 956.104 1343.0142 956.075 1342.9 956.017 C 1342.827 955.98 1342.7505 955.9509 1342.6716 955.93 C 1342.4976 955.845 1342.316 955.777 1342.1293 955.7269 C 1342.1007 955.7269 1342.0722 955.6979 1342.0437 955.6979 C 1341.958 955.6689 1341.8724 955.6109 1341.7868 955.5819 C 1341.4442 955.4659 1341.1017 955.2918 1340.7306 955.1758 C 1340.074 954.9728 1339.703 955.2918 1339.5603 955.785 C 1339.5459 955.842 1339.5363 955.9003 1339.5317 955.959 C 1339.5032 956.017 1339.5317 956.104 1339.5317 956.191 C 1339.5317 956.2201 1339.5317 956.2201 1339.5032 956.2491 C 1339.5186 956.5959 1339.586 956.9382 1339.703 957.2643 C 1339.7666 957.472 1339.8428 957.6755 1339.9314 957.8734 C 1341.1302 960.6292 1344.0418 964.11 1347.0675 966.6046 Z" fill="#333"/>
            <path d="M 1347.0675 966.6046 C 1351.0352 969.8824 1355.4311 972.116 1359.513 972.6671 C 1358.8565 968.345 1355.2313 962.6597 1343.8705 956.4811 C 1343.8107 956.458 1343.7533 956.4289 1343.6993 956.3941 C 1343.528 956.3071 1343.3567 956.2491 1343.214 956.162 C 1343.0998 956.104 1343.0142 956.075 1342.9 956.017 C 1342.827 955.98 1342.7505 955.9509 1342.6716 955.93 C 1342.4976 955.845 1342.316 955.777 1342.1293 955.7269 C 1342.1007 955.7269 1342.0722 955.6979 1342.0437 955.6979 C 1341.958 955.6689 1341.8724 955.6109 1341.7868 955.5819 C 1341.4442 955.4659 1341.1017 955.2918 1340.7306 955.1758 C 1340.074 954.9728 1339.703 955.2918 1339.5603 955.785 C 1339.5459 955.842 1339.5363 955.9003 1339.5317 955.959 C 1339.5032 956.017 1339.5317 956.104 1339.5317 956.191 C 1339.5317 956.2201 1339.5317 956.2201 1339.5032 956.2491 C 1339.5186 956.5959 1339.586 956.9382 1339.703 957.2643 C 1339.7666 957.472 1339.8428 957.6755 1339.9314 957.8734 C 1341.1302 960.6292 1344.0418 964.11 1347.0675 966.6046 Z" stroke="white" stroke-linecap="butt" stroke-linejoin="round" stroke-width=".5"/>
          </g>
          <g id="Graphic_98">
            <path d="M 1347.0675 966.6046 C 1351.0352 969.8824 1355.4311 972.116 1359.513 972.6671 C 1358.8565 968.345 1355.2313 962.6597 1343.8705 956.4811 C 1343.8107 956.458 1343.7533 956.4289 1343.6993 956.3941 C 1343.528 956.3071 1343.3567 956.2491 1343.214 956.162 C 1343.0998 956.104 1343.0142 956.075 1342.9 956.017 C 1342.827 955.98 1342.7505 955.9509 1342.6716 955.93 C 1342.4976 955.845 1342.316 955.777 1342.1293 955.7269 C 1342.1007 955.7269 1342.0722 955.6979 1342.0437 955.6979 C 1341.958 955.6689 1341.8724 955.6109 1341.7868 955.5819 C 1341.4442 955.4659 1341.1017 955.2918 1340.7306 955.1758 C 1340.074 954.9728 1339.703 955.2918 1339.5603 955.785 C 1339.5459 955.842 1339.5363 955.9003 1339.5317 955.959 C 1339.5032 956.017 1339.5317 956.104 1339.5317 956.191 C 1339.5317 956.2201 1339.5317 956.2201 1339.5032 956.2491 C 1339.5186 956.5959 1339.586 956.9382 1339.703 957.2643 C 1339.7666 957.472 1339.8428 957.6755 1339.9314 957.8734 C 1341.1302 960.6292 1344.0418 964.11 1347.0675 966.6046 Z" fill="#333"/>
            <path d="M 1347.0675 966.6046 C 1351.0352 969.8824 1355.4311 972.116 1359.513 972.6671 C 1358.8565 968.345 1355.2313 962.6597 1343.8705 956.4811 C 1343.8107 956.458 1343.7533 956.4289 1343.6993 956.3941 C 1343.528 956.3071 1343.3567 956.2491 1343.214 956.162 C 1343.0998 956.104 1343.0142 956.075 1342.9 956.017 C 1342.827 955.98 1342.7505 955.9509 1342.6716 955.93 C 1342.4976 955.845 1342.316 955.777 1342.1293 955.7269 C 1342.1007 955.7269 1342.0722 955.6979 1342.0437 955.6979 C 1341.958 955.6689 1341.8724 955.6109 1341.7868 955.5819 C 1341.4442 955.4659 1341.1017 955.2918 1340.7306 955.1758 C 1340.074 954.9728 1339.703 955.2918 1339.5603 955.785 C 1339.5459 955.842 1339.5363 955.9003 1339.5317 955.959 C 1339.5032 956.017 1339.5317 956.104 1339.5317 956.191 C 1339.5317 956.2201 1339.5317 956.2201 1339.5032 956.2491 C 1339.5186 956.5959 1339.586 956.9382 1339.703 957.2643 C 1339.7666 957.472 1339.8428 957.6755 1339.9314 957.8734 C 1341.1302 960.6292 1344.0418 964.11 1347.0675 966.6046 Z" stroke="white" stroke-linecap="butt" stroke-linejoin="round" stroke-width=".5"/>
          </g>
          <g id="Graphic_97">
            <path d="M 1392.8247 963.6459 C 1391.5973 963.4719 1388.8855 963.4138 1383.5191 964.5451 C 1382.8836 964.6987 1382.231 964.7669 1381.5781 964.7482 C 1380.8697 964.6661 1380.1716 964.5106 1379.4944 964.2841 C 1378.105 963.7751 1376.6309 963.5484 1375.1556 963.6169 C 1374.1447 963.6882 1373.1702 964.0284 1372.3296 964.6031 C 1371.6571 965.0462 1371.0754 965.6175 1370.617 966.2856 C 1369.732 967.5039 1367.8766 971.2167 1365.3362 972.203 C 1367.3343 974.1175 1370.4171 975.7129 1373.3002 974.7557 C 1376.069 973.8275 1377.7816 971.3328 1378.324 970.5206 C 1378.8775 969.667 1379.4879 968.8529 1380.1509 968.084 C 1381.0865 967.0883 1382.2551 966.3498 1383.5476 965.9375 C 1386.8018 964.8352 1391.7114 964.1681 1392.8818 964.052 C 1393.0245 963.936 1392.996 963.675 1392.8247 963.6459 Z" fill="#333"/>
            <path d="M 1392.8247 963.6459 C 1391.5973 963.4719 1388.8855 963.4138 1383.5191 964.5451 C 1382.8836 964.6987 1382.231 964.7669 1381.5781 964.7482 C 1380.8697 964.6661 1380.1716 964.5106 1379.4944 964.2841 C 1378.105 963.7751 1376.6309 963.5484 1375.1556 963.6169 C 1374.1447 963.6882 1373.1702 964.0284 1372.3296 964.6031 C 1371.6571 965.0462 1371.0754 965.6175 1370.617 966.2856 C 1369.732 967.5039 1367.8766 971.2167 1365.3362 972.203 C 1367.3343 974.1175 1370.4171 975.7129 1373.3002 974.7557 C 1376.069 973.8275 1377.7816 971.3328 1378.324 970.5206 C 1378.8775 969.667 1379.4879 968.8529 1380.1509 968.084 C 1381.0865 967.0883 1382.2551 966.3498 1383.5476 965.9375 C 1386.8018 964.8352 1391.7114 964.1681 1392.8818 964.052 C 1393.0245 963.936 1392.996 963.675 1392.8247 963.6459 Z" stroke="white" stroke-linecap="butt" stroke-linejoin="round" stroke-width=".5"/>
          </g>
          <g id="Graphic_96">
            <ellipse cx="1376.8567" cy="966.8141" rx="0.856359470892795" ry="0.870241163477477" fill="white"/>
          </g>
          <g id="Graphic_95">
            <path d="M 1425.3656 978.5358 C 1423.663 978.5384 1422.0308 979.2269 1420.827 980.4502 C 1419.623 981.6737 1418.9455 983.3322 1418.943 985.0624 L 1418.943 987.0059 C 1418.9455 988.736 1419.623 990.3947 1420.827 991.618 C 1422.0308 992.8415 1423.663 993.5299 1425.3656 993.5325 L 1429.4474 993.5325 L 1429.4474 991.1539 L 1425.3656 991.1539 C 1424.3224 991.1521 1423.3192 990.746 1422.5607 990.0182 C 1421.8021 989.2905 1421.3454 988.2961 1421.2837 987.238 L 1429.6472 987.238 C 1429.9248 987.2386 1430.1998 987.1835 1430.4564 987.0758 C 1430.7129 986.9682 1430.946 986.8101 1431.1423 986.6107 C 1431.3385 986.4112 1431.4942 986.1743 1431.6 985.9136 C 1431.706 985.6529 1431.7602 985.3734 1431.7596 985.0914 C 1431.7644 984.234 1431.6028 983.384 1431.2839 982.5903 C 1430.965 981.7965 1430.4951 981.0744 1429.9012 980.4654 C 1429.3072 979.8565 1428.6008 979.3725 1427.8225 979.0414 C 1427.0442 978.7102 1426.2093 978.5385 1425.3656 978.5358 Z M 1421.2837 984.8303 C 1421.3437 983.7715 1421.7998 982.7761 1422.5588 982.048 C 1423.3177 981.3199 1424.3219 980.9143 1425.3656 980.9143 C 1426.4092 980.9143 1427.4134 981.3199 1428.1723 982.048 C 1428.9313 982.7761 1429.3875 983.7715 1429.4474 984.8303 Z" fill="#282e38"/>
          </g>
          <g id="Graphic_94">
            <path d="M 1390.9978 976.1574 L 1392.7106 976.1574 L 1392.7106 973.7788 L 1390.9978 973.7788 C 1390.3518 973.7808 1389.7129 973.9155 1389.1194 974.1748 C 1388.526 974.4339 1387.99 974.8123 1387.544 975.2871 C 1386.6417 976.2387 1386.1312 977.5047 1386.1167 978.826 L 1386.1167 979.1161 L 1384.7466 979.1161 L 1384.7466 981.4947 L 1386.1167 981.4947 L 1386.1167 993.4747 L 1388.4574 993.4747 L 1388.4574 981.4947 L 1391.5973 981.4947 L 1391.5973 979.1451 L 1388.4574 979.1451 L 1388.4574 978.8551 C 1388.4859 977.4047 1389.6562 976.1574 1390.9978 976.1574 Z" fill="#282e38"/>
          </g>
          <g id="Graphic_93">
            <rect x="1396.3638" y="973.8079" width="2.3406408" height="19.724842" fill="#282e38"/>
          </g>
          <g id="Graphic_92">
            <rect x="1474.234" y="978.5358" width="2.3406408" height="14.93868" fill="#30b99e"/>
          </g>
          <g id="Graphic_91">
            <path d="M 1412.8058 987.4119 C 1412.8058 988.4044 1412.4179 989.3562 1411.7273 990.058 C 1411.0367 990.7597 1410.1002 991.1539 1409.1236 991.1539 C 1408.147 991.1539 1407.2104 990.7597 1406.5198 990.058 C 1405.8293 989.3562 1405.4413 988.4044 1405.4413 987.4119 L 1405.4413 978.5358 L 1403.1577 978.5358 L 1403.1577 987.4119 C 1403.1577 989.0276 1403.7893 990.577 1404.9135 991.7193 C 1406.0376 992.8617 1407.5624 993.5035 1409.1521 993.5035 C 1410.742 993.5035 1412.2667 992.8617 1413.3907 991.7193 C 1414.515 990.577 1415.1465 989.0276 1415.1465 987.4119 L 1415.1465 978.5358 L 1412.8058 978.5358 Z" fill="#282e38"/>
          </g>
          <g id="Graphic_90">
            <path d="M 1440.0945 978.5358 C 1438.5065 978.5405 1436.9845 979.1838 1435.8609 980.3252 C 1434.738 981.4666 1434.105 983.0132 1434.1003 984.6273 L 1434.1003 993.5035 L 1436.4414 993.5035 L 1436.4414 984.6273 C 1436.4414 983.6348 1436.829 982.6831 1437.5197 981.9813 C 1438.2104 981.2796 1439.147 980.8854 1440.123 980.8854 C 1441.1 980.8854 1442.0367 981.2796 1442.7274 981.9813 C 1443.418 982.6831 1443.8057 983.6348 1443.8057 984.6273 L 1443.8057 993.5035 L 1446.1463 993.5035 L 1446.1463 984.6273 C 1446.1188 983.0104 1445.4714 981.4682 1444.34 980.3302 C 1443.2095 979.192 1441.6864 978.5481 1440.0945 978.5358 Z" fill="#282e38"/>
          </g>
          <g id="Graphic_89">
            <path d="M 1452.7964 988.4565 L 1452.7964 980.9146 L 1455.9369 980.9146 L 1455.9369 978.565 L 1452.7964 978.565 L 1452.7964 973.8079 L 1450.4842 973.8079 L 1450.4842 978.565 L 1448.4299 978.565 L 1448.4299 980.9436 L 1450.4842 980.9436 L 1450.4842 988.4854 C 1450.4882 989.7921 1451.0008 991.0442 1451.9099 991.9682 C 1452.819 992.8921 1454.0518 993.4129 1455.3377 993.4167 L 1456.3649 993.4167 L 1456.3649 991.0381 L 1455.3377 991.0381 C 1454.6637 991.0366 1454.0183 990.7641 1453.5421 990.2803 C 1453.067 989.7965 1452.7983 989.1407 1452.7964 988.4565 Z" fill="#282e38"/>
          </g>
          <g id="Graphic_88">
            <path d="M 1484.0816 988.4565 L 1484.0816 980.9146 L 1487.2212 980.9146 L 1487.2212 978.565 L 1484.0816 978.565 L 1484.0816 973.8079 L 1481.741 973.8079 L 1481.741 978.565 L 1479.6857 978.565 L 1479.6857 980.9436 L 1481.741 980.9436 L 1481.741 988.4854 C 1481.745 989.7921 1482.2575 991.0442 1483.1666 991.9682 C 1484.0757 992.8921 1485.3075 993.4129 1486.5935 993.4167 L 1487.6216 993.4167 L 1487.6216 991.0381 L 1486.5935 991.0381 C 1485.9244 991.0305 1485.2859 990.7552 1484.8156 990.2719 C 1484.3453 989.7885 1484.0816 989.1362 1484.0816 988.4565 Z" fill="#30b99e"/>
          </g>
          <g id="Graphic_87">
            <path d="M 1461.2744 973.8079 L 1461.2744 979.8703 C 1462.3232 979.0313 1463.622 978.5811 1464.957 978.594 C 1466.545 978.5988 1468.0671 979.242 1469.1907 980.3834 C 1470.3133 981.5248 1470.9469 983.0715 1470.9508 984.6855 L 1470.9508 987.4413 C 1470.9508 989.0568 1470.3192 990.6062 1469.1956 991.7486 C 1468.071 992.891 1466.547 993.5327 1464.957 993.5327 C 1463.3671 993.5327 1461.8421 992.891 1460.7185 991.7486 C 1459.594 990.6062 1458.9623 989.0568 1458.9623 987.4413 L 1458.9623 973.8079 Z M 1461.2744 985.9619 L 1461.2744 987.4122 C 1461.2744 988.4047 1461.662 989.3564 1462.3527 990.0582 C 1463.0434 990.7599 1463.98 991.1541 1464.957 991.1541 C 1465.933 991.1541 1466.8697 990.7599 1467.5604 990.0582 C 1468.251 989.3564 1468.6387 988.4047 1468.6387 987.4122 L 1468.6387 984.6566 C 1468.6387 983.6642 1468.251 982.7124 1467.5604 982.0106 C 1466.8697 981.3089 1465.933 980.9146 1464.957 980.9146 C 1463.98 980.9146 1463.0434 981.3089 1462.3527 982.0106 C 1461.662 982.7124 1461.2744 983.6642 1461.2744 984.6566 Z" fill="#30b99e"/>
          </g>
        </g>
      </g>
      <g id="Group_114">
        <g id="Graphic_128"/>
        <g id="Group_116">
          <g id="Graphic_127">
            <path d="M 1386.6125 1109.7837 L 1386.1968 1106.9922 L 1383.4054 1107.408 L 1383.8805 1110.1994 Z" fill="#f37024"/>
          </g>
          <g id="Graphic_126">
            <path d="M 1408.4687 1101.944 L 1407.9936 1099.212 L 1395.8183 1101.1125 L 1396.1746 1103.8446 Z" fill="#f37024"/>
          </g>
          <g id="Graphic_125">
            <path d="M 1391.8386 1104.5573 L 1394.63 1104.0822 L 1394.2143 1101.3501 L 1391.4229 1101.7659 Z" fill="#f37024"/>
          </g>
          <g id="Graphic_124">
            <path d="M 1391.0074 1109.071 L 1390.5323 1106.339 L 1387.8002 1106.7547 L 1388.1566 1109.5461 Z" fill="#f37024"/>
          </g>
          <g id="Graphic_123">
            <path d="M 1396.412 1105.3887 L 1396.8871 1108.2395 L 1409.1218 1106.339 L 1408.706 1103.5476 Z" fill="#f37024"/>
          </g>
          <g id="Graphic_122">
            <path d="M 1392.5513 1108.8334 L 1395.2833 1108.477 L 1394.8675 1105.6262 L 1392.0761 1106.1013 Z" fill="#f37024"/>
          </g>
          <g id="Graphic_121">
            <path d="M 1387.0873 1102.4192 L 1387.5624 1105.2105 L 1390.2945 1104.7949 L 1389.8787 1102.0034 Z" fill="#f37024"/>
          </g>
          <g id="Graphic_120">
            <path d="M 1388.038 1100.6968 L 1384.1774 1075.3959 L 1382.9896 1075.6335 L 1386.85 1100.8156 Z" fill="#f37024"/>
          </g>
          <g id="Graphic_119">
            <path d="M 1389.6411 1100.4591 L 1386.0776 1077.4151 L 1384.9492 1077.5933 L 1388.5127 1100.5779 Z" fill="#f37024"/>
          </g>
          <g id="Graphic_118">
            <path d="M 1392.3733 1099.9841 L 1389.2256 1079.5534 L 1388.0377 1079.7315 L 1391.1855 1100.2217 Z" fill="#f37024"/>
          </g>
          <g id="Graphic_117">
            <path d="M 1393.977 1099.7467 L 1390.7104 1078.5438 L 1389.5226 1078.722 L 1392.8485 1099.9248 Z" fill="#f37024"/>
          </g>
        </g>
        <g id="Graphic_115">
          <text transform="translate(1412.614 1090.6298)" fill="black">
            <tspan font-family="Helvetica Neue" font-weight="bold" font-size="16" fill="black" x="4654055e-19" y="16" xml:space="preserve">Loki</tspan>
          </text>
        </g>
      </g>
      <g id="Group_129">
        <g id="Group_132">
          <title>Layer_6</title>
          <g id="Graphic_133">
            <path d="M 1189.1101 1084.919 L 1188.3768 1084.919 C 1187.9577 1084.919 1187.6179 1085.2588 1187.6179 1085.6779 C 1187.6179 1086.097 1187.9577 1086.4368 1188.3768 1086.4368 L 1189.1101 1086.4368 C 1189.5292 1086.4368 1189.869 1086.097 1189.869 1085.6779 C 1189.869 1085.2588 1189.5292 1084.919 1189.1101 1084.919 Z M 1203.1417 1095.9887 L 1202.4084 1095.9887 C 1201.9893 1095.9887 1201.6495 1096.3285 1201.6495 1096.7476 C 1201.6495 1097.1667 1201.9893 1097.5065 1202.4084 1097.5065 L 1203.1417 1097.5065 C 1203.5608 1097.5065 1203.9006 1097.1667 1203.9006 1096.7476 C 1203.9006 1096.3285 1203.5608 1095.9887 1203.1417 1095.9887 Z M 1202.5269 1088.7615 C 1202.5269 1088.3424 1202.1871 1088.0026 1201.768 1088.0026 L 1199.232 1088.0026 C 1198.8128 1088.0026 1198.473 1088.3424 1198.473 1088.7615 C 1198.473 1089.1807 1198.8128 1089.5204 1199.232 1089.5204 L 1201.768 1089.5204 C 1201.9693 1089.5204 1202.1623 1089.4405 1202.3046 1089.2982 C 1202.447 1089.1558 1202.5269 1088.9628 1202.5269 1088.7615 Z M 1226.5971 1083.9904 L 1225.8254 1079.6548 C 1225.6079 1078.0281 1224.1827 1076.8378 1222.5433 1076.9138 L 1192.8181 1076.9138 C 1192.1924 1076.8915 1191.5921 1077.1619 1191.1941 1077.6452 C 1190.7962 1078.1285 1190.646 1078.7696 1190.788 1079.3794 L 1191.6013 1083.9904 C 1191.608 1084.0271 1191.6165 1084.0635 1191.627 1084.0993 C 1191.723 1084.6629 1191.438 1084.8902 1191.1819 1084.9735 C 1190.8355 1085.0981 1190.6285 1085.4532 1190.6908 1085.816 C 1190.7531 1086.1787 1191.0668 1086.4445 1191.4348 1086.4464 L 1224.567 1086.4464 C 1225.1906 1086.468 1225.7888 1086.1988 1226.1863 1085.7179 C 1226.5838 1085.237 1226.7356 1084.5988 1226.5971 1083.9904 Z M 1216.4849 1101.3842 C 1216.1647 1099.7031 1215.204 1099.0787 1214.1185 1099.0787 L 1206.267 1099.0787 C 1205.8456 1099.0823 1205.5063 1099.4258 1205.508 1099.8472 C 1205.5044 1100.2393 1205.8 1100.5696 1206.1901 1100.6093 C 1206.4399 1100.6542 1206.7089 1100.9808 1206.8786 1101.7877 L 1207.6855 1106.2707 C 1207.9892 1107.6597 1209.2067 1108.6585 1210.6282 1108.685 L 1215.3129 1108.6626 C 1215.9378 1108.6929 1216.5412 1108.4307 1216.9453 1107.9531 C 1217.3494 1107.4755 1217.5083 1106.8371 1217.375 1106.2258 Z M 1206.1037 1097.5609 L 1214.6245 1097.5609 C 1214.6884 1097.5597 1214.752 1097.55 1214.8134 1097.5321 C 1215.6011 1097.3656 1215.6395 1096.7252 1215.537 1096.088 L 1214.4515 1090.1288 C 1214.1538 1088.579 1213.254 1087.9674 1212.0724 1087.9674 L 1204.2689 1087.9674 C 1203.8704 1087.9718 1203.5433 1088.2836 1203.5197 1088.6813 C 1203.496 1089.0791 1203.7841 1089.4273 1204.1792 1089.4788 C 1204.4386 1089.5268 1204.7236 1089.8759 1204.89 1090.7597 L 1205.713 1095.3195 C 1205.7579 1095.4855 1205.7311 1095.6628 1205.6393 1095.8083 C 1205.5474 1095.9537 1205.3987 1096.054 1205.2295 1096.0848 C 1204.8798 1096.2059 1204.6693 1096.5623 1204.732 1096.927 C 1204.7948 1097.2917 1205.1124 1097.5573 1205.4825 1097.5545 L 1206.0909 1097.5545 Z" fill="url(#Obj_Gradient)"/>
          </g>
        </g>
        <g id="Graphic_131">
          <text transform="translate(1221.4606 1089.9716)" fill="black">
            <tspan font-family="Helvetica Neue" font-weight="bold" font-size="16" fill="black" x="0" y="16" xml:space="preserve">Tempo</tspan>
          </text>
        </g>
        <g id="Graphic_130"/>
      </g>
      <g id="Line_135">
        <line x1="1230.6679" y1="998.7874" x2="1230.6679" y2="1046.6551" marker-end="url(#FilledArrow_Marker)" stroke="#0a55a8" stroke-linecap="round" stroke-linejoin="round" stroke-width="1"/>
      </g>
      <g id="Line_136">
        <line x1="1230.6679" y1="840.3128" x2="1230.6679" y2="922.485" marker-end="url(#FilledArrow_Marker)" stroke="#0a55a8" stroke-linecap="round" stroke-linejoin="round" stroke-width="1"/>
      </g>
      <g id="Line_137">
        <line x1="1413.548" y1="998.7874" x2="1413.548" y2="1046.6551" marker-end="url(#FilledArrow_Marker)" stroke="#0a55a8" stroke-linecap="round" stroke-linejoin="round" stroke-width="1"/>
      </g>
      <g id="Graphic_139">
        <text transform="translate(886.644 1086.4195)" fill="black">
          <tspan font-family="Helvetica Neue" font-weight="bold" font-size="16" fill="black" x="0" y="16" xml:space="preserve">Backends</tspan>
        </text>
      </g>
      <g id="Graphic_142">
        <rect x="1097.1201" y="862.7998" width="120.112" height="28.46411" fill="white"/>
        <text transform="translate(1102.1201 867.7998)" fill="black">
          <tspan font-family="Helvetica Neue" font-size="16" fill="black" x="4973799e-19" y="15" xml:space="preserve">Metrics &amp; Traces</tspan>
        </text>
      </g>
      <g id="Group_143">
        <g id="Group_79">
          <g id="Graphic_83"/>
          <g id="Group_80">
            <g id="Graphic_82">
              <path d="M 1184.0761 964.8056 C 1181.8618 967.0199 1181.8618 970.6144 1184.0761 972.8287 C 1186.2905 975.043 1189.885 975.043 1192.0993 972.8287 C 1194.3136 970.6144 1194.3136 967.0199 1192.0993 964.8056 C 1189.885 962.5913 1186.2905 962.5913 1184.0761 964.8056 Z M 1190.0821 970.8116 C 1188.9901 971.9036 1187.2005 971.9036 1186.1085 970.8116 C 1185.0165 969.7196 1185.0165 967.9299 1186.1085 966.8379 C 1187.2005 965.7459 1188.9901 965.7459 1190.0821 966.8379 C 1191.1741 967.9299 1191.1741 969.7196 1190.0821 970.8116 Z M 1195.4511 965.9583 L 1197.8322 965.9583 L 1197.8322 967.1564 C 1198.4086 966.3678 1199.2124 965.7914 1200.4409 965.7914 C 1202.3974 965.7914 1204.2629 967.3232 1204.2629 970.1291 L 1204.2629 970.1594 C 1204.2629 972.9652 1202.4277 974.497 1200.4409 974.497 C 1199.1669 974.497 1198.3934 973.9207 1197.8322 973.2382 L 1197.8322 976.8327 L 1195.4511 976.8327 L 1195.4511 965.9583 Z M 1201.8817 970.1746 L 1201.8817 970.1442 C 1201.8817 968.7489 1200.9414 967.8237 1199.8342 967.8237 C 1198.727 967.8237 1197.8019 968.7489 1197.8019 970.1442 L 1197.8019 970.1746 C 1197.8019 971.5699 1198.727 972.495 1199.8342 972.495 C 1200.9414 972.4799 1201.8817 971.5851 1201.8817 970.1746 Z M 1205.9464 970.1897 L 1205.9464 970.1594 C 1205.9464 967.7782 1207.645 965.8066 1210.0717 965.8066 C 1212.8623 965.8066 1214.1363 967.9754 1214.1363 970.3414 C 1214.1363 970.5234 1214.1212 970.7509 1214.106 970.9632 L 1208.2972 970.9632 C 1208.5247 972.04 1209.283 972.6012 1210.3447 972.6012 C 1211.1333 972.6012 1211.7097 972.3586 1212.377 971.7519 L 1213.7268 972.95 C 1212.9533 973.9207 1211.831 974.5122 1210.3143 974.5122 C 1207.7967 974.497 1205.9464 972.7377 1205.9464 970.1897 Z M 1211.831 969.4769 C 1211.6945 968.4152 1211.0727 967.7024 1210.0717 967.7024 C 1209.0859 967.7024 1208.4489 968.4001 1208.2669 969.4769 Z M 1215.835 965.9583 L 1218.2616 965.9583 L 1218.2616 967.1716 C 1218.8228 966.4588 1219.5356 965.8066 1220.7641 965.8066 C 1222.5993 965.8066 1223.661 967.0199 1223.661 968.9764 L 1223.661 974.497 L 1221.2343 974.497 L 1221.2343 969.7347 C 1221.2343 968.5821 1220.6883 968.0057 1219.7631 968.0057 C 1218.838 968.0057 1218.2465 968.5972 1218.2465 969.7347 L 1218.2465 974.497 L 1215.8198 974.497 L 1215.8198 965.9583 Z M 1192.0083 936.9142 L 1188.5351 940.3874 C 1187.8526 941.0699 1187.8526 942.177 1188.5351 942.8595 L 1202.1092 956.4336 C 1202.7917 957.1161 1203.8989 957.1161 1204.5814 956.4336 L 1208.0545 952.9605 C 1208.737 952.278 1208.737 951.1708 1208.0545 950.4883 L 1194.4804 936.9142 C 1193.7979 936.2317 1192.6908 936.2317 1192.0083 936.9142 Z M 1167.6659 981.3068 C 1168.2877 980.685 1168.2877 979.684 1167.6659 979.0622 L 1165.8914 977.2877 C 1165.2696 976.6659 1164.2686 976.6659 1163.6467 977.2877 L 1160.0068 980.9277 L 1159.0058 979.9267 C 1158.4598 979.3807 1157.5498 979.3807 1157.0038 979.9267 C 1156.4578 980.4727 1156.4578 981.3827 1157.0038 981.9287 L 1163.0249 987.9498 C 1163.5709 988.4958 1164.4809 988.4958 1165.0269 987.9498 C 1165.5729 987.4038 1165.5729 986.4938 1165.0269 985.9478 L 1164.0259 984.9468 L 1167.6659 981.3068 Z" fill="#f5a800"/>
            </g>
            <g id="Graphic_81">
              <path d="M 1186.0478 946.8787 L 1178.328 954.5985 C 1177.6455 955.281 1177.6455 956.4185 1178.328 957.101 L 1183.0903 961.8633 C 1186.4573 959.4366 1191.1893 959.74 1194.2226 962.7733 L 1198.0749 958.921 C 1198.7574 958.2385 1198.7574 957.101 1198.0749 956.4185 L 1188.5503 946.8938 C 1187.8526 946.1962 1186.7303 946.1962 1186.0478 946.8787 Z M 1181.0883 963.8804 L 1178.2673 961.0594 C 1177.6152 960.4073 1176.5232 960.4073 1175.871 961.0594 L 1165.9369 970.9936 C 1165.2847 971.6457 1165.2847 972.7377 1165.9369 973.3899 L 1171.5637 979.0167 C 1172.2159 979.6689 1173.3079 979.6689 1173.96 979.0167 L 1180.3452 972.6316 C 1179.0105 969.8257 1179.2532 966.4588 1181.0883 963.8804 Z M 1228.1503 965.4426 L 1224.6923 965.4426 L 1224.6923 963.1373 L 1234.1107 963.1373 L 1234.1107 965.4426 L 1230.6527 965.4426 L 1230.6527 974.497 L 1228.1503 974.497 L 1228.1503 965.4426 Z M 1234.1259 970.1746 L 1234.1259 970.1442 C 1234.1259 967.7631 1235.8246 965.7914 1238.2512 965.7914 C 1241.0419 965.7914 1242.3159 967.9602 1242.3159 970.3262 C 1242.3159 970.5082 1242.3007 970.7357 1242.2855 970.9481 L 1236.4767 970.9481 C 1236.7042 972.0249 1237.4625 972.586 1238.5242 972.586 C 1239.3129 972.586 1239.8892 972.3434 1240.5565 971.7367 L 1241.9064 972.9349 C 1241.1329 973.9055 1240.0105 974.497 1238.4939 974.497 C 1235.9762 974.497 1234.1259 972.7377 1234.1259 970.1746 Z M 1240.0105 969.4769 C 1239.874 968.4152 1239.2522 967.7024 1238.2512 967.7024 C 1237.2654 967.7024 1236.6284 968.4001 1236.4464 969.4769 Z M 1243.9993 963.1373 L 1246.3653 963.1373 L 1246.3653 974.497 L 1243.9993 974.497 Z M 1248.0488 970.1897 L 1248.0488 970.1594 C 1248.0488 967.7782 1249.7475 965.8066 1252.1741 965.8066 C 1254.9648 965.8066 1256.2388 967.9754 1256.2388 970.3414 C 1256.2388 970.5234 1256.2236 970.7509 1256.2085 970.9632 L 1250.3996 970.9632 C 1250.6271 972.04 1251.3855 972.6012 1252.4471 972.6012 C 1253.2358 972.6012 1253.8121 972.3586 1254.4795 971.7519 L 1255.8293 972.95 C 1255.0558 973.9207 1253.9335 974.5122 1252.4168 974.5122 C 1249.9143 974.497 1248.0488 972.7377 1248.0488 970.1897 Z M 1253.9486 969.4921 C 1253.8121 968.4304 1253.1903 967.7176 1252.1893 967.7176 C 1251.2035 967.7176 1250.5665 968.4152 1250.3845 969.4921 Z M 1257.9374 965.9583 L 1260.3641 965.9583 L 1260.3641 967.1716 C 1260.9253 966.4588 1261.6533 965.8066 1262.8818 965.8066 C 1263.9889 965.8066 1264.8382 966.3071 1265.278 967.1564 C 1266.0212 966.2768 1266.916 965.8066 1268.0839 965.8066 C 1269.8887 965.8066 1270.9655 966.8834 1270.9655 968.9461 L 1270.9655 974.497 L 1268.5389 974.497 L 1268.5389 969.7347 C 1268.5389 968.5821 1268.0232 968.0057 1267.1284 968.0057 C 1266.2184 968.0057 1265.6572 968.5972 1265.6572 969.7347 L 1265.6572 974.497 L 1263.2306 974.497 L 1263.2306 969.7347 C 1263.2306 968.5821 1262.7149 968.0057 1261.8201 968.0057 C 1260.9101 968.0057 1260.349 968.5972 1260.349 969.7347 L 1260.349 974.497 L 1257.9223 974.497 L 1257.9223 965.9583 Z M 1272.649 970.1746 L 1272.649 970.1442 C 1272.649 967.7631 1274.3477 965.7914 1276.7743 965.7914 C 1279.565 965.7914 1280.839 967.9602 1280.839 970.3262 C 1280.839 970.5082 1280.8238 970.7357 1280.8087 970.9481 L 1274.9999 970.9481 C 1275.2274 972.0249 1275.9857 972.586 1277.0473 972.586 C 1277.836 972.586 1278.4123 972.3434 1279.0797 971.7367 L 1280.4295 972.9349 C 1279.656 973.9055 1278.5337 974.497 1277.017 974.497 C 1274.4994 974.497 1272.649 972.7377 1272.649 970.1746 Z M 1278.5337 969.4769 C 1278.3972 968.4152 1277.7753 967.7024 1276.7743 967.7024 C 1275.7885 967.7024 1275.1515 968.4001 1274.9695 969.4769 Z M 1282.7955 971.9187 L 1282.7955 967.8389 L 1281.7642 967.8389 L 1281.7642 965.7459 L 1282.7955 965.7459 L 1282.7955 963.5468 L 1285.2373 963.5468 L 1285.2373 965.7459 L 1287.2696 965.7459 L 1287.2696 967.8389 L 1285.2525 967.8389 L 1285.2525 971.5092 C 1285.2525 972.0704 1285.4951 972.3434 1286.0411 972.3434 C 1286.4961 972.3434 1286.8905 972.2372 1287.2393 972.04 L 1287.2393 973.9965 C 1286.7236 974.2999 1286.1321 974.497 1285.3131 974.497 C 1283.8116 974.497 1282.7955 973.9055 1282.7955 971.9187 Z M 1289.1048 965.8976 L 1291.5618 965.8976 L 1291.5618 967.6417 C 1292.0623 966.4436 1292.8661 965.6701 1294.3221 965.7308 L 1294.3221 968.3091 L 1294.1856 968.3091 C 1292.5476 968.3091 1291.5466 969.2949 1291.5466 971.3727 L 1291.5466 974.5729 L 1289.0896 974.5729 L 1289.0896 965.8976 Z M 1302.1329 965.8066 L 1304.7415 965.8066 L 1301.3442 974.8762 C 1300.6617 976.681 1299.9337 977.3484 1298.4322 977.3484 C 1297.5222 977.3484 1296.8549 977.1209 1296.2028 976.7417 L 1297.0369 974.9217 C 1297.3706 975.1189 1297.78 975.2705 1298.1137 975.2705 C 1298.5384 975.2705 1298.781 975.134 1298.9934 974.6942 L 1295.5203 965.8066 L 1298.1744 965.8066 L 1300.1916 971.8277 L 1302.1329 965.8066 Z" fill="#425cc7"/>
            </g>
          </g>
        </g>
        <g id="Graphic_134">
          <text transform="translate(1233.8575 976.3813)" fill="black">
            <tspan font-family="Helvetica Neue" font-size="14" fill="black" x="0" y="14" xml:space="preserve">Collectors</tspan>
          </text>
        </g>
      </g>
      <g id="Graphic_146">
        <rect x="1270.8954" y="856.5491" width="42.592" height="28.46411" fill="white"/>
        <text transform="translate(1275.8954 861.5491)" fill="black">
          <tspan font-family="Helvetica Neue" font-size="16" fill="black" x="27711167e-20" y="15" xml:space="preserve">Logs</tspan>
        </text>
      </g>
      <g id="Group_150">
        <g id="Graphic_149">
          <path d="M 1050.9188 1065.0248 C 1041.6888 1065.0248 1034.2058 1072.5068 1034.2058 1081.7378 C 1034.2058 1090.9688 1041.6888 1098.4508 1050.9188 1098.4508 C 1060.1488 1098.4508 1067.6318 1090.9678 1067.6318 1081.7378 C 1067.6318 1072.5078 1060.1488 1065.0248 1050.9188 1065.0248 Z M 1050.9188 1096.3048 C 1048.2928 1096.3048 1046.1638 1094.5508 1046.1638 1092.3868 L 1055.6738 1092.3868 C 1055.6738 1094.5498 1053.5438 1096.3048 1050.9188 1096.3048 Z M 1058.7728 1091.0898 L 1043.0628 1091.0898 L 1043.0628 1088.2398 L 1058.7628 1088.2398 L 1058.7628 1091.0898 Z M 1058.7168 1086.7748 L 1043.1088 1086.7748 L 1042.9538 1086.5948 C 1041.3458 1084.6418 1040.9668 1083.6228 1040.5998 1082.5848 C 1040.5938 1082.5508 1042.5498 1082.9848 1043.9368 1083.2968 C 1044.5199 1083.4276 1045.1057 1083.5459 1045.6938 1083.6518 C 1044.6918 1082.4778 1044.0968 1080.9848 1044.0968 1079.4588 C 1044.0968 1076.1088 1046.6668 1073.1808 1045.7388 1070.8148 C 1046.6408 1070.8878 1047.6058 1072.7188 1047.6708 1075.5818 C 1048.6308 1074.2568 1049.0308 1071.8358 1049.0308 1070.3518 C 1049.0308 1068.8148 1050.0438 1067.0298 1051.0558 1066.9688 C 1050.1528 1068.4568 1051.2898 1069.7328 1052.2998 1072.8968 C 1052.6798 1074.0868 1052.6298 1076.0868 1052.9228 1077.3538 C 1053.0198 1074.7188 1053.4728 1070.8738 1055.1448 1069.5478 C 1054.4078 1071.2178 1055.2548 1073.3108 1055.8328 1074.3158 C 1056.7668 1075.9378 1057.3328 1077.1658 1057.3328 1079.4918 C 1057.3328 1081.0518 1056.7578 1082.5178 1055.7868 1083.6648 C 1056.8908 1083.4578 1057.6528 1083.2708 1057.6528 1083.2708 L 1061.2368 1082.5708 C 1061.2368 1082.5708 1060.7168 1084.7108 1058.7148 1086.7748 Z" fill="#da4e31"/>
        </g>
        <g id="Graphic_148">
          <path d="M 1005.2118 1101.9468 C 1005.9898 1101.8168 1007.0088 1101.7068 1008.3048 1101.7068 C 1009.8978 1101.7068 1011.0648 1102.0768 1011.8048 1102.7438 C 1012.4718 1103.3368 1012.8978 1104.2438 1012.8978 1105.3558 C 1012.8978 1106.4858 1012.5648 1107.3758 1011.9348 1108.0228 C 1011.0648 1108.9308 1009.6948 1109.3928 1008.1188 1109.3928 C 1007.6368 1109.3928 1007.1928 1109.3728 1006.8218 1109.2928 L 1006.8218 1114.2928 L 1005.2218 1114.2928 Z M 1006.8118 1107.9668 C 1007.1638 1108.0598 1007.6088 1108.0968 1008.1458 1108.0968 C 1010.0908 1108.0968 1011.2758 1107.1338 1011.2758 1105.4468 C 1011.2758 1103.7798 1010.0908 1102.9838 1008.3308 1102.9838 C 1007.6268 1102.9838 1007.0908 1103.0398 1006.8108 1103.1138 Z M 1014.7048 1108.1148 L 1014.6308 1105.3178 L 1016.0568 1105.3178 L 1016.1308 1107.0958 L 1016.1868 1107.0958 C 1016.5948 1105.8918 1017.5948 1105.1318 1018.6868 1105.1318 C 1018.8538 1105.1318 1018.9828 1105.1518 1019.1318 1105.1688 L 1019.1318 1106.7058 C 1018.9648 1106.6688 1018.7988 1106.6688 1018.5758 1106.6688 C 1017.4278 1106.6688 1016.6128 1107.5208 1016.3898 1108.7438 C 1016.3514 1108.9953 1016.3326 1109.2494 1016.3338 1109.5038 L 1016.3338 1114.2838 L 1014.7038 1114.2838 L 1014.7038 1108.1158 Z M 1028.6988 1109.7148 C 1028.6988 1113.0308 1026.3838 1114.4748 1024.2348 1114.4748 C 1021.8268 1114.4748 1019.9378 1112.6968 1019.9378 1109.8628 C 1019.9378 1106.8808 1021.9198 1105.1208 1024.3838 1105.1208 C 1026.9588 1105.1208 1028.6998 1106.9908 1028.6998 1109.7148 Z M 1021.6048 1109.8078 C 1021.6048 1111.7718 1022.7048 1113.2528 1024.3088 1113.2528 C 1025.8648 1113.2528 1027.0318 1111.7898 1027.0318 1109.7708 C 1027.0318 1108.2508 1026.2718 1106.3438 1024.3458 1106.3438 C 1022.4378 1106.3438 1021.6058 1108.1218 1021.6058 1109.8078 Z M 1030.7568 1107.7318 L 1030.6828 1105.3058 L 1032.1088 1105.3058 L 1032.1828 1106.7688 L 1032.2388 1106.7688 C 1032.7388 1105.9168 1033.5728 1105.1188 1035.0728 1105.1188 C 1036.2768 1105.1188 1037.2028 1105.8588 1037.5928 1106.9158 L 1037.6298 1106.9158 C 1037.8791 1106.4563 1038.2271 1106.0578 1038.6488 1105.7488 C 1039.1858 1105.3418 1039.7488 1105.1188 1040.6118 1105.1188 C 1041.8158 1105.1188 1043.5758 1105.8968 1043.5758 1109.0188 L 1043.5758 1114.2788 L 1041.9828 1114.2788 L 1041.9828 1109.2228 C 1041.9828 1107.4828 1041.3328 1106.4628 1040.0378 1106.4628 C 1039.0928 1106.4628 1038.3878 1107.1478 1038.0928 1107.9258 C 1038.0093 1108.1895 1037.9655 1108.4642 1037.9628 1108.7408 L 1037.9628 1114.2788 L 1036.3688 1114.2788 L 1036.3688 1108.9088 C 1036.3688 1107.4828 1035.7388 1106.4638 1034.4988 1106.4638 C 1033.4988 1106.4638 1032.7388 1107.2788 1032.4788 1108.0938 C 1032.3858 1108.3158 1032.3488 1108.6138 1032.3488 1108.8908 L 1032.3488 1114.2908 L 1030.7558 1114.2908 L 1030.7558 1107.7508 Z M 1047.1138 1110.0868 C 1047.1508 1112.2908 1048.5398 1113.1988 1050.1888 1113.1988 C 1051.3558 1113.1988 1052.0888 1112.9948 1052.6708 1112.7358 L 1052.9668 1113.9028 C 1052.3928 1114.1628 1051.3928 1114.4768 1049.9668 1114.4768 C 1047.2068 1114.4768 1045.5588 1112.6428 1045.5588 1109.9388 C 1045.5588 1107.2348 1047.1518 1105.1228 1049.7638 1105.1228 C 1052.7088 1105.1228 1053.4688 1107.6788 1053.4688 1109.3278 C 1053.474 1109.5823 1053.4552 1109.8368 1053.4128 1110.0878 Z M 1051.8938 1108.9198 C 1051.9138 1107.8998 1051.4678 1106.2898 1049.6338 1106.2898 C 1047.9668 1106.2898 1047.2638 1107.7898 1047.1338 1108.9198 Z M 1057.4488 1103.1598 L 1057.4488 1105.3098 L 1059.7828 1105.3098 L 1059.7828 1106.5498 L 1057.4488 1106.5498 L 1057.4488 1111.3848 C 1057.4488 1112.4848 1057.7638 1113.1248 1058.6718 1113.1248 C 1059.1168 1113.1248 1059.3758 1113.0878 1059.6168 1113.0248 L 1059.6908 1114.2648 C 1059.3758 1114.3648 1058.8758 1114.4868 1058.2458 1114.4868 C 1057.4858 1114.4868 1056.8758 1114.2268 1056.4858 1113.8018 C 1056.0408 1113.3018 1055.8558 1112.5048 1055.8558 1111.4488 L 1055.8558 1106.5488 L 1054.4688 1106.5488 L 1054.4688 1105.3088 L 1055.8688 1105.3088 L 1055.8688 1103.6528 Z M 1061.6188 1101.1128 L 1063.2488 1101.1128 L 1063.2488 1106.7258 L 1063.2858 1106.7258 C 1063.561 1106.2376 1063.9646 1105.834 1064.4528 1105.5588 C 1064.9599 1105.267 1065.5348 1105.1136 1066.1198 1105.1138 C 1067.3238 1105.1138 1069.2498 1105.8538 1069.2498 1108.9298 L 1069.2498 1114.2638 L 1067.6198 1114.2638 L 1067.6198 1109.1228 C 1067.6198 1107.6778 1067.0828 1106.4728 1065.5448 1106.4728 C 1064.4888 1106.4728 1063.6748 1107.2128 1063.3588 1108.0728 C 1063.2668 1108.3128 1063.2588 1108.5548 1063.2588 1108.8508 L 1063.2588 1114.2508 L 1061.6288 1114.2508 L 1061.6288 1101.1228 Z M 1072.8068 1110.0768 C 1072.8438 1112.2808 1074.2328 1113.1888 1075.8818 1113.1888 C 1077.0488 1113.1888 1077.7818 1112.9848 1078.3638 1112.7258 L 1078.6598 1113.8928 C 1078.0858 1114.1528 1077.0858 1114.4668 1075.6598 1114.4668 C 1072.8998 1114.4668 1071.2598 1112.6328 1071.2598 1109.9288 C 1071.2598 1107.2248 1072.8528 1105.1128 1075.4648 1105.1128 C 1078.4098 1105.1128 1079.1698 1107.6688 1079.1698 1109.3178 C 1079.1756 1109.5723 1079.1569 1109.8269 1079.1138 1110.0778 Z M 1077.5868 1108.9098 C 1077.6068 1107.8898 1077.1608 1106.2798 1075.3268 1106.2798 C 1073.6598 1106.2798 1072.9568 1107.7798 1072.8268 1108.9098 Z M 1088.6808 1111.8198 L 1088.7548 1114.2838 L 1087.3088 1114.2838 L 1087.2158 1112.8208 L 1087.1688 1112.8208 C 1086.7608 1113.5428 1085.7988 1114.4878 1084.2048 1114.4878 C 1082.7968 1114.4878 1081.1118 1113.6908 1081.1118 1110.5608 L 1081.1118 1105.3188 L 1082.7418 1105.3188 L 1082.7418 1110.2638 C 1082.7418 1111.9678 1083.2788 1113.1338 1084.7418 1113.1338 C 1085.8348 1113.1338 1086.5938 1112.3738 1086.8918 1111.6338 C 1086.9937 1111.3677 1087.044 1111.0847 1087.0398 1110.7998 L 1087.0398 1105.3168 L 1088.6698 1105.3168 Z M 1091.1638 1112.6338 C 1091.6638 1112.9298 1092.5158 1113.2638 1093.3308 1113.2638 C 1094.4978 1113.2638 1095.0528 1112.6898 1095.0528 1111.9298 C 1095.0528 1111.1518 1094.5898 1110.7448 1093.4028 1110.2998 C 1091.7728 1109.7068 1091.0028 1108.8368 1091.0028 1107.7618 C 1091.0028 1106.3168 1092.1878 1105.1318 1094.0958 1105.1318 C 1095.0038 1105.1318 1095.7998 1105.3718 1096.2818 1105.6878 L 1095.8818 1106.8728 C 1095.5298 1106.6508 1094.8818 1106.3358 1094.0478 1106.3358 C 1093.0848 1106.3358 1092.5658 1106.8918 1092.5658 1107.5588 C 1092.5658 1108.2988 1093.0838 1108.6328 1094.2508 1109.0958 C 1095.7878 1109.6698 1096.6028 1110.4478 1096.6028 1111.7818 C 1096.6028 1113.3748 1095.3628 1114.4858 1093.2688 1114.4858 C 1092.2868 1114.4858 1091.3688 1114.2258 1090.7488 1113.8558 Z" fill="#e6522c"/>
        </g>
      </g>
      <g id="Graphic_152"/>
      <g id="Graphic_153"/>
      <g id="Graphic_155"/>
      <g id="Line_156">
        <path d="M 1147.8484 965.5862 L 1129.9889 965.5862 L 1129.9889 965.6168 L 1066.9073 965.6168 C 1058.0708 965.6168 1050.9073 972.7803 1050.9073 981.6168 L 1050.9073 1046.6551" marker-end="url(#FilledArrow_Marker)" stroke="#0a55a8" stroke-linecap="round" stroke-linejoin="round" stroke-width="1"/>
      </g>
      <g id="Graphic_157">
        <text transform="translate(886.644 1209.5134)" fill="black">
          <tspan font-family="Helvetica Neue" font-weight="bold" font-size="16" fill="black" x="0" y="16" xml:space="preserve">Frontend</tspan>
        </text>
      </g>
      <g id="Group_167">
        <g id="Group_159">
          <g id="Graphic_166">
            <path d="M 1213.8502 1242.7622 C 1213.7317 1245.8847 1211.2416 1248.3352 1208.1587 1248.3352 C 1204.9177 1248.3352 1202.5067 1245.7266 1202.5067 1242.5251 C 1202.5067 1239.3236 1205.1153 1236.715 1208.3168 1236.715 C 1209.7397 1236.715 1211.1626 1237.3474 1212.3483 1238.454 L 1211.4392 1239.6003 C 1210.5302 1238.8098 1209.4235 1238.2564 1208.3168 1238.2564 C 1205.9849 1238.2564 1204.0482 1240.1536 1204.0482 1242.5251 C 1204.0482 1244.936 1205.8663 1246.7937 1208.1587 1246.7937 C 1210.214 1246.7937 1211.8345 1245.2918 1212.1902 1243.3156 L 1207.4868 1243.3156 L 1207.4868 1241.9322 L 1213.8502 1241.9322 Z" fill="#565656"/>
          </g>
          <g id="Graphic_165">
            <path d="M 1219.2256 1241.9717 L 1218.356 1241.9717 C 1217.4074 1241.9717 1216.617 1242.7622 1216.617 1243.7108 L 1216.617 1248.2166 L 1215.0755 1248.2166 L 1215.0755 1240.4698 L 1216.3403 1240.4698 L 1216.3403 1241.1022 C 1216.775 1240.6674 1217.4074 1240.4698 1218.1584 1240.4698 L 1219.8184 1240.4698 Z" fill="#565656"/>
          </g>
          <g id="Graphic_164">
            <path d="M 1227.6838 1248.2166 L 1226.34 1248.2166 L 1226.34 1247.2285 C 1225.3123 1248.2166 1223.7314 1248.6909 1222.1109 1247.9795 C 1220.9251 1247.4656 1220.016 1246.359 1219.7789 1245.0546 C 1219.3046 1242.5646 1221.2413 1240.3512 1223.6918 1240.3512 C 1224.7195 1240.3512 1225.668 1240.786 1226.34 1241.4579 L 1226.34 1240.4698 L 1227.6838 1240.4698 Z M 1226.1028 1244.936 C 1226.4586 1243.3551 1225.2728 1241.9322 1223.7314 1241.9322 C 1222.3875 1241.9322 1221.3204 1243.0389 1221.3204 1244.3432 C 1221.3204 1245.8451 1222.6247 1246.9913 1224.1661 1246.7542 C 1225.0752 1246.5961 1225.8657 1245.8451 1226.1028 1244.936 Z" fill="#565656"/>
          </g>
          <g id="Graphic_163">
            <path d="M 1230.7667 1240.0746 L 1230.7667 1240.5093 L 1233.2172 1240.5093 L 1233.2172 1241.8532 L 1230.7667 1241.8532 L 1230.7667 1248.2166 L 1229.2648 1248.2166 L 1229.2648 1240.1141 C 1229.2648 1238.4145 1230.49 1237.4264 1232.0315 1237.4264 L 1233.8892 1237.4264 L 1233.2568 1238.8888 L 1232.0315 1238.8888 C 1231.32 1238.8493 1230.7667 1239.4026 1230.7667 1240.0746 Z" fill="#565656"/>
          </g>
          <g id="Graphic_162">
            <path d="M 1241.4383 1248.2166 L 1240.134 1248.2166 L 1240.134 1247.2285 C 1239.1064 1248.2166 1237.5254 1248.6909 1235.9049 1247.9795 C 1234.7192 1247.4656 1233.8101 1246.359 1233.573 1245.0546 C 1233.0987 1242.5646 1235.0354 1240.3512 1237.4859 1240.3512 C 1238.5135 1240.3512 1239.4621 1240.786 1240.134 1241.4579 L 1240.134 1240.4698 L 1241.4779 1240.4698 L 1241.4779 1248.2166 Z M 1239.8574 1244.936 C 1240.2131 1243.3551 1239.0273 1241.9322 1237.4859 1241.9322 C 1236.142 1241.9322 1235.0749 1243.0389 1235.0749 1244.3432 C 1235.0749 1245.8451 1236.3792 1246.9913 1237.9207 1246.7542 C 1238.8692 1246.5961 1239.6202 1245.8451 1239.8574 1244.936 Z" fill="#565656"/>
          </g>
          <g id="Graphic_161">
            <path d="M 1249.699 1243.6713 L 1249.699 1248.2166 L 1248.1575 1248.2166 L 1248.1575 1243.6318 C 1248.1575 1242.6832 1247.367 1241.8927 1246.4184 1241.8927 C 1245.4303 1241.8927 1244.6793 1242.6832 1244.6793 1243.6318 L 1244.6793 1248.2166 L 1243.1379 1248.2166 L 1243.1379 1240.4698 L 1244.4027 1240.4698 L 1244.4027 1241.1417 C 1244.956 1240.6279 1245.707 1240.3512 1246.458 1240.3512 C 1248.276 1240.3908 1249.699 1241.8532 1249.699 1243.6713 Z" fill="#565656"/>
          </g>
          <g id="Graphic_160">
            <path d="M 1258.7896 1248.2166 L 1257.4853 1248.2166 L 1257.4853 1247.2285 C 1256.4576 1248.2166 1254.8767 1248.6909 1253.2562 1247.9795 C 1252.0704 1247.4656 1251.1614 1246.359 1250.9242 1245.0546 C 1250.4499 1242.5646 1252.3866 1240.3512 1254.8371 1240.3512 C 1255.8648 1240.3512 1256.8134 1240.786 1257.4853 1241.4579 L 1257.4853 1240.4698 L 1258.8291 1240.4698 L 1258.8291 1248.2166 Z M 1257.2086 1244.936 C 1257.5643 1243.3551 1256.3786 1241.9322 1254.8371 1241.9322 C 1253.4933 1241.9322 1252.4261 1243.0389 1252.4261 1244.3432 C 1252.4261 1245.8451 1253.7304 1246.9913 1255.2719 1246.7542 C 1256.2205 1246.5961 1256.9715 1245.8451 1257.2086 1244.936 Z" fill="#565656"/>
          </g>
        </g>
        <g id="Graphic_158">
          <path d="M 1251.0823 1210.5102 C 1251.0033 1209.7593 1250.8847 1208.8897 1250.6475 1207.9412 C 1250.4104 1206.9926 1250.0151 1205.965 1249.5013 1204.8582 C 1248.948 1203.7911 1248.276 1202.6449 1247.367 1201.5777 C 1247.0113 1201.143 1246.616 1200.7477 1246.2208 1200.3129 C 1246.8532 1197.8229 1245.4698 1195.649 1245.4698 1195.649 C 1243.0588 1195.491 1241.5569 1196.4 1241.0036 1196.7952 C 1240.9245 1196.7557 1240.806 1196.7162 1240.7269 1196.6767 C 1240.3316 1196.5186 1239.8969 1196.3605 1239.4621 1196.2024 C 1239.0273 1196.0838 1238.5926 1195.9257 1238.1578 1195.8467 C 1237.723 1195.7281 1237.2487 1195.649 1236.7744 1195.57 C 1236.6954 1195.57 1236.6163 1195.5305 1236.5373 1195.5305 C 1235.5097 1192.2104 1232.5058 1190.7875 1232.5058 1190.7875 C 1229.0672 1193.0009 1228.3953 1195.9652 1228.3953 1195.9652 C 1228.3953 1195.9652 1228.3953 1196.0443 1228.3557 1196.1233 C 1228.1581 1196.1629 1228 1196.2419 1227.8024 1196.2814 C 1227.5652 1196.3605 1227.2886 1196.4395 1227.0514 1196.5581 C 1226.8143 1196.6767 1226.5376 1196.7557 1226.3005 1196.8743 C 1225.7866 1197.1114 1225.3123 1197.3486 1224.7985 1197.6253 C 1224.3242 1197.902 1223.85 1198.1786 1223.4152 1198.4948 C 1223.3361 1198.4553 1223.2966 1198.4158 1223.2966 1198.4158 C 1218.6722 1196.6371 1214.5617 1198.7715 1214.5617 1198.7715 C 1214.206 1203.712 1216.4193 1206.795 1216.8541 1207.3483 C 1216.7355 1207.6645 1216.6565 1207.9412 1216.5379 1208.2573 C 1216.1822 1209.364 1215.945 1210.5102 1215.787 1211.696 C 1215.7474 1211.8541 1215.7474 1212.0517 1215.7079 1212.2098 C 1211.4392 1214.3046 1210.1745 1218.6523 1210.1745 1218.6523 C 1213.7317 1222.7628 1217.9213 1223 1217.9213 1223 C 1218.4351 1223.9486 1219.0675 1224.8576 1219.7394 1225.6876 C 1220.016 1226.0434 1220.3323 1226.3596 1220.6485 1226.7153 C 1219.3441 1230.4306 1220.8461 1233.553 1220.8461 1233.553 C 1224.838 1233.7111 1227.4467 1231.814 1228 1231.3792 C 1228.3953 1231.4977 1228.7905 1231.6163 1229.1857 1231.7349 C 1230.411 1232.0511 1231.6758 1232.2487 1232.901 1232.2882 C 1233.2172 1232.2882 1233.5334 1232.2882 1233.8496 1232.2882 L 1234.0077 1232.2882 L 1234.1263 1232.2882 L 1234.324 1232.2882 L 1234.5215 1232.2882 C 1236.3792 1234.9759 1239.6993 1235.3316 1239.6993 1235.3316 C 1242.0312 1232.8416 1242.1893 1230.4306 1242.1893 1229.8772 C 1242.1893 1229.8772 1242.1893 1229.8772 1242.1893 1229.8377 C 1242.1893 1229.7982 1242.1893 1229.7587 1242.1893 1229.7587 C 1242.1893 1229.7191 1242.1893 1229.6796 1242.1893 1229.6401 C 1242.6636 1229.2844 1243.1379 1228.9287 1243.6122 1228.5334 C 1244.5608 1227.7034 1245.3513 1226.7153 1246.0627 1225.6876 C 1246.1417 1225.6086 1246.1813 1225.49 1246.2603 1225.411 C 1248.9085 1225.5691 1250.7661 1223.751 1250.7661 1223.751 C 1250.3313 1220.9842 1248.7504 1219.6404 1248.4342 1219.4033 C 1248.4342 1219.4033 1248.4342 1219.4033 1248.3946 1219.3637 L 1248.3551 1219.3242 L 1248.3156 1219.2847 C 1248.3156 1219.1266 1248.3551 1218.9685 1248.3551 1218.7709 C 1248.3946 1218.4547 1248.3946 1218.178 1248.3946 1217.8618 L 1248.3946 1217.6247 L 1248.3946 1217.5061 L 1248.3946 1217.4666 C 1248.3946 1217.3875 1248.3946 1217.427 1248.3946 1217.3875 L 1248.3946 1217.1899 L 1248.3946 1216.9527 C 1248.3946 1216.8737 1248.3946 1216.7946 1248.3946 1216.7156 C 1248.3946 1216.6365 1248.3946 1216.5575 1248.3551 1216.4784 L 1248.3156 1216.2413 L 1248.276 1216.0041 C 1248.2365 1215.688 1248.1575 1215.4113 1248.118 1215.0951 C 1247.8413 1213.9093 1247.367 1212.7631 1246.7741 1211.775 C 1246.1417 1210.7474 1245.3908 1209.8779 1244.5212 1209.0874 C 1243.6517 1208.3364 1242.7031 1207.704 1241.6755 1207.2692 C 1240.6478 1206.795 1239.6202 1206.5183 1238.553 1206.3997 C 1238.0392 1206.3206 1237.4859 1206.3206 1236.972 1206.3206 L 1236.7744 1206.3206 L 1236.7349 1206.3206 L 1236.6559 1206.3206 L 1236.5768 1206.3206 L 1236.3792 1206.3206 C 1236.3002 1206.3206 1236.2211 1206.3206 1236.1816 1206.3206 C 1235.9049 1206.3602 1235.6282 1206.3997 1235.3911 1206.4392 C 1234.324 1206.6368 1233.3358 1207.0321 1232.4663 1207.5459 C 1231.5967 1208.0597 1230.8458 1208.7316 1230.2134 1209.4826 C 1229.581 1210.2336 1229.1067 1211.024 1228.7905 1211.8936 C 1228.4743 1212.7236 1228.2767 1213.6327 1228.2372 1214.4627 C 1228.2372 1214.6603 1228.2372 1214.8975 1228.2372 1215.0951 C 1228.2372 1215.1346 1228.2372 1215.2137 1228.2372 1215.2532 L 1228.2372 1215.4113 C 1228.2372 1215.5299 1228.2372 1215.6089 1228.2767 1215.7275 C 1228.3162 1216.1622 1228.3953 1216.5575 1228.5138 1216.9527 C 1228.751 1217.7432 1229.1067 1218.4547 1229.581 1219.087 C 1230.0553 1219.7194 1230.5691 1220.1937 1231.162 1220.589 C 1231.7548 1220.9842 1232.3477 1221.2609 1232.9801 1221.4585 C 1233.6125 1221.6561 1234.2054 1221.7352 1234.7587 1221.6957 C 1234.8377 1221.6957 1234.9168 1221.6957 1234.9563 1221.6957 C 1234.9958 1221.6957 1235.0354 1221.6957 1235.0749 1221.6957 C 1235.1144 1221.6957 1235.154 1221.6957 1235.1935 1221.6957 C 1235.2725 1221.6957 1235.312 1221.6957 1235.3911 1221.6957 L 1235.4306 1221.6957 L 1235.4701 1221.6957 C 1235.5097 1221.6957 1235.5492 1221.6957 1235.5887 1221.6957 C 1235.6678 1221.6957 1235.7468 1221.6561 1235.7863 1221.6561 C 1235.8654 1221.6561 1235.9049 1221.6166 1235.984 1221.6166 C 1236.1025 1221.5771 1236.2606 1221.5376 1236.3792 1221.498 C 1236.6163 1221.419 1236.8535 1221.3004 1237.0906 1221.2214 C 1237.3278 1221.1028 1237.5254 1220.9842 1237.6835 1220.8657 C 1237.723 1220.8261 1237.8021 1220.7866 1237.8416 1220.7471 C 1238.0392 1220.589 1238.0788 1220.3123 1237.9207 1220.1147 C 1237.7626 1219.9566 1237.5254 1219.917 1237.3278 1219.9961 C 1237.2883 1220.0356 1237.2487 1220.0356 1237.1697 1220.0752 C 1237.0116 1220.1542 1236.814 1220.2333 1236.6559 1220.2728 C 1236.4582 1220.3123 1236.2606 1220.3914 1236.063 1220.4309 C 1235.9444 1220.4309 1235.8654 1220.4704 1235.7468 1220.4704 C 1235.7073 1220.4704 1235.6282 1220.4704 1235.5887 1220.4704 C 1235.5492 1220.4704 1235.4701 1220.4704 1235.4306 1220.4704 C 1235.3911 1220.4704 1235.312 1220.4704 1235.2725 1220.4704 C 1235.1935 1220.4704 1235.154 1220.4704 1235.0749 1220.4704 C 1235.0749 1220.4704 1235.0354 1220.4704 1235.0749 1220.4704 L 1235.0354 1220.4704 L 1234.9958 1220.4704 C 1234.9563 1220.4704 1234.9563 1220.4704 1234.9168 1220.4704 C 1234.8773 1220.4704 1234.7982 1220.4704 1234.7587 1220.4309 C 1234.324 1220.3518 1233.8496 1220.2333 1233.4149 1220.0356 C 1232.9801 1219.838 1232.5453 1219.5614 1232.1896 1219.2056 C 1231.7944 1218.8499 1231.4782 1218.4547 1231.2015 1217.9804 C 1230.9248 1217.5061 1230.7667 1216.9923 1230.6877 1216.4784 C 1230.6481 1216.2018 1230.6086 1215.9251 1230.6481 1215.6484 C 1230.6481 1215.5694 1230.6481 1215.4903 1230.6481 1215.4113 C 1230.6481 1215.4508 1230.6481 1215.4113 1230.6481 1215.4113 L 1230.6481 1215.3718 L 1230.6481 1215.3322 C 1230.6481 1215.2927 1230.6481 1215.2532 1230.6481 1215.2137 C 1230.6481 1215.0556 1230.6877 1214.937 1230.7272 1214.7789 C 1230.9248 1213.5932 1231.5177 1212.447 1232.4268 1211.5774 C 1232.6639 1211.3403 1232.901 1211.1426 1233.1777 1210.9845 C 1233.4544 1210.7869 1233.731 1210.6288 1234.0077 1210.5102 C 1234.2844 1210.3917 1234.6006 1210.2731 1234.9168 1210.194 C 1235.233 1210.115 1235.5492 1210.036 1235.8654 1210.036 C 1236.0235 1210.036 1236.1816 1209.9964 1236.3397 1209.9964 C 1236.3792 1209.9964 1236.4187 1209.9964 1236.4582 1209.9964 L 1236.5768 1209.9964 L 1236.6559 1209.9964 C 1236.6954 1209.9964 1236.6559 1209.9964 1236.6559 1209.9964 L 1236.6954 1209.9964 L 1236.814 1209.9964 C 1237.1697 1210.036 1237.5254 1210.0755 1237.8416 1210.1545 C 1238.5135 1210.3126 1239.1854 1210.5498 1239.8178 1210.9055 C 1241.0826 1211.617 1242.1498 1212.6841 1242.7822 1213.9884 C 1243.0984 1214.6208 1243.3355 1215.3322 1243.4541 1216.0832 C 1243.4936 1216.2808 1243.4936 1216.4389 1243.5331 1216.6365 L 1243.5331 1216.7551 L 1243.5331 1216.8737 C 1243.5331 1216.9132 1243.5331 1216.9527 1243.5331 1216.9923 C 1243.5331 1217.0318 1243.5331 1217.0713 1243.5331 1217.1108 L 1243.5331 1217.2294 L 1243.5331 1217.348 C 1243.5331 1217.427 1243.5331 1217.5851 1243.5331 1217.6642 C 1243.5331 1217.8618 1243.4936 1218.0594 1243.4936 1218.257 C 1243.4541 1218.4547 1243.4541 1218.6523 1243.4146 1218.8499 C 1243.375 1219.0475 1243.3355 1219.2452 1243.296 1219.4428 C 1243.217 1219.838 1243.0588 1220.1937 1242.9403 1220.589 C 1242.6636 1221.34 1242.2683 1222.0514 1241.794 1222.6838 C 1240.8455 1223.9881 1239.5412 1225.0553 1238.0788 1225.7272 C 1237.3278 1226.0434 1236.5768 1226.32 1235.7863 1226.4386 C 1235.3911 1226.5177 1234.9958 1226.5572 1234.6006 1226.5572 L 1234.5215 1226.5572 L 1234.4425 1226.5572 L 1234.324 1226.5572 L 1234.1263 1226.5572 L 1234.0077 1226.5572 C 1234.0473 1226.5572 1234.0077 1226.5572 1234.0077 1226.5572 L 1233.9682 1226.5572 C 1233.7706 1226.5572 1233.5334 1226.5572 1233.3358 1226.5177 C 1232.4663 1226.4386 1231.6363 1226.2805 1230.8062 1226.0434 C 1229.9762 1225.8062 1229.1857 1225.49 1228.4348 1225.0948 C 1226.9328 1224.3043 1225.589 1223.1581 1224.5219 1221.8538 C 1224.008 1221.1819 1223.5337 1220.4704 1223.1385 1219.7194 C 1222.7433 1218.9685 1222.4666 1218.178 1222.2294 1217.3875 C 1221.9923 1216.597 1221.8737 1215.767 1221.8342 1214.937 L 1221.8342 1214.7789 L 1221.8342 1214.7394 L 1221.8342 1214.6998 L 1221.8342 1214.6208 L 1221.8342 1214.5022 L 1221.8342 1214.4627 L 1221.8342 1214.4232 L 1221.8342 1214.3441 L 1221.8342 1214.1465 L 1221.8342 1214.107 L 1221.8342 1214.0279 C 1221.8342 1213.9093 1221.8342 1213.8303 1221.8342 1213.7117 C 1221.8342 1213.3165 1221.8737 1212.8817 1221.9528 1212.447 C 1221.9923 1212.0122 1222.0713 1211.617 1222.1504 1211.1822 C 1222.2294 1210.7474 1222.348 1210.3521 1222.4666 1209.9174 C 1222.7037 1209.0874 1222.9804 1208.2969 1223.3361 1207.5459 C 1224.0476 1206.044 1224.9566 1204.7001 1226.0238 1203.633 C 1226.3005 1203.3563 1226.5771 1203.1192 1226.8933 1202.882 C 1227.0119 1202.7634 1227.2886 1202.5263 1227.6048 1202.3287 C 1227.921 1202.131 1228.2372 1201.9334 1228.5929 1201.7753 C 1228.751 1201.6963 1228.909 1201.6172 1229.1067 1201.5382 C 1229.1857 1201.4987 1229.2648 1201.4591 1229.3834 1201.4196 C 1229.4624 1201.3801 1229.5415 1201.3406 1229.66 1201.301 C 1230.0158 1201.143 1230.3715 1201.0244 1230.7272 1200.9058 C 1230.8062 1200.8663 1230.9248 1200.8663 1231.0039 1200.8267 C 1231.0829 1200.7872 1231.2015 1200.7872 1231.2805 1200.7477 C 1231.4782 1200.7082 1231.6363 1200.6686 1231.8339 1200.5896 C 1231.913 1200.5501 1232.0315 1200.5501 1232.1106 1200.5105 C 1232.1896 1200.5105 1232.3082 1200.471 1232.3872 1200.471 C 1232.4663 1200.471 1232.5848 1200.4315 1232.6639 1200.4315 L 1232.822 1200.392 L 1232.9801 1200.3525 C 1233.0591 1200.3525 1233.1777 1200.3129 1233.2568 1200.3129 C 1233.3753 1200.3129 1233.4544 1200.2734 1233.573 1200.2734 C 1233.652 1200.2734 1233.8101 1200.2339 1233.8892 1200.2339 C 1233.9682 1200.2339 1234.0077 1200.2339 1234.0868 1200.1944 L 1234.2054 1200.1944 L 1234.2844 1200.1944 L 1234.3635 1200.1944 C 1234.482 1200.1944 1234.561 1200.1944 1234.6796 1200.1548 L 1234.8377 1200.1548 C 1234.8377 1200.1548 1234.8773 1200.1548 1234.8377 1200.1548 L 1234.8773 1200.1548 L 1234.9563 1200.1548 C 1235.0354 1200.1548 1235.154 1200.1548 1235.233 1200.1548 C 1235.5887 1200.1548 1235.9444 1200.1548 1236.3002 1200.1548 C 1237.0116 1200.1944 1237.723 1200.2734 1238.395 1200.392 C 1239.7388 1200.6291 1241.0431 1201.0639 1242.1893 1201.6568 C 1243.3355 1202.2101 1244.4027 1202.9215 1245.2722 1203.6725 C 1245.3117 1203.712 1245.3908 1203.7516 1245.4303 1203.8306 C 1245.4698 1203.8701 1245.5489 1203.9097 1245.5884 1203.9887 C 1245.707 1204.0678 1245.786 1204.1863 1245.9046 1204.2654 C 1246.0232 1204.3444 1246.1022 1204.463 1246.2208 1204.542 C 1246.2998 1204.6606 1246.4184 1204.7397 1246.4975 1204.8582 C 1246.8927 1205.2535 1247.2484 1205.6883 1247.5646 1206.0835 C 1248.197 1206.9135 1248.7108 1207.7435 1249.1061 1208.534 C 1249.1456 1208.5735 1249.1456 1208.613 1249.1851 1208.6921 C 1249.2247 1208.7316 1249.2247 1208.7712 1249.2642 1208.8502 C 1249.3037 1208.9293 1249.3432 1209.0478 1249.4223 1209.1269 C 1249.4618 1209.206 1249.5013 1209.3245 1249.5409 1209.4036 C 1249.5804 1209.4826 1249.6199 1209.6012 1249.6594 1209.6802 C 1249.8175 1210.036 1249.9361 1210.3917 1250.0547 1210.7474 C 1250.2523 1211.3007 1250.3709 1211.775 1250.4894 1212.1703 C 1250.529 1212.3284 1250.687 1212.447 1250.8452 1212.447 C 1251.0428 1212.447 1251.1614 1212.2888 1251.1614 1212.0912 C 1251.1218 1211.617 1251.1218 1211.1031 1251.0823 1210.5102 Z" fill="url(#Obj_Gradient_2)"/>
        </g>
      </g>
      <g id="Graphic_168"/>
      <g id="Graphic_169"/>
      <g id="Line_172">
        <line x1="1230.6679" y1="1122.9575" x2="1230.6679" y2="1176.1442" marker-end="url(#FilledArrow_Marker)" stroke="#0a55a8" stroke-linecap="round" stroke-linejoin="round" stroke-width="1"/>
      </g>
      <g id="Line_173">
        <path d="M 1050.9073 1122.9575 L 1050.9073 1138.5009 C 1050.9073 1147.3374 1058.0708 1154.5009 1066.9073 1154.5009 L 1214.6679 1154.5009 C 1223.5045 1154.5009 1230.6679 1161.6643 1230.6679 1170.5009 L 1230.6679 1176.1442" marker-end="url(#FilledArrow_Marker)" stroke="#0a55a8" stroke-linecap="round" stroke-linejoin="round" stroke-width="1"/>
      </g>
      <g id="Line_174">
        <path d="M 1413.548 1122.9575 L 1413.548 1138.5009 C 1413.548 1147.3374 1406.3845 1154.5009 1397.548 1154.5009 L 1246.6679 1154.5009 C 1237.8314 1154.5009 1230.6679 1161.6643 1230.6679 1170.5009 L 1230.6679 1176.1442" marker-end="url(#FilledArrow_Marker)" stroke="#0a55a8" stroke-linecap="round" stroke-linejoin="round" stroke-width="1"/>
      </g>
      <g id="Line_175">
        <path d="M 1230.6679 840.3128 L 1230.6679 869.8489 C 1230.6679 878.6854 1237.8314 885.8489 1246.6679 885.8489 L 1397.548 885.8489 C 1406.3845 885.8489 1413.548 893.0123 1413.548 901.8489 L 1413.548 922.485" marker-end="url(#FilledArrow_Marker)" stroke="#0a55a8" stroke-linecap="round" stroke-linejoin="round" stroke-width="1"/>
      </g>
      <g id="Graphic_176">
        <rect x="1021.6433" y="973.1516" width="58.528" height="28.46411" fill="white"/>
        <text transform="translate(1026.6433 978.1516)" fill="black">
          <tspan font-family="Helvetica Neue" font-size="16" fill="black" x="0" y="15" xml:space="preserve">Metrics</tspan>
        </text>
      </g>
      <g id="Graphic_177">
        <rect x="1173.8778" y="1015.8784" width="53.2" height="28.46411" fill="white"/>
        <text transform="translate(1178.8778 1020.8784)" fill="black">
          <tspan font-family="Helvetica Neue" font-size="16" fill="black" x="3623768e-19" y="15" xml:space="preserve">Traces</tspan>
        </text>
      </g>
      <g id="Graphic_178">
        <rect x="1365.7637" y="1018.0881" width="42.592" height="28.46411" fill="white"/>
        <text transform="translate(1370.7637 1023.0881)" fill="black">
          <tspan font-family="Helvetica Neue" font-size="16" fill="black" x="27711167e-20" y="15" xml:space="preserve">Logs</tspan>
        </text>
      </g>
      <g id="Graphic_179">
        <rect x="882.404" y="1015.6384" width="614.7235" height="1" fill="#e2e2e2"/>
      </g>
      <g id="Graphic_180">
        <text transform="translate(885.764 963.3257)" fill="black">
          <tspan font-family="Helvetica Neue" font-weight="bold" font-size="16" fill="black" x="0" y="16" xml:space="preserve">Agents</tspan>
        </text>
      </g>
    </g>
  </g>
</svg>
