<?xml version="1.0" encoding="UTF-8" standalone="no"?>
<!DOCTYPE svg PUBLIC "-//W3C//DTD SVG 1.1//EN" "http://www.w3.org/Graphics/SVG/1.1/DTD/svg11.dtd">
<svg xmlns:xl="http://www.w3.org/1999/xlink" xmlns:dc="http://purl.org/dc/elements/1.1/" xmlns="http://www.w3.org/2000/svg" version="1.1" viewBox="-266 34 886 510" width="886" height="510">
  <defs>
    <marker orient="auto" overflow="visible" markerUnits="strokeWidth" id="FilledArrow_Marker" stroke-linejoin="miter" stroke-miterlimit="10" viewBox="-1 -3 7 6" markerWidth="7" markerHeight="6" color="black">
      <g>
        <path d="M 4.8 0 L 0 -1.8 L 0 1.8 Z" fill="currentColor" stroke="currentColor" stroke-width="1"/>
      </g>
    </marker>
  </defs>
  <g id="istio" fill="none" fill-opacity="1" stroke-opacity="1" stroke-dasharray="none" stroke="none">
    <title>istio</title>
    <rect fill="white" x="-266" y="34" width="886" height="510"/>
    <g id="istio_Layer_1">
      <title>Layer 1</title>
      <g id="Graphic_21">
        <rect x="-265.75024" y="34.375" width="885" height="509.25" fill="white"/>
      </g>
      <g id="Graphic_19">
        <path d="M 117 67 L 586 67 C 590.4183 67 594 70.58172 594 75 L 594 517 C 594 521.4183 590.4183 525 586 525 L 117 525 C 112.58172 525 109 521.4183 109 517 L 109 75 C 109 70.58172 112.58172 67 117 67 Z" fill="white"/>
        <path d="M 117 67 L 586 67 C 590.4183 67 594 70.58172 594 75 L 594 517 C 594 521.4183 590.4183 525 586 525 L 117 525 C 112.58172 525 109 521.4183 109 517 L 109 75 C 109 70.58172 112.58172 67 117 67 Z" stroke="black" stroke-linecap="round" stroke-linejoin="round" stroke-width="1"/>
        <text transform="translate(114 72)" fill="black">
          <tspan font-family="Helvetica Neue" font-size="20" fill="black" x="189.7" y="20" xml:space="preserve">Istio Mesh</tspan>
        </text>
      </g>
      <g id="Graphic_4">
        <title>pod</title>
        <path d="M 413 132.5 L 557 132.5 C 561.4183 132.5 565 136.08172 565 140.5 L 565 324.5 C 565 328.91828 561.4183 332.5 557 332.5 L 413 332.5 C 408.5817 332.5 405 328.91828 405 324.5 L 405 140.5 C 405 136.08172 408.5817 132.5 413 132.5 Z" fill="white"/>
        <path d="M 413 132.5 L 557 132.5 C 561.4183 132.5 565 136.08172 565 140.5 L 565 324.5 C 565 328.91828 561.4183 332.5 557 332.5 L 413 332.5 C 408.5817 332.5 405 328.91828 405 324.5 L 405 140.5 C 405 136.08172 408.5817 132.5 413 132.5 Z" stroke="black" stroke-linecap="round" stroke-linejoin="round" stroke-width="1"/>
        <text transform="translate(410 137.5)" fill="black">
          <tspan font-family="Helvetica Neue" font-size="16" fill="black" x="60.032" y="16" xml:space="preserve">Pod</tspan>
        </text>
      </g>
      <g id="Graphic_2">
        <title>istio-proxy</title>
        <path d="M 433 259 L 537 259 C 541.4183 259 545 262.58172 545 267 L 545 311 C 545 315.41828 541.4183 319 537 319 L 433 319 C 428.5817 319 425 315.41828 425 311 L 425 267 C 425 262.58172 428.5817 259 433 259 Z" fill="#0a55a8"/>
        <text transform="translate(430 279.26794)" fill="white">
          <tspan font-family="Helvetica Neue" font-size="16" fill="white" x="15.72" y="16" xml:space="preserve">istio-proxy</tspan>
        </text>
      </g>
      <g id="Graphic_3">
        <title>app</title>
        <path d="M 433 176 L 537 176 C 541.4183 176 545 179.58172 545 184 L 545 228 C 545 232.41828 541.4183 236 537 236 L 433 236 C 428.5817 236 425 232.41828 425 228 L 425 184 C 425 179.58172 428.5817 176 433 176 Z" fill="#ccc"/>
        <text transform="translate(430 196.26794)" fill="black">
          <tspan font-family="Helvetica Neue" font-size="16" fill="black" x="2.984" y="16" xml:space="preserve">app-container</tspan>
        </text>
      </g>
      <g id="Graphic_7">
        <title>pod</title>
        <path d="M 170 216.5 L 314 216.5 C 318.41828 216.5 322 220.08172 322 224.5 L 322 324.5 C 322 328.91828 318.41828 332.5 314 332.5 L 170 332.5 C 165.58172 332.5 162 328.91828 162 324.5 L 162 224.5 C 162 220.08172 165.58172 216.5 170 216.5 Z" fill="white"/>
        <path d="M 170 216.5 L 314 216.5 C 318.41828 216.5 322 220.08172 322 224.5 L 322 324.5 C 322 328.91828 318.41828 332.5 314 332.5 L 170 332.5 C 165.58172 332.5 162 328.91828 162 324.5 L 162 224.5 C 162 220.08172 165.58172 216.5 170 216.5 Z" stroke="black" stroke-linecap="round" stroke-linejoin="round" stroke-width="1"/>
        <text transform="translate(167 221.5)" fill="black">
          <tspan font-family="Helvetica Neue" font-size="16" fill="black" x="13.336" y="16" xml:space="preserve">Ingress Gateway</tspan>
        </text>
      </g>
      <g id="Graphic_6">
        <title>istio-proxy</title>
        <path d="M 190 259 L 294 259 C 298.41828 259 302 262.58172 302 267 L 302 311 C 302 315.41828 298.41828 319 294 319 L 190 319 C 185.58172 319 182 315.41828 182 311 L 182 267 C 182 262.58172 185.58172 259 190 259 Z" fill="#0a55a8"/>
        <text transform="translate(187 279.26794)" fill="white">
          <tspan font-family="Helvetica Neue" font-size="16" fill="white" x="15.72" y="16" xml:space="preserve">istio-proxy</tspan>
        </text>
      </g>
      <g id="Graphic_9">
        <title>istio-proxy</title>
        <path d="M 190 448 L 294 448 C 298.41828 448 302 451.5817 302 456 L 302 500 C 302 504.4183 298.41828 508 294 508 L 190 508 C 185.58172 508 182 504.4183 182 500 L 182 456 C 182 451.5817 185.58172 448 190 448 Z" fill="#0a55a8"/>
        <text transform="translate(187 468.26794)" fill="white">
          <tspan font-family="Helvetica Neue" font-size="16" fill="white" x="34.696" y="16" xml:space="preserve">istiod</tspan>
        </text>
      </g>
      <g id="Graphic_11">
        <title>app</title>
        <path d="M -236 259 L -132 259 C -127.58172 259 -124 262.58172 -124 267 L -124 311 C -124 315.41828 -127.58172 319 -132 319 L -236 319 C -240.41828 319 -244 315.41828 -244 311 L -244 267 C -244 262.58172 -240.41828 259 -236 259 Z" fill="#333"/>
        <text transform="translate(-239 279.26794)" fill="white">
          <tspan font-family="Helvetica Neue" font-size="16" fill="white" x="33.664" y="16" xml:space="preserve">Client</tspan>
        </text>
      </g>
      <g id="Graphic_12">
        <title>app</title>
        <path d="M -33 259 L 71 259 C 75.41828 259 79 262.58172 79 267 L 79 311 C 79 315.41828 75.41828 319 71 319 L -33 319 C -37.41828 319 -41 315.41828 -41 311 L -41 267 C -41 262.58172 -37.41828 259 -33 259 Z" fill="#333"/>
        <text transform="translate(-36 279.26794)" fill="white">
          <tspan font-family="Helvetica Neue" font-size="16" fill="white" x="1.344" y="16" xml:space="preserve">Load Balancer</tspan>
        </text>
      </g>
      <g id="Line_13">
        <line x1="-124" y1="289" x2="-53.9" y2="289" marker-end="url(#FilledArrow_Marker)" stroke="black" stroke-linecap="round" stroke-linejoin="round" stroke-width="2"/>
      </g>
      <g id="Line_14">
        <line x1="79" y1="289" x2="169.1" y2="289" marker-end="url(#FilledArrow_Marker)" stroke="black" stroke-linecap="round" stroke-linejoin="round" stroke-width="2"/>
      </g>
      <g id="Line_15">
        <line x1="302" y1="289" x2="412.1" y2="289" marker-end="url(#FilledArrow_Marker)" stroke="black" stroke-linecap="round" stroke-linejoin="round" stroke-width="2"/>
      </g>
      <g id="Line_16">
        <line x1="485" y1="259" x2="485" y2="245.4" marker-end="url(#FilledArrow_Marker)" stroke="black" stroke-linecap="round" stroke-linejoin="round" stroke-width="2"/>
      </g>
      <g id="Line_17">
        <line x1="242" y1="448" x2="242" y2="331.9" marker-end="url(#FilledArrow_Marker)" stroke="black" stroke-linecap="round" stroke-linejoin="round" stroke-dasharray="8.0,8.0" stroke-width="2"/>
      </g>
      <g id="Line_18">
        <line x1="280.57143" y1="448" x2="436.24593" y2="326.91983" marker-end="url(#FilledArrow_Marker)" stroke="black" stroke-linecap="round" stroke-linejoin="round" stroke-dasharray="8.0,8.0" stroke-width="2"/>
      </g>
    </g>
  </g>
</svg>
