<svg xmlns="http://www.w3.org/2000/svg" xmlns:xl="http://www.w3.org/1999/xlink" width="791" height="764" version="1.1" viewBox="-4244 2298 791 764"><defs><marker id="FilledArrow_Marker" stroke-linejoin="miter" stroke-miterlimit="10" color="#000" markerHeight="6" markerUnits="strokeWidth" markerWidth="7" orient="auto" overflow="visible" viewBox="-1 -3 7 6"><g><path fill="currentColor" stroke="currentColor" stroke-width="1" d="M 4.8 0 L 0 -1.8 L 0 1.8 Z"/></g></marker></defs><g id="Canvas_32" fill="none" fill-opacity="1" stroke="none" stroke-dasharray="none" stroke-opacity="1"><title>Canvas 32</title><rect width="791" height="764" x="-4244" y="2298" fill="#fff"/><g id="Canvas_32_Layer_1"><title>Layer 1</title><g id="Graphic_33"><rect width="789.449" height="762.52" x="-4243.044" y="2298.898" fill="#fff"/></g><g id="Graphic_28"><path fill="#f7f9ff" d="M -4206.6973 2809.543 L -3489.9414 2809.543 C -3485.523 2809.543 -3481.9414 2813.1246 -3481.9414 2817.543 L -3481.9414 3034.992 C -3481.9414 3039.4104 -3485.523 3042.992 -3489.9414 3042.992 L -4206.6973 3042.992 C -4211.1156 3042.992 -4214.6973 3039.4104 -4214.6973 3034.992 L -4214.6973 2817.543 C -4214.6973 2813.1246 -4211.1156 2809.543 -4206.6973 2809.543 Z"/><path stroke="gray" stroke-linecap="round" stroke-linejoin="round" stroke-width="1" d="M -4206.6973 2809.543 L -3489.9414 2809.543 C -3485.523 2809.543 -3481.9414 2813.1246 -3481.9414 2817.543 L -3481.9414 3034.992 C -3481.9414 3039.4104 -3485.523 3042.992 -3489.9414 3042.992 L -4206.6973 3042.992 C -4211.1156 3042.992 -4214.6973 3039.4104 -4214.6973 3034.992 L -4214.6973 2817.543 C -4214.6973 2813.1246 -4211.1156 2809.543 -4206.6973 2809.543 Z"/></g><g id="Graphic_23"><rect width="334.488" height="168.661" x="-3840.945" y="2847.102" fill="#fff"/><path stroke="gray" stroke-dasharray="4 4" stroke-linecap="round" stroke-linejoin="round" stroke-width="1" d="M -3840.945 2847.102 L -3506.4567 2847.102 L -3506.4567 3015.7634 L -3840.945 3015.7634 Z"/></g><g id="Graphic_18"><path fill="#f7f9ff" d="M -4206.6973 2345.6693 L -3489.9414 2345.6693 C -3485.523 2345.6693 -3481.9414 2349.251 -3481.9414 2353.6693 L -3481.9414 2699.0866 C -3481.9414 2703.505 -3485.523 2707.0866 -3489.9414 2707.0866 L -4206.6973 2707.0866 C -4211.1156 2707.0866 -4214.6973 2703.505 -4214.6973 2699.0866 L -4214.6973 2353.6693 C -4214.6973 2349.251 -4211.1156 2345.6693 -4206.6973 2345.6693 Z"/><path stroke="gray" stroke-linecap="round" stroke-linejoin="round" stroke-width="1" d="M -4206.6973 2345.6693 L -3489.9414 2345.6693 C -3485.523 2345.6693 -3481.9414 2349.251 -3481.9414 2353.6693 L -3481.9414 2699.0866 C -3481.9414 2703.505 -3485.523 2707.0866 -3489.9414 2707.0866 L -4206.6973 2707.0866 C -4211.1156 2707.0866 -4214.6973 2703.505 -4214.6973 2699.0866 L -4214.6973 2353.6693 C -4214.6973 2349.251 -4211.1156 2345.6693 -4206.6973 2345.6693 Z"/></g><g id="Graphic_11"><rect width="334.488" height="291.969" x="-3840.945" y="2389.606" fill="#fff"/><path stroke="gray" stroke-dasharray="4 4" stroke-linecap="round" stroke-linejoin="round" stroke-width="1" d="M -3840.945 2389.6063 L -3506.4567 2389.6063 L -3506.4567 2681.5748 L -3840.945 2681.5748 Z"/></g><g id="Graphic_2"><path fill="#f15623" d="M -4191.5276 2507.244 L -4065.7953 2507.244 C -4061.377 2507.244 -4057.7953 2510.8258 -4057.7953 2515.244 L -4057.7953 2555.937 C -4057.7953 2560.3553 -4061.377 2563.937 -4065.7953 2563.937 L -4191.5276 2563.937 C -4195.946 2563.937 -4199.5276 2560.3553 -4199.5276 2555.937 L -4199.5276 2515.244 C -4199.5276 2510.8258 -4195.946 2507.244 -4191.5276 2507.244 Z"/><text fill="#fff" transform="translate(-4194.5276 2516.1265)"><tspan x="14.018" y="16" fill="#fff" font-family="Helvetica Neue" font-size="16" font-weight="bold">Control Plane </tspan> <tspan x="31.642" y="35.464" fill="#fff" font-family="Helvetica Neue" font-size="16" font-weight="bold">Operator</tspan></text></g><g id="Graphic_3"><path fill="#f15623" d="M -4191.5276 2862.6925 L -4065.7953 2862.6925 C -4061.377 2862.6925 -4057.7953 2866.2742 -4057.7953 2870.6925 L -4057.7953 2911.3854 C -4057.7953 2915.8037 -4061.377 2919.3854 -4065.7953 2919.3854 L -4191.5276 2919.3854 C -4195.946 2919.3854 -4199.5276 2915.8037 -4199.5276 2911.3854 L -4199.5276 2870.6925 C -4199.5276 2866.2742 -4195.946 2862.6925 -4191.5276 2862.6925 Z"/><text fill="#fff" transform="translate(-4194.5276 2881.307)"><tspan x="12.994" y="16" fill="#fff" font-family="Helvetica Neue" font-size="16" font-weight="bold">Istio Operator</tspan></text></g><g id="Graphic_4"><path fill="#333" d="M -3813.1024 2420.7874 L -3715.7166 2420.7874 C -3711.2983 2420.7874 -3707.7166 2424.3691 -3707.7166 2428.7874 L -3707.7166 2469.4803 C -3707.7166 2473.8986 -3711.2983 2477.4803 -3715.7166 2477.4803 L -3813.1024 2477.4803 C -3817.5207 2477.4803 -3821.1024 2473.8986 -3821.1024 2469.4803 L -3821.1024 2428.7874 C -3821.1024 2424.3691 -3817.5207 2420.7874 -3813.1024 2420.7874 Z"/><text fill="#fff" transform="translate(-3816.1024 2439.4018)"><tspan x="34.805" y="16" fill="#fff" font-family="Helvetica Neue" font-size="16" font-weight="bold">tsbd</tspan></text></g><g id="Graphic_5"><path fill="#333" d="M -3813.1024 2599.37 L -3715.7166 2599.37 C -3711.2983 2599.37 -3707.7166 2602.9518 -3707.7166 2607.37 L -3707.7166 2648.063 C -3707.7166 2652.4813 -3711.2983 2656.063 -3715.7166 2656.063 L -3813.1024 2656.063 C -3817.5207 2656.063 -3821.1024 2652.4813 -3821.1024 2648.063 L -3821.1024 2607.37 C -3821.1024 2602.9518 -3817.5207 2599.37 -3813.1024 2599.37 Z"/><text fill="#fff" transform="translate(-3816.1024 2617.9845)"><tspan x="35.565" y="16" fill="#fff" font-family="Helvetica Neue" font-size="16" font-weight="bold">istio</tspan></text></g><g id="Graphic_6"><path fill="#333" d="M -3813.1024 2508.6614 L -3715.7166 2508.6614 C -3711.2983 2508.6614 -3707.7166 2512.2432 -3707.7166 2516.6614 L -3707.7166 2557.3544 C -3707.7166 2561.7726 -3711.2983 2565.3544 -3715.7166 2565.3544 L -3813.1024 2565.3544 C -3817.5207 2565.3544 -3821.1024 2561.7726 -3821.1024 2557.3544 L -3821.1024 2516.6614 C -3821.1024 2512.2432 -3817.5207 2508.6614 -3813.1024 2508.6614 Z"/><text fill="#fff" transform="translate(-3816.1024 2527.2758)"><tspan x="29.189" y="16" fill="#fff" font-family="Helvetica Neue" font-size="16" font-weight="bold">zipkin</tspan></text></g><g id="Graphic_7"><path fill="#333" d="M -3631.685 2508.6614 L -3534.2992 2508.6614 C -3529.881 2508.6614 -3526.2992 2512.2432 -3526.2992 2516.6614 L -3526.2992 2557.3544 C -3526.2992 2561.7726 -3529.881 2565.3544 -3534.2992 2565.3544 L -3631.685 2565.3544 C -3636.1034 2565.3544 -3639.685 2561.7726 -3639.685 2557.3544 L -3639.685 2516.6614 C -3639.685 2512.2432 -3636.1034 2508.6614 -3631.685 2508.6614 Z"/><text fill="#fff" transform="translate(-3634.685 2527.2758)"><tspan x="37.325" y="16" fill="#fff" font-family="Helvetica Neue" font-size="16" font-weight="bold">oap</tspan></text></g><g id="Graphic_8"><path fill="#333" d="M -3631.685 2420.7874 L -3534.2992 2420.7874 C -3529.881 2420.7874 -3526.2992 2424.3691 -3526.2992 2428.7874 L -3526.2992 2469.4803 C -3526.2992 2473.8986 -3529.881 2477.4803 -3534.2992 2477.4803 L -3631.685 2477.4803 C -3636.1034 2477.4803 -3639.685 2473.8986 -3639.685 2469.4803 L -3639.685 2428.7874 C -3639.685 2424.3691 -3636.1034 2420.7874 -3631.685 2420.7874 Z"/><text fill="#fff" transform="translate(-3634.685 2439.4018)"><tspan x="18.085" y="16" fill="#fff" font-family="Helvetica Neue" font-size="16" font-weight="bold">collector</tspan></text></g><g id="Graphic_9"><path fill="#ffffc0" d="M -4031.37 2389.6063 L -3877.2914 2389.6063 C -3872.873 2389.6063 -3869.2914 2393.188 -3869.2914 2397.6063 L -3869.2914 2446.8032 C -3869.2914 2451.2214 -3872.873 2454.8032 -3877.2914 2454.8032 L -4031.37 2454.8032 C -4035.7884 2454.8032 -4039.37 2451.2214 -4039.37 2446.8032 L -4039.37 2397.6063 C -4039.37 2393.188 -4035.7884 2389.6063 -4031.37 2389.6063 Z"/><path stroke="gray" stroke-linecap="round" stroke-linejoin="round" stroke-width="1" d="M -4031.37 2389.6063 L -3877.2914 2389.6063 C -3872.873 2389.6063 -3869.2914 2393.188 -3869.2914 2397.6063 L -3869.2914 2446.8032 C -3869.2914 2451.2214 -3872.873 2454.8032 -3877.2914 2454.8032 L -4031.37 2454.8032 C -4035.7884 2454.8032 -4039.37 2451.2214 -4039.37 2446.8032 L -4039.37 2397.6063 C -4039.37 2393.188 -4035.7884 2389.6063 -4031.37 2389.6063 Z"/><text fill="#000" transform="translate(-4034.37 2403.7567)"><tspan x="17.071" y="15" fill="#000" font-family="Helvetica Neue" font-size="16">Watch for Control </tspan> <tspan x="11.575" y="33.448" fill="#000" font-family="Helvetica Neue" font-size="16">Plane Components</tspan></text></g><g id="Graphic_10"><path fill="#ffffc0" d="M -4031.37 2616.378 L -3877.2914 2616.378 C -3872.873 2616.378 -3869.2914 2619.9597 -3869.2914 2624.378 L -3869.2914 2673.5748 C -3869.2914 2677.993 -3872.873 2681.5748 -3877.2914 2681.5748 L -4031.37 2681.5748 C -4035.7884 2681.5748 -4039.37 2677.993 -4039.37 2673.5748 L -4039.37 2624.378 C -4039.37 2619.9597 -4035.7884 2616.378 -4031.37 2616.378 Z"/><path stroke="gray" stroke-linecap="round" stroke-linejoin="round" stroke-width="1" d="M -4031.37 2616.378 L -3877.2914 2616.378 C -3872.873 2616.378 -3869.2914 2619.9597 -3869.2914 2624.378 L -3869.2914 2673.5748 C -3869.2914 2677.993 -3872.873 2681.5748 -3877.2914 2681.5748 L -4031.37 2681.5748 C -4035.7884 2681.5748 -4039.37 2677.993 -4039.37 2673.5748 L -4039.37 2624.378 C -4039.37 2619.9597 -4035.7884 2616.378 -4031.37 2616.378 Z"/><text fill="#000" transform="translate(-4034.37 2630.5284)"><tspan x="17.071" y="15" fill="#000" font-family="Helvetica Neue" font-size="16">Watch for Control </tspan> <tspan x="46.559" y="33.448" fill="#000" font-family="Helvetica Neue" font-size="16">Plane CR</tspan></text></g><g id="Line_12"><line x1="-4057.795" x2="-3853.845" y1="2535.591" y2="2535.591" stroke="#000" stroke-linecap="round" stroke-linejoin="round" stroke-width="2" marker-end="url(#FilledArrow_Marker)"/></g><g id="Line_14"><line x1="-4085.079" x2="-4015.265" y1="2507.244" y2="2461.837" stroke="#000" stroke-linecap="round" stroke-linejoin="round" stroke-width="2" marker-end="url(#FilledArrow_Marker)"/></g><g id="Line_15"><line x1="-4085.079" x2="-4015.265" y1="2563.937" y2="2609.345" stroke="#000" stroke-linecap="round" stroke-linejoin="round" stroke-width="2" marker-end="url(#FilledArrow_Marker)"/></g><g id="Graphic_16"><text fill="#000" transform="translate(-3986.312 2512.244)"><tspan x="0" y="15" fill="#000" font-family="Helvetica Neue" font-size="16">Configure</tspan></text></g><g id="Graphic_17"><text fill="#000" transform="translate(-3776.805 2365.1422)"><tspan x="0" y="16" fill="#000" font-family="Helvetica Neue" font-size="16" font-weight="bold">Control Plane Components</tspan></text></g><g id="Graphic_19"><text fill="#000" transform="translate(-3968.7393 2312.7013)"><tspan x="0" y="20" fill="#000" font-family="Helvetica Neue" font-size="20">Control Plane Namespace</tspan></text></g><g id="Graphic_21"><path fill="#333" d="M -3813.1024 2862.6925 L -3715.7166 2862.6925 C -3711.2983 2862.6925 -3707.7166 2866.2742 -3707.7166 2870.6925 L -3707.7166 2911.3854 C -3707.7166 2915.8037 -3711.2983 2919.3854 -3715.7166 2919.3854 L -3813.1024 2919.3854 C -3817.5207 2919.3854 -3821.1024 2915.8037 -3821.1024 2911.3854 L -3821.1024 2870.6925 C -3821.1024 2866.2742 -3817.5207 2862.6925 -3813.1024 2862.6925 Z"/><text fill="#fff" transform="translate(-3816.1024 2881.307)"><tspan x="34.805" y="16" fill="#fff" font-family="Helvetica Neue" font-size="16" font-weight="bold">tsbd</tspan></text></g><g id="Graphic_20"><path fill="#333" d="M -3631.685 2862.6925 L -3534.2992 2862.6925 C -3529.881 2862.6925 -3526.2992 2866.2742 -3526.2992 2870.6925 L -3526.2992 2911.3854 C -3526.2992 2915.8037 -3529.881 2919.3854 -3534.2992 2919.3854 L -3631.685 2919.3854 C -3636.1034 2919.3854 -3639.685 2915.8037 -3639.685 2911.3854 L -3639.685 2870.6925 C -3639.685 2866.2742 -3636.1034 2862.6925 -3631.685 2862.6925 Z"/><text fill="#fff" transform="translate(-3634.685 2881.307)"><tspan x="18.085" y="16" fill="#fff" font-family="Helvetica Neue" font-size="16" font-weight="bold">collector</tspan></text></g><g id="Graphic_22"><path fill="#333" d="M -3813.1024 2947.732 L -3634.929 2947.732 C -3630.511 2947.732 -3626.929 2951.3136 -3626.929 2955.732 L -3626.929 2996.4248 C -3626.929 3000.843 -3630.511 3004.4248 -3634.929 3004.4248 L -3813.1024 3004.4248 C -3817.5207 3004.4248 -3821.1024 3000.843 -3821.1024 2996.4248 L -3821.1024 2955.732 C -3821.1024 2951.3136 -3817.5207 2947.732 -3813.1024 2947.732 Z"/><text fill="#fff" transform="translate(-3816.1024 2956.6142)"><tspan x="48.535" y="16" fill="#fff" font-family="Helvetica Neue" font-size="16" font-weight="bold">vmgateway</tspan> <tspan x="25.879" y="35.464" fill="#fff" font-family="Helvetica Neue" font-size="16" font-weight="bold">(IngressGateway)</tspan></text></g><g id="Graphic_24"><text fill="#000" transform="translate(-3741.381 2822.6378)"><tspan x="0" y="16" fill="#000" font-family="Helvetica Neue" font-size="16" font-weight="bold">Istio Components</tspan></text></g><g id="Graphic_25"><path fill="#ffffc0" d="M -4021.449 2939.228 L -3867.37 2939.228 C -3862.952 2939.228 -3859.37 2942.8096 -3859.37 2947.228 L -3859.37 2996.4248 C -3859.37 3000.843 -3862.952 3004.4248 -3867.37 3004.4248 L -4021.449 3004.4248 C -4025.867 3004.4248 -4029.449 3000.843 -4029.449 2996.4248 L -4029.449 2947.228 C -4029.449 2942.8096 -4025.867 2939.228 -4021.449 2939.228 Z"/><path stroke="gray" stroke-linecap="round" stroke-linejoin="round" stroke-width="1" d="M -4021.449 2939.228 L -3867.37 2939.228 C -3862.952 2939.228 -3859.37 2942.8096 -3859.37 2947.228 L -3859.37 2996.4248 C -3859.37 3000.843 -3862.952 3004.4248 -3867.37 3004.4248 L -4021.449 3004.4248 C -4025.867 3004.4248 -4029.449 3000.843 -4029.449 2996.4248 L -4029.449 2947.228 C -4029.449 2942.8096 -4025.867 2939.228 -4021.449 2939.228 Z"/><text fill="#000" transform="translate(-4024.449 2944.1543)"><tspan x="45.519" y="15" fill="#000" font-family="Helvetica Neue" font-size="16">Watch for </tspan> <tspan x="19.743" y="33.448" fill="#000" font-family="Helvetica Neue" font-size="16">IstioOperator CR</tspan> <tspan x="2.551" y="51.896" fill="#000" font-family="Helvetica Neue" font-size="16">(tsb-istiocontrolplane)</tspan></text></g><g id="Line_26"><line x1="-4057.795" x2="-3834.002" y1="2891.039" y2="2891.039" stroke="#000" stroke-linecap="round" stroke-linejoin="round" stroke-width="2" marker-end="url(#FilledArrow_Marker)"/></g><g id="Line_27"><line x1="-4064.321" x2="-4030.571" y1="2919.25" y2="2934.048" stroke="#000" stroke-linecap="round" stroke-linejoin="round" stroke-width="2" marker-end="url(#FilledArrow_Marker)"/></g><g id="Graphic_29"><text fill="#000" transform="translate(-3979.2255 2867.6925)"><tspan x="0" y="15" fill="#000" font-family="Helvetica Neue" font-size="16">Configure</tspan></text></g><g id="Graphic_31"><text fill="#000" transform="translate(-3996.7193 2779.9627)"><tspan x="0" y="20" fill="#000" font-family="Helvetica Neue" font-size="20">Istio (Control Plane Namespace)</tspan></text></g><g id="Line_32"><path stroke="#000" stroke-linecap="round" stroke-linejoin="round" stroke-width="2" marker-end="url(#FilledArrow_Marker)" d="M -3771.1305 2656.063 C -3783.251 2667.3638 -3807.065 2682.3023 -3852 2701.3333 C -3964.9434 2749.1677 -4163.535 2748.754 -4195.2166 2797.3617"/></g></g></g></svg>