<svg xmlns="http://www.w3.org/2000/svg" xmlns:xl="http://www.w3.org/1999/xlink" width="1101" height="819" viewBox="-3810 2794 1101 819"><defs><linearGradient id="a" x1="0" x2="1" gradientUnits="userSpaceOnUse"><stop offset="0" stop-color="#4387fd"/><stop offset="1" stop-color="#4683ea"/></linearGradient><linearGradient xl:href="#a" id="b" gradientTransform="translate(-3794.173 2830.47)scale(39.68504)"/><linearGradient xl:href="#a" id="c" gradientTransform="translate(-3337.795 2830.47)scale(39.68504)"/><linearGradient xl:href="#a" id="d" gradientTransform="translate(-3794.173 3248.738)scale(39.68504)"/><linearGradient xl:href="#a" id="e" gradientTransform="translate(-3337.795 3248.738)scale(39.68504)"/><marker id="f" stroke-linejoin="miter" stroke-miterlimit="10" color="#000" markerHeight="6" markerUnits="strokeWidth" markerWidth="7" orient="auto" overflow="visible" viewBox="-1 -3 7 6"><path fill="currentColor" stroke="currentColor" d="M4.8 0 0-1.8v3.6Z"/></marker></defs><g fill="none"><path fill="#fff" d="M-3810 2794h1101v819h-1101z"/><path stroke="gray" stroke-linecap="round" stroke-linejoin="round" d="M-2959.37 3231.076h222.52v324.409h-222.52z"/><path fill="#ccc" d="M-3776.252 2829.815h291.559a8 8 0 0 1 8 8v291.559a8 8 0 0 1-8 8h-291.559a8 8 0 0 1-8-8v-291.559a8 8 0 0 1 8-8"/><text fill="#000" transform="translate(-3779.252 2834.815)"><tspan x="57.932" y="16" font-family="Helvetica Neue" font-size="16">gke-jimmy-us-central1-1</tspan></text><path fill="#ccc" d="M-3319.165 2829.815h291.559a8 8 0 0 1 8 8v291.559a8 8 0 0 1-8 8h-291.56a8 8 0 0 1-8-8v-291.559a8 8 0 0 1 8-8"/><text fill="#000" transform="translate(-3322.165 2834.815)"><tspan x="65.788" y="16" font-family="Helvetica Neue" font-size="16">gke-jimmy-us-west1-1</tspan></text><path fill="#ccc" d="M-3319.165 3243.673h291.559a8 8 0 0 1 8 8v291.56a8 8 0 0 1-8 8h-291.56a8 8 0 0 1-8-8v-291.56a8 8 0 0 1 8-8"/><text fill="#000" transform="translate(-3322.165 3248.673)"><tspan x="65.788" y="16" font-family="Helvetica Neue" font-size="16">gke-jimmy-us-west1-2</tspan></text><path fill="#ccc" d="M-3776.252 3243.673h291.559a8 8 0 0 1 8 8v291.56a8 8 0 0 1-8 8h-291.559a8 8 0 0 1-8-8v-291.56a8 8 0 0 1 8-8"/><text fill="#000" transform="translate(-3779.252 3248.673)"><tspan x="65.788" y="16" font-family="Helvetica Neue" font-size="16">gke-jimmy-us-west2-3</tspan></text><path fill="#ececec" d="M-3761.191 2872.873h261.437a8 8 0 0 1 8 8v236.199a8 8 0 0 1-8 8h-261.437a8 8 0 0 1-8-8v-236.199a8 8 0 0 1 8-8"/><path stroke="#f15623" stroke-dasharray="8 8" stroke-linecap="round" stroke-linejoin="round" stroke-width="2" d="M-3761.191 2872.873h261.437a8 8 0 0 1 8 8v236.199a8 8 0 0 1-8 8h-261.437a8 8 0 0 1-8-8v-236.199a8 8 0 0 1 8-8"/><text fill="#f15623" transform="translate(-3764.191 2877.873)"><tspan x="95.338" y="13" font-family="Helvetica Neue" font-size="14">Tenant: tier1</tspan> <tspan x="81.093" y="29.392" font-family="Helvetica Neue" font-size="14">Workspace: tier1</tspan> <tspan x="89.78" y="45.784" font-family="Helvetica Neue" font-size="14">Network: tier1</tspan></text><path fill="#fff" d="M-3743.672 2929.028h226.399a8 8 0 0 1 8 8v164a8 8 0 0 1-8 8h-226.399a8 8 0 0 1-8-8v-164a8 8 0 0 1 8-8"/><path stroke="gray" stroke-linecap="round" stroke-linejoin="round" d="M-3743.672 2929.028h226.399a8 8 0 0 1 8 8v164a8 8 0 0 1-8 8h-226.399a8 8 0 0 1-8-8v-164a8 8 0 0 1 8-8"/><text fill="#000" transform="translate(-3746.672 2939.028)"><tspan x="53.223" y="15" font-family="Helvetica Neue" font-size="16">Namespace: tier1</tspan></text><path fill="#ececec" d="M-3304.104 2872.873h261.437a8 8 0 0 1 8 8v236.199a8 8 0 0 1-8 8h-261.437a8 8 0 0 1-8-8v-236.199a8 8 0 0 1 8-8"/><path stroke="#f15623" stroke-dasharray="8 8" stroke-linecap="round" stroke-linejoin="round" stroke-width="2" d="M-3304.104 2872.873h261.437a8 8 0 0 1 8 8v236.199a8 8 0 0 1-8 8h-261.437a8 8 0 0 1-8-8v-236.199a8 8 0 0 1 8-8"/><text fill="#f15623" transform="translate(-3307.104 2877.873)"><tspan x="81.842" y="13" font-family="Helvetica Neue" font-size="14">Tenant: payment</tspan> <tspan x="61.255" y="29.392" font-family="Helvetica Neue" font-size="14">Workspace: httpbin-ws</tspan> <tspan x="65.658" y="45.784" font-family="Helvetica Neue" font-size="14">Network: cp-cluster-1</tspan></text><path fill="#fff" d="M-3286.585 2929.028h226.399a8 8 0 0 1 8 8v164a8 8 0 0 1-8 8h-226.4a8 8 0 0 1-8-8v-164a8 8 0 0 1 8-8"/><path stroke="gray" stroke-linecap="round" stroke-linejoin="round" d="M-3286.585 2929.028h226.399a8 8 0 0 1 8 8v164a8 8 0 0 1-8 8h-226.4a8 8 0 0 1-8-8v-164a8 8 0 0 1 8-8"/><text fill="#000" transform="translate(-3289.585 2939.028)"><tspan x="43.727" y="15" font-family="Helvetica Neue" font-size="16">Namespace: httpbin</tspan></text><path fill="#ececec" d="M-3304.104 3286.732h261.437a8 8 0 0 1 8 8v236.198a8 8 0 0 1-8 8h-261.437a8 8 0 0 1-8-8v-236.198a8 8 0 0 1 8-8"/><path stroke="#f15623" stroke-dasharray="8 8" stroke-linecap="round" stroke-linejoin="round" stroke-width="2" d="M-3304.104 3286.732h261.437a8 8 0 0 1 8 8v236.198a8 8 0 0 1-8 8h-261.437a8 8 0 0 1-8-8v-236.198a8 8 0 0 1 8-8"/><text fill="#f15623" transform="translate(-3307.104 3291.731)"><tspan x="81.842" y="13" font-family="Helvetica Neue" font-size="14">Tenant: payment</tspan> <tspan x="61.255" y="29.392" font-family="Helvetica Neue" font-size="14">Workspace: httpbin-ws</tspan> <tspan x="65.658" y="45.784" font-family="Helvetica Neue" font-size="14">Network: cp-cluster-2</tspan></text><path fill="#fff" d="M-3286.585 3342.886h226.399a8 8 0 0 1 8 8v164a8 8 0 0 1-8 8h-226.4a8 8 0 0 1-8-8v-164a8 8 0 0 1 8-8"/><path stroke="gray" stroke-linecap="round" stroke-linejoin="round" d="M-3286.585 3342.886h226.399a8 8 0 0 1 8 8v164a8 8 0 0 1-8 8h-226.4a8 8 0 0 1-8-8v-164a8 8 0 0 1 8-8"/><text fill="#000" transform="translate(-3289.585 3352.886)"><tspan x="43.727" y="15" font-family="Helvetica Neue" font-size="16">Namespace: httpbin</tspan></text><path fill="#ececec" d="M-3761.191 3286.732h261.437a8 8 0 0 1 8 8v236.198a8 8 0 0 1-8 8h-261.437a8 8 0 0 1-8-8v-236.198a8 8 0 0 1 8-8"/><path stroke="#f15623" stroke-dasharray="8 8" stroke-linecap="round" stroke-linejoin="round" stroke-width="2" d="M-3761.191 3286.732h261.437a8 8 0 0 1 8 8v236.198a8 8 0 0 1-8 8h-261.437a8 8 0 0 1-8-8v-236.198a8 8 0 0 1 8-8"/><text fill="#f15623" transform="translate(-3764.191 3291.731)"><tspan x="77.957" y="13" font-family="Helvetica Neue" font-size="14">Tenant: marketing</tspan> <tspan x="57.755" y="29.392" font-family="Helvetica Neue" font-size="14">Workspace: httpsbin-ws</tspan> <tspan x="65.658" y="45.784" font-family="Helvetica Neue" font-size="14">Network: cp-cluster-3</tspan></text><path fill="#fff" d="M-3743.672 3342.886h226.399a8 8 0 0 1 8 8v164a8 8 0 0 1-8 8h-226.399a8 8 0 0 1-8-8v-164a8 8 0 0 1 8-8"/><path stroke="gray" stroke-linecap="round" stroke-linejoin="round" d="M-3743.672 3342.886h226.399a8 8 0 0 1 8 8v164a8 8 0 0 1-8 8h-226.399a8 8 0 0 1-8-8v-164a8 8 0 0 1 8-8"/><text fill="#000" transform="translate(-3746.672 3352.886)"><tspan x="37.655" y="15" font-family="Helvetica Neue" font-size="16">Namespace: some-ns</tspan></text><path fill="#0a55a8" d="M-3240.504 2983.465h134.236a8 8 0 0 1 8 8v23.685a8 8 0 0 1-8 8h-134.236a8 8 0 0 1-8-8v-23.685a8 8 0 0 1 8-8"/><text fill="#fff" transform="translate(-3243.504 2994.604)"><tspan x="4.514" y="14" font-family="Helvetica Neue" font-size="14">httpbin-external-svc</tspan></text><path fill="#fff" d="M-3712.827 3388.281h164.709a8 8 0 0 1 8 8v101.638a8 8 0 0 1-8 8h-164.709a8 8 0 0 1-8-8v-101.638a8 8 0 0 1 8-8"/><path stroke="gray" stroke-dasharray="4 4" stroke-linecap="round" stroke-linejoin="round" d="M-3712.827 3388.281h164.709a8 8 0 0 1 8 8v101.638a8 8 0 0 1-8 8h-164.709a8 8 0 0 1-8-8v-101.638a8 8 0 0 1 8-8"/><text fill="#000" transform="translate(-3715.827 3393.281)"><tspan x="47.714" y="16" font-family="Helvetica Neue" font-size="16">some-app</tspan></text><path fill="#333" d="M-3667.308 3427.258h73.671a8 8 0 0 1 8 8v23.685a8 8 0 0 1-8 8h-73.671a8 8 0 0 1-8-8v-23.685a8 8 0 0 1 8-8"/><text fill="#fff" transform="translate(-3670.308 3437.368)"><tspan x="3.667" y="16" font-family="Helvetica Neue" font-size="16">some-svc</tspan></text><path fill="#f15623" d="M-3115.45 3460.524h31.685a4 4 0 0 1 4 4v31.685a4 4 0 0 1-4 4h-31.685a4 4 0 0 1-4-4v-31.685a4 4 0 0 1 4-4"/><path fill="#333" d="M-3102.52 3495.355c-2.373-2.382-2.722-2.76-2.763-2.987-.14-.789.523-1.422 1.332-1.27.22.041.483.27 1.702 1.48l1.442 1.432v-16.6l-4.1 4.1-4.1 4.1 1.964.034c1.923.034 1.968.039 2.232.202.283.176.527.598.527.91s-.244.734-.527.91l-.269.167h-7.644v-3.869c0-3.799.003-3.872.144-4.06.27-.362.495-.479.921-.479.297 0 .448.039.612.155.423.302.443.42.443 2.6v1.97l4.899-4.899 4.898-4.898v-5.113l-.295-.127c-.572-.247-1.22-.827-1.562-1.396-.462-.771-.573-1.93-.268-2.795.69-1.954 2.98-2.85 4.795-1.876.462.248 1.17.958 1.392 1.398.854 1.685.23 3.686-1.42 4.553l-.487.256v5.1l5.003 5.003 5.003 5.002v-2.075c0-1.984.006-2.086.147-2.336.293-.521.991-.712 1.456-.399.13.087.306.264.394.394l.158.235-.018 3.828-.018 3.828-3.578.02c-1.969.012-3.714.001-3.88-.022a1.04 1.04 0 0 1-.572-.288c-.603-.545-.484-1.276.3-1.841.01-.007.87-.03 1.911-.053l1.894-.04-4.1-4.099-4.1-4.1v16.537l1.372-1.369c.755-.752 1.46-1.4 1.568-1.44a1.09 1.09 0 0 1 1.281.413c.192.282.214.854.043 1.114-.123.185-5.316 5.418-5.378 5.418-.02 0-1.26-1.228-2.754-2.728"/><path fill="url(#b)" d="m-3785.557 2846.35-8.139-14.097a3.57 3.57 0 0 1 0-3.566l8.139-14.097a3.57 3.57 0 0 1 3.088-1.783h16.277c1.273 0 2.45.68 3.088 1.783l8.138 14.097a3.57 3.57 0 0 1 0 3.566l-8.138 14.097a3.57 3.57 0 0 1-3.088 1.783h-16.277a3.57 3.57 0 0 1-3.088-1.783"/><path fill="#fff" d="m-3766.57 2825.507-7.341-4.238a.84.84 0 0 0-.837 0l-7.34 4.238a.84.84 0 0 0-.418.725v8.476c0 .299.159.575.418.724l7.34 4.239a.84.84 0 0 0 .837 0l7.34-4.239a.84.84 0 0 0 .419-.724v-8.476a.84.84 0 0 0-.418-.725m-1.007 8.39-2.561-1.479v-3.895l-3.782 2.183v4.368l3.373-1.947 2.56 1.479-6.342 3.662-6.344-3.662 2.561-1.479 3.374 1.947v-4.368l-3.782-2.183v3.895l-2.561 1.479v-7.325l6.343-3.662v2.957l-3.373 1.948 3.782 2.182 3.781-2.182-3.373-1.948v-2.957l6.344 3.662z"/><path fill="url(#c)" d="m-3329.179 2846.35-8.139-14.097a3.57 3.57 0 0 1 0-3.566l8.139-14.097a3.57 3.57 0 0 1 3.088-1.783h16.277c1.273 0 2.45.68 3.087 1.783l8.139 14.097a3.57 3.57 0 0 1 0 3.566l-8.139 14.097a3.57 3.57 0 0 1-3.087 1.783h-16.277a3.57 3.57 0 0 1-3.088-1.783"/><path fill="#fff" d="m-3310.192 2825.507-7.341-4.238a.84.84 0 0 0-.837 0l-7.34 4.238a.84.84 0 0 0-.419.725v8.476c0 .299.16.575.419.724l7.34 4.239a.84.84 0 0 0 .837 0l7.34-4.239a.84.84 0 0 0 .419-.724v-8.476a.84.84 0 0 0-.418-.725m-1.008 8.39-2.56-1.479v-3.895l-3.782 2.183v4.368l3.373-1.947 2.56 1.479-6.343 3.662-6.343-3.662 2.561-1.479 3.374 1.947v-4.368l-3.782-2.183v3.895l-2.561 1.479v-7.325l6.343-3.662v2.957l-3.373 1.948 3.782 2.182 3.781-2.182-3.373-1.948v-2.957l6.343 3.662z"/><path fill="url(#d)" d="m-3785.557 3264.619-8.139-14.098a3.57 3.57 0 0 1 0-3.565l8.139-14.098a3.57 3.57 0 0 1 3.088-1.782h16.277c1.273 0 2.45.68 3.088 1.782l8.138 14.098a3.56 3.56 0 0 1 0 3.565l-8.138 14.098a3.56 3.56 0 0 1-3.088 1.782h-16.277a3.57 3.57 0 0 1-3.088-1.782"/><path fill="#fff" d="m-3766.57 3243.776-7.341-4.239a.84.84 0 0 0-.837 0l-7.34 4.239a.84.84 0 0 0-.418.724v8.476c0 .3.159.575.418.725l7.34 4.238c.259.15.578.15.837 0l7.34-4.238a.84.84 0 0 0 .419-.725v-8.476a.84.84 0 0 0-.418-.724m-1.007 8.39-2.561-1.48v-3.894l-3.782 2.182v4.369l3.373-1.947 2.56 1.478-6.342 3.662-6.344-3.662 2.561-1.478 3.374 1.947v-4.369l-3.782-2.182v3.895l-2.561 1.478v-7.324l6.343-3.662v2.957l-3.373 1.947 3.782 2.183 3.781-2.183-3.373-1.947v-2.957l6.344 3.662z"/><path fill="url(#e)" d="m-3329.179 3264.619-8.139-14.098a3.57 3.57 0 0 1 0-3.565l8.139-14.098a3.57 3.57 0 0 1 3.088-1.782h16.277c1.273 0 2.45.68 3.087 1.782l8.139 14.098a3.56 3.56 0 0 1 0 3.565l-8.139 14.098a3.56 3.56 0 0 1-3.087 1.782h-16.277a3.57 3.57 0 0 1-3.088-1.782"/><path fill="#fff" d="m-3310.192 3243.776-7.341-4.239a.84.84 0 0 0-.837 0l-7.34 4.239a.84.84 0 0 0-.419.724v8.476c0 .3.16.575.419.725l7.34 4.238c.259.15.578.15.837 0l7.34-4.238a.84.84 0 0 0 .419-.725v-8.476a.84.84 0 0 0-.418-.724m-1.008 8.39-2.56-1.48v-3.894l-3.782 2.182v4.369l3.373-1.947 2.56 1.478-6.343 3.662-6.343-3.662 2.561-1.478 3.374 1.947v-4.369l-3.782-2.182v3.895l-2.561 1.478v-7.324l6.343-3.662v2.957l-3.373 1.947 3.782 2.183 3.781-2.183-3.373-1.947v-2.957l6.343 3.662zm365.216 180.487h49.182a8 8 0 0 1 8 8v7.047a8 8 0 0 1-8 8h-49.182a8 8 0 0 1-8-8v-7.047a8 8 0 0 1 8-8"/><path stroke="gray" stroke-dasharray="4 4" stroke-linecap="round" stroke-linejoin="round" d="M-2945.984 3432.653h49.182a8 8 0 0 1 8 8v7.047a8 8 0 0 1-8 8h-49.182a8 8 0 0 1-8-8v-7.047a8 8 0 0 1 8-8"/><text fill="#000" transform="translate(-2877.486 3433.919)"><tspan x="0" y="15" font-family="Helvetica Neue" font-size="16">Application</tspan></text><path fill="#ececec" d="M-2945.984 3369.887h49.182a8 8 0 0 1 8 8v7.047a8 8 0 0 1-8 8h-49.182a8 8 0 0 1-8-8v-7.047a8 8 0 0 1 8-8"/><path stroke="#f15623" stroke-dasharray="8 8" stroke-linecap="round" stroke-linejoin="round" stroke-width="2" d="M-2945.984 3369.887h49.182a8 8 0 0 1 8 8v7.047a8 8 0 0 1-8 8h-49.182a8 8 0 0 1-8-8v-7.047a8 8 0 0 1 8-8"/><text fill="#000" transform="translate(-2877.486 3371.959)"><tspan x="0" y="15" font-family="Helvetica Neue" font-size="16">TSB Configuration</tspan></text><path fill="#fff" d="M-2945.984 3401.76h49.182a8 8 0 0 1 8 8v7.047a8 8 0 0 1-8 8h-49.182a8 8 0 0 1-8-8v-7.047a8 8 0 0 1 8-8"/><path stroke="gray" stroke-linecap="round" stroke-linejoin="round" d="M-2945.984 3401.76h49.182a8 8 0 0 1 8 8v7.047a8 8 0 0 1-8 8h-49.182a8 8 0 0 1-8-8v-7.047a8 8 0 0 1 8-8"/><text fill="#000" transform="translate(-2877.486 3402.939)"><tspan x="0" y="15" font-family="Helvetica Neue" font-size="16">Namespace</tspan></text><text fill="#000" transform="translate(-2877.486 3526.118)"><tspan x="0" y="15" font-family="Helvetica Neue" font-size="16">Traffic Route</tspan></text><path stroke="#000" stroke-linecap="round" stroke-linejoin="round" stroke-width="2" marker-end="url(#f)" d="m-2954.245 3535.052 52.803-.173"/><path fill="#0a55a8" d="M-2945.984 3463.546h49.182a8 8 0 0 1 8 8v6.556a8 8 0 0 1-8 8h-49.182a8 8 0 0 1-8-8v-6.556a8 8 0 0 1 8-8"/><text fill="#000" transform="translate(-2877.486 3465.6)"><tspan x="0" y="15" font-family="Helvetica Neue" font-size="16">ServiceEntry</tspan></text><path fill="#ccc" d="M-2945.984 3338.013h49.182a8 8 0 0 1 8 8v7.047a8 8 0 0 1-8 8h-49.182a8 8 0 0 1-8-8v-7.047a8 8 0 0 1 8-8"/><text fill="#000" transform="translate(-2877.486 3341.309)"><tspan x="0" y="15" font-family="Helvetica Neue" font-size="16">Cluster</tspan></text><text fill="#000" transform="translate(-2949.245 3243.276)"><tspan x="0" y="16" font-family="Helvetica Neue" font-size="16" font-weight="bold">Legend</tspan></text><path fill="#f15623" d="M-2928.671 3271.666h14.556a4 4 0 0 1 4 4v14.556a4 4 0 0 1-4 4h-14.557a4 4 0 0 1-4-4v-14.556a4 4 0 0 1 4-4"/><path fill="#333" d="M-2923.049 3291.464c-1.348-1.354-1.547-1.57-1.57-1.698-.08-.449.297-.809.757-.722.125.023.274.153.967.841l.82.814v-9.435l-2.33 2.33-2.331 2.33 1.116.02c1.093.02 1.12.022 1.269.115.16.1.3.34.3.517s-.14.417-.3.517l-.153.095h-4.344v-2.199c0-2.16.001-2.201.081-2.308.153-.205.282-.272.524-.272.168 0 .255.022.347.088.24.172.252.239.252 1.478v1.12l2.785-2.785 2.784-2.784v-2.906l-.168-.072c-.325-.141-.693-.47-.888-.794-.262-.438-.325-1.097-.152-1.589.392-1.11 1.694-1.62 2.725-1.066.263.141.665.545.792.795.485.958.13 2.095-.808 2.588l-.276.145v2.899l2.843 2.844 2.844 2.843v-1.18c0-1.127.004-1.185.084-1.327.166-.297.563-.405.828-.227.073.05.173.15.223.224l.09.133-.01 2.176-.01 2.176-2.034.012c-1.119.006-2.111 0-2.205-.013a.6.6 0 0 1-.326-.164c-.343-.31-.275-.725.17-1.046.006-.004.495-.018 1.087-.03l1.077-.023-2.331-2.33-2.33-2.33v9.399l.78-.778c.429-.428.83-.796.891-.819a.62.62 0 0 1 .728.235c.11.16.122.486.024.633-.07.106-3.021 3.08-3.056 3.08-.012 0-.716-.698-1.566-1.55"/><text fill="#000" transform="translate(-2877.486 3273.72)"><tspan x="0" y="15" font-family="Helvetica Neue" font-size="16">Egress Gateway</tspan></text><path fill="#f15623" d="M-2945.984 3303.544h49.182a8 8 0 0 1 8 8v9.147a8 8 0 0 1-8 8h-49.182a8 8 0 0 1-8-8v-9.147a8 8 0 0 1 8-8"/><text fill="#000" transform="translate(-2877.486 3306.894)"><tspan x="0" y="15" font-family="Helvetica Neue" font-size="16">TSB Component</tspan></text><path fill="#333" d="M-2962.29 3018.598h81.794a8 8 0 0 1 8 8v23.685a8 8 0 0 1-8 8h-81.795a8 8 0 0 1-8-8v-23.685a8 8 0 0 1 8-8"/><text fill="#fff" transform="translate(-2965.29 3029.738)"><tspan x="8.247" y="14" font-family="Helvetica Neue" font-size="14">httpbin.org</tspan></text><path fill="#0a55a8" d="M-3240.504 3388.281h134.236a8 8 0 0 1 8 8v23.685a8 8 0 0 1-8 8h-134.236a8 8 0 0 1-8-8v-23.685a8 8 0 0 1 8-8"/><text fill="#fff" transform="translate(-3243.504 3399.42)"><tspan x="4.514" y="14" font-family="Helvetica Neue" font-size="14">httpbin-external-svc</tspan></text><path stroke="#000" stroke-linecap="round" stroke-linejoin="round" stroke-width="2" marker-end="url(#f)" d="M-3105.705 3085.512c-9.468 33.505-24.339 99.622-1.165 119.831 31.487 27.46 65.858 4.537 118.405-42.748 30.745-27.666 48.474-65.461 57.893-92.06"/><text fill="#000" transform="translate(-2983.465 2994.134)"><tspan x="0" y="16" font-family="Helvetica Neue" font-size="16" font-weight="bold">External Service</tspan></text><path fill="#333" d="M-2945.984 3495.957h49.182a8 8 0 0 1 8 8v6.556a8 8 0 0 1-8 8h-49.182a8 8 0 0 1-8-8v-6.556a8 8 0 0 1 8-8"/><text fill="#000" transform="translate(-2877.486 3498.011)"><tspan x="0" y="15" font-family="Helvetica Neue" font-size="16">Service</tspan></text><path stroke="#000" stroke-linecap="round" stroke-linejoin="round" stroke-width="2" marker-end="url(#f)" d="M-3080.438 3462.303c13.71-17.424 34.395-51.326 60.832-116.883 37.446-92.858 73.372-216.84 89.434-274.698"/><path fill="#fff" d="M-3039.86 3145.854h167.504v28.448h-167.504z"/><text fill="#000" transform="translate(-3034.86 3150.854)"><tspan x="0" y="15" font-family="Helvetica Neue" font-size="16" font-style="italic">https://httpbin.org/get</tspan></text><path fill="#f15623" d="M-3115.45 3045.827h31.685a4 4 0 0 1 4 4v31.685a4 4 0 0 1-4 4h-31.685a4 4 0 0 1-4-4v-31.685a4 4 0 0 1 4-4"/><path fill="#333" d="M-3102.52 3080.659c-2.373-2.383-2.722-2.76-2.763-2.988-.14-.788.523-1.422 1.332-1.27.22.041.483.27 1.702 1.48l1.442 1.433v-16.6l-4.1 4.1-4.1 4.099 1.964.035c1.923.034 1.968.038 2.232.201.283.176.527.598.527.91s-.244.734-.527.91l-.269.167h-7.644v-3.869c0-3.799.003-3.872.144-4.06.27-.361.495-.479.921-.479.297 0 .448.039.612.155.423.302.443.42.443 2.6v1.97l4.899-4.898 4.898-4.899v-5.112l-.295-.128c-.572-.247-1.22-.827-1.562-1.396-.462-.771-.573-1.93-.268-2.795.69-1.954 2.98-2.85 4.795-1.876.462.248 1.17.958 1.392 1.399.854 1.684.23 3.685-1.42 4.552l-.487.256v5.1l5.003 5.003 5.003 5.003v-2.075c0-1.985.006-2.087.147-2.337.293-.521.991-.712 1.456-.398.13.087.306.264.394.393l.158.235-.018 3.828-.018 3.828-3.578.02c-1.969.012-3.714.002-3.88-.022a1.04 1.04 0 0 1-.572-.288c-.603-.545-.484-1.276.3-1.841.01-.007.87-.03 1.911-.053l1.894-.04-4.1-4.099-4.1-4.1v16.537l1.372-1.368c.755-.753 1.46-1.401 1.568-1.442a1.09 1.09 0 0 1 1.281.414c.192.282.214.854.043 1.114-.123.185-5.316 5.418-5.378 5.418-.02 0-1.26-1.227-2.754-2.727"/><path stroke="#000" stroke-linecap="round" stroke-linejoin="round" stroke-width="2" marker-end="url(#f)" d="M-3585.637 3442.285c43.251-2.631 108.995-1.15 156.63 24.658 77.045 41.743-22.832 123.698 70.488 127.501 68.505 2.792 175.954-59.988 228.256-93.575"/><path stroke="#000" stroke-linecap="round" stroke-linejoin="round" stroke-width="2" marker-end="url(#f)" d="M-3585.637 3442.352c58.776-8.745 159.684-33.008 204.755-98.794 65.618-95.778-97.66-155.803-17.973-234.53 60.658-59.928 202.366-53.744 266.584-47.374"/><path fill="#fff" d="M-3527.717 3163.85h199.68v28.448h-199.68z"/><text fill="#000" transform="translate(-3522.717 3168.85)"><tspan x="0" y="15" font-family="Helvetica Neue" font-size="16" font-style="italic">http://httpbin.tetrate.io/get</tspan></text><path fill="#fff" d="M-3497.79 3554.646h199.68v28.448h-199.68z"/><text fill="#000" transform="translate(-3492.79 3559.646)"><tspan x="0" y="15" font-family="Helvetica Neue" font-size="16" font-style="italic">http://httpbin.tetrate.io/get</tspan></text></g></svg>