<svg xmlns="http://www.w3.org/2000/svg" xmlns:xl="http://www.w3.org/1999/xlink" width="1316" height="788" viewBox="-3687 2661 1316 788"><defs><linearGradient id="a" x1="0" x2="1" gradientUnits="userSpaceOnUse"><stop offset="0" stop-color="#4387fd"/><stop offset="1" stop-color="#4683ea"/></linearGradient><linearGradient xl:href="#a" id="d" gradientTransform="translate(-3660.945 2706.324)scale(39.68504)"/><linearGradient xl:href="#a" id="e" gradientTransform="translate(-3204.567 2706.324)scale(39.68504)"/><linearGradient xl:href="#a" id="f" gradientTransform="translate(-3656.693 3118.84)scale(39.68504)"/><linearGradient xl:href="#a" id="g" gradientTransform="translate(-3200.315 3118.84)scale(39.68504)"/><marker id="b" stroke-linejoin="miter" stroke-miterlimit="10" color="#000" markerHeight="6" markerUnits="strokeWidth" markerWidth="7" orient="auto" overflow="visible" viewBox="-1 -3 7 6"><path fill="currentColor" stroke="currentColor" d="M4.8 0 0-1.8v3.6Z"/></marker><marker id="c" stroke-linejoin="miter" stroke-miterlimit="10" color="#000" markerHeight="6" markerUnits="strokeWidth" markerWidth="7" orient="auto" overflow="visible" viewBox="-6 -3 7 6"><path fill="currentColor" stroke="currentColor" d="M-4.8 0 0 1.8v-3.6Z"/></marker></defs><g fill="none"><path fill="#fff" d="M-3687 2661h1316v788h-1316z"/><path stroke="gray" stroke-linecap="round" stroke-linejoin="round" d="M-2821.89 3113.858h277.437v307.559h-277.437z"/><path fill="#ccc" d="M-3641.606 2700h291.559a8 8 0 0 1 8 8v291.559a8 8 0 0 1-8 8h-291.56a8 8 0 0 1-8-8V2708a8 8 0 0 1 8-8"/><text fill="#000" transform="translate(-3644.606 2705)"><tspan x="57.932" y="16" font-family="Helvetica Neue" font-size="16">gke-jimmy-us-central1-1</tspan></text><path fill="#ccc" d="M-3184.52 2700h291.56a8 8 0 0 1 8 8v291.559a8 8 0 0 1-8 8h-291.56a8 8 0 0 1-8-8V2708a8 8 0 0 1 8-8"/><text fill="#000" transform="translate(-3187.52 2705)"><tspan x="65.788" y="16" font-family="Helvetica Neue" font-size="16">gke-jimmy-us-west1-1</tspan></text><path fill="#ccc" d="M-3184.52 3113.858h291.56a8 8 0 0 1 8 8v291.56a8 8 0 0 1-8 8h-291.56a8 8 0 0 1-8-8v-291.56a8 8 0 0 1 8-8"/><text fill="#000" transform="translate(-3187.52 3118.858)"><tspan x="65.788" y="16" font-family="Helvetica Neue" font-size="16">gke-jimmy-us-west1-2</tspan></text><path fill="#ccc" d="M-3641.606 3113.858h291.559a8 8 0 0 1 8 8v291.56a8 8 0 0 1-8 8h-291.56a8 8 0 0 1-8-8v-291.56a8 8 0 0 1 8-8"/><text fill="#000" transform="translate(-3644.606 3118.858)"><tspan x="65.788" y="16" font-family="Helvetica Neue" font-size="16">gke-jimmy-us-west2-3</tspan></text><path fill="#ececec" d="M-3626.545 2743.058h261.437a8 8 0 0 1 8 8v236.199a8 8 0 0 1-8 8h-261.437a8 8 0 0 1-8-8v-236.199a8 8 0 0 1 8-8"/><path stroke="#f15623" stroke-dasharray="8 8" stroke-linecap="round" stroke-linejoin="round" stroke-width="2" d="M-3626.545 2743.058h261.437a8 8 0 0 1 8 8v236.199a8 8 0 0 1-8 8h-261.437a8 8 0 0 1-8-8v-236.199a8 8 0 0 1 8-8"/><text fill="#f15623" transform="translate(-3629.546 2748.058)"><tspan x="89.855" y="15" font-family="Helvetica Neue" font-size="16">Tenant: tier1</tspan> <tspan x="73.575" y="33.448" font-family="Helvetica Neue" font-size="16">Workspace: tier1</tspan></text><path fill="#fff" d="M-3609.026 2799.213h226.399a8 8 0 0 1 8 8v164a8 8 0 0 1-8 8h-226.399a8 8 0 0 1-8-8v-164a8 8 0 0 1 8-8"/><path stroke="gray" stroke-linecap="round" stroke-linejoin="round" d="M-3609.026 2799.213h226.399a8 8 0 0 1 8 8v164a8 8 0 0 1-8 8h-226.399a8 8 0 0 1-8-8v-164a8 8 0 0 1 8-8"/><text fill="#000" transform="translate(-3612.026 2809.213)"><tspan x="53.223" y="15" font-family="Helvetica Neue" font-size="16">Namespace: tier1</tspan></text><path fill="#ececec" d="M-3169.459 2743.058h261.438a8 8 0 0 1 8 8v236.199a8 8 0 0 1-8 8h-261.438a8 8 0 0 1-8-8v-236.199a8 8 0 0 1 8-8"/><path stroke="#f15623" stroke-dasharray="8 8" stroke-linecap="round" stroke-linejoin="round" stroke-width="2" d="M-3169.459 2743.058h261.438a8 8 0 0 1 8 8v236.199a8 8 0 0 1-8 8h-261.438a8 8 0 0 1-8-8v-236.199a8 8 0 0 1 8-8"/><text fill="#f15623" transform="translate(-3172.459 2748.058)"><tspan x="74.431" y="15" font-family="Helvetica Neue" font-size="16">Tenant: payment</tspan> <tspan x="11.791" y="33.448" font-family="Helvetica Neue" font-size="16">Workspace: bookinfo-frontend-ws</tspan></text><path fill="#fff" d="M-3151.94 2799.213h226.4a8 8 0 0 1 8 8v164a8 8 0 0 1-8 8h-226.4a8 8 0 0 1-8-8v-164a8 8 0 0 1 8-8"/><path stroke="gray" stroke-linecap="round" stroke-linejoin="round" d="M-3151.94 2799.213h226.4a8 8 0 0 1 8 8v164a8 8 0 0 1-8 8h-226.4a8 8 0 0 1-8-8v-164a8 8 0 0 1 8-8"/><text fill="#000" transform="translate(-3154.94 2809.213)"><tspan x="4.615" y="15" font-family="Helvetica Neue" font-size="16">Namespace: bookinfo-frontend</tspan></text><path fill="#fff" d="M-3121.094 2845.984h164.708a8 8 0 0 1 8 8v101.638a8 8 0 0 1-8 8h-164.709a8 8 0 0 1-8-8v-101.638a8 8 0 0 1 8-8"/><path stroke="gray" stroke-dasharray="4 4" stroke-linecap="round" stroke-linejoin="round" d="M-3121.094 2845.984h164.708a8 8 0 0 1 8 8v101.638a8 8 0 0 1-8 8h-164.709a8 8 0 0 1-8-8v-101.638a8 8 0 0 1 8-8"/><text fill="#000" transform="translate(-3124.095 2850.984)"><tspan x="18.666" y="16" font-family="Helvetica Neue" font-size="16">bookinfo-frontend</tspan></text><path fill="#ececec" d="M-3169.459 3156.917h261.438a8 8 0 0 1 8 8v236.198a8 8 0 0 1-8 8h-261.438a8 8 0 0 1-8-8v-236.198a8 8 0 0 1 8-8"/><path stroke="#f15623" stroke-dasharray="8 8" stroke-linecap="round" stroke-linejoin="round" stroke-width="2" d="M-3169.459 3156.917h261.438a8 8 0 0 1 8 8v236.198a8 8 0 0 1-8 8h-261.438a8 8 0 0 1-8-8v-236.198a8 8 0 0 1 8-8"/><text fill="#f15623" transform="translate(-3172.459 3161.917)"><tspan x="74.431" y="15" font-family="Helvetica Neue" font-size="16">Tenant: payment</tspan> <tspan x="10.751" y="33.448" font-family="Helvetica Neue" font-size="16">Workspace: bookinfo-backend-ws</tspan></text><path fill="#fff" d="M-3151.94 3213.071h226.4a8 8 0 0 1 8 8v164a8 8 0 0 1-8 8h-226.4a8 8 0 0 1-8-8v-164a8 8 0 0 1 8-8"/><path stroke="gray" stroke-linecap="round" stroke-linejoin="round" d="M-3151.94 3213.071h226.4a8 8 0 0 1 8 8v164a8 8 0 0 1-8 8h-226.4a8 8 0 0 1-8-8v-164a8 8 0 0 1 8-8"/><text fill="#000" transform="translate(-3154.94 3223.071)"><tspan x="3.575" y="15" font-family="Helvetica Neue" font-size="16">Namespace: bookinfo-backend</tspan></text><path fill="#ececec" d="M-3626.545 3156.917h261.437a8 8 0 0 1 8 8v236.198a8 8 0 0 1-8 8h-261.437a8 8 0 0 1-8-8v-236.198a8 8 0 0 1 8-8"/><path stroke="#f15623" stroke-dasharray="8 8" stroke-linecap="round" stroke-linejoin="round" stroke-width="2" d="M-3626.545 3156.917h261.437a8 8 0 0 1 8 8v236.198a8 8 0 0 1-8 8h-261.437a8 8 0 0 1-8-8v-236.198a8 8 0 0 1 8-8"/><text fill="#f15623" transform="translate(-3629.546 3161.917)"><tspan x="69.991" y="15" font-family="Helvetica Neue" font-size="16">Tenant: marketing</tspan> <tspan x="46.903" y="33.448" font-family="Helvetica Neue" font-size="16">Workspace: httpsbin-ws</tspan></text><path fill="#fff" d="M-3609.026 3213.071h226.399a8 8 0 0 1 8 8v164a8 8 0 0 1-8 8h-226.399a8 8 0 0 1-8-8v-164a8 8 0 0 1 8-8"/><path stroke="gray" stroke-linecap="round" stroke-linejoin="round" d="M-3609.026 3213.071h226.399a8 8 0 0 1 8 8v164a8 8 0 0 1-8 8h-226.399a8 8 0 0 1-8-8v-164a8 8 0 0 1 8-8"/><text fill="#000" transform="translate(-3612.026 3223.071)"><tspan x="43.727" y="15" font-family="Helvetica Neue" font-size="16">Namespace: httpbin</tspan></text><path stroke="#000" stroke-linecap="round" stroke-linejoin="round" stroke-width="2" marker-end="url(#b)" d="M-3342.047 2921.575c12.682 1.512 26.15 2.362 40.402 2.362 32.669 0 65.586-4.465 96.548-11.142"/><path stroke="#000" stroke-linecap="round" stroke-linejoin="round" stroke-width="2" marker-end="url(#b)" d="M-3342.047 2920.77c48.634 26.349 102.058 60.76 149.527 103.74 29.151 26.394 52.971 53.226 72.382 78.96"/><path stroke="#000" stroke-linecap="round" stroke-linejoin="round" stroke-width="2" marker-end="url(#b)" d="M-3342.047 2920.924c21.964 20.482 37.285 46.668 37.285 79.87 0 32.933-15.074 68.418-36.755 102.424"/><path stroke="#000" stroke-linecap="round" stroke-linejoin="round" stroke-width="2" marker-end="url(#b)" marker-start="url(#c)" d="M-3038.74 3020.459v80.499"/><path fill="#333" d="M-3083.181 2889.921h88.882a8 8 0 0 1 8 8v23.685a8 8 0 0 1-8 8h-88.882a8 8 0 0 1-8-8v-23.685a8 8 0 0 1 8-8"/><text fill="#fff" transform="translate(-3086.181 2900.032)"><tspan x=".017" y="16" font-family="Helvetica Neue" font-size="16">productpage</tspan></text><path fill="#fff" d="M-3130.463 3251.38h183.445a8 8 0 0 1 8 8v115.81a8 8 0 0 1-8 8h-183.445a8 8 0 0 1-8-8v-115.81a8 8 0 0 1 8-8"/><path stroke="gray" stroke-dasharray="4 4" stroke-linecap="round" stroke-linejoin="round" d="M-3130.463 3251.38h183.445a8 8 0 0 1 8 8v115.81a8 8 0 0 1-8 8h-183.445a8 8 0 0 1-8-8v-115.81a8 8 0 0 1 8-8"/><text fill="#000" transform="translate(-3133.463 3256.38)"><tspan x="27.147" y="16" font-family="Helvetica Neue" font-size="16">bookinfo-backend</tspan></text><path fill="#333" d="M-3119.124 3283.27h88.882a8 8 0 0 1 8 8v23.684a8 8 0 0 1-8 8h-88.882a8 8 0 0 1-8-8v-23.685a8 8 0 0 1 8-8"/><text fill="#fff" transform="translate(-3122.124 3293.38)"><tspan x=".017" y="16" font-family="Helvetica Neue" font-size="16">productpage</tspan></text><path fill="#333" d="M-3119.124 3330.75h52.031a8 8 0 0 1 8 8v23.685a8 8 0 0 1-8 8h-52.031a8 8 0 0 1-8-8v-23.685a8 8 0 0 1 8-8"/><text fill="#fff" transform="translate(-3122.124 3340.86)"><tspan x=".992" y="16" font-family="Helvetica Neue" font-size="16">reviews</tspan></text><path fill="#333" d="M-3039.492 3330.75h52.031a8 8 0 0 1 8 8v23.685a8 8 0 0 1-8 8h-52.032a8 8 0 0 1-8-8v-23.685a8 8 0 0 1 8-8"/><text fill="#fff" transform="translate(-3042.492 3340.86)"><tspan x="4.56" y="16" font-family="Helvetica Neue" font-size="16">details</tspan></text><path fill="#333" d="M-3008.573 3283.27h52.032a8 8 0 0 1 8 8v23.684a8 8 0 0 1-8 8h-52.032a8 8 0 0 1-8-8v-23.685a8 8 0 0 1 8-8"/><text fill="#fff" transform="translate(-3011.573 3293.38)"><tspan x="3.672" y="16" font-family="Helvetica Neue" font-size="16">ratings</tspan></text><path fill="#fff" d="M-3578.181 3258.466h164.709a8 8 0 0 1 8 8v101.638a8 8 0 0 1-8 8h-164.709a8 8 0 0 1-8-8v-101.638a8 8 0 0 1 8-8"/><path stroke="gray" stroke-dasharray="4 4" stroke-linecap="round" stroke-linejoin="round" d="M-3578.181 3258.466h164.709a8 8 0 0 1 8 8v101.638a8 8 0 0 1-8 8h-164.709a8 8 0 0 1-8-8v-101.638a8 8 0 0 1 8-8"/><text fill="#000" transform="translate(-3581.181 3263.466)"><tspan x="59.138" y="16" font-family="Helvetica Neue" font-size="16">httpbin</tspan></text><path fill="#333" d="M-3540.268 3302.403h88.882a8 8 0 0 1 8 8v23.685a8 8 0 0 1-8 8h-88.882a8 8 0 0 1-8-8v-23.685a8 8 0 0 1 8-8"/><text fill="#fff" transform="translate(-3543.268 3312.514)"><tspan x="21.225" y="16" font-family="Helvetica Neue" font-size="16">httpbin</tspan></text><path fill="#fff" d="M-2803.208 3295.428h79.273a8 8 0 0 1 8 8v17.687a8 8 0 0 1-8 8h-79.273a8 8 0 0 1-8-8v-17.687a8 8 0 0 1 8-8"/><path stroke="gray" stroke-dasharray="4 4" stroke-linecap="round" stroke-linejoin="round" d="M-2803.208 3295.428h79.273a8 8 0 0 1 8 8v17.687a8 8 0 0 1-8 8h-79.273a8 8 0 0 1-8-8v-17.687a8 8 0 0 1 8-8"/><text fill="#000" transform="translate(-2701.702 3301.537)"><tspan x="0" y="15" font-family="Helvetica Neue" font-size="16">Application</tspan></text><path fill="#ececec" d="M-2803.208 3203.685h79.273a8 8 0 0 1 8 8v17.687a8 8 0 0 1-8 8h-79.273a8 8 0 0 1-8-8v-17.687a8 8 0 0 1 8-8"/><path stroke="#f15623" stroke-dasharray="8 8" stroke-linecap="round" stroke-linejoin="round" stroke-width="2" d="M-2803.208 3203.685h79.273a8 8 0 0 1 8 8v17.687a8 8 0 0 1-8 8h-79.273a8 8 0 0 1-8-8v-17.687a8 8 0 0 1 8-8"/><text fill="#000" transform="translate(-2701.702 3210.972)"><tspan x="0" y="15" font-family="Helvetica Neue" font-size="16">TSB Configuration</tspan></text><path fill="#fff" d="M-2803.208 3250.273h79.273a8 8 0 0 1 8 8v17.687a8 8 0 0 1-8 8h-79.273a8 8 0 0 1-8-8v-17.687a8 8 0 0 1 8-8"/><path stroke="gray" stroke-linecap="round" stroke-linejoin="round" d="M-2803.208 3250.273h79.273a8 8 0 0 1 8 8v17.687a8 8 0 0 1-8 8h-79.273a8 8 0 0 1-8-8v-17.687a8 8 0 0 1 8-8"/><text fill="#000" transform="translate(-2701.702 3256.254)"><tspan x="0" y="15" font-family="Helvetica Neue" font-size="16">Namespace</tspan></text><text fill="#000" transform="translate(-2701.702 3388.003)"><tspan x="0" y="15" font-family="Helvetica Neue" font-size="16">Network Reachibility</tspan></text><path stroke="#000" stroke-linecap="round" stroke-linejoin="round" stroke-width="2" marker-end="url(#b)" d="m-2811.589 3396.803 83.136-.272"/><path fill="#333" d="M-2803.208 3340.583h79.273a8 8 0 0 1 8 8v16.97a8 8 0 0 1-8 8h-79.273a8 8 0 0 1-8-8v-16.97a8 8 0 0 1 8-8"/><text fill="#000" transform="translate(-2701.702 3347.844)"><tspan x="0" y="15" font-family="Helvetica Neue" font-size="16">Service</tspan></text><path fill="#ccc" d="M-2803.208 3157.096h79.273a8 8 0 0 1 8 8v17.687a8 8 0 0 1-8 8h-79.273a8 8 0 0 1-8-8v-17.687a8 8 0 0 1 8-8"/><text fill="#000" transform="translate(-2701.702 3166.171)"><tspan x="0" y="15" font-family="Helvetica Neue" font-size="16">Cluster</tspan></text><text fill="#000" transform="translate(-2809.058 3127.692)"><tspan x="0" y="16" font-family="Helvetica Neue" font-size="16" font-weight="bold">Legend</tspan></text><path fill="url(#d)" d="m-3652.329 2722.205-8.138-14.098a3.57 3.57 0 0 1 0-3.565l8.138-14.098a3.57 3.57 0 0 1 3.088-1.783h16.277c1.274 0 2.45.68 3.088 1.783l8.139 14.098a3.57 3.57 0 0 1 0 3.565l-8.139 14.098a3.57 3.57 0 0 1-3.088 1.782h-16.277c-1.274 0-2.45-.68-3.087-1.782"/><path fill="#fff" d="m-3633.342 2701.361-7.34-4.238a.84.84 0 0 0-.837 0l-7.341 4.238a.84.84 0 0 0-.418.725v8.476c0 .299.159.575.418.725l7.34 4.238c.26.15.579.15.837 0l7.341-4.238a.84.84 0 0 0 .418-.725v-8.476a.84.84 0 0 0-.418-.725m-1.007 8.39-2.561-1.479v-3.894l-3.782 2.182v4.369l3.373-1.948 2.561 1.479-6.343 3.662-6.343-3.662 2.56-1.479 3.374 1.948v-4.369l-3.782-2.182v3.894l-2.561 1.479v-7.324l6.343-3.662v2.957l-3.373 1.947 3.782 2.183 3.782-2.183-3.373-1.947v-2.957l6.343 3.662z"/><path fill="url(#e)" d="m-3195.95 2722.205-8.14-14.098a3.57 3.57 0 0 1 0-3.565l8.14-14.098a3.57 3.57 0 0 1 3.087-1.783h16.277c1.274 0 2.45.68 3.088 1.783l8.139 14.098a3.57 3.57 0 0 1 0 3.565l-8.139 14.098a3.57 3.57 0 0 1-3.088 1.782h-16.277c-1.274 0-2.45-.68-3.087-1.782"/><path fill="#fff" d="m-3176.964 2701.361-7.34-4.238a.84.84 0 0 0-.837 0l-7.341 4.238a.84.84 0 0 0-.418.725v8.476c0 .299.159.575.418.725l7.34 4.238c.26.15.578.15.837 0l7.341-4.238a.84.84 0 0 0 .418-.725v-8.476a.84.84 0 0 0-.418-.725m-1.007 8.39-2.561-1.479v-3.894l-3.782 2.182v4.369l3.373-1.948 2.561 1.479-6.343 3.662-6.343-3.662 2.56-1.479 3.374 1.948v-4.369l-3.782-2.182v3.894l-2.561 1.479v-7.324l6.343-3.662v2.957l-3.373 1.947 3.782 2.183 3.782-2.183-3.373-1.947v-2.957l6.343 3.662z"/><path fill="url(#f)" d="m-3648.077 3134.72-8.138-14.098a3.57 3.57 0 0 1 0-3.565l8.138-14.097a3.57 3.57 0 0 1 3.088-1.783h16.277c1.274 0 2.45.68 3.088 1.782l8.139 14.098a3.57 3.57 0 0 1 0 3.565l-8.139 14.098a3.57 3.57 0 0 1-3.088 1.782h-16.277c-1.274 0-2.45-.68-3.087-1.782"/><path fill="#fff" d="m-3629.09 3113.877-7.34-4.239a.84.84 0 0 0-.837 0l-7.341 4.239a.84.84 0 0 0-.418.724v8.476c0 .3.159.576.418.725l7.34 4.238c.26.15.579.15.837 0l7.341-4.238a.84.84 0 0 0 .418-.725v-8.476a.84.84 0 0 0-.418-.724m-1.007 8.39-2.561-1.48v-3.894l-3.782 2.182v4.369l3.373-1.947 2.561 1.478-6.343 3.662-6.343-3.662 2.56-1.478 3.374 1.947v-4.369l-3.782-2.182v3.895l-2.561 1.478v-7.324l6.343-3.662v2.957l-3.373 1.947 3.782 2.183 3.782-2.183-3.373-1.947v-2.957l6.343 3.662z"/><path fill="url(#g)" d="m-3191.699 3134.72-8.138-14.098a3.57 3.57 0 0 1 0-3.565l8.138-14.097a3.57 3.57 0 0 1 3.088-1.783h16.277c1.274 0 2.45.68 3.088 1.782l8.138 14.098a3.57 3.57 0 0 1 0 3.565l-8.138 14.098a3.57 3.57 0 0 1-3.088 1.782h-16.277c-1.274 0-2.45-.68-3.088-1.782"/><path fill="#fff" d="m-3172.712 3113.877-7.34-4.239a.84.84 0 0 0-.838 0l-7.34 4.239a.84.84 0 0 0-.418.724v8.476c0 .3.159.576.418.725l7.34 4.238c.26.15.578.15.837 0l7.341-4.238a.84.84 0 0 0 .418-.725v-8.476a.84.84 0 0 0-.418-.724m-1.007 8.39-2.561-1.48v-3.894l-3.782 2.182v4.369l3.373-1.947 2.561 1.478-6.343 3.662-6.343-3.662 2.56-1.478 3.374 1.947v-4.369l-3.782-2.182v3.895l-2.561 1.478v-7.324l6.343-3.662v2.957l-3.373 1.947 3.782 2.183 3.782-2.183-3.373-1.947v-2.957l6.343 3.662z"/></g></svg>