<svg xmlns="http://www.w3.org/2000/svg" xmlns:xl="http://www.w3.org/1999/xlink" width="1172" height="839" viewBox="-3616 2704 1172 839"><defs><linearGradient id="a" x1="0" x2="1" gradientUnits="userSpaceOnUse"><stop offset="0" stop-color="#4387fd"/><stop offset="1" stop-color="#4683ea"/></linearGradient><linearGradient xl:href="#a" id="c" gradientTransform="translate(-3526.3 2740.34)scale(39.68504)"/><linearGradient xl:href="#a" id="d" gradientTransform="translate(-3069.921 2740.34)scale(39.68504)"/><linearGradient xl:href="#a" id="e" gradientTransform="translate(-3526.3 3158.608)scale(39.68504)"/><linearGradient xl:href="#a" id="f" gradientTransform="translate(-3069.921 3158.608)scale(39.68504)"/><marker id="b" stroke-linejoin="miter" stroke-miterlimit="10" color="#000" markerHeight="6" markerUnits="strokeWidth" markerWidth="7" orient="auto" overflow="visible" viewBox="-1 -3 7 6"><path fill="currentColor" stroke="currentColor" d="M4.8 0 0-1.8v3.6Z"/></marker></defs><g fill="none"><path fill="#fff" d="M-3616 2704h1172v839h-1172z"/><path fill="#ccc" d="M-3508.378 2739.685h291.559a8 8 0 0 1 8 8v291.559a8 8 0 0 1-8 8h-291.559a8 8 0 0 1-8-8v-291.559a8 8 0 0 1 8-8"/><text fill="#000" transform="translate(-3511.378 2744.685)"><tspan x="57.932" y="16" font-family="Helvetica Neue" font-size="16">gke-jimmy-us-central1-1</tspan></text><path fill="#ccc" d="M-3051.291 2739.685h291.559a8 8 0 0 1 8 8v291.559a8 8 0 0 1-8 8h-291.56a8 8 0 0 1-8-8v-291.559a8 8 0 0 1 8-8"/><text fill="#000" transform="translate(-3054.291 2744.685)"><tspan x="65.788" y="16" font-family="Helvetica Neue" font-size="16">gke-jimmy-us-west1-1</tspan></text><path fill="#ccc" d="M-3051.291 3153.543h291.559a8 8 0 0 1 8 8v291.56a8 8 0 0 1-8 8h-291.56a8 8 0 0 1-8-8v-291.56a8 8 0 0 1 8-8"/><text fill="#000" transform="translate(-3054.291 3158.543)"><tspan x="65.788" y="16" font-family="Helvetica Neue" font-size="16">gke-jimmy-us-west1-2</tspan></text><path fill="#ccc" d="M-3508.378 3153.543h291.559a8 8 0 0 1 8 8v291.56a8 8 0 0 1-8 8h-291.559a8 8 0 0 1-8-8v-291.56a8 8 0 0 1 8-8"/><text fill="#000" transform="translate(-3511.378 3158.543)"><tspan x="65.788" y="16" font-family="Helvetica Neue" font-size="16">gke-jimmy-us-west2-3</tspan></text><path fill="#ececec" d="M-3493.317 2782.743h261.437a8 8 0 0 1 8 8v236.199a8 8 0 0 1-8 8h-261.437a8 8 0 0 1-8-8v-236.199a8 8 0 0 1 8-8"/><path stroke="#f15623" stroke-dasharray="8 8" stroke-linecap="round" stroke-linejoin="round" stroke-width="2" d="M-3493.317 2782.743h261.437a8 8 0 0 1 8 8v236.199a8 8 0 0 1-8 8h-261.437a8 8 0 0 1-8-8v-236.199a8 8 0 0 1 8-8"/><text fill="#f15623" transform="translate(-3496.317 2787.743)"><tspan x="95.338" y="13" font-family="Helvetica Neue" font-size="14">Tenant: tier1</tspan> <tspan x="81.093" y="29.392" font-family="Helvetica Neue" font-size="14">Workspace: tier1</tspan> <tspan x="89.78" y="45.784" font-family="Helvetica Neue" font-size="14">Network: tier1</tspan></text><path fill="#fff" d="M-3475.798 2838.898h226.399a8 8 0 0 1 8 8v164a8 8 0 0 1-8 8h-226.399a8 8 0 0 1-8-8v-164a8 8 0 0 1 8-8"/><path stroke="gray" stroke-linecap="round" stroke-linejoin="round" d="M-3475.798 2838.898h226.399a8 8 0 0 1 8 8v164a8 8 0 0 1-8 8h-226.399a8 8 0 0 1-8-8v-164a8 8 0 0 1 8-8"/><text fill="#000" transform="translate(-3478.798 2848.898)"><tspan x="53.223" y="15" font-family="Helvetica Neue" font-size="16">Namespace: tier1</tspan></text><path fill="#f15623" d="M-3431.843 2905.512h138.489a8 8 0 0 1 8 8v36.44a8 8 0 0 1-8 8h-138.489a8 8 0 0 1-8-8v-36.44a8 8 0 0 1 8-8"/><text fill="#fff" transform="translate(-3434.843 2922)"><tspan x="18.444" y="16" font-family="Helvetica Neue" font-size="16">Edge Gateway</tspan></text><path fill="#ececec" d="M-3036.23 2782.743h261.437a8 8 0 0 1 8 8v236.199a8 8 0 0 1-8 8h-261.437a8 8 0 0 1-8-8v-236.199a8 8 0 0 1 8-8"/><path stroke="#f15623" stroke-dasharray="8 8" stroke-linecap="round" stroke-linejoin="round" stroke-width="2" d="M-3036.23 2782.743h261.437a8 8 0 0 1 8 8v236.199a8 8 0 0 1-8 8h-261.437a8 8 0 0 1-8-8v-236.199a8 8 0 0 1 8-8"/><text fill="#f15623" transform="translate(-3039.23 2787.743)"><tspan x="81.842" y="13" font-family="Helvetica Neue" font-size="14">Tenant: payment</tspan> <tspan x="27.032" y="29.392" font-family="Helvetica Neue" font-size="14">Workspace: bookinfo-frontend-ws</tspan> <tspan x="65.658" y="45.784" font-family="Helvetica Neue" font-size="14">Network: cp-cluster-1</tspan></text><path fill="#fff" d="M-3018.711 2838.898h226.398a8 8 0 0 1 8 8v164a8 8 0 0 1-8 8h-226.398a8 8 0 0 1-8-8v-164a8 8 0 0 1 8-8"/><path stroke="gray" stroke-linecap="round" stroke-linejoin="round" d="M-3018.711 2838.898h226.398a8 8 0 0 1 8 8v164a8 8 0 0 1-8 8h-226.398a8 8 0 0 1-8-8v-164a8 8 0 0 1 8-8"/><text fill="#000" transform="translate(-3021.711 2848.898)"><tspan x="4.615" y="15" font-family="Helvetica Neue" font-size="16">Namespace: bookinfo-frontend</tspan></text><path fill="#fff" d="M-2987.866 2885.67h164.709a8 8 0 0 1 8 8v101.637a8 8 0 0 1-8 8h-164.709a8 8 0 0 1-8-8v-101.638a8 8 0 0 1 8-8"/><path stroke="gray" stroke-dasharray="4 4" stroke-linecap="round" stroke-linejoin="round" d="M-2987.866 2885.67h164.709a8 8 0 0 1 8 8v101.637a8 8 0 0 1-8 8h-164.709a8 8 0 0 1-8-8v-101.638a8 8 0 0 1 8-8"/><text fill="#000" transform="translate(-2990.866 2890.67)"><tspan x="18.666" y="16" font-family="Helvetica Neue" font-size="16">bookinfo-frontend</tspan></text><path fill="#ececec" d="M-3036.23 3196.602h261.437a8 8 0 0 1 8 8V3440.8a8 8 0 0 1-8 8h-261.437a8 8 0 0 1-8-8v-236.198a8 8 0 0 1 8-8"/><path stroke="#f15623" stroke-dasharray="8 8" stroke-linecap="round" stroke-linejoin="round" stroke-width="2" d="M-3036.23 3196.602h261.437a8 8 0 0 1 8 8V3440.8a8 8 0 0 1-8 8h-261.437a8 8 0 0 1-8-8v-236.198a8 8 0 0 1 8-8"/><text fill="#f15623" transform="translate(-3039.23 3201.602)"><tspan x="81.842" y="13" font-family="Helvetica Neue" font-size="14">Tenant: payment</tspan> <tspan x="26.122" y="29.392" font-family="Helvetica Neue" font-size="14">Workspace: bookinfo-backend-ws</tspan> <tspan x="65.658" y="45.784" font-family="Helvetica Neue" font-size="14">Network: cp-cluster-2</tspan></text><path fill="#fff" d="M-3018.711 3252.756h226.398a8 8 0 0 1 8 8v164a8 8 0 0 1-8 8h-226.398a8 8 0 0 1-8-8v-164a8 8 0 0 1 8-8"/><path stroke="gray" stroke-linecap="round" stroke-linejoin="round" d="M-3018.711 3252.756h226.398a8 8 0 0 1 8 8v164a8 8 0 0 1-8 8h-226.398a8 8 0 0 1-8-8v-164a8 8 0 0 1 8-8"/><text fill="#000" transform="translate(-3021.711 3262.756)"><tspan x="3.575" y="15" font-family="Helvetica Neue" font-size="16">Namespace: bookinfo-backend</tspan></text><path fill="#ececec" d="M-3493.317 3196.602h261.437a8 8 0 0 1 8 8V3440.8a8 8 0 0 1-8 8h-261.437a8 8 0 0 1-8-8v-236.198a8 8 0 0 1 8-8"/><path stroke="#f15623" stroke-dasharray="8 8" stroke-linecap="round" stroke-linejoin="round" stroke-width="2" d="M-3493.317 3196.602h261.437a8 8 0 0 1 8 8V3440.8a8 8 0 0 1-8 8h-261.437a8 8 0 0 1-8-8v-236.198a8 8 0 0 1 8-8"/><text fill="#f15623" transform="translate(-3496.317 3201.602)"><tspan x="77.957" y="13" font-family="Helvetica Neue" font-size="14">Tenant: marketing</tspan> <tspan x="57.755" y="29.392" font-family="Helvetica Neue" font-size="14">Workspace: httpsbin-ws</tspan> <tspan x="65.658" y="45.784" font-family="Helvetica Neue" font-size="14">Network: cp-cluster-3</tspan></text><path fill="#fff" d="M-3475.798 3252.756h226.399a8 8 0 0 1 8 8v164a8 8 0 0 1-8 8h-226.399a8 8 0 0 1-8-8v-164a8 8 0 0 1 8-8"/><path stroke="gray" stroke-linecap="round" stroke-linejoin="round" d="M-3475.798 3252.756h226.399a8 8 0 0 1 8 8v164a8 8 0 0 1-8 8h-226.399a8 8 0 0 1-8-8v-164a8 8 0 0 1 8-8"/><text fill="#000" transform="translate(-3478.798 3262.756)"><tspan x="43.727" y="15" font-family="Helvetica Neue" font-size="16">Namespace: httpbin</tspan></text><path fill="#333" d="M-2911.929 2929.606h81.796a8 8 0 0 1 8 8v23.685a8 8 0 0 1-8 8h-81.796a8 8 0 0 1-8-8v-23.685a8 8 0 0 1 8-8"/><text fill="#fff" transform="translate(-2914.929 2940.746)"><tspan x="2.402" y="14" font-family="Helvetica Neue" font-size="14">productpage</tspan></text><path fill="#fff" d="M-2997.234 3291.065h183.445a8 8 0 0 1 8 8v115.811a8 8 0 0 1-8 8h-183.445a8 8 0 0 1-8-8v-115.811a8 8 0 0 1 8-8"/><path stroke="gray" stroke-dasharray="4 4" stroke-linecap="round" stroke-linejoin="round" d="M-2997.234 3291.065h183.445a8 8 0 0 1 8 8v115.811a8 8 0 0 1-8 8h-183.445a8 8 0 0 1-8-8v-115.811a8 8 0 0 1 8-8"/><text fill="#000" transform="translate(-3000.234 3296.065)"><tspan x="27.147" y="16" font-family="Helvetica Neue" font-size="16">bookinfo-backend</tspan></text><path fill="#333" d="M-2910.268 3321.07h57.088a8 8 0 0 1 8 8v11.656a8 8 0 0 1-8 8h-57.088a8 8 0 0 1-8-8v-11.655a8 8 0 0 1 8-8"/><text fill="#fff" transform="translate(-2913.268 3328.753)"><tspan x="1.904" y="10" font-family="Helvetica Neue" font-size="10">productpage</tspan></text><path fill="#333" d="M-2991.133 3382.424h40.77a8 8 0 0 1 8 8v11.655a8 8 0 0 1-8 8h-40.77a8 8 0 0 1-8-8v-11.655a8 8 0 0 1 8-8"/><text fill="#fff" transform="translate(-2994.133 3390.106)"><tspan x="5.87" y="10" font-family="Helvetica Neue" font-size="10">reviews</tspan></text><path fill="#333" d="M-2917.354 3382.424h40.77a8 8 0 0 1 8 8v11.655a8 8 0 0 1-8 8h-40.77a8 8 0 0 1-8-8v-11.655a8 8 0 0 1 8-8"/><text fill="#fff" transform="translate(-2920.354 3390.106)"><tspan x="8.1" y="10" font-family="Helvetica Neue" font-size="10">details</tspan></text><path fill="#333" d="M-2991.133 3321.07h40.77a8 8 0 0 1 8 8v11.656a8 8 0 0 1-8 8h-40.77a8 8 0 0 1-8-8v-11.655a8 8 0 0 1 8-8"/><text fill="#fff" transform="translate(-2994.133 3328.753)"><tspan x="7.545" y="10" font-family="Helvetica Neue" font-size="10">ratings</tspan></text><path fill="#fff" d="M-3444.953 3298.151h164.709a8 8 0 0 1 8 8v101.638a8 8 0 0 1-8 8h-164.709a8 8 0 0 1-8-8v-101.638a8 8 0 0 1 8-8"/><path stroke="gray" stroke-dasharray="4 4" stroke-linecap="round" stroke-linejoin="round" d="M-3444.953 3298.151h164.709a8 8 0 0 1 8 8v101.638a8 8 0 0 1-8 8h-164.709a8 8 0 0 1-8-8v-101.638a8 8 0 0 1 8-8"/><text fill="#000" transform="translate(-3447.953 3303.151)"><tspan x="59.138" y="16" font-family="Helvetica Neue" font-size="16">httpbin</tspan></text><path fill="#333" d="M-3436.094 3337.128h62.711a8 8 0 0 1 8 8v23.685a8 8 0 0 1-8 8h-62.712a8 8 0 0 1-8-8v-23.685a8 8 0 0 1 8-8"/><text fill="#fff" transform="translate(-3439.095 3347.238)"><tspan x="8.14" y="16" font-family="Helvetica Neue" font-size="16">httpbin</tspan></text><path fill="#f15623" d="M-2847.576 3370.394h31.685a4 4 0 0 1 4 4v31.685a4 4 0 0 1-4 4h-31.685a4 4 0 0 1-4-4v-31.685a4 4 0 0 1 4-4"/><path fill="#fff" d="M-2834.646 3405.225c-2.373-2.382-2.722-2.76-2.763-2.986-.14-.79.523-1.423 1.332-1.271.22.041.483.27 1.702 1.48l1.443 1.433v-16.6l-4.1 4.099-4.1 4.1 1.963.035c1.923.034 1.968.038 2.232.201.283.176.527.598.527.91s-.244.734-.527.91l-.269.167h-7.644v-3.869c0-3.799.003-3.872.144-4.06.27-.362.495-.479.921-.479.297 0 .448.039.612.155.423.302.443.42.443 2.6v1.97l4.899-4.898 4.899-4.899v-5.113l-.296-.127c-.572-.247-1.22-.827-1.562-1.396-.462-.771-.573-1.93-.268-2.795.69-1.954 2.98-2.85 4.795-1.876.462.248 1.17.958 1.392 1.398.854 1.685.23 3.686-1.42 4.553l-.487.256v5.1l5.003 5.003 5.003 5.003v-2.075c0-1.985.006-2.087.147-2.337.293-.521.991-.712 1.457-.398.129.087.305.264.393.393l.158.235-.018 3.828-.018 3.828-3.578.02c-1.969.012-3.714.002-3.88-.022a1.04 1.04 0 0 1-.572-.288c-.603-.545-.484-1.276.3-1.841.01-.007.87-.03 1.911-.053l1.894-.04-4.1-4.099-4.1-4.1v16.537l1.372-1.368c.755-.753 1.46-1.402 1.568-1.442a1.09 1.09 0 0 1 1.281.414c.192.282.214.854.043 1.114-.123.185-5.316 5.418-5.378 5.418-.02 0-1.26-1.227-2.754-2.728"/><path fill="#f15623" d="M-3321.04 3337.128h31.686a4 4 0 0 1 4 4v31.685a4 4 0 0 1-4 4h-31.685a4 4 0 0 1-4-4v-31.685a4 4 0 0 1 4-4"/><path fill="#fff" d="M-3308.11 3371.96c-2.372-2.383-2.722-2.761-2.762-2.988-.141-.789.523-1.422 1.331-1.27.22.041.484.27 1.703 1.48l1.442 1.433v-16.6l-4.1 4.1-4.1 4.099 1.963.035c1.923.034 1.969.038 2.232.201.283.176.527.598.527.91s-.244.734-.527.91l-.269.167h-7.643v-3.869c0-3.799.002-3.872.143-4.06.27-.362.495-.479.921-.479.297 0 .449.039.612.155.423.302.443.42.443 2.6v1.97l4.899-4.898 4.899-4.899v-5.113l-.295-.127c-.573-.247-1.221-.827-1.563-1.396-.462-.771-.573-1.93-.267-2.795.689-1.954 2.98-2.85 4.794-1.876.463.248 1.17.958 1.393 1.399.853 1.684.229 3.685-1.421 4.552l-.487.256v5.1l5.003 5.003 5.003 5.003v-2.075c0-1.985.007-2.087.147-2.337.293-.521.992-.712 1.457-.398.129.087.306.264.393.393l.159.235-.018 3.828-.018 3.828-3.579.02c-1.968.012-3.714.002-3.88-.022a1.04 1.04 0 0 1-.572-.288c-.603-.545-.484-1.276.3-1.841.01-.007.87-.03 1.911-.053l1.894-.04-4.1-4.099-4.1-4.1v16.537l1.372-1.368c.755-.753 1.46-1.402 1.568-1.442a1.09 1.09 0 0 1 1.281.414c.193.282.215.854.043 1.114-.122.185-5.316 5.418-5.378 5.418-.02 0-1.26-1.227-2.753-2.728Z"/><path fill="#f15623" d="M-2980.96 2929.606h31.685a4 4 0 0 1 4 4v31.685a4 4 0 0 1-4 4h-31.685a4 4 0 0 1-4-4v-31.685a4 4 0 0 1 4-4"/><path fill="#fff" d="M-2968.03 2964.438c-2.373-2.382-2.722-2.76-2.763-2.987-.14-.789.523-1.422 1.332-1.27.22.04.483.27 1.702 1.48l1.443 1.432v-16.6l-4.1 4.1-4.101 4.1 1.964.034c1.923.034 1.968.038 2.232.202.283.176.527.597.527.91 0 .312-.244.734-.527.91l-.269.167h-7.644v-3.869c0-3.799.003-3.872.144-4.06.27-.362.495-.479.921-.479.297 0 .448.038.612.155.423.301.443.42.443 2.6v1.97l4.899-4.899 4.899-4.898v-5.113l-.296-.128c-.572-.247-1.22-.826-1.562-1.396-.462-.77-.573-1.93-.268-2.795.69-1.953 2.98-2.85 4.795-1.876.462.249 1.17.959 1.392 1.399.854 1.685.23 3.686-1.42 4.553l-.487.256v5.1l5.003 5.002 5.003 5.003v-2.075c0-1.985.006-2.086.147-2.337.293-.52.991-.711 1.457-.398.129.087.305.264.393.394l.158.235-.018 3.828-.018 3.828-3.578.02c-1.969.011-3.714.001-3.88-.022-.208-.03-.384-.119-.572-.289-.603-.544-.484-1.276.3-1.841.01-.007.87-.03 1.911-.052l1.894-.04-4.1-4.1-4.1-4.099v16.537l1.372-1.369c.755-.753 1.46-1.401 1.568-1.441a1.09 1.09 0 0 1 1.281.414c.192.281.214.854.043 1.113-.123.186-5.316 5.418-5.378 5.418-.02 0-1.26-1.227-2.754-2.727"/><path stroke="#000" stroke-linecap="round" stroke-linejoin="round" stroke-width="2" marker-end="url(#b)" d="M-3328.398 2957.953c24.828 24.375 55.619 67.421 64.87 135.96 11.538 85.474-14.271 182.079-30.24 230.994"/><path stroke="#000" stroke-linecap="round" stroke-linejoin="round" stroke-width="2" marker-end="url(#b)" d="M-2945.275 2949.449h12.446"/><path stroke="#000" stroke-linecap="round" stroke-linejoin="round" stroke-width="2" marker-end="url(#b)" d="M-3325.039 3356.97h-27.444"/><path stroke="#000" stroke-linecap="round" stroke-linejoin="round" stroke-width="2" marker-end="url(#b)" d="M-2822.08 3370.394c1.823-7.294 1.649-15.315-4.09-21.668-1.9-2.103-4.289-3.89-7.003-5.41"/><path stroke="#000" stroke-linecap="round" stroke-linejoin="round" stroke-width="2" marker-end="url(#b)" d="M-2876.698 3348.726c.403 3.801.238 8.332-1.052 13.524-.739 2.975-1.788 5.927-3.02 8.777"/><path stroke="#000" stroke-linecap="round" stroke-linejoin="round" stroke-width="2" marker-end="url(#b)" d="M-2877.888 3348.726c-2.018 2.32-5.085 5-9.559 8.082-11.143 7.68-28.701 16.273-44.83 23.474"/><path stroke="#000" stroke-linecap="round" stroke-linejoin="round" stroke-width="2" marker-end="url(#b)" d="M-2970.748 3382.424v-20.798"/><path fill="#000" d="M-3595.76 3132.933v37.921a5.416 5.416 0 0 0 5.418 5.417h37.921c2.98 0 5.417-2.437 5.417-5.417v-37.921c0-2.98-2.437-5.418-5.417-5.418h-37.921a5.416 5.416 0 0 0-5.418 5.418m32.505 10.834a8.115 8.115 0 0 1-8.126 8.126 8.115 8.115 0 0 1-8.127-8.126 8.115 8.115 0 0 1 8.126-8.126 8.115 8.115 0 0 1 8.126 8.126m-24.378 21.67c0-5.418 10.834-8.397 16.251-8.397s16.253 2.98 16.253 8.397v2.708h-32.505z"/><path stroke="#000" stroke-linecap="round" stroke-linejoin="round" stroke-width="2" marker-end="url(#b)" d="M-3547.004 3143.256c26.277-10.831 69.415-32.998 107.161-72.802 32.504-34.275 52.61-72.77 64.13-100.498"/><path fill="#fff" d="M-3320.215 3111.29h118.492v24.336h-118.492z"/><text fill="#000" transform="translate(-3315.215 3116.29)"><tspan x="0" y="11" font-family="Helvetica Neue" font-size="12" font-style="italic">3.1 httpbin.tetrate.io</tspan></text><path fill="url(#c)" d="m-3517.683 2756.22-8.139-14.097a3.57 3.57 0 0 1 0-3.566l8.139-14.097a3.57 3.57 0 0 1 3.088-1.783h16.277c1.274 0 2.45.68 3.088 1.783l8.138 14.097a3.57 3.57 0 0 1 0 3.566l-8.138 14.097a3.57 3.57 0 0 1-3.088 1.783h-16.277a3.57 3.57 0 0 1-3.088-1.783"/><path fill="#fff" d="m-3498.696 2735.377-7.341-4.238a.84.84 0 0 0-.837 0l-7.34 4.238a.84.84 0 0 0-.419.725v8.476c0 .299.16.575.419.724l7.34 4.239c.259.15.578.15.837 0l7.34-4.239a.84.84 0 0 0 .419-.724v-8.476a.84.84 0 0 0-.418-.725m-1.007 8.39-2.561-1.479v-3.895l-3.782 2.183v4.368l3.373-1.947 2.56 1.479-6.343 3.662-6.343-3.662 2.561-1.479 3.374 1.947v-4.368l-3.782-2.183v3.895l-2.561 1.479v-7.325l6.343-3.662v2.957l-3.373 1.948 3.782 2.182 3.781-2.182-3.372-1.948v-2.957l6.343 3.662z"/><path fill="url(#d)" d="m-3061.305 2756.22-8.139-14.097a3.57 3.57 0 0 1 0-3.566l8.139-14.097a3.57 3.57 0 0 1 3.088-1.783h16.277c1.274 0 2.45.68 3.088 1.783l8.138 14.097a3.57 3.57 0 0 1 0 3.566l-8.139 14.097a3.57 3.57 0 0 1-3.087 1.783h-16.277a3.57 3.57 0 0 1-3.088-1.783"/><path fill="#fff" d="m-3042.318 2735.377-7.341-4.238a.84.84 0 0 0-.837 0l-7.34 4.238a.84.84 0 0 0-.419.725v8.476c0 .299.16.575.419.724l7.34 4.239c.259.15.578.15.837 0l7.34-4.239a.84.84 0 0 0 .419-.724v-8.476a.84.84 0 0 0-.418-.725m-1.007 8.39-2.561-1.479v-3.895l-3.782 2.183v4.368l3.373-1.947 2.56 1.479-6.342 3.662-6.344-3.662 2.561-1.479 3.374 1.947v-4.368l-3.782-2.183v3.895l-2.561 1.479v-7.325l6.343-3.662v2.957l-3.373 1.948 3.782 2.182 3.781-2.182-3.373-1.948v-2.957l6.344 3.662z"/><path fill="url(#e)" d="m-3517.683 3174.489-8.139-14.098a3.57 3.57 0 0 1 0-3.565l8.139-14.097a3.57 3.57 0 0 1 3.088-1.783h16.277c1.274 0 2.45.68 3.088 1.783l8.138 14.097a3.57 3.57 0 0 1 0 3.565l-8.138 14.098a3.57 3.57 0 0 1-3.088 1.782h-16.277a3.57 3.57 0 0 1-3.088-1.782"/><path fill="#fff" d="m-3498.696 3153.646-7.341-4.239a.84.84 0 0 0-.837 0l-7.34 4.239a.84.84 0 0 0-.419.724v8.477c0 .298.16.575.419.724l7.34 4.238c.259.15.578.15.837 0l7.34-4.238a.84.84 0 0 0 .419-.724v-8.477a.84.84 0 0 0-.418-.724m-1.007 8.39-2.561-1.48v-3.894l-3.782 2.182v4.369l3.373-1.947 2.56 1.478-6.343 3.662-6.343-3.662 2.561-1.478 3.374 1.947v-4.369l-3.782-2.182v3.895l-2.561 1.478v-7.324l6.343-3.662v2.957l-3.373 1.947 3.782 2.183 3.781-2.183-3.372-1.947v-2.957l6.343 3.662z"/><path fill="url(#f)" d="m-3061.305 3174.489-8.139-14.098a3.57 3.57 0 0 1 0-3.565l8.139-14.097a3.57 3.57 0 0 1 3.088-1.783h16.277c1.274 0 2.45.68 3.088 1.783l8.138 14.097a3.57 3.57 0 0 1 0 3.565l-8.139 14.098a3.57 3.57 0 0 1-3.087 1.782h-16.277a3.57 3.57 0 0 1-3.088-1.782"/><path fill="#fff" d="m-3042.318 3153.646-7.341-4.239a.84.84 0 0 0-.837 0l-7.34 4.239a.84.84 0 0 0-.419.724v8.477c0 .298.16.575.419.724l7.34 4.238c.259.15.578.15.837 0l7.34-4.238a.84.84 0 0 0 .419-.724v-8.477a.84.84 0 0 0-.418-.724m-1.007 8.39-2.561-1.48v-3.894l-3.782 2.182v4.369l3.373-1.947 2.56 1.478-6.342 3.662-6.344-3.662 2.561-1.478 3.374 1.947v-4.369l-3.782-2.182v3.895l-2.561 1.478v-7.324l6.343-3.662v2.957l-3.373 1.947 3.782 2.183 3.781-2.183-3.373-1.947v-2.957l6.344 3.662z"/><path stroke="#000" stroke-linecap="round" stroke-linejoin="round" stroke-width="2" marker-end="url(#b)" d="M-3328.418 2957.953c41.764 35.207 113.93 106.405 171.203 216.83 85.929 165.673 5.713 280.7 97.924 341.739 68.51 45.35 160.833-46.4 203.765-96.559"/><path fill="#fff" d="M-3043.791 3461.102h293.644v41.336h-293.644z"/><text fill="#000" transform="translate(-3038.791 3466.102)"><tspan x="47.442" y="13" font-family="PingFang SC" font-size="12">1.2 </tspan> <tspan y="13" font-family="Helvetica Neue" font-size="12" font-style="italic">bookinfo.tetrate.io/productpage</tspan> <tspan x="0" y="28" font-family="Helvetica Neue" font-size="12" font-style="italic">and X-CLUSTER-SELECTOR=gke-jimmy-us-west1-2</tspan></text><path stroke="#000" stroke-linecap="round" stroke-linejoin="round" stroke-width="2" marker-end="url(#b)" d="M-3327.278 2957.953c14.964 10.861 35.64 25.687 63.75 45.525 78.584 55.46 93.77 139.322 178.31 124.015 60.565-10.966 95.991-97.595 111.214-145.851"/><path fill="#fff" d="M-3190.766 3048.955h486.58v24.336h-486.58z"/><text fill="#000" transform="translate(-3185.766 3053.955)"><tspan x="0" y="11" font-family="Helvetica Neue" font-size="12" font-style="italic">1.1 bookinfo.tetrate.io/productpage and X-CLUSTER-SELECTOR=gke-jimmy-us-west1-1</tspan></text><text fill="#000" transform="translate(-3593.606 3181.271)"><tspan x="0" y="16" font-family="Helvetica Neue" font-size="16" font-weight="bold">Users</tspan></text><path fill="#fff" d="M-2678.11 3375.566h49.182a8 8 0 0 1 8 8v7.047a8 8 0 0 1-8 8h-49.182a8 8 0 0 1-8-8v-7.047a8 8 0 0 1 8-8"/><path stroke="gray" stroke-dasharray="4 4" stroke-linecap="round" stroke-linejoin="round" d="M-2678.11 3375.566h49.182a8 8 0 0 1 8 8v7.047a8 8 0 0 1-8 8h-49.182a8 8 0 0 1-8-8v-7.047a8 8 0 0 1 8-8"/><text fill="#000" transform="translate(-2609.612 3376.832)"><tspan x="0" y="15" font-family="Helvetica Neue" font-size="16">Application</tspan></text><path fill="#ececec" d="M-2678.11 3312.8h49.182a8 8 0 0 1 8 8v7.047a8 8 0 0 1-8 8h-49.182a8 8 0 0 1-8-8v-7.047a8 8 0 0 1 8-8"/><path stroke="#f15623" stroke-dasharray="8 8" stroke-linecap="round" stroke-linejoin="round" stroke-width="2" d="M-2678.11 3312.8h49.182a8 8 0 0 1 8 8v7.047a8 8 0 0 1-8 8h-49.182a8 8 0 0 1-8-8v-7.047a8 8 0 0 1 8-8"/><text fill="#000" transform="translate(-2609.612 3314.872)"><tspan x="0" y="15" font-family="Helvetica Neue" font-size="16">TSB Configuration</tspan></text><path fill="#fff" d="M-2678.11 3344.673h49.182a8 8 0 0 1 8 8v7.047a8 8 0 0 1-8 8h-49.182a8 8 0 0 1-8-8v-7.047a8 8 0 0 1 8-8"/><path stroke="gray" stroke-linecap="round" stroke-linejoin="round" d="M-2678.11 3344.673h49.182a8 8 0 0 1 8 8v7.047a8 8 0 0 1-8 8h-49.182a8 8 0 0 1-8-8v-7.047a8 8 0 0 1 8-8"/><text fill="#000" transform="translate(-2609.612 3345.852)"><tspan x="0" y="15" font-family="Helvetica Neue" font-size="16">Namespace</tspan></text><text fill="#000" transform="translate(-2609.612 3435.988)"><tspan x="0" y="15" font-family="Helvetica Neue" font-size="16">Traffic Route</tspan></text><path stroke="#000" stroke-linecap="round" stroke-linejoin="round" stroke-width="2" marker-end="url(#b)" d="m-2686.371 3444.922 52.803-.173"/><path fill="#333" d="M-2678.11 3406.459h49.182a8 8 0 0 1 8 8v6.557a8 8 0 0 1-8 8h-49.182a8 8 0 0 1-8-8v-6.557a8 8 0 0 1 8-8"/><text fill="#000" transform="translate(-2609.612 3408.513)"><tspan x="0" y="15" font-family="Helvetica Neue" font-size="16">Service</tspan></text><path fill="#ccc" d="M-2678.11 3280.926h49.182a8 8 0 0 1 8 8v7.047a8 8 0 0 1-8 8h-49.182a8 8 0 0 1-8-8v-7.047a8 8 0 0 1 8-8"/><text fill="#000" transform="translate(-2609.612 3284.222)"><tspan x="0" y="15" font-family="Helvetica Neue" font-size="16">Cluster</tspan></text><text fill="#000" transform="translate(-2681.37 3186.19)"><tspan x="0" y="16" font-family="Helvetica Neue" font-size="16" font-weight="bold">Legend</tspan></text><path fill="#f15623" d="M-2660.797 3214.579h14.556a4 4 0 0 1 4 4v14.556a4 4 0 0 1-4 4h-14.557a4 4 0 0 1-4-4v-14.556a4 4 0 0 1 4-4"/><path fill="#fff" d="M-2655.175 3234.377c-1.348-1.354-1.547-1.57-1.57-1.698-.08-.448.297-.809.757-.722.125.023.274.153.967.841l.82.814v-9.435l-2.33 2.33-2.33 2.33 1.115.02c1.093.02 1.12.022 1.269.115.16.1.3.34.3.517 0 .178-.14.417-.3.517l-.153.095h-4.344v-2.199c0-2.16.001-2.201.081-2.308.153-.205.282-.272.524-.272.169 0 .255.022.348.088.24.172.251.239.251 1.478v1.12l2.785-2.785 2.784-2.784v-2.906l-.168-.072c-.325-.14-.693-.47-.888-.794-.262-.438-.325-1.097-.152-1.588.392-1.111 1.694-1.62 2.725-1.067.263.141.665.545.792.795.485.958.13 2.095-.808 2.588l-.276.145v2.899l2.843 2.844 2.844 2.843v-1.18c0-1.127.004-1.185.084-1.327.166-.296.563-.405.827-.227.074.05.174.15.224.224l.09.133-.01 2.176-.01 2.176-2.034.012c-1.119.006-2.111 0-2.205-.013a.6.6 0 0 1-.326-.164c-.343-.31-.275-.725.17-1.046.006-.004.495-.018 1.087-.03l1.077-.023-2.331-2.33-2.33-2.33v9.399l.78-.778c.429-.427.83-.796.891-.819a.62.62 0 0 1 .728.235c.11.16.122.486.024.633-.07.106-3.021 3.08-3.056 3.08-.012 0-.716-.698-1.566-1.55"/><text fill="#000" transform="translate(-2609.612 3216.633)"><tspan x="0" y="15" font-family="Helvetica Neue" font-size="16">Ingress Gateway</tspan></text><path fill="#f15623" d="M-2678.11 3246.458h49.182a8 8 0 0 1 8 8v9.146a8 8 0 0 1-8 8h-49.182a8 8 0 0 1-8-8v-9.146a8 8 0 0 1 8-8"/><text fill="#000" transform="translate(-2609.612 3249.807)"><tspan x="0" y="15" font-family="Helvetica Neue" font-size="16">TSB Component</tspan></text><path stroke="gray" stroke-linecap="round" stroke-linejoin="round" d="M-2691.496 3179.1h222.52v286.254h-222.52z"/><path fill="#fff" d="M-3213.572 3497.953h215.14v24.336h-215.14z"/><text fill="#000" transform="translate(-3208.572 3502.953)"><tspan x="0" y="11" font-family="Helvetica Neue" font-size="12" font-style="italic">2.1 bookinfo.tetrate.io/api/v1/products</tspan></text><path fill="#fff" d="M-3131.671 3082.276h199.6v24.336h-199.6z"/><text fill="#000" transform="translate(-3126.67 3087.276)"><tspan x="0" y="11" font-family="Helvetica Neue" font-size="12" font-style="italic">1.3 bookinfo.tetrate.io/productpage</tspan></text><path fill="#fff" d="M-3595.76 3052.763h295.792v53.008h-295.792z"/><text fill="#000" transform="translate(-3590.76 3057.763)"><tspan x="35.094" y="11" font-family="Helvetica Neue" font-size="12" font-style="italic">1. http://bookinfo.tetrate.io/productpage</tspan> <tspan x="0" y="25.336" font-family="Helvetica Neue" font-size="12" font-style="italic">2. http://bookinfo.tetrate.io/api/v1/products/1/reviews</tspan> <tspan x="65.094" y="39.672" font-family="Helvetica Neue" font-size="12" font-style="italic">3. http://httpbin.tetrate.io/get</tspan></text></g></svg>