<svg xmlns="http://www.w3.org/2000/svg" xmlns:xl="http://www.w3.org/1999/xlink" width="1175" height="838" viewBox="-3806 2884 1175 838"><defs><linearGradient id="a" x1="0" x2="1" gradientUnits="userSpaceOnUse"><stop offset="0" stop-color="#4387fd"/><stop offset="1" stop-color="#4683ea"/></linearGradient><linearGradient xl:href="#a" id="c" gradientTransform="translate(-3716.22 2919.761)scale(39.68504)"/><linearGradient xl:href="#a" id="d" gradientTransform="translate(-3259.843 2919.761)scale(39.68504)"/><linearGradient xl:href="#a" id="e" gradientTransform="translate(-3716.22 3338.03)scale(39.68504)"/><linearGradient xl:href="#a" id="f" gradientTransform="translate(-3259.843 3338.03)scale(39.68504)"/><marker id="b" stroke-linejoin="miter" stroke-miterlimit="10" color="#000" markerHeight="6" markerUnits="strokeWidth" markerWidth="7" orient="auto" overflow="visible" viewBox="-1 -3 7 6"><path fill="currentColor" stroke="currentColor" d="M4.8 0 0-1.8v3.6Z"/></marker></defs><g fill="none"><path fill="#fff" d="M-3806 2884h1175v838h-1175z"/><path fill="#ccc" d="M-3698.3 2919.106h291.56a8 8 0 0 1 8 8v291.56a8 8 0 0 1-8 8h-291.56a8 8 0 0 1-8-8v-291.56a8 8 0 0 1 8-8"/><text fill="#000" transform="translate(-3701.3 2924.106)"><tspan x="57.932" y="16" font-family="Helvetica Neue" font-size="16">gke-jimmy-us-central1-1</tspan></text><path fill="#ccc" d="M-3241.213 2919.106h291.56a8 8 0 0 1 8 8v291.56a8 8 0 0 1-8 8h-291.56a8 8 0 0 1-8-8v-291.56a8 8 0 0 1 8-8"/><text fill="#000" transform="translate(-3244.213 2924.106)"><tspan x="65.788" y="16" font-family="Helvetica Neue" font-size="16">gke-jimmy-us-west1-1</tspan></text><path fill="#ccc" d="M-3241.213 3332.965h291.56a8 8 0 0 1 8 8v291.559a8 8 0 0 1-8 8h-291.56a8 8 0 0 1-8-8v-291.56a8 8 0 0 1 8-8"/><text fill="#000" transform="translate(-3244.213 3337.965)"><tspan x="65.788" y="16" font-family="Helvetica Neue" font-size="16">gke-jimmy-us-west1-2</tspan></text><path fill="#ccc" d="M-3698.3 3332.965h291.56a8 8 0 0 1 8 8v291.559a8 8 0 0 1-8 8h-291.56a8 8 0 0 1-8-8v-291.56a8 8 0 0 1 8-8"/><text fill="#000" transform="translate(-3701.3 3337.965)"><tspan x="65.788" y="16" font-family="Helvetica Neue" font-size="16">gke-jimmy-us-west2-3</tspan></text><path fill="#ececec" d="M-3683.238 2962.165h261.437a8 8 0 0 1 8 8v236.198a8 8 0 0 1-8 8h-261.437a8 8 0 0 1-8-8v-236.198a8 8 0 0 1 8-8"/><path stroke="#f15623" stroke-dasharray="8 8" stroke-linecap="round" stroke-linejoin="round" stroke-width="2" d="M-3683.238 2962.165h261.437a8 8 0 0 1 8 8v236.198a8 8 0 0 1-8 8h-261.437a8 8 0 0 1-8-8v-236.198a8 8 0 0 1 8-8"/><text fill="#f15623" transform="translate(-3686.238 2967.165)"><tspan x="95.338" y="13" font-family="Helvetica Neue" font-size="14">Tenant: tier1</tspan> <tspan x="81.093" y="29.392" font-family="Helvetica Neue" font-size="14">Workspace: tier1</tspan> <tspan x="89.78" y="45.784" font-family="Helvetica Neue" font-size="14">Network: tier1</tspan></text><path fill="#fff" d="M-3665.719 3018.319h226.399a8 8 0 0 1 8 8v164a8 8 0 0 1-8 8h-226.399a8 8 0 0 1-8-8v-164a8 8 0 0 1 8-8"/><path stroke="gray" stroke-linecap="round" stroke-linejoin="round" d="M-3665.719 3018.319h226.399a8 8 0 0 1 8 8v164a8 8 0 0 1-8 8h-226.399a8 8 0 0 1-8-8v-164a8 8 0 0 1 8-8"/><text fill="#000" transform="translate(-3668.719 3028.319)"><tspan x="53.223" y="15" font-family="Helvetica Neue" font-size="16">Namespace: tier1</tspan></text><path fill="#f15623" d="M-3621.764 3084.933h138.488a8 8 0 0 1 8 8v36.441a8 8 0 0 1-8 8h-138.488a8 8 0 0 1-8-8v-36.441a8 8 0 0 1 8-8"/><text fill="#fff" transform="translate(-3624.764 3101.421)"><tspan x="18.444" y="16" font-family="Helvetica Neue" font-size="16">Edge Gateway</tspan></text><path fill="#ececec" d="M-3226.152 2962.165h261.438a8 8 0 0 1 8 8v236.198a8 8 0 0 1-8 8h-261.438a8 8 0 0 1-8-8v-236.198a8 8 0 0 1 8-8"/><path stroke="#f15623" stroke-dasharray="8 8" stroke-linecap="round" stroke-linejoin="round" stroke-width="2" d="M-3226.152 2962.165h261.438a8 8 0 0 1 8 8v236.198a8 8 0 0 1-8 8h-261.438a8 8 0 0 1-8-8v-236.198a8 8 0 0 1 8-8"/><text fill="#f15623" transform="translate(-3229.152 2967.165)"><tspan x="81.842" y="13" font-family="Helvetica Neue" font-size="14">Tenant: payment</tspan> <tspan x="27.032" y="29.392" font-family="Helvetica Neue" font-size="14">Workspace: bookinfo-frontend-ws</tspan> <tspan x="65.658" y="45.784" font-family="Helvetica Neue" font-size="14">Network: cp-cluster-1</tspan></text><path fill="#fff" d="M-3208.632 3018.319h226.398a8 8 0 0 1 8 8v164a8 8 0 0 1-8 8h-226.399a8 8 0 0 1-8-8v-164a8 8 0 0 1 8-8"/><path stroke="gray" stroke-linecap="round" stroke-linejoin="round" d="M-3208.632 3018.319h226.398a8 8 0 0 1 8 8v164a8 8 0 0 1-8 8h-226.399a8 8 0 0 1-8-8v-164a8 8 0 0 1 8-8"/><text fill="#000" transform="translate(-3211.633 3028.319)"><tspan x="4.615" y="15" font-family="Helvetica Neue" font-size="16">Namespace: bookinfo-frontend</tspan></text><path fill="#fff" d="M-3177.787 3065.09h164.708a8 8 0 0 1 8 8v101.638a8 8 0 0 1-8 8h-164.708a8 8 0 0 1-8-8v-101.637a8 8 0 0 1 8-8"/><path stroke="gray" stroke-dasharray="4 4" stroke-linecap="round" stroke-linejoin="round" d="M-3177.787 3065.09h164.708a8 8 0 0 1 8 8v101.638a8 8 0 0 1-8 8h-164.708a8 8 0 0 1-8-8v-101.637a8 8 0 0 1 8-8"/><text fill="#000" transform="translate(-3180.787 3070.09)"><tspan x="18.666" y="16" font-family="Helvetica Neue" font-size="16">bookinfo-frontend</tspan></text><path fill="#ececec" d="M-3226.152 3376.023h261.438a8 8 0 0 1 8 8v236.198a8 8 0 0 1-8 8h-261.438a8 8 0 0 1-8-8v-236.198a8 8 0 0 1 8-8"/><path stroke="#f15623" stroke-dasharray="8 8" stroke-linecap="round" stroke-linejoin="round" stroke-width="2" d="M-3226.152 3376.023h261.438a8 8 0 0 1 8 8v236.198a8 8 0 0 1-8 8h-261.438a8 8 0 0 1-8-8v-236.198a8 8 0 0 1 8-8"/><text fill="#f15623" transform="translate(-3229.152 3381.023)"><tspan x="81.842" y="13" font-family="Helvetica Neue" font-size="14">Tenant: payment</tspan> <tspan x="26.122" y="29.392" font-family="Helvetica Neue" font-size="14">Workspace: bookinfo-backend-ws</tspan> <tspan x="65.658" y="45.784" font-family="Helvetica Neue" font-size="14">Network: cp-cluster-2</tspan></text><path fill="#fff" d="M-3208.632 3432.177h226.398a8 8 0 0 1 8 8v164a8 8 0 0 1-8 8h-226.399a8 8 0 0 1-8-8v-164a8 8 0 0 1 8-8"/><path stroke="gray" stroke-linecap="round" stroke-linejoin="round" d="M-3208.632 3432.177h226.398a8 8 0 0 1 8 8v164a8 8 0 0 1-8 8h-226.399a8 8 0 0 1-8-8v-164a8 8 0 0 1 8-8"/><text fill="#000" transform="translate(-3211.633 3442.177)"><tspan x="3.575" y="15" font-family="Helvetica Neue" font-size="16">Namespace: bookinfo-backend</tspan></text><path fill="#ececec" d="M-3683.238 3376.023h261.437a8 8 0 0 1 8 8v236.198a8 8 0 0 1-8 8h-261.437a8 8 0 0 1-8-8v-236.198a8 8 0 0 1 8-8"/><path stroke="#f15623" stroke-dasharray="8 8" stroke-linecap="round" stroke-linejoin="round" stroke-width="2" d="M-3683.238 3376.023h261.437a8 8 0 0 1 8 8v236.198a8 8 0 0 1-8 8h-261.437a8 8 0 0 1-8-8v-236.198a8 8 0 0 1 8-8"/><text fill="#f15623" transform="translate(-3686.238 3381.023)"><tspan x="77.957" y="13" font-family="Helvetica Neue" font-size="14">Tenant: marketing</tspan> <tspan x="57.755" y="29.392" font-family="Helvetica Neue" font-size="14">Workspace: httpsbin-ws</tspan> <tspan x="65.658" y="45.784" font-family="Helvetica Neue" font-size="14">Network: cp-cluster-3</tspan></text><path fill="#fff" d="M-3665.719 3432.177h226.399a8 8 0 0 1 8 8v164a8 8 0 0 1-8 8h-226.399a8 8 0 0 1-8-8v-164a8 8 0 0 1 8-8"/><path stroke="gray" stroke-linecap="round" stroke-linejoin="round" d="M-3665.719 3432.177h226.399a8 8 0 0 1 8 8v164a8 8 0 0 1-8 8h-226.399a8 8 0 0 1-8-8v-164a8 8 0 0 1 8-8"/><text fill="#000" transform="translate(-3668.719 3442.177)"><tspan x="43.727" y="15" font-family="Helvetica Neue" font-size="16">Namespace: httpbin</tspan></text><path fill="#333" d="M-3136.33 3118.11h81.794a8 8 0 0 1 8 8v23.685a8 8 0 0 1-8 8h-81.795a8 8 0 0 1-8-8v-23.685a8 8 0 0 1 8-8"/><text fill="#fff" transform="translate(-3139.33 3129.25)"><tspan x="2.402" y="14" font-family="Helvetica Neue" font-size="14">productpage</tspan></text><path fill="#fff" d="M-3187.156 3470.486h183.445a8 8 0 0 1 8 8v115.811a8 8 0 0 1-8 8h-183.445a8 8 0 0 1-8-8v-115.811a8 8 0 0 1 8-8"/><path stroke="gray" stroke-dasharray="4 4" stroke-linecap="round" stroke-linejoin="round" d="M-3187.156 3470.486h183.445a8 8 0 0 1 8 8v115.811a8 8 0 0 1-8 8h-183.445a8 8 0 0 1-8-8v-115.811a8 8 0 0 1 8-8"/><text fill="#000" transform="translate(-3190.156 3475.486)"><tspan x="27.147" y="16" font-family="Helvetica Neue" font-size="16">bookinfo-backend</tspan></text><path fill="#333" d="M-3181.054 3561.845h40.77a8 8 0 0 1 8 8v11.655a8 8 0 0 1-8 8h-40.77a8 8 0 0 1-8-8v-11.655a8 8 0 0 1 8-8"/><text fill="#fff" transform="translate(-3184.054 3569.528)"><tspan x="5.87" y="10" font-family="Helvetica Neue" font-size="10">reviews</tspan></text><path fill="#333" d="M-3107.276 3561.845h40.771a8 8 0 0 1 8 8v11.655a8 8 0 0 1-8 8h-40.77a8 8 0 0 1-8-8v-11.655a8 8 0 0 1 8-8"/><text fill="#fff" transform="translate(-3110.276 3569.528)"><tspan x="8.1" y="10" font-family="Helvetica Neue" font-size="10">details</tspan></text><path fill="#333" d="M-3181.054 3500.492h40.77a8 8 0 0 1 8 8v11.655a8 8 0 0 1-8 8h-40.77a8 8 0 0 1-8-8v-11.655a8 8 0 0 1 8-8"/><text fill="#fff" transform="translate(-3184.054 3508.174)"><tspan x="7.545" y="10" font-family="Helvetica Neue" font-size="10">ratings</tspan></text><path fill="#fff" d="M-3634.874 3477.573h164.709a8 8 0 0 1 8 8v101.637a8 8 0 0 1-8 8h-164.709a8 8 0 0 1-8-8v-101.637a8 8 0 0 1 8-8"/><path stroke="gray" stroke-dasharray="4 4" stroke-linecap="round" stroke-linejoin="round" d="M-3634.874 3477.573h164.709a8 8 0 0 1 8 8v101.637a8 8 0 0 1-8 8h-164.709a8 8 0 0 1-8-8v-101.637a8 8 0 0 1 8-8"/><text fill="#000" transform="translate(-3637.874 3482.573)"><tspan x="59.138" y="16" font-family="Helvetica Neue" font-size="16">httpbin</tspan></text><path fill="#333" d="M-3583.875 3516.549h62.711a8 8 0 0 1 8 8v23.685a8 8 0 0 1-8 8h-62.711a8 8 0 0 1-8-8v-23.685a8 8 0 0 1 8-8"/><text fill="#fff" transform="translate(-3586.875 3526.66)"><tspan x="8.14" y="16" font-family="Helvetica Neue" font-size="16">httpbin</tspan></text><path fill="#f15623" d="M-3037.497 3549.815h31.685a4 4 0 0 1 4 4v31.685a4 4 0 0 1-4 4h-31.685a4 4 0 0 1-4-4v-31.685a4 4 0 0 1 4-4"/><path fill="#fff" d="M-3024.567 3584.647c-2.373-2.382-2.723-2.76-2.763-2.987-.14-.79.523-1.423 1.331-1.271.22.041.484.27 1.703 1.481l1.442 1.432v-16.6l-4.1 4.1-4.1 4.099 1.963.035c1.924.034 1.97.038 2.233.201.283.176.527.598.527.91s-.244.735-.527.91l-.27.168h-7.643v-3.87c0-3.799.003-3.872.143-4.06.27-.361.496-.479.922-.479.297 0 .448.039.612.156.422.301.443.42.443 2.6v1.97l4.898-4.899 4.9-4.899v-5.112l-.296-.128c-.573-.247-1.22-.826-1.562-1.396-.462-.771-.573-1.93-.268-2.795.69-1.954 2.98-2.85 4.794-1.876.463.248 1.17.958 1.393 1.399.854 1.685.23 3.685-1.421 4.553l-.487.255v5.1l5.003 5.003 5.004 5.003v-2.075c0-1.985.006-2.087.147-2.337.293-.521.991-.712 1.456-.398.13.087.306.264.393.393l.159.235-.018 3.829-.018 3.828-3.579.02c-1.968.011-3.714.001-3.879-.023-.208-.029-.384-.118-.573-.288-.603-.545-.483-1.276.3-1.841.01-.007.87-.03 1.912-.052l1.894-.04-4.1-4.1-4.1-4.099v16.536l1.372-1.368c.755-.753 1.46-1.401 1.568-1.441a1.09 1.09 0 0 1 1.28.413c.193.282.215.854.043 1.114-.122.185-5.316 5.418-5.377 5.418-.02 0-1.26-1.227-2.754-2.727"/><path stroke="#000" stroke-linecap="round" stroke-linejoin="round" stroke-width="2" marker-end="url(#b)" d="M-3019.669 3549.815c-.25-9.574-2.5-20.551-10.093-27.913q-.542-.524-1.106-1.013"/><path fill="#000" d="M-3782.835 3274.602v37.922a5.416 5.416 0 0 0 5.418 5.417h37.921c2.98 0 5.417-2.438 5.417-5.417v-37.922c0-2.979-2.438-5.417-5.417-5.417h-37.921a5.416 5.416 0 0 0-5.418 5.417m32.504 10.835a8.115 8.115 0 0 1-8.126 8.126 8.115 8.115 0 0 1-8.126-8.126 8.115 8.115 0 0 1 8.126-8.126 8.115 8.115 0 0 1 8.126 8.126m-24.378 21.67c0-5.418 10.835-8.398 16.252-8.398 5.418 0 16.252 2.98 16.252 8.397v2.709h-32.504z"/><path stroke="#000" stroke-linecap="round" stroke-linejoin="round" stroke-width="2" marker-end="url(#b)" d="M-3734.079 3285.919c22.815-8.588 58.577-25.604 93.797-56.8 30.169-26.723 52.604-57.352 67.237-80.702"/><path fill="url(#c)" d="m-3707.604 2935.642-8.139-14.098a3.57 3.57 0 0 1 0-3.565l8.139-14.098a3.57 3.57 0 0 1 3.087-1.783h16.278c1.273 0 2.45.68 3.087 1.783l8.139 14.098a3.57 3.57 0 0 1 0 3.565l-8.139 14.098a3.57 3.57 0 0 1-3.087 1.782h-16.278c-1.273 0-2.45-.68-3.087-1.782"/><path fill="#fff" d="m-3688.618 2914.798-7.34-4.238a.84.84 0 0 0-.837 0l-7.34 4.238a.84.84 0 0 0-.419.725v8.476c0 .299.16.575.419.725l7.34 4.238c.259.15.578.15.837 0l7.34-4.238a.84.84 0 0 0 .419-.725v-8.476a.84.84 0 0 0-.419-.725m-1.007 8.39-2.56-1.479v-3.894l-3.783 2.182v4.369l3.373-1.948 2.561 1.479-6.343 3.662-6.343-3.662 2.561-1.479 3.373 1.948v-4.369l-3.782-2.182v3.894l-2.56 1.479v-7.324l6.343-3.662v2.957l-3.374 1.947 3.782 2.183 3.782-2.183-3.373-1.947v-2.957l6.343 3.662z"/><path fill="url(#d)" d="m-3251.226 2935.642-8.139-14.098a3.57 3.57 0 0 1 0-3.565l8.139-14.098a3.57 3.57 0 0 1 3.087-1.783h16.278c1.273 0 2.45.68 3.087 1.783l8.139 14.098a3.57 3.57 0 0 1 0 3.565l-8.139 14.098a3.57 3.57 0 0 1-3.087 1.782h-16.278c-1.273 0-2.45-.68-3.087-1.782"/><path fill="#fff" d="m-3232.24 2914.798-7.34-4.238a.84.84 0 0 0-.837 0l-7.34 4.238a.84.84 0 0 0-.419.725v8.476c0 .299.16.575.418.725l7.341 4.238c.259.15.578.15.837 0l7.34-4.238a.84.84 0 0 0 .419-.725v-8.476a.84.84 0 0 0-.419-.725m-1.007 8.39-2.56-1.479v-3.894l-3.783 2.182v4.369l3.373-1.948 2.561 1.479-6.343 3.662-6.343-3.662 2.561-1.479 3.373 1.948v-4.369l-3.782-2.182v3.894l-2.56 1.479v-7.324l6.343-3.662v2.957l-3.374 1.947 3.782 2.183 3.782-2.183-3.373-1.947v-2.957l6.343 3.662z"/><path fill="url(#e)" d="m-3707.604 3353.91-8.139-14.097a3.57 3.57 0 0 1 0-3.566l8.139-14.097a3.57 3.57 0 0 1 3.087-1.783h16.278c1.273 0 2.45.68 3.087 1.783l8.139 14.097a3.57 3.57 0 0 1 0 3.566l-8.139 14.097a3.57 3.57 0 0 1-3.087 1.783h-16.278c-1.273 0-2.45-.68-3.087-1.783"/><path fill="#fff" d="m-3688.618 3333.067-7.34-4.238a.84.84 0 0 0-.837 0l-7.34 4.238a.84.84 0 0 0-.419.724v8.477c0 .299.16.575.419.724l7.34 4.238c.259.15.578.15.837 0l7.34-4.238a.84.84 0 0 0 .419-.724v-8.477a.84.84 0 0 0-.419-.724m-1.007 8.39-2.56-1.479v-3.895l-3.783 2.183v4.368l3.373-1.947 2.561 1.478-6.343 3.663-6.343-3.663 2.561-1.478 3.373 1.947v-4.368l-3.782-2.183v3.895l-2.56 1.479v-7.325l6.343-3.662v2.957l-3.374 1.947 3.782 2.183 3.782-2.182-3.373-1.948v-2.957l6.343 3.662z"/><path fill="url(#f)" d="m-3251.226 3353.91-8.139-14.097a3.57 3.57 0 0 1 0-3.566l8.139-14.097a3.57 3.57 0 0 1 3.087-1.783h16.278c1.273 0 2.45.68 3.087 1.783l8.139 14.097a3.57 3.57 0 0 1 0 3.566l-8.139 14.097a3.57 3.57 0 0 1-3.087 1.783h-16.278c-1.273 0-2.45-.68-3.087-1.783"/><path fill="#fff" d="m-3232.24 3333.067-7.34-4.238a.84.84 0 0 0-.837 0l-7.34 4.238a.84.84 0 0 0-.419.724v8.477c0 .299.16.575.418.724l7.341 4.238c.259.15.578.15.837 0l7.34-4.238a.84.84 0 0 0 .419-.724v-8.477a.84.84 0 0 0-.419-.724m-1.007 8.39-2.56-1.479v-3.895l-3.783 2.183v4.368l3.373-1.947 2.561 1.478-6.343 3.663-6.343-3.663 2.561-1.478 3.373 1.947v-4.368l-3.782-2.183v3.895l-2.56 1.479v-7.325l6.343-3.662v2.957l-3.374 1.947 3.782 2.183 3.782-2.182-3.373-1.948v-2.957l6.343 3.662z"/><path stroke="#000" stroke-linecap="round" stroke-linejoin="round" stroke-width="2" marker-end="url(#b)" d="M-3518.339 3137.374c41.764 35.207 113.93 106.406 171.203 216.83 85.929 165.674 5.713 280.7 97.923 341.739 68.51 45.35 160.834-46.4 203.766-96.559"/><text fill="#000" transform="translate(-3780.68 3322.941)"><tspan x="0" y="16" font-family="Helvetica Neue" font-size="16" font-weight="bold">Users</tspan></text><path fill="#fff" d="M-2868.031 3554.987h49.181a8 8 0 0 1 8 8v7.047a8 8 0 0 1-8 8h-49.181a8 8 0 0 1-8-8v-7.047a8 8 0 0 1 8-8"/><path stroke="gray" stroke-dasharray="4 4" stroke-linecap="round" stroke-linejoin="round" d="M-2868.031 3554.987h49.181a8 8 0 0 1 8 8v7.047a8 8 0 0 1-8 8h-49.181a8 8 0 0 1-8-8v-7.047a8 8 0 0 1 8-8"/><text fill="#000" transform="translate(-2799.533 3556.253)"><tspan x="0" y="15" font-family="Helvetica Neue" font-size="16">Application</tspan></text><path fill="#ececec" d="M-2868.031 3492.221h49.181a8 8 0 0 1 8 8v7.047a8 8 0 0 1-8 8h-49.181a8 8 0 0 1-8-8v-7.047a8 8 0 0 1 8-8"/><path stroke="#f15623" stroke-dasharray="8 8" stroke-linecap="round" stroke-linejoin="round" stroke-width="2" d="M-2868.031 3492.221h49.181a8 8 0 0 1 8 8v7.047a8 8 0 0 1-8 8h-49.181a8 8 0 0 1-8-8v-7.047a8 8 0 0 1 8-8"/><text fill="#000" transform="translate(-2799.533 3494.293)"><tspan x="0" y="15" font-family="Helvetica Neue" font-size="16">TSB Configuration</tspan></text><path fill="#fff" d="M-2868.031 3524.095h49.181a8 8 0 0 1 8 8v7.047a8 8 0 0 1-8 8h-49.181a8 8 0 0 1-8-8v-7.047a8 8 0 0 1 8-8"/><path stroke="gray" stroke-linecap="round" stroke-linejoin="round" d="M-2868.031 3524.095h49.181a8 8 0 0 1 8 8v7.047a8 8 0 0 1-8 8h-49.181a8 8 0 0 1-8-8v-7.047a8 8 0 0 1 8-8"/><text fill="#000" transform="translate(-2799.533 3525.273)"><tspan x="0" y="15" font-family="Helvetica Neue" font-size="16">Namespace</tspan></text><text fill="#000" transform="translate(-2799.533 3615.41)"><tspan x="0" y="15" font-family="Helvetica Neue" font-size="16">Traffic Route</tspan></text><path stroke="#000" stroke-linecap="round" stroke-linejoin="round" stroke-width="2" marker-end="url(#b)" d="m-2876.292 3624.343 52.803-.172"/><path fill="#333" d="M-2868.031 3585.88h49.181a8 8 0 0 1 8 8v6.557a8 8 0 0 1-8 8h-49.181a8 8 0 0 1-8-8v-6.557a8 8 0 0 1 8-8"/><text fill="#000" transform="translate(-2799.533 3587.934)"><tspan x="0" y="15" font-family="Helvetica Neue" font-size="16">Service</tspan></text><path fill="#ccc" d="M-2868.031 3460.348h49.181a8 8 0 0 1 8 8v7.047a8 8 0 0 1-8 8h-49.181a8 8 0 0 1-8-8v-7.047a8 8 0 0 1 8-8"/><text fill="#000" transform="translate(-2799.533 3463.643)"><tspan x="0" y="15" font-family="Helvetica Neue" font-size="16">Cluster</tspan></text><text fill="#000" transform="translate(-2871.292 3365.61)"><tspan x="0" y="16" font-family="Helvetica Neue" font-size="16" font-weight="bold">Legend</tspan></text><path fill="#f15623" d="M-2850.719 3394h14.557a4 4 0 0 1 4 4v14.557a4 4 0 0 1-4 4h-14.557a4 4 0 0 1-4-4V3398a4 4 0 0 1 4-4"/><path fill="#fff" d="M-2845.096 3413.798c-1.349-1.354-1.548-1.569-1.57-1.698-.08-.448.297-.808.756-.722.125.023.275.154.968.842l.82.814v-9.436l-2.33 2.33-2.331 2.33 1.116.02c1.093.02 1.119.022 1.269.115.16.1.3.34.3.517 0 .178-.14.418-.3.517l-.153.095h-4.345v-2.199c0-2.159.002-2.2.082-2.308.153-.205.281-.272.523-.272.17 0 .255.022.348.088.24.172.252.24.252 1.478v1.12l2.784-2.784 2.785-2.785v-2.906l-.168-.072c-.325-.14-.694-.47-.888-.794-.263-.438-.326-1.097-.152-1.588.392-1.11 1.694-1.62 2.725-1.066.263.14.665.544.792.794.485.958.13 2.095-.808 2.588l-.277.146v2.899l2.844 2.843 2.844 2.843v-1.179c0-1.128.003-1.186.083-1.328.167-.296.564-.405.828-.226.074.049.174.15.224.223l.09.134-.01 2.176-.01 2.175-2.035.012c-1.118.006-2.11 0-2.205-.013a.6.6 0 0 1-.325-.164c-.343-.31-.275-.725.17-1.046.006-.004.495-.017 1.087-.03l1.076-.022-2.33-2.33-2.33-2.33v9.399l.78-.778c.428-.428.83-.797.89-.82a.62.62 0 0 1 .729.235c.109.16.122.486.024.633-.07.106-3.022 3.08-3.057 3.08-.011 0-.716-.697-1.565-1.55"/><text fill="#000" transform="translate(-2799.533 3396.054)"><tspan x="0" y="15" font-family="Helvetica Neue" font-size="16">Ingress Gateway</tspan></text><path fill="#f15623" d="M-2868.031 3425.879h49.181a8 8 0 0 1 8 8v9.147a8 8 0 0 1-8 8h-49.181a8 8 0 0 1-8-8v-9.147a8 8 0 0 1 8-8"/><text fill="#000" transform="translate(-2799.533 3429.228)"><tspan x="0" y="15" font-family="Helvetica Neue" font-size="16">TSB Component</tspan></text><path stroke="gray" stroke-linecap="round" stroke-linejoin="round" d="M-2881.417 3358.522h222.52v286.254h-222.52z"/><path fill="#fff" d="M-3752.255 3232.913h228.94v24.336h-228.94z"/><text fill="#000" transform="translate(-3747.255 3237.913)"><tspan x="1.668" y="11" font-family="Helvetica Neue" font-size="12" font-style="italic">1. http://bookinfo.tetrate.io/productpage</tspan></text><path stroke="#000" stroke-linecap="round" stroke-linejoin="round" stroke-width="2" marker-end="url(#b)" d="M-3160.669 3561.845v-20.798"/><path fill="#fff" d="M-3502.974 3273.805h231.376v24.336h-231.376z"/><text fill="#000" transform="translate(-3497.974 3278.805)"><tspan x="0" y="11" font-family="Helvetica Neue" font-size="12" font-style="italic">2. https://bookinfo.tetrate.io/productpage</tspan></text><path fill="#333" d="M-3107.276 3500.492h57.088a8 8 0 0 1 8 8v11.655a8 8 0 0 1-8 8h-57.088a8 8 0 0 1-8-8v-11.655a8 8 0 0 1 8-8"/><text fill="#fff" transform="translate(-3110.276 3508.174)"><tspan x="1.904" y="10" font-family="Helvetica Neue" font-size="10">productpage</tspan></text><path stroke="#000" stroke-linecap="round" stroke-linejoin="round" stroke-width="2" marker-end="url(#b)" d="M-3080.845 3528.147c-2.466 3.694-6.599 8.091-13.351 13.148-8.062 6.036-18.541 12.026-28.786 17.273"/><path stroke="#000" stroke-linecap="round" stroke-linejoin="round" stroke-width="2" marker-end="url(#b)" d="m-3080.57 3528.147-2.781 20.911"/></g></svg>