<svg xmlns="http://www.w3.org/2000/svg" xmlns:xl="http://www.w3.org/1999/xlink" width="1174" height="838" viewBox="-3711 2700 1174 838"><defs><linearGradient id="a" x1="0" x2="1" gradientUnits="userSpaceOnUse"><stop offset="0" stop-color="#4387fd"/><stop offset="1" stop-color="#4683ea"/></linearGradient><linearGradient xl:href="#a" id="c" gradientTransform="translate(-3621.26 2735.51)scale(39.68504)"/><linearGradient xl:href="#a" id="d" gradientTransform="translate(-3164.882 2735.51)scale(39.68504)"/><linearGradient xl:href="#a" id="e" gradientTransform="translate(-3621.26 3153.778)scale(39.68504)"/><linearGradient xl:href="#a" id="f" gradientTransform="translate(-3164.882 3153.778)scale(39.68504)"/><marker id="b" stroke-linejoin="miter" stroke-miterlimit="10" color="#000" markerHeight="6" markerUnits="strokeWidth" markerWidth="7" orient="auto" overflow="visible" viewBox="-1 -3 7 6"><path fill="currentColor" stroke="currentColor" d="M4.8 0 0-1.8v3.6Z"/></marker></defs><g fill="none"><path fill="#fff" d="M-3711 2700h1174v838h-1174z"/><path fill="#ccc" d="M-3603.339 2734.854h291.56a8 8 0 0 1 8 8v291.56a8 8 0 0 1-8 8h-291.56a8 8 0 0 1-8-8v-291.56a8 8 0 0 1 8-8"/><text fill="#000" transform="translate(-3606.339 2739.854)"><tspan x="57.932" y="16" font-family="Helvetica Neue" font-size="16">gke-jimmy-us-central1-1</tspan></text><path fill="#ccc" d="M-3146.252 2734.854h291.559a8 8 0 0 1 8 8v291.56a8 8 0 0 1-8 8h-291.559a8 8 0 0 1-8-8v-291.56a8 8 0 0 1 8-8"/><text fill="#000" transform="translate(-3149.252 2739.854)"><tspan x="65.788" y="16" font-family="Helvetica Neue" font-size="16">gke-jimmy-us-west1-1</tspan></text><path fill="#ccc" d="M-3146.252 3148.713h291.559a8 8 0 0 1 8 8v291.559a8 8 0 0 1-8 8h-291.559a8 8 0 0 1-8-8v-291.56a8 8 0 0 1 8-8"/><text fill="#000" transform="translate(-3149.252 3153.713)"><tspan x="65.788" y="16" font-family="Helvetica Neue" font-size="16">gke-jimmy-us-west1-2</tspan></text><path fill="#ccc" d="M-3603.339 3148.713h291.56a8 8 0 0 1 8 8v291.559a8 8 0 0 1-8 8h-291.56a8 8 0 0 1-8-8v-291.56a8 8 0 0 1 8-8"/><text fill="#000" transform="translate(-3606.339 3153.713)"><tspan x="65.788" y="16" font-family="Helvetica Neue" font-size="16">gke-jimmy-us-west2-3</tspan></text><path fill="#ececec" d="M-3588.278 2777.913h261.438a8 8 0 0 1 8 8v236.198a8 8 0 0 1-8 8h-261.438a8 8 0 0 1-8-8v-236.198a8 8 0 0 1 8-8"/><path stroke="#f15623" stroke-dasharray="8 8" stroke-linecap="round" stroke-linejoin="round" stroke-width="2" d="M-3588.278 2777.913h261.438a8 8 0 0 1 8 8v236.198a8 8 0 0 1-8 8h-261.438a8 8 0 0 1-8-8v-236.198a8 8 0 0 1 8-8"/><text fill="#f15623" transform="translate(-3591.278 2782.913)"><tspan x="95.338" y="13" font-family="Helvetica Neue" font-size="14">Tenant: tier1</tspan> <tspan x="81.093" y="29.392" font-family="Helvetica Neue" font-size="14">Workspace: tier1</tspan> <tspan x="89.78" y="45.784" font-family="Helvetica Neue" font-size="14">Network: tier1</tspan></text><path fill="#fff" d="M-3570.758 2834.067h226.398a8 8 0 0 1 8 8v164a8 8 0 0 1-8 8h-226.398a8 8 0 0 1-8-8v-164a8 8 0 0 1 8-8"/><path stroke="gray" stroke-linecap="round" stroke-linejoin="round" d="M-3570.758 2834.067h226.398a8 8 0 0 1 8 8v164a8 8 0 0 1-8 8h-226.398a8 8 0 0 1-8-8v-164a8 8 0 0 1 8-8"/><text fill="#000" transform="translate(-3573.758 2844.067)"><tspan x="53.223" y="15" font-family="Helvetica Neue" font-size="16">Namespace: tier1</tspan></text><path fill="#f15623" d="M-3526.803 2900.681h138.488a8 8 0 0 1 8 8v36.441a8 8 0 0 1-8 8h-138.488a8 8 0 0 1-8-8v-36.441a8 8 0 0 1 8-8"/><text fill="#fff" transform="translate(-3529.803 2917.17)"><tspan x="18.444" y="16" font-family="Helvetica Neue" font-size="16">Edge Gateway</tspan></text><path fill="#ececec" d="M-3131.191 2777.913h261.437a8 8 0 0 1 8 8v236.198a8 8 0 0 1-8 8h-261.437a8 8 0 0 1-8-8v-236.198a8 8 0 0 1 8-8"/><path stroke="#f15623" stroke-dasharray="8 8" stroke-linecap="round" stroke-linejoin="round" stroke-width="2" d="M-3131.191 2777.913h261.437a8 8 0 0 1 8 8v236.198a8 8 0 0 1-8 8h-261.437a8 8 0 0 1-8-8v-236.198a8 8 0 0 1 8-8"/><text fill="#f15623" transform="translate(-3134.191 2782.913)"><tspan x="81.842" y="13" font-family="Helvetica Neue" font-size="14">Tenant: payment</tspan> <tspan x="27.032" y="29.392" font-family="Helvetica Neue" font-size="14">Workspace: bookinfo-frontend-ws</tspan> <tspan x="65.658" y="45.784" font-family="Helvetica Neue" font-size="14">Network: cp-cluster-1</tspan></text><path fill="#fff" d="M-3113.672 2834.067h226.399a8 8 0 0 1 8 8v164a8 8 0 0 1-8 8h-226.399a8 8 0 0 1-8-8v-164a8 8 0 0 1 8-8"/><path stroke="gray" stroke-linecap="round" stroke-linejoin="round" d="M-3113.672 2834.067h226.399a8 8 0 0 1 8 8v164a8 8 0 0 1-8 8h-226.399a8 8 0 0 1-8-8v-164a8 8 0 0 1 8-8"/><text fill="#000" transform="translate(-3116.672 2844.067)"><tspan x="4.615" y="15" font-family="Helvetica Neue" font-size="16">Namespace: bookinfo-frontend</tspan></text><path fill="#fff" d="M-3082.827 2880.839h164.709a8 8 0 0 1 8 8v101.637a8 8 0 0 1-8 8h-164.709a8 8 0 0 1-8-8V2888.84a8 8 0 0 1 8-8"/><path stroke="gray" stroke-dasharray="4 4" stroke-linecap="round" stroke-linejoin="round" d="M-3082.827 2880.839h164.709a8 8 0 0 1 8 8v101.637a8 8 0 0 1-8 8h-164.709a8 8 0 0 1-8-8V2888.84a8 8 0 0 1 8-8"/><text fill="#000" transform="translate(-3085.827 2885.839)"><tspan x="18.666" y="16" font-family="Helvetica Neue" font-size="16">bookinfo-frontend</tspan></text><path fill="#ececec" d="M-3131.191 3191.771h261.437a8 8 0 0 1 8 8v236.198a8 8 0 0 1-8 8h-261.437a8 8 0 0 1-8-8v-236.198a8 8 0 0 1 8-8"/><path stroke="#f15623" stroke-dasharray="8 8" stroke-linecap="round" stroke-linejoin="round" stroke-width="2" d="M-3131.191 3191.771h261.437a8 8 0 0 1 8 8v236.198a8 8 0 0 1-8 8h-261.437a8 8 0 0 1-8-8v-236.198a8 8 0 0 1 8-8"/><text fill="#f15623" transform="translate(-3134.191 3196.771)"><tspan x="81.842" y="13" font-family="Helvetica Neue" font-size="14">Tenant: payment</tspan> <tspan x="26.122" y="29.392" font-family="Helvetica Neue" font-size="14">Workspace: bookinfo-backend-ws</tspan> <tspan x="65.658" y="45.784" font-family="Helvetica Neue" font-size="14">Network: cp-cluster-2</tspan></text><path fill="#fff" d="M-3113.672 3247.925h226.399a8 8 0 0 1 8 8v164a8 8 0 0 1-8 8h-226.399a8 8 0 0 1-8-8v-164a8 8 0 0 1 8-8"/><path stroke="gray" stroke-linecap="round" stroke-linejoin="round" d="M-3113.672 3247.925h226.399a8 8 0 0 1 8 8v164a8 8 0 0 1-8 8h-226.399a8 8 0 0 1-8-8v-164a8 8 0 0 1 8-8"/><text fill="#000" transform="translate(-3116.672 3257.925)"><tspan x="3.575" y="15" font-family="Helvetica Neue" font-size="16">Namespace: bookinfo-backend</tspan></text><path fill="#ececec" d="M-3588.278 3191.771h261.438a8 8 0 0 1 8 8v236.198a8 8 0 0 1-8 8h-261.438a8 8 0 0 1-8-8v-236.198a8 8 0 0 1 8-8"/><path stroke="#f15623" stroke-dasharray="8 8" stroke-linecap="round" stroke-linejoin="round" stroke-width="2" d="M-3588.278 3191.771h261.438a8 8 0 0 1 8 8v236.198a8 8 0 0 1-8 8h-261.438a8 8 0 0 1-8-8v-236.198a8 8 0 0 1 8-8"/><text fill="#f15623" transform="translate(-3591.278 3196.771)"><tspan x="77.957" y="13" font-family="Helvetica Neue" font-size="14">Tenant: marketing</tspan> <tspan x="57.755" y="29.392" font-family="Helvetica Neue" font-size="14">Workspace: httpsbin-ws</tspan> <tspan x="65.658" y="45.784" font-family="Helvetica Neue" font-size="14">Network: cp-cluster-3</tspan></text><path fill="#fff" d="M-3570.758 3247.925h226.398a8 8 0 0 1 8 8v164a8 8 0 0 1-8 8h-226.398a8 8 0 0 1-8-8v-164a8 8 0 0 1 8-8"/><path stroke="gray" stroke-linecap="round" stroke-linejoin="round" d="M-3570.758 3247.925h226.398a8 8 0 0 1 8 8v164a8 8 0 0 1-8 8h-226.398a8 8 0 0 1-8-8v-164a8 8 0 0 1 8-8"/><text fill="#000" transform="translate(-3573.758 3257.925)"><tspan x="43.727" y="15" font-family="Helvetica Neue" font-size="16">Namespace: httpbin</tspan></text><path fill="#333" d="M-3041.37 2933.858h81.795a8 8 0 0 1 8 8v23.685a8 8 0 0 1-8 8h-81.795a8 8 0 0 1-8-8v-23.685a8 8 0 0 1 8-8"/><text fill="#fff" transform="translate(-3044.37 2944.998)"><tspan x="2.402" y="14" font-family="Helvetica Neue" font-size="14">productpage</tspan></text><path fill="#fff" d="M-3092.195 3286.234h183.445a8 8 0 0 1 8 8v115.811a8 8 0 0 1-8 8h-183.445a8 8 0 0 1-8-8v-115.811a8 8 0 0 1 8-8"/><path stroke="gray" stroke-dasharray="4 4" stroke-linecap="round" stroke-linejoin="round" d="M-3092.195 3286.234h183.445a8 8 0 0 1 8 8v115.811a8 8 0 0 1-8 8h-183.445a8 8 0 0 1-8-8v-115.811a8 8 0 0 1 8-8"/><text fill="#000" transform="translate(-3095.195 3291.234)"><tspan x="27.147" y="16" font-family="Helvetica Neue" font-size="16">bookinfo-backend</tspan></text><path fill="#333" d="M-3086.094 3377.593h40.771a8 8 0 0 1 8 8v11.655a8 8 0 0 1-8 8h-40.77a8 8 0 0 1-8-8v-11.655a8 8 0 0 1 8-8"/><text fill="#fff" transform="translate(-3089.094 3385.276)"><tspan x="5.87" y="10" font-family="Helvetica Neue" font-size="10">reviews</tspan></text><path fill="#333" d="M-3012.315 3377.593h40.77a8 8 0 0 1 8 8v11.655a8 8 0 0 1-8 8h-40.77a8 8 0 0 1-8-8v-11.655a8 8 0 0 1 8-8"/><text fill="#fff" transform="translate(-3015.315 3385.276)"><tspan x="8.1" y="10" font-family="Helvetica Neue" font-size="10">details</tspan></text><path fill="#333" d="M-3086.094 3316.24h40.771a8 8 0 0 1 8 8v11.655a8 8 0 0 1-8 8h-40.77a8 8 0 0 1-8-8v-11.655a8 8 0 0 1 8-8"/><text fill="#fff" transform="translate(-3089.094 3323.923)"><tspan x="7.545" y="10" font-family="Helvetica Neue" font-size="10">ratings</tspan></text><path fill="#fff" d="M-3539.913 3293.32h164.708a8 8 0 0 1 8 8v101.639a8 8 0 0 1-8 8h-164.708a8 8 0 0 1-8-8V3301.32a8 8 0 0 1 8-8"/><path stroke="gray" stroke-dasharray="4 4" stroke-linecap="round" stroke-linejoin="round" d="M-3539.913 3293.32h164.708a8 8 0 0 1 8 8v101.639a8 8 0 0 1-8 8h-164.708a8 8 0 0 1-8-8V3301.32a8 8 0 0 1 8-8"/><text fill="#000" transform="translate(-3542.913 3298.32)"><tspan x="59.138" y="16" font-family="Helvetica Neue" font-size="16">httpbin</tspan></text><path fill="#333" d="M-3488.915 3332.297h62.712a8 8 0 0 1 8 8v23.685a8 8 0 0 1-8 8h-62.712a8 8 0 0 1-8-8v-23.685a8 8 0 0 1 8-8"/><text fill="#fff" transform="translate(-3491.915 3342.407)"><tspan x="8.14" y="16" font-family="Helvetica Neue" font-size="16">httpbin</tspan></text><path fill="#f15623" d="M-2942.536 3365.563h31.685a4 4 0 0 1 4 4v31.685a4 4 0 0 1-4 4h-31.685a4 4 0 0 1-4-4v-31.685a4 4 0 0 1 4-4"/><path fill="#fff" d="M-2929.606 3400.395c-2.373-2.382-2.723-2.76-2.763-2.987-.141-.79.523-1.423 1.331-1.271.22.041.483.27 1.702 1.481l1.443 1.432v-16.6l-4.1 4.1-4.1 4.099 1.963.035c1.923.034 1.969.038 2.232.202.283.175.528.597.528.91 0 .312-.245.734-.528.91l-.269.167h-7.643v-3.87c0-3.799.002-3.872.143-4.06.27-.361.495-.478.921-.478.297 0 .449.038.612.155.423.301.443.42.443 2.6v1.97l4.899-4.899 4.899-4.899v-5.112l-.295-.128c-.573-.247-1.221-.826-1.563-1.396-.462-.771-.573-1.93-.267-2.795.689-1.954 2.98-2.85 4.794-1.876.463.249 1.17.958 1.393 1.399.854 1.685.229 3.685-1.421 4.553l-.487.255v5.1l5.003 5.003 5.003 5.003v-2.075c0-1.985.007-2.086.147-2.337.293-.52.992-.712 1.457-.398.129.087.306.264.393.393l.159.235-.018 3.829-.018 3.828-3.579.02c-1.968.011-3.714.001-3.88-.023-.208-.029-.384-.118-.572-.288-.603-.545-.484-1.276.3-1.841.01-.007.87-.03 1.911-.052l1.894-.04-4.1-4.1-4.1-4.099v16.536l1.372-1.368c.755-.753 1.46-1.401 1.568-1.441a1.09 1.09 0 0 1 1.281.413c.193.282.215.854.043 1.114-.122.185-5.316 5.418-5.378 5.418-.02 0-1.26-1.227-2.753-2.727"/><path stroke="#000" stroke-linecap="round" stroke-linejoin="round" stroke-width="2" marker-end="url(#b)" d="M-2923.435 3365.563c.076-9.574-2.266-20.551-11.367-27.913-3.226-2.61-7.05-4.56-11.181-6"/><path fill="#000" d="M-3687.874 3090.35v37.922c0 2.98 2.41 5.417 5.417 5.417h37.921c2.98 0 5.418-2.438 5.418-5.417v-37.922c0-2.979-2.438-5.417-5.418-5.417h-37.92a5.416 5.416 0 0 0-5.418 5.417m32.504 10.835a8.115 8.115 0 0 1-8.126 8.126 8.115 8.115 0 0 1-8.126-8.126 8.115 8.115 0 0 1 8.126-8.126 8.115 8.115 0 0 1 8.126 8.126m-24.378 21.67c0-5.418 10.835-8.398 16.252-8.398s16.252 2.98 16.252 8.397v2.709h-32.504z"/><path stroke="#000" stroke-linecap="round" stroke-linejoin="round" stroke-width="2" marker-end="url(#b)" d="M-3639.118 3101.667c22.815-8.588 58.577-25.604 93.796-56.8 30.17-26.723 52.605-57.352 67.238-80.702"/><path fill="url(#c)" d="m-3612.644 2751.39-8.138-14.098a3.57 3.57 0 0 1 0-3.565l8.138-14.098a3.57 3.57 0 0 1 3.088-1.782h16.277c1.274 0 2.451.679 3.088 1.782l8.139 14.098a3.57 3.57 0 0 1 0 3.565l-8.139 14.098a3.57 3.57 0 0 1-3.088 1.782h-16.277c-1.274 0-2.45-.68-3.087-1.782"/><path fill="#fff" d="m-3593.657 2730.546-7.34-4.238a.84.84 0 0 0-.837 0l-7.341 4.238a.84.84 0 0 0-.418.725v8.476c0 .299.159.575.418.725l7.34 4.238c.26.15.579.15.837 0l7.341-4.238a.84.84 0 0 0 .418-.725v-8.476a.84.84 0 0 0-.418-.725m-1.007 8.39-2.561-1.479v-3.894l-3.782 2.182v4.369l3.373-1.948 2.561 1.479-6.343 3.662-6.343-3.662 2.56-1.479 3.374 1.948v-4.369l-3.782-2.182v3.894l-2.561 1.479v-7.324l6.343-3.662v2.957l-3.373 1.947 3.782 2.183 3.782-2.183-3.373-1.947v-2.957l6.343 3.662z"/><path fill="url(#d)" d="m-3156.266 2751.39-8.138-14.098a3.57 3.57 0 0 1 0-3.565l8.138-14.098a3.57 3.57 0 0 1 3.088-1.782h16.277c1.274 0 2.45.679 3.088 1.782l8.139 14.098a3.57 3.57 0 0 1 0 3.565l-8.139 14.098a3.57 3.57 0 0 1-3.088 1.782h-16.277c-1.274 0-2.45-.68-3.087-1.782"/><path fill="#fff" d="m-3137.279 2730.546-7.34-4.238a.84.84 0 0 0-.837 0l-7.341 4.238a.84.84 0 0 0-.418.725v8.476c0 .299.159.575.418.725l7.34 4.238c.26.15.579.15.837 0l7.341-4.238a.84.84 0 0 0 .418-.725v-8.476a.84.84 0 0 0-.418-.725m-1.007 8.39-2.561-1.479v-3.894l-3.782 2.182v4.369l3.373-1.948 2.561 1.479-6.343 3.662-6.343-3.662 2.56-1.479 3.374 1.948v-4.369l-3.782-2.182v3.894l-2.561 1.479v-7.324l6.343-3.662v2.957l-3.373 1.947 3.782 2.183 3.782-2.183-3.373-1.947v-2.957l6.343 3.662z"/><path fill="url(#e)" d="m-3612.644 3169.658-8.138-14.097a3.57 3.57 0 0 1 0-3.566l8.138-14.097a3.57 3.57 0 0 1 3.088-1.783h16.277c1.274 0 2.451.68 3.088 1.783l8.139 14.097a3.57 3.57 0 0 1 0 3.566l-8.139 14.097a3.57 3.57 0 0 1-3.088 1.783h-16.277c-1.274 0-2.45-.68-3.087-1.783"/><path fill="#fff" d="m-3593.657 3148.815-7.34-4.238a.84.84 0 0 0-.837 0l-7.341 4.238a.84.84 0 0 0-.418.724v8.477c0 .299.159.575.418.724l7.34 4.239a.84.84 0 0 0 .837 0l7.341-4.239a.84.84 0 0 0 .418-.724v-8.477a.84.84 0 0 0-.418-.724m-1.007 8.39-2.561-1.479v-3.895l-3.782 2.183v4.368l3.373-1.947 2.561 1.478-6.343 3.663-6.343-3.663 2.56-1.478 3.374 1.947v-4.368l-3.782-2.183v3.895l-2.561 1.479v-7.325l6.343-3.662v2.957l-3.373 1.948 3.782 2.182 3.782-2.182-3.373-1.948v-2.957l6.343 3.662z"/><path fill="url(#f)" d="m-3156.266 3169.658-8.138-14.097a3.57 3.57 0 0 1 0-3.566l8.138-14.097a3.57 3.57 0 0 1 3.088-1.783h16.277c1.274 0 2.45.68 3.088 1.783l8.139 14.097a3.57 3.57 0 0 1 0 3.566l-8.139 14.097a3.57 3.57 0 0 1-3.088 1.783h-16.277c-1.274 0-2.45-.68-3.087-1.783"/><path fill="#fff" d="m-3137.279 3148.815-7.34-4.238a.84.84 0 0 0-.837 0l-7.341 4.238a.84.84 0 0 0-.418.724v8.477c0 .299.159.575.418.724l7.34 4.239a.84.84 0 0 0 .837 0l7.341-4.239a.84.84 0 0 0 .418-.724v-8.477a.84.84 0 0 0-.418-.724m-1.007 8.39-2.561-1.479v-3.895l-3.782 2.183v4.368l3.373-1.947 2.561 1.478-6.343 3.663-6.343-3.663 2.56-1.478 3.374 1.947v-4.368l-3.782-2.183v3.895l-2.561 1.479v-7.325l6.343-3.662v2.957l-3.373 1.948 3.782 2.182 3.782-2.182-3.373-1.948v-2.957l6.343 3.662z"/><path stroke="#000" stroke-linecap="round" stroke-linejoin="round" stroke-width="2" marker-end="url(#b)" d="M-3423.378 2953.122c41.763 35.207 113.93 106.406 171.203 216.83 85.928 165.674 5.713 280.7 97.923 341.739 68.51 45.35 160.833-46.4 203.765-96.559"/><text fill="#000" transform="translate(-3685.72 3138.689)"><tspan x="0" y="16" font-family="Helvetica Neue" font-size="16" font-weight="bold">Users</tspan></text><path fill="#fff" d="M-2773.07 3370.735h49.181a8 8 0 0 1 8 8v7.047a8 8 0 0 1-8 8h-49.182a8 8 0 0 1-8-8v-7.047a8 8 0 0 1 8-8"/><path stroke="gray" stroke-dasharray="4 4" stroke-linecap="round" stroke-linejoin="round" d="M-2773.07 3370.735h49.181a8 8 0 0 1 8 8v7.047a8 8 0 0 1-8 8h-49.182a8 8 0 0 1-8-8v-7.047a8 8 0 0 1 8-8"/><text fill="#000" transform="translate(-2704.573 3372.001)"><tspan x="0" y="15" font-family="Helvetica Neue" font-size="16">Application</tspan></text><path fill="#ececec" d="M-2773.07 3307.969h49.181a8 8 0 0 1 8 8v7.047a8 8 0 0 1-8 8h-49.182a8 8 0 0 1-8-8v-7.047a8 8 0 0 1 8-8"/><path stroke="#f15623" stroke-dasharray="8 8" stroke-linecap="round" stroke-linejoin="round" stroke-width="2" d="M-2773.07 3307.969h49.181a8 8 0 0 1 8 8v7.047a8 8 0 0 1-8 8h-49.182a8 8 0 0 1-8-8v-7.047a8 8 0 0 1 8-8"/><text fill="#000" transform="translate(-2704.573 3310.041)"><tspan x="0" y="15" font-family="Helvetica Neue" font-size="16">TSB Configuration</tspan></text><path fill="#fff" d="M-2773.07 3339.843h49.181a8 8 0 0 1 8 8v7.047a8 8 0 0 1-8 8h-49.182a8 8 0 0 1-8-8v-7.047a8 8 0 0 1 8-8"/><path stroke="gray" stroke-linecap="round" stroke-linejoin="round" d="M-2773.07 3339.843h49.181a8 8 0 0 1 8 8v7.047a8 8 0 0 1-8 8h-49.182a8 8 0 0 1-8-8v-7.047a8 8 0 0 1 8-8"/><text fill="#000" transform="translate(-2704.573 3341.021)"><tspan x="0" y="15" font-family="Helvetica Neue" font-size="16">Namespace</tspan></text><text fill="#000" transform="translate(-2704.573 3431.158)"><tspan x="0" y="15" font-family="Helvetica Neue" font-size="16">Traffic Route</tspan></text><path stroke="#000" stroke-linecap="round" stroke-linejoin="round" stroke-width="2" marker-end="url(#b)" d="m-2781.331 3440.091 52.803-.172"/><path fill="#333" d="M-2773.07 3401.628h49.181a8 8 0 0 1 8 8v6.557a8 8 0 0 1-8 8h-49.182a8 8 0 0 1-8-8v-6.557a8 8 0 0 1 8-8"/><text fill="#000" transform="translate(-2704.573 3403.682)"><tspan x="0" y="15" font-family="Helvetica Neue" font-size="16">Service</tspan></text><path fill="#ccc" d="M-2773.07 3276.096h49.181a8 8 0 0 1 8 8v7.047a8 8 0 0 1-8 8h-49.182a8 8 0 0 1-8-8v-7.047a8 8 0 0 1 8-8"/><text fill="#000" transform="translate(-2704.573 3279.391)"><tspan x="0" y="15" font-family="Helvetica Neue" font-size="16">Cluster</tspan></text><text fill="#000" transform="translate(-2776.331 3181.359)"><tspan x="0" y="16" font-family="Helvetica Neue" font-size="16" font-weight="bold">Legend</tspan></text><path fill="#f15623" d="M-2755.758 3209.748h14.556a4 4 0 0 1 4 4v14.557a4 4 0 0 1-4 4h-14.556a4 4 0 0 1-4-4v-14.557a4 4 0 0 1 4-4"/><path fill="#fff" d="M-2750.135 3229.546c-1.349-1.354-1.548-1.569-1.57-1.698-.08-.448.297-.808.756-.722.125.023.275.154.968.842l.82.814v-9.436l-2.331 2.33-2.33 2.33 1.116.02c1.093.02 1.119.022 1.268.115.161.1.3.34.3.517 0 .178-.139.418-.3.517l-.152.095h-4.345v-2.199c0-2.159.001-2.2.081-2.308.154-.205.282-.272.524-.272.169 0 .255.022.348.088.24.172.252.24.252 1.478v1.12l2.784-2.784 2.785-2.785v-2.906l-.168-.072c-.326-.14-.694-.47-.888-.794-.263-.438-.326-1.096-.152-1.588.392-1.11 1.694-1.62 2.725-1.066.263.14.664.544.791.795.486.957.13 2.094-.807 2.587l-.277.146v2.899l2.844 2.843 2.843 2.843v-1.179c0-1.128.004-1.186.084-1.328.166-.296.563-.405.828-.227.073.05.174.15.223.224l.09.134-.01 2.176-.01 2.176-2.034.011c-1.119.006-2.111 0-2.205-.013a.6.6 0 0 1-.325-.164c-.343-.31-.276-.725.17-1.046.006-.004.494-.017 1.086-.03l1.077-.022-2.33-2.33-2.331-2.33v9.399l.78-.778c.429-.428.83-.797.891-.82a.62.62 0 0 1 .728.235c.11.16.122.486.025.634-.07.105-3.022 3.079-3.057 3.079-.012 0-.716-.697-1.565-1.55"/><text fill="#000" transform="translate(-2704.573 3211.802)"><tspan x="0" y="15" font-family="Helvetica Neue" font-size="16">Ingress Gateway</tspan></text><path fill="#f15623" d="M-2773.07 3241.627h49.181a8 8 0 0 1 8 8v9.146a8 8 0 0 1-8 8h-49.182a8 8 0 0 1-8-8v-9.146a8 8 0 0 1 8-8"/><text fill="#000" transform="translate(-2704.573 3244.976)"><tspan x="0" y="15" font-family="Helvetica Neue" font-size="16">TSB Component</tspan></text><path stroke="gray" stroke-linecap="round" stroke-linejoin="round" d="M-2786.457 3174.27h222.52v286.254h-222.52z"/><path fill="#fff" d="M-3690.72 3048.661h295.792v24.336h-295.792z"/><text fill="#000" transform="translate(-3685.72 3053.661)"><tspan x="0" y="11" font-family="Helvetica Neue" font-size="12" font-style="italic">1. http://bookinfo.tetrate.io/api/v1/products/1/reviews</tspan></text><path stroke="#000" stroke-linecap="round" stroke-linejoin="round" stroke-width="2" marker-end="url(#b)" d="M-3065.708 3377.593v-20.798"/><path fill="#fff" d="M-3340.657 3089.553h96.664v24.336h-96.664z"/><text fill="#000" transform="translate(-3335.657 3094.553)"><tspan x="0" y="11" font-family="Helvetica Neue" font-size="12" font-style="italic">2. x-tsb-clusters</tspan></text><path fill="#fff" d="M-2979.63 3338.929h78.88v22.28h-78.88z"/><text fill="#000" transform="translate(-2974.63 3343.929)"><tspan x="0" y="10" font-family="Helvetica Neue" font-size="10" font-style="italic">3. x-tsb-service</tspan></text><path fill="#333" d="M-3023.654 3316.24h57.088a8 8 0 0 1 8 8v11.655a8 8 0 0 1-8 8h-57.088a8 8 0 0 1-8-8v-11.655a8 8 0 0 1 8-8"/><text fill="#fff" transform="translate(-3026.654 3323.923)"><tspan x="1.904" y="10" font-family="Helvetica Neue" font-size="10">productpage</tspan></text><path stroke="#000" stroke-linecap="round" stroke-linejoin="round" stroke-width="2" marker-end="url(#b)" d="M-2995.413 3343.895c-1.906 3.084-5.007 6.722-9.873 10.951-6.736 5.854-15.788 11.913-24.832 17.375"/></g></svg>