<?xml version="1.0" encoding="UTF-8" standalone="no"?>
<svg
   width="648"
   height="365"
   viewBox="0 0 648 365"
   style="clip-rule:evenodd;fill:none;fill-rule:evenodd;stroke:none;stroke-linecap:round;stroke-linejoin:round;stroke-miterlimit:1.5"
   version="1.1"
   id="svg15"
   sodipodi:docname="理解 Envoy 的扩展与集成机制：从内置扩展到动态模块 - visual selection.svg"
   inkscape:export-filename="理解 Envoy 的扩展与集成机制：从内置扩展到动态模块 - visual selection.svg"
   inkscape:export-xdpi="96"
   inkscape:export-ydpi="96"
   inkscape:version="1.4 (e7c3feb1, 2024-10-09)"
   xmlns:inkscape="http://www.inkscape.org/namespaces/inkscape"
   xmlns:sodipodi="http://sodipodi.sourceforge.net/DTD/sodipodi-0.dtd"
   xmlns="http://www.w3.org/2000/svg"
   xmlns:svg="http://www.w3.org/2000/svg">
  <defs
     id="defs15" />
  <sodipodi:namedview
     id="namedview15"
     pagecolor="#ffffff"
     bordercolor="#000000"
     borderopacity="0.25"
     inkscape:showpageshadow="2"
     inkscape:pageopacity="0.0"
     inkscape:pagecheckerboard="0"
     inkscape:deskcolor="#d1d1d1"
     inkscape:zoom="1.6296296"
     inkscape:cx="324"
     inkscape:cy="182.55682"
     inkscape:window-width="2048"
     inkscape:window-height="1020"
     inkscape:window-x="1536"
     inkscape:window-y="25"
     inkscape:window-maximized="1"
     inkscape:current-layer="items">
    <inkscape:page
       x="0"
       y="0"
       width="648"
       height="365"
       id="page2"
       margin="0"
       bleed="0" />
  </sodipodi:namedview>
  <style
     class="text-font-style fontImports"
     data-font-family="Roboto"
     id="style1">@import url('https://fonts.googleapis.com/css2?family=Roboto:wght@400;700&amp;display=block');</style>
  <g
     id="items"
     style="isolation:isolate">
    <g
       id="blend"
       style="mix-blend-mode:normal">
      <g
         id="g-root-tf_hyedz017cfeh8-fill"
         data-item-order="-354294">
        <g
           id="tf_hyedz017cfeh8-fill"
           stroke="none"
           fill="#ffffff">
          <g
             id="g1">
            <path
               d="M 0,0 H 648 V 364.5 H 0 Z"
               id="path1" />
          </g>
        </g>
      </g>
      <g
         id="g-root-cp_2_sign-2_4j713017c9s0d-fill"
         data-item-order="-194676"
         transform="translate(314,208.25)">
        <g
           id="cp_2_sign-2_4j713017c9s0d-fill"
           stroke="none"
           fill="#e0cb15">
          <g
             id="g2">
            <path
               d="m 10,10 h 186 v 96 H 10 Z M 244,58 C 244,31.4903 222.5097,10.000002 196.00001,10 L 196,106 c 26.5097,0 48,-21.4903 48,-48 z"
               id="path2" />
          </g>
        </g>
      </g>
      <g
         id="g-root-cp_1_sign-1_1q9h1rw17c9q8f-fill"
         data-item-order="-194658"
         transform="translate(80,88.25)">
        <g
           id="cp_1_sign-1_1q9h1rw17c9q8f-fill"
           stroke="none"
           fill="#92bd39">
          <g
             id="g3">
            <path
               d="m 58,10 h 186 v 96 H 58 Z M 10,58 c 0,26.5097 21.4903,48 48,48 V 10 C 31.4903,10 10,31.4903 10,58 Z"
               id="path3" />
          </g>
        </g>
      </g>
      <g
         id="g-root-tx_envoy_18itid817c9pft-fill"
         data-item-order="0"
         transform="translate(218,16.25)">
        <g
           id="tx_envoy_18itid817c9pft-fill"
           stroke="none"
           fill="#484848">
          <g
             id="g4">
            <text
               style="font-style:normal;font-variant:normal;font-weight:normal;font-stretch:normal;font-size:20px;line-height:normal;font-family:Roboto, sans-serif;white-space:pre"
               font-size="20px"
               font-family="Roboto, sans-serif"
               id="text3"><tspan
                 x="17.18"
                 y="33.5"
                 dominant-baseline="ideographic"
                 id="tspan3">Envoy 代理扩展机制</tspan></text>
          </g>
        </g>
      </g>
      <g
         id="g-root-ic_up_qrjhvg17ccikv-fill"
         data-item-order="0"
         transform="translate(110,118.25)" />
      <g
         id="g-root-tx_cluawasm_qrjhvg17c9rsy-fill"
         data-item-order="0"
         transform="translate(326,106.25)">
        <g
           id="tx_cluawasm_qrjhvg17c9rsy-fill"
           stroke="none"
           fill="#484848">
          <g
             id="g6">
            <text
               style="font-style:normal;font-variant:normal;font-weight:normal;font-stretch:normal;font-size:15px;line-height:normal;font-family:Roboto, sans-serif;white-space:pre"
               font-size="15px"
               font-family="Roboto, sans-serif"
               id="text6"><tspan
                 x="12"
                 y="30.5"
                 dominant-baseline="ideographic"
                 id="tspan4">内置 C++ 过滤器、Lua 脚本、</tspan><tspan
                 x="12"
                 y="48.5"
                 dominant-baseline="ideographic"
                 id="tspan5">Wasm 插件和动态模块扩展了 </tspan><tspan
                 x="12"
                 y="66.5"
                 dominant-baseline="ideographic"
                 id="tspan6">Envoy 在同一进程内的功能。</tspan></text>
          </g>
        </g>
      </g>
      <g
         id="g-root-tx__mcyxx817cfcao-fill"
         data-item-order="0"
         transform="translate(158,124.25)">
        <g
           id="tx__mcyxx817cfcao-fill"
           stroke="none"
           fill="#ffffff">
          <g
             id="g7">
            <text
               style="font-style:normal;font-variant:normal;font-weight:normal;font-stretch:normal;font-size:20px;line-height:normal;font-family:Roboto, sans-serif;white-space:pre"
               font-size="20px"
               font-family="Roboto, sans-serif"
               id="text7"><tspan
                 x="12"
                 y="33.5"
                 dominant-baseline="ideographic"
                 id="tspan7">进程内扩展机制</tspan></text>
          </g>
        </g>
      </g>
      <g
         id="g-root-tx_apienvoy_91ifjw17cfdvl-fill"
         data-item-order="0"
         transform="translate(86,226.25)">
        <g
           id="tx_apienvoy_91ifjw17cfdvl-fill"
           stroke="none"
           fill="#484848">
          <g
             id="g10">
            <text
               style="font-style:normal;font-variant:normal;font-weight:normal;font-stretch:normal;font-size:15px;line-height:normal;font-family:Roboto, sans-serif;white-space:pre"
               font-size="15px"
               font-family="Roboto, sans-serif"
               id="text10"><tspan
                 x="30"
                 y="30.5"
                 dominant-baseline="ideographic"
                 id="tspan8">外部处理和授权 API 使 Envoy </tspan><tspan
                 x="14"
                 y="48.5"
                 dominant-baseline="ideographic"
                 id="tspan9">能够与外部服务进行交互，以实</tspan><tspan
                 x="59"
                 y="66.5"
                 dominant-baseline="ideographic"
                 id="tspan10">现高级处理和授权决策。</tspan></text>
          </g>
        </g>
      </g>
      <g
         id="g-root-tx__142dj5o17cck5q-fill"
         data-item-order="0"
         transform="translate(326,244.25)">
        <g
           id="tx__142dj5o17cck5q-fill"
           stroke="none"
           fill="#ffffff">
          <g
             id="g11">
            <text
               style="font-style:normal;font-variant:normal;font-weight:normal;font-stretch:normal;font-size:20px;line-height:normal;font-family:Roboto, sans-serif;white-space:pre"
               font-size="20px"
               font-family="Roboto, sans-serif"
               id="text11"><tspan
                 x="12"
                 y="33.5"
                 dominant-baseline="ideographic"
                 id="tspan11">进程外集成机制</tspan></text>
          </g>
        </g>
      </g>
      <g
         id="g-root-ic_arro_4l2gcc17c9r0r-fill"
         data-item-order="0"
         transform="translate(482,238.25)" />
      <g
         id="g-root-tf_hyedz017cfeh8-stroke"
         data-item-order="-354294" />
      <g
         id="g-root-cp_2_sign-2_4j713017c9s0d-stroke"
         data-item-order="-194676"
         transform="translate(314,208.25)">
        <g
           id="cp_2_sign-2_4j713017c9s0d-stroke"
           fill="none"
           stroke-linecap="round"
           stroke-linejoin="round"
           stroke-miterlimit="4"
           stroke="#ffffff"
           stroke-width="2">
          <g
             id="g12">
            <path
               d="M 196,106 H 10 m 0,-96 h 186 m 0,0 c 26.5097,0 48,21.4903 48,48 0,26.5097 -21.4903,48 -48,48 M 10,106 V 10"
               id="path11" />
          </g>
        </g>
      </g>
      <g
         id="g-root-cp_1_sign-1_1q9h1rw17c9q8f-stroke"
         data-item-order="-194658"
         transform="translate(80,88.25)">
        <g
           id="cp_1_sign-1_1q9h1rw17c9q8f-stroke"
           fill="none"
           stroke-linecap="round"
           stroke-linejoin="round"
           stroke-miterlimit="4"
           stroke="#ffffff"
           stroke-width="2">
          <g
             id="g13">
            <path
               d="m 58,10 h 186 m 0,96 H 58 m 0,0 C 31.4903,106 10,84.5097 10,58 10,31.4903 31.4903,10 58,10 m 186,0 v 96"
               id="path12" />
          </g>
        </g>
      </g>
      <g
         id="g-root-tx_envoy_18itid817c9pft-stroke"
         data-item-order="0"
         transform="translate(218,16.25)" />
      <g
         id="g-root-ic_up_qrjhvg17ccikv-stroke"
         data-item-order="0"
         transform="translate(110,118.25)">
        <g
           id="ic_up_qrjhvg17ccikv-stroke"
           fill="none"
           stroke-linecap="round"
           stroke-linejoin="round"
           stroke-miterlimit="4"
           stroke="#ffffff"
           stroke-width="2">
          <g
             id="g14">
            <path
               d="m 11.125,44.875 c 2.24004,0 4.480095,0 6.720135,-2.25 2.24004,2.25 4.480079,2.25 5.077425,2.25 0.597345,0 2.837341,0 5.07744,-2.25 2.240099,2.25 4.480049,2.25 5.077499,2.25 0.597302,0 2.83725,0 5.077351,-2.25 2.240101,2.25 4.480049,2.25 6.72015,2.25 M 40.224998,16.593716 c 2.753701,0 4.986153,-1.224211 4.986153,-2.734351 0,-1.510155 -2.232452,-2.734365 -4.986153,-2.734365 -2.753849,0 -4.986148,1.22421 -4.986148,2.734365 0,1.51014 2.232299,2.734351 4.986148,2.734351 z M 35.23885,13.859275 v 7.398856 c 0,1.447605 2.2518,2.734364 4.986148,2.734364 2.734353,0 4.986153,-1.286759 4.986153,-2.734364 V 13.859275 M 13.44439,39.09985 c 0,-0.496952 -0.16566,-0.993901 -0.66267,-1.491001 l -0.994035,-0.99405 c -0.66268,-0.496948 -0.828357,-1.490997 -0.497017,-2.153701 0.331342,-0.828297 0.994027,-1.159649 1.822387,-1.159649 h 1.32537 c 0.49701,0 1.159679,-0.1656 1.49103,-0.496948 0.331335,-0.331353 0.497009,-0.8202 0.497009,-1.49115 V 29.9881 c 0,-0.828451 0.497011,-1.656752 1.159695,-1.8225 0.828346,-0.3312 1.656706,-0.1656 2.153717,0.497101 l 0.994034,0.994049 c 0.331335,0.33135 0.828346,0.6627 1.491029,0.6627 0.66267,0 0.994006,-0.16575 1.491015,-0.6627 L 24.70999,28.662701 C 25.206999,28 26.20105,27.8344 26.86375,28.1656 c 0.828299,0.33135 1.159649,0.994049 1.159649,1.8225 v 1.325251 c 0,0.497101 0.165751,1.159797 0.496951,1.49115 0.33135,0.331348 0.99405,0.6627 1.491149,0.496948 h 1.325251 c 0.828449,0 1.65675,0.496952 1.822498,1.159649 0.331353,0.828453 0.165604,1.656753 -0.497097,2.153701 l -0.994051,0.99405 c -0.33135,0.331352 -0.6627,0.828453 -0.6627,1.491001 m -12.425265,0 c 0,-1.988102 1.65672,-3.810452 3.810435,-3.810452 1.988041,0 3.644729,1.656601 3.644729,3.810452 m 14.189699,-11.55 V 38.499851 M 10,10 m 27.224998,20.549999 3,-3 3,3 m 1.986153,-13.020254 c 0,1.54212 -2.2323,2.792265 -4.986153,2.792265 -2.753849,0 -4.986148,-1.250145 -4.986148,-2.792265"
               id="path13" />
          </g>
        </g>
      </g>
      <g
         id="g-root-tx_cluawasm_qrjhvg17c9rsy-stroke"
         data-item-order="0"
         transform="translate(326,106.25)" />
      <g
         id="g-root-tx__mcyxx817cfcao-stroke"
         data-item-order="0"
         transform="translate(158,124.25)" />
      <g
         id="g-root-tx_apienvoy_91ifjw17cfdvl-stroke"
         data-item-order="0"
         transform="translate(86,226.25)" />
      <g
         id="g-root-tx__142dj5o17cck5q-stroke"
         data-item-order="0"
         transform="translate(326,244.25)" />
      <g
         id="g-root-ic_arro_4l2gcc17c9r0r-stroke"
         data-item-order="0"
         transform="translate(482,238.25)">
        <g
           id="ic_arro_4l2gcc17c9r0r-stroke"
           fill="none"
           stroke-linecap="round"
           stroke-linejoin="round"
           stroke-miterlimit="4"
           stroke="#ffffff"
           stroke-width="2">
          <g
             id="g15">
            <path
               d="m 45.25,20.5 v 1.4685 C 45.2534,23.21767 44.249092,24.236006 43,24.25 H 29.5 C 28.251247,24.2352 27.247444,23.217335 27.25,21.9685 V 13 c 0,-1.24264 1.00736,-2.25 2.25,-2.25 H 43 c 1.242641,0 2.25,1.00736 2.25,2.25 z m 0,-0.75 h -18 M 40,27.25 h -7.5 m 3.75,-3 v 3 m -7.5,11.25 v 1.468498 C 28.7534,41.217667 27.749096,42.236004 26.5,42.25 H 13 C 11.751249,42.23519 10.747444,41.217335 10.75,39.968498 V 31 c 0,-1.24264 1.00736,-2.25 2.25,-2.25 h 13.5 c 1.242641,0 2.25,1.00736 2.25,2.25 z m 0,-0.75 h -18 m 12.75,7.5 H 16 m 3.75,-3 v 3 m -6,-22.5 V 18.625 C 13.749171,15.518055 16.268055,12.999171 19.375,13 H 22 m -5.25,6.75 -3,3 -3,-3 m 9,-9 L 22,13 19.75,15.25"
               id="path14" />
          </g>
        </g>
      </g>
    </g>
  </g>
</svg>
