<?xml version="1.0" encoding="UTF-8" standalone="no"?>
<!DOCTYPE svg PUBLIC "-//W3C//DTD SVG 1.1//EN" "http://www.w3.org/Graphics/SVG/1.1/DTD/svg11.dtd">
<svg xmlns:dc="http://purl.org/dc/elements/1.1/" xmlns="http://www.w3.org/2000/svg" version="1.1" xmlns:xl="http://www.w3.org/1999/xlink" viewBox="173 705 918 387" width="918" height="387">
  <defs/>
  <g id="Canvas_1" stroke-opacity="1" stroke-dasharray="none" fill-opacity="1" fill="none" stroke="none">
    <title>Canvas 1</title>
    <rect fill="white" x="173" y="705" width="918" height="387"/>
    <g id="Canvas_1_Layer_2">
      <title>Layer 2</title>
      <g id="Graphic_2">
        <rect x="173" y="705.875" width="918" height="385.5" fill="white"/>
      </g>
      <g id="Graphic_3">
        <path d="M 849.4375 728 L 1073.4375 728 C 1075.6466 728 1077.4375 729.7909 1077.4375 732 L 1077.4375 1065.25 C 1077.4375 1067.4591 1075.6466 1069.25 1073.4375 1069.25 L 849.4375 1069.25 C 847.2284 1069.25 845.4375 1067.4591 845.4375 1065.25 L 845.4375 732 C 845.4375 729.7909 847.2284 728 849.4375 728 Z" fill="#f9f9f9"/>
        <path d="M 849.4375 728 L 1073.4375 728 C 1075.6466 728 1077.4375 729.7909 1077.4375 732 L 1077.4375 1065.25 C 1077.4375 1067.4591 1075.6466 1069.25 1073.4375 1069.25 L 849.4375 1069.25 C 847.2284 1069.25 845.4375 1067.4591 845.4375 1065.25 L 845.4375 732 C 845.4375 729.7909 847.2284 728 849.4375 728 Z" stroke="black" stroke-linecap="round" stroke-linejoin="round" stroke-width="1"/>
        <text transform="translate(850.4375 733)" fill="black">
          <tspan font-family="Helvetica Neue" font-weight="bold" font-size="16" fill="black" x="90.704" y="16" xml:space="preserve">Node</tspan>
        </text>
      </g>
      <g id="Graphic_4">
        <path d="M 192.5625 728 L 806.0625 728 C 808.2716 728 810.0625 729.7909 810.0625 732 L 810.0625 1065.25 C 810.0625 1067.4591 808.2716 1069.25 806.0625 1069.25 L 192.5625 1069.25 C 190.35336 1069.25 188.5625 1067.4591 188.5625 1065.25 L 188.5625 732 C 188.5625 729.7909 190.35336 728 192.5625 728 Z" fill="#f9f9f9"/>
        <path d="M 192.5625 728 L 806.0625 728 C 808.2716 728 810.0625 729.7909 810.0625 732 L 810.0625 1065.25 C 810.0625 1067.4591 808.2716 1069.25 806.0625 1069.25 L 192.5625 1069.25 C 190.35336 1069.25 188.5625 1067.4591 188.5625 1065.25 L 188.5625 732 C 188.5625 729.7909 190.35336 728 192.5625 728 Z" stroke="black" stroke-linecap="round" stroke-linejoin="round" stroke-width="1"/>
        <text transform="translate(193.5625 733)" fill="black">
          <tspan font-family="Helvetica Neue" font-weight="bold" font-size="16" fill="black" x="285.454" y="16" xml:space="preserve">Node</tspan>
        </text>
      </g>
      <g id="Graphic_5">
        <path d="M 227.9375 763.75 L 769.4375 763.75 C 771.6466 763.75 773.4375 765.5409 773.4375 767.75 L 773.4375 960.75 C 773.4375 962.9591 771.6466 964.75 769.4375 964.75 L 227.9375 964.75 C 225.72836 964.75 223.9375 962.9591 223.9375 960.75 L 223.9375 767.75 C 223.9375 765.5409 225.72836 763.75 227.9375 763.75 Z" fill="#efefef"/>
        <path d="M 227.9375 763.75 L 769.4375 763.75 C 771.6466 763.75 773.4375 765.5409 773.4375 767.75 L 773.4375 960.75 C 773.4375 962.9591 771.6466 964.75 769.4375 964.75 L 227.9375 964.75 C 225.72836 964.75 223.9375 962.9591 223.9375 960.75 L 223.9375 767.75 C 223.9375 765.5409 225.72836 763.75 227.9375 763.75 Z" stroke="black" stroke-linecap="round" stroke-linejoin="round" stroke-width="1"/>
        <text transform="translate(228.9375 768.75)" fill="black">
          <tspan font-family="Helvetica Neue" font-weight="bold" font-size="16" fill="black" x="254.638" y="16" xml:space="preserve">Pod</tspan>
        </text>
      </g>
      <g id="Graphic_6">
        <path d="M 267 804.3125 L 583.625 804.3125 C 585.83414 804.3125 587.625 806.1034 587.625 808.3125 L 587.625 920.1875 C 587.625 922.3966 585.83414 924.1875 583.625 924.1875 L 267 924.1875 C 264.79086 924.1875 263 922.3966 263 920.1875 L 263 808.3125 C 263 806.1034 264.79086 804.3125 267 804.3125 Z" fill="#afafaf"/>
        <path d="M 267 804.3125 L 583.625 804.3125 C 585.83414 804.3125 587.625 806.1034 587.625 808.3125 L 587.625 920.1875 C 587.625 922.3966 585.83414 924.1875 583.625 924.1875 L 267 924.1875 C 264.79086 924.1875 263 922.3966 263 920.1875 L 263 808.3125 C 263 806.1034 264.79086 804.3125 267 804.3125 Z" stroke="black" stroke-linecap="round" stroke-linejoin="round" stroke-width="1"/>
        <text transform="translate(268 809.3125)" fill="white">
          <tspan font-family="Helvetica Neue" font-weight="bold" font-size="16" fill="white" x="74.5285" y="16" xml:space="preserve">Application Container</tspan>
        </text>
      </g>
      <g id="Graphic_7">
        <path d="M 296.3125 839.4617 L 408.8125 839.4617 C 411.02164 839.4617 412.8125 841.2526 412.8125 843.4617 L 412.8125 897.4617 C 412.8125 899.6708 411.02164 901.4617 408.8125 901.4617 L 296.3125 901.4617 C 294.10336 901.4617 292.3125 899.6708 292.3125 897.4617 L 292.3125 843.4617 C 292.3125 841.2526 294.10336 839.4617 296.3125 839.4617 Z" fill="#666"/>
        <path d="M 296.3125 839.4617 L 408.8125 839.4617 C 411.02164 839.4617 412.8125 841.2526 412.8125 843.4617 L 412.8125 897.4617 C 412.8125 899.6708 411.02164 901.4617 408.8125 901.4617 L 296.3125 901.4617 C 294.10336 901.4617 292.3125 899.6708 292.3125 897.4617 L 292.3125 843.4617 C 292.3125 841.2526 294.10336 839.4617 296.3125 839.4617 Z" stroke="#666" stroke-linecap="round" stroke-linejoin="round" stroke-width="1"/>
        <text transform="translate(297.3125 850.9976)" fill="white">
          <tspan font-family="Helvetica Neue" font-size="16" fill="white" x="13.458" y="16" xml:space="preserve">Application</tspan>
          <tspan font-family="Helvetica Neue" font-size="16" fill="white" x="34.794" y="35.46411" xml:space="preserve">Logic</tspan>
        </text>
      </g>
      <g id="Graphic_8">
        <path d="M 443.0625 839.4617 L 555.5625 839.4617 C 557.77164 839.4617 559.5625 841.2526 559.5625 843.4617 L 559.5625 897.4617 C 559.5625 899.6708 557.77164 901.4617 555.5625 901.4617 L 443.0625 901.4617 C 440.85336 901.4617 439.0625 899.6708 439.0625 897.4617 L 439.0625 843.4617 C 439.0625 841.2526 440.85336 839.4617 443.0625 839.4617 Z" fill="#c0c0ff"/>
        <path d="M 443.0625 839.4617 L 555.5625 839.4617 C 557.77164 839.4617 559.5625 841.2526 559.5625 843.4617 L 559.5625 897.4617 C 559.5625 899.6708 557.77164 901.4617 555.5625 901.4617 L 443.0625 901.4617 C 440.85336 901.4617 439.0625 899.6708 439.0625 897.4617 L 439.0625 843.4617 C 439.0625 841.2526 440.85336 839.4617 443.0625 839.4617 Z" stroke="#666" stroke-linecap="round" stroke-linejoin="round" stroke-width="1"/>
        <text transform="translate(444.0625 860.7297)" fill="black">
          <tspan font-family="Helvetica Neue" font-size="16" fill="black" x="33.762" y="16" xml:space="preserve">gRPC</tspan>
        </text>
      </g>
      <g id="Graphic_9">
        <path d="M 617.84375 839.4617 L 730.34375 839.4617 C 732.5529 839.4617 734.34375 841.2526 734.34375 843.4617 L 734.34375 897.4617 C 734.34375 899.6708 732.5529 901.4617 730.34375 901.4617 L 617.84375 901.4617 C 615.6346 901.4617 613.84375 899.6708 613.84375 897.4617 L 613.84375 843.4617 C 613.84375 841.2526 615.6346 839.4617 617.84375 839.4617 Z" fill="#ffc0c0"/>
        <path d="M 617.84375 839.4617 L 730.34375 839.4617 C 732.5529 839.4617 734.34375 841.2526 734.34375 843.4617 L 734.34375 897.4617 C 734.34375 899.6708 732.5529 901.4617 730.34375 901.4617 L 617.84375 901.4617 C 615.6346 901.4617 613.84375 899.6708 613.84375 897.4617 L 613.84375 843.4617 C 613.84375 841.2526 615.6346 839.4617 617.84375 839.4617 Z" stroke="#666" stroke-linecap="round" stroke-linejoin="round" stroke-width="1"/>
        <text transform="translate(618.84375 860.7297)" fill="black">
          <tspan font-family="Helvetica Neue" font-size="16" fill="black" x="3.666" y="16" xml:space="preserve">Sidecar Proxy</tspan>
        </text>
      </g>
      <g id="Graphic_10">
        <path d="M 443.0625 986.25 L 555.5625 986.25 C 557.77164 986.25 559.5625 988.0409 559.5625 990.25 L 559.5625 1044.25 C 559.5625 1046.4591 557.77164 1048.25 555.5625 1048.25 L 443.0625 1048.25 C 440.85336 1048.25 439.0625 1046.4591 439.0625 1044.25 L 439.0625 990.25 C 439.0625 988.0409 440.85336 986.25 443.0625 986.25 Z" fill="#c0ffff"/>
        <path d="M 443.0625 986.25 L 555.5625 986.25 C 557.77164 986.25 559.5625 988.0409 559.5625 990.25 L 559.5625 1044.25 C 559.5625 1046.4591 557.77164 1048.25 555.5625 1048.25 L 443.0625 1048.25 C 440.85336 1048.25 439.0625 1046.4591 439.0625 1044.25 L 439.0625 990.25 C 439.0625 988.0409 440.85336 986.25 443.0625 986.25 Z" stroke="#666" stroke-linecap="round" stroke-linejoin="round" stroke-width="1"/>
        <text transform="translate(444.0625 997.7859)" fill="black">
          <tspan font-family="Helvetica Neue" font-size="16" fill="black" x="24.434" y="16" xml:space="preserve">Ambient</tspan>
          <tspan font-family="Helvetica Neue" font-size="16" fill="black" x="22.786" y="35.46411" xml:space="preserve">L4 Proxy</tspan>
        </text>
      </g>
      <g id="Graphic_11">
        <path d="M 905.1875 838.3029 L 1017.6875 838.3029 C 1019.8966 838.3029 1021.6875 840.0938 1021.6875 842.3029 L 1021.6875 896.3029 C 1021.6875 898.5121 1019.8966 900.3029 1017.6875 900.3029 L 905.1875 900.3029 C 902.9784 900.3029 901.1875 898.5121 901.1875 896.3029 L 901.1875 842.3029 C 901.1875 840.0938 902.9784 838.3029 905.1875 838.3029 Z" fill="#c0ffff"/>
        <path d="M 905.1875 838.3029 L 1017.6875 838.3029 C 1019.8966 838.3029 1021.6875 840.0938 1021.6875 842.3029 L 1021.6875 896.3029 C 1021.6875 898.5121 1019.8966 900.3029 1017.6875 900.3029 L 905.1875 900.3029 C 902.9784 900.3029 901.1875 898.5121 901.1875 896.3029 L 901.1875 842.3029 C 901.1875 840.0938 902.9784 838.3029 905.1875 838.3029 Z" stroke="#666" stroke-linecap="round" stroke-linejoin="round" stroke-width="1"/>
        <text transform="translate(906.1875 849.8388)" fill="black">
          <tspan font-family="Helvetica Neue" font-size="16" fill="black" x="24.434" y="16" xml:space="preserve">Ambient</tspan>
          <tspan font-family="Helvetica Neue" font-size="16" fill="black" x="22.786" y="35.46411" xml:space="preserve">L7 Proxy</tspan>
        </text>
      </g>
      <g id="Graphic_12">
        <path d="M 617.84375 986.25 L 730.34375 986.25 C 732.5529 986.25 734.34375 988.0409 734.34375 990.25 L 734.34375 1044.25 C 734.34375 1046.4591 732.5529 1048.25 730.34375 1048.25 L 617.84375 1048.25 C 615.6346 1048.25 613.84375 1046.4591 613.84375 1044.25 L 613.84375 990.25 C 613.84375 988.0409 615.6346 986.25 617.84375 986.25 Z" fill="#c0ffff"/>
        <path d="M 617.84375 986.25 L 730.34375 986.25 C 732.5529 986.25 734.34375 988.0409 734.34375 990.25 L 734.34375 1044.25 C 734.34375 1046.4591 732.5529 1048.25 730.34375 1048.25 L 617.84375 1048.25 C 615.6346 1048.25 613.84375 1046.4591 613.84375 1044.25 L 613.84375 990.25 C 613.84375 988.0409 615.6346 986.25 617.84375 986.25 Z" stroke="#666" stroke-linecap="round" stroke-linejoin="round" stroke-width="1"/>
        <text transform="translate(618.84375 997.7859)" fill="black">
          <tspan font-family="Helvetica Neue" font-size="16" fill="black" x="24.434" y="16" xml:space="preserve">Ambient</tspan>
          <tspan font-family="Helvetica Neue" font-size="16" fill="black" x="22.786" y="35.46411" xml:space="preserve">L7 Proxy</tspan>
        </text>
      </g>
      <g id="Graphic_13">
        <path d="M 905.1875 912.2765 L 1017.6875 912.2765 C 1019.8966 912.2765 1021.6875 914.0673 1021.6875 916.2765 L 1021.6875 970.2765 C 1021.6875 972.4856 1019.8966 974.2765 1017.6875 974.2765 L 905.1875 974.2765 C 902.9784 974.2765 901.1875 972.4856 901.1875 970.2765 L 901.1875 916.2765 C 901.1875 914.0673 902.9784 912.2765 905.1875 912.2765 Z" fill="#c0ffff"/>
        <path d="M 905.1875 912.2765 L 1017.6875 912.2765 C 1019.8966 912.2765 1021.6875 914.0673 1021.6875 916.2765 L 1021.6875 970.2765 C 1021.6875 972.4856 1019.8966 974.2765 1017.6875 974.2765 L 905.1875 974.2765 C 902.9784 974.2765 901.1875 972.4856 901.1875 970.2765 L 901.1875 916.2765 C 901.1875 914.0673 902.9784 912.2765 905.1875 912.2765 Z" stroke="#666" stroke-linecap="round" stroke-linejoin="round" stroke-width="1"/>
        <text transform="translate(906.1875 923.8124)" fill="black">
          <tspan font-family="Helvetica Neue" font-size="16" fill="black" x="24.434" y="16" xml:space="preserve">Ambient</tspan>
          <tspan font-family="Helvetica Neue" font-size="16" fill="black" x="22.786" y="35.46411" xml:space="preserve">L4 Proxy</tspan>
        </text>
      </g>
      <g id="Graphic_14">
        <path d="M 296.3125 986.25 L 408.8125 986.25 C 411.02164 986.25 412.8125 988.0409 412.8125 990.25 L 412.8125 1044.25 C 412.8125 1046.4591 411.02164 1048.25 408.8125 1048.25 L 296.3125 1048.25 C 294.10336 1048.25 292.3125 1046.4591 292.3125 1044.25 L 292.3125 990.25 C 292.3125 988.0409 294.10336 986.25 296.3125 986.25 Z" fill="#ffff80"/>
        <path d="M 296.3125 986.25 L 408.8125 986.25 C 411.02164 986.25 412.8125 988.0409 412.8125 990.25 L 412.8125 1044.25 C 412.8125 1046.4591 411.02164 1048.25 408.8125 1048.25 L 296.3125 1048.25 C 294.10336 1048.25 292.3125 1046.4591 292.3125 1044.25 L 292.3125 990.25 C 292.3125 988.0409 294.10336 986.25 296.3125 986.25 Z" stroke="#666" stroke-linecap="round" stroke-linejoin="round" stroke-width="1"/>
        <text transform="translate(297.3125 997.7859)" fill="black">
          <tspan font-family="Helvetica Neue" font-size="16" fill="black" x="9.61" y="16" xml:space="preserve">Cilium Mesh</tspan>
          <tspan font-family="Helvetica Neue" font-size="16" fill="black" x="4.498" y="35.46411" xml:space="preserve">L4 + L7 Proxy</tspan>
        </text>
      </g>
      <g id="Graphic_15">
        <path d="M 905.1875 763.75 L 1017.6875 763.75 C 1019.8966 763.75 1021.6875 765.5409 1021.6875 767.75 L 1021.6875 821.75 C 1021.6875 823.9591 1019.8966 825.75 1017.6875 825.75 L 905.1875 825.75 C 902.9784 825.75 901.1875 823.9591 901.1875 821.75 L 901.1875 767.75 C 901.1875 765.5409 902.9784 763.75 905.1875 763.75 Z" fill="#666"/>
        <path d="M 905.1875 763.75 L 1017.6875 763.75 C 1019.8966 763.75 1021.6875 765.5409 1021.6875 767.75 L 1021.6875 821.75 C 1021.6875 823.9591 1019.8966 825.75 1017.6875 825.75 L 905.1875 825.75 C 902.9784 825.75 901.1875 823.9591 901.1875 821.75 L 901.1875 767.75 C 901.1875 765.5409 902.9784 763.75 905.1875 763.75 Z" stroke="black" stroke-linecap="round" stroke-linejoin="round" stroke-width="1"/>
        <text transform="translate(906.1875 775.2859)" fill="white">
          <tspan font-family="Helvetica Neue" font-weight="bold" font-size="16" fill="white" x="12.17" y="16" xml:space="preserve">Application </tspan>
          <tspan font-family="Helvetica Neue" font-weight="bold" font-size="16" fill="white" x="17.77" y="35.46411" xml:space="preserve">Container</tspan>
        </text>
      </g>
      <g id="Graphic_16">
        <path d="M 905.1875 986.25 L 1017.6875 986.25 C 1019.8966 986.25 1021.6875 988.0409 1021.6875 990.25 L 1021.6875 1044.25 C 1021.6875 1046.4591 1019.8966 1048.25 1017.6875 1048.25 L 905.1875 1048.25 C 902.9784 1048.25 901.1875 1046.4591 901.1875 1044.25 L 901.1875 990.25 C 901.1875 988.0409 902.9784 986.25 905.1875 986.25 Z" fill="#ffff80"/>
        <path d="M 905.1875 986.25 L 1017.6875 986.25 C 1019.8966 986.25 1021.6875 988.0409 1021.6875 990.25 L 1021.6875 1044.25 C 1021.6875 1046.4591 1019.8966 1048.25 1017.6875 1048.25 L 905.1875 1048.25 C 902.9784 1048.25 901.1875 1046.4591 901.1875 1044.25 L 901.1875 990.25 C 901.1875 988.0409 902.9784 986.25 905.1875 986.25 Z" stroke="#666" stroke-linecap="round" stroke-linejoin="round" stroke-width="1"/>
        <text transform="translate(906.1875 997.7859)" fill="black">
          <tspan font-family="Helvetica Neue" font-size="16" fill="black" x="9.61" y="16" xml:space="preserve">Cilium Mesh</tspan>
          <tspan font-family="Helvetica Neue" font-size="16" fill="black" x="4.498" y="35.46411" xml:space="preserve">L4 + L7 Proxy</tspan>
        </text>
      </g>
      <g id="Graphic_17">
        <text transform="translate(707.9575 940.2859)" fill="black">
          <tspan font-family="Helvetica Neue" font-size="16" fill="black" x="0" y="16" xml:space="preserve">cgroups</tspan>
        </text>
      </g>
    </g>
  </g>
</svg>
