<svg xmlns="http://www.w3.org/2000/svg" xmlns:xl="http://www.w3.org/1999/xlink" width="691" height="268" version="1.1" viewBox="32 201 691 268"><defs><marker id="FilledArrow_Marker" stroke-linejoin="miter" stroke-miterlimit="10" color="#000" markerHeight="6" markerUnits="strokeWidth" markerWidth="7" orient="auto" overflow="visible" viewBox="-1 -3 7 6"><g><path fill="currentColor" stroke="currentColor" stroke-width="1" d="M 4.8 0 L 0 -1.8 L 0 1.8 Z"/></g></marker><marker id="FilledArrow_Marker_2" stroke-linejoin="miter" stroke-miterlimit="10" color="#000" markerHeight="6" markerUnits="strokeWidth" markerWidth="7" orient="auto" overflow="visible" viewBox="-6 -3 7 6"><g><path fill="currentColor" stroke="currentColor" stroke-width="1" d="M -4.8 0 L 0 1.8 L 0 -1.8 Z"/></g></marker></defs><g id="service-mesh-architecture" fill="none" fill-opacity="1" stroke="none" stroke-dasharray="none" stroke-opacity="1"><title>service-mesh-architecture</title><rect width="691" height="268" x="32" y="201" fill="#fff"/><g id="service-mesh-architecture_Layer_1"><title>Layer 1</title><g id="Graphic_10"><path fill="#fff" d="M 54 301 L 701.3071 301 C 705.7254 301 709.3071 304.58172 709.3071 309 L 709.3071 449.6142 C 709.3071 454.03245 705.7254 457.6142 701.3071 457.6142 L 54 457.6142 C 49.58172 457.6142 46 454.03245 46 449.6142 L 46 309 C 46 304.58172 49.58172 301 54 301 Z"/><path stroke="gray" stroke-linecap="round" stroke-linejoin="round" stroke-width="1" d="M 54 301 L 701.3071 301 C 705.7254 301 709.3071 304.58172 709.3071 309 L 709.3071 449.6142 C 709.3071 454.03245 705.7254 457.6142 701.3071 457.6142 L 54 457.6142 C 49.58172 457.6142 46 454.03245 46 449.6142 L 46 309 C 46 304.58172 49.58172 301 54 301 Z"/><text fill="#000" transform="translate(51 306)"><tspan x="0" y="16" fill="#000" font-family="Helvetica Neue" font-size="16" font-weight="bold">Data Plane</tspan></text></g><g id="Graphic_9"><path fill="#333" d="M 94.3937 361.23622 L 239.9685 361.23622 C 244.38678 361.23622 247.9685 364.81794 247.9685 369.2362 L 247.9685 421.2677 C 247.9685 425.686 244.38678 429.2677 239.9685 429.2677 L 94.3937 429.2677 C 89.97542 429.2677 86.3937 425.686 86.3937 421.2677 L 86.3937 369.2362 C 86.3937 364.81794 89.97542 361.23622 94.3937 361.23622 Z"/><text fill="#fff" transform="translate(91.3937 375.78786)"><tspan x="47.483" y="16" fill="#fff" font-family="Helvetica Neue" font-size="16" font-weight="bold">Service</tspan> <tspan x="70.307" y="35.464" fill="#fff" font-family="Helvetica Neue" font-size="16" font-weight="bold">A</tspan></text></g><g id="Graphic_8"><path fill="#f15623" d="M 54 211 L 701.3071 211 C 705.7254 211 709.3071 214.58172 709.3071 219 L 709.3071 271.0315 C 709.3071 275.44977 705.7254 279.0315 701.3071 279.0315 L 54 279.0315 C 49.58172 279.0315 46 275.44977 46 271.0315 L 46 219 C 46 214.58172 49.58172 211 54 211 Z"/><text fill="#fff" transform="translate(51 235.2837)"><tspan x="274.806" y="16" fill="#fff" font-family="Helvetica Neue" font-size="16" font-weight="bold">Control Plane</tspan></text></g><g id="Graphic_7"><path fill="#f15623" d="M 255.9685 361.23622 L 334.92914 361.23622 C 339.3474 361.23622 342.92914 364.81794 342.92914 369.2362 L 342.92914 421.2677 C 342.92914 425.686 339.3474 429.2677 334.92914 429.2677 L 255.9685 429.2677 C 251.55023 429.2677 247.9685 425.686 247.9685 421.2677 L 247.9685 369.2362 C 247.9685 364.81794 251.55023 361.23622 255.9685 361.23622 Z"/><text fill="#fff" transform="translate(252.9685 375.78786)"><tspan x="13.448" y="16" fill="#fff" font-family="Helvetica Neue" font-size="16" font-weight="bold">Sidecar </tspan> <tspan x="20.84" y="35.464" fill="#fff" font-family="Helvetica Neue" font-size="16" font-weight="bold">Proxy</tspan></text></g><g id="Graphic_6"><path fill="#333" d="M 515.3386 361.23622 L 660.9134 361.23622 C 665.3317 361.23622 668.9134 364.81794 668.9134 369.2362 L 668.9134 421.2677 C 668.9134 425.686 665.3317 429.2677 660.9134 429.2677 L 515.3386 429.2677 C 510.9203 429.2677 507.3386 425.686 507.3386 421.2677 L 507.3386 369.2362 C 507.3386 364.81794 510.9203 361.23622 515.3386 361.23622 Z"/><text fill="#fff" transform="translate(512.3386 375.78786)"><tspan x="47.483" y="16" fill="#fff" font-family="Helvetica Neue" font-size="16" font-weight="bold">Service</tspan> <tspan x="70.155" y="35.464" fill="#fff" font-family="Helvetica Neue" font-size="16" font-weight="bold">B</tspan></text></g><g id="Graphic_5"><path fill="#f15623" d="M 420.37796 361.23622 L 499.3386 361.23622 C 503.75686 361.23622 507.3386 364.81794 507.3386 369.2362 L 507.3386 421.2677 C 507.3386 425.686 503.75686 429.2677 499.3386 429.2677 L 420.37796 429.2677 C 415.9597 429.2677 412.37796 425.686 412.37796 421.2677 L 412.37796 369.2362 C 412.37796 364.81794 415.9597 361.23622 420.37796 361.23622 Z"/><text fill="#fff" transform="translate(417.37796 375.78786)"><tspan x="13.448" y="16" fill="#fff" font-family="Helvetica Neue" font-size="16" font-weight="bold">Sidecar </tspan> <tspan x="20.84" y="35.464" fill="#fff" font-family="Helvetica Neue" font-size="16" font-weight="bold">Proxy</tspan></text></g><g id="Line_4"><line x1="355.829" x2="399.478" y1="395.252" y2="395.252" stroke="#000" stroke-linecap="round" stroke-linejoin="round" stroke-width="2" marker-end="url(#FilledArrow_Marker)" marker-start="url(#FilledArrow_Marker_2)"/></g><g id="Line_3"><path stroke="#000" stroke-linecap="round" stroke-linejoin="round" stroke-width="2" d="M 295.44882 361.23622 L 295.44882 320.13386 L 377.65355 320.13386 L 377.65355 279.0315"/></g><g id="Line_2"><path stroke="#000" stroke-linecap="round" stroke-linejoin="round" stroke-width="2" d="M 459.85827 361.23622 L 459.85827 320.13386 L 377.65355 320.13386 L 377.65355 279.0315"/></g></g></g></svg>