<?xml version="1.0" encoding="utf-8" standalone="yes"?>
<!DOCTYPE svg PUBLIC "-//W3C//DTD SVG 1.1//EN" "http://www.w3.org/Graphics/SVG/1.1/DTD/svg11.dtd">
<svg width="1034" height="566" viewBox="0 0 1034 566" style="fill:none;stroke:none;fill-rule:evenodd;clip-rule:evenodd;stroke-linecap:round;stroke-linejoin:round;stroke-miterlimit:1.5;" version="1.1" xmlns="http://www.w3.org/2000/svg" xmlns:xlink="http://www.w3.org/1999/xlink"><style id="fontImports">@import url("https://fonts.googleapis.com/css2?family=Roboto:wght@400;700&amp;display=block");</style><rect id="" x="0" y="0" width="1034" height="566" style="fill: #ffffff;"></rect><g id="items" style="isolation: isolate"><g id="blend" style="mix-blend-mode: normal"><g id="g-root-tf_v64makabf0gc-fill" data-item-order="-582048" transform="translate(-9, -9)"><g id="tf_v64makabf0gc-fill" stroke="none" fill="#ffffff"><g><path d="M 10 10L 1042 10L 1042 574L 10 574Z"></path></g></g></g><g id="g-root-6.cu_sy_13ymtb0ab2dqc-fill" data-item-order="-227514" transform="translate(828, 93)"><g id="6.cu_sy_13ymtb0ab2dqc-fill" stroke="none" fill="#de8431"><g><path d="M 136.5037 52C 138.1093 48.3252 139 44.2666 139 40C 139 35.7334 138.1093 31.6748 136.5037 28L 157 28L 157 27C 157 25.8954 157.895 25 159 25L 163 25L 163 55L 159 55C 157.895 55 157 54.1046 157 53L 157 52L 136.5037 52ZM 81.4963 52L 61 52L 61 53C 61 54.1046 60.1046 55 59 55L 55 55L 55 25L 59 25C 60.1046 25 61 25.8954 61 27L 61 28L 81.4963 28C 79.8907 31.6748 79 35.7334 79 40C 79 44.2666 79.8907 48.3252 81.4963 52ZM 10 130L 10 126C 10 124.8954 10.8954 124 12 124L 13 124L 13 76L 12 76C 10.8954 76 10.000002 75.1046 10.000002 74L 10.000003 70L 40 70.000001L 40 74C 40 75.1046 39.1046 76 38 76L 37 76L 37 124L 38 124C 39.1046 124 40 124.8954 40 126L 40 130L 10 130ZM 13 52C 13 38.7452 23.7452 28 37 28L 49 28L 49 27C 49 25.8954 49.8954 25 51 25L 55 25L 55 55L 51 55C 49.8954 55 49 54.1046 49 53L 49 52L 41 52C 38.7909 52 37 53.7909 37 56L 37 64L 38 64C 39.1046 64 40 64.8954 40 66L 40 70L 10 70L 10 66C 10 64.8954 10.8954 64 12 64L 13 64L 13 52ZM 139 40C 139 56.5685 125.5685 70 109 70C 92.4315 70 79 56.5685 79 40C 79 23.4315 92.4315 10 109 10C 125.5685 10 139 23.4315 139 40Z"></path></g></g></g><g id="g-root-5.cu_sy_hs5rrwab2cy5-fill" data-item-order="-227510" transform="translate(660, 213)"><g id="5.cu_sy_hs5rrwab2cy5-fill" stroke="none" fill="#e0cb15"><g><path d="M 136.5037 112C 138.1093 108.3252 139 104.2666 139 100C 139 95.7334 138.1093 91.6748 136.5037 88L 157 88L 157 87C 157 85.8954 157.895 85 159 85L 163 85L 163 115L 159 115C 157.895 115 157 114.1046 157 113L 157 112L 136.5037 112ZM 81.4963 112L 61 112L 61 113C 61 114.1046 60.1046 115 59 115L 55 115L 55 85L 59 85C 60.1046 85 61 85.8954 61 87L 61 88L 81.4963 88C 79.8907 91.6748 79 95.7334 79 100C 79 104.2666 79.8907 108.3252 81.4963 112ZM 10 70L 10 66C 10 64.8954 10.8954 64 12 64L 13 64L 13 46L 12 46C 10.8954 46 10.000001 45.1046 10.000001 44L 10.000001 40L 40 40.000001L 40 44C 40 45.1046 39.1046 46 38 46L 37 46L 37 64L 38 64C 39.1046 64 40 64.8954 40 66L 40 70L 10 70ZM 178 70L 178 66C 178 64.8954 178.8954 64 180 64L 181 64L 181 16L 180 16C 178.8954 16 178.000002 15.1046 178.000002 14L 178.000003 10L 208 10.000001L 208 14C 208 15.1046 207.1046 16 206 16L 205 16L 205 64L 206 64C 207.1046 64 208 64.8954 208 66L 208 70L 178 70ZM 13 88C 13 101.2548 23.7452 112 37 112L 49 112L 49 113C 49 114.1046 49.8954 115 51 115L 55 115L 55 85L 51 85C 49.8954 85 49 85.8954 49 87L 49 88L 41 88C 38.7909 88 37 86.2091 37 84L 37 76L 38 76C 39.1046 76 40 75.1046 40 74L 40 70L 10 70.000005L 10.000001 74C 10.000001 75.1046 10.8954 76 12 76L 13 76L 13 88ZM 205 88C 205 101.2548 194.2548 112 181 112L 169 112L 169 113C 169 114.1046 168.1046 115 167 115L 163 115L 163.000007 85L 167 85C 168.1046 85 169 85.8954 169 87L 169 88L 177 88C 179.2091 88 181 86.2091 181 84L 181 76L 180 76C 178.8954 76 178 75.1046 178 74L 178 70L 208 70.000005L 208 74C 208 75.1046 207.1046 76 206 76L 205 76L 205 88ZM 139 100C 139 116.5685 125.5685 130 109 130C 92.4315 130 79 116.5685 79 100C 79 83.4315 92.4315 70 109 70C 125.5685 70 139 83.4315 139 100Z"></path></g></g></g><g id="g-root-4.cu_sy_4gp9ekab2ej2-fill" data-item-order="-227506" transform="translate(492, 153)"><g id="4.cu_sy_4gp9ekab2ej2-fill" stroke="none" fill="#92bd39"><g><path d="M 136.5037 52C 138.1093 48.3252 139 44.2666 139 40C 139 35.7334 138.1093 31.6748 136.5037 28L 157 28L 157 27C 157 25.8954 157.895 25 159 25L 163 25L 163 55L 159 55C 157.895 55 157 54.1046 157 53L 157 52L 136.5037 52ZM 81.4963 52L 61 52L 61 53C 61 54.1046 60.1046 55 59 55L 55 55L 55 25L 59 25C 60.1046 25 61 25.8954 61 27L 61 28L 81.4963 28C 79.8907 31.6748 79 35.7334 79 40C 79 44.2666 79.8907 48.3252 81.4963 52ZM 178 100L 178 96C 178 94.8954 178.8954 94 180 94L 181 94L 181 76L 180 76C 178.8954 76 178.000001 75.1046 178.000001 74L 178.000001 70L 208 70.000001L 208 74C 208 75.1046 207.1046 76 206 76L 205 76L 205 94L 206 94C 207.1046 94 208 94.8954 208 96L 208 100L 178 100ZM 13 52C 13 38.7452 23.7452 28 37 28L 49 28L 49 27C 49 25.8954 49.8954 25 51 25L 55 25L 55 55L 51 55C 49.8954 55 49 54.1046 49 53L 49 52L 41 52C 38.7909 52 37 53.7909 37 56L 37 64L 38 64C 39.1046 64 40 64.8954 40 66L 40 70L 10 70L 10 66C 10 64.8954 10.8954 64 12 64L 13 64L 13 52ZM 205 52C 205 38.7452 194.2548 28 181 28L 169 28L 169 27C 169 25.8954 168.1046 25 167 25L 163 25L 163.000001 55L 167 55C 168.1046 55 169 54.1046 169 53L 169 52L 177 52C 179.2091 52 181 53.7909 181 56L 181 64L 180 64C 178.8954 64 178 64.8954 178 66L 178 70L 208 70L 208 66C 208 64.8954 207.1046 64 206 64L 205 64L 205 52ZM 139 40C 139 56.5685 125.5685 70 109 70C 92.4315 70 79 56.5685 79 40C 79 23.4315 92.4315 10 109 10C 125.5685 10 139 23.4315 139 40Z"></path></g></g></g><g id="g-root-3.cu_sy_1q6za3gab2cr3-fill" data-item-order="-227502" transform="translate(324, 183)"><g id="3.cu_sy_1q6za3gab2cr3-fill" stroke="none" fill="#3cc583"><g><path d="M 136.5037 82C 138.1093 78.3252 139 74.2666 139 70C 139 65.7334 138.1093 61.6748 136.5037 58L 157 58L 157 57C 157 55.8954 157.895 55 159 55L 163 55L 163 85L 159 85C 157.895 85 157 84.1046 157 83L 157 82L 136.5037 82ZM 81.4963 82L 61 82L 61 83C 61 84.1046 60.1046 85 59 85L 55 85L 55 55L 59 55C 60.1046 55 61 55.8954 61 57L 61 58L 81.4963 58C 79.8907 61.6748 79 65.7334 79 70C 79 74.2666 79.8907 78.3252 81.4963 82ZM 10 40L 10 36C 10 34.8954 10.8954 34 12 34L 13 34L 13 16L 12 16C 10.8954 16 10.000001 15.1046 10.000001 14L 10.000001 10L 40 10.000001L 40 14C 40 15.1046 39.1046 16 38 16L 37 16L 37 34L 38 34C 39.1046 34 40 34.8954 40 36L 40 40L 10 40ZM 205 58C 205 71.2548 194.2548 82 181 82L 169 82L 169 83C 169 84.1046 168.1046 85 167 85L 163 85L 163.000007 55L 167 55C 168.1046 55 169 55.8954 169 57L 169 58L 177 58C 179.2091 58 181 56.2091 181 54L 181 46L 180 46C 178.8954 46 178 45.1046 178 44L 178 40L 208 40.000005L 208 44C 208 45.1046 207.1046 46 206 46L 205 46L 205 58ZM 13 58C 13 71.2548 23.7452 82 37 82L 49 82L 49 83C 49 84.1046 49.8954 85 51 85L 55 85L 55 55L 51 55C 49.8954 55 49 55.8954 49 57L 49 58L 41 58C 38.7909 58 37 56.2091 37 54L 37 46L 38 46C 39.1046 46 40 45.1046 40 44L 40 40L 10 40.000005L 10.000001 44C 10.000001 45.1046 10.8954 46 12 46L 13 46L 13 58ZM 139 70C 139 86.5685 125.5685 100 109 100C 92.4315 100 79 86.5685 79 70C 79 53.4315 92.4315 40 109 40C 125.5685 40 139 53.4315 139 70Z"></path></g></g></g><g id="g-root-2.cu_sy_1hbc9ukab2ebk-fill" data-item-order="-227498" transform="translate(156, 93)"><g id="2.cu_sy_1hbc9ukab2ebk-fill" stroke="none" fill="#1eabda"><g><path d="M 136.5037 52C 138.1093 48.3252 139 44.2666 139 40C 139 35.7334 138.1093 31.6748 136.5037 28L 157 28L 157 27C 157 25.8954 157.895 25 159 25L 163 25L 163 55L 159 55C 157.895 55 157 54.1046 157 53L 157 52L 136.5037 52ZM 81.4963 52L 61 52L 61 53C 61 54.1046 60.1046 55 59 55L 55 55L 55 25L 59 25C 60.1046 25 61 25.8954 61 27L 61 28L 81.4963 28C 79.8907 31.6748 79 35.7334 79 40C 79 44.2666 79.8907 48.3252 81.4963 52ZM 178 100L 178 96C 178 94.8954 178.8954 94 180 94L 181 94L 181 76L 180 76C 178.8954 76 178.000001 75.1046 178.000001 74L 178.000001 70L 208 70.000001L 208 74C 208 75.1046 207.1046 76 206 76L 205 76L 205 94L 206 94C 207.1046 94 208 94.8954 208 96L 208 100L 178 100ZM 10 130L 10 126C 10 124.8954 10.8954 124 12 124L 13 124L 13 76L 12 76C 10.8954 76 10.000002 75.1046 10.000002 74L 10.000003 70L 40 70.000001L 40 74C 40 75.1046 39.1046 76 38 76L 37 76L 37 124L 38 124C 39.1046 124 40 124.8954 40 126L 40 130L 10 130ZM 205 52C 205 38.7452 194.2548 28 181 28L 169 28L 169 27C 169 25.8954 168.1046 25 167 25L 163 25L 163.000001 55L 167 55C 168.1046 55 169 54.1046 169 53L 169 52L 177 52C 179.2091 52 181 53.7909 181 56L 181 64L 180 64C 178.8954 64 178 64.8954 178 66L 178 70L 208 70L 208 66C 208 64.8954 207.1046 64 206 64L 205 64L 205 52ZM 13 52C 13 38.7452 23.7452 28 37 28L 49 28L 49 27C 49 25.8954 49.8954 25 51 25L 55 25L 55 55L 51 55C 49.8954 55 49 54.1046 49 53L 49 52L 41 52C 38.7909 52 37 53.7909 37 56L 37 64L 38 64C 39.1046 64 40 64.8954 40 66L 40 70L 10 70L 10 66C 10 64.8954 10.8954 64 12 64L 13 64L 13 52ZM 139 40C 139 56.5685 125.5685 70 109 70C 92.4315 70 79 56.5685 79 40C 79 23.4315 92.4315 10 109 10C 125.5685 10 139 23.4315 139 40Z"></path></g></g></g><g id="g-root-1.cu_sy_v4v8bgab2djd-fill" data-item-order="-227494" transform="translate(33, 213)"><g id="1.cu_sy_v4v8bgab2djd-fill" stroke="none" fill="#4e88e7"><g><path d="M 133 70L 133 66C 133 64.8954 133.8954 64 135 64L 136 64L 136 16L 135 16C 133.8954 16 133.000002 15.1046 133.000002 14L 133.000003 10L 163 10.000001L 163 14C 163 15.1046 162.1046 16 161 16L 160 16L 160 64L 161 64C 162.1046 64 163 64.8954 163 66L 163 70L 133 70ZM 91.5037 112C 93.1093 108.3252 94 104.2666 94 100C 94 95.7334 93.1093 91.6748 91.5037 88L 112 88L 112 87C 112 85.8954 112.895 85 114 85L 118 85L 118 115L 114 115C 112.895 115 112 114.1046 112 113L 112 112L 91.5037 112ZM 36.4963 112L 16 112L 16 113C 16 114.1046 15.1046 115 14 115L 10 115L 10 85L 14 85C 15.1046 85 16 85.8954 16 87L 16 88L 36.4963 88C 34.8907 91.6748 34 95.7334 34 100C 34 104.2666 34.8907 108.3252 36.4963 112ZM 160 88C 160 101.2548 149.2548 112 136 112L 124 112L 124 113C 124 114.1046 123.1046 115 122 115L 118 115L 118.000007 85L 122 85C 123.1046 85 124 85.8954 124 87L 124 88L 132 88C 134.2091 88 136 86.2091 136 84L 136 76L 135 76C 133.8954 76 133 75.1046 133 74L 133 70L 163 70.000005L 163 74C 163 75.1046 162.1046 76 161 76L 160 76L 160 88ZM 94 100C 94 116.5685 80.5685 130 64 130C 47.4315 130 34 116.5685 34 100C 34 83.4315 47.4315 70 64 70C 80.5685 70 94 83.4315 94 100Z"></path></g></g></g><g id="g-root-emai_1464rtoaatzb8-fill" data-item-order="0" transform="translate(573, 165)"></g><g id="g-root-grap_1usf55oab58uf-fill" data-item-order="0" transform="translate(909, 105)"></g><g id="g-root-2_qrjz6kab80zo-fill" data-item-order="0" transform="translate(237, 105)"></g><g id="g-root-vert_9jocabf1ft-fill" data-item-order="0" transform="translate(405, 225)"></g><g id="g-root-moni_142e3mkaatxqf-fill" data-item-order="0" transform="translate(69, 285)"></g><g id="g-root-repl_9257mkab55vl-fill" data-item-order="0" transform="translate(741, 285)"></g><g id="g-root-tx__htepy4ab2f4a-fill" data-item-order="0" transform="translate(855, 459)"><g id="tx__htepy4ab2f4a-fill" stroke="none" fill="#4c4034"><g><text style="font: 20px Roboto, sans-serif; white-space: pre;" font-size="20px" font-family="Roboto, sans-serif"><tspan x="12" y="33.5" dominant-baseline="ideographic">更新日志和统计</tspan><tspan x="12" y="57.5" dominant-baseline="ideographic">数据</tspan></text></g></g></g><g id="g-root-48px_5vzrwab2dqn-fill" data-item-order="0" transform="translate(237, 350.9443359375)"></g><g id="g-root-48px_1lto44cab57nm-fill" data-item-order="0" transform="translate(405, 350.958251953125)"></g><g id="g-root-48px_8dw4cab7zlw-fill" data-item-order="0" transform="translate(573, 350.97216796875)"></g><g id="g-root-48px_1qd8grgabau4v-fill" data-item-order="0" transform="translate(741, 350.986083984375)"></g><g id="g-root-48px_qn6qqkabf025-fill" data-item-order="0" transform="translate(909, 351)"></g><g id="g-root-tx__m98nvgabezur-fill" data-item-order="0" transform="translate(45, 399)"><g id="tx__m98nvgabezur-fill" stroke="none" fill="#4e88e7"><g><text style="font: bold 20px Roboto, sans-serif; white-space: pre;" font-weight="bold" font-size="20px" font-family="Roboto, sans-serif"><tspan x="12" y="33.5" dominant-baseline="ideographic">接收请求</tspan></text></g></g></g><g id="g-root-tx__zk2p5oabf1fm-fill" data-item-order="0" transform="translate(201, 399)"><g id="tx__zk2p5oabf1fm-fill" stroke="none" fill="#1eabda"><g><text style="font: bold 20px Roboto, sans-serif; white-space: pre;" font-weight="bold" font-size="20px" font-family="Roboto, sans-serif"><tspan x="14" y="33.5" dominant-baseline="ideographic">过滤和转换</tspan></text></g></g></g><g id="g-root-tx__13zw7a4abf0nd-fill" data-item-order="0" transform="translate(381, 399.175048828125)"><g id="tx__13zw7a4abf0nd-fill" stroke="none" fill="#3cc583"><g><text style="font: bold 20px Roboto, sans-serif; white-space: pre;" font-weight="bold" font-size="20px" font-family="Roboto, sans-serif"><tspan x="12" y="33.5" dominant-baseline="ideographic">转发请求</tspan></text></g></g></g><g id="g-root-tx__dbq8d8abf1n2-fill" data-item-order="0" transform="translate(549, 399.175048828125)"><g id="tx__dbq8d8abf1n2-fill" stroke="none" fill="#92bd39"><g><text style="font: bold 20px Roboto, sans-serif; white-space: pre;" font-weight="bold" font-size="20px" font-family="Roboto, sans-serif"><tspan x="12" y="33.5" dominant-baseline="ideographic">处理响应</tspan></text></g></g></g><g id="g-root-tx__w730abf027-fill" data-item-order="0" transform="translate(717, 399.175048828125)"><g id="tx__w730abf027-fill" stroke="none" fill="#e0cb15"><g><text style="font: bold 20px Roboto, sans-serif; white-space: pre;" font-weight="bold" font-size="20px" font-family="Roboto, sans-serif"><tspan x="12" y="33.5" dominant-baseline="ideographic">返回响应</tspan></text></g></g></g><g id="g-root-tx__1q6d8t8abf1fk-fill" data-item-order="0" transform="translate(873, 399.175048828125)"><g id="tx__1q6d8t8abf1fk-fill" stroke="none" fill="#de8431"><g><text style="font: bold 20px Roboto, sans-serif; white-space: pre;" font-weight="bold" font-size="20px" font-family="Roboto, sans-serif"><tspan x="14" y="33.5" dominant-baseline="ideographic">日志和统计</tspan></text></g></g></g><g id="g-root-tx_listener_1upx5ngab2d5b-fill" data-item-order="0" transform="translate(15, 459)"><g id="tx_listener_1upx5ngab2d5b-fill" stroke="none" fill="#3a4455"><g><text style="font: 20px Roboto, sans-serif; white-space: pre;" font-size="20px" font-family="Roboto, sans-serif"><tspan x="12" y="33.5" dominant-baseline="ideographic">Listener 接收客</tspan><tspan x="12" y="57.5" dominant-baseline="ideographic">户端请求</tspan></text></g></g></g><g id="g-root-tx__4jtmu4ab2fpi-fill" data-item-order="0" transform="translate(183, 459)"><g id="tx__4jtmu4ab2fpi-fill" stroke="none" fill="#32444a"><g><text style="font: 20px Roboto, sans-serif; white-space: pre;" font-size="20px" font-family="Roboto, sans-serif"><tspan x="12" y="33.5" dominant-baseline="ideographic">过滤器链处理请</tspan><tspan x="12" y="57.5" dominant-baseline="ideographic">求</tspan></text></g></g></g><g id="g-root-tx__mb3nbwab2dcd-fill" data-item-order="0" transform="translate(351, 459)"><g id="tx__mb3nbwab2dcd-fill" stroke="none" fill="#374840"><g><text style="font: 20px Roboto, sans-serif; white-space: pre;" font-size="20px" font-family="Roboto, sans-serif"><tspan x="12" y="33.5" dominant-baseline="ideographic">请求路由到上游</tspan><tspan x="12" y="57.5" dominant-baseline="ideographic">服务</tspan></text></g></g></g><g id="g-root-tx__zlxom4ab2ex8-fill" data-item-order="0" transform="translate(519, 459)"><g id="tx__zlxom4ab2ex8-fill" stroke="none" fill="#424736"><g><text style="font: 20px Roboto, sans-serif; white-space: pre;" font-size="20px" font-family="Roboto, sans-serif"><tspan x="12" y="33.5" dominant-baseline="ideographic">过滤器链处理响</tspan><tspan x="12" y="57.5" dominant-baseline="ideographic">应</tspan></text></g></g></g><g id="g-root-tx__1lseq58ab2fpf-fill" data-item-order="0" transform="translate(687, 459)"><g id="tx__1lseq58ab2fpf-fill" stroke="none" fill="#46432d"><g><text style="font: 20px Roboto, sans-serif; white-space: pre;" font-size="20px" font-family="Roboto, sans-serif"><tspan x="12" y="33.5" dominant-baseline="ideographic">将响应发送回客</tspan><tspan x="12" y="57.5" dominant-baseline="ideographic">户端</tspan></text></g></g></g><g id="g-root-tx_envoy_1lua5ekab2eps-fill" data-item-order="0" transform="translate(393, 27)"><g id="tx_envoy_1lua5ekab2eps-fill" stroke="none" fill="#484848"><g><text style="font: bold 25px Roboto, sans-serif; white-space: pre;" font-weight="bold" font-size="25px" font-family="Roboto, sans-serif"><tspan x="12.38" y="42.5" dominant-baseline="ideographic">Envoy 请求处理顺序</tspan></text></g></g></g><g id="g-root-48px_v308v0aay68f-fill" data-item-order="0" transform="translate(69, 350.93017578125)"></g><g id="g-root-tf_v64makabf0gc-stroke" data-item-order="-582048" transform="translate(-9, -9)"></g><g id="g-root-6.cu_sy_13ymtb0ab2dqc-stroke" data-item-order="-227514" transform="translate(828, 93)"><g id="6.cu_sy_13ymtb0ab2dqc-stroke" fill="none" stroke-linecap="round" stroke-linejoin="round" stroke-miterlimit="4" stroke="#ffffff" stroke-width="2"><g><path d="M 136.5037 52C 138.1093 48.3252 139 44.2666 139 40C 139 35.7334 138.1093 31.6748 136.5037 28L 157 28L 157 27C 157 25.8954 157.8954 25 159 25L 163 25L 163 55L 159 55C 157.8954 55 157 54.1046 157 53L 157 52L 136.5037 52ZM 81.4963 52L 61 52L 61 53C 61 54.1046 60.1046 55 59 55L 55 55L 55 25L 59 25C 60.1046 25 61 25.8954 61 27L 61 28L 81.4963 28C 79.8907 31.6748 79 35.7334 79 40C 79 44.2666 79.8907 48.3252 81.4963 52ZM 157 28L 157 52M 61 52L 61 28M 10 130L 10 126C 10 124.8954 10.8954 124 12 124L 13 124L 13 76L 12 76C 10.8954 76 10 75.1046 10 74L 10 70L 40 70L 40 74C 40 75.1046 39.1046 76 38 76L 37 76L 37 124L 38 124C 39.1046 124 40 124.8954 40 126L 40 130L 10 130ZM 13 124L 37 124M 13 76L 37 76M 13 52C 13 38.7452 23.7452 28 37 28L 49 28L 49 27C 49 25.8954 49.8954 25 51 25L 55 25L 55 55L 51 55C 49.8954 55 49 54.1046 49 53L 49 52L 41 52C 38.7909 52 37 53.7909 37 56L 37 64L 38 64C 39.1046 64 40 64.8954 40 66L 40 70L 10 70L 10 66C 10 64.8954 10.8954 64 12 64L 13 64L 13 52ZM 49 28L 49 52M 37 64L 13 64M 139 40C 139 56.5685 125.5685 70 109 70C 92.4315 70 79 56.5685 79 40C 79 23.4315 92.4315 10 109 10C 125.5685 10 139 23.4315 139 40Z"></path></g></g></g><g id="g-root-5.cu_sy_hs5rrwab2cy5-stroke" data-item-order="-227510" transform="translate(660, 213)"><g id="5.cu_sy_hs5rrwab2cy5-stroke" fill="none" stroke-linecap="round" stroke-linejoin="round" stroke-miterlimit="4" stroke="#ffffff" stroke-width="2"><g><path d="M 136.5037 112C 138.1093 108.3252 139 104.2666 139 100C 139 95.7334 138.1093 91.6748 136.5037 88L 157 88L 157 87C 157 85.8954 157.8954 85 159 85L 163 85L 163 115L 159 115C 157.8954 115 157 114.1046 157 113L 157 112L 136.5037 112ZM 81.4963 112L 61 112L 61 113C 61 114.1046 60.1046 115 59 115L 55 115L 55 85L 59 85C 60.1046 85 61 85.8954 61 87L 61 88L 81.4963 88C 79.8907 91.6748 79 95.7334 79 100C 79 104.2666 79.8907 108.3252 81.4963 112ZM 157 88L 157 112M 61 112L 61 88M 10 70L 10 66C 10 64.8954 10.8954 64 12 64L 13 64L 13 46L 12 46C 10.8954 46 10 45.1046 10 44L 10 40L 40 40L 40 44C 40 45.1046 39.1046 46 38 46L 37 46L 37 64L 38 64C 39.1046 64 40 64.8954 40 66L 40 70L 10 70ZM 13 64L 37 64M 13 46L 37 46M 178 70L 178 66C 178 64.8954 178.8954 64 180 64L 181 64L 181 16L 180 16C 178.8954 16 178 15.1046 178 14L 178 10L 208 10L 208 14C 208 15.1046 207.1046 16 206 16L 205 16L 205 64L 206 64C 207.1046 64 208 64.8954 208 66L 208 70L 178 70ZM 181 64L 205 64M 181 16L 205 16M 13 88C 13 101.2548 23.7452 112 37 112L 49 112L 49 113C 49 114.1046 49.8954 115 51 115L 55 115L 55 85L 51 85C 49.8954 85 49 85.8954 49 87L 49 88L 41 88C 38.7909 88 37 86.2091 37 84L 37 76L 38 76C 39.1046 76 40 75.1046 40 74L 40 70L 10 70L 10.000001 74C 10.000001 75.1046 10.8954 76 12 76L 13 76L 13 88ZM 49 112L 49 88M 37 76L 13 76M 205 88C 205 101.2548 194.2548 112 181 112L 169 112L 169 113C 169 114.1046 168.1046 115 167 115L 163 115L 163 85L 167 85C 168.1046 85 169 85.8954 169 87L 169 88L 177 88C 179.2091 88 181 86.2091 181 84L 181 76L 180 76C 178.8954 76 178 75.1046 178 74L 178 70L 208 70L 208 74C 208 75.1046 207.1046 76 206 76L 205 76L 205 88ZM 169 112L 169 88M 181 76L 205 76M 139 100C 139 116.5685 125.5685 130 109 130C 92.4315 130 79 116.5685 79 100C 79 83.4315 92.4315 70 109 70C 125.5685 70 139 83.4315 139 100Z"></path></g></g></g><g id="g-root-4.cu_sy_4gp9ekab2ej2-stroke" data-item-order="-227506" transform="translate(492, 153)"><g id="4.cu_sy_4gp9ekab2ej2-stroke" fill="none" stroke-linecap="round" stroke-linejoin="round" stroke-miterlimit="4" stroke="#ffffff" stroke-width="2"><g><path d="M 136.5037 52C 138.1093 48.3252 139 44.2666 139 40C 139 35.7334 138.1093 31.6748 136.5037 28L 157 28L 157 27C 157 25.8954 157.8954 25 159 25L 163 25L 163 55L 159 55C 157.8954 55 157 54.1046 157 53L 157 52L 136.5037 52ZM 81.4963 52L 61 52L 61 53C 61 54.1046 60.1046 55 59 55L 55 55L 55 25L 59 25C 60.1046 25 61 25.8954 61 27L 61 28L 81.4963 28C 79.8907 31.6748 79 35.7334 79 40C 79 44.2666 79.8907 48.3252 81.4963 52ZM 157 28L 157 52M 61 52L 61 28M 178 100L 178 96C 178 94.8954 178.8954 94 180 94L 181 94L 181 76L 180 76C 178.8954 76 178 75.1046 178 74L 178 70L 208 70L 208 74C 208 75.1046 207.1046 76 206 76L 205 76L 205 94L 206 94C 207.1046 94 208 94.8954 208 96L 208 100L 178 100ZM 181 94L 205 94M 181 76L 205 76M 13 52C 13 38.7452 23.7452 28 37 28L 49 28L 49 27C 49 25.8954 49.8954 25 51 25L 55 25L 55 55L 51 55C 49.8954 55 49 54.1046 49 53L 49 52L 41 52C 38.7909 52 37 53.7909 37 56L 37 64L 38 64C 39.1046 64 40 64.8954 40 66L 40 70L 10 70L 10 66C 10 64.8954 10.8954 64 12 64L 13 64L 13 52ZM 49 28L 49 52M 37 64L 13 64M 205 52C 205 38.7452 194.2548 28 181 28L 169 28L 169 27C 169 25.8954 168.1046 25 167 25L 163 25L 163 55L 167 55C 168.1046 55 169 54.1046 169 53L 169 52L 177 52C 179.2091 52 181 53.7909 181 56L 181 64L 180 64C 178.8954 64 178 64.8954 178 66L 178 70L 208 70L 208 66C 208 64.8954 207.1046 64 206 64L 205 64L 205 52ZM 169 28L 169 52M 181 64L 205 64M 139 40C 139 56.5685 125.5685 70 109 70C 92.4315 70 79 56.5685 79 40C 79 23.4315 92.4315 10 109 10C 125.5685 10 139 23.4315 139 40Z"></path></g></g></g><g id="g-root-3.cu_sy_1q6za3gab2cr3-stroke" data-item-order="-227502" transform="translate(324, 183)"><g id="3.cu_sy_1q6za3gab2cr3-stroke" fill="none" stroke-linecap="round" stroke-linejoin="round" stroke-miterlimit="4" stroke="#ffffff" stroke-width="2"><g><path d="M 136.5037 82C 138.1093 78.3252 139 74.2666 139 70C 139 65.7334 138.1093 61.6748 136.5037 58L 157 58L 157 57C 157 55.8954 157.8954 55 159 55L 163 55L 163 85L 159 85C 157.8954 85 157 84.1046 157 83L 157 82L 136.5037 82ZM 81.4963 82L 61 82L 61 83C 61 84.1046 60.1046 85 59 85L 55 85L 55 55L 59 55C 60.1046 55 61 55.8954 61 57L 61 58L 81.4963 58C 79.8907 61.6748 79 65.7334 79 70C 79 74.2666 79.8907 78.3252 81.4963 82ZM 157 58L 157 82M 61 82L 61 58M 10 40L 10 36C 10 34.8954 10.8954 34 12 34L 13 34L 13 16L 12 16C 10.8954 16 10 15.1046 10 14L 10 10L 40 10L 40 14C 40 15.1046 39.1046 16 38 16L 37 16L 37 34L 38 34C 39.1046 34 40 34.8954 40 36L 40 40L 10 40ZM 13 34L 37 34M 13 16L 37 16M 205 58C 205 71.2548 194.2548 82 181 82L 169 82L 169 83C 169 84.1046 168.1046 85 167 85L 163 85L 163 55L 167 55C 168.1046 55 169 55.8954 169 57L 169 58L 177 58C 179.2091 58 181 56.2091 181 54L 181 46L 180 46C 178.8954 46 178 45.1046 178 44L 178 40L 208 40L 208 44C 208 45.1046 207.1046 46 206 46L 205 46L 205 58ZM 169 82L 169 58M 181 46L 205 46M 13 58C 13 71.2548 23.7452 82 37 82L 49 82L 49 83C 49 84.1046 49.8954 85 51 85L 55 85L 55 55L 51 55C 49.8954 55 49 55.8954 49 57L 49 58L 41 58C 38.7909 58 37 56.2091 37 54L 37 46L 38 46C 39.1046 46 40 45.1046 40 44L 40 40L 10 40L 10.000001 44C 10.000001 45.1046 10.8954 46 12 46L 13 46L 13 58ZM 49 82L 49 58M 37 46L 13 46M 139 70C 139 86.5685 125.5685 100 109 100C 92.4315 100 79 86.5685 79 70C 79 53.4315 92.4315 40 109 40C 125.5685 40 139 53.4315 139 70Z"></path></g></g></g><g id="g-root-2.cu_sy_1hbc9ukab2ebk-stroke" data-item-order="-227498" transform="translate(156, 93)"><g id="2.cu_sy_1hbc9ukab2ebk-stroke" fill="none" stroke-linecap="round" stroke-linejoin="round" stroke-miterlimit="4" stroke="#ffffff" stroke-width="2"><g><path d="M 136.5037 52C 138.1093 48.3252 139 44.2666 139 40C 139 35.7334 138.1093 31.6748 136.5037 28L 157 28L 157 27C 157 25.8954 157.8954 25 159 25L 163 25L 163 55L 159 55C 157.8954 55 157 54.1046 157 53L 157 52L 136.5037 52ZM 81.4963 52L 61 52L 61 53C 61 54.1046 60.1046 55 59 55L 55 55L 55 25L 59 25C 60.1046 25 61 25.8954 61 27L 61 28L 81.4963 28C 79.8907 31.6748 79 35.7334 79 40C 79 44.2666 79.8907 48.3252 81.4963 52ZM 157 28L 157 52M 61 52L 61 28M 178 100L 178 96C 178 94.8954 178.8954 94 180 94L 181 94L 181 76L 180 76C 178.8954 76 178 75.1046 178 74L 178 70L 208 70L 208 74C 208 75.1046 207.1046 76 206 76L 205 76L 205 94L 206 94C 207.1046 94 208 94.8954 208 96L 208 100L 178 100ZM 181 94L 205 94M 181 76L 205 76M 10 130L 10 126C 10 124.8954 10.8954 124 12 124L 13 124L 13 76L 12 76C 10.8954 76 10 75.1046 10 74L 10 70L 40 70L 40 74C 40 75.1046 39.1046 76 38 76L 37 76L 37 124L 38 124C 39.1046 124 40 124.8954 40 126L 40 130L 10 130ZM 13 124L 37 124M 13 76L 37 76M 205 52C 205 38.7452 194.2548 28 181 28L 169 28L 169 27C 169 25.8954 168.1046 25 167 25L 163 25L 163 55L 167 55C 168.1046 55 169 54.1046 169 53L 169 52L 177 52C 179.2091 52 181 53.7909 181 56L 181 64L 180 64C 178.8954 64 178 64.8954 178 66L 178 70L 208 70L 208 66C 208 64.8954 207.1046 64 206 64L 205 64L 205 52ZM 169 28L 169 52M 181 64L 205 64M 13 52C 13 38.7452 23.7452 28 37 28L 49 28L 49 27C 49 25.8954 49.8954 25 51 25L 55 25L 55 55L 51 55C 49.8954 55 49 54.1046 49 53L 49 52L 41 52C 38.7909 52 37 53.7909 37 56L 37 64L 38 64C 39.1046 64 40 64.8954 40 66L 40 70L 10 70L 10 66C 10 64.8954 10.8954 64 12 64L 13 64L 13 52ZM 49 28L 49 52M 37 64L 13 64M 139 40C 139 56.5685 125.5685 70 109 70C 92.4315 70 79 56.5685 79 40C 79 23.4315 92.4315 10 109 10C 125.5685 10 139 23.4315 139 40Z"></path></g></g></g><g id="g-root-1.cu_sy_v4v8bgab2djd-stroke" data-item-order="-227494" transform="translate(33, 213)"><g id="1.cu_sy_v4v8bgab2djd-stroke" fill="none" stroke-linecap="round" stroke-linejoin="round" stroke-miterlimit="4" stroke="#ffffff" stroke-width="2"><g><path d="M 133 70L 133 66C 133 64.8954 133.8954 64 135 64L 136 64L 136 16L 135 16C 133.8954 16 133 15.1046 133 14L 133 10L 163 10L 163 14C 163 15.1046 162.1046 16 161 16L 160 16L 160 64L 161 64C 162.1046 64 163 64.8954 163 66L 163 70L 133 70ZM 136 64L 160 64M 136 16L 160 16M 91.5037 112C 93.1093 108.3252 94 104.2666 94 100C 94 95.7334 93.1093 91.6748 91.5037 88L 112 88L 112 87C 112 85.8954 112.8954 85 114 85L 118 85L 118 115L 114 115C 112.8954 115 112 114.1046 112 113L 112 112L 91.5037 112ZM 36.4963 112L 16 112L 16 113C 16 114.1046 15.1046 115 14 115L 10 115L 10 85L 14 85C 15.1046 85 16 85.8954 16 87L 16 88L 36.4963 88C 34.8907 91.6748 34 95.7334 34 100C 34 104.2666 34.8907 108.3252 36.4963 112ZM 112 88L 112 112M 16 112L 16 88M 160 88C 160 101.2548 149.2548 112 136 112L 124 112L 124 113C 124 114.1046 123.1046 115 122 115L 118 115L 118 85L 122 85C 123.1046 85 124 85.8954 124 87L 124 88L 132 88C 134.2091 88 136 86.2091 136 84L 136 76L 135 76C 133.8954 76 133 75.1046 133 74L 133 70L 163 70L 163 74C 163 75.1046 162.1046 76 161 76L 160 76L 160 88ZM 124 112L 124 88M 136 76L 160 76M 94 100C 94 116.5685 80.5685 130 64 130C 47.4315 130 34 116.5685 34 100C 34 83.4315 47.4315 70 64 70C 80.5685 70 94 83.4315 94 100Z"></path></g></g></g><g id="g-root-emai_1464rtoaatzb8-stroke" data-item-order="0" transform="translate(573, 165)"><g id="emai_1464rtoaatzb8-stroke" fill="none" stroke-linecap="round" stroke-linejoin="round" stroke-miterlimit="4" stroke="#ffffff" stroke-width="2"><g><path d="M 22.857143 35.071426L 13.857142 35.071426C 12.436982 35.071426 11.285714 33.920162 11.285714 32.5L 11.285714 17.071428C 11.285714 15.651268 12.436982 14.5 13.857142 14.5L 42.142857 14.5C 43.563019 14.5 44.714287 15.651268 44.714287 17.071428L 44.714287 22.214285M 19 22.214285L 19 27.357143M 31.857143 28.642857L 42.142857 28.642857C 42.142857 28.642857 44.714287 28.642857 44.714287 31.214285L 44.714287 38.92857C 44.714287 38.92857 44.714287 41.5 42.142857 41.5L 31.857143 41.5C 31.857143 41.5 29.285713 41.5 29.285713 38.92857L 29.285713 31.214285C 29.285713 31.214285 29.285713 28.642857 31.857143 28.642857M 29.285713 32.5L 37 36.357143L 44.714287 32.5"></path></g></g></g><g id="g-root-grap_1usf55oab58uf-stroke" data-item-order="0" transform="translate(909, 105)"><g id="grap_1usf55oab58uf-stroke" fill="none" stroke-linecap="round" stroke-linejoin="round" stroke-miterlimit="4" stroke="#ffffff" stroke-width="2"><g><path d="M 20.083 19L 20.083 31L 38.083 31M 24.583 25.75L 24.583 31M 29.083 23.5L 29.083 31M 33.583 20.5L 33.583 31M 28.333 11.5C 18.806499 11.5 11.083 17.879499 11.083 25.75C 11.16404 29.718908 13.039475 33.437237 16.182999 35.8615L 12.583 44.5L 22.140999 39.038498C 24.143209 39.675789 26.231815 40.000107 28.333 40C 37.861 40 45.583 33.620499 45.583 25.75C 45.583 17.879499 37.861 11.5 28.333 11.5Z"></path></g></g></g><g id="g-root-2_qrjz6kab80zo-stroke" data-item-order="0" transform="translate(237, 105)"><g id="2_qrjz6kab80zo-stroke" fill="none" stroke-linecap="round" stroke-linejoin="round" stroke-miterlimit="4" stroke="#ffffff" stroke-width="2"><g><path d="M 44.714287 11.285714L 11.285714 11.285714L 24.142857 29.285713L 24.142857 44.714287L 31.857143 39.571426L 31.857143 29.285713L 44.714287 11.285714Z"></path></g></g></g><g id="g-root-vert_9jocabf1ft-stroke" data-item-order="0" transform="translate(405, 225)"><g id="vert_9jocabf1ft-stroke" fill="none" stroke-linecap="round" stroke-linejoin="round" stroke-miterlimit="4" stroke="#ffffff" stroke-width="2"><g><path d="M 24.25 45.25L 24.25 24.25M 31.75 31.75L 31.75 10.75M 30.25 39.25L 24.25 45.25L 18.25 39.25M 37.75 16.75L 31.75 10.75L 25.75 16.75"></path></g></g></g><g id="g-root-moni_142e3mkaatxqf-stroke" data-item-order="0" transform="translate(69, 285)"><g id="moni_142e3mkaatxqf-stroke" fill="none" stroke-linecap="round" stroke-linejoin="round" stroke-miterlimit="4" stroke="#ffffff" stroke-width="2"><g><path d="M 30.1465 31.75C 30.247486 33.684063 30.864334 35.55584 31.932999 37.171001L 32.292999 37.75M 23.706999 37.75L 24.067001 37.171001C 25.135666 35.55584 25.752514 33.684063 25.8535 31.75M 21.25 37.75L 34.75 37.75M 13 27.25L 43 27.25M 41.5 10.75C 42.328426 10.75 43 11.421573 43 12.25L 43 30.25C 43 31.078428 42.328426 31.75 41.5 31.75L 14.5 31.75C 13.671573 31.75 13 31.078428 13 30.25L 13 12.25C 13 11.421573 13.671573 10.75 14.5 10.75ZM 28 40.75L 28 45.25M 16 45.25L 40 45.25"></path></g></g></g><g id="g-root-repl_9257mkab55vl-stroke" data-item-order="0" transform="translate(741, 285)"><g id="repl_9257mkab55vl-stroke" fill="none" stroke-linecap="round" stroke-linejoin="round" stroke-miterlimit="4" stroke="#ffffff" stroke-width="2"><g><path d="M 25 22.681C 25 22.681 43.75 20.431 43.75 39.181C 37.75 27.931 25 31.681 25 31.681L 25 37.681L 12.25 27.181L 25 16.681Z"></path></g></g></g><g id="g-root-tx__htepy4ab2f4a-stroke" data-item-order="0" transform="translate(855, 459)"></g><g id="g-root-48px_5vzrwab2dqn-stroke" data-item-order="0" transform="translate(237, 350.9443359375)"><g id="48px_5vzrwab2dqn-stroke" fill="none" stroke-linecap="round" stroke-linejoin="round" stroke-miterlimit="4" stroke="#484848" stroke-width="2"><g><path d="M 13.804202 25.133875C 13.804202 20.861275 15.841548 17.271431 19.758026 17.271431C 23.674599 17.271431 25.711899 20.861275 25.711899 25.133875L 25.711899 30.454525C 25.711899 34.727127 23.57905 38.411201 19.758026 38.411201C 15.937067 38.411201 13.804202 34.727127 13.804202 30.454525L 13.804202 25.133875ZM 30.123625 23.136551C 30.123625 19.671326 32.541924 17.271482 35.828201 17.271482C 41.279949 17.271482 43.139427 22.59145 39.565975 27.323799L 30.497499 38.063126L 42.963024 38.063126"></path></g></g></g><g id="g-root-48px_1lto44cab57nm-stroke" data-item-order="0" transform="translate(405, 350.958251953125)"><g id="48px_1lto44cab57nm-stroke" fill="none" stroke-linecap="round" stroke-linejoin="round" stroke-miterlimit="4" stroke="#484848" stroke-width="2"><g><path d="M 13.804202 25.133875C 13.804202 20.861275 15.841548 17.271431 19.758026 17.271431C 23.674599 17.271431 25.711899 20.861275 25.711899 25.133875L 25.711899 30.454525C 25.711899 34.727127 23.57905 38.411201 19.758026 38.411201C 15.937067 38.411201 13.804202 34.727127 13.804202 30.454525L 13.804202 25.133875ZM 30.3409 22.801075C 30.251575 20.9944 31.36195 17.282455 36.298973 17.282455C 41.236 17.282455 41.992226 20.94805 41.821152 23.01775C 41.632526 25.299925 40.20385 27.630924 34.150524 27.630924C 39.785202 27.630924 42.344124 29.171501 42.344124 33.343376C 42.344124 36.9496 39.156624 38.417351 36.244148 38.417351C 34.151051 38.399502 29.964701 37.215324 29.964701 32.621651"></path></g></g></g><g id="g-root-48px_8dw4cab7zlw-stroke" data-item-order="0" transform="translate(573, 350.97216796875)"><g id="48px_8dw4cab7zlw-stroke" fill="none" stroke-linecap="round" stroke-linejoin="round" stroke-miterlimit="4" stroke="#484848" stroke-width="2"><g><path d="M 13.804202 25.134251C 13.804202 20.86165 15.841548 17.271797 19.758026 17.271797C 23.674599 17.271797 25.711899 20.86165 25.711899 25.134251L 25.711899 30.454899C 25.711899 34.727501 23.57905 38.411575 19.758026 38.411575C 15.937067 38.411575 13.804202 34.727501 13.804202 30.454899L 13.804202 25.134251ZM 39.93235 38.4841L 39.93235 17.163452L 29.721176 32.303501L 43.986027 32.303501"></path></g></g></g><g id="g-root-48px_1qd8grgabau4v-stroke" data-item-order="0" transform="translate(741, 350.986083984375)"><g id="48px_1qd8grgabau4v-stroke" fill="none" stroke-linecap="round" stroke-linejoin="round" stroke-miterlimit="4" stroke="#484848" stroke-width="2"><g><path d="M 13.804202 25.134251C 13.804202 20.86165 15.841548 17.271797 19.758026 17.271797C 23.674599 17.271797 25.711899 20.86165 25.711899 25.134251L 25.711899 30.454899C 25.711899 34.727501 23.57905 38.411575 19.758026 38.411575C 15.937067 38.411575 13.804202 34.727501 13.804202 30.454899L 13.804202 25.134251ZM 42.769974 17.59045L 32.7841 17.59045L 31.74085 27.35815C 32.362675 26.73625 34.264824 25.492451 36.898827 25.492451C 39.978325 25.492451 42.859375 27.585024 42.570248 32.539299C 42.270851 37.670349 39.183998 38.42815 36.646374 38.42815C 33.958374 38.42815 31.303751 36.520676 31.0546 32.923752"></path></g></g></g><g id="g-root-48px_qn6qqkabf025-stroke" data-item-order="0" transform="translate(909, 351)"><g id="48px_qn6qqkabf025-stroke" fill="none" stroke-linecap="round" stroke-linejoin="round" stroke-miterlimit="4" stroke="#484848" stroke-width="2"><g><path d="M 13.804202 25.134251C 13.804202 20.86165 15.841548 17.271797 19.758026 17.271797C 23.674599 17.271797 25.711899 20.86165 25.711899 25.134251L 25.711899 30.454899C 25.711899 34.727501 23.57905 38.411575 19.758026 38.411575C 15.937067 38.411575 13.804202 34.727501 13.804202 30.454899L 13.804202 25.134251ZM 40.313278 17.248413C 33.688076 17.248413 30.526676 21.536949 30.277901 28.107176L 30.277451 31.269325C 30.277451 35.417351 32.5816 38.083 36.423622 38.411648C 40.04245 38.551975 42.295074 35.710373 42.457302 31.593775C 42.560349 28.979874 41.233597 25.310875 37.160725 24.903551C 33.591549 24.5467 30.801849 26.918724 30.277901 29.48245"></path></g></g></g><g id="g-root-tx__m98nvgabezur-stroke" data-item-order="0" transform="translate(45, 399)"></g><g id="g-root-tx__zk2p5oabf1fm-stroke" data-item-order="0" transform="translate(201, 399)"></g><g id="g-root-tx__13zw7a4abf0nd-stroke" data-item-order="0" transform="translate(381, 399.175048828125)"></g><g id="g-root-tx__dbq8d8abf1n2-stroke" data-item-order="0" transform="translate(549, 399.175048828125)"></g><g id="g-root-tx__w730abf027-stroke" data-item-order="0" transform="translate(717, 399.175048828125)"></g><g id="g-root-tx__1q6d8t8abf1fk-stroke" data-item-order="0" transform="translate(873, 399.175048828125)"></g><g id="g-root-tx_listener_1upx5ngab2d5b-stroke" data-item-order="0" transform="translate(15, 459)"></g><g id="g-root-tx__4jtmu4ab2fpi-stroke" data-item-order="0" transform="translate(183, 459)"></g><g id="g-root-tx__mb3nbwab2dcd-stroke" data-item-order="0" transform="translate(351, 459)"></g><g id="g-root-tx__zlxom4ab2ex8-stroke" data-item-order="0" transform="translate(519, 459)"></g><g id="g-root-tx__1lseq58ab2fpf-stroke" data-item-order="0" transform="translate(687, 459)"></g><g id="g-root-tx_envoy_1lua5ekab2eps-stroke" data-item-order="0" transform="translate(393, 27)"></g><g id="g-root-48px_v308v0aay68f-stroke" data-item-order="0" transform="translate(69, 350.93017578125)"><g id="48px_v308v0aay68f-stroke" fill="none" stroke-linecap="round" stroke-linejoin="round" stroke-miterlimit="4" stroke="#484848" stroke-width="2"><g><path d="M 30.881351 20.033051L 37.222675 17.637701L 37.222675 38.463249M 13.804202 25.133875C 13.804202 20.861275 15.841548 17.271431 19.758026 17.271431C 23.674599 17.271431 25.711899 20.861275 25.711899 25.133875L 25.711899 30.454525C 25.711899 34.727127 23.57905 38.411201 19.758026 38.411201C 15.937067 38.411201 13.804202 34.727127 13.804202 30.454525L 13.804202 25.133875Z"></path></g></g></g></g></g></svg>