<svg xmlns="http://www.w3.org/2000/svg" xmlns:xl="http://www.w3.org/1999/xlink" width="1142" height="477" version="1.1" viewBox="-144 2790 1142 477"><defs><marker id="FilledArrow_Marker" stroke-linejoin="miter" stroke-miterlimit="10" color="#666" markerHeight="6" markerUnits="strokeWidth" markerWidth="7" orient="auto" overflow="visible" viewBox="-1 -3 7 6"><g><path fill="currentColor" stroke="currentColor" stroke-width="1" d="M 4.8 0 L 0 -1.8 L 0 1.8 Z"/></g></marker></defs><g id="workload-onboarding-overview" fill="none" fill-opacity="1" stroke="none" stroke-dasharray="none" stroke-opacity="1"><title>workload-onboarding-overview</title><rect width="1142" height="477" x="-144" y="2790" fill="#fff"/><g id="workload-onboarding-overview_Layer_1"><title>Layer 1</title><g id="Graphic_5"><path fill="#f0f0f0" d="M -115.30709 2820.4725 L 116.72441 2820.4725 C 121.14269 2820.4725 124.72441 2824.0542 124.72441 2828.4725 L 124.72441 3227.748 C 124.72441 3232.1663 121.14269 3235.748 116.72441 3235.748 L -115.30709 3235.748 C -119.72537 3235.748 -123.30709 3232.1663 -123.30709 3227.748 L -123.30709 2828.4725 C -123.30709 2824.0542 -119.72537 2820.4725 -115.30709 2820.4725 Z"/><text fill="#000" transform="translate(-118.30709 2828.4725)"><tspan x="105.183" y="18" fill="#000" font-family="Helvetica Neue" font-size="18" font-weight="bold">VM</tspan></text></g><g id="Graphic_2"><path fill="#0a55a8" d="M -56.48819 3019.6063 L 57.90551 3019.6063 C 62.32379 3019.6063 65.90551 3023.188 65.90551 3027.6063 L 65.90551 3076.803 C 65.90551 3081.2215 62.32379 3084.803 57.90551 3084.803 L -56.48819 3084.803 C -60.90647 3084.803 -64.48819 3081.2215 -64.48819 3076.803 L -64.48819 3027.6063 C -64.48819 3023.188 -60.90647 3019.6063 -56.48819 3019.6063 Z"/><text fill="#fff" transform="translate(-59.48819 3042.4727)"><tspan x="12.517" y="16" fill="#fff" font-family="Helvetica Neue" font-size="16" font-weight="bold">Istio Sidecar</tspan></text></g><g id="Graphic_3"><path fill="#666" d="M -56.48819 2892.756 L 57.90551 2892.756 C 62.32379 2892.756 65.90551 2896.3377 65.90551 2900.756 L 65.90551 2949.9528 C 65.90551 2954.371 62.32379 2957.9528 57.90551 2957.9528 L -56.48819 2957.9528 C -60.90647 2957.9528 -64.48819 2954.371 -64.48819 2949.9528 L -64.48819 2900.756 C -64.48819 2896.3377 -60.90647 2892.756 -56.48819 2892.756 Z"/><path stroke="gray" stroke-linecap="round" stroke-linejoin="round" stroke-width="1" d="M -56.48819 2892.756 L 57.90551 2892.756 C 62.32379 2892.756 65.90551 2896.3377 65.90551 2900.756 L 65.90551 2949.9528 C 65.90551 2954.371 62.32379 2957.9528 57.90551 2957.9528 L -56.48819 2957.9528 C -60.90647 2957.9528 -64.48819 2954.371 -64.48819 2949.9528 L -64.48819 2900.756 C -64.48819 2896.3377 -60.90647 2892.756 -56.48819 2892.756 Z"/><text fill="#fff" transform="translate(-59.48819 2896.1582)"><tspan x="24.077" y="16" fill="#fff" font-family="Helvetica Neue" font-size="16" font-weight="bold">Workload </tspan> <tspan x="15.309" y="35.464" fill="#fff" font-family="Helvetica Neue" font-size="16" font-weight="bold">Onboarding </tspan> <tspan x="37.677" y="54.928" fill="#fff" font-family="Helvetica Neue" font-size="16" font-weight="bold">Agent</tspan></text></g><g id="Graphic_4"><path fill="#333" d="M -56.48819 3146.4567 L 57.90551 3146.4567 C 62.32379 3146.4567 65.90551 3150.0384 65.90551 3154.4567 L 65.90551 3203.6536 C 65.90551 3208.072 62.32379 3211.6536 57.90551 3211.6536 L -56.48819 3211.6536 C -60.90647 3211.6536 -64.48819 3208.072 -64.48819 3203.6536 L -64.48819 3154.4567 C -64.48819 3150.0384 -60.90647 3146.4567 -56.48819 3146.4567 Z"/><text fill="#fff" transform="translate(-59.48819 3159.591)"><tspan x="24.077" y="16" fill="#fff" font-family="Helvetica Neue" font-size="16" font-weight="bold">Workload</tspan> <tspan x="20.053" y="35.464" fill="#fff" font-family="Helvetica Neue" font-size="16" font-weight="bold">(User App)</tspan></text></g><g id="Graphic_9"><path fill="#f0f0f0" d="M 311.3071 2820.4725 L 543.3386 2820.4725 C 547.75687 2820.4725 551.3386 2824.0542 551.3386 2828.4725 L 551.3386 3227.748 C 551.3386 3232.1663 547.75687 3235.748 543.3386 3235.748 L 311.3071 3235.748 C 306.8888 3235.748 303.3071 3232.1663 303.3071 3227.748 L 303.3071 2828.4725 C 303.3071 2824.0542 306.8888 2820.4725 311.3071 2820.4725 Z"/><text fill="#000" transform="translate(308.3071 2828.4725)"><tspan x="35.685" y="18" fill="#000" font-family="Helvetica Neue" font-size="18" font-weight="bold">Kubernetes Cluster</tspan></text></g><g id="Graphic_8"><path fill="#0a55a8" d="M 370.126 3019.6063 L 484.5197 3019.6063 C 488.93797 3019.6063 492.5197 3023.188 492.5197 3027.6063 L 492.5197 3076.803 C 492.5197 3081.2215 488.93797 3084.803 484.5197 3084.803 L 370.126 3084.803 C 365.7077 3084.803 362.126 3081.2215 362.126 3076.803 L 362.126 3027.6063 C 362.126 3023.188 365.7077 3019.6063 370.126 3019.6063 Z"/><text fill="#fff" transform="translate(367.126 3032.7406)"><tspan x="13.253" y="16" fill="#fff" font-family="Helvetica Neue" font-size="16" font-weight="bold">Istio Control </tspan> <tspan x="38.869" y="35.464" fill="#fff" font-family="Helvetica Neue" font-size="16" font-weight="bold">Plane</tspan></text></g><g id="Graphic_7"><path fill="#666" d="M 370.126 2892.756 L 484.5197 2892.756 C 488.93797 2892.756 492.5197 2896.3377 492.5197 2900.756 L 492.5197 2949.9528 C 492.5197 2954.371 488.93797 2957.9528 484.5197 2957.9528 L 370.126 2957.9528 C 365.7077 2957.9528 362.126 2954.371 362.126 2949.9528 L 362.126 2900.756 C 362.126 2896.3377 365.7077 2892.756 370.126 2892.756 Z"/><path stroke="gray" stroke-linecap="round" stroke-linejoin="round" stroke-width="1" d="M 370.126 2892.756 L 484.5197 2892.756 C 488.93797 2892.756 492.5197 2896.3377 492.5197 2900.756 L 492.5197 2949.9528 C 492.5197 2954.371 488.93797 2957.9528 484.5197 2957.9528 L 370.126 2957.9528 C 365.7077 2957.9528 362.126 2954.371 362.126 2949.9528 L 362.126 2900.756 C 362.126 2896.3377 365.7077 2892.756 370.126 2892.756 Z"/><text fill="#fff" transform="translate(367.126 2896.1582)"><tspan x="24.077" y="16" fill="#fff" font-family="Helvetica Neue" font-size="16" font-weight="bold">Workload </tspan> <tspan x="15.309" y="35.464" fill="#fff" font-family="Helvetica Neue" font-size="16" font-weight="bold">Onboarding </tspan> <tspan x="25.981" y="54.928" fill="#fff" font-family="Helvetica Neue" font-size="16" font-weight="bold">Endpoint</tspan></text></g><g id="Graphic_12"><path fill="#f0f0f0" d="M 737.9213 2820.4725 L 969.9528 2820.4725 C 974.371 2820.4725 977.9528 2824.0542 977.9528 2828.4725 L 977.9528 3227.748 C 977.9528 3232.1663 974.371 3235.748 969.9528 3235.748 L 737.9213 3235.748 C 733.503 3235.748 729.9213 3232.1663 729.9213 3227.748 L 729.9213 2828.4725 C 729.9213 2824.0542 733.503 2820.4725 737.9213 2820.4725 Z"/><text fill="#000" transform="translate(734.9213 2828.4725)"><tspan x="55.179" y="18" fill="#000" font-family="Helvetica Neue" font-size="18" font-weight="bold">Cloud Provider</tspan> <tspan x="48.834" y="40.522" fill="#000" font-family="Helvetica Neue" font-size="18" font-weight="bold">(the VM runs on)</tspan></text></g><g id="Graphic_10"><path fill="#666" d="M 796.7402 2892.756 L 911.1339 2892.756 C 915.5521 2892.756 919.1339 2896.3377 919.1339 2900.756 L 919.1339 2949.9528 C 919.1339 2954.371 915.5521 2957.9528 911.1339 2957.9528 L 796.7402 2957.9528 C 792.3219 2957.9528 788.7402 2954.371 788.7402 2949.9528 L 788.7402 2900.756 C 788.7402 2896.3377 792.3219 2892.756 796.7402 2892.756 Z"/><path stroke="gray" stroke-linecap="round" stroke-linejoin="round" stroke-width="1" d="M 796.7402 2892.756 L 911.1339 2892.756 C 915.5521 2892.756 919.1339 2896.3377 919.1339 2900.756 L 919.1339 2949.9528 C 919.1339 2954.371 915.5521 2957.9528 911.1339 2957.9528 L 796.7402 2957.9528 C 792.3219 2957.9528 788.7402 2954.371 788.7402 2949.9528 L 788.7402 2900.756 C 788.7402 2896.3377 792.3219 2892.756 796.7402 2892.756 Z"/><text fill="#fff" transform="translate(793.7402 2915.6223)"><tspan x="21.085" y="16" fill="#fff" font-family="Helvetica Neue" font-size="16" font-weight="bold">AuthN API</tspan></text></g><g id="Line_13"><line x1=".709" x2=".709" y1="2957.953" y2="3006.706" stroke="#666" stroke-dasharray="8 8" stroke-linecap="round" stroke-linejoin="round" stroke-width="2" marker-end="url(#FilledArrow_Marker)"/></g><g id="Line_14"><line x1="427.323" x2="427.323" y1="2957.953" y2="3006.706" stroke="#666" stroke-dasharray="8 8" stroke-linecap="round" stroke-linejoin="round" stroke-width="2" marker-end="url(#FilledArrow_Marker)"/></g><g id="Line_15"><line x1="492.52" x2="775.84" y1="2943.75" y2="2943.75" stroke="#666" stroke-dasharray="8 8" stroke-linecap="round" stroke-linejoin="round" stroke-width="2" marker-end="url(#FilledArrow_Marker)"/></g><g id="Line_16"><line x1="788.74" x2="505.42" y1="2908.505" y2="2908.505" stroke="#666" stroke-dasharray="8 8" stroke-linecap="round" stroke-linejoin="round" stroke-width="2" marker-end="url(#FilledArrow_Marker)"/></g><g id="Graphic_17"><rect width="105.152" height="28.448" x="572.752" y="2894.281" fill="#fff"/><text fill="#000" transform="translate(577.75196 2899.281)"><tspan x="0" y="15" fill="#000" font-family="Helvetica Neue" font-size="16">2. AuthN VM</tspan></text></g><g id="Graphic_18"><rect width="98.928" height="28.448" x="578.806" y="2929.526" fill="#fff"/><text fill="#000" transform="translate(583.8055 2934.526)"><tspan x="0" y="15" fill="#000" font-family="Helvetica Neue" font-size="16">3. AuthZ VM</tspan></text></g><g id="Line_19"><line x1="65.906" x2="349.226" y1="2910" y2="2910" stroke="#666" stroke-dasharray="8 8" stroke-linecap="round" stroke-linejoin="round" stroke-width="2" marker-end="url(#FilledArrow_Marker)"/></g><g id="Graphic_20"><rect width="191.312" height="28.448" x="331.667" y="2969.137" fill="#f0f0ef"/><text fill="#000" transform="translate(336.66684 2974.137)"><tspan x="0" y="15" fill="#000" font-family="Helvetica Neue" font-size="16">4. Register new workload</tspan></text></g><g id="Line_22"><line x1="65.906" x2="349.226" y1="3052.205" y2="3052.205" stroke="#666" stroke-dasharray="8 8" stroke-linecap="round" stroke-linejoin="round" stroke-width="2" marker-end="url(#FilledArrow_Marker)"/></g><g id="Graphic_23"><rect width="115.216" height="28.448" x="147.726" y="3037.981" fill="#fff"/><text fill="#000" transform="translate(152.72575 3042.9808)"><tspan x="0" y="15" fill="#000" font-family="Helvetica Neue" font-size="16">7. Connects to</tspan></text></g><g id="Graphic_24"><rect width="233.152" height="28.448" x="-115.867" y="2966.335" fill="#f0f0ef"/><text fill="#000" transform="translate(-110.86734 2971.3353)"><tspan x="0" y="15" fill="#000" font-family="Helvetica Neue" font-size="16">6. Saves boot config and starts</tspan></text></g><g id="Graphic_25"><rect width="115.216" height="28.448" x="142.751" y="2895.776" fill="#fff"/><text fill="#000" transform="translate(147.75089 2900.776)"><tspan x="0" y="15" fill="#000" font-family="Helvetica Neue" font-size="16">1. Connects to</tspan></text></g><g id="Line_26"><line x1="362.126" x2="78.806" y1="2938.75" y2="2938.75" stroke="#666" stroke-dasharray="8 8" stroke-linecap="round" stroke-linejoin="round" stroke-width="2" marker-end="url(#FilledArrow_Marker)"/></g><g id="Graphic_27"><rect width="110.752" height="28.448" x="145.963" y="2924.526" fill="#fff"/><text fill="#000" transform="translate(150.96276 2929.526)"><tspan x="0" y="15" fill="#000" font-family="Helvetica Neue" font-size="16">5. Boot config</tspan></text></g></g></g></svg>