<svg xmlns="http://www.w3.org/2000/svg" xmlns:xlink="http://www.w3.org/1999/xlink" width="842" height="806" version="1.1" viewBox="0 0 842 806" style="fill:none;stroke:none;fill-rule:evenodd;clip-rule:evenodd;stroke-linecap:round;stroke-linejoin:round;stroke-miterlimit:1.5"><style id="fontImports">@import url(https://fonts.googleapis.com/css2?family=Roboto:wght@400;700&amp;display=block);</style><rect width="842" height="806" x="0" y="0" style="fill:none"/><g id="items" style="isolation:isolate"><g id="blend" style="mix-blend-mode:normal"><g id="g-root-tx_web_vb4i55c96knb-fill" data-item-order="0" transform="translate(471, 699)"><g id="tx_web_vb4i55c96knb-fill" fill="#484848" stroke="none"><g><text style="font:20px Roboto,sans-serif;white-space:pre" font-family="Roboto, sans-serif" font-size="20"><tspan x="14.37" y="33.5" dominant-baseline="ideographic">为Web和电子邮件</tspan><tspan x="14" y="57.5" dominant-baseline="ideographic">通信提供安全性。</tspan></text></g></g></g><g id="g-root-tx_http2_v30c0pc97y87-fill" data-item-order="0" transform="translate(57, 303)"><g id="tx_http2_v30c0pc97y87-fill" fill="#de8431" stroke="none"><g><text style="font:700 20px Roboto,sans-serif;white-space:pre" font-family="Roboto, sans-serif" font-size="20" font-weight="bold"><tspan x="16.7" y="33.5" dominant-baseline="ideographic">HTTP/2</tspan></text></g></g></g><g id="g-root-tx_udp_1qehi3dc96m17-fill" data-item-order="0" transform="translate(699, 303)"><g id="tx_udp_1qehi3dc96m17-fill" fill="#e0cb15" stroke="none"><g><text style="font:700 20px Roboto,sans-serif;white-space:pre" font-family="Roboto, sans-serif" font-size="20" font-weight="bold"><tspan x="14.47" y="33.5" dominant-baseline="ideographic">UDP</tspan></text></g></g></g><g id="g-root-tx_web_1lxf1spc96kn8-fill" data-item-order="0" transform="translate(27, 339)"><g id="tx_web_1lxf1spc96kn8-fill" fill="#484848" stroke="none"><g><text style="font:20px Roboto,sans-serif;white-space:pre" font-family="Roboto, sans-serif" font-size="20"><tspan x="12.37" y="33.5" dominant-baseline="ideographic">增强Web性能。</tspan></text></g></g></g><g id="g-root-tx__dkgyqhc96jup-fill" data-item-order="0" transform="translate(639, 339)"><g id="tx__dkgyqhc96jup-fill" fill="#484848" stroke="none"><g><text style="font:20px Roboto,sans-serif;white-space:pre" font-family="Roboto, sans-serif" font-size="20"><tspan x="24" y="33.5" dominant-baseline="ideographic">用于快速数据传</tspan><tspan x="14" y="57.5" dominant-baseline="ideographic">输，如视频流和在</tspan><tspan x="54" y="81.5" dominant-baseline="ideographic">线游戏。</tspan></text></g></g></g><g id="g-root-tx__90gd5c96lfm-fill" data-item-order="0" transform="translate(471, 135)"><g id="tx__90gd5c96lfm-fill" fill="#484848" stroke="none"><g><text style="font:20px Roboto,sans-serif;white-space:pre" font-family="Roboto, sans-serif" font-size="20"><tspan x="14" y="33.5" dominant-baseline="ideographic">用于可靠的数据传</tspan><tspan x="14" y="57.5" dominant-baseline="ideographic">输，如文件传输和</tspan><tspan x="44" y="81.5" dominant-baseline="ideographic">电子邮件。</tspan></text></g></g></g><g id="g-root-tx_api_7ri6xc96j9f-fill" data-item-order="0" transform="translate(189, 135)"><g id="tx_api_7ri6xc96j9f-fill" fill="#484848" stroke="none"><g><text style="font:20px Roboto,sans-serif;white-space:pre" font-family="Roboto, sans-serif" font-size="20"><tspan x="12.45" y="33.5" dominant-baseline="ideographic">用于高性能API和</tspan><tspan x="48" y="57.5" dominant-baseline="ideographic">微服务。</tspan></text></g></g></g><g id="g-root-tx_quic_zs6yftc96m1a-fill" data-item-order="0" transform="translate(69, 471)"><g id="tx_quic_zs6yftc96m1a-fill" fill="#92bd39" stroke="none"><g><text style="font:700 20px Roboto,sans-serif;white-space:pre" font-family="Roboto, sans-serif" font-size="20" font-weight="bold"><tspan x="17.05" y="33.5" dominant-baseline="ideographic">QUIC</tspan></text></g></g></g><g id="g-root-tx_http_hrjtndc97zt5-fill" data-item-order="0" transform="translate(693, 483)"><g id="tx_http_hrjtndc97zt5-fill" fill="#1eabda" stroke="none"><g><text style="font:700 20px Roboto,sans-serif;white-space:pre" font-family="Roboto, sans-serif" font-size="20" font-weight="bold"><tspan x="14.17" y="33.5" dominant-baseline="ideographic">HTTP</tspan></text></g></g></g><g id="g-root-tx_web_1d1s1jtc96lfx-fill" data-item-order="0" transform="translate(15, 507)"><g id="tx_web_1d1s1jtc96lfx-fill" fill="#484848" stroke="none"><g><text style="font:20px Roboto,sans-serif;white-space:pre" font-family="Roboto, sans-serif" font-size="20"><tspan x="14.37" y="33.5" dominant-baseline="ideographic">提供高效的Web传</tspan><tspan x="74" y="57.5" dominant-baseline="ideographic">输。</tspan></text></g></g></g><g id="g-root-tx_tcp_4gpsd5c97y8a-fill" data-item-order="0" transform="translate(531, 99)"><g id="tx_tcp_4gpsd5c97y8a-fill" fill="#3cc583" stroke="none"><g><text style="font:700 20px Roboto,sans-serif;white-space:pre" font-family="Roboto, sans-serif" font-size="20" font-weight="bold"><tspan x="14.96" y="33.5" dominant-baseline="ideographic">TCP</tspan></text></g></g></g><g id="g-root-tx_grpc_qn6tw9c97z0g-fill" data-item-order="0" transform="translate(237, 99)"><g id="tx_grpc_qn6tw9c97z0g-fill" fill="#e55753" stroke="none"><g><text style="font:700 20px Roboto,sans-serif;white-space:pre" font-family="Roboto, sans-serif" font-size="20" font-weight="bold"><tspan x="14.91" y="33.5" dominant-baseline="ideographic">gRPC</tspan></text></g></g></g><g id="g-root-tx_api_hznzrtc96m88-fill" data-item-order="0" transform="translate(651, 519)"><g id="tx_api_hznzrtc96m88-fill" fill="#484848" stroke="none"><g><text style="font:20px Roboto,sans-serif;white-space:pre" font-family="Roboto, sans-serif" font-size="20"><tspan x="12" y="33.5" dominant-baseline="ideographic">用于网页浏览和</tspan><tspan x="36.45" y="57.5" dominant-baseline="ideographic">API调用。</tspan></text></g></g></g><g id="g-root-tx_websocke_1d3ngt5c96kgd-fill" data-item-order="0" transform="translate(213, 663)"><g id="tx_websocke_1d3ngt5c96kgd-fill" fill="#de58a9" stroke="none"><g><text style="font:700 20px Roboto,sans-serif;white-space:pre" font-family="Roboto, sans-serif" font-size="20" font-weight="bold"><tspan x="13.32" y="33.5" dominant-baseline="ideographic">WebSocket</tspan></text></g></g></g><g id="g-root-tx_tls_1lzah21c96jno-fill" data-item-order="0" transform="translate(531, 663)"><g id="tx_tls_1lzah21c96jno-fill" fill="#7f64ea" stroke="none"><g><text style="font:700 20px Roboto,sans-serif;white-space:pre" font-family="Roboto, sans-serif" font-size="20" font-weight="bold"><tspan x="16.25" y="33.5" dominant-baseline="ideographic">TLS</tspan></text></g></g></g><g id="g-root-tx__zqy09lc96jv2-fill" data-item-order="0" transform="translate(183, 699)"><g id="tx__zqy09lc96jv2-fill" fill="#484848" stroke="none"><g><text style="font:20px Roboto,sans-serif;white-space:pre" font-family="Roboto, sans-serif" font-size="20"><tspan x="14" y="33.5" dominant-baseline="ideographic">支持实时应用，如</tspan><tspan x="44" y="57.5" dominant-baseline="ideographic">在线聊天。</tspan></text></g></g></g><g id="g-root-tx__v9vjyxc92by8-fill" data-item-order="0" transform="translate(345, 39)"><g id="tx__v9vjyxc92by8-fill" fill="#484848" stroke="none"><g><text style="font:700 20px Roboto,sans-serif;white-space:pre" font-family="Roboto, sans-serif" font-size="20" font-weight="bold"><tspan x="16" y="33.5" dominant-baseline="ideographic">网络协议概述</tspan></text></g></g></g><g id="g-root-8.cu_sy_1430nvdc92ej3-stroke" data-item-order="-222906" transform="translate(258.234375, 219)"><g id="8.cu_sy_1430nvdc92ej3-stroke" fill="none" stroke="#e55753" stroke-linecap="round" stroke-linejoin="round" stroke-miterlimit="4" stroke-width="2"><g><path d="M 162.766 10L 162.7843 10L 162.7868 32.619C 162.789 53.0793 162.7912 73.5397 162.7952 94L 162.766 94C 151.2191 94 140.0184 95.4826 129.3441 98.2679L 142.1646 129.2194C 130.1367 131.8501 118.9524 136.7358 109.0769 143.411L 96.0883 112.0539C 86.3215 117.7815 77.3566 124.729 69.4027 132.687C 50.2617 113.5625 29.0971 92.3987 10 73.2959C 49.0908 34.1894 103.1035 10 162.766 10Z"/></g></g></g><g id="g-root-7.cu_sy_zntmu1c92c5k-stroke" data-item-order="-222902" transform="translate(195, 282.2725830078125)"><g id="7.cu_sy_zntmu1c92c5k-stroke" fill="none" stroke="#de8431" stroke-linecap="round" stroke-linejoin="round" stroke-miterlimit="4" stroke-width="2"><g><path d="M 73.2573 10C 34.1735 49.0877 10 103.085 10 162.7279L 94 162.7275C 94 151.1795 95.4829 139.9778 98.2687 129.3026L 131.4497 143.0466C 133.581 130.884 138.0017 119.5093 144.2511 109.383L 112.0555 96.0472C 117.7761 86.2927 124.7135 77.3382 132.6593 69.392L 73.2573 10Z"/></g></g></g><g id="g-root-6.cu_sy_mcd4gpc92dqh-stroke" data-item-order="-222898" transform="translate(195, 434.9990234375)"><g id="6.cu_sy_mcd4gpc92dqh-stroke" fill="none" stroke="#92bd39" stroke-linecap="round" stroke-linejoin="round" stroke-miterlimit="4" stroke-width="2"><g><path d="M 10 10C 10 69.6467 34.1766 123.6467 73.2649 162.735L 132.6621 103.3383C 124.7166 95.3928 117.7793 86.4392 112.0586 76.6857L 147.356 62.065C 140.5033 52.2946 135.4248 41.1889 132.5885 29.2158L 98.2703 43.4309C 95.4835 32.7538 94 21.5502 94 10L 10 10Z"/></g></g></g><g id="g-root-5.cu_sy_91j36hc92c5m-stroke" data-item-order="-222894" transform="translate(258.2642517089844, 512.8798828125)"><g id="5.cu_sy_91j36hc92c5m-stroke" fill="none" stroke="#de58a9" stroke-linecap="round" stroke-linejoin="round" stroke-miterlimit="4" stroke-width="2"><g><path d="M 110.9991 10C 121.0219 16.4254 132.3177 21.0387 144.4241 23.3775L 129.3156 59.8526C 139.9807 62.6353 151.1711 64.1177 162.7074 64.1201C 162.7113 84.4042 162.7134 104.6883 162.7156 124.9724L 162.7181 148.1201C 103.078 148.1153 49.0845 123.9392 10 84.8542L 69.3977 25.458C 77.3457 33.406 86.3025 40.3452 96.0597 46.067L 110.9991 10Z"/></g></g></g><g id="g-root-4.cu_sy_4lpl21c92cxv-stroke" data-item-order="-222890" transform="translate(410.97265625, 512.8798828125)"><g id="4.cu_sy_4lpl21c92cxv-stroke" fill="none" stroke="#7f64ea" stroke-linecap="round" stroke-linejoin="round" stroke-miterlimit="4" stroke-width="2"><g><path d="M 43.4564 59.8507L 28.3486 23.3773C 40.455 21.0386 51.7508 16.4254 61.7737 10L 76.7114 46.0629C 86.4666 40.3414 95.4217 33.403 103.3683 25.4561C 123.1679 45.2545 142.9664 65.054 162.7647 84.8536C 123.6763 123.9429 69.6755 148.1203 10.0279 148.1203L 10.0107 148.1203L 10.0082 125.5088C 10.006 105.0459 10.0039 84.5831 10 64.1203L 10.0279 64.1203C 21.5772 64.1203 32.78 62.637 43.4564 59.8507ZM 10.2171 232.1203C 10.3249 232.1204 10.4326 232.1205 10.5403 232.1203L 10.0285 232.1203L 10.2171 232.1203Z"/></g></g></g><g id="g-root-3.cu_sy_1ur6ms9c92djg-stroke" data-item-order="-222886" transform="translate(489.65625, 435)"><g id="3.cu_sy_1ur6ms9c92djg-stroke" fill="none" stroke="#1eabda" stroke-linecap="round" stroke-linejoin="round" stroke-miterlimit="4" stroke-width="2"><g><path d="M 147.3442 10.0005C 147.3442 69.647 123.1678 123.6469 84.0797 162.7351L 24.6826 103.3383C 32.6294 95.3914 39.5677 86.4359 45.2889 76.6803L 10 62.0632C 16.8527 52.2927 21.931 41.187 24.7672 29.2138L 59.0756 43.4248C 61.8613 32.7495 63.3442 21.5479 63.3442 10L 147.3442 10.0005Z"/></g></g></g><g id="g-root-2.cu_sy_1hgcli1c92byl-stroke" data-item-order="-222882" transform="translate(492.759765625, 282.265625)"><g id="2.cu_sy_1hgcli1c92byl-stroke" fill="none" stroke="#e0cb15" stroke-linecap="round" stroke-linejoin="round" stroke-miterlimit="4" stroke-width="2"><g><path d="M 144.24 162.7346C 144.2398 103.088 120.0632 49.0882 80.9751 10L 21.5781 69.397C 29.5257 77.3446 36.4646 86.301 42.1861 96.0576L 10 109.3895C 16.2494 119.5158 20.67 130.8906 22.8012 143.0532L 55.9721 129.3134C 58.7573 139.9876 60.2399 151.188 60.24 162.7347L 144.24 162.7346Z"/></g></g></g><g id="g-root-1.cu_sy_1d0j3dlc92cqu-stroke" data-item-order="-222878" transform="translate(411.01641845703125, 219)"><g id="1.cu_sy_1d0j3dlc92cqu-stroke" fill="none" stroke="#3cc583" stroke-linecap="round" stroke-linejoin="round" stroke-miterlimit="4" stroke-width="2"><g><path d="M 10 10C 69.6404 10.0043 123.6342 34.1801 162.719 73.2649L 103.3222 132.662C 95.377 124.7169 86.4237 117.7798 76.6707 112.0592L 63.6843 143.411C 53.8089 136.7357 42.6245 131.85 30.5967 129.2192L 43.416 98.2706C 32.7485 95.4862 21.5553 94.0027 10.016 94L 10 10Z"/></g></g></g><g id="g-root-0.cu_sy_144w34pc92djj-stroke" data-item-order="-222874" transform="translate(315, 336)"><g id="0.cu_sy_144w34pc92djj-stroke" fill="none" stroke="gray" stroke-linecap="round" stroke-linejoin="round" stroke-miterlimit="4" stroke-width="2"><g><path d="M 202 106C 202 159.0193 159.0193 202 106 202C 52.9807 202 10 159.0193 10 106C 10 52.9807 52.9807 10 106 10C 159.0193 10 202 52.9807 202 106Z"/></g></g></g><g id="g-root-1_1hap3h5cj64uj-stroke" data-item-order="0" transform="translate(453, 249)"><g id="1_1hap3h5cj64uj-stroke" fill="none" stroke="#3cc583" stroke-linecap="round" stroke-linejoin="round" stroke-miterlimit="4" stroke-width="2"><g><path d="M 57 55C 57 56.104568 56.104568 57 55 57L 41 57C 39.895432 57 39 56.104568 39 55L 39 43C 39 41.895432 39.895432 41 41 41L 55 41C 56.104568 41 57 41.895432 57 43ZM 45.5 49.125999C 45.5 50.506714 46.619289 51.625999 48 51.625999C 49.380711 51.625999 50.5 50.506714 50.5 49.125999C 50.5 47.745289 49.380711 46.625999 48 46.625999C 46.619289 46.625999 45.5 47.745289 45.5 49.125999ZM 53 38C 53 35.238579 50.761425 33 48 33C 45.238575 33 43 35.238579 43 38L 43 41L 53 41ZM 21 51L 33 51M 27.002001 41L 27.002001 51M 16.5 50C 16.223858 50 16 50.223858 16 50.5C 16 50.776142 16.223858 51 16.5 51C 16.776142 51 17 50.776142 17 50.5C 17 50.223858 16.776142 50 16.5 50L 16.5 50M 11.5 50C 11.223858 50 11 50.223858 11 50.5C 11 50.776142 11.223858 51 11.5 51C 11.776142 51 12 50.776142 12 50.5C 12 50.223858 11.776142 50 11.5 50L 11.5 50M 18.5 35.5C 18.223858 35.5 18 35.723858 18 36C 18 36.276142 18.223858 36.5 18.5 36.5C 18.776142 36.5 19 36.276142 19 36C 19 35.723858 18.776142 35.5 18.5 35.5L 18.5 35.5M 23.5 35.5C 23.223858 35.5 23 35.723858 23 36C 23 36.276142 23.223858 36.5 23.5 36.5C 23.776142 36.5 24 36.276142 24 36C 24 35.723858 23.776142 35.5 23.5 35.5L 23.5 35.5M 35 31L 16 31C 13.238577 31 11 33.238579 11 36C 11 38.761425 13.238577 41 16 41L 35 41M 18.5 15.5C 18.223858 15.5 18 15.723858 18 16C 18 16.276142 18.223858 16.5 18.5 16.5C 18.776142 16.5 19 16.276142 19 16C 19 15.723858 18.776142 15.5 18.5 15.5L 18.5 15.5M 23.5 15.5C 23.223858 15.5 23 15.723858 23 16C 23 16.276142 23.223858 16.5 23.5 16.5C 23.776142 16.5 24 16.276142 24 16C 24 15.723858 23.776142 15.5 23.5 15.5L 23.5 15.5M 45 16C 45 13.238576 42.761425 11 40 11L 16 11C 13.238577 11 11 13.238577 11 16C 11 18.761425 13.238577 21 16 21L 40 21C 42.761425 21 45 18.761425 45 16ZM 18.5 25.5C 18.223858 25.5 18 25.723858 18 26C 18 26.276142 18.223858 26.5 18.5 26.5C 18.776142 26.5 19 26.276142 19 26C 19 25.723858 18.776142 25.5 18.5 25.5L 18.5 25.5M 23.5 25.5C 23.223858 25.5 23 25.723858 23 26C 23 26.276142 23.223858 26.5 23.5 26.5C 23.776142 26.5 24 26.276142 24 26C 24 25.723858 23.776142 25.5 23.5 25.5L 23.5 25.5M 45 26C 45 23.238577 42.761425 21 40 21L 16 21C 13.238577 21 11 23.238577 11 26C 11 28.761423 13.238577 31 16 31L 40 31C 42.761425 31 45 28.761423 45 26Z"/></g></g></g><g id="g-root-bott_1upwd7dcj1yx6-stroke" data-item-order="0" transform="translate(231, 345)"><g id="bott_1upwd7dcj1yx6-stroke" fill="none" stroke="#de8431" stroke-linecap="round" stroke-linejoin="round" stroke-miterlimit="4" stroke-width="2"><g><path d="M 21 33C 20.450001 33 20.318001 33.318001 20.708 33.708L 33.292 46.293999C 33.479691 46.482697 33.734856 46.588791 34.000999 46.588791C 34.267143 46.588791 34.522312 46.482697 34.709999 46.293999L 47.332001 33.743999C 47.731998 33.358002 47.591999 33.038002 47.042 33.034L 41 33L 41 13C 41 11.895431 40.104568 11 39 11L 29 11C 27.89543 11 27 11.895431 27 13L 27 32C 27 32.552284 26.552284 33 26 33ZM 57 47L 57 55C 57 56.104568 56.104568 57 55 57L 13 57C 11.895431 57 11 56.104568 11 55L 11 47"/></g></g></g><g id="g-root-squa_zk1k2hcj3ci2-stroke" data-item-order="0" transform="translate(549, 345)"><g id="squa_zk1k2hcj3ci2-stroke" fill="none" stroke="#e0cb15" stroke-linecap="round" stroke-linejoin="round" stroke-miterlimit="4" stroke-width="2"><g><path d="M 22 11.714286L 46 11.714286C 46 11.714286 56.285713 11.714286 56.285713 22L 56.285713 46C 56.285713 46 56.285713 56.285713 46 56.285713L 22 56.285713C 22 56.285713 11.714286 56.285713 11.714286 46L 11.714286 22C 11.714286 22 11.714286 11.714286 22 11.714286M 23.714287 37.428574L 39.142857 22L 27.142857 22M 44.285713 30.571428L 28.857143 46L 40.857143 46"/></g></g></g><g id="g-root-conn_4myj89c96lmy-stroke" data-item-order="0" transform="translate(363, 387)"><g id="conn_4myj89c96lmy-stroke" fill="none" stroke="#4e88e7" stroke-linecap="round" stroke-linejoin="round" stroke-miterlimit="4" stroke-width="2"><g><path d="M 12.144 57.992001C 12.144001 83.397102 32.738903 103.992004 58.144001 103.992004C 83.549103 103.992004 104.143997 83.397102 104.143997 57.992001C 104.143997 32.586903 83.549103 11.992001 58.144001 11.992001C 32.738903 11.992001 12.144001 32.586903 12.144001 57.992001ZM 36.143997 40.992001C 36.144001 45.962563 40.173439 49.992001 45.144001 49.992001C 50.114563 49.992001 54.144001 45.962563 54.144001 40.992001C 54.144001 36.021439 50.114563 31.992001 45.144001 31.992001C 40.173439 31.992001 36.144001 36.021439 36.144001 40.992001ZM 62.144001 80.991997C 62.144001 83.753426 64.382576 85.992004 67.143997 85.992004C 69.905426 85.992004 72.143997 83.753426 72.143997 80.992004C 72.143997 78.230576 69.905426 75.992004 67.143997 75.992004C 64.382576 75.992004 62.144001 78.230576 62.144001 80.992004ZM 78.143997 50.992001C 78.144005 54.857994 81.278008 57.992001 85.144005 57.992001C 89.009995 57.992001 92.144005 54.857994 92.144005 50.992001C 92.144005 47.126007 89.009995 43.992001 85.144005 43.992001C 81.278008 43.992001 78.144005 47.126007 78.144005 50.992001ZM 54.144001 40C 63.085838 40.340622 71.60582 43.89061 78.143997 50M 86.540001 57.855999L 88.139999 59.992001C 88.139999 59.992001 94.139999 67.992004 94.139999 85.991997M 77.435997 16.219999L 78.143997 18C 81.039375 26.577034 82.3936 35.598888 82.143997 44.647999M 80.143997 56C 79.642982 64.26088 76.665703 72.179398 71.599998 78.723999M 64.751999 85.384003L 64.143997 86C 64.143997 86 54.144001 96 32.143997 96M 58.144001 12C 52.671692 17.853003 48.271343 24.622772 45.143997 31.999998M 40.472 48.688L 40.143997 50C 37.964584 60.817932 39.368767 72.051399 44.144001 82C 50.944 95.624001 68.143997 102 68.143997 102L 69.636002 102.556M 36.143997 40.992001C 36.143997 40.992001 20.799999 42.091999 13.044 48.883999M 13.264 68.127998L 14.144 67.992004C 14.144 67.992004 41.667999 63.759998 64.040001 77.071999"/></g></g></g><g id="g-root-2_zs5n15cj8zkd-stroke" data-item-order="0" transform="translate(231, 477)"><g id="2_zs5n15cj8zkd-stroke" fill="none" stroke="#92bd39" stroke-linecap="round" stroke-linejoin="round" stroke-miterlimit="4" stroke-width="2"><g><path d="M 38 50L 30 50L 30 26C 30.38858 23.758072 31.898052 21.871233 34 21C 36.101952 21.871233 37.61142 23.758072 38 26ZM 16 43.694L 16 27C 16 25.343147 17.343145 24 19 24C 20.656855 24 22 25.343147 22 27L 22 40.351997M 26 38.176003L 26 20C 26 15.582 31 11 34 11C 37 11 42 15.582 42 20L 42 38.176003M 30 36L 17 43.071999C 14.59936 44.068073 13.02516 46.401039 13 49L 30 49M 38 49L 55 49C 54.973785 46.401367 53.39994 44.068928 51 43.071999L 38 36M 34 29L 34 33M 16 49L 14.316 54.051998C 14.219238 54.271996 14.246174 54.526775 14.386798 54.721676C 14.527422 54.916576 14.760717 55.022465 15 54.999996L 23 55C 23.239283 55.022465 23.472576 54.916576 23.613201 54.721676C 23.753826 54.526775 23.780762 54.271996 23.683998 54.051998L 22 49M 52 43.694L 52 27C 52 25.343147 50.656857 24 49 24C 47.343147 24 46 25.343147 46 27L 46 40.351997M 52 49L 53.683998 54.051998C 53.780758 54.271996 53.753822 54.526775 53.613201 54.721676C 53.472576 54.916576 53.239281 55.022465 52.999996 54.999996L 45 55C 44.760715 55.022465 44.52742 54.916576 44.386795 54.721676C 44.246174 54.526775 44.219238 54.271996 44.315998 54.051998L 46 49M 30.132 50L 28.292 56.043999C 28.20262 56.26907 28.23592 56.524353 28.380045 56.718964C 28.524172 56.913574 28.758648 57.019867 29 57L 39 57C 39.241829 57.019398 39.476608 56.912914 39.62133 56.718197C 39.766045 56.523476 39.800308 56.267963 39.711998 56.042L 37.896 50"/></g></g></g><g id="g-root-brow_91huxlciz4sn-stroke" data-item-order="0" transform="translate(549, 477)"><g id="brow_91huxlciz4sn-stroke" fill="none" stroke="#1eabda" stroke-linecap="round" stroke-linejoin="round" stroke-miterlimit="4" stroke-width="2"><g><path d="M 11 19L 51 19M 17 14.5C 16.723858 14.5 16.5 14.723858 16.5 15C 16.5 15.276142 16.723858 15.5 17 15.5C 17.276142 15.5 17.5 15.276142 17.5 15C 17.5 14.723858 17.276142 14.5 17 14.5L 17 14.5M 21 14.5C 20.723858 14.5 20.5 14.723858 20.5 15C 20.5 15.276142 20.723858 15.5 21 15.5C 21.276142 15.5 21.5 15.276142 21.5 15C 21.5 14.723858 21.276142 14.5 21 14.5L 21 14.5M 25 14.5C 24.723858 14.5 24.5 14.723858 24.5 15C 24.5 15.276142 24.723858 15.5 25 15.5C 25.276142 15.5 25.5 15.276142 25.5 15C 25.5 14.723858 25.276142 14.5 25 14.5L 25 14.5M 25 43L 15 43C 12.790861 43 11 41.209137 11 39L 11 15C 11 12.790861 12.790861 11 15 11L 47 11C 49.209141 11 51 12.790861 51 15L 51 27M 43 57C 39 54 37 48 37 43C 37 38 39 32 43 29M 43 57C 47 54 49 48 49 43C 49 38 47 32 43 29M 30.348 37L 55.652 37M 30.348 49L 55.652 49M 29 43L 57 43M 29 43C 29.000002 50.731987 35.268013 57 43 57C 50.731987 57 57 50.731987 57 43C 57 35.268013 50.731987 29.000002 43 29.000002C 35.268013 29.000002 29.000002 35.268013 29.000002 43Z"/></g></g></g><g id="g-root-3_1lqilllciqoeg-stroke" data-item-order="0" transform="translate(322, 573)"><g id="3_1lqilllciqoeg-stroke" fill="none" stroke="#de58a9" stroke-linecap="round" stroke-linejoin="round" stroke-miterlimit="4" stroke-width="2"><g><path d="M 41 31L 41 55C 41 56.104568 40.104568 57 39 57L 13 57C 11.895431 57 11 56.104568 11 55L 11 29C 11 27.89543 11.895431 27 13 27L 21 27M 47 17L 36 17C 30 17 28 22.584 28 27C 28.141979 29.91412 29.190838 32.711075 31 35L 31 30C 31 28 32 27 36 27L 47 27L 47 33L 57 22L 47 11Z"/></g></g></g><g id="g-root-lock_v3lkuxciwbgm-stroke" data-item-order="0" transform="translate(453, 573)"><g id="lock_v3lkuxciwbgm-stroke" fill="none" stroke="#7f64ea" stroke-linecap="round" stroke-linejoin="round" stroke-miterlimit="4" stroke-width="2"><g><path d="M 20.285715 28.857143L 47.714287 28.857143C 47.714287 28.857143 51.142857 28.857143 51.142857 32.285713L 51.142857 52.857143C 51.142857 52.857143 51.142857 56.285713 47.714287 56.285713L 20.285715 56.285713C 20.285715 56.285713 16.857143 56.285713 16.857143 52.857143L 16.857143 32.285713C 16.857143 32.285713 16.857143 28.857143 20.285715 28.857143M 46 28.857143L 46 23.714287C 46 17.086868 40.627419 11.714287 34 11.714287C 27.372585 11.714287 22 17.086868 22 23.714287L 22 28.857143M 32.285713 42.57143C 32.285713 43.518204 33.053226 44.285713 34 44.285713C 34.946774 44.285713 35.714287 43.518204 35.714287 42.57143C 35.714287 41.624657 34.946774 40.857143 34 40.857143C 33.053226 40.857143 32.285713 41.624657 32.285713 42.57143"/></g></g></g><g id="g-root-sett_m7dbrtc9ardb-stroke" data-item-order="0" transform="translate(322, 249)"><g id="sett_m7dbrtc9ardb-stroke" fill="none" stroke="#e55753" stroke-linecap="round" stroke-linejoin="round" stroke-miterlimit="4" stroke-width="2"><g><path d="M 53 19C 53 21.209139 51.209141 23 49 23L 15 23C 12.790861 23 11 21.209139 11 19L 11 15C 11 12.790861 12.790861 11 15 11L 49 11C 51.209141 11 53 12.790861 53 15ZM 15 35C 12.790861 35 11 33.209137 11 31L 11 27C 11 24.790861 12.790861 23 15 23L 49 23C 51.209141 23 53 24.790861 53 27L 53 30M 19.5 16.5C 19.223858 16.5 19 16.723858 19 17C 19 17.276142 19.223858 17.5 19.5 17.5C 19.776142 17.5 20 17.276142 20 17C 20 16.723858 19.776142 16.5 19.5 16.5L 19.5 16.5M 26.5 16.5C 26.223858 16.5 26 16.723858 26 17C 26 17.276142 26.223858 17.5 26.5 17.5C 26.776142 17.5 27 17.276142 27 17C 27 16.723858 26.776142 16.5 26.5 16.5L 26.5 16.5M 19.5 28.5C 19.223858 28.5 19 28.723858 19 29C 19 29.276142 19.223858 29.5 19.5 29.5C 19.776142 29.5 20 29.276142 20 29C 20 28.723858 19.776142 28.5 19.5 28.5L 19.5 28.5M 26.5 28.5C 26.223858 28.5 26 28.723858 26 29C 26 29.276142 26.223858 29.5 26.5 29.5C 26.776142 29.5 27 29.276142 27 29C 27 28.723858 26.776142 28.5 26.5 28.5L 26.5 28.5M 28 47L 15 47C 12.790861 47 11 45.209141 11 43L 11 39C 11 36.790863 12.790861 35 15 35L 31 35M 19.5 40.5C 19.223858 40.5 19 40.723858 19 41C 19 41.276142 19.223858 41.5 19.5 41.5C 19.776142 41.5 20 41.276142 20 41C 20 40.723858 19.776142 40.5 19.5 40.5L 19.5 40.5M 26.5 40.5C 26.223858 40.5 26 40.723858 26 41C 26 41.276142 26.223858 41.5 26.5 41.5C 26.776142 41.5 27 41.276142 27 41C 27 40.723858 26.776142 40.5 26.5 40.5L 26.5 40.5M 42.624001 44.062C 42.624001 45.650372 43.911629 46.938 45.5 46.938C 47.088371 46.938 48.375999 45.650372 48.375999 44.062C 48.375999 42.473629 47.088371 41.186001 45.5 41.186001C 43.911629 41.186001 42.624001 42.473629 42.624001 44.062ZM 47.942001 32.940002L 48.790001 35.723999C 49.078461 36.684395 50.062992 37.255859 51.040001 37.029999L 53.862 36.375999C 54.959873 36.12854 56.09087 36.625343 56.65136 37.601265C 57.211845 38.577183 57.071003 39.804428 56.304001 40.627998L 54.327999 42.756001C 53.651917 43.490814 53.651917 44.621181 54.327999 45.355999L 56.301998 47.486C 57.069004 48.30957 57.209846 49.536816 56.649357 50.512737C 56.088871 51.488655 54.957874 51.985462 53.860001 51.737999L 51.037998 51.084C 50.062046 50.866154 49.084072 51.441227 48.799999 52.400002L 47.952 55.183998C 47.627914 56.261845 46.635513 56.999741 45.509998 56.999741C 44.384487 56.999741 43.392086 56.261845 43.068001 55.183998L 42.209999 52.400002C 41.921543 51.43961 40.937012 50.868141 39.959999 51.094002L 37.138 51.748001C 36.040127 51.995461 34.90913 51.498657 34.34864 50.522736C 33.788155 49.546818 33.928997 48.319572 34.695999 47.495998L 36.669998 45.366001C 37.346077 44.631184 37.346077 43.500813 36.669998 42.765999L 34.695999 40.636002C 33.928997 39.812428 33.788155 38.585182 34.34864 37.609264C 34.90913 36.633347 36.040127 36.136539 37.138 36.384003L 39.959999 37.038002C 40.936852 37.26281 41.920708 36.691734 42.209999 35.732002L 43.057999 32.947998C 43.380318 31.869621 44.37151 31.130095 45.497025 31.12825C 46.622543 31.126406 47.616154 31.862682 47.942001 32.940002Z"/></g></g></g></g></g></svg>