<svg xmlns="http://www.w3.org/2000/svg" width="1044" height="717" viewBox="-867 -60 1044 717"><defs><marker id="a" stroke-linejoin="miter" stroke-miterlimit="10" color="#0a55a8" markerHeight="6" markerUnits="strokeWidth" markerWidth="7" orient="auto" overflow="visible" viewBox="-1 -3 7 6"><path fill="currentColor" stroke="currentColor" d="M4.8 0 0-1.8v3.6Z"/></marker><marker id="b" stroke-linejoin="miter" stroke-miterlimit="10" color="#000" markerHeight="6" markerUnits="strokeWidth" markerWidth="7" orient="auto" overflow="visible" viewBox="-1 -3 7 6"><path fill="currentColor" stroke="currentColor" d="M4.8 0 0-1.8v3.6Z"/></marker></defs><g fill="none"><path fill="#fff" d="M-867-60H177v717H-867z"/><path fill="#fff" d="M-866-44H176v700H-866z"/><path stroke="#f15623" stroke-linecap="round" stroke-linejoin="round" d="M-866-44H176v700H-866z"/><path fill="#f15623" d="M-866-59H176v362H-866z"/><path stroke="#f05a26" stroke-linecap="round" stroke-linejoin="round" d="M-866-59H176v362H-866z"/><text fill="#fff" transform="translate(-861 -54)"><tspan x="0" y="18" font-family="Helvetica Neue" font-size="18" font-weight="bold">Management Plane</tspan></text><path fill="#fff" d="M-488.25 355.5h286.5v271h-286.5z"/><path stroke="gray" stroke-linecap="round" stroke-linejoin="round" d="M-488.25 355.5h286.5v271h-286.5z"/><text fill="#000" transform="translate(-483.25 602.036)"><tspan x="48.778" y="16" font-family="Helvetica Neue" font-size="16" font-weight="bold">Kubernetes on Premise</tspan></text><path fill="#f15623" d="M-828 93.5h966V284h-966z"/><path stroke="#fff" stroke-linecap="round" stroke-linejoin="round" d="M-828 93.5h966V284h-966z"/><text fill="#fff" transform="translate(-823 98.5)"><tspan x="0" y="16" font-family="Helvetica Neue" font-size="16" font-weight="bold">Global Control Plane</tspan></text><path fill="#fff" d="M-828-11h146v64h-146z"/><text fill="#000" transform="translate(-823 1.536)"><tspan x="49.776" y="16" font-family="Helvetica Neue" font-size="16">Multi</tspan> <tspan x="37.464" y="35.464" font-family="Helvetica Neue" font-size="16">Tenancy</tspan></text><path fill="#fff" d="M-664-11h146v64h-146z"/><text fill="#000" transform="translate(-659 1.536)"><tspan x="40.576" y="16" font-family="Helvetica Neue" font-size="16">Service</tspan> <tspan x="33.616" y="35.464" font-family="Helvetica Neue" font-size="16">Inventory</tspan></text><path fill="#fff" d="M-500-11h146v64h-146z"/><text fill="#000" transform="translate(-495 11.268)"><tspan x="19.528" y="16" font-family="Helvetica Neue" font-size="16">Observability</tspan></text><path fill="#fff" d="M-336-11h146v64h-146z"/><text fill="#000" transform="translate(-331 1.536)"><tspan x="21.448" y="16" font-family="Helvetica Neue" font-size="16">Role/Access</tspan> <tspan x="19.544" y="35.464" font-family="Helvetica Neue" font-size="16">Management</tspan></text><path fill="#fff" d="M-172-11h146v64h-146z"/><text fill="#000" transform="translate(-167 11.268)"><tspan x="48.592" y="16" font-family="Helvetica Neue" font-size="16">Audit</tspan></text><path fill="#fff" d="M-8-11h146v64H-8z"/><text fill="#000" transform="translate(-3 1.536)"><tspan x="17.912" y="16" font-family="Helvetica Neue" font-size="16">Configuration</tspan> <tspan x="19.544" y="35.464" font-family="Helvetica Neue" font-size="16">Management</tspan></text><path fill="#fff" d="M-787.5 137h146v64h-146z"/><text fill="#000" transform="translate(-782.5 149.536)"><tspan x="40.576" y="16" font-family="Helvetica Neue" font-size="16">Service</tspan> <tspan x="31.384" y="35.464" font-family="Helvetica Neue" font-size="16">Discovery</tspan></text><path fill="#fff" d="M-602.75 137h146v64h-146z"/><text fill="#000" transform="translate(-597.75 159.268)"><tspan x="32.28" y="16" font-family="Helvetica Neue" font-size="16">Telemetry</tspan></text><path fill="#fff" d="M-418 137h146v64h-146z"/><text fill="#000" transform="translate(-413 149.536)"><tspan x="37.616" y="16" font-family="Helvetica Neue" font-size="16">Disaster</tspan> <tspan x="1.136" y="35.464" font-family="Helvetica Neue" font-size="16">Recovery/Failover</tspan></text><path fill="#fff" d="M-233.25 137h146v64h-146z"/><text fill="#000" transform="translate(-228.25 149.536)"><tspan x="11.544" y="16" font-family="Helvetica Neue" font-size="16">Authentication/</tspan> <tspan x="18.952" y="35.464" font-family="Helvetica Neue" font-size="16">Authorization</tspan></text><path fill="#fff" d="M-48.5 137h146v64h-146z"/><text fill="#000" transform="translate(-43.5 149.536)"><tspan x="42.792" y="16" font-family="Helvetica Neue" font-size="16">Egress</tspan> <tspan x="36.728" y="35.464" font-family="Helvetica Neue" font-size="16">Controls</tspan></text><path fill="#fff" d="M-148.5 354.5H138v271h-286.5z"/><path stroke="gray" stroke-linecap="round" stroke-linejoin="round" d="M-148.5 354.5H138v271h-286.5z"/><text fill="#000" transform="translate(-143.5 601.036)"><tspan x="57.362" y="16" font-family="Helvetica Neue" font-size="16" font-weight="bold">Kubernetes on Cloud</tspan></text><path fill="#fff" d="M-828 354.5h286.5v271H-828z"/><path stroke="gray" stroke-linecap="round" stroke-linejoin="round" d="M-828 354.5h286.5v271H-828z"/><text fill="#000" transform="translate(-823 601.036)"><tspan x="74.858" y="16" font-family="Helvetica Neue" font-size="16" font-weight="bold">Virtual Machines</tspan></text><path fill="#456cb0" d="M-787.5 217h885v48h-885z"/><text fill="#fff" transform="translate(-782.5 231.268)"><tspan x="392.308" y="16" font-family="Helvetica Neue" font-size="16">XCP Central</tspan></text><path fill="#333" d="M-815.844 373.25h263.156v48h-263.156z"/><text fill="#fff" transform="translate(-810.844 387.518)"><tspan x="73.514" y="16" font-family="Helvetica Neue" font-size="16">Tier1 Gateway</tspan></text><path fill="#456cb0" d="M-476.578 374.25h117.313v48h-117.313z"/><text fill="#fff" transform="translate(-471.578 388.518)"><tspan x="16.016" y="16" font-family="Helvetica Neue" font-size="16">XCP Edge</tspan></text><path fill="#333" d="M-330.734 374.25h117.313v48h-117.313z"/><text fill="#fff" transform="translate(-325.734 381.873)"><tspan x="10.542" y="13" font-family="Helvetica Neue" font-size="13">Tier2 Gateway</tspan> <tspan x="1.747" y="29.377" font-family="Helvetica Neue" font-size="13">(IngressGateway)</tspan></text><path fill="#456cb0" d="M-476.578 445.5h117.313v48h-117.313z"/><text fill="#fff" transform="translate(-471.578 450.036)"><tspan x="4.152" y="16" font-family="Helvetica Neue" font-size="16">Local Control </tspan> <tspan x="7.856" y="35.464" font-family="Helvetica Neue" font-size="16">Plane(Istiod)</tspan></text><path fill="#456cb0" d="M-136.828 373.25h117.313v48h-117.313z"/><text fill="#fff" transform="translate(-131.828 387.518)"><tspan x="16.016" y="16" font-family="Helvetica Neue" font-size="16">XCP Edge</tspan></text><path fill="#333" d="M9.016 373.25h117.313v48H9.016z"/><text fill="#fff" transform="translate(14.016 380.873)"><tspan x="10.542" y="13" font-family="Helvetica Neue" font-size="13">Tier2 Gateway</tspan> <tspan x="1.747" y="29.377" font-family="Helvetica Neue" font-size="13">(IngressGateway)</tspan></text><path fill="#456cb0" d="M-136.828 444.5h117.313v48h-117.313z"/><text fill="#fff" transform="translate(-131.828 449.036)"><tspan x="4.152" y="16" font-family="Helvetica Neue" font-size="16">Local Control </tspan> <tspan x="7.856" y="35.464" font-family="Helvetica Neue" font-size="16">Plane(Istiod)</tspan></text><path stroke="#0a55a8" stroke-linecap="round" stroke-linejoin="round" stroke-width="2" marker-end="url(#a)" d="M-345 265v53.815h-72.922v42.535"/><path stroke="#0a55a8" stroke-linecap="round" stroke-linejoin="round" stroke-width="2" marker-end="url(#a)" d="M-345 265v53.93h266.828v41.42"/><path stroke="#0a55a8" stroke-linecap="round" stroke-linejoin="round" stroke-width="2" marker-end="url(#a)" d="M-417.922 422.25v10.35"/><path stroke="#0a55a8" stroke-linecap="round" stroke-linejoin="round" stroke-width="2" marker-end="url(#a)" d="M-78.172 421.25v10.35"/><path fill="#fff" d="M-136.828 541.8h117.313v48h-117.313z"/><path stroke="gray" stroke-linecap="round" stroke-linejoin="round" d="M-136.828 541.8h117.313v48h-117.313z"/><path fill="#456cb0" d="M-128.8 554.9h47.941v25.7H-128.8z"/><text fill="#fff" transform="translate(-123.8 561.605)"><tspan x="1.37" y="10" font-family="Helvetica Neue" font-size="10">Sidecar</tspan></text><path fill="#333" d="M-75.656 554.9h47.941v25.7h-47.941z"/><text fill="#fff" transform="translate(-70.656 561.605)"><tspan x="9.525" y="10" font-family="Helvetica Neue" font-size="10">App</tspan></text><path stroke="#0a55a8" stroke-linecap="round" stroke-linejoin="round" stroke-width="2" marker-end="url(#a)" d="M-104.83 492.5V542"/><path fill="#fff" d="M9.016 541.8h117.313v48H9.016z"/><path stroke="gray" stroke-linecap="round" stroke-linejoin="round" d="M9.016 541.8h117.313v48H9.016z"/><path fill="#456cb0" d="M17.044 554.9h47.941v25.7H17.044z"/><text fill="#fff" transform="translate(22.044 561.605)"><tspan x="1.37" y="10" font-family="Helvetica Neue" font-size="10">Sidecar</tspan></text><path fill="#333" d="M70.188 554.9h47.941v25.7H70.188z"/><text fill="#fff" transform="translate(75.188 561.605)"><tspan x="9.525" y="10" font-family="Helvetica Neue" font-size="10">App</tspan></text><path stroke="#000" stroke-linecap="round" stroke-linejoin="round" stroke-width="2" marker-end="url(#b)" d="M67.672 421.25v11l.151 56.261-.151 34.389v6"/><path stroke="#000" stroke-linecap="round" stroke-linejoin="round" stroke-width="2" marker-end="url(#b)" d="M67.672 421.25v84.321H-78.172V528.9"/><path fill="#fff" d="M-330.734 541.8h117.313v48h-117.313z"/><path stroke="gray" stroke-linecap="round" stroke-linejoin="round" d="M-330.734 541.8h117.313v48h-117.313z"/><path fill="#456cb0" d="M-322.706 554.9h47.941v25.7h-47.941z"/><text fill="#fff" transform="translate(-317.706 561.605)"><tspan x="1.37" y="10" font-family="Helvetica Neue" font-size="10">Sidecar</tspan></text><path fill="#333" d="M-269.563 554.9h47.941v25.7h-47.941z"/><text fill="#fff" transform="translate(-264.563 561.605)"><tspan x="9.525" y="10" font-family="Helvetica Neue" font-size="10">App</tspan></text><path fill="#fff" d="M-476.578 541.8h117.313v48h-117.313z"/><path stroke="gray" stroke-linecap="round" stroke-linejoin="round" d="M-476.578 541.8h117.313v48h-117.313z"/><path fill="#456cb0" d="M-468.55 554.9h47.941v25.7h-47.941z"/><text fill="#fff" transform="translate(-463.55 561.605)"><tspan x="1.37" y="10" font-family="Helvetica Neue" font-size="10">Sidecar</tspan></text><path fill="#333" d="M-415.406 554.9h47.941v25.7h-47.941z"/><text fill="#fff" transform="translate(-410.406 561.605)"><tspan x="9.525" y="10" font-family="Helvetica Neue" font-size="10">App</tspan></text><path fill="#fff" d="M-815.844 541.8h117.313v48h-117.313z"/><path stroke="gray" stroke-linecap="round" stroke-linejoin="round" d="M-815.844 541.8h117.313v48h-117.313z"/><path fill="#456cb0" d="M-807.816 554.9h47.941v25.7h-47.941z"/><text fill="#fff" transform="translate(-802.816 561.605)"><tspan x="1.37" y="10" font-family="Helvetica Neue" font-size="10">Sidecar</tspan></text><path fill="#333" d="M-754.672 554.9h47.941v25.7h-47.941z"/><text fill="#fff" transform="translate(-749.672 561.605)"><tspan x="9.525" y="10" font-family="Helvetica Neue" font-size="10">App</tspan></text><path fill="#fff" d="M-670 541.8h117.313v48H-670z"/><path stroke="gray" stroke-linecap="round" stroke-linejoin="round" d="M-670 541.8h117.313v48H-670z"/><path fill="#456cb0" d="M-661.972 554.9h47.941v25.7h-47.941z"/><text fill="#fff" transform="translate(-656.972 561.605)"><tspan x="1.37" y="10" font-family="Helvetica Neue" font-size="10">Sidecar</tspan></text><path fill="#333" d="M-608.828 554.9h47.941v25.7h-47.941z"/><text fill="#fff" transform="translate(-603.828 561.605)"><tspan x="9.525" y="10" font-family="Helvetica Neue" font-size="10">App</tspan></text><path stroke="#0a55a8" stroke-linecap="round" stroke-linejoin="round" stroke-width="2" marker-end="url(#a)" d="M-444.58 493.5V542"/><path stroke="#000" stroke-linecap="round" stroke-linejoin="round" stroke-width="2" marker-end="url(#b)" d="M-272.078 422.25v11l.03 66.208-.03 23.442v6"/><path stroke="#000" stroke-linecap="round" stroke-linejoin="round" stroke-width="2" marker-end="url(#b)" d="M-272.078 422.25v82.193h-145.844V528.9"/><path stroke="#0a55a8" stroke-linecap="round" stroke-linejoin="round" stroke-width="2" marker-end="url(#a)" d="M-359.266 398.25h15.632"/><path stroke="#0a55a8" stroke-linecap="round" stroke-linejoin="round" stroke-width="2" marker-end="url(#a)" d="M-19.516 397.25h15.632"/><path stroke="#000" stroke-linecap="round" stroke-linejoin="round" stroke-width="2" marker-end="url(#b)" d="M-344.814 504.443h-11l-253.014-.06h-2.516V528.9"/><path stroke="#0a55a8" stroke-linecap="round" stroke-linejoin="round" stroke-width="2" marker-end="url(#a)" d="M-476.578 398.25h-11l-27.055-.5-25.155-.345"/><path stroke="#000" stroke-linecap="round" stroke-linejoin="round" stroke-width="2" marker-end="url(#b)" d="M-684.266 373.25v-36h414.703v24.1"/><path stroke="#000" stroke-linecap="round" stroke-linejoin="round" stroke-width="2" marker-end="url(#b)" d="M-274.976 337.25H67.692v23.1"/><path stroke="#000" stroke-linecap="round" stroke-linejoin="round" stroke-width="2" marker-end="url(#b)" d="M-583.04 504.39h-173.458v24.529"/><path stroke="#0a55a8" stroke-linecap="round" stroke-linejoin="round" stroke-width="2" marker-end="url(#a)" d="M-104.83 513.315H41.257v28.687"/><path stroke="#0a55a8" stroke-linecap="round" stroke-linejoin="round" stroke-width="2" marker-end="url(#a)" d="M-444.58 517.85h145.777v2.758l.067 15.392v6"/></g></svg>