<svg xmlns="http://www.w3.org/2000/svg" width="1382" height="1065" viewBox="-4176 -1229 1382 1065"><defs><marker id="a" stroke-linejoin="miter" stroke-miterlimit="10" color="#000" markerHeight="6" markerUnits="strokeWidth" markerWidth="7" orient="auto" overflow="visible" viewBox="-1 -3 7 6"><path fill="currentColor" stroke="currentColor" d="M4.8 0 0-1.8v3.6Z"/></marker><marker id="b" stroke-linejoin="miter" stroke-miterlimit="10" color="#0a55a8" markerHeight="6" markerUnits="strokeWidth" markerWidth="7" orient="auto" overflow="visible" viewBox="-1 -3 7 6"><path fill="currentColor" stroke="currentColor" d="M4.8 0 0-1.8v3.6Z"/></marker><marker id="c" stroke-linejoin="miter" stroke-miterlimit="10" color="#75428c" markerHeight="6" markerUnits="strokeWidth" markerWidth="7" orient="auto" overflow="visible" viewBox="-1 -3 7 6"><path fill="currentColor" stroke="currentColor" d="M4.8 0 0-1.8v3.6Z"/></marker></defs><g fill="none"><path fill="#fff" d="M-4176-1229h1382v1065h-1382z"/><path fill="#fff" d="M-4175.433-1228.819h1380.473V-164.41h-1380.473z"/><path fill="#fff" d="M-4095.354-975.118h955.276V-180h-955.276z"/><path stroke="gray" stroke-dasharray="8 8" stroke-linecap="round" stroke-linejoin="round" stroke-width="2" d="M-4095.354-975.118h955.275V-180h-955.275Z"/><path fill="#fff" d="M-4122.638-1006.299h955.276v795.118h-955.276z"/><path stroke="gray" stroke-dasharray="8 8" stroke-linecap="round" stroke-linejoin="round" stroke-width="2" d="M-4122.638-1006.3h955.276v795.119h-955.276Z"/><path fill="#fff" d="M-4149.921-1037.48h955.276v795.118h-955.276z"/><path stroke="gray" stroke-dasharray="8 8" stroke-linecap="round" stroke-linejoin="round" stroke-width="2" d="M-4149.921-1037.48h955.275v795.118h-955.275Z"/><text fill="#000" transform="translate(-4144.921 -1032.48)"><tspan x="787.948" y="16" font-family="Helvetica Neue" font-size="16" font-weight="bold">TSB Enabled Cluster</tspan> <tspan x="832.108" y="35.464" font-family="Helvetica Neue" font-size="16" font-weight="bold">(Control Plane)</tspan></text><path fill="#f15623" d="M-3941.575-666.192h170.079v56.693h-170.079z"/><text fill="#fff" transform="translate(-3936.575 -657.31)"><tspan x="28.191" y="16" font-family="Helvetica Neue" font-size="16" font-weight="bold">Control Plane </tspan> <tspan x="45.815" y="35.464" font-family="Helvetica Neue" font-size="16" font-weight="bold">Operator</tspan></text><path fill="#f15623" d="M-3941.575-573.358h170.079v56.693h-170.079z"/><text fill="#fff" transform="translate(-3936.575 -554.743)"><tspan x="26.991" y="16" font-family="Helvetica Neue" font-size="16" font-weight="bold">XCP Operator</tspan></text><path fill="#f15623" d="M-4128.662-1003.465h170.079v56.693h-170.079z"/><text fill="#fff" transform="translate(-4123.662 -984.85)"><tspan x="41.663" y="16" font-family="Helvetica Neue" font-size="16" font-weight="bold">XCP Edge</tspan></text><path fill="#333" d="M-3754.488-1003.465h170.079v56.693h-170.079z"/><text fill="#fff" transform="translate(-3749.488 -984.85)"><tspan x="56.503" y="16" font-family="Helvetica Neue" font-size="16" font-weight="bold">Zipkin</tspan></text><path fill="#0068af" d="M-3499.052-974.646v.091l-2.783 13.892c-.366 1.812-.856 2.537-2.721 2.537h-.826c-1.651 0-2.507-.786-2.905-2.356l-2.416-9.241c-.03-.12-.03-.151-.091-.151-.062 0-.062.03-.092.15l-2.416 9.242c-.397 1.57-1.254 2.356-2.905 2.356h-.825c-1.866 0-2.355-.725-2.722-2.537l-.794-4.151q-.07.293.235-.79l.306-1.084 1.411-5.003h.683l1.431 9.76c.03.271.092.422.153.422s.153-.12.214-.423l2.538-10.147c.306-1.177.673-1.298 1.713-1.298h2.14c1.04 0 1.407.12 1.712 1.298l2.539 10.147c.06.302.152.423.214.423.06 0 .122-.15.153-.423l1.926-12.774c.03-.272.245-.544.55-.544h2.967a.61.61 0 0 1 .611.604m14.918 15.825a.61.61 0 0 1-.611.604h-2.6a.61.61 0 0 1-.611-.604v-.483c-1.407.845-2.844 1.328-4.312 1.328-2.538 0-5.29-.966-5.29-5.043v-.12c0-3.443 2.14-5.225 7.461-5.225h1.927v-1.329c0-1.963-.887-2.446-2.691-2.446-1.957 0-3.976.12-4.985.241h-.153c-.305 0-.55-.09-.55-.513v-1.933c0-.332.184-.543.581-.634a26.7 26.7 0 0 1 5.107-.483c4.342 0 6.727 1.903 6.727 5.768zm-4.036-3.171v-3.715h-1.927c-2.782 0-3.394.876-3.394 2.567v.121c0 1.48.673 1.873 2.202 1.873 1.1 0 2.232-.363 3.119-.846m12.013 3.14c0 .333-.245.635-.581.635h-2.844c-.337 0-.612-.302-.612-.634v-21.744a.61.61 0 0 1 .612-.604h2.844c.336 0 .58.272.58.604zm17.823.272c0 .182-.184.363-.428.363h-3.731c-.336 0-.703-.332-.887-.604l-4.8-6.886v6.856c0 .332-.276.634-.612.634h-2.814c-.336 0-.611-.302-.611-.634v-21.744a.61.61 0 0 1 .611-.604h2.814a.61.61 0 0 1 .611.604v12.593l5.23-6.885a.94.94 0 0 1 .703-.363h3.425c.305 0 .458.121.458.333 0 .09-.03.18-.122.302l-6.146 7.459 6.207 8.335c.061.09.092.15.092.241m6.937-19.539a.61.61 0 0 1-.612.604h-2.966c-.336 0-.642-.271-.642-.604v-2.657c0-.332.306-.604.642-.604h2.966a.61.61 0 0 1 .612.604zm-.092 19.268c0 .332-.275.634-.611.634h-2.814c-.336 0-.611-.302-.611-.634v-15.795a.61.61 0 0 1 .611-.604h2.814a.61.61 0 0 1 .611.604zm18.007 0c0 .332-.276.634-.612.634h-2.813c-.337 0-.612-.302-.612-.634v-9.845c0-2.628-.245-3.383-2.599-3.383-1.04 0-2.171.423-3.456 1.087v12.14c0 .333-.275.635-.611.635h-2.814c-.336 0-.611-.302-.611-.634v-15.795a.61.61 0 0 1 .611-.604h2.661a.61.61 0 0 1 .611.604v.635c1.774-1.118 2.936-1.45 4.954-1.45 4.404 0 5.29 2.93 5.29 6.765zm18.801-14.315c0 .453-.122.514-.489.665l-1.009.392c.49.695.764 1.36.764 2.416v.212c0 3.774-2.63 5.496-7.247 5.496-1.62 0-2.722-.272-3.333-.514-.367.242-.52.514-.52.786 0 .604.336.845 1.04.996l3.608.846c4.159.966 6.85 1.6 6.85 4.832v.211c0 3.08-2.294 4.741-7.492 4.741-4.954 0-7.584-1.842-7.584-5.013v-.271c0-1.239.581-2.447 1.56-3.322-.856-.635-1.376-1.692-1.376-2.779v-.03c0-.936.397-1.872 1.223-2.446-.918-.936-1.254-2.024-1.254-3.534v-.21c0-3.02 1.988-5.558 7.278-5.558h7.156c.219 0 .43.085.584.238a.8.8 0 0 1 .241.578zm-4.709 3.775v-.242c0-1.45-.642-2.566-3.272-2.566-2.6 0-3.303 1.147-3.303 2.566v.242c0 1.117.459 2.386 3.303 2.386 2.538 0 3.272-.876 3.272-2.386m.336 12.563v-.211c0-.665-.397-1.057-3.608-1.812l-2.722-.635c-.458.635-.764 1.027-.764 2.115v.271c0 1.238.765 1.993 3.639 1.993 2.936 0 3.455-.634 3.455-1.72m-133.67-11.408c0 3.05-1.926 6.311-8.042 6.311-2.293 0-3.945-.211-5.412-.543-.306-.06-.581-.272-.581-.604v-2.175c0-.332.275-.573.58-.573h.062c1.223.15 4.281.302 5.412.302 2.722 0 3.548-.967 3.548-2.718 0-1.178-.581-1.782-2.6-2.96l-4.036-2.386c-2.844-1.66-3.609-3.412-3.609-5.526 0-3.322 1.957-5.738 7.645-5.738 2.019 0 4.832.302 5.872.543.305.06.55.272.55.574v2.235c0 .302-.214.544-.52.544h-.061c-2.018-.182-4.037-.302-6.024-.302-2.263 0-3.211.785-3.211 2.144 0 .996.52 1.6 2.507 2.688l3.67 2.023c3.364 1.842 4.25 3.775 4.25 6.16m17.059 5.707c0 .182-.183.363-.428.363h-3.73c-.337 0-.704-.332-.888-.604l-4.8-6.886v6.855c0 .333-.276.635-.612.635h-2.813c-.337 0-.612-.302-.612-.635v-21.743a.61.61 0 0 1 .612-.604h2.813a.61.61 0 0 1 .612.604v12.593l5.229-6.885a.94.94 0 0 1 .703-.363h3.425c.306 0 .459.121.459.332 0 .091-.031.182-.123.303l-6.146 7.459 6.207 8.335c.062.09.092.15.092.241m17.09-16.156c0 .06 0 .12-.031.18l-5.107 17.637c-.948 3.292-2.08 4.742-6.238 4.742-1.01 0-2.538-.182-3.242-.393-.336-.09-.642-.211-.642-.513v-1.933c0-.332.276-.544.612-.544h.061c.856.03 2.6.182 3.455.182 1.315 0 1.988-.363 2.416-1.933l.245-.906h-.459c-.887 0-1.987-.212-2.66-2.507l-4.006-13.831c-.03-.09-.03-.151-.03-.212 0-.302.183-.483.58-.483h3.089c.275 0 .52.272.581.544l3.088 12.291c.123.513.245.664.428.664h.276l3.302-12.985c.061-.272.306-.514.612-.514h3.119c.306 0 .55.242.55.514"/><path fill="#d8d8d8" d="M-3424.206-985.777a16 16 0 0 1 2.547-.34c8.625-.447 15.99 6.14 16.445 14.705a15.4 15.4 0 0 1-1.98 8.368c6.087-2.144 10.205-8.007 9.85-14.701-.433-8.15-7.456-14.431-15.663-14.006a14.99 14.99 0 0 0-11.199 5.974"/><path fill="#326ce5" d="M-4043.855-860.311a5 5 0 0 0-1.867.475L-4071-848.253c-1.32.604-2.28 1.752-2.608 3.12l-6.188 25.998a4.35 4.35 0 0 0 .68 3.546q.13.189.273.366l17.464 20.861c.923 1.09 2.31 1.715 3.77 1.709h28.011a5 5 0 0 0 3.774-1.728l17.456-20.866c.916-1.09 1.259-2.528.907-3.892l-6.228-26.02c-.329-1.368-1.293-2.516-2.608-3.12l-25.238-11.555a5 5 0 0 0-2.343-.477Z"/><path fill="#fff" d="M-4043.624-851.451c-.871.058-1.531.775-1.485 1.612v.41c.04.464.113.924.208 1.38.14.871.19 1.754.15 2.636-.086.29-.259.551-.494.751l-.035.615q-1.379.112-2.728.405c-3.779.82-7.22 2.702-9.876 5.415l-.544-.37c-.3.087-.621.054-.896-.088a14 14 0 0 1-2.034-1.765q-.466-.534-.991-1.013l-.336-.257a1.86 1.86 0 0 0-1.05-.381 1.48 1.48 0 0 0-1.205.514c-.512.69-.344 1.647.372 2.142l.313.24q.605.386 1.252.704a13 13 0 0 1 2.264 1.525c.18.246.284.536.302.837l.494.435c-2.67 3.848-3.765 8.51-3.08 13.087l-.635.175a2 2 0 0 1-.649.627c-.886.228-1.793.371-2.708.43q-.729.014-1.452.108l-.401.088h-.045a1.51 1.51 0 0 0-1.23.973 1.42 1.42 0 0 0 .352 1.493 1.56 1.56 0 0 0 1.551.36h.03l.408-.044c.46-.13.914-.292 1.356-.475a14.6 14.6 0 0 1 2.636-.74c.313.017.612.12.866.293l.68-.108c1.475 4.395 4.573 8.119 8.71 10.465l-.276.556c.127.255.174.538.136.82-.374.832-.833 1.63-1.368 2.379q-.441.559-.812 1.161l-.193.392a1.41 1.41 0 0 0 .042 1.525c.311.46.865.713 1.432.657a1.51 1.51 0 0 0 1.255-.942l.188-.37q.258-.655.436-1.33c.401-.952.619-1.974 1.168-2.606.179-.161.405-.268.648-.305l.34-.594a20.3 20.3 0 0 0 13.94.032l.302.556c.309.044.585.207.771.447.427.78.771 1.597 1.035 2.44q.18.678.44 1.331l.188.37a1.51 1.51 0 0 0 1.255.937 1.54 1.54 0 0 0 1.437-.65c.31-.463.325-1.053.036-1.528l-.197-.392q-.37-.601-.812-1.157a15.3 15.3 0 0 1-1.361-2.304 1.1 1.1 0 0 1 .154-.871 5 5 0 0 1-.251-.586c4.128-2.365 7.212-6.102 8.67-10.503l.645.109c.231-.203.535-.31.846-.3.9.165 1.783.435 2.635.74q.665.293 1.357.501c.109.028.267.052.39.08h.03a1.56 1.56 0 0 0 1.547-.362 1.42 1.42 0 0 0 .36-1.492 1.51 1.51 0 0 0-1.234-.971l-.44-.1q-.722-.095-1.452-.11c-.916-.056-1.823-.2-2.708-.429a1.67 1.67 0 0 1-.653-.627l-.612-.175c.653-4.576-.466-9.223-3.144-13.058l.535-.476a1.12 1.12 0 0 1 .282-.823 14.3 14.3 0 0 1 2.245-1.517q.647-.317 1.252-.704l.331-.257c.498-.296.774-.841.709-1.4a1.47 1.47 0 0 0-1.01-1.219 1.56 1.56 0 0 0-1.579.35l-.336.258q-.525.48-.991 1.013a14 14 0 0 1-1.98 1.794c-.29.113-.608.146-.916.096l-.574.392c-3.312-3.334-7.773-5.404-12.554-5.818 0-.218-.03-.545-.034-.647a1.14 1.14 0 0 1-.495-.724c-.031-.88.026-1.76.173-2.63q.145-.684.208-1.38v-.435c.046-.837-.612-1.554-1.485-1.612Zm-1.891 11.256-.454 7.612h-.034c-.023.47-.311.871-.753 1.098-.442.226-.966.159-1.361-.118l-6.498-4.423a15.75 15.75 0 0 1 7.491-3.92q.797-.164 1.604-.249Zm3.783 0c3.413.408 6.591 1.88 9.05 4.193l-6.437 4.395a1.38 1.38 0 0 1-1.402.157 1.28 1.28 0 0 1-.762-1.142Zm-15.242 7.032 5.943 5.095v.032c.369.31.53.791.421 1.251-.108.46-.476.824-.945.948v.022l-7.626 2.107c-.377-3.3.4-6.628 2.21-9.457Zm26.657 0a14.74 14.74 0 0 1 2.273 9.429l-7.637-2.114v-.028a1.29 1.29 0 0 1-.946-.948 1.26 1.26 0 0 1 .422-1.251l5.897-5.07Zm-14.525 5.491h2.432l1.485 1.813-.54 2.266-2.184 1.01-2.189-1.01-.514-2.266Zm7.789 6.184c.102-.01.227-.01.306 0l7.864 1.275c-1.134 3.138-3.373 5.818-6.294 7.611l-3.04-7.069a1.24 1.24 0 0 1 .096-1.18 1.35 1.35 0 0 1 1.059-.604Zm-13.207.033a1.35 1.35 0 0 1 1.097.584c.243.357.282.806.107 1.198v.029l-3.021 7.012c-2.892-1.78-5.087-4.428-6.256-7.533l7.796-1.27q.13-.015.263 0Zm6.586 3.05a1.35 1.35 0 0 1 1.218.671h.03l3.842 6.662-1.535.436a16.25 16.25 0 0 1-8.524-.423l3.856-6.661a1.35 1.35 0 0 1 1.134-.643Z"/><text fill="#000" transform="translate(-4087.918 -787.653)"><tspan x="0" y="16" font-family="Helvetica Neue" font-size="16" font-weight="bold">Kubernetes</tspan> <tspan x="4.136" y="35.464" font-family="Helvetica Neue" font-size="16" font-weight="bold">API Server</tspan></text><path fill="#333" d="M-3754.488-573.358h170.079v56.693h-170.079z"/><text fill="#fff" transform="translate(-3749.488 -554.743)"><tspan x="19.023" y="16" font-family="Helvetica Neue" font-size="16" font-weight="bold">Ratelimit Server</tspan></text><path fill="#f15623" d="M-4149.921-1210.394h668.976v76.535h-668.976z"/><text fill="#fff" transform="translate(-4144.921 -1181.858)"><tspan x="255.872" y="16" font-family="Helvetica Neue" font-size="16" font-weight="bold">Management Plane</tspan></text><path fill="#333" d="M-4128.662-1190.551h170.079v56.693h-170.079z"/><text fill="#fff" transform="translate(-4123.662 -1181.669)"><tspan x="34.527" y="16" font-family="Helvetica Neue" font-size="16" font-weight="bold">Front Envoy</tspan> <tspan x="16.623" y="35.464" font-family="Helvetica Neue" font-size="16" font-weight="bold">(Envoy Gateway)</tspan></text><path stroke="#000" stroke-dasharray="8 8" stroke-linecap="round" stroke-linejoin="round" stroke-width="2" marker-end="url(#a)" d="M-4043.622-1003.465v-117.493"/><path fill="#f15623" d="M-3941.575-480.523h170.079v56.693h-170.079z"/><text fill="#fff" transform="translate(-3936.575 -471.64)"><tspan x="35.151" y="16" font-family="Helvetica Neue" font-size="16" font-weight="bold">Onboarding </tspan> <tspan x="45.815" y="35.464" font-family="Helvetica Neue" font-size="16" font-weight="bold">Operator</tspan></text><path stroke="#000" stroke-dasharray="8 8" stroke-linecap="round" stroke-linejoin="round" stroke-width="2" marker-end="url(#a)" d="M-4043.622-946.772v67.888"/><path stroke="#0a55a8" stroke-dasharray="8 8" stroke-linecap="round" stroke-linejoin="round" stroke-width="2" marker-end="url(#b)" d="M-3856.535-946.772v37.6h-141.69v-24.7"/><path stroke="#0a55a8" stroke-dasharray="8 8" stroke-linecap="round" stroke-linejoin="round" stroke-width="2" marker-end="url(#b)" d="M-3814.793-946.772v21.032h121.302v-8.132"/><path fill="#333" d="M-3941.575-1003.465h170.079v56.693h-170.079z"/><text fill="#fff" transform="translate(-3936.575 -984.85)"><tspan x="21.831" y="16" font-family="Helvetica Neue" font-size="16" font-weight="bold">OTEL Collector</tspan></text><path stroke="#0a55a8" stroke-dasharray="8 8" stroke-linecap="round" stroke-linejoin="round" stroke-width="2" marker-end="url(#b)" d="M-3839.7-946.772v38.618l159.657-.43h189.002v-36.603"/><path fill="#fff" d="M-4078.094-939.73h68.944v46.896h-68.944z"/><text fill="#000" transform="translate(-4073.094 -934.73)"><tspan x="16.128" y="15" font-family="Helvetica Neue" font-size="16">443</tspan> <tspan x="0" y="33.448" font-family="Helvetica Neue" font-size="16">(HTTPS)</tspan></text><path fill="#333" d="M-3754.488-865.984h170.079v56.693h-170.079z"/><text fill="#fff" transform="translate(-3710.488 -847.37)"><tspan x="39.455" y="16" font-family="Helvetica Neue" font-size="16" font-weight="bold">Istiod</tspan></text><path fill="#333" d="M-3754.488-780.945h170.079v56.693h-170.079z"/><text fill="#fff" transform="translate(-3749.488 -762.33)"><tspan x="27.903" y="16" font-family="Helvetica Neue" font-size="16" font-weight="bold">cert-manager</tspan></text><path stroke="#000" stroke-dasharray="8 8" stroke-linecap="round" stroke-linejoin="round" stroke-width="2" marker-end="url(#a)" d="M-3991.89-804.855h118.701v-32.783h105.801"/><path stroke="#000" stroke-dasharray="8 8" stroke-linecap="round" stroke-linejoin="round" stroke-width="2" marker-end="url(#a)" d="M-3991.89-804.855h118.701v52.257h105.801"/><path fill="#fff" d="M-3960-387.689h394.016v109.837H-3960z"/><path stroke="#f15623" stroke-dasharray="8 8" stroke-linecap="round" stroke-linejoin="round" stroke-width="2" d="M-3960-387.689h394.016v109.837H-3960Z"/><text fill="#000" transform="translate(-3955 -382.689)"><tspan x="0" y="16" font-family="Helvetica Neue" font-size="16" font-weight="bold">Data Plane Namespace</tspan></text><path fill="#f15623" d="M-3940.157-353.774h170.079v56.693h-170.079z"/><path stroke="gray" stroke-linecap="round" stroke-linejoin="round" d="M-3940.157-353.774h170.079v56.693h-170.079z"/><text fill="#fff" transform="translate(-3935.157 -335.16)"><tspan x="2.111" y="16" font-family="Helvetica Neue" font-size="16" font-weight="bold">Data Plane Operator</tspan></text><path fill="#333" d="M-3753.071-353.774h170.079v56.693h-170.079z"/><path stroke="gray" stroke-linecap="round" stroke-linejoin="round" d="M-3753.071-353.774h170.079v56.693h-170.079z"/><text fill="#fff" transform="translate(-3748.071 -344.892)"><tspan x="27.167" y="16" font-family="Helvetica Neue" font-size="16" font-weight="bold">Istio Operator</tspan> <tspan x="20.935" y="35.464" font-family="Helvetica Neue" font-size="16" font-weight="bold">(for Data Plane)</tspan></text><path fill="#333" d="M-3754.488-665.13h170.079v56.693h-170.079z"/><text fill="#fff" transform="translate(-3749.488 -646.515)"><tspan x="54.335" y="16" font-family="Helvetica Neue" font-size="16" font-weight="bold">Istio Operator</tspan></text><path stroke="#000" stroke-dasharray="8 8" stroke-linecap="round" stroke-linejoin="round" stroke-width="2" marker-end="url(#a)" d="M-4043.622-743.725v106.418h16.83v-.539h72.317"/><path stroke="#000" stroke-dasharray="8 8" stroke-linecap="round" stroke-linejoin="round" stroke-width="2" marker-end="url(#a)" d="M-4043.622-643.465v11l-.118 74.367v13.087h89.265"/><path stroke="#000" stroke-dasharray="8 8" stroke-linecap="round" stroke-linejoin="round" stroke-width="2" marker-end="url(#a)" d="M-4043.74-545.67v11l-.363 82.032 83.628.461h6"/><path stroke="#000" stroke-dasharray="8 8" stroke-linecap="round" stroke-linejoin="round" stroke-width="2" marker-end="url(#a)" d="M-4044.092-454.963v128.861h37.561v.674h53.474"/><path stroke="#000" stroke-dasharray="8 8" stroke-linecap="round" stroke-linejoin="round" stroke-width="2" marker-end="url(#a)" d="M-4044.092-330.236v70.34h375.342V-284.2"/><path stroke="#000" stroke-dasharray="8 8" stroke-linecap="round" stroke-linejoin="round" stroke-width="2" marker-end="url(#a)" d="M-3873.189-755.433v60.773h203.74v16.63"/><path fill="#fff" d="M-4092.934-704.871h98.624v29.464h-98.624z"/><text fill="#000" transform="translate(-4087.934 -699.871)"><tspan x="0" y="16" font-family="Helvetica Neue" font-size="16" font-weight="bold">443(HTTPS)</tspan></text><path stroke="#75428c" stroke-dasharray="8 8" stroke-linecap="round" stroke-linejoin="round" stroke-width="2" marker-end="url(#c)" d="M-3856.535-1003.465v-90.943h-152.615v-26.55"/><path stroke="#75428c" stroke-dasharray="8 8" stroke-linecap="round" stroke-linejoin="round" stroke-width="2" d="M-3669.449-1003.465v-90.943h-195.693m382.78 96.258v-95.928h-187.087"/><path fill="#fff" d="M-4109.502-1092.647h131.76v46.896h-131.76z"/><text fill="#000" transform="translate(-4104.502 -1087.647)"><tspan x="43.088" y="15" font-family="Helvetica Neue" font-size="16">9443</tspan> <tspan x="0" y="33.448" font-family="Helvetica Neue" font-size="16">(gRPC/TLS/JWT)</tspan></text><path fill="#fff" d="M-3992.564-1117.856h107.776v46.896h-107.776z"/><text fill="#000" transform="translate(-3987.564 -1112.856)"><tspan x="31.096" y="15" font-family="Helvetica Neue" font-size="16">8443</tspan> <tspan x="0" y="33.448" font-family="Helvetica Neue" font-size="16">(gRPC/mTLS)</tspan></text><path fill="#e3e3e3" d="M-3442.677-859.227h221.102v206.497h-221.102z"/><path stroke="gray" stroke-linecap="round" stroke-linejoin="round" d="M-3442.677-859.227h221.102v206.497h-221.102z"/><path fill="#e3e3e3" d="M-3459.685-873.236h221.102v206.497h-221.102z"/><path stroke="gray" stroke-linecap="round" stroke-linejoin="round" d="M-3459.685-873.236h221.102v206.497h-221.102z"/><path fill="#e3e3e3" d="M-3476.693-887.244h221.102v206.497h-221.102z"/><path stroke="gray" stroke-linecap="round" stroke-linejoin="round" d="M-3476.693-887.244h221.102v206.497h-221.102z"/><text fill="#000" transform="translate(-3471.693 -882.244)"><tspan x="14.927" y="16" font-family="Helvetica Neue" font-size="16" font-weight="bold">Application Namespace</tspan></text><path fill="#333" d="M-3451.181-751.751h170.079v56.693h-170.079z"/><path stroke="gray" stroke-linecap="round" stroke-linejoin="round" d="M-3451.181-751.751h170.079v56.693h-170.079z"/><text fill="#fff" transform="translate(-3446.181 -752.601)"><tspan x="39.735" y="16" font-family="Helvetica Neue" font-size="16" font-weight="bold">Services &amp;</tspan> <tspan x="11.023" y="35.464" font-family="Helvetica Neue" font-size="16" font-weight="bold">WorkloadEntry for </tspan> <tspan x="25.103" y="54.928" font-family="Helvetica Neue" font-size="16" font-weight="bold">VM Workloads</tspan></text><path fill="#333" d="M-3451.181-844.586h170.079v56.693h-170.079z"/><path stroke="gray" stroke-linecap="round" stroke-linejoin="round" d="M-3451.181-844.586h170.079v56.693h-170.079z"/><text fill="#fff" transform="translate(-3446.181 -835.704)"><tspan x="14.711" y="16" font-family="Helvetica Neue" font-size="16" font-weight="bold">Sidecar/Gateway</tspan> <tspan x="33.823" y="35.464" font-family="Helvetica Neue" font-size="16" font-weight="bold">(Data Plane)</tspan></text><path stroke="#000" stroke-dasharray="8 8" stroke-linecap="round" stroke-linejoin="round" stroke-width="2" marker-end="url(#a)" d="M-3991.89-804.855h64.173v-72.319h421.41v60.934h42.226"/><path stroke="#000" stroke-dasharray="8 8" stroke-linecap="round" stroke-linejoin="round" stroke-width="2" marker-end="url(#a)" d="M-3366.142-787.893v20.325h-155.48v222.557h-49.888"/><path fill="#f15623" d="M-3451.181-573.358h170.079v56.693h-170.079z"/><text fill="#fff" transform="translate(-3446.181 -564.476)"><tspan x="67.743" y="16" font-family="Helvetica Neue" font-size="16" font-weight="bold">VM</tspan> <tspan x="46.711" y="35.464" font-family="Helvetica Neue" font-size="16" font-weight="bold">Gateway</tspan></text><path fill="#f15623" d="M-3513.543-471.969h170.079v56.693h-170.079z"/><text fill="#fff" transform="translate(-3508.543 -463.086)"><tspan x="35.151" y="16" font-family="Helvetica Neue" font-size="16" font-weight="bold">Onboarding</tspan> <tspan x="58.711" y="35.464" font-family="Helvetica Neue" font-size="16" font-weight="bold">Plane</tspan></text><path fill="#f15623" d="M-3513.543-392.598h170.079v56.693h-170.079z"/><text fill="#fff" transform="translate(-3508.543 -383.716)"><tspan x="35.151" y="16" font-family="Helvetica Neue" font-size="16" font-weight="bold">Onboarding</tspan> <tspan x="38.567" y="35.464" font-family="Helvetica Neue" font-size="16" font-weight="bold">Repository</tspan></text><path stroke="#000" stroke-dasharray="8 8" stroke-linecap="round" stroke-linejoin="round" stroke-width="2" marker-end="url(#a)" d="M-3300.961-516.665v73.043h-29.604"/><path stroke="#000" stroke-dasharray="8 8" stroke-linecap="round" stroke-linejoin="round" stroke-width="2" marker-end="url(#a)" d="M-3300.961-443.622v79.715h-19.848l-3.756-.345h-6"/><path stroke="#000" stroke-dasharray="8 8" stroke-linecap="round" stroke-linejoin="round" stroke-width="2" marker-end="url(#a)" d="M-3366.142-573.358v-69.235h-179.691v-296.594"/><path stroke="#000" stroke-dasharray="8 8" stroke-linecap="round" stroke-linejoin="round" stroke-width="2" marker-end="url(#a)" d="M-3545.833-888.437h-123.868v-24.673l.252-14.762v-6"/><path fill="#fff" d="M-3654.69-922.808h94.16v28.448h-94.16z"/><text fill="#000" transform="translate(-3649.69 -917.808)"><tspan x="0" y="15" font-family="Helvetica Neue" font-size="16">9411(HTTP)</tspan></text><path fill="#fff" d="M-3534.778-939.73h104.832v28.448h-104.832z"/><text fill="#000" transform="translate(-3529.778 -934.73)"><tspan x="0" y="15" font-family="Helvetica Neue" font-size="16">11800(gRPC)</tspan></text><path fill="#e3e3e3" d="M-3038.74-587.101h221.102v206.497h-221.102z"/><path stroke="gray" stroke-linecap="round" stroke-linejoin="round" d="M-3038.74-587.101h221.102v206.497h-221.102z"/><path fill="#e3e3e3" d="M-3055.748-601.11h221.102v206.497h-221.102z"/><path stroke="gray" stroke-linecap="round" stroke-linejoin="round" d="M-3055.748-601.11h221.102v206.497h-221.102z"/><path fill="#e3e3e3" d="M-3072.756-615.118h221.102v206.497h-221.102z"/><path stroke="gray" stroke-linecap="round" stroke-linejoin="round" d="M-3072.756-615.118h221.102v206.497h-221.102z"/><text fill="#000" transform="translate(-3067.756 -610.118)"><tspan x="0" y="16" font-family="Helvetica Neue" font-size="16" font-weight="bold">VM</tspan></text><path fill="#333" d="M-3047.244-572.46h170.079v56.693h-170.079z"/><text fill="#fff" transform="translate(-3042.244 -563.578)"><tspan x="10.415" y="16" font-family="Helvetica Neue" font-size="16" font-weight="bold">Sidecar/Gateways</tspan> <tspan x="33.823" y="35.464" font-family="Helvetica Neue" font-size="16" font-weight="bold">(Data Plane)</tspan></text><path stroke="#000" stroke-dasharray="8 8" stroke-linecap="round" stroke-linejoin="round" stroke-width="2" marker-end="url(#a)" d="M-3047.244-544.114h-11l-105.93-.448-98.028-.45h-6"/><path stroke="#000" stroke-dasharray="8 8" stroke-linecap="round" stroke-linejoin="round" stroke-width="2" marker-end="url(#a)" d="M-3281.102-723.405h11l75.456.13h232.441v137.915"/><path fill="#fff" d="M-3734.646-820.362h29.764l-18.598 5.756Zm0-1.922 11.166-1.921v-21.11Zm13.02-1.921 16.744 1.922-16.744-38.386ZM-3734.646-620.57h29.764l-18.598 5.755Zm0-1.922 11.166-1.921v-21.11Zm13.02-1.921 16.744 1.921-16.744-38.386Z"/></g></svg>