<svg xmlns="http://www.w3.org/2000/svg" width="1092" height="483" viewBox="1142 752 1092 483"><g fill="none"><path fill="#fff" d="M1142 752h1092v483H1142z"/><path fill="#fff" d="M1142.362 752.598h1091.339v481.89H1142.362z"/><path fill="#f15623" d="M1176.378 841.89h150.236v43h-150.236z"/><text fill="#fff" transform="translate(1181.378 853.658)"><tspan x="23.134" y="16" font-family="Helvetica Neue" font-size="16">Organization</tspan></text><path fill="#333" d="M1165.039 935.433h150.236v43h-150.236z"/><path stroke="#fff" stroke-linecap="round" stroke-linejoin="round" d="M1165.039 935.433h150.236v43h-150.236z"/><path fill="#333" d="M1176.378 951.024h150.236v43h-150.236z"/><path stroke="#fff" stroke-linecap="round" stroke-linejoin="round" d="M1176.378 951.024h150.236v43h-150.236z"/><text fill="#fff" transform="translate(1181.378 962.792)"><tspan x="45.518" y="16" font-family="Helvetica Neue" font-size="16">Tenant</tspan></text><path fill="#ccc" d="M1165.039 1041.732h150.236v43h-150.236z"/><path stroke="#fff" stroke-linecap="round" stroke-linejoin="round" d="M1165.039 1041.732h150.236v43h-150.236z"/><path fill="#ccc" d="M1176.378 1057.323h150.236v43h-150.236z"/><path stroke="#fff" stroke-linecap="round" stroke-linejoin="round" d="M1176.378 1057.323h150.236v43h-150.236z"/><text fill="#000" transform="translate(1181.378 1069.09)"><tspan x="50.406" y="16" font-family="Helvetica Neue" font-size="16">Team</tspan></text><path fill="#ccc" d="M1165.039 1148.032h150.236v43h-150.236z"/><path stroke="#fff" stroke-linecap="round" stroke-linejoin="round" d="M1165.039 1148.032h150.236v43h-150.236z"/><path fill="#ccc" d="M1176.378 1163.622h150.236v43h-150.236z"/><path stroke="#fff" stroke-linecap="round" stroke-linejoin="round" d="M1176.378 1163.622h150.236v43h-150.236z"/><text fill="#000" transform="translate(1181.378 1175.39)"><tspan x="52.926" y="16" font-family="Helvetica Neue" font-size="16">User</tspan></text><path stroke="#000" stroke-linecap="round" stroke-linejoin="round" stroke-width="2" d="M1251.496 994.024v23.854h-11.339v23.854m11.339 58.591v23.854h-11.339v23.855m11.339-263.142v25.271h-11.339v25.272"/><path fill="#ccc" d="M1434.331 1041.732h150.236v43h-150.236z"/><path stroke="#fff" stroke-linecap="round" stroke-linejoin="round" d="M1434.331 1041.732h150.236v43h-150.236z"/><path fill="#ccc" d="M1445.669 1057.323h150.236v43h-150.236z"/><path stroke="#fff" stroke-linecap="round" stroke-linejoin="round" d="M1445.669 1057.323h150.236v43h-150.236z"/><text fill="#000" transform="translate(1450.67 1069.09)"><tspan x="43.742" y="16" font-family="Helvetica Neue" font-size="16">Cluster</tspan></text><path fill="#ccc" d="M1434.331 1148.032h150.236v43h-150.236z"/><path stroke="#fff" stroke-linecap="round" stroke-linejoin="round" d="M1434.331 1148.032h150.236v43h-150.236z"/><path fill="#ccc" d="M1445.669 1163.622h150.236v43h-150.236z"/><path stroke="#fff" stroke-linecap="round" stroke-linejoin="round" d="M1445.669 1163.622h150.236v43h-150.236z"/><text fill="#000" transform="translate(1450.67 1175.39)"><tspan x="26.102" y="16" font-family="Helvetica Neue" font-size="16">Namespace</tspan></text><path stroke="#000" stroke-linecap="round" stroke-linejoin="round" stroke-width="2" d="M1520.787 1100.323v23.854h-11.338v23.855"/><path fill="#0a55a8" d="M1434.331 935.433h150.236v43h-150.236z"/><path stroke="#fff" stroke-linecap="round" stroke-linejoin="round" d="M1434.331 935.433h150.236v43h-150.236z"/><path fill="#0a55a8" d="M1445.669 951.024h150.236v43h-150.236z"/><path stroke="#fff" stroke-linecap="round" stroke-linejoin="round" d="M1445.669 951.024h150.236v43h-150.236z"/><text fill="#fff" transform="translate(1450.67 962.792)"><tspan x="28.47" y="16" font-family="Helvetica Neue" font-size="16">Workspace</tspan></text><path stroke="#000" stroke-linecap="round" stroke-linejoin="round" stroke-width="2" d="M1520.787 994.024v23.854h-11.338v23.854"/><path fill="#ccc" d="M1862.362 1036.772h150.236v43h-150.236z"/><path stroke="#fff" stroke-linecap="round" stroke-linejoin="round" d="M1862.362 1036.772h150.236v43h-150.236z"/><path fill="#ccc" d="M1873.701 1052.362h150.236v43h-150.236z"/><path stroke="#fff" stroke-linecap="round" stroke-linejoin="round" d="M1873.701 1052.362h150.236v43h-150.236z"/><text fill="#000" transform="translate(1878.7 1064.13)"><tspan x="28.326" y="16" font-family="Helvetica Neue" font-size="16">Application</tspan></text><path fill="#ccc" d="M1669.606 1148.032h150.236v43h-150.236z"/><path stroke="#fff" stroke-linecap="round" stroke-linejoin="round" d="M1669.606 1148.032h150.236v43h-150.236z"/><path fill="#ccc" d="M1680.945 1163.622h150.236v43h-150.236z"/><path stroke="#fff" stroke-linecap="round" stroke-linejoin="round" d="M1680.945 1163.622h150.236v43h-150.236z"/><text fill="#000" transform="translate(1685.945 1175.39)"><tspan x="12.47" y="16" font-family="Helvetica Neue" font-size="16">Gateway Group</tspan></text><path fill="#ccc" d="M1862.362 1148.032h150.236v43h-150.236z"/><path stroke="#fff" stroke-linecap="round" stroke-linejoin="round" d="M1862.362 1148.032h150.236v43h-150.236z"/><path fill="#ccc" d="M1873.701 1163.622h150.236v43h-150.236z"/><path stroke="#fff" stroke-linecap="round" stroke-linejoin="round" d="M1873.701 1163.622h150.236v43h-150.236z"/><text fill="#000" transform="translate(1878.7 1165.658)"><tspan x="47.43" y="16" font-family="Helvetica Neue" font-size="16">Traffic</tspan> <tspan x="47.15" y="35.464" font-family="Helvetica Neue" font-size="16">Group</tspan></text><path fill="#ccc" d="M2055.118 1148.032h150.236v43h-150.236z"/><path stroke="#fff" stroke-linecap="round" stroke-linejoin="round" d="M2055.118 1148.032h150.236v43h-150.236z"/><path fill="#ccc" d="M2066.457 1163.622h150.236v43h-150.236z"/><path stroke="#fff" stroke-linecap="round" stroke-linejoin="round" d="M2066.457 1163.622h150.236v43h-150.236z"/><text fill="#000" transform="translate(2071.457 1165.658)"><tspan x="39.886" y="16" font-family="Helvetica Neue" font-size="16">Security</tspan> <tspan x="47.15" y="35.464" font-family="Helvetica Neue" font-size="16">Group</tspan></text><path fill="#333" d="M1434.331 829.134h150.236v43h-150.236z"/><path stroke="#fff" stroke-linecap="round" stroke-linejoin="round" d="M1434.331 829.134h150.236v43h-150.236z"/><path fill="#333" d="M1445.669 844.724h150.236v43h-150.236z"/><path stroke="#fff" stroke-linecap="round" stroke-linejoin="round" d="M1445.669 844.724h150.236v43h-150.236z"/><text fill="#fff" transform="translate(1450.67 856.492)"><tspan x="45.518" y="16" font-family="Helvetica Neue" font-size="16">Tenant</tspan></text><path stroke="#000" stroke-linecap="round" stroke-linejoin="round" stroke-width="2" d="M1520.787 887.724v23.855h-11.338v23.854"/><path fill="#0a55a8" d="M1862.362 935.433h150.236v43h-150.236z"/><path stroke="#fff" stroke-linecap="round" stroke-linejoin="round" d="M1862.362 935.433h150.236v43h-150.236z"/><path fill="#0a55a8" d="M1873.701 951.024h150.236v43h-150.236z"/><path stroke="#fff" stroke-linecap="round" stroke-linejoin="round" d="M1873.701 951.024h150.236v43h-150.236z"/><text fill="#fff" transform="translate(1878.7 962.792)"><tspan x="28.47" y="16" font-family="Helvetica Neue" font-size="16">Workspace</tspan></text><path stroke="#000" stroke-linecap="round" stroke-linejoin="round" stroke-width="2" d="M1948.819 994.024v21.374h-11.339v21.374m11.339 58.59v26.335h-11.339v26.335"/><path stroke="#000" stroke-linecap="round" stroke-linejoin="round" stroke-width="2" d="M1948.819 1095.362v26.335h-204.095v26.335m204.095-52.67v26.335h181.417v26.335"/><text fill="#000" transform="translate(1173.187 775.912)"><tspan x="0" y="18" font-family="Helvetica Neue" font-size="18" font-weight="bold">Role Management</tspan></text><text fill="#000" transform="translate(1430.275 775.912)"><tspan x="0" y="18" font-family="Helvetica Neue" font-size="18" font-weight="bold">Resource Hierarchy</tspan></text><text fill="#000" transform="translate(1868.36 775.912)"><tspan x="0" y="18" font-family="Helvetica Neue" font-size="18" font-weight="bold">Application Logic</tspan></text></g></svg>