<svg xmlns="http://www.w3.org/2000/svg" width="1889" height="791" viewBox="1180 1977 1889 791"><g fill="none"><path fill="#fff" d="M1180 1977h1889v791H1180z"/><path fill="#fff" d="M1180.63 1977.955h1887.874v789.288H1180.63z"/><path fill="#0a55a8" d="M1679.528 2002.677h191.339v56.693h-191.339z"/><path stroke="gray" stroke-linecap="round" stroke-linejoin="round" d="M1679.528 2002.677h191.339v56.693h-191.339z"/><text fill="#fff" transform="translate(1684.528 2021.292)"><tspan x="62.813" y="16" font-family="Helvetica Neue" font-size="16" font-weight="bold">Groups</tspan></text><path fill="#0a55a8" d="M1445.669 2117.48h191.339v56.693h-191.339z"/><path stroke="gray" stroke-linecap="round" stroke-linejoin="round" d="M1445.669 2117.48h191.339v56.693h-191.339z"/><text fill="#fff" transform="translate(1450.67 2136.095)"><tspan x="57.341" y="16" font-family="Helvetica Neue" font-size="16" font-weight="bold">Gateway</tspan></text><path fill="#0a55a8" d="M1679.528 2117.48h191.339v56.693h-191.339z"/><path stroke="gray" stroke-linecap="round" stroke-linejoin="round" d="M1679.528 2117.48h191.339v56.693h-191.339z"/><text fill="#fff" transform="translate(1684.528 2136.095)"><tspan x="67.069" y="16" font-family="Helvetica Neue" font-size="16" font-weight="bold">Traffic</tspan></text><path fill="#0a55a8" d="M1913.386 2117.48h191.339v56.693h-191.339z"/><path stroke="gray" stroke-linecap="round" stroke-linejoin="round" d="M1913.386 2117.48h191.339v56.693h-191.339z"/><text fill="#fff" transform="translate(1918.386 2136.095)"><tspan x="59.405" y="16" font-family="Helvetica Neue" font-size="16" font-weight="bold">Security</tspan></text><path fill="#fff" d="M1445.669 2230.866h191.339v56.693h-191.339z"/><path stroke="gray" stroke-linecap="round" stroke-linejoin="round" d="M1445.669 2230.866h191.339v56.693h-191.339z"/><text fill="#000" transform="translate(1450.67 2249.48)"><tspan x="31.229" y="16" font-family="Helvetica Neue" font-size="16">IngressGateway</tspan></text><path fill="#fff" d="M1679.528 2230.866h191.339v56.693h-191.339z"/><path stroke="gray" stroke-linecap="round" stroke-linejoin="round" d="M1679.528 2230.866h191.339v56.693h-191.339z"/><text fill="#000" transform="translate(1684.528 2249.48)"><tspan x="41.165" y="16" font-family="Helvetica Neue" font-size="16">ServiceRoute</tspan></text><path fill="#fff" d="M1913.386 2174.173h191.339v56.693h-191.339z"/><path stroke="gray" stroke-linecap="round" stroke-linejoin="round" d="M1913.386 2174.173h191.339v56.693h-191.339z"/><text fill="#000" transform="translate(1918.386 2192.788)"><tspan x="34.213" y="16" font-family="Helvetica Neue" font-size="16">SecuritySetting</tspan></text><path fill="#fff" d="M2147.244 2230.866h191.339v56.693h-191.339z"/><path stroke="gray" stroke-linecap="round" stroke-linejoin="round" d="M2147.244 2230.866h191.339v56.693h-191.339z"/><text fill="#000" transform="translate(2152.244 2249.48)"><tspan x="39.845" y="16" font-family="Helvetica Neue" font-size="16">TenantSetting</tspan></text><path fill="#fff" d="M2147.244 2344.252h191.339v56.693h-191.339z"/><path stroke="gray" stroke-linecap="round" stroke-linejoin="round" d="M2147.244 2344.252h191.339v56.693h-191.339z"/><text fill="#000" transform="translate(2152.244 2362.866)"><tspan x="22.797" y="16" font-family="Helvetica Neue" font-size="16">WorkspaceSetting</tspan></text><path fill="#fff" d="M1679.528 2174.173h191.339v56.693h-191.339z"/><path stroke="gray" stroke-linecap="round" stroke-linejoin="round" d="M1679.528 2174.173h191.339v56.693h-191.339z"/><text fill="#000" transform="translate(1684.528 2192.788)"><tspan x="41.757" y="16" font-family="Helvetica Neue" font-size="16">TrafficSetting</tspan></text><path fill="#0a55a8" d="M2147.244 2117.48h191.339v56.693h-191.339z"/><path stroke="gray" stroke-linecap="round" stroke-linejoin="round" d="M2147.244 2117.48h191.339v56.693h-191.339z"/><text fill="#fff" transform="translate(2152.244 2136.095)"><tspan x="43.733" y="16" font-family="Helvetica Neue" font-size="16" font-weight="bold">Permissions</tspan></text><path fill="#fff" d="M2147.244 2174.173h191.339v56.693h-191.339z"/><path stroke="gray" stroke-linecap="round" stroke-linejoin="round" d="M2147.244 2174.173h191.339v56.693h-191.339z"/><text fill="#000" transform="translate(2152.244 2192.788)"><tspan x="31.229" y="16" font-family="Helvetica Neue" font-size="16">AccessBindings</tspan></text><path fill="#fff" d="M2147.244 2287.559h191.339v56.693h-191.339z"/><path stroke="gray" stroke-linecap="round" stroke-linejoin="round" d="M2147.244 2287.559h191.339v56.693h-191.339z"/><text fill="#000" transform="translate(2152.244 2296.441)"><tspan x="16.701" y="16" font-family="Helvetica Neue" font-size="16">OrganizationAccess</tspan> <tspan x="58.213" y="35.464" font-family="Helvetica Neue" font-size="16">Bindings</tspan></text><path fill="#fff" d="M1445.669 2174.173h191.339v56.693h-191.339z"/><path stroke="gray" stroke-linecap="round" stroke-linejoin="round" d="M1445.669 2174.173h191.339v56.693h-191.339z"/><text fill="#000" transform="translate(1450.67 2192.788)"><tspan x="39.829" y="16" font-family="Helvetica Neue" font-size="16">Tier1Gateway</tspan></text><path fill="#0a55a8" d="M2381.102 2117.48h191.339v56.693h-191.339z"/><path stroke="gray" stroke-linecap="round" stroke-linejoin="round" d="M2381.102 2117.48h191.339v56.693h-191.339z"/><text fill="#fff" transform="translate(2386.102 2136.095)"><tspan x="50.093" y="16" font-family="Helvetica Neue" font-size="16" font-weight="bold">Istio CRDs</tspan></text><path fill="#fff" d="M2381.102 2230.866h191.339v56.693h-191.339z"/><path stroke="gray" stroke-linecap="round" stroke-linejoin="round" d="M2381.102 2230.866h191.339v56.693h-191.339z"/><text fill="#000" transform="translate(2386.102 2249.48)"><tspan x="32.133" y="16" font-family="Helvetica Neue" font-size="16">DestinationRule</tspan></text><path fill="#fff" d="M2381.102 2344.252h191.339v56.693h-191.339z"/><path stroke="gray" stroke-linecap="round" stroke-linejoin="round" d="M2381.102 2344.252h191.339v56.693h-191.339z"/><text fill="#000" transform="translate(2386.102 2362.866)"><tspan x="44.733" y="16" font-family="Helvetica Neue" font-size="16">WasmPlugin</tspan></text><path fill="#fff" d="M2381.102 2174.173h191.339v56.693h-191.339z"/><path stroke="gray" stroke-linecap="round" stroke-linejoin="round" d="M2381.102 2174.173h191.339v56.693h-191.339z"/><text fill="#000" transform="translate(2386.102 2192.788)"><tspan x="39.901" y="16" font-family="Helvetica Neue" font-size="16">VirtualService</tspan></text><path fill="#fff" d="M2381.102 2287.559h191.339v56.693h-191.339z"/><path stroke="gray" stroke-linecap="round" stroke-linejoin="round" d="M2381.102 2287.559h191.339v56.693h-191.339z"/><text fill="#000" transform="translate(2386.102 2306.173)"><tspan x="43.981" y="16" font-family="Helvetica Neue" font-size="16">ServiceEntry</tspan></text><path fill="#0a55a8" d="M2614.961 2117.48H2806.3v56.693h-191.339z"/><path stroke="gray" stroke-linecap="round" stroke-linejoin="round" d="M2614.961 2117.48H2806.3v56.693h-191.339z"/><text fill="#fff" transform="translate(2619.96 2134.827)"><tspan x="38.573" y="17" font-family="PingFang SC" font-size="16" font-weight="bold">Multi Tenants</tspan></text><path fill="#fff" d="M2614.961 2174.173H2806.3v56.693h-191.339z"/><path stroke="gray" stroke-linecap="round" stroke-linejoin="round" d="M2614.961 2174.173H2806.3v56.693h-191.339z"/><text fill="#000" transform="translate(2619.96 2192.788)"><tspan x="66.069" y="16" font-family="Helvetica Neue" font-size="16">Tenant</tspan></text><path fill="#fff" d="M2381.102 2400.945h191.339v56.693h-191.339z"/><path stroke="gray" stroke-linecap="round" stroke-linejoin="round" d="M2381.102 2400.945h191.339v56.693h-191.339z"/><text fill="#000" transform="translate(2386.102 2419.56)"><tspan x="49.461" y="16" font-family="Helvetica Neue" font-size="16">EnvoyFilter</tspan></text><path fill="#fff" d="M2147.244 2627.717h191.339v56.693h-191.339z"/><path stroke="gray" stroke-linecap="round" stroke-linejoin="round" d="M2147.244 2627.717h191.339v56.693h-191.339z"/><text fill="#000" transform="translate(2152.244 2636.599)"><tspan x="20.261" y="16" font-family="Helvetica Neue" font-size="16">IstioInternalAccess</tspan> <tspan x="58.213" y="35.464" font-family="Helvetica Neue" font-size="16">Bindings</tspan></text><path fill="#fff" d="M2381.102 2457.638h191.339v56.693h-191.339z"/><path stroke="gray" stroke-linecap="round" stroke-linejoin="round" d="M2381.102 2457.638h191.339v56.693h-191.339z"/><text fill="#000" transform="translate(2386.102 2476.252)"><tspan x="19.981" y="16" font-family="Helvetica Neue" font-size="16">PeerAuthentication</tspan></text><path fill="#fff" d="M2381.102 2514.331h191.339v56.693h-191.339z"/><path stroke="gray" stroke-linecap="round" stroke-linejoin="round" d="M2381.102 2514.331h191.339v56.693h-191.339z"/><text fill="#000" transform="translate(2386.102 2532.945)"><tspan x="6.205" y="16" font-family="Helvetica Neue" font-size="16">RequestAuthentication</tspan></text><path fill="#fff" d="M2147.244 2400.945h191.339v56.693h-191.339z"/><path stroke="gray" stroke-linecap="round" stroke-linejoin="round" d="M2147.244 2400.945h191.339v56.693h-191.339z"/><text fill="#000" transform="translate(2152.244 2409.827)"><tspan x="33.453" y="16" font-family="Helvetica Neue" font-size="16">SecurityAccess</tspan> <tspan x="58.213" y="35.464" font-family="Helvetica Neue" font-size="16">Bindings</tspan></text><path fill="#fff" d="M2147.244 2457.638h191.339v56.693h-191.339z"/><path stroke="gray" stroke-linecap="round" stroke-linejoin="round" d="M2147.244 2457.638h191.339v56.693h-191.339z"/><text fill="#000" transform="translate(2152.244 2466.52)"><tspan x="40.261" y="16" font-family="Helvetica Neue" font-size="16">TrafficAccess</tspan> <tspan x="58.213" y="35.464" font-family="Helvetica Neue" font-size="16">Bindings</tspan></text><path fill="#fff" d="M2147.244 2514.331h191.339v56.693h-191.339z"/><path stroke="gray" stroke-linecap="round" stroke-linejoin="round" d="M2147.244 2514.331h191.339v56.693h-191.339z"/><text fill="#000" transform="translate(2152.244 2523.213)"><tspan x="31.229" y="16" font-family="Helvetica Neue" font-size="16">GatewayAccess</tspan> <tspan x="58.213" y="35.464" font-family="Helvetica Neue" font-size="16">Bindings</tspan></text><path fill="#fff" d="M2147.244 2571.024h191.339v56.693h-191.339z"/><path stroke="gray" stroke-linecap="round" stroke-linejoin="round" d="M2147.244 2571.024h191.339v56.693h-191.339z"/><text fill="#000" transform="translate(2152.244 2579.906)"><tspan x="50.789" y="16" font-family="Helvetica Neue" font-size="16">APIAccess</tspan> <tspan x="58.213" y="35.464" font-family="Helvetica Neue" font-size="16">Bindings</tspan></text><path fill="#0a55a8" d="M2848.819 2117.48h191.339v56.693h-191.339z"/><path stroke="gray" stroke-linecap="round" stroke-linejoin="round" d="M2848.819 2117.48h191.339v56.693h-191.339z"/><text fill="#fff" transform="translate(2853.819 2136.095)"><tspan x="64.885" y="16" font-family="Helvetica Neue" font-size="16" font-weight="bold">Others</tspan></text><path fill="#fff" d="M2848.819 2174.173h191.339v56.693h-191.339z"/><path stroke="gray" stroke-linecap="round" stroke-linejoin="round" d="M2848.819 2174.173h191.339v56.693h-191.339z"/><text fill="#000" transform="translate(2853.819 2192.788)"><tspan x="31.397" y="16" font-family="Helvetica Neue" font-size="16">WasmExtension</tspan></text><path fill="#fff" d="M2614.961 2230.866H2806.3v56.693h-191.339z"/><path stroke="gray" stroke-linecap="round" stroke-linejoin="round" d="M2614.961 2230.866H2806.3v56.693h-191.339z"/><text fill="#000" transform="translate(2619.96 2249.48)"><tspan x="43.685" y="16" font-family="Helvetica Neue" font-size="16">Organization</tspan></text><path fill="#fff" d="M2614.961 2287.559H2806.3v56.693h-191.339z"/><path stroke="gray" stroke-linecap="round" stroke-linejoin="round" d="M2614.961 2287.559H2806.3v56.693h-191.339z"/><text fill="#000" transform="translate(2619.96 2306.173)"><tspan x="49.021" y="16" font-family="Helvetica Neue" font-size="16">Workspace</tspan></text><path fill="#fff" d="M2381.102 2627.717h191.339v56.693h-191.339z"/><path stroke="gray" stroke-linecap="round" stroke-linejoin="round" d="M2381.102 2627.717h191.339v56.693h-191.339z"/><text fill="#000" transform="translate(2386.102 2646.331)"><tspan x="62.509" y="16" font-family="Helvetica Neue" font-size="16">Sidecar</tspan></text><path fill="#fff" d="M2147.244 2684.41h191.339v56.693h-191.339z"/><path stroke="gray" stroke-linecap="round" stroke-linejoin="round" d="M2147.244 2684.41h191.339v56.693h-191.339z"/><text fill="#000" transform="translate(2152.244 2703.024)"><tspan x="32.421" y="16" font-family="Helvetica Neue" font-size="16">ServiceAccount</tspan></text><path fill="#fff" d="M2614.961 2344.252H2806.3v56.693h-191.339z"/><path stroke="gray" stroke-linecap="round" stroke-linejoin="round" d="M2614.961 2344.252H2806.3v56.693h-191.339z"/><text fill="#000" transform="translate(2619.96 2362.866)"><tspan x="64.293" y="16" font-family="Helvetica Neue" font-size="16">Cluster</tspan></text><path fill="#fff" d="M2614.961 2400.945H2806.3v56.693h-191.339z"/><path stroke="gray" stroke-linecap="round" stroke-linejoin="round" d="M2614.961 2400.945H2806.3v56.693h-191.339z"/><text fill="#000" transform="translate(2619.96 2419.56)"><tspan x="53.325" y="16" font-family="Helvetica Neue" font-size="16">Appliction</tspan></text><path fill="#fff" d="M2614.961 2457.638H2806.3v56.693h-191.339z"/><path stroke="gray" stroke-linecap="round" stroke-linejoin="round" d="M2614.961 2457.638H2806.3v56.693h-191.339z"/><text fill="#000" transform="translate(2619.96 2476.252)"><tspan x="63.245" y="16" font-family="Helvetica Neue" font-size="16">Service</tspan></text><path fill="#fff" d="M2381.102 2571.024h191.339v56.693h-191.339z"/><path stroke="gray" stroke-linecap="round" stroke-linejoin="round" d="M2381.102 2571.024h191.339v56.693h-191.339z"/><text fill="#000" transform="translate(2386.102 2589.638)"><tspan x="19.085" y="16" font-family="Helvetica Neue" font-size="16">AuthorizationPolicy</tspan></text><path fill="#0a55a8" d="M1211.811 2117.48h191.339v56.693h-191.339z"/><path stroke="gray" stroke-linecap="round" stroke-linejoin="round" d="M1211.811 2117.48h191.339v56.693h-191.339z"/><text fill="#fff" transform="translate(1216.811 2136.095)"><tspan x="40.757" y="16" font-family="Helvetica Neue" font-size="16" font-weight="bold">Observability</tspan></text><path fill="#fff" d="M1211.811 2174.173h191.339v56.693h-191.339z"/><path stroke="gray" stroke-linecap="round" stroke-linejoin="round" d="M1211.811 2174.173h191.339v56.693h-191.339z"/><text fill="#000" transform="translate(1216.811 2192.788)"><tspan x="67.253" y="16" font-family="Helvetica Neue" font-size="16">Metric</tspan></text><path fill="#fff" d="M1211.811 2230.866h191.339v56.693h-191.339z"/><path stroke="gray" stroke-linecap="round" stroke-linejoin="round" d="M1211.811 2230.866h191.339v56.693h-191.339z"/><text fill="#000" transform="translate(1216.811 2249.48)"><tspan x="64.437" y="16" font-family="Helvetica Neue" font-size="16">Source</tspan></text><path stroke="#000" stroke-linecap="round" stroke-linejoin="round" stroke-width="2" d="M1775.197 2059.37v29.055h-233.858v29.055m233.858-58.11v58.11m0-58.11v29.055h233.858v29.055"/><path fill="#fff" d="M1445.669 2286.689h191.339v56.693h-191.339z"/><path stroke="gray" stroke-linecap="round" stroke-linejoin="round" d="M1445.669 2286.689h191.339v56.693h-191.339z"/><text fill="#000" transform="translate(1450.67 2305.304)"><tspan x="23.237" y="16" font-family="Helvetica Neue" font-size="16">EastWestGateway</tspan></text><path fill="#fff" d="M1445.669 2343.382h191.339v56.693h-191.339z"/><path stroke="gray" stroke-linecap="round" stroke-linejoin="round" d="M1445.669 2343.382h191.339v56.693h-191.339z"/><text fill="#000" transform="translate(1450.67 2361.997)"><tspan x="33.005" y="16" font-family="Helvetica Neue" font-size="16">EgressGateway</tspan></text></g></svg>