<svg xmlns="http://www.w3.org/2000/svg" width="1358" height="969" viewBox="-4644 -1323 1358 969"><defs><marker id="a" stroke-linejoin="miter" stroke-miterlimit="10" color="#000" markerHeight="6" markerUnits="strokeWidth" markerWidth="7" orient="auto" overflow="visible" viewBox="-1 -3 7 6"><path fill="currentColor" stroke="currentColor" d="M4.8 0 0-1.8v3.6Z"/></marker><marker id="b" stroke-linejoin="miter" stroke-miterlimit="10" color="#75428c" markerHeight="6" markerUnits="strokeWidth" markerWidth="7" orient="auto" overflow="visible" viewBox="-1 -3 7 6"><path fill="currentColor" stroke="currentColor" d="M4.8 0 0-1.8v3.6Z"/></marker><marker id="c" stroke-linejoin="miter" stroke-miterlimit="10" color="#f05a26" markerHeight="6" markerUnits="strokeWidth" markerWidth="7" orient="auto" overflow="visible" viewBox="-1 -3 7 6"><path fill="currentColor" stroke="currentColor" d="M4.8 0 0-1.8v3.6Z"/></marker><marker id="d" stroke-linejoin="miter" stroke-miterlimit="10" color="#f05a26" markerHeight="6" markerUnits="strokeWidth" markerWidth="7" orient="auto" overflow="visible" viewBox="-1 -3 7 6"><path fill="currentColor" stroke="currentColor" d="M4.8 0 0-1.8v3.6Z"/></marker></defs><g fill="none"><path fill="#fff" d="M-4644-1323h1358v969h-1358z"/><path fill="#fff" d="M-4643.15-1322.362h1356.378v968.032H-4643.15z"/><path fill="#ccc" fill-opacity=".252" d="M-4327.087-1186.299h1003.465v729.921h-1003.465z"/><path stroke="gray" stroke-linecap="round" stroke-linejoin="round" d="M-4327.087-1186.299h1003.465v729.921h-1003.465z"/><text fill="#000" transform="translate(-4322.087 -1181.3)"><tspan x="902.489" y="16" font-family="Helvetica Neue" font-size="16" font-weight="bold">TSB Cluster</tspan> <tspan x="836.761" y="35.464" font-family="Helvetica Neue" font-size="16" font-weight="bold">(Management Plane)</tspan></text><path fill="#f15623" d="M-4083.307-1058.74h170.079v56.693h-170.079z"/><text fill="#fff" transform="translate(-4078.307 -1040.126)"><tspan x="21.943" y="16" font-family="Helvetica Neue" font-size="16" font-weight="bold">TSB API Server</tspan></text><path fill="#f15623" d="M-4083.307-943.937h170.079v56.693h-170.079z"/><text fill="#fff" transform="translate(-4078.307 -935.055)"><tspan x="6.423" y="16" font-family="Helvetica Neue" font-size="16" font-weight="bold">Management Plane</tspan> <tspan x="41.975" y="35.464" font-family="Helvetica Neue" font-size="16" font-weight="bold">Controller</tspan></text><path fill="#f15623" d="M-4083.307-829.134h170.079v56.693h-170.079z"/><text fill="#fff" transform="translate(-4078.307 -810.52)"><tspan x="33.367" y="16" font-family="Helvetica Neue" font-size="16" font-weight="bold">XCP Central</tspan></text><path stroke="#000" stroke-dasharray="8 8" stroke-linecap="round" stroke-linejoin="round" stroke-width="2" marker-end="url(#a)" d="M-3998.268-943.937v-45.21"/><path fill="#333" d="M-3750.547-519.792h170.079v41.102h-170.079z"/><text fill="#fff" transform="translate(-3745.547 -508.973)"><tspan x="56.503" y="16" font-family="Helvetica Neue" font-size="16" font-weight="bold">Zipkin</tspan></text><path fill="#fff" d="M-3551.811-420.945h170.079v41.102h-170.079z"/><path fill="#000" d="M-3506.998-391.79c-1.683 0-3.03-.51-3.997-1.489-.968-.978-1.431-2.38-1.431-4.124 0-1.786.463-3.232 1.346-4.252q1.326-1.53 3.661-1.53c1.43 0 2.567.424 3.408 1.317.842.893 1.263 2.084 1.263 3.657v1.276h-7.28c.042 1.063.337 1.87.842 2.466.505.595 1.304.85 2.272.85.631 0 1.262-.042 1.81-.17.546-.128 1.135-.34 1.809-.595v1.913a8.3 8.3 0 0 1-1.726.595c-.589.128-1.262.085-1.977.085m-.463-9.61c-.757 0-1.347.255-1.767.723-.421.468-.716 1.148-.8 2.083h4.965c0-.893-.21-1.615-.63-2.083s-1.01-.723-1.768-.723m7.322-6.079h2.314v15.52h-2.314zm12.455 15.52-.463-1.531h-.084c-.505.68-1.052 1.148-1.6 1.36a5.6 5.6 0 0 1-2.061.383q-1.578 0-2.525-.893c-.631-.595-.883-1.403-.883-2.466q0-1.722 1.262-2.551c.841-.553 2.104-.893 3.829-.936l1.893-.042v-.595c0-.723-.168-1.234-.505-1.574q-.504-.51-1.514-.51a5 5 0 0 0-1.6.255c-.504.17-1.009.383-1.472.595l-.757-1.658a8.7 8.7 0 0 1 1.935-.723c.715-.17 1.347-.255 1.978-.255 1.388 0 2.44.298 3.156.936.715.637 1.052 1.573 1.052 2.891v7.313Zm-3.45-1.616c.84 0 1.514-.255 2.019-.723s.757-1.148.757-1.999v-.935l-1.388.042c-1.094.043-1.894.213-2.399.553q-.757.51-.757 1.53c0 .511.126.894.42 1.149.295.255.758.383 1.347.383m15.653-1.531c0 1.063-.378 1.913-1.178 2.466s-1.894.85-3.324.85c-1.473 0-2.609-.212-3.493-.68v-2.04c1.263.594 2.483.892 3.577.892 1.43 0 2.146-.425 2.146-1.318 0-.298-.084-.51-.253-.68a3.6 3.6 0 0 0-.799-.596c-.379-.212-.884-.425-1.515-.68-1.262-.51-2.104-.978-2.566-1.488-.463-.51-.674-1.148-.674-1.914 0-.935.379-1.658 1.136-2.21.758-.553 1.768-.766 3.072-.766 1.262 0 2.483.255 3.619.808l-.758 1.743c-1.178-.51-2.146-.722-2.987-.722-1.22 0-1.852.34-1.852 1.062 0 .34.169.638.463.893.295.256 1.01.553 2.104.978.884.34 1.557.68 1.978.978.42.298.715.638.926 1.02.294.426.378.851.378 1.404m6.564 1.446c.547 0 1.136-.085 1.684-.256v1.744c-.253.127-.59.212-1.01.297q-.631.128-1.263.128c-2.188 0-3.282-1.19-3.282-3.487v-5.952h-1.472v-1.02l1.598-.851.8-2.339h1.43v2.466h3.114v1.786h-3.113v5.91c0 .553.126.978.42 1.233.295.256.674.34 1.094.34m3.745-12.245c0-.425.126-.723.337-.978.21-.255.547-.34.968-.34s.715.127.967.34c.253.213.337.553.337.978 0 .383-.126.723-.337.935-.21.213-.547.34-.967.34-.421 0-.758-.127-.968-.34-.21-.212-.337-.552-.337-.935m2.483 13.946h-2.314v-11.012h2.314Zm7.7.171c-1.641 0-2.903-.468-3.745-1.446-.841-.978-1.304-2.381-1.304-4.21 0-1.87.463-3.274 1.346-4.294.884-1.02 2.188-1.488 3.871-1.488 1.137 0 2.189.212 3.114.637l-.715 1.871c-.968-.382-1.767-.595-2.44-.595-1.894 0-2.82 1.276-2.82 3.784 0 1.233.253 2.169.715 2.807.463.637 1.179.935 2.062.935 1.052 0 2.02-.255 2.946-.765v2.04a3.7 3.7 0 0 1-1.347.51c-.505.086-1.01.213-1.683.213m12.918-3.316c0 1.063-.379 1.913-1.178 2.466-.8.553-1.894.85-3.324.85-1.473 0-2.609-.212-3.493-.68v-2.04c1.263.594 2.483.892 3.577.892 1.43 0 2.146-.425 2.146-1.318 0-.298-.084-.51-.253-.68a3.6 3.6 0 0 0-.799-.596c-.379-.212-.884-.425-1.515-.68-1.262-.51-2.104-.978-2.567-1.488s-.673-1.148-.673-1.914c0-.935.379-1.658 1.136-2.21.758-.553 1.767-.766 3.072-.766 1.262 0 2.483.255 3.619.808l-.758 1.743c-1.178-.51-2.146-.722-2.987-.722-1.22 0-1.852.34-1.852 1.062 0 .34.168.638.463.893.295.256 1.01.553 2.104.978.884.34 1.557.68 1.978.978.42.298.715.638.925 1.02.295.426.379.851.379 1.404m7.28 3.317c-1.684 0-3.03-.51-3.998-1.489-.968-.978-1.43-2.38-1.43-4.124 0-1.786.462-3.232 1.346-4.252q1.326-1.53 3.66-1.53c1.431 0 2.568.424 3.409 1.317.842.893 1.262 2.084 1.262 3.657v1.276h-7.279c.042 1.063.337 1.87.841 2.466.505.595 1.305.85 2.273.85.631 0 1.262-.042 1.809-.17s1.136-.34 1.81-.595v1.913a8.3 8.3 0 0 1-1.726.595c-.589.128-1.22.085-1.977.085m-.421-9.61c-.758 0-1.347.255-1.768.723-.42.468-.715 1.148-.799 2.083h4.965c0-.893-.21-1.615-.631-2.083-.42-.468-1.052-.723-1.767-.723m14.096 9.441-.463-1.531h-.084c-.505.68-1.052 1.148-1.599 1.36a5.6 5.6 0 0 1-2.062.383q-1.578 0-2.525-.893c-.631-.595-.883-1.403-.883-2.466q0-1.722 1.262-2.551c.842-.553 2.104-.893 3.829-.936l1.894-.042v-.595c0-.723-.169-1.234-.505-1.574q-.505-.51-1.515-.51a5 5 0 0 0-1.599.255c-.505.17-1.01.383-1.473.595l-.757-1.658a8.7 8.7 0 0 1 1.935-.723c.716-.17 1.347-.255 1.978-.255 1.389 0 2.44.298 3.156.936.715.637 1.052 1.573 1.052 2.891v7.313Zm-3.45-1.616c.841 0 1.514-.255 2.019-.723s.758-1.148.758-1.999v-.935l-1.389.042c-1.094.043-1.894.213-2.398.553q-.758.51-.758 1.53c0 .511.126.894.421 1.149s.8.383 1.346.383m13.886-9.61c.463 0 .842.043 1.136.085l-.21 2.169a4 4 0 0 0-1.01-.128c-.926 0-1.683.298-2.272.936-.59.637-.884 1.403-.884 2.38v5.783h-2.314v-11.012h1.809l.295 1.956h.126c.379-.638.841-1.19 1.43-1.574.59-.382 1.221-.595 1.894-.595m7.574 11.396c-1.641 0-2.903-.468-3.745-1.446-.841-.978-1.304-2.381-1.304-4.21 0-1.87.463-3.274 1.346-4.294.884-1.02 2.188-1.488 3.871-1.488 1.137 0 2.189.212 3.114.637l-.715 1.871c-.968-.382-1.767-.595-2.44-.595-1.894 0-2.82 1.276-2.82 3.784 0 1.233.253 2.169.715 2.807.463.637 1.179.935 2.062.935 1.052 0 2.02-.255 2.946-.765v2.04a3.7 3.7 0 0 1-1.347.51c-.505.086-1.01.213-1.683.213m15.19-.169h-2.314v-6.804q0-1.275-.505-1.913c-.337-.425-.884-.638-1.599-.638q-1.452 0-2.146.893c-.463.595-.673 1.573-.673 2.934v5.527h-2.314v-15.52h2.314v3.955q0 .957-.126 2.041h.168c.336-.51.757-.935 1.304-1.233s1.22-.425 1.978-.425c2.651 0 3.955 1.36 3.955 4.04v7.142Z"/><path fill="#00a9e5" d="M-3528.668-401.953h-8.794c.042.213.126.425.168.595.294 1.021.463 2.084.547 3.19.042.425.042.892.042 1.318 0 .425 0 .893-.042 1.318-.084 1.105-.253 2.168-.547 3.189-.042.212-.126.425-.169.595h8.795c2.777 0 5.007-2.296 5.007-5.102s-2.23-5.103-5.007-5.103"/><path fill="#353535" d="M-3536.747-395.532c.042-.425.042-.893.042-1.318s0-.893-.042-1.318c-.084-1.106-.253-2.169-.547-3.19-.042-.212-.126-.425-.169-.595h-13.59a17 17 0 0 0-.758 5.103q0 2.678.757 5.102h13.591c.043-.213.127-.425.169-.595.294-1.02.463-2.084.547-3.19"/><path fill="#00bfb3" d="M-3527.153-390.047h-10.94a17.5 17.5 0 0 1-1.137 2.168c-.631 1.063-1.388 1.999-2.23 2.892-.294.297-.589.552-.883.85-.59.553-1.263 1.02-1.936 1.488a16.53 16.53 0 0 0 9.257 2.806c5.849 0 10.982-3.018 14.012-7.568-1.557-1.616-3.745-2.636-6.143-2.636"/><path fill="#019b8f" d="M-3539.23-387.879q.632-1.02 1.136-2.168h-12.329c1.305 3.019 3.451 5.612 6.186 7.398a21 21 0 0 0 1.936-1.488c.294-.255.589-.553.883-.85.8-.85 1.557-1.829 2.188-2.892"/><path fill="#f9b110" d="M-3541.46-408.713c-.294-.298-.589-.553-.883-.85-.59-.554-1.263-1.021-1.936-1.489-2.693 1.786-4.839 4.38-6.186 7.398h12.33a17.5 17.5 0 0 0-1.137-2.168 13.4 13.4 0 0 0-2.188-2.891"/><path fill="#fed10a" d="M-3535.022-413.858c-3.408 0-6.606 1.02-9.257 2.806a22 22 0 0 1 1.936 1.488c.294.255.589.553.883.85.842.894 1.599 1.829 2.23 2.892q.632 1.02 1.136 2.168h10.94c2.399 0 4.587-1.02 6.144-2.636-3.03-4.55-8.163-7.568-14.012-7.568"/><path fill="#0068af" d="M-3483.461-690.827v.09l-2.783 13.893c-.367 1.812-.856 2.536-2.722 2.536h-.825c-1.651 0-2.508-.785-2.905-2.355l-2.416-9.241c-.03-.121-.03-.151-.092-.151-.061 0-.061.03-.091.15l-2.416 9.242c-.398 1.57-1.254 2.355-2.905 2.355h-.826c-1.865 0-2.355-.724-2.722-2.536l-.793-4.152q-.07.294.235-.79l.306-1.083 1.411-5.003h.682l1.431 9.76c.031.271.092.422.153.422.062 0 .153-.12.214-.423l2.539-10.147c.305-1.178.672-1.298 1.712-1.298h2.14c1.04 0 1.407.12 1.713 1.298l2.538 10.147c.061.302.153.423.214.423s.122-.15.153-.423l1.927-12.774c.03-.272.244-.544.55-.544h2.966a.61.61 0 0 1 .612.604m14.918 15.825a.61.61 0 0 1-.612.604h-2.599a.61.61 0 0 1-.612-.604v-.483c-1.406.845-2.843 1.328-4.311 1.328-2.538 0-5.29-.966-5.29-5.043v-.12c0-3.443 2.14-5.225 7.461-5.225h1.926v-1.329c0-1.963-.886-2.446-2.69-2.446-1.958 0-3.976.12-4.985.241h-.153c-.306 0-.55-.09-.55-.513v-1.933c0-.332.183-.543.58-.634a26.7 26.7 0 0 1 5.107-.483c4.343 0 6.728 1.903 6.728 5.768zm-4.037-3.171v-3.715h-1.926c-2.783 0-3.395.876-3.395 2.567v.121c0 1.48.673 1.873 2.202 1.873 1.101 0 2.233-.363 3.12-.846m12.013 3.14c0 .333-.244.635-.58.635h-2.845c-.336 0-.611-.302-.611-.634v-21.744a.61.61 0 0 1 .611-.604h2.844c.337 0 .581.272.581.604zm17.823.272c0 .182-.183.363-.428.363h-3.73c-.337 0-.704-.332-.887-.604l-4.801-6.886v6.856c0 .332-.275.634-.612.634h-2.813c-.336 0-.612-.302-.612-.634v-21.744a.61.61 0 0 1 .612-.604h2.813a.61.61 0 0 1 .612.604v12.593l5.229-6.885a.94.94 0 0 1 .703-.363h3.425c.306 0 .459.121.459.333 0 .09-.03.18-.122.301l-6.147 7.46 6.208 8.335c.061.09.091.15.091.241m6.937-19.539a.61.61 0 0 1-.611.604h-2.966c-.337 0-.643-.271-.643-.604v-2.657c0-.332.306-.604.642-.604h2.967a.61.61 0 0 1 .611.604zm-.091 19.268c0 .332-.276.634-.612.634h-2.813c-.337 0-.612-.302-.612-.634v-15.795a.61.61 0 0 1 .612-.604h2.813a.61.61 0 0 1 .612.604zm18.006 0c0 .332-.275.634-.611.634h-2.814c-.336 0-.611-.302-.611-.634v-9.845c0-2.628-.245-3.383-2.6-3.383-1.04 0-2.17.423-3.455 1.087v12.14c0 .333-.275.635-.612.635h-2.813c-.336 0-.611-.302-.611-.634v-15.795a.61.61 0 0 1 .611-.604h2.66a.61.61 0 0 1 .612.604v.635c1.774-1.118 2.936-1.45 4.954-1.45 4.403 0 5.29 2.93 5.29 6.765zm18.802-14.315c0 .453-.122.513-.49.664l-1.008.393c.489.695.764 1.359.764 2.416v.211c0 3.775-2.63 5.497-7.247 5.497-1.621 0-2.722-.272-3.334-.514-.366.242-.52.514-.52.785 0 .605.337.846 1.04.997l3.609.846c4.159.966 6.85 1.6 6.85 4.832v.211c0 3.08-2.294 4.741-7.493 4.741-4.953 0-7.583-1.842-7.583-5.013v-.272c0-1.238.581-2.446 1.56-3.322-.857-.634-1.377-1.69-1.377-2.778v-.03c0-.936.398-1.873 1.223-2.446-.917-.936-1.253-2.024-1.253-3.534v-.211c0-3.02 1.987-5.557 7.278-5.557h7.155c.22 0 .43.085.585.238a.8.8 0 0 1 .241.578zm-4.71 3.775v-.242c0-1.45-.642-2.567-3.271-2.567-2.6 0-3.303 1.148-3.303 2.567v.242c0 1.117.459 2.386 3.303 2.386 2.538 0 3.272-.876 3.272-2.386m.337 12.563v-.211c0-.665-.398-1.057-3.608-1.812l-2.722-.635c-.459.635-.764 1.027-.764 2.114v.272c0 1.238.764 1.993 3.638 1.993 2.936 0 3.456-.634 3.456-1.721m-133.67-11.408c0 3.05-1.927 6.311-8.042 6.311-2.294 0-3.945-.211-5.413-.543-.306-.06-.581-.272-.581-.604v-2.175c0-.332.275-.573.581-.573h.061c1.223.15 4.281.302 5.413.302 2.721 0 3.547-.967 3.547-2.718 0-1.178-.581-1.782-2.599-2.96l-4.037-2.386c-2.844-1.66-3.608-3.412-3.608-5.526 0-3.322 1.957-5.738 7.645-5.738 2.018 0 4.831.302 5.871.543.306.06.55.272.55.574v2.235c0 .302-.214.543-.52.543h-.06c-2.019-.18-4.037-.302-6.025-.302-2.263 0-3.21.786-3.21 2.145 0 .996.52 1.6 2.507 2.687l3.67 2.024c3.363 1.842 4.25 3.775 4.25 6.16m17.059 5.707c0 .181-.184.363-.428.363h-3.731c-.336 0-.703-.333-.887-.604l-4.801-6.886v6.855c0 .333-.275.635-.611.635h-2.814c-.336 0-.611-.302-.611-.635v-21.743a.61.61 0 0 1 .611-.604h2.814a.61.61 0 0 1 .611.604v12.593l5.23-6.885a.94.94 0 0 1 .702-.363h3.425c.306 0 .459.121.459.332 0 .091-.03.182-.122.302l-6.147 7.46 6.208 8.335c.061.09.092.15.092.241m17.089-16.156c0 .06 0 .12-.03.18l-5.107 17.637c-.948 3.292-2.08 4.741-6.239 4.741-1.009 0-2.538-.18-3.241-.392-.336-.09-.642-.211-.642-.513v-1.933c0-.332.275-.544.611-.544h.062c.856.03 2.599.181 3.455.181 1.315 0 1.988-.362 2.416-1.932l.244-.906h-.458c-.887 0-1.988-.212-2.66-2.507l-4.007-13.831c-.03-.09-.03-.151-.03-.212 0-.302.183-.483.581-.483h3.088c.276 0 .52.272.581.544l3.089 12.29c.122.514.244.665.428.665h.275l3.303-12.986c.061-.271.306-.513.611-.513h3.12c.305 0 .55.242.55.514"/><path fill="#d8d8d8" d="M-3408.615-701.958a16 16 0 0 1 2.546-.34c8.625-.447 15.991 6.14 16.446 14.705a15.4 15.4 0 0 1-1.98 8.367c6.086-2.143 10.205-8.006 9.85-14.7-.433-8.15-7.456-14.431-15.663-14.006a14.99 14.99 0 0 0-11.2 5.974"/><path fill="#f15623" d="M-3551.811-914.74h170.079v56.693h-170.079z"/><text fill="#fff" transform="translate(-3546.811 -905.858)"><tspan x="6.423" y="16" font-family="Helvetica Neue" font-size="16" font-weight="bold">Management Plane</tspan> <tspan x="45.815" y="35.464" font-family="Helvetica Neue" font-size="16" font-weight="bold">Operator</tspan></text><path fill="#326ce5" d="M-3665.74-1050.412a5 5 0 0 0-1.867.475l-25.278 11.583c-1.32.604-2.28 1.752-2.609 3.12l-6.187 25.998a4.35 4.35 0 0 0 .68 3.546q.13.189.273.366l17.464 20.861c.923 1.09 2.309 1.715 3.77 1.709h28.011a5 5 0 0 0 3.774-1.728l17.456-20.866c.916-1.09 1.259-2.528.907-3.892l-6.228-26.02c-.329-1.368-1.293-2.516-2.608-3.12l-25.238-11.555a5 5 0 0 0-2.343-.477Z"/><path fill="#fff" d="M-3665.509-1041.552c-.871.058-1.531.775-1.485 1.612v.41c.04.464.113.924.208 1.379.14.872.19 1.755.15 2.637a1.6 1.6 0 0 1-.495.751l-.034.615q-1.379.111-2.728.405c-3.779.82-7.22 2.702-9.876 5.415l-.544-.37c-.3.087-.621.054-.896-.088a14 14 0 0 1-2.034-1.765 12 12 0 0 0-.992-1.013l-.335-.257a1.86 1.86 0 0 0-1.05-.381 1.48 1.48 0 0 0-1.205.514c-.512.69-.345 1.647.372 2.142l.313.24q.605.386 1.252.703c.803.43 1.56.933 2.264 1.526.18.246.284.536.301.836l.495.436c-2.67 3.848-3.765 8.51-3.08 13.087l-.635.175a2 2 0 0 1-.649.627c-.886.228-1.793.371-2.708.43q-.729.014-1.452.108l-.401.088h-.045a1.51 1.51 0 0 0-1.23.973 1.42 1.42 0 0 0 .352 1.493 1.56 1.56 0 0 0 1.551.36h.03l.408-.044c.46-.13.914-.292 1.356-.475a14.6 14.6 0 0 1 2.636-.74c.313.017.612.12.866.293l.68-.109c1.475 4.395 4.573 8.12 8.71 10.466l-.276.556c.127.255.174.538.136.82a14 14 0 0 1-1.368 2.379q-.441.558-.812 1.161l-.193.392a1.41 1.41 0 0 0 .042 1.524c.311.46.864.714 1.432.658a1.51 1.51 0 0 0 1.255-.942l.188-.37q.258-.654.435-1.33c.402-.952.62-1.974 1.168-2.606.18-.162.406-.268.649-.305l.34-.595a20.3 20.3 0 0 0 13.94.033l.302.556c.309.043.585.207.771.447a13.4 13.4 0 0 1 1.034 2.44q.18.678.44 1.331l.189.37c.202.515.686.876 1.255.936a1.54 1.54 0 0 0 1.437-.65 1.41 1.41 0 0 0 .036-1.527l-.197-.392q-.37-.6-.812-1.158a15.3 15.3 0 0 1-1.361-2.303 1.1 1.1 0 0 1 .154-.871 5 5 0 0 1-.251-.587c4.128-2.364 7.212-6.1 8.67-10.502l.645.109c.231-.203.535-.31.846-.301.9.166 1.782.436 2.635.74q.665.295 1.357.502c.109.028.267.052.39.08h.03a1.56 1.56 0 0 0 1.547-.362 1.42 1.42 0 0 0 .36-1.492 1.51 1.51 0 0 0-1.234-.971l-.44-.1q-.722-.095-1.452-.11c-.916-.056-1.823-.2-2.708-.429a1.67 1.67 0 0 1-.653-.627l-.613-.175c.654-4.576-.465-9.223-3.143-13.059l.535-.475a1.12 1.12 0 0 1 .281-.823 14.3 14.3 0 0 1 2.246-1.517q.647-.317 1.252-.704l.331-.257a1.44 1.44 0 0 0 .709-1.4 1.47 1.47 0 0 0-1.01-1.219 1.56 1.56 0 0 0-1.58.35l-.335.258q-.525.48-.991 1.013a14 14 0 0 1-1.98 1.793c-.29.114-.608.147-.916.096l-.574.393c-3.312-3.334-7.773-5.404-12.554-5.818 0-.218-.03-.545-.035-.648a1.14 1.14 0 0 1-.494-.723c-.031-.88.026-1.76.173-2.63q.144-.684.208-1.38v-.435c.046-.837-.612-1.554-1.485-1.612Zm-1.892 11.256-.453 7.612h-.034c-.023.47-.311.871-.753 1.098-.443.226-.966.159-1.361-.118l-6.498-4.423a15.76 15.76 0 0 1 7.491-3.92 17 17 0 0 1 1.604-.249Zm3.784 0c3.413.408 6.591 1.88 9.05 4.193l-6.437 4.395a1.38 1.38 0 0 1-1.402.157 1.28 1.28 0 0 1-.762-1.142Zm-15.242 7.032 5.942 5.095v.032c.37.31.531.791.422 1.25-.109.46-.476.825-.946.949v.021l-7.625 2.108c-.377-3.3.4-6.628 2.209-9.457Zm26.657 0a14.74 14.74 0 0 1 2.273 9.428l-7.637-2.113v-.029a1.29 1.29 0 0 1-.946-.947 1.26 1.26 0 0 1 .422-1.251l5.897-5.07Zm-14.525 5.491h2.431l1.486 1.813-.54 2.266-2.184 1.009-2.189-1.009-.515-2.266Zm7.789 6.184c.102-.01.227-.01.306 0l7.864 1.275c-1.134 3.137-3.373 5.818-6.294 7.611l-3.04-7.069a1.24 1.24 0 0 1 .096-1.18c.23-.354.624-.58 1.059-.604Zm-13.207.033a1.35 1.35 0 0 1 1.097.584c.243.357.282.806.107 1.198v.029l-3.021 7.011c-2.892-1.78-5.088-4.427-6.256-7.532l7.796-1.27q.13-.015.263 0Zm6.586 3.05a1.35 1.35 0 0 1 1.218.671h.03l3.842 6.662-1.536.436a16.25 16.25 0 0 1-8.523-.423l3.855-6.662a1.35 1.35 0 0 1 1.135-.642Z"/><text fill="#000" transform="translate(-3709.803 -977.754)"><tspan x="0" y="16" font-family="Helvetica Neue" font-size="16" font-weight="bold">Kubernetes</tspan> <tspan x="4.136" y="35.464" font-family="Helvetica Neue" font-size="16" font-weight="bold">API Server</tspan></text><path fill="#f15623" d="M-3551.811-829.134h170.079v56.693h-170.079z"/><text fill="#fff" transform="translate(-3546.811 -820.251)"><tspan x="33.367" y="16" font-family="Helvetica Neue" font-size="16" font-weight="bold">XCP Central</tspan> <tspan x="45.815" y="35.464" font-family="Helvetica Neue" font-size="16" font-weight="bold">Operator</tspan></text><path stroke="#000" stroke-dasharray="8 8" stroke-linecap="round" stroke-linejoin="round" stroke-width="2" marker-end="url(#a)" d="M-3665.507-933.826v11l.445 35.582v.85h100.351"/><path stroke="#000" stroke-dasharray="8 8" stroke-linecap="round" stroke-linejoin="round" stroke-width="2" marker-end="url(#a)" d="M-3665.507-933.826v132.608h71.807l22.989.43h6"/><path stroke="#000" stroke-dasharray="8 8" stroke-linecap="round" stroke-linejoin="round" stroke-width="2" marker-end="url(#a)" d="M-3717.24-975h-76.218v174.213h-106.87"/><path stroke="#000" stroke-dasharray="8 8" stroke-linecap="round" stroke-linejoin="round" stroke-width="2" marker-end="url(#a)" d="M-3913.228-915.59h60.596v-79.366h122.492"/><path fill="#f2f2f2" d="M-3727.835-924.611h124.656v28.448h-124.656z"/><text fill="#000" transform="translate(-3722.835 -919.611)"><tspan x="0" y="15" font-family="Helvetica Neue" font-size="16">CRD/Webhooks</tspan></text><path fill="#f15623" d="M-4083.307-1156.535h170.079v39.685h-170.079z"/><text fill="#fff" transform="translate(-4078.307 -1146.425)"><tspan x="43.007" y="16" font-family="Helvetica Neue" font-size="16" font-weight="bold">teamsync</tspan></text><path fill="#333" d="M-3750.547-1156.535h170.079v39.685h-170.079z"/><text fill="#fff" transform="translate(-3745.547 -1146.425)"><tspan x="27.903" y="16" font-family="Helvetica Neue" font-size="16" font-weight="bold">cert-manager</tspan></text><path fill="#fff" d="M-3901.669-1298.622h170.079v46.063h-170.079z"/><path fill="#231f20" d="M-3858.205-1275.72h-6.422v-7.501h6.77q3.717 0 3.717 3.809 0 3.693-4.065 3.692m4.615-7.589c-.886-.915-2.111-1.372-3.693-1.372l-9.197.059v17.945h1.853l-.016-7.64h6.843q2.573 0 4.052-1.372 1.479-1.374 1.479-3.81t-1.32-3.81Zm11.993 12.864a3.76 3.76 0 0 1-.88 1.526q-1.245 1.411-3.799 1.411c-1.539 0-2.718-.45-3.542-1.371-.823-.922-1.235-2.139-1.235-3.673q0-1.197.323-2.125t.937-1.566q1.278-1.353 3.517-1.353 4.96 0 4.961 5.044 0 1.199-.282 2.107m.342-6.62c-1.129-1.196-2.8-1.8-5.015-1.8q-3.138 0-4.849 1.832c-1.029 1.105-1.549 2.596-1.549 4.474q0 2.796 1.593 4.513a5.2 5.2 0 0 0 2.051 1.34q1.171.415 2.748.415c2.203 0 3.874-.591 5.032-1.774 1.029-1.08 1.55-2.571 1.55-4.494q0-2.892-1.561-4.514Zm14.01 7.139q0 3.623-5.589 3.623-1.708 0-2.878-.252-1.169-.253-1.899-.835a3.1 3.1 0 0 1-.896-1.156q-.332-.713-.431-1.8l1.734-.02q0 1.427.91 2.101.976.81 3.46.81 3.907 0 3.907-2.274c0-.887-.443-1.496-1.31-1.832q-.267-.097-3.155-.51c-1.924-.276-3.132-.524-3.607-.743q-1.542-.713-1.542-2.563-.001-1.812 1.384-2.698.68-.366 1.702-.569 1.022-.204 2.366-.203 5.38 0 5.38 3.921h-1.649c0-1.838-1.261-2.764-3.782-2.764-1.283 0-2.24.193-2.87.56-.63.366-.945.944-.945 1.716q0 1.08 1.277 1.562.747.25 3.435.578 2.405.252 3.301.707 1.71.771 1.709 2.62Zm6.81 3.273-.705.116-.44.038c-1.129 0-1.937-.19-2.442-.57s-.749-1.046-.749-1.992v-8.199h-2.051v-1.204h2.04l.017-3.87h1.58v3.87h2.753v1.224l-2.753-.02v7.968q0 .892.407 1.222c.271.218.755.338 1.452.338q.15.02.332-.013.278-.057.548-.145l.017 1.221Zm10.932-2.719a4.6 4.6 0 0 1-1.476.945c-.553.22-1.188.321-1.907.321q-4.958 0-4.958-4.756 0-2.214 1.269-3.467 1.268-1.252 3.574-1.252 2.322 0 3.524 1.262 1.202 1.261 1.202 3.38 0 2.31-1.228 3.567m2.809-9.089h-1.58l-.017 2.025q-1.046-1.234-1.494-1.56-1.328-.848-3.435-.847-3.086 0-4.712 1.637-1.544 1.504-1.543 4.354 0 1.41.39 2.507c.26.732.64 1.365 1.138 1.878q1.629 1.58 4.604 1.58 3.573 0 5.07-2.27v2.095q0 2.005-1.087 3.103c-.725.733-1.917 1.093-3.576 1.093-1.561 0-2.672-.257-3.336-.748q-.747-.576-1.029-1.996h-1.627c.177 1.322.664 2.279 1.439 2.869.907.68 2.435 1.02 4.593 1.02 4.128 0 6.198-1.783 6.198-5.348v-11.387Zm8.55 1.191a7 7 0 0 0-1.326-.128q-3.897 0-3.897 4.963v5.756h-1.564l-.016-11.777 1.58.018v2.102h.084q.398-1.242 1.26-1.883.945-.621 2.82-.621h1.06v1.581Zm1.47 3.958q.3-2.007 1.343-3.108a4.6 4.6 0 0 1 1.543-.956c.575-.212 1.218-.319 1.941-.319 1.405 0 2.546.448 3.443 1.342.896.895 1.334 1.91 1.334 3.04zm9.758-3.633a5 5 0 0 0-2.058-1.431c-.82-.31-1.771-.464-2.878-.464q-3.072 0-4.766 1.658t-1.693 4.514c0 1.903.542 3.406 1.627 4.53 1.173 1.235 2.822 1.852 4.963 1.852a8 8 0 0 0 2.364-.336 6.1 6.1 0 0 0 1.9-.951q1.427-1.191 1.81-2.938h-1.709q-.879 3.021-4.38 3.021-2.471 0-3.798-1.477-1.146-1.266-1.145-3.28h11.269c0-1.998-.498-3.564-1.511-4.692Z"/><path fill="#367faf" d="M-3768.706-1271.489q0 5.245-7.283 5.245c-2.91 0-5.033-.603-6.371-1.8q-1.644-1.484-1.643-4.53h1.955q0 4.896 6.058 4.896 2.904 0 4.206-1.002 1.095-.885 1.095-2.772 0-1.869-1.494-2.62c-.564-.27-1.936-.61-4.133-1.02q-4.134-.734-5.362-1.464c-1.184-.72-1.77-1.94-1.77-3.66 0-1.605.498-2.8 1.51-3.583q1.627-1.29 5.577-1.29 7.14 0 7.139 5.506h-1.972q0-4.125-5.3-4.125-2.66-.001-3.888.836-1.163.887-1.162 2.603 0 1.794 1.494 2.526.797.425 4.682 1.176 3.653.639 4.925 1.479 1.743 1.043 1.743 3.599Zm15.882 1.784a7.4 7.4 0 0 1-2.475 1.53q-1.38.51-3.09.51-3.489 0-5.641-2.184t-2.151-5.822q0-3.79 2.134-5.908 2.135-2.116 5.657-2.116 3.573 0 5.616 2.213 1.079 1.079 1.595 2.521.515 1.444.515 3.29 0 3.773-2.16 5.966m1.038 1.19a7.6 7.6 0 0 0 2.26-3.032q.73-1.782.731-4.113c0-2.786-.796-5.013-2.39-6.702a7.9 7.9 0 0 0-3.088-2.061q-1.809-.675-4.134-.675c-3.01 0-5.368.849-7.083 2.542q-2.573 2.541-2.573 6.895 0 4.236 2.597 6.836t7.094 2.6q1.76 0 3.07-.276 1.311-.278 2.224-.849l2.888 2.325 1.206-1.287-2.796-2.202Zm17.626 1.836h-13.362v-17.97l1.836-.04v16.504h11.537l-.017 1.5Z"/><path fill="#231f20" d="M-3879.151-1269.695c.186-1.523.13-1.747 1.282-1.5l.294.025c.886.04 2.045-.14 2.727-.451 1.466-.67 2.335-1.788.89-1.495-3.299.67-3.525-.43-3.525-.43 3.482-5.088 4.938-11.546 3.682-13.127-3.434-4.311-9.361-2.272-9.466-2.219l-.032.006a12 12 0 0 0-2.2-.225c-1.492-.024-2.624.386-3.484 1.027 0 0-10.584-4.294-10.091 5.399.105 2.062 3.002 15.601 6.457 11.512 1.262-1.496 2.483-2.76 2.483-2.76a3.24 3.24 0 0 0 2.093.525l.058-.05c-.018.187-.011.367.024.583-.89.98-.629 1.15-2.408 1.512-1.8.365-.743 1.015-.052 1.186.837.205 2.774.498 4.082-1.305l-.052.206c.349.275.326 1.976.376 3.192s.132 2.35.384 3.02c.251.669.549 2.39 2.887 1.899 1.955-.413 3.45-1.006 3.586-6.528"/><path stroke="#231f20" stroke-linejoin="round" stroke-width="4.108" d="M-3879.151-1269.695c.186-1.523.13-1.747 1.282-1.5l.294.025c.886.04 2.045-.14 2.727-.451 1.466-.67 2.335-1.788.89-1.495-3.299.67-3.525-.43-3.525-.43 3.482-5.088 4.938-11.546 3.682-13.127-3.434-4.311-9.361-2.272-9.466-2.219l-.032.006a12 12 0 0 0-2.2-.225c-1.492-.024-2.624.386-3.484 1.027 0 0-10.584-4.294-10.091 5.399.105 2.062 3.002 15.601 6.457 11.512 1.262-1.496 2.483-2.76 2.483-2.76a3.24 3.24 0 0 0 2.093.525l.058-.05c-.018.187-.011.367.024.583-.89.98-.629 1.15-2.408 1.512-1.8.365-.743 1.015-.052 1.186.837.205 2.774.498 4.082-1.305l-.052.206c.349.275.326 1.976.376 3.192s.132 2.35.384 3.02c.251.669.549 2.39 2.887 1.899 1.955-.413 3.45-1.006 3.586-6.528"/><path fill="#417ba2" d="M-3873.959-1273.116c-3.298.67-3.525-.431-3.525-.431 3.482-5.088 4.938-11.546 3.682-13.127-3.427-4.31-9.36-2.271-9.465-2.218l-.032.006a12 12 0 0 0-2.201-.225c-1.492-.023-2.624.386-3.483 1.027 0 0-10.585-4.294-10.092 5.399.105 2.062 3.001 15.602 6.456 11.512 1.263-1.496 2.484-2.76 2.484-2.76a3.24 3.24 0 0 0 2.092.525l.059-.05c-.018.187-.01.367.024.583-.89.98-.629 1.15-2.407 1.512-1.801.365-.743 1.015-.052 1.186.837.205 2.774.498 4.082-1.305l-.052.206c.349.275.594 1.789.554 3.162-.04 1.374-.069 2.314.206 3.05.275.737.549 2.392 2.889 1.9 1.954-.414 2.968-1.482 3.108-3.265.1-1.267.327-1.08.34-2.213l.182-.536c.21-1.718.033-2.272 1.238-2.014l.293.026c.886.04 2.046-.14 2.727-.452 1.466-.67 2.335-1.788.89-1.495Z"/><path stroke="#fff" stroke-linecap="round" stroke-linejoin="round" stroke-width="1.369" d="M-3886.19-1272.131c-.09 3.196.022 6.416.34 7.199.319.783.999 2.304 3.338 1.81 1.955-.412 2.666-1.21 2.974-2.973.222-1.296.666-4.898.722-5.635m-10.178-16.427s-10.598-4.262-10.1 5.435c.111 2.062 3.002 15.602 6.458 11.505 1.263-1.495 2.405-2.668 2.405-2.668m6.964-15.05c-.367.113 5.892-2.252 9.448 2.222 1.257 1.581-.199 8.04-3.682 13.127"/><path stroke="#fff" stroke-linecap="round" stroke-linejoin="round" stroke-width="1.369" d="M-3877.506-1273.586s.221 1.099 3.525.429c1.445-.294.575.825-.891 1.495-1.203.55-3.9.69-3.944-.069-.114-1.96 1.42-1.364 1.309-1.855-.1-.442-.786-.876-1.24-1.959-.396-.945-5.429-8.19 1.396-7.114.25-.051-1.78-6.391-8.168-6.494s-6.176 7.732-6.176 7.732"/><path stroke="#fff" stroke-linejoin="round" stroke-width="1.369" d="M-3887.977-1272.916c-.891.979-.629 1.15-2.409 1.512-1.8.366-.742 1.015-.052 1.186.838.205 2.774.498 4.083-1.306.399-.55-.002-1.427-.55-1.65-.264-.108-.617-.243-1.073.257Z"/><path stroke="#fff" stroke-linecap="round" stroke-linejoin="round" stroke-width="1.369" d="M-3888.035-1272.933c-.09-.575.192-1.26.494-2.062.454-1.202 1.5-2.405.664-6.22-.624-2.842-4.813-.59-4.815-.205-.001.386.19 1.954-.07 3.78-.338 2.383 1.54 4.398 3.703 4.192"/><path fill="#fff" d="M-3889.032-1281.48c-.019.132.245.483.589.53s.636-.227.656-.358c.019-.131-.245-.277-.59-.324-.343-.048-.637.022-.655.153"/><path stroke="#fff" stroke-linejoin="round" stroke-width=".456" d="M-3889.032-1281.48c-.019.132.245.483.589.53s.636-.227.656-.358c.019-.131-.245-.277-.59-.324-.343-.048-.637.022-.655.153Z"/><path fill="#fff" d="M-3878.578-1281.747c.019.131-.245.482-.589.53-.344.047-.637-.228-.656-.36-.019-.133.245-.277.589-.324.343-.048.636.02.655.153Z"/><path stroke="#fff" stroke-linejoin="round" stroke-width=".228" d="M-3878.578-1281.747c.019.131-.245.482-.589.53-.344.047-.637-.228-.656-.36-.019-.133.245-.277.589-.324.343-.048.636.02.655.153Z"/><path stroke="#fff" stroke-linecap="round" stroke-linejoin="round" stroke-width="1.369" d="M-3877.35-1282.659c.057 1.033-.225 1.736-.261 2.836-.053 1.598.773 3.426-.472 5.258"/><path fill="#f15623" d="M-4293.071-1058.74h170.079v56.693h-170.079z"/><text fill="#fff" transform="translate(-4288.071 -1040.126)"><tspan x="64.943" y="16" font-family="Helvetica Neue" font-size="16" font-weight="bold">IAM</tspan></text><path fill="#fff" d="M-4053.764-1303.937h110.992v56.693h-110.992z"/><path fill="#000" d="M-4018.138-1288.446c-.723-3.096-6.098-6.14-15.5-6.14s-14.778 3.044-15.5 6.14a.8.8 0 0 0-.09.353v26.698q.001.176.072.325c.737 3.532 7.326 6.168 15.518 6.168 8.173 0 14.752-2.625 15.513-6.144a.8.8 0 0 0 .078-.35v-26.696a.8.8 0 0 0-.091-.354m-1.206 18.381a2 2 0 0 1-.161.476 2.5 2.5 0 0 1-.281.466 4 4 0 0 1-.226.283q-.077.086-.163.17a5 5 0 0 1-.328.308q-.077.066-.16.13a7 7 0 0 1-.45.334q-.064.044-.132.086a10 10 0 0 1-.589.36l-.082.043q-.35.192-.74.375l-.022.01c-1.417.654-3.228 1.205-5.34 1.565l-.031.005q-.615.105-1.264.187l-.215.024q-.566.069-1.152.12c-.18.015-.368.022-.551.035-.295.02-.588.043-.891.055q-.742.029-1.516.03-.774-.001-1.517-.032c-.303-.012-.595-.035-.891-.055-.183-.012-.371-.02-.55-.035a32 32 0 0 1-1.152-.12c-.071-.01-.146-.015-.216-.024a31 31 0 0 1-1.264-.187l-.031-.005c-2.111-.36-3.923-.911-5.339-1.565l-.023-.01a12 12 0 0 1-.739-.375l-.082-.044a10 10 0 0 1-.59-.359c-.043-.028-.09-.057-.132-.086a7 7 0 0 1-.45-.334l-.16-.13a5 5 0 0 1-.328-.308c-.055-.056-.112-.112-.162-.17a3.6 3.6 0 0 1-.363-.483 2.7 2.7 0 0 1-.233-.48 2 2 0 0 1-.073-.262c-.023-.115-.048-.232-.048-.348q.001-.122.019-.244a.8.8 0 0 0-.02-.32v-5.358q.029.029.058.056c.136.139.274.276.43.41 2.35 2.055 7.047 3.652 13.856 3.652 6.78 0 11.466-1.584 13.825-3.628q.28-.238.518-.489v5.356a.8.8 0 0 0-.019.321q.019.122.02.244c0 .116-.026.233-.05.35m.05-14.93v5.357a.8.8 0 0 0-.02.32q.019.123.02.245c0 .116-.026.233-.05.35a2 2 0 0 1-.161.476 2.5 2.5 0 0 1-.281.466 4 4 0 0 1-.226.283q-.077.085-.163.17a5 5 0 0 1-.328.307q-.077.066-.16.13a7 7 0 0 1-.45.334q-.064.044-.132.087a10 10 0 0 1-.589.359l-.082.044q-.35.191-.74.374l-.022.01c-1.417.655-3.228 1.205-5.34 1.566l-.031.005q-.615.105-1.264.187-.107.01-.215.023-.566.069-1.152.12c-.18.016-.368.023-.551.036-.295.02-.588.042-.891.055q-.742.028-1.516.03-.774 0-1.517-.033c-.303-.012-.595-.035-.891-.054-.183-.013-.371-.02-.55-.036a33 33 0 0 1-1.152-.12c-.071-.009-.146-.015-.216-.023a32 32 0 0 1-1.295-.192c-2.111-.361-3.923-.912-5.339-1.566l-.023-.01a12 12 0 0 1-.739-.375l-.082-.044a10 10 0 0 1-.59-.358c-.043-.029-.09-.057-.132-.087a7 7 0 0 1-.45-.334q-.081-.064-.16-.13a6 6 0 0 1-.328-.307c-.055-.056-.112-.113-.162-.17a3.6 3.6 0 0 1-.363-.483 2.7 2.7 0 0 1-.233-.48 2 2 0 0 1-.073-.263c-.023-.114-.048-.231-.048-.347q.001-.123.019-.244a.8.8 0 0 0-.02-.321v-5.357c.076.078.161.156.242.234l.134.13q.28.255.608.502c.046.034.097.067.144.1a11 11 0 0 0 .81.528q.342.201.718.391l.12.063q.441.215.927.414l.274.107q.386.15.798.29.147.05.298.099c.365.117.741.228 1.137.33l.167.04q.524.132 1.082.246l.383.075q.53.1 1.091.185c.096.014.188.03.285.045q.697.097 1.437.168c.122.011.249.02.372.03q.592.05 1.211.082l.453.023c.538.02 1.086.036 1.653.036.568 0 1.115-.015 1.653-.036l.453-.023q.619-.032 1.211-.082.188-.014.372-.03.74-.07 1.437-.168c.098-.014.189-.03.285-.045q.56-.084 1.091-.185.194-.036.383-.075a25 25 0 0 0 1.082-.246l.168-.04a22 22 0 0 0 1.136-.33l.299-.1q.411-.14.797-.289.14-.053.274-.107.488-.199.927-.414.06-.03.12-.063a13 13 0 0 0 .947-.53q.306-.189.581-.388c.047-.034.098-.067.144-.101q.328-.245.608-.503.068-.064.134-.13c.081-.077.167-.155.241-.233m-14.344-8.149c8.453 0 14.343 2.852 14.343 5.412s-5.89 5.412-14.343 5.412-14.343-2.852-14.343-5.412 5.89-5.411 14.343-5.411m14.343 31.534a1 1 0 0 0-.02.098c-.353 2.495-6.193 5.167-14.323 5.167s-13.97-2.672-14.323-5.167a1 1 0 0 0-.02-.095v-6.071c.017.019.039.037.057.056.136.138.274.276.43.409 2.35 2.055 7.047 3.653 13.856 3.653 6.78 0 11.466-1.585 13.825-3.628q.28-.239.518-.49z"/><text fill="#000" transform="translate(-4013.047 -1294.208)"><tspan x="0" y="16" font-family="Helvetica Neue" font-size="16" font-weight="bold">Identity</tspan> <tspan x="0" y="35.464" font-family="Helvetica Neue" font-size="16" font-weight="bold">Provider</tspan></text><path stroke="#000" stroke-dasharray="8 8" stroke-linecap="round" stroke-linejoin="round" stroke-width="2" marker-end="url(#a)" d="M-3998.268-1156.535v-77.809"/><path stroke="#000" stroke-dasharray="8 8" stroke-linecap="round" stroke-linejoin="round" stroke-width="2" marker-end="url(#a)" d="M-4208.031-1058.74v-216.481h141.367"/><path stroke="#000" stroke-dasharray="8 8" stroke-linecap="round" stroke-linejoin="round" stroke-width="2" marker-end="url(#a)" d="M-3998.268-1116.85v45.21"/><path stroke="#000" stroke-dasharray="8 8" stroke-linecap="round" stroke-linejoin="round" stroke-width="2" marker-end="url(#a)" d="M-3913.228-1030.394h11l5.48.313h80.118v-209.578"/><path fill="#333" d="M-4327.087-838.346h56.693v170.079h-56.693z"/><text fill="#fff" transform="rotate(-90 -2495.736 1822.468)"><tspan x="34.527" y="16" font-family="Helvetica Neue" font-size="16" font-weight="bold">Front Envoy</tspan> <tspan x="16.623" y="35.464" font-family="Helvetica Neue" font-size="16" font-weight="bold">(Envoy Gateway)</tspan></text><path stroke="#000" stroke-dasharray="8 8" stroke-linecap="round" stroke-linejoin="round" stroke-width="2" marker-end="url(#a)" d="M-3665.507-1056.085v-47.865"/><path stroke="#75428c" stroke-dasharray="8 8" stroke-linecap="round" stroke-linejoin="round" stroke-width="2" marker-end="url(#b)" d="M-4270.394-753.307h418.44v62.008h287.243"/><path stroke="#75428c" stroke-dasharray="8 8" stroke-linecap="round" stroke-linejoin="round" stroke-width="2" marker-end="url(#b)" d="M-4270.394-753.307h419.151V-640h185.736v107.308"/><path stroke="#75428c" stroke-dasharray="8 8" stroke-linecap="round" stroke-linejoin="round" stroke-width="2" marker-end="url(#b)" d="M-4270.394-753.307h419.043v159.277h384.56v160.185"/><path fill="#333" d="M-4083.307-517.323h170.079v41.102h-170.079z"/><text fill="#fff" transform="translate(-4078.307 -506.504)"><tspan x="21.831" y="16" font-family="Helvetica Neue" font-size="16" font-weight="bold">OTEL Collector</tspan></text><path stroke="#75428c" stroke-dasharray="8 8" stroke-linecap="round" stroke-linejoin="round" stroke-width="2" marker-end="url(#b)" d="M-4270.394-753.307h11l93.918.33h167.208v222.754"/><path fill="#f2f2f2" d="M-3788.088-705.523h103.056v28.448h-103.056z"/><text fill="#000" transform="translate(-3783.088 -700.523)"><tspan x="0" y="15" font-family="Helvetica Neue" font-size="16">12800(HTTP)</tspan></text><path fill="#f2f2f2" d="M-3780.81-654.224h94.16v28.448h-94.16z"/><text fill="#000" transform="translate(-3775.81 -649.224)"><tspan x="0" y="15" font-family="Helvetica Neue" font-size="16">9411(HTTP)</tspan></text><path fill="#f2f2f2" d="M-4039.326-636.378h95.936v28.448h-95.936z"/><text fill="#000" transform="translate(-4034.326 -631.378)"><tspan x="0" y="15" font-family="Helvetica Neue" font-size="16">9091(gRPC)</tspan></text><path stroke="#f05a26" stroke-dasharray="8 8" stroke-linecap="round" stroke-linejoin="round" stroke-width="2" marker-end="url(#c)" d="M-4270.394-800.787h174.187"/><path fill="#f2f2f2" d="M-4229.782-815.011h95.936v28.448h-95.936z"/><text fill="#000" transform="translate(-4224.782 -810.011)"><tspan x="0" y="15" font-family="Helvetica Neue" font-size="16">9080(gRPC)</tspan></text><path stroke="#000" stroke-linecap="round" stroke-linejoin="round" stroke-width="2" marker-end="url(#a)" d="M-4270.394-819.6H-4118v-148h97.6v-21.547"/><path fill="#f2f2f2" d="M-4172.599-872.413h95.936v28.448h-95.936z"/><text fill="#000" transform="translate(-4167.599 -867.413)"><tspan x="0" y="15" font-family="Helvetica Neue" font-size="16">9080(gRPC)</tspan></text><path stroke="#000" stroke-dasharray="8 8" stroke-linecap="round" stroke-linejoin="round" stroke-width="2" marker-end="url(#a)" d="M-4298.74-838.346v-53.504h90.708v-97.297"/><path fill="#f2f2f2" d="M-4255.999-951.87h95.936v28.448h-95.936z"/><text fill="#000" transform="translate(-4251 -946.87)"><tspan x="0" y="15" font-family="Helvetica Neue" font-size="16">9080(gRPC)</tspan></text><path fill="#fff" d="M-3881.502-1226.724h129.744v28.448h-129.744z"/><text fill="#000" transform="translate(-3876.502 -1221.724)"><tspan x="0" y="15" font-family="Helvetica Neue" font-size="16">5432(TLS/mTLS)</tspan></text><path fill="#fff" d="M-4259.847-1247.268h103.632v46.896h-103.632z"/><text fill="#000" transform="translate(-4254.847 -1242.268)"><tspan x="1.896" y="15" font-family="Helvetica Neue" font-size="16">389 636/443</tspan> <tspan x="0" y="33.448" font-family="Helvetica Neue" font-size="16">(LDAP/OIDC)</tspan></text><path fill="#000" d="M-4600.63-809.594v37.921a5.416 5.416 0 0 0 5.417 5.418h37.922c2.979 0 5.417-2.438 5.417-5.418v-37.921c0-2.98-2.438-5.417-5.417-5.417h-37.922a5.416 5.416 0 0 0-5.417 5.417m32.504 10.835a8.115 8.115 0 0 1-8.126 8.125 8.115 8.115 0 0 1-8.126-8.125 8.115 8.115 0 0 1 8.126-8.126 8.115 8.115 0 0 1 8.126 8.126m-24.378 21.669c0-5.418 10.835-8.397 16.252-8.397s16.252 2.98 16.252 8.397v2.709h-32.504z"/><path stroke="#000" stroke-linecap="round" stroke-linejoin="round" stroke-width="2" marker-end="url(#a)" d="M-4551.874-790.634h211.887"/><path stroke="#000" stroke-linecap="round" stroke-linejoin="round" stroke-width="2" marker-end="url(#a)" d="M-4551.874-790.633h64.245v46.303h147.642"/><path fill="#fff" d="M-4445.511-814.082h68.944v46.896h-68.944z"/><text fill="#000" transform="translate(-4440.51 -809.082)"><tspan x="1.608" y="15" font-family="Helvetica Neue" font-size="16">UI:8443</tspan> <tspan x="0" y="33.448" font-family="Helvetica Neue" font-size="16">(HTTPS)</tspan></text><path fill="#fff" d="M-4446.815-767.778h74.624v46.896h-74.624z"/><text fill="#000" transform="translate(-4441.815 -762.778)"><tspan x="0" y="15" font-family="Helvetica Neue" font-size="16">CLI:8443</tspan> <tspan x="7.136" y="33.448" font-family="Helvetica Neue" font-size="16">(gRPC)</tspan></text><path stroke="#75428c" stroke-dasharray="8 8" stroke-linecap="round" stroke-linejoin="round" stroke-width="2" marker-end="url(#b)" d="M-3580.468-499.24h97.135v65.395"/><path stroke="#75428c" stroke-dasharray="8 8" stroke-linecap="round" stroke-linejoin="round" stroke-width="2" marker-end="url(#b)" d="M-3454.255-668.268v234.423"/><path fill="#f2f2f2" d="M-3519.055-491.54h104.528v28.448h-104.528z"/><text fill="#000" transform="translate(-3514.055 -486.54)"><tspan x="0" y="15" font-family="Helvetica Neue" font-size="16">9200(HTTPS)</tspan></text><path fill="#fff" d="M-4569.732-467.717h170.079v87.874h-170.079z"/><path stroke="gray" stroke-linecap="round" stroke-linejoin="round" d="M-4569.732-467.717h170.079v87.874h-170.079z"/><path fill="#fff" d="M-4585.181-485.433h170.079v87.874h-170.079z"/><path stroke="gray" stroke-linecap="round" stroke-linejoin="round" d="M-4585.181-485.433h170.079v87.874h-170.079z"/><path fill="#fff" d="M-4600.63-503.15h170.079v87.874h-170.079z"/><path stroke="gray" stroke-linecap="round" stroke-linejoin="round" d="M-4600.63-503.15h170.079v87.874h-170.079z"/><text fill="#000" transform="translate(-4595.63 -488.409)"><tspan x="31.151" y="16" font-family="Helvetica Neue" font-size="16" font-weight="bold">TSB Enabled </tspan> <tspan x="48.191" y="35.464" font-family="Helvetica Neue" font-size="16" font-weight="bold">Clusters</tspan> <tspan x="19.159" y="54.928" font-family="Helvetica Neue" font-size="16" font-weight="bold">(Control Planes)</tspan></text><path stroke="#f05a26" stroke-dasharray="8 8" stroke-linecap="round" stroke-linejoin="round" stroke-width="2" marker-end="url(#d)" d="M-4551.874-503.15v-202.406h211.887"/><path stroke="#75428c" stroke-dasharray="8 8" stroke-linecap="round" stroke-linejoin="round" stroke-width="2" marker-end="url(#b)" d="M-4445.51-503.15v-178.1h105.523"/><path fill="#fff" d="M-4624.578-664.53h145.408v46.896h-145.408z"/><text fill="#000" transform="translate(-4619.578 -659.53)"><tspan x="49.912" y="15" font-family="Helvetica Neue" font-size="16">9443</tspan> <tspan x="0" y="33.448" font-family="Helvetica Neue" font-size="16">(gRPC/mTLS/JWT)</tspan></text><path fill="#fff" d="M-4518.215-600.549h145.408v46.896h-145.408z"/><text fill="#000" transform="translate(-4513.215 -595.55)"><tspan x="49.912" y="15" font-family="Helvetica Neue" font-size="16">8443</tspan> <tspan x="0" y="33.448" font-family="Helvetica Neue" font-size="16">(gRPC/mTLS/JWT)</tspan></text><path fill="#f2f2f2" d="M-3722.219-1089.268h113.424v28.448h-113.424z"/><text fill="#000" transform="translate(-3717.219 -1084.268)"><tspan x="0" y="15" font-family="Helvetica Neue" font-size="16">10250(HTTPS)</tspan></text><path fill="#f2f2f2" d="M-3841.274-878.965h95.632v28.448h-95.632z"/><text fill="#000" transform="translate(-3836.274 -873.965)"><tspan x="0" y="15" font-family="Helvetica Neue" font-size="16">443(HTTPS)</tspan></text><path fill="#f2f2f2" d="M-3900.448-980.071h95.632v28.448h-95.632z"/><text fill="#000" transform="translate(-3895.448 -975.071)"><tspan x="0" y="15" font-family="Helvetica Neue" font-size="16">443(HTTPS)</tspan></text></g></svg>