<svg xmlns="http://www.w3.org/2000/svg" xmlns:xl="http://www.w3.org/1999/xlink" width="1225" height="767" viewBox="-27 -89 1225 767"><defs><linearGradient id="a" x1="0" x2="1" gradientUnits="userSpaceOnUse"><stop offset="0" stop-color="#0cb0d1"/><stop offset=".46" stop-color="#60bd8e"/><stop offset="1" stop-color="#9aca3e"/></linearGradient><linearGradient id="e" gradientTransform="rotate(-51.47 584.958 -178.423)scale(49.39986)" xl:href="#a"/><linearGradient id="f" gradientTransform="rotate(-51.47 388.907 -272.923)scale(49.39986)" xl:href="#a"/><linearGradient id="g" gradientTransform="rotate(-51.47 869.341 -882.956)scale(49.39986)" xl:href="#a"/><linearGradient id="h" gradientTransform="rotate(-51.47 1009.054 -838.142)scale(49.39986)" xl:href="#a"/><marker id="b" stroke-linejoin="miter" stroke-miterlimit="10" color="#2f6ab2" markerHeight="6" markerUnits="strokeWidth" markerWidth="7" orient="auto" overflow="visible" viewBox="-1 -3 7 6"><path fill="currentColor" stroke="currentColor" d="M4.8 0 0-1.8v3.6Z"/></marker><marker id="c" stroke-linejoin="miter" stroke-miterlimit="10" color="#000" markerHeight="6" markerUnits="strokeWidth" markerWidth="7" orient="auto" overflow="visible" viewBox="-1 -3 7 6"><path fill="currentColor" stroke="currentColor" d="M4.8 0 0-1.8v3.6Z"/></marker><marker id="d" stroke-linejoin="miter" stroke-miterlimit="10" color="#00fa00" markerHeight="6" markerUnits="strokeWidth" markerWidth="7" orient="auto" overflow="visible" viewBox="-1 -3 7 6"><path fill="currentColor" stroke="currentColor" d="M4.8 0 0-1.8v3.6Z"/></marker><marker id="i" stroke-linejoin="miter" stroke-miterlimit="10" color="#000" markerHeight="6" markerUnits="strokeWidth" markerWidth="7" orient="auto" overflow="visible" viewBox="-6 -3 7 6"><path fill="currentColor" stroke="currentColor" d="M-4.8 0 0 1.8v-3.6Z"/></marker></defs><g fill="none"><path fill="#fff" d="M-27-89h1225v767H-27z"/><path fill="#fff" d="M-27-89h1225v767H-27z"/><path fill="#fff" d="M649-32h503.75a8 8 0 0 1 8 8v629a8 8 0 0 1-8 8H649a8 8 0 0 1-8-8V-24a8 8 0 0 1 8-8"/><path stroke="#000" stroke-linecap="round" stroke-linejoin="round" d="M649-32h503.75a8 8 0 0 1 8 8v629a8 8 0 0 1-8 8H649a8 8 0 0 1-8-8V-24a8 8 0 0 1 8-8"/><text fill="#000" transform="translate(646 -27)"><tspan x="180.763" y="15" font-family="Helvetica Neue" font-size="16" xml:space="preserve">Mesh ID: multi-mesh</tspan> <tspan x="170.411" y="33.448" font-family="Helvetica Neue" font-size="16" xml:space="preserve">Cluster Name: cluster-2</tspan> <tspan x="174.243" y="51.896" font-family="Helvetica Neue" font-size="16" xml:space="preserve">Trust Domain: bar.com</tspan> <tspan x="177.251" y="70.344" font-family="Helvetica Neue" font-size="16" xml:space="preserve">Network: bar-network</tspan> <tspan x="58.155" y="88.792" font-family="Helvetica Neue" font-size="16" xml:space="preserve">FQDN: &lt;service-name&gt;.&lt;namespace&gt;.svc.cluster.local</tspan> <tspan x="17.699" y="107.24" font-family="Helvetica Neue" font-size="16" xml:space="preserve">SPIFFE ID: spiffe://bar.com/ns/&lt;namespace&gt;/svc/&lt;service-name&gt;</tspan></text><path fill="#fff" d="M822 123h294.75a8 8 0 0 1 8 8v228a8 8 0 0 1-8 8H822a8 8 0 0 1-8-8V131a8 8 0 0 1 8-8"/><path stroke="#000" stroke-linecap="round" stroke-linejoin="round" d="M822 123h294.75a8 8 0 0 1 8 8v228a8 8 0 0 1-8 8H822a8 8 0 0 1-8-8V131a8 8 0 0 1 8-8"/><text fill="#000" transform="translate(819 128)"><tspan x="0" y="16" font-family="Helvetica Neue" font-size="16" xml:space="preserve">Node</tspan></text><path fill="#fff" d="M12.125-32h487.25a8 8 0 0 1 8 8v629a8 8 0 0 1-8 8H12.125a8 8 0 0 1-8-8V-24a8 8 0 0 1 8-8"/><path stroke="#000" stroke-linecap="round" stroke-linejoin="round" d="M12.125-32h487.25a8 8 0 0 1 8 8v629a8 8 0 0 1-8 8H12.125a8 8 0 0 1-8-8V-24a8 8 0 0 1 8-8"/><text fill="#000" transform="translate(9.125 -27)"><tspan x="172.513" y="15" font-family="Helvetica Neue" font-size="16" xml:space="preserve">Mesh ID: multi-mesh</tspan> <tspan x="162.161" y="33.448" font-family="Helvetica Neue" font-size="16" xml:space="preserve">Cluster Name: cluster-1</tspan> <tspan x="165.409" y="51.896" font-family="Helvetica Neue" font-size="16" xml:space="preserve">Trust Domain: foo.com</tspan> <tspan x="168.713" y="70.344" font-family="Helvetica Neue" font-size="16" xml:space="preserve">Network: foo-network</tspan> <tspan x="49.905" y="88.792" font-family="Helvetica Neue" font-size="16" xml:space="preserve">FQDN: &lt;service-name&gt;.&lt;namespace&gt;.svc.cluster.local</tspan> <tspan x="8.865" y="107.24" font-family="Helvetica Neue" font-size="16" xml:space="preserve">SPIFFE ID: spiffe://foo.com/ns/&lt;namespace&gt;/svc/&lt;service-name&gt;</tspan></text><path fill="#fff" d="M47 123h409a8 8 0 0 1 8 8v163.5a8 8 0 0 1-8 8H47a8 8 0 0 1-8-8V131a8 8 0 0 1 8-8"/><path stroke="#000" stroke-linecap="round" stroke-linejoin="round" d="M47 123h409a8 8 0 0 1 8 8v163.5a8 8 0 0 1-8 8H47a8 8 0 0 1-8-8V131a8 8 0 0 1 8-8"/><text fill="#000" transform="translate(44 128)"><tspan x="0" y="16" font-family="Helvetica Neue" font-size="16" xml:space="preserve">Node</tspan></text><path fill="#f5f5f5" d="M839.625 152h259.5a8 8 0 0 1 8 8v107a8 8 0 0 1-8 8h-259.5a8 8 0 0 1-8-8V160a8 8 0 0 1 8-8"/><path stroke="#000" stroke-linecap="round" stroke-linejoin="round" d="M839.625 152h259.5a8 8 0 0 1 8 8v107a8 8 0 0 1-8 8h-259.5a8 8 0 0 1-8-8V160a8 8 0 0 1 8-8"/><text fill="#000" transform="translate(836.625 157)"><tspan x="117.638" y="16" font-family="Helvetica Neue" font-size="16" font-weight="bold" xml:space="preserve">Pod</tspan></text><path fill="#f5f5f5" d="M66 152h259.5a8 8 0 0 1 8 8v121a8 8 0 0 1-8 8H66a8 8 0 0 1-8-8V160a8 8 0 0 1 8-8"/><path stroke="#000" stroke-linecap="round" stroke-linejoin="round" d="M66 152h259.5a8 8 0 0 1 8 8v121a8 8 0 0 1-8 8H66a8 8 0 0 1-8-8V160a8 8 0 0 1 8-8"/><text fill="#000" transform="translate(63 157)"><tspan x="117.638" y="16" font-family="Helvetica Neue" font-size="16" font-weight="bold" xml:space="preserve">Pod</tspan></text><path fill="#333" d="M78.5 197h92a4 4 0 0 1 4 4v52a4 4 0 0 1-4 4h-92a4 4 0 0 1-4-4v-52a4 4 0 0 1 4-4"/><text fill="#fff" transform="translate(79.5 217.268)"><tspan x="17.576" y="16" font-family="Helvetica Neue" font-size="16" xml:space="preserve">Service</tspan></text><path fill="#333" d="M991.875 197h92a4 4 0 0 1 4 4v52a4 4 0 0 1-4 4h-92a4 4 0 0 1-4-4v-52a4 4 0 0 1 4-4"/><text fill="#fff" transform="translate(992.875 217.268)"><tspan x="17.576" y="16" font-family="Helvetica Neue" font-size="16" xml:space="preserve">Service</tspan></text><path stroke="#2f6ab2" stroke-dasharray="8 8" stroke-linecap="round" stroke-linejoin="round" stroke-width="2" marker-end="url(#b)" d="m305.02 424-30.768-154.349"/><path stroke="#2f6ab2" stroke-dasharray="8 8" stroke-linecap="round" stroke-linejoin="round" stroke-width="2" marker-end="url(#b)" d="M735.316 401.5c2.552-23.857 11.272-58.58 37.966-91.49 19.115-23.566 43.79-41.695 66.34-54.91"/><path stroke="#000" stroke-dasharray="8 8" stroke-linecap="round" stroke-linejoin="round" stroke-width="2" marker-end="url(#c)" d="M361 479.34c56.19 25.045 154.205 59.082 265.263 55.003 101.896-3.742 186.642-38.539 239.254-66.636"/><path stroke="#000" stroke-dasharray="8 8" stroke-linecap="round" stroke-linejoin="round" stroke-width="2" marker-end="url(#c)" d="M261 454h-44.6"/><path stroke="#000" stroke-dasharray="8 8" stroke-linecap="round" stroke-linejoin="round" stroke-width="2" marker-end="url(#c)" d="M785 431.5h52.975"/><path fill="#2f6ab2" d="M689 197h92a4 4 0 0 1 4 4v52a4 4 0 0 1-4 4h-92a4 4 0 0 1-4-4v-52a4 4 0 0 1 4-4"/><text fill="#fff" transform="translate(690 207.536)"><tspan x="8.096" y="16" font-family="Helvetica Neue" font-size="16" xml:space="preserve">East-west</tspan> <tspan x="12.544" y="35.464" font-family="Helvetica Neue" font-size="16" xml:space="preserve">Gateway</tspan></text><path stroke="#000" stroke-dasharray="8 8" stroke-linecap="round" stroke-linejoin="round" stroke-width="2" marker-end="url(#c)" d="M685 408.962c-26.87-6.672-65.18-9.99-116.391-.629-116.68 21.33-121.412 85.52-245.46 98.457-56.474 5.89-101.404-4.524-133.596-17.618"/><path fill="#fff" d="M62 424h137.5a4 4 0 0 1 4 4v52a4 4 0 0 1-4 4H62a4 4 0 0 1-4-4v-52a4 4 0 0 1 4-4"/><path stroke="#000" stroke-linecap="round" stroke-linejoin="round" d="M62 424h137.5a4 4 0 0 1 4 4v52a4 4 0 0 1-4 4H62a4 4 0 0 1-4-4v-52a4 4 0 0 1 4-4"/><text fill="#000" transform="translate(63 434.536)"><tspan x="50.156" y="16" font-family="Helvetica Neue" font-size="16" xml:space="preserve">Kubernetes</tspan> <tspan x="57.532" y="35.464" font-family="Helvetica Neue" font-size="16" xml:space="preserve">API Server</tspan></text><path fill="#326ce5" d="M82.742 434.237c-.365.021-.72.116-1.048.278l-14.188 6.767a2.69 2.69 0 0 0-1.464 1.823l-3.473 15.189a2.63 2.63 0 0 0 .382 2.071q.073.11.153.214l9.802 12.188a2.71 2.71 0 0 0 2.116.998h15.722a2.76 2.76 0 0 0 2.119-1.01l9.797-12.19a2.62 2.62 0 0 0 .51-2.274l-3.497-15.201a2.7 2.7 0 0 0-1.464-1.823l-14.165-6.751a2.7 2.7 0 0 0-1.315-.279Z"/><path fill="#fff" d="M82.872 439.413a.897.897 0 0 0-.834.942v.24q.035.406.117.805a8 8 0 0 1 .084 1.54.93.93 0 0 1-.278.44l-.019.36a11 11 0 0 0-1.531.236 10.9 10.9 0 0 0-5.543 3.163l-.306-.216a.66.66 0 0 1-.502-.051 8 8 0 0 1-1.142-1.031 7 7 0 0 0-.557-.592l-.188-.15a1 1 0 0 0-.59-.223.82.82 0 0 0-.675.3.9.9 0 0 0 .208 1.252l.176.14q.339.226.703.411c.45.25.876.545 1.27.891.101.144.16.313.17.489l.277.255a10.97 10.97 0 0 0-1.729 7.646l-.356.101a1.2 1.2 0 0 1-.364.367 8 8 0 0 1-1.52.25 7 7 0 0 0-.815.064l-.225.051h-.026a.853.853 0 0 0-.493 1.441c.228.23.565.31.871.21h.017l.229-.025a7 7 0 0 0 .761-.277 8 8 0 0 1 1.48-.433c.175.01.343.07.486.171l.382-.063a11.03 11.03 0 0 0 4.888 6.114l-.155.325a.85.85 0 0 1 .076.479c-.21.486-.467.952-.767 1.39a7 7 0 0 0-.456.678l-.108.23a.853.853 0 0 0 .827 1.274.85.85 0 0 0 .704-.55l.106-.217q.145-.382.244-.776c.226-.557.348-1.154.656-1.523a.7.7 0 0 1 .364-.178l.19-.348c2.518.968 5.303.975 7.825.02l.17.324a.66.66 0 0 1 .432.261q.36.685.58 1.426.102.397.248.778l.105.216a.853.853 0 0 0 1.511.167.85.85 0 0 0 .02-.892l-.11-.23a7 7 0 0 0-.456-.675 9 9 0 0 1-.763-1.346.66.66 0 0 1 .086-.51 3 3 0 0 1-.141-.342 11.04 11.04 0 0 0 4.867-6.136l.361.064c.13-.119.3-.181.475-.176.505.097 1 .255 1.48.433q.373.171.76.293c.062.016.15.03.22.047h.016a.853.853 0 0 0 1.07-1.084.85.85 0 0 0-.692-.567l-.247-.059a7 7 0 0 0-.815-.063 8 8 0 0 1-1.52-.251.96.96 0 0 1-.366-.367l-.344-.102a11 11 0 0 0-1.764-7.63l.3-.277a.67.67 0 0 1 .158-.48c.39-.337.815-.634 1.26-.887a7 7 0 0 0 .703-.411l.186-.15a.853.853 0 1 0-1.055-1.326l-.189.15a7 7 0 0 0-.556.593 8 8 0 0 1-1.112 1.047.94.94 0 0 1-.514.056l-.322.23a11.12 11.12 0 0 0-7.046-3.4c0-.127-.017-.318-.02-.378a.67.67 0 0 1-.277-.422 8 8 0 0 1 .097-1.537q.082-.4.117-.806v-.254a.896.896 0 0 0-.834-.942Zm-1.062 6.577-.255 4.447h-.019a.77.77 0 0 1-.422.641.72.72 0 0 1-.764-.069l-3.648-2.584a8.73 8.73 0 0 1 4.205-2.29q.448-.096.9-.145Zm2.123 0a8.8 8.8 0 0 1 5.08 2.45l-3.613 2.567a.748.748 0 0 1-1.215-.576Zm-8.555 4.108 3.336 2.976v.02a.749.749 0 0 1-.294 1.284v.013l-4.28 1.23a8.73 8.73 0 0 1 1.24-5.524Zm14.963 0a8.9 8.9 0 0 1 1.275 5.508l-4.286-1.234v-.017a.74.74 0 0 1-.531-.554.75.75 0 0 1 .237-.73l3.31-2.963Zm-8.153 3.208h1.365l.834 1.06-.303 1.323-1.226.59-1.229-.59-.289-1.324Zm4.372 3.613a1 1 0 0 1 .172 0l4.413.745a8.68 8.68 0 0 1-3.533 4.446l-1.705-4.13a.75.75 0 0 1 .648-1.042Zm-7.413.019a.75.75 0 0 1 .676 1.041v.017l-1.696 4.097a8.76 8.76 0 0 1-3.511-4.401l4.375-.743a.7.7 0 0 1 .148 0Zm3.697 1.782a.75.75 0 0 1 .683.392h.017l2.156 3.892-.861.255a8.8 8.8 0 0 1-4.785-.247l2.165-3.892a.75.75 0 0 1 .636-.375Z"/><path stroke="#fff" stroke-linejoin="round" stroke-width=".055" d="M82.872 439.413a.897.897 0 0 0-.834.942v.24q.035.406.117.805a8 8 0 0 1 .084 1.54.93.93 0 0 1-.278.44l-.019.36a11 11 0 0 0-1.531.236 10.9 10.9 0 0 0-5.543 3.163l-.306-.216a.66.66 0 0 1-.502-.051 8 8 0 0 1-1.142-1.031 7 7 0 0 0-.557-.592l-.188-.15a1 1 0 0 0-.59-.223.82.82 0 0 0-.675.3.9.9 0 0 0 .208 1.252l.176.14q.339.226.703.411c.45.25.876.545 1.27.891.101.144.16.313.17.489l.277.255a10.97 10.97 0 0 0-1.729 7.646l-.356.101a1.2 1.2 0 0 1-.364.367 8 8 0 0 1-1.52.25 7 7 0 0 0-.815.064l-.225.051h-.026a.853.853 0 0 0-.493 1.441c.228.23.565.31.871.21h.017l.229-.025a7 7 0 0 0 .761-.277 8 8 0 0 1 1.48-.433c.175.01.343.07.486.171l.382-.063a11.03 11.03 0 0 0 4.888 6.114l-.155.325a.85.85 0 0 1 .076.479c-.21.486-.467.952-.767 1.39a7 7 0 0 0-.456.678l-.108.23a.853.853 0 0 0 .827 1.274.85.85 0 0 0 .704-.55l.106-.217q.145-.382.244-.776c.226-.557.348-1.154.656-1.523a.7.7 0 0 1 .364-.178l.19-.348c2.518.968 5.303.975 7.825.02l.17.324a.66.66 0 0 1 .432.261q.36.685.58 1.426.102.397.248.778l.105.216a.853.853 0 0 0 1.511.167.85.85 0 0 0 .02-.892l-.11-.23a7 7 0 0 0-.456-.675 9 9 0 0 1-.763-1.346.66.66 0 0 1 .086-.51 3 3 0 0 1-.141-.342 11.04 11.04 0 0 0 4.867-6.136l.361.064c.13-.119.3-.181.475-.176.505.097 1 .255 1.48.433q.373.171.76.293c.062.016.15.03.22.047h.016a.853.853 0 0 0 1.07-1.084.85.85 0 0 0-.692-.567l-.247-.059a7 7 0 0 0-.815-.063 8 8 0 0 1-1.52-.251.96.96 0 0 1-.366-.367l-.344-.102a11 11 0 0 0-1.764-7.63l.3-.277a.67.67 0 0 1 .158-.48c.39-.337.815-.634 1.26-.887a7 7 0 0 0 .703-.411l.186-.15a.853.853 0 1 0-1.055-1.326l-.189.15a7 7 0 0 0-.556.593 8 8 0 0 1-1.112 1.047.94.94 0 0 1-.514.056l-.322.23a11.12 11.12 0 0 0-7.046-3.4c0-.127-.017-.318-.02-.378a.67.67 0 0 1-.277-.422 8 8 0 0 1 .097-1.537q.082-.4.117-.806v-.254a.896.896 0 0 0-.834-.942Zm-1.062 6.577-.255 4.447h-.019a.77.77 0 0 1-.422.641.72.72 0 0 1-.764-.069l-3.648-2.584a8.73 8.73 0 0 1 4.205-2.29q.448-.096.9-.145Zm2.123 0a8.8 8.8 0 0 1 5.08 2.45l-3.613 2.567a.748.748 0 0 1-1.215-.576Zm-8.555 4.108 3.336 2.976v.02a.749.749 0 0 1-.294 1.284v.013l-4.28 1.23a8.73 8.73 0 0 1 1.24-5.524Zm14.963 0a8.9 8.9 0 0 1 1.275 5.508l-4.286-1.234v-.017a.74.74 0 0 1-.531-.554.75.75 0 0 1 .237-.73l3.31-2.963Zm-8.153 3.208h1.365l.834 1.06-.303 1.323-1.226.59-1.229-.59-.289-1.324Zm4.372 3.613a1 1 0 0 1 .172 0l4.413.745a8.68 8.68 0 0 1-3.533 4.446l-1.705-4.13a.75.75 0 0 1 .648-1.042Zm-7.413.019a.75.75 0 0 1 .676 1.041v.017l-1.696 4.097a8.76 8.76 0 0 1-3.511-4.401l4.375-.743a.7.7 0 0 1 .148 0Zm3.697 1.782a.75.75 0 0 1 .683.392h.017l2.156 3.892-.861.255a8.8 8.8 0 0 1-4.785-.247l2.165-3.892a.75.75 0 0 1 .636-.375Z"/><path fill="#fff" d="M265 424h92a4 4 0 0 1 4 4v52a4 4 0 0 1-4 4h-92a4 4 0 0 1-4-4v-52a4 4 0 0 1 4-4"/><path stroke="#000" stroke-linecap="round" stroke-linejoin="round" d="M265 424h92a4 4 0 0 1 4 4v52a4 4 0 0 1-4 4h-92a4 4 0 0 1-4-4v-52a4 4 0 0 1 4-4"/><text fill="#000" transform="translate(266 444.268)"><tspan x="48.8" y="16" font-family="Helvetica Neue" font-size="16" xml:space="preserve">Istiod</tspan></text><path fill="#466bb0" d="M273.5 468.826h26.354l-16.467 4.94Zm0-1.65 9.887-1.648v-18.116Zm11.528-1.648 14.826 1.649-14.826-32.942Z"/><path fill="#fff" d="M854.875 401.5h137.5a4 4 0 0 1 4 4v52a4 4 0 0 1-4 4h-137.5a4 4 0 0 1-4-4v-52a4 4 0 0 1 4-4"/><path stroke="#000" stroke-linecap="round" stroke-linejoin="round" d="M854.875 401.5h137.5a4 4 0 0 1 4 4v52a4 4 0 0 1-4 4h-137.5a4 4 0 0 1-4-4v-52a4 4 0 0 1 4-4"/><text fill="#000" transform="translate(855.875 412.036)"><tspan x="50.156" y="16" font-family="Helvetica Neue" font-size="16" xml:space="preserve">Kubernetes</tspan> <tspan x="57.532" y="35.464" font-family="Helvetica Neue" font-size="16" xml:space="preserve">API Server</tspan></text><path fill="#326ce5" d="M875.617 411.737a2.7 2.7 0 0 0-1.048.278l-14.188 6.767a2.69 2.69 0 0 0-1.464 1.823l-3.473 15.189a2.62 2.62 0 0 0 .382 2.071q.073.11.153.214l9.802 12.188a2.71 2.71 0 0 0 2.116.998h15.722a2.76 2.76 0 0 0 2.118-1.01l9.798-12.19a2.62 2.62 0 0 0 .51-2.274l-3.497-15.201a2.7 2.7 0 0 0-1.464-1.823l-14.165-6.751a2.7 2.7 0 0 0-1.315-.279Z"/><path fill="#fff" d="M875.747 416.913a.897.897 0 0 0-.834.942v.24q.035.406.117.805c.078.51.106 1.026.084 1.54a.93.93 0 0 1-.278.44l-.019.36q-.774.063-1.531.236a10.9 10.9 0 0 0-5.543 3.163l-.306-.216a.66.66 0 0 1-.502-.051 8 8 0 0 1-1.142-1.031 7 7 0 0 0-.557-.592l-.188-.15a1 1 0 0 0-.59-.223.82.82 0 0 0-.675.3.9.9 0 0 0 .208 1.252l.176.14q.339.226.703.411.677.374 1.27.891c.101.144.16.313.17.489l.277.255a10.97 10.97 0 0 0-1.729 7.646l-.356.101a1.2 1.2 0 0 1-.364.367 8 8 0 0 1-1.52.25 7 7 0 0 0-.815.064l-.225.051h-.026a.853.853 0 0 0-.493 1.441c.228.23.565.31.871.21h.017l.229-.025q.388-.115.761-.277a8 8 0 0 1 1.48-.433c.175.01.343.07.486.171l.382-.063a11.03 11.03 0 0 0 4.888 6.114l-.155.325a.85.85 0 0 1 .076.479 8 8 0 0 1-.767 1.39 7 7 0 0 0-.456.678l-.108.23a.853.853 0 0 0 .827 1.274.85.85 0 0 0 .704-.55l.106-.217q.145-.382.244-.776c.226-.557.348-1.154.656-1.523a.7.7 0 0 1 .364-.178l.19-.348c2.518.968 5.303.975 7.825.02l.17.324a.66.66 0 0 1 .432.261q.36.685.58 1.426.101.397.248.778l.105.216a.853.853 0 0 0 1.511.167.85.85 0 0 0 .02-.892l-.11-.23a7 7 0 0 0-.456-.675 9 9 0 0 1-.764-1.346.66.66 0 0 1 .087-.51 3 3 0 0 1-.141-.342 11.04 11.04 0 0 0 4.867-6.136l.361.064c.13-.119.3-.181.475-.176.505.097 1 .255 1.48.433q.373.171.76.293c.062.016.15.03.22.047h.016a.853.853 0 0 0 1.07-1.084.85.85 0 0 0-.692-.567l-.247-.059a7 7 0 0 0-.815-.063 8 8 0 0 1-1.52-.251.96.96 0 0 1-.366-.367l-.344-.102a11 11 0 0 0-1.764-7.63l.3-.277a.67.67 0 0 1 .158-.48c.39-.337.815-.634 1.26-.887q.363-.185.703-.411l.186-.15a.853.853 0 1 0-1.056-1.326l-.188.15a7 7 0 0 0-.556.593 8 8 0 0 1-1.112 1.047.94.94 0 0 1-.514.056l-.322.23a11.12 11.12 0 0 0-7.046-3.4c0-.127-.017-.318-.02-.378a.67.67 0 0 1-.277-.422 8 8 0 0 1 .097-1.537q.082-.4.117-.806v-.254a.897.897 0 0 0-.834-.942Zm-1.062 6.577-.255 4.447h-.019a.77.77 0 0 1-.422.641.72.72 0 0 1-.764-.069l-3.648-2.584a8.73 8.73 0 0 1 4.205-2.29q.448-.096.9-.145Zm2.123 0a8.8 8.8 0 0 1 5.08 2.45l-3.613 2.567a.748.748 0 0 1-1.215-.576Zm-8.554 4.108 3.335 2.976v.02a.749.749 0 0 1-.294 1.284v.013l-4.28 1.23a8.73 8.73 0 0 1 1.24-5.524Zm14.962 0a8.9 8.9 0 0 1 1.275 5.508l-4.286-1.234v-.017a.74.74 0 0 1-.531-.554.75.75 0 0 1 .237-.73l3.31-2.963Zm-8.153 3.208h1.365l.834 1.06-.303 1.323-1.226.59-1.229-.59-.289-1.324Zm4.372 3.613a1 1 0 0 1 .172 0l4.413.745a8.68 8.68 0 0 1-3.533 4.446l-1.705-4.13a.75.75 0 0 1 .648-1.042Zm-7.413.019a.75.75 0 0 1 .676 1.041v.017l-1.696 4.097a8.76 8.76 0 0 1-3.511-4.401l4.375-.743a.7.7 0 0 1 .148 0Zm3.697 1.782a.75.75 0 0 1 .683.392h.017l2.156 3.892-.862.255a8.8 8.8 0 0 1-4.784-.247l2.165-3.892a.75.75 0 0 1 .636-.375Z"/><path stroke="#fff" stroke-linejoin="round" stroke-width=".055" d="M875.747 416.913a.897.897 0 0 0-.834.942v.24q.035.406.117.805c.078.51.106 1.026.084 1.54a.93.93 0 0 1-.278.44l-.019.36q-.774.063-1.531.236a10.9 10.9 0 0 0-5.543 3.163l-.306-.216a.66.66 0 0 1-.502-.051 8 8 0 0 1-1.142-1.031 7 7 0 0 0-.557-.592l-.188-.15a1 1 0 0 0-.59-.223.82.82 0 0 0-.675.3.9.9 0 0 0 .208 1.252l.176.14q.339.226.703.411.677.374 1.27.891c.101.144.16.313.17.489l.277.255a10.97 10.97 0 0 0-1.729 7.646l-.356.101a1.2 1.2 0 0 1-.364.367 8 8 0 0 1-1.52.25 7 7 0 0 0-.815.064l-.225.051h-.026a.853.853 0 0 0-.493 1.441c.228.23.565.31.871.21h.017l.229-.025q.388-.115.761-.277a8 8 0 0 1 1.48-.433c.175.01.343.07.486.171l.382-.063a11.03 11.03 0 0 0 4.888 6.114l-.155.325a.85.85 0 0 1 .076.479 8 8 0 0 1-.767 1.39 7 7 0 0 0-.456.678l-.108.23a.853.853 0 0 0 .827 1.274.85.85 0 0 0 .704-.55l.106-.217q.145-.382.244-.776c.226-.557.348-1.154.656-1.523a.7.7 0 0 1 .364-.178l.19-.348c2.518.968 5.303.975 7.825.02l.17.324a.66.66 0 0 1 .432.261q.36.685.58 1.426.101.397.248.778l.105.216a.853.853 0 0 0 1.511.167.85.85 0 0 0 .02-.892l-.11-.23a7 7 0 0 0-.456-.675 9 9 0 0 1-.764-1.346.66.66 0 0 1 .087-.51 3 3 0 0 1-.141-.342 11.04 11.04 0 0 0 4.867-6.136l.361.064c.13-.119.3-.181.475-.176.505.097 1 .255 1.48.433q.373.171.76.293c.062.016.15.03.22.047h.016a.853.853 0 0 0 1.07-1.084.85.85 0 0 0-.692-.567l-.247-.059a7 7 0 0 0-.815-.063 8 8 0 0 1-1.52-.251.96.96 0 0 1-.366-.367l-.344-.102a11 11 0 0 0-1.764-7.63l.3-.277a.67.67 0 0 1 .158-.48c.39-.337.815-.634 1.26-.887q.363-.185.703-.411l.186-.15a.853.853 0 1 0-1.056-1.326l-.188.15a7 7 0 0 0-.556.593 8 8 0 0 1-1.112 1.047.94.94 0 0 1-.514.056l-.322.23a11.12 11.12 0 0 0-7.046-3.4c0-.127-.017-.318-.02-.378a.67.67 0 0 1-.277-.422 8 8 0 0 1 .097-1.537q.082-.4.117-.806v-.254a.897.897 0 0 0-.834-.942Zm-1.062 6.577-.255 4.447h-.019a.77.77 0 0 1-.422.641.72.72 0 0 1-.764-.069l-3.648-2.584a8.73 8.73 0 0 1 4.205-2.29q.448-.096.9-.145Zm2.123 0a8.8 8.8 0 0 1 5.08 2.45l-3.613 2.567a.748.748 0 0 1-1.215-.576Zm-8.554 4.108 3.335 2.976v.02a.749.749 0 0 1-.294 1.284v.013l-4.28 1.23a8.73 8.73 0 0 1 1.24-5.524Zm14.962 0a8.9 8.9 0 0 1 1.275 5.508l-4.286-1.234v-.017a.74.74 0 0 1-.531-.554.75.75 0 0 1 .237-.73l3.31-2.963Zm-8.153 3.208h1.365l.834 1.06-.303 1.323-1.226.59-1.229-.59-.289-1.324Zm4.372 3.613a1 1 0 0 1 .172 0l4.413.745a8.68 8.68 0 0 1-3.533 4.446l-1.705-4.13a.75.75 0 0 1 .648-1.042Zm-7.413.019a.75.75 0 0 1 .676 1.041v.017l-1.696 4.097a8.76 8.76 0 0 1-3.511-4.401l4.375-.743a.7.7 0 0 1 .148 0Zm3.697 1.782a.75.75 0 0 1 .683.392h.017l2.156 3.892-.862.255a8.8 8.8 0 0 1-4.784-.247l2.165-3.892a.75.75 0 0 1 .636-.375Z"/><path fill="#fff" d="M689 401.5h92a4 4 0 0 1 4 4v52a4 4 0 0 1-4 4h-92a4 4 0 0 1-4-4v-52a4 4 0 0 1 4-4"/><path stroke="#000" stroke-linecap="round" stroke-linejoin="round" d="M689 401.5h92a4 4 0 0 1 4 4v52a4 4 0 0 1-4 4h-92a4 4 0 0 1-4-4v-52a4 4 0 0 1 4-4"/><text fill="#000" transform="translate(690 421.768)"><tspan x="48.8" y="16" font-family="Helvetica Neue" font-size="16" xml:space="preserve">Istiod</tspan></text><path fill="#466bb0" d="M697.5 446.326h26.354l-16.467 4.94Zm0-1.65 9.887-1.648v-18.116Zm11.528-1.648 14.826 1.649-14.826-32.942Z"/><path stroke="#2f6ab2" stroke-dasharray="8 8" stroke-linecap="round" stroke-linejoin="round" stroke-width="2" marker-end="url(#b)" d="M735 401.5V269.9"/><path fill="#ffc0ff" d="M62 341h103.801a4 4 0 0 1 4 4v52a4 4 0 0 1-4 4H62a4 4 0 0 1-4-4v-52a4 4 0 0 1 4-4"/><path stroke="#000" stroke-linecap="round" stroke-linejoin="round" d="M62 341h103.801a4 4 0 0 1 4 4v52a4 4 0 0 1-4 4H62a4 4 0 0 1-4-4v-52a4 4 0 0 1 4-4"/><text fill="#000" transform="translate(63 361.268)"><tspan x="8.077" y="16" font-family="Helvetica Neue" font-size="16" xml:space="preserve">DNS Server</tspan></text><path stroke="#000" stroke-dasharray="8 8" stroke-linecap="round" stroke-linejoin="round" stroke-width="2" marker-end="url(#c)" d="M263.282 257c-2.368 9.416-6.549 20.405-13.797 32-20.964 33.532-19.32 33.13-57.732 56.36a170 170 0 0 1-10.272 5.732"/><path fill="#fff" d="M169.086 310.01h109.248v28.448H169.086z"/><text fill="#000" transform="translate(174.086 315.01)"><tspan x="0" y="15" font-family="Helvetica Neue" font-size="16" font-style="italic" xml:space="preserve">DNS Proxying</tspan></text><path stroke="#00fa00" stroke-linecap="round" stroke-linejoin="round" stroke-width="2" marker-end="url(#d)" d="M315.455 199.489c8.572-3.926 17.69-7.646 26.87-10.66q1.134-.37 2.249-.722"/><path stroke="#00fa00" stroke-linecap="round" stroke-linejoin="round" stroke-width="2" marker-end="url(#d)" d="m402.794 212-.084 31.522.11 84.578"/><path fill="#fff" d="M62 534.244h137.5a4 4 0 0 1 4 4v52a4 4 0 0 1-4 4H62a4 4 0 0 1-4-4v-52a4 4 0 0 1 4-4"/><path stroke="#000" stroke-linecap="round" stroke-linejoin="round" d="M62 534.244h137.5a4 4 0 0 1 4 4v52a4 4 0 0 1-4 4H62a4 4 0 0 1-4-4v-52a4 4 0 0 1 4-4"/><text fill="#000" transform="translate(63 544.78)"><tspan x="104.092" y="16" font-family="Helvetica Neue" font-size="16" xml:space="preserve">Cert</tspan> <tspan x="70.284" y="35.464" font-family="Helvetica Neue" font-size="16" xml:space="preserve">Manager</tspan></text><path fill="#326ce5" d="M118.191 564.244c0 2.536-1.553 4.796-2.295 7.081-.77 2.372-.868 5.107-2.304 7.082-1.451 1.994-4.032 2.926-6.026 4.377-1.974 1.437-3.65 3.611-6.022 4.382-2.288.743-4.913-.007-7.448-.007s-5.16.75-7.448.007c-2.372-.77-4.048-2.945-6.023-4.382-1.994-1.451-4.574-2.383-6.025-4.377-1.437-1.974-1.535-4.71-2.305-7.082-.743-2.288-2.295-4.547-2.295-7.081s1.553-4.796 2.295-7.081c.77-2.372.868-5.107 2.305-7.082 1.45-1.993 4.031-2.926 6.025-4.376 1.975-1.437 3.651-3.613 6.023-4.382 2.287-.743 4.912.006 7.448.006 2.535 0 5.16-.75 7.447-.006 2.372.77 4.049 2.945 6.023 4.382 1.994 1.45 4.575 2.383 6.026 4.376 1.436 1.975 1.535 4.71 2.304 7.082.742 2.285 2.295 4.545 2.295 7.081"/><path fill="#fff" d="M94.094 543.776c-11.304 0-20.467 9.164-20.467 20.468s9.163 20.468 20.467 20.468 20.468-9.161 20.468-20.468-9.164-20.468-20.468-20.468m-.005 39.155c-10.323 0-18.68-8.36-18.682-18.684 0-10.334 8.379-18.706 18.709-18.687 10.33.02 18.674 8.38 18.665 18.702-.009 10.321-8.369 18.672-18.692 18.669"/><path fill="#fff" d="M84.652 573.518c-.065-.226-.377-.451-.618-.421-.344.044-.686.101-1.1.163.153-.404.281-.748.412-1.092.114-.3-.13-.444-.284-.604s-.274.042-.378.125c-.555.44-1.094.901-1.654 1.334-.266.205-.066.324.042.472.107.148.217.313.436.12.254-.222.521-.429.787-.645.01.025.02.037.017.045-.053.152-.11.303-.16.456-.108.322.099.558.438.505.14-.023.284-.066.452.006-.273.224-.51.434-.762.62-.208.154-.109.28.017.394.125.115.177.414.445.197q.904-.73 1.803-1.463c.062-.05.14-.098.107-.212M95.612 551.462c.429.177.599.095.687-.348q.028-.144.061-.287c.02-.078 0-.208.119-.192.119.017.27-.007.314.17s.097.333.146.5c.136.459.23.53.697.555.176.009.215-.051.169-.208-.074-.25-.137-.503-.215-.751-.036-.114-.066-.18.09-.245.379-.16.48-.504.508-.857 0-.437-.263-.756-.753-.887-.399-.107-.808-.173-1.212-.263-.15-.033-.226.029-.254.173q-.234 1.182-.465 2.37c-.02.106-.035.21.108.27m1.15-2.033c.331-.034.65.158.647.354s-.118.291-.34.297c-.137-.115-.455.072-.501-.221-.02-.124-.066-.4.194-.428ZM91.295 577.112c-.187-.06-.377-.137-.442.172-.072.34-.18.672-.293 1.082-.173-.513-.333-.952-.466-1.4-.087-.292-.338-.289-.549-.327-.233-.038-.19.197-.227.328-.197.68-.366 1.368-.577 2.043-.104.333.142.303.306.36.174.06.359.131.425-.158.08-.345.185-.685.292-1.07.043.1.074.158.094.218.131.394.268.782.393 1.176.09.292.352.274.562.303.209.029.165-.197.2-.316.197-.68.363-1.37.577-2.043.098-.327-.128-.313-.295-.368M107.087 572.965c-.215-.03-.427-.094-.642-.115-.178-.016-.223-.078-.228-.262-.015-.459-.43-.835-.882-.84-.31-.009-.547.146-.737.364-.237.271-.44.57-.678.84-.161.185-.14.3.051.444.575.434 1.145.875 1.701 1.331.197.157.296.141.44-.056.263-.358.274-.35-.08-.623-.077-.06-.158-.117-.23-.184-.054-.052-.189-.073-.113-.191.062-.095.115-.22.273-.188s.328.037.48.093c.353.13.572-.006.763-.298.127-.19.133-.28-.118-.315m-1.967.356c-.049.004-.402-.299-.398-.343.008-.115.411-.501.524-.501.152.03.262.105.275.272.007.101-.326.566-.4.572M90.787 551.526c.023.132.066.236.229.21.59-.101 1.184-.19 1.77-.312.31-.065.097-.299.1-.459.003-.171-.09-.223-.258-.19-.32.062-.646.105-.966.168-.167.033-.21-.043-.227-.185-.013-.127-.032-.225.151-.245.271-.03.536-.106.807-.135.293-.031.24-.215.208-.402-.032-.186-.071-.339-.328-.268-.24.066-.496.076-.738.137-.171.043-.254.033-.29-.166-.038-.215.081-.233.233-.256.27-.04.538-.092.807-.131.173-.026.305-.074.236-.291-.056-.175.023-.45-.337-.375q-.768.162-1.546.262c-.248.031-.282.142-.245.348q.2 1.149.394 2.29M99.535 577.422a6 6 0 0 1-.585.201c-.164.053-.283.12-.185.328.078.161.057.43.369.305.057-.023.118-.077.174-.007s.019.152-.009.217c-.08.189-.248.27-.436.302-.188.033-.344-.057-.437-.221a2.2 2.2 0 0 1-.263-.734c-.06-.383.303-.717.65-.55.286.138.501.028.744-.043.166-.049.166-.148.07-.268-.221-.28-.524-.368-.868-.383a1.5 1.5 0 0 0-.983.368c-.328.293-.459.666-.328 1.091.166.557.262 1.18.955 1.364.53.14.999-.025 1.377-.401.408-.41.31-.886.13-1.372-.077-.207-.153-.295-.375-.197M103.602 576.183c-.24.188-.501.348-.742.536-.131.102-.197.07-.281-.053s-.111-.197.03-.29c.218-.143.427-.3.64-.452.07-.05.153-.09.145-.212a.9.9 0 0 0-.274-.38c-.122-.086-.217.045-.312.111-.196.136-.402.262-.586.416-.153.127-.197.01-.272-.08-.09-.105-.092-.17.035-.253.246-.161.473-.35.721-.506.203-.127.16-.25.04-.397-.105-.131-.17-.328-.403-.151-.427.319-.866.622-1.304.93-.137.095-.143.191-.047.327q.677.942 1.347 1.89c.081.114.16.16.295.062q.672-.492 1.356-.967c.215-.15.085-.273-.007-.407-.092-.135-.179-.283-.381-.124M86.665 575.12c-.091-.066-.188-.036-.271.029q-.995.773-1.989 1.55c-.087.065-.152.162-.026.232.232.13.445.459.753.112a.104.104 0 0 1 .143-.03l.741.48c.066.045.044.114.036.179-.034.281.16.598.44.613.293.015.155-.294.247-.439q.016-.03.022-.062l.525-2.153c-.074-.284-.398-.343-.62-.512m-.42 1.751c-.511-.3-.511-.3-.096-.633l.294-.225a3.7 3.7 0 0 1-.197.858M85.819 553.018c.328.455.831.59 1.365.394.555-.201.984-.743.961-1.238a1.4 1.4 0 0 0-.081-.347.14.14 0 0 0-.14-.113c-.19 0-.54.34-.542.544-.003.275-.179.413-.399.5-.207.083-.393 0-.516-.172a5 5 0 0 1-.39-.64c-.09-.187-.074-.393.097-.539s.383-.245.626-.112c.171.094.63-.066.728-.231.066-.107-.018-.166-.071-.225a.91.91 0 0 0-.708-.307c-.878.003-1.561.678-1.469 1.417.052.415.31.743.539 1.07M95.134 577.92c-.222-.579-.375-.656-.97-.525a.25.25 0 0 0-.214.172q-.374 1.197-.745 2.396c-.021.07-.053.153.031.208.179.118.65-.047.73-.255.033-.087.034-.192.177-.19q.394.007.787-.012.141-.008.167.115c.051.263.208.34.425.284.444-.011.446-.013.3-.394q-.342-.901-.688-1.8m-.692 1.184c-.197 0-.226-.055-.167-.222.072-.204.131-.413.215-.68.087.224.151.384.212.546.136.365.133.352-.26.356M100.896 553.368c.154.083.3.307.477.011.234-.393.488-.773.732-1.159.293-.464.301-.478.773-.18.252.158.318-.013.423-.166.113-.164.158-.29-.065-.42a33 33 0 0 1-1.544-.979c-.215-.143-.321-.105-.46.108-.153.234-.121.359.116.484.138.073.292.14.387.276-.049.079-.088.144-.131.208-.297.47-.586.944-.893 1.407-.165.254.025.322.185.41M101.516 567.644l-.504-2.06a.21.21 0 0 0-.35-.102l-1.62 1.551a.2.2 0 0 0 .083.337q.09.027.18.046c.13.028.117.072.056.165a4.3 4.3 0 0 1-1.311 1.284l-.013.007c-.452.215-.93.37-1.423.46q-.766.146-1.543.178a.12.12 0 0 1-.124-.123v-7.237a.07.07 0 0 1 .07-.071c.066 0 .146.013.338.011.378-.004.771-.004 1.15-.026.123-.007.192-.003.271.056a.81.81 0 0 0 1.096-.085.82.82 0 0 0 .007-1.099.806.806 0 0 0-1.092-.104.27.27 0 0 1-.166.071q-.792-.003-1.583 0a.12.12 0 0 1-.091-.024v-.827q0-.044.027-.078a.4.4 0 0 1 .131-.092c.853-.433 1.295-1.144 1.295-2.09 0-1.497-1.46-2.586-2.904-2.194-1.145.311-1.888 1.448-1.672 2.608.158.852.66 1.449 1.476 1.765q.046.017.087.043c.03.023.047.059.046.097v.676a.117.117 0 0 1-.118.117 92 92 0 0 0-1.704 0 .36.36 0 0 1-.217-.073.803.803 0 0 0-1.09.111.811.811 0 0 0 1.097 1.185.33.33 0 0 1 .216-.071c.55 0 1.101.008 1.651 0a.2.2 0 0 1 .142.03.07.07 0 0 1 .02.05v7.2a.12.12 0 0 1-.13.12 12.6 12.6 0 0 1-1.982-.327 6 6 0 0 1-1.177-.418 4.4 4.4 0 0 1-1.282-1.402.09.09 0 0 1 .066-.141l.174-.036a.202.202 0 0 0 .105-.333l-1.526-1.662a.197.197 0 0 0-.336.075l-.668 2.119a.22.22 0 0 0 .258.28l.118-.026a.336.336 0 0 1 .373.173c.878 1.705 2.197 2.938 3.942 3.717.682.305.952.394 1.541.484a.12.12 0 0 1 .066.033l.896.889a.32.32 0 0 0 .45 0l.87-.853a.12.12 0 0 1 .073-.034c.872-.082 1.261-.298 2.2-.727 1.452-.664 2.605-1.82 3.347-3.234.066-.126.124-.14.235-.103q.064.022.131.04a.27.27 0 0 0 .342-.326M94.035 559a1.16 1.16 0 0 1-1.12-1.212c.031-.686.602-1.192 1.246-1.143.677.053 1.144.598 1.11 1.226-.036.683-.596 1.177-1.236 1.13"/><path stroke="#00fa00" stroke-linecap="round" stroke-linejoin="round" stroke-width="2" marker-end="url(#d)" d="m262.561 483.17-29.213 17.593-43.142 26.694"/><path fill="#fff" d="M854.875 512h137.5a4 4 0 0 1 4 4v52a4 4 0 0 1-4 4h-137.5a4 4 0 0 1-4-4v-52a4 4 0 0 1 4-4"/><path stroke="#000" stroke-linecap="round" stroke-linejoin="round" d="M854.875 512h137.5a4 4 0 0 1 4 4v52a4 4 0 0 1-4 4h-137.5a4 4 0 0 1-4-4v-52a4 4 0 0 1 4-4"/><text fill="#000" transform="translate(855.875 522.536)"><tspan x="104.092" y="16" font-family="Helvetica Neue" font-size="16" xml:space="preserve">Cert</tspan> <tspan x="70.284" y="35.464" font-family="Helvetica Neue" font-size="16" xml:space="preserve">Manager</tspan></text><path fill="#326ce5" d="M911.066 542c0 2.536-1.553 4.795-2.295 7.081-.77 2.372-.868 5.107-2.304 7.081-1.451 1.994-4.032 2.927-6.026 4.378-1.974 1.436-3.65 3.611-6.022 4.382-2.288.743-4.913-.008-7.448-.008s-5.16.75-7.448.008c-2.372-.77-4.048-2.946-6.023-4.382-1.994-1.451-4.574-2.384-6.025-4.378-1.437-1.973-1.535-4.709-2.305-7.08-.743-2.29-2.295-4.549-2.295-7.082 0-2.534 1.553-4.796 2.295-7.082.77-2.371.868-5.107 2.305-7.08 1.45-1.994 4.031-2.927 6.025-4.378 1.975-1.436 3.651-3.612 6.023-4.382 2.287-.742 4.912.007 7.448.007 2.535 0 5.16-.75 7.447-.007 2.372.77 4.049 2.946 6.023 4.382 1.994 1.45 4.575 2.384 6.026 4.377 1.436 1.974 1.534 4.71 2.304 7.081.742 2.286 2.295 4.546 2.295 7.082"/><path fill="#fff" d="M886.97 521.532c-11.305 0-20.468 9.164-20.468 20.468s9.163 20.467 20.467 20.467 20.468-9.16 20.468-20.467-9.164-20.468-20.468-20.468m-.006 39.155c-10.323 0-18.68-8.36-18.682-18.684 0-10.334 8.379-18.707 18.709-18.687s18.674 8.38 18.665 18.701-8.369 18.673-18.692 18.67"/><path fill="#fff" d="M877.528 551.274c-.066-.226-.378-.451-.62-.421-.343.044-.685.1-1.098.162.152-.403.28-.747.411-1.091.114-.3-.13-.444-.284-.604s-.274.042-.378.124c-.555.44-1.093.902-1.654 1.335-.266.205-.066.324.042.472.107.147.217.313.437.12.253-.223.52-.43.786-.645.01.025.02.037.017.045-.053.152-.11.303-.16.456-.108.322.099.558.438.504.14-.022.284-.065.452.007-.273.223-.51.433-.762.62-.208.154-.109.279.017.394.125.114.177.413.445.196q.904-.729 1.803-1.462c.062-.051.14-.098.108-.212M888.487 529.217c.429.177.599.096.687-.347q.028-.145.061-.287c.02-.078 0-.208.119-.192.119.017.27-.008.314.17.043.176.097.333.146.5.136.459.23.53.697.554.176.01.215-.05.169-.207-.074-.25-.137-.503-.215-.751-.036-.114-.066-.18.09-.246.379-.16.48-.503.508-.857 0-.436-.263-.756-.753-.887-.399-.106-.808-.172-1.212-.262-.15-.033-.226.028-.254.173q-.234 1.18-.465 2.37c-.02.106-.035.21.108.27m1.15-2.032c.331-.034.65.158.647.354s-.118.29-.34.297c-.137-.116-.455.072-.501-.221-.02-.124-.066-.4.194-.428ZM884.17 554.868c-.187-.06-.377-.138-.442.172-.072.34-.18.672-.293 1.082-.173-.513-.333-.952-.466-1.4-.087-.292-.338-.29-.549-.327-.233-.038-.19.196-.227.328-.197.679-.366 1.367-.577 2.043-.104.333.142.303.306.36.174.06.358.13.425-.158.08-.345.185-.685.292-1.071.043.1.074.159.094.219.131.393.268.782.393 1.176.09.291.352.274.562.302.209.03.166-.196.2-.315.197-.68.363-1.37.577-2.044.098-.326-.128-.312-.296-.367M899.962 550.721c-.215-.03-.427-.094-.642-.115-.178-.016-.223-.078-.229-.262-.014-.459-.429-.835-.88-.84-.31-.01-.548.146-.738.364-.237.27-.44.57-.678.84-.161.185-.14.299.052.444.574.434 1.144.875 1.7 1.33.197.158.296.142.44-.056.263-.357.274-.348-.08-.623-.077-.06-.158-.116-.23-.184-.054-.052-.189-.073-.113-.19.062-.096.115-.22.273-.188s.328.037.48.092c.353.132.572-.006.763-.297.127-.19.133-.28-.118-.315m-1.967.356c-.049.004-.402-.299-.398-.343.008-.115.411-.502.524-.502.152.03.262.106.275.273.007.101-.326.565-.4.572M883.662 529.282c.023.131.066.236.229.21.59-.102 1.184-.19 1.77-.312.31-.066.097-.3.1-.46.003-.17-.09-.222-.258-.19-.32.063-.646.106-.966.17-.167.032-.21-.044-.226-.186-.014-.127-.033-.225.15-.245.271-.03.536-.106.807-.135.293-.031.24-.216.208-.402s-.071-.339-.328-.268c-.24.066-.496.076-.739.137-.17.043-.253.033-.289-.167-.038-.215.081-.232.233-.255.27-.04.538-.092.807-.131.173-.027.305-.075.236-.292-.056-.174.023-.45-.337-.375q-.769.162-1.546.263c-.248.031-.282.142-.245.348q.2 1.149.394 2.29M892.41 555.178a6 6 0 0 1-.585.2c-.164.053-.283.12-.185.329.078.161.057.43.369.305.057-.023.118-.077.174-.008.055.07.019.153-.009.218-.08.188-.248.269-.436.302s-.344-.057-.437-.221a2.2 2.2 0 0 1-.263-.735c-.06-.382.303-.716.65-.549.286.138.501.028.744-.043.166-.049.166-.148.07-.269-.221-.279-.524-.367-.867-.382a1.5 1.5 0 0 0-.984.367c-.328.294-.459.667-.328 1.092.166.557.262 1.18.955 1.364.53.14.999-.025 1.377-.401.408-.41.31-.886.13-1.372-.077-.207-.153-.295-.375-.197M896.477 553.939c-.24.188-.501.348-.742.536-.131.102-.197.07-.281-.053-.085-.124-.111-.197.03-.29.218-.143.428-.3.64-.453.07-.05.153-.09.145-.21a.9.9 0 0 0-.274-.381c-.122-.086-.217.045-.312.11-.196.137-.402.263-.586.417-.153.127-.197.01-.272-.08-.09-.105-.092-.171.035-.254.246-.16.473-.35.721-.505.203-.127.16-.25.04-.397-.105-.132-.17-.328-.403-.151-.427.318-.866.622-1.304.929-.137.096-.143.192-.047.328q.677.942 1.347 1.89c.081.114.16.16.295.062q.672-.492 1.356-.967c.215-.15.085-.273-.007-.408-.091-.134-.179-.282-.381-.123M879.54 552.875c-.091-.066-.188-.035-.271.03l-1.989 1.55c-.087.065-.152.161-.026.231.232.132.445.46.753.113a.104.104 0 0 1 .143-.03l.741.48c.066.045.044.114.036.178-.034.282.16.598.44.613.293.016.155-.293.247-.438q.016-.03.022-.062l.525-2.154c-.074-.283-.398-.342-.62-.511m-.42 1.752c-.511-.301-.511-.301-.096-.633l.294-.225a3.7 3.7 0 0 1-.197.858M878.694 530.774c.328.455.831.59 1.365.393.555-.2.984-.742.961-1.237a1.4 1.4 0 0 0-.081-.347.14.14 0 0 0-.14-.113c-.19 0-.54.34-.542.544-.003.275-.179.412-.399.5-.207.083-.393 0-.516-.172a5 5 0 0 1-.39-.64c-.09-.188-.074-.393.097-.54.172-.145.383-.244.627-.111.17.093.63-.066.727-.232.066-.106-.018-.166-.071-.225a.91.91 0 0 0-.708-.307c-.878.004-1.562.68-1.469 1.417.052.416.31.744.539 1.07M888.01 555.675c-.223-.578-.376-.655-.97-.524a.26.26 0 0 0-.215.172q-.374 1.197-.745 2.396c-.022.07-.053.153.031.208.179.118.65-.047.73-.255.033-.087.034-.192.178-.19q.393.007.786-.012c.093-.004.151.031.168.115.05.263.207.34.424.284.444-.012.446-.013.3-.394q-.342-.902-.688-1.8m-.693 1.185c-.197 0-.226-.055-.167-.222.072-.205.131-.413.215-.68.087.224.151.384.212.545.136.366.133.353-.26.357M893.771 531.123c.154.084.3.308.477.012.234-.393.488-.773.732-1.16.293-.463.301-.477.773-.18.252.159.318-.013.423-.165.113-.164.158-.29-.065-.42a33 33 0 0 1-1.544-.979c-.215-.143-.321-.105-.46.108-.153.234-.121.358.116.484.138.073.292.14.387.276-.049.078-.088.144-.131.208-.297.47-.586.944-.893 1.406-.166.255.025.322.185.41M894.39 545.4l-.503-2.06a.21.21 0 0 0-.35-.102l-1.62 1.551a.2.2 0 0 0 .083.337q.09.027.18.046c.13.028.117.072.056.164-.34.518-.787.956-1.311 1.284l-.013.008c-.452.215-.93.37-1.423.46q-.765.145-1.543.178a.12.12 0 0 1-.124-.123v-7.238a.07.07 0 0 1 .07-.07c.066 0 .146.013.338.01.378-.003.771-.003 1.15-.025.124-.008.192-.004.271.055a.81.81 0 0 0 1.096-.084.82.82 0 0 0 .007-1.1.807.807 0 0 0-1.092-.103.27.27 0 0 1-.166.071q-.792-.005-1.583 0a.13.13 0 0 1-.091-.024v-.828q0-.043.027-.077a.4.4 0 0 1 .131-.092c.853-.433 1.295-1.144 1.295-2.09 0-1.497-1.46-2.586-2.904-2.194-1.144.31-1.888 1.448-1.672 2.608.158.852.66 1.449 1.476 1.765q.046.015.087.043c.03.023.047.059.046.096v.677a.117.117 0 0 1-.118.117 93 93 0 0 0-1.704 0 .36.36 0 0 1-.217-.074.8.8 0 0 0-1.09.112.811.811 0 0 0 1.097 1.185.33.33 0 0 1 .216-.071c.55 0 1.101.008 1.651 0a.2.2 0 0 1 .142.03.07.07 0 0 1 .02.05v7.2a.12.12 0 0 1-.13.12 12.6 12.6 0 0 1-1.982-.327 6 6 0 0 1-1.178-.418 4.4 4.4 0 0 1-1.28-1.402.09.09 0 0 1 .065-.142l.174-.035a.202.202 0 0 0 .105-.333l-1.525-1.662a.197.197 0 0 0-.337.075l-.668 2.119a.22.22 0 0 0 .258.28l.118-.027a.336.336 0 0 1 .373.174c.878 1.704 2.197 2.938 3.942 3.717.682.305.952.394 1.541.484a.12.12 0 0 1 .066.033l.896.888a.32.32 0 0 0 .45 0l.87-.852a.12.12 0 0 1 .073-.034c.873-.082 1.261-.298 2.2-.727 1.452-.664 2.605-1.82 3.347-3.234.066-.126.124-.141.235-.104q.064.023.131.042a.27.27 0 0 0 .342-.327m-7.48-8.644a1.16 1.16 0 0 1-1.12-1.212c.031-.686.602-1.192 1.245-1.143.678.053 1.145.597 1.111 1.226-.036.683-.596 1.177-1.236 1.13M361 341h83.75a4 4 0 0 1 4 4v52a4 4 0 0 1-4 4H361a4 4 0 0 1-4-4v-52a4 4 0 0 1 4-4"/><path stroke="#000" stroke-linecap="round" stroke-linejoin="round" d="M361 341h83.75a4 4 0 0 1 4 4v52a4 4 0 0 1-4 4H361a4 4 0 0 1-4-4v-52a4 4 0 0 1 4-4"/><text fill="#000" transform="translate(362 351.536)"><tspan x="34.918" y="16" font-family="Helvetica Neue" font-size="16" xml:space="preserve">SPIRE </tspan> <tspan x="34.022" y="35.464" font-family="Helvetica Neue" font-size="16" xml:space="preserve">Server</tspan></text><path fill="url(#e)" d="M385.71 351.019a1.196 1.196 0 0 0-1.395.968l-1.43 7.865h2.456l1.35-7.438a1.21 1.21 0 0 0-.98-1.395m-18.935.968a1.213 1.213 0 0 0-1.407-.968 1.2 1.2 0 0 0-.969 1.395l1.338 7.438h2.468Zm23.26 32.509-4.936-20.78h2.606c.6 0 1.096-.496 1.096-1.096a1.1 1.1 0 0 0-1.096-1.084h-9.56v2.306h1.903l-3.298 2.526v-9.883a1.2 1.2 0 0 0-1.21-1.2c-.67 0-1.2.543-1.2 1.2v9.883l-3.298-2.526h1.89v-2.306h-9.56a1.09 1.09 0 0 0 0 2.18h2.607l-4.947 20.803c-.15.646.242 1.303.888 1.453.092.023.184.023.277.023.542 0 1.038-.369 1.164-.922l2.641-11.071 8.326 6.123v9.676c0 .669.542 1.199 1.2 1.199.668 0 1.21-.542 1.21-1.2v-9.675l8.315-6.123 2.63 11.048a1.207 1.207 0 0 0 1.452.887 1.184 1.184 0 0 0 .9-1.441m-15.695-7.357-5.397-3.979h3.99v-2.41h-6.147l1.442-6.02 6.112 4.682Zm7.807-3.979-5.397 3.979V369.4l6.112-4.682 1.43 6.02h-6.147v2.421Z"/><path fill="#fff" d="M361 152h83.75a4 4 0 0 1 4 4v52a4 4 0 0 1-4 4H361a4 4 0 0 1-4-4v-52a4 4 0 0 1 4-4"/><path stroke="#000" stroke-linecap="round" stroke-linejoin="round" d="M361 152h83.75a4 4 0 0 1 4 4v52a4 4 0 0 1-4 4H361a4 4 0 0 1-4-4v-52a4 4 0 0 1 4-4"/><text fill="#000" transform="translate(362 162.536)"><tspan x="34.918" y="16" font-family="Helvetica Neue" font-size="16" xml:space="preserve">SPIRE </tspan> <tspan x="38.182" y="35.464" font-family="Helvetica Neue" font-size="16" xml:space="preserve">Agent</tspan></text><path fill="url(#f)" d="M385.71 162.019a1.196 1.196 0 0 0-1.395.968l-1.43 7.865h2.456l1.35-7.438a1.21 1.21 0 0 0-.98-1.395m-18.935.968a1.213 1.213 0 0 0-1.407-.968 1.2 1.2 0 0 0-.969 1.395l1.338 7.438h2.468Zm23.26 32.509-4.936-20.78h2.606c.6 0 1.096-.496 1.096-1.096a1.1 1.1 0 0 0-1.096-1.084h-9.56v2.306h1.903l-3.298 2.526v-9.883a1.2 1.2 0 0 0-1.21-1.2c-.67 0-1.2.543-1.2 1.2v9.883l-3.298-2.526h1.89v-2.306h-9.56a1.09 1.09 0 0 0 0 2.18h2.607l-4.947 20.803c-.15.646.242 1.303.888 1.453.092.023.184.023.277.023.542 0 1.038-.369 1.164-.922l2.641-11.071 8.326 6.123v9.676c0 .669.542 1.199 1.2 1.199.668 0 1.21-.542 1.21-1.2v-9.675l8.315-6.123 2.63 11.048a1.206 1.206 0 0 0 1.452.887 1.184 1.184 0 0 0 .9-1.441m-15.695-7.357-5.397-3.979h3.99v-2.41h-6.147l1.442-6.02 6.112 4.682Zm7.807-3.979-5.397 3.979V180.4l6.112-4.682 1.43 6.02h-6.147v2.421Z"/><path fill="#2f6ab2" d="M854.875 197h92a4 4 0 0 1 4 4v52a4 4 0 0 1-4 4h-92a4 4 0 0 1-4-4v-52a4 4 0 0 1 4-4"/><text fill="#fff" transform="translate(855.875 207.536)"><tspan x="44.64" y="16" font-family="Helvetica Neue" font-size="16" xml:space="preserve">Envoy </tspan> <tspan x="47.6" y="35.464" font-family="Helvetica Neue" font-size="16" xml:space="preserve">Proxy</tspan></text><path fill="#fff" d="m868.932 228.02-2.417-1.504.051 2.298 2.417 1.504Zm3.481 8.044-.05-2.248-2.113-1.318a.4.4 0 0 1-.085-.067l.051 2.264Zm-7.554 3.025-5.526-3.43-.135-5.746 2.704-1.167-.05-2.298-4.327 1.86c-.338.151-.54.455-.524.81l.169 6.895c0 .355.22.71.558.913l6.624 4.106c.304.186.676.237.997.152.034-.017.068-.017.102-.033l4.072-1.758-2.213-1.369Z"/><path fill="#fff" d="M882.722 226.38a1.32 1.32 0 0 0-.66-1.064l-8.043-4.985-.254.101.05 2.417 6.372 3.954.152 6.456 2.433 1.504.136-.051Zm-9.633 11.34-7.486-4.63-.186-7.774 3.413-1.47-.067-2.687-5.29 2.281a.97.97 0 0 0-.608.946l.22 9.126c0 .423.253.828.659 1.065l8.77 5.441c.355.22.795.288 1.167.17a.24.24 0 0 1 .101-.034l5.171-2.231-2.568-1.589Z"/><path fill="#fff" d="m894.129 219.993-11.238-6.963c-.423-.253-.913-.321-1.335-.186-.034.017-.085.034-.119.05l-10.967 4.733c-.44.186-.71.591-.693 1.081l.27 11.695c.017.473.304.946.76 1.216l11.239 6.963c.405.253.912.321 1.335.186.034-.017.084-.034.118-.05l10.968-4.733c.44-.186.71-.608.693-1.081l-.27-11.695c-.018-.473-.305-.93-.761-1.216m-11.424 15.97-9.768-6.05-.237-10.157 9.532-4.106L892 221.7l.236 10.156Z"/><path fill="#2f6ab2" d="M219.75 197h92a4 4 0 0 1 4 4v52a4 4 0 0 1-4 4h-92a4 4 0 0 1-4-4v-52a4 4 0 0 1 4-4"/><text fill="#fff" transform="translate(220.75 207.536)"><tspan x="44.64" y="16" font-family="Helvetica Neue" font-size="16" xml:space="preserve">Envoy </tspan> <tspan x="47.6" y="35.464" font-family="Helvetica Neue" font-size="16" xml:space="preserve">Proxy</tspan></text><path fill="#fff" d="m234.202 228.79-2.417-1.504.051 2.298 2.417 1.504Zm3.481 8.044-.05-2.248-2.113-1.318a.3.3 0 0 1-.084-.067l.05 2.264Zm-7.554 3.025-5.526-3.43-.135-5.746 2.704-1.166-.05-2.299-4.327 1.86c-.338.151-.54.455-.524.81l.169 6.895c0 .355.22.71.558.913l6.624 4.106c.304.186.676.237.997.152.034-.017.068-.017.102-.033l4.072-1.758-2.213-1.369Z"/><path fill="#fff" d="M247.992 227.15a1.32 1.32 0 0 0-.66-1.064l-8.043-4.985-.254.101.05 2.417 6.372 3.954.152 6.456 2.433 1.504.136-.051Zm-9.633 11.34-7.486-4.63-.186-7.774 3.413-1.47-.067-2.687-5.29 2.281a.97.97 0 0 0-.608.946l.22 9.126c0 .423.253.828.659 1.065l8.77 5.441c.355.22.795.288 1.167.17a.24.24 0 0 1 .101-.034l5.171-2.231-2.568-1.589Z"/><path fill="#fff" d="M259.399 220.763 248.16 213.8c-.423-.253-.913-.321-1.335-.186-.034.017-.085.034-.119.05l-10.967 4.733c-.44.186-.71.591-.693 1.081l.27 11.695c.017.473.304.946.76 1.216l11.239 6.963c.405.253.912.321 1.335.186.034-.017.084-.034.118-.05l10.968-4.733c.44-.186.71-.608.693-1.081l-.27-11.695c-.018-.473-.305-.93-.761-1.216m-11.424 15.97-9.768-6.05-.237-10.157 9.532-4.106 9.767 6.05.237 10.156Zm771.401 61.074h83.75a4 4 0 0 1 4 4v52a4 4 0 0 1-4 4h-83.75a4 4 0 0 1-4-4v-52a4 4 0 0 1 4-4"/><path stroke="#000" stroke-linecap="round" stroke-linejoin="round" d="M1019.375 297.807h83.75a4 4 0 0 1 4 4v52a4 4 0 0 1-4 4h-83.75a4 4 0 0 1-4-4v-52a4 4 0 0 1 4-4"/><text fill="#000" transform="translate(1020.375 308.343)"><tspan x="34.918" y="16" font-family="Helvetica Neue" font-size="16" xml:space="preserve">SPIRE </tspan> <tspan x="38.182" y="35.464" font-family="Helvetica Neue" font-size="16" xml:space="preserve">Agent</tspan></text><path fill="url(#g)" d="M1044.085 307.826a1.196 1.196 0 0 0-1.395.969l-1.43 7.864h2.456l1.35-7.438a1.21 1.21 0 0 0-.98-1.395m-18.935.969a1.213 1.213 0 0 0-1.407-.97 1.2 1.2 0 0 0-.969 1.396l1.338 7.438h2.468Zm23.26 32.508-4.936-20.78h2.606c.6 0 1.096-.496 1.096-1.096a1.1 1.1 0 0 0-1.096-1.084h-9.56v2.306h1.903l-3.298 2.526v-9.883a1.2 1.2 0 0 0-1.21-1.2c-.67 0-1.2.543-1.2 1.2v9.883l-3.298-2.526h1.89v-2.306h-9.56a1.09 1.09 0 0 0 0 2.18h2.607l-4.947 20.803c-.15.646.242 1.303.888 1.453.092.023.184.023.277.023.542 0 1.038-.369 1.164-.922l2.641-11.071 8.326 6.123v9.676c0 .669.542 1.199 1.2 1.199.668 0 1.21-.542 1.21-1.2v-9.675l8.315-6.123 2.63 11.048a1.206 1.206 0 0 0 1.452.888 1.185 1.185 0 0 0 .9-1.442m-15.695-7.357-5.397-3.979h3.99v-2.41h-6.147l1.442-6.02 6.112 4.682Zm7.807-3.979-5.397 3.979v-7.738l6.112-4.682 1.43 6.02h-6.147v2.421Z"/><path fill="#fff" d="M1037 424h83.75a4 4 0 0 1 4 4v52a4 4 0 0 1-4 4H1037a4 4 0 0 1-4-4v-52a4 4 0 0 1 4-4"/><path stroke="#000" stroke-linecap="round" stroke-linejoin="round" d="M1037 424h83.75a4 4 0 0 1 4 4v52a4 4 0 0 1-4 4H1037a4 4 0 0 1-4-4v-52a4 4 0 0 1 4-4"/><text fill="#000" transform="translate(1038 434.536)"><tspan x="34.918" y="16" font-family="Helvetica Neue" font-size="16" xml:space="preserve">SPIRE </tspan> <tspan x="34.022" y="35.464" font-family="Helvetica Neue" font-size="16" xml:space="preserve">Server</tspan></text><path fill="url(#h)" d="M1061.71 434.019a1.196 1.196 0 0 0-1.395.969l-1.43 7.864h2.456l1.35-7.438a1.21 1.21 0 0 0-.98-1.395m-18.935.969a1.213 1.213 0 0 0-1.407-.97 1.2 1.2 0 0 0-.969 1.396l1.338 7.438h2.468Zm23.26 32.508-4.936-20.78h2.606c.6 0 1.096-.496 1.096-1.096a1.1 1.1 0 0 0-1.096-1.084h-9.56v2.306h1.903l-3.298 2.526v-9.883a1.2 1.2 0 0 0-1.21-1.2c-.67 0-1.2.543-1.2 1.2v9.883l-3.298-2.526h1.89v-2.306h-9.56a1.09 1.09 0 0 0 0 2.18h2.607l-4.947 20.803c-.15.646.242 1.303.888 1.453.092.023.184.023.277.023.542 0 1.038-.369 1.164-.922l2.641-11.071 8.326 6.123v9.676c0 .669.542 1.199 1.2 1.199.668 0 1.21-.542 1.21-1.2v-9.675l8.315-6.123 2.63 11.048a1.206 1.206 0 0 0 1.452.887 1.185 1.185 0 0 0 .9-1.441m-15.695-7.357-5.397-3.979h3.99v-2.41h-6.147l1.442-6.02 6.112 4.682Zm7.807-3.979-5.397 3.979V452.4l6.112-4.682 1.43 6.02h-6.147v2.421Z"/><path stroke="#00fa00" stroke-linecap="round" stroke-linejoin="round" stroke-width="2" marker-end="url(#d)" d="M950.875 249.046c18.8 8.965 40.06 19.933 58.443 31.488a306 306 0 0 1 14.296 9.532"/><path stroke="#00fa00" stroke-linecap="round" stroke-linejoin="round" stroke-width="2" marker-end="url(#d)" d="M1074.194 357.807c1.235 5.028 2.367 10.796 3.287 17.384 1.645 11.775 2.357 24.342 2.573 35.903"/><path stroke="#00fa00" stroke-linecap="round" stroke-linejoin="round" stroke-width="2" marker-end="url(#d)" d="M1061.174 484c-9.213 11.8-22.501 24.995-40.945 35.45a145 145 0 0 1-11.889 6.02"/><path stroke="#00fa00" stroke-linecap="round" stroke-linejoin="round" stroke-width="2" marker-end="url(#d)" d="M758.134 461.5c11.345 11.715 27.362 25.373 49.118 38.118 10.39 6.087 21.14 11.41 31.715 16.034"/><path stroke="#b34400" stroke-dasharray="8 8" stroke-linecap="round" stroke-linejoin="round" stroke-width="2" d="M446.606 400.544c88.694 58.136 293.72 183.323 440 201.283C1026.667 619.024 1064.7 532 1075.026 484"/><path fill="#fff" d="M674.753 548.592h119.056v46.896H674.753z"/><text fill="#000" transform="translate(679.753 553.592)"><tspan x="0" y="15" font-family="Helvetica Neue" font-size="16" font-style="italic" xml:space="preserve">Exchange Trust</tspan> <tspan x="25.488" y="33.448" font-family="Helvetica Neue" font-size="16" font-style="italic" xml:space="preserve">Bundles</tspan></text><path fill="#fff" d="M519.631 519.449h112.24v28.448h-112.24z"/><text fill="#000" transform="translate(524.63 524.45)"><tspan x="0" y="15" font-family="Helvetica Neue" font-size="16" font-style="italic" xml:space="preserve">Get Endpoints</tspan></text><path fill="#fff" d="M513.751 393.881h112.24v28.448h-112.24z"/><text fill="#000" transform="translate(518.751 398.88)"><tspan x="0" y="15" font-family="Helvetica Neue" font-size="16" font-style="italic" xml:space="preserve">Get Endpoints</tspan></text><path stroke="#00fa00" stroke-linecap="round" stroke-linejoin="round" stroke-width="2" marker-end="url(#d)" d="M357 372.094c-28.045 2.792-63.663 10.298-91.043 29.406-53.013 36.998-11.902 53.99-50.207 100.096a218.6 218.6 0 0 1-23.761 24.407"/><path fill="#2f6ab2" d="M689 123h92a4 4 0 0 1 4 4v52a4 4 0 0 1-4 4h-92a4 4 0 0 1-4-4v-52a4 4 0 0 1 4-4"/><text fill="#fff" transform="translate(690 133.536)"><tspan x="18.016" y="16" font-family="Helvetica Neue" font-size="16" xml:space="preserve">Ingress</tspan> <tspan x="12.544" y="35.464" font-family="Helvetica Neue" font-size="16" xml:space="preserve">Gateway</tspan></text><path stroke="#2f6ab2" stroke-dasharray="8 8" stroke-linecap="round" stroke-linejoin="round" stroke-width="2" marker-end="url(#b)" d="M732.05 401.5c-2.815-17.803-8.318-42.647-19.073-72.11-22.243-60.936-62.728-63.006-56.488-112.978 1.793-14.365 9.044-25.712 18.465-34.588"/><text fill="#000" transform="translate(16 -25.732)"><tspan x="0" y="16" font-family="Helvetica Neue" font-size="16" font-weight="bold" xml:space="preserve">cluster-1</tspan></text><text fill="#000" transform="translate(651 -28.268)"><tspan x="0" y="17" font-family="PingFang SC" font-size="16" font-weight="bold" xml:space="preserve">cluster-2</tspan></text><path fill="#fff" d="M342.325 247.684h120.816v28.448H342.325z"/><text fill="#000" transform="translate(347.325 252.684)"><tspan x="0" y="15" font-family="Helvetica Neue" font-size="16" font-style="italic" xml:space="preserve">Get Certificates</tspan></text><path fill="#fff" d="M1018.551 374.429h120.816v28.448h-120.816z"/><text fill="#000" transform="translate(1023.55 379.43)"><tspan x="0" y="15" font-family="Helvetica Neue" font-size="16" font-style="italic" xml:space="preserve">Get Certificates</tspan></text><path fill="#fff" d="M678.152 352.973h113.696v28.448H678.152z"/><text fill="#000" transform="translate(683.152 357.973)"><tspan x="0" y="15" font-family="Helvetica Neue" font-size="16" font-style="italic" xml:space="preserve">Config Proxies</tspan></text><path fill="#fff" d="M233.348 335.41h113.696v28.448H233.348z"/><text fill="#000" transform="translate(238.348 340.41)"><tspan x="0" y="15" font-family="Helvetica Neue" font-size="16" font-style="italic" xml:space="preserve">Config Proxies</tspan></text><text fill="#000" transform="translate(27.674 638)"><tspan x="0" y="14" font-family="Helvetica Neue" font-size="14" font-weight="bold" xml:space="preserve">Legend:</tspan></text><text fill="#000" transform="translate(1006.817 639.196)"><tspan x="0" y="13" font-family="Helvetica Neue" font-size="14" xml:space="preserve">SPIRE Federation</tspan></text><text fill="#000" transform="translate(410.897 639.016)"><tspan x="0" y="13" font-family="Helvetica Neue" font-size="14" xml:space="preserve">Get Workload Endpoints</tspan></text><path stroke="#b34400" stroke-dasharray="8 8" stroke-linecap="round" stroke-linejoin="round" stroke-width="2" d="M930.9 648.633h63.028"/><path stroke="#00fa00" stroke-linecap="round" stroke-linejoin="round" stroke-width="2" marker-end="url(#d)" d="M622.705 648.24h50.128"/><text fill="#000" transform="translate(702.683 639.016)"><tspan x="0" y="13" font-family="Helvetica Neue" font-size="14" xml:space="preserve">Get Workload Certificates</tspan></text><path stroke="#000" stroke-dasharray="8 8" stroke-linecap="round" stroke-linejoin="round" stroke-width="2" marker-end="url(#c)" d="m331.705 648.219 49.927-.109"/><text fill="#000" transform="translate(206.25 639.016)"><tspan x="0" y="13" font-family="Helvetica Neue" font-size="14" xml:space="preserve">Traffic Flow</tspan></text><path stroke="#000" stroke-linecap="round" stroke-linejoin="round" stroke-width="2" marker-start="url(#i)" d="m181.632 648.29-49.927.109"/><text fill="#000" transform="translate(16 -73)"><tspan x="0" y="20" font-family="Helvetica Neue" font-size="20" font-weight="bold" xml:space="preserve">Multi-cluster Deployment with SPIRE Federation</tspan></text><path fill="#2f6ab2" d="M358.384 534.244h92a4 4 0 0 1 4 4v52a4 4 0 0 1-4 4h-92a4 4 0 0 1-4-4v-52a4 4 0 0 1 4-4"/><text fill="#fff" transform="translate(359.384 544.78)"><tspan x="8.096" y="16" font-family="Helvetica Neue" font-size="16" xml:space="preserve">East-west</tspan> <tspan x="12.544" y="35.464" font-family="Helvetica Neue" font-size="16" xml:space="preserve">Gateway</tspan></text><path fill="#2f6ab2" d="M235.705 534.244h92a4 4 0 0 1 4 4v52a4 4 0 0 1-4 4h-92a4 4 0 0 1-4-4v-52a4 4 0 0 1 4-4"/><text fill="#fff" transform="translate(236.705 544.78)"><tspan x="18.016" y="16" font-family="Helvetica Neue" font-size="16" xml:space="preserve">Ingress</tspan> <tspan x="12.544" y="35.464" font-family="Helvetica Neue" font-size="16" xml:space="preserve">Gateway</tspan></text><path stroke="#2f6ab2" stroke-dasharray="8 8" stroke-linecap="round" stroke-linejoin="round" stroke-width="2" marker-end="url(#b)" d="m303.028 484-10.038 37.777"/><path stroke="#2f6ab2" stroke-dasharray="8 8" stroke-linecap="round" stroke-linejoin="round" stroke-width="2" marker-end="url(#b)" d="m336.412 484 34.222 40.401"/></g></svg>