<svg xmlns="http://www.w3.org/2000/svg" xmlns:xl="http://www.w3.org/1999/xlink" width="992" height="870" viewBox="-909 2338 992 870"><defs><linearGradient id="a" x1="0" x2="1" gradientUnits="userSpaceOnUse"><stop offset="0" stop-color="#4387fd"/><stop offset="1" stop-color="#4683ea"/></linearGradient><linearGradient id="d" gradientTransform="translate(-844.144 2692.151)scale(39.68504)" xl:href="#a"/><linearGradient id="e" gradientTransform="translate(-202.18 2692.151)scale(39.68504)" xl:href="#a"/><linearGradient id="f" gradientTransform="translate(-520.884 3002.858)scale(39.68504)" xl:href="#a"/><linearGradient id="h" gradientTransform="translate(-508.244 2417.19)scale(39.68504)" xl:href="#a"/><marker id="b" stroke-linejoin="miter" stroke-miterlimit="10" color="#000" markerHeight="6" markerUnits="strokeWidth" markerWidth="7" orient="auto" overflow="visible" viewBox="-1 -3 7 6"><path fill="currentColor" stroke="currentColor" d="M4.8 0 0-1.8v3.6Z"/></marker><marker id="c" stroke-linejoin="miter" stroke-miterlimit="10" color="#000" markerHeight="6" markerUnits="strokeWidth" markerWidth="7" orient="auto" overflow="visible" viewBox="-6 -3 7 6"><path fill="currentColor" stroke="currentColor" d="M-4.8 0 0 1.8v-3.6Z"/></marker><marker id="g" stroke-linejoin="miter" stroke-miterlimit="10" color="#1d2dc2" markerHeight="6" markerUnits="strokeWidth" markerWidth="7" orient="auto" overflow="visible" viewBox="-1 -3 7 6"><path fill="currentColor" stroke="currentColor" d="M4.8 0 0-1.8v3.6Z"/></marker></defs><g fill="none"><path fill="#fff" d="M-909 2338H83v870h-992z"/><path fill="#f5f5f5" d="M-194.18 2666.545H19.001a8 8 0 0 1 8 8v138.103a8 8 0 0 1-8 8h-213.183a8 8 0 0 1-8-8v-138.103a8 8 0 0 1 8-8"/><path stroke="gray" stroke-linecap="round" stroke-linejoin="round" d="M-194.18 2666.545H19.001a8 8 0 0 1 8 8v138.103a8 8 0 0 1-8 8h-213.183a8 8 0 0 1-8-8v-138.103a8 8 0 0 1 8-8"/><text fill="#000" transform="translate(-197.18 2671.545)"><tspan x="63.375" y="16" font-family="Helvetica Neue" font-size="16" font-weight="bold">cp-cluster-3</tspan></text><path fill="#f15623" d="M-143.369 2708.847h111.56a8 8 0 0 1 8 8v33.263a8 8 0 0 1-8 8h-111.56a8 8 0 0 1-8-8v-33.264a8 8 0 0 1 8-8"/><text fill="#fff" transform="translate(-146.369 2723.746)"><tspan x="7.948" y="16" font-family="Helvetica Neue" font-size="16" font-weight="bold">SPIRE Server</tspan></text><path fill="#f5f5f5" d="M-515.14 2974.96h220.72a8 8 0 0 1 8 8v172.505a8 8 0 0 1-8 8h-220.72a8 8 0 0 1-8-8V2982.96a8 8 0 0 1 8-8"/><path stroke="gray" stroke-linecap="round" stroke-linejoin="round" d="M-515.14 2974.96h220.72a8 8 0 0 1 8 8v172.505a8 8 0 0 1-8 8h-220.72a8 8 0 0 1-8-8V2982.96a8 8 0 0 1 8-8"/><text fill="#000" transform="translate(-518.14 3139)"><tspan x="67.144" y="16" font-family="Helvetica Neue" font-size="16" font-weight="bold">cp-cluster-2</tspan></text><path fill="#f15623" d="M-460.56 2998.74H-349a8 8 0 0 1 8 8v33.264a8 8 0 0 1-8 8h-111.56a8 8 0 0 1-8-8v-33.264a8 8 0 0 1 8-8"/><text fill="#fff" transform="translate(-463.56 3013.64)"><tspan x="7.948" y="16" font-family="Helvetica Neue" font-size="16" font-weight="bold">SPIRE Server</tspan></text><path fill="#f5f5f5" d="M-503.787 2396.179h198.015a8 8 0 0 1 8 8v138.103a8 8 0 0 1-8 8h-198.015a8 8 0 0 1-8-8v-138.103a8 8 0 0 1 8-8"/><path stroke="gray" stroke-linecap="round" stroke-linejoin="round" d="M-503.787 2396.179h198.015a8 8 0 0 1 8 8v138.103a8 8 0 0 1-8 8h-198.015a8 8 0 0 1-8-8v-138.103a8 8 0 0 1 8-8"/><text fill="#000" transform="translate(-506.787 2401.179)"><tspan x="84.976" y="16" font-family="Helvetica Neue" font-size="16" font-weight="bold">tier1</tspan></text><path fill="#f15623" d="M-460.56 2474.646H-349a8 8 0 0 1 8 8v33.264a8 8 0 0 1-8 8h-111.56a8 8 0 0 1-8-8v-33.264a8 8 0 0 1 8-8"/><text fill="#fff" transform="translate(-463.56 2489.546)"><tspan x="7.948" y="16" font-family="Helvetica Neue" font-size="16" font-weight="bold">SPIRE Server</tspan></text><path fill="#f5f5f5" d="M-836.144 2666.545h213.182a8 8 0 0 1 8 8v138.103a8 8 0 0 1-8 8h-213.182a8 8 0 0 1-8-8v-138.103a8 8 0 0 1 8-8"/><path stroke="gray" stroke-linecap="round" stroke-linejoin="round" d="M-836.144 2666.545h213.182a8 8 0 0 1 8 8v138.103a8 8 0 0 1-8 8h-213.182a8 8 0 0 1-8-8v-138.103a8 8 0 0 1 8-8"/><text fill="#000" transform="translate(-839.144 2671.545)"><tspan x="63.375" y="16" font-family="Helvetica Neue" font-size="16" font-weight="bold">cp-cluster-1</tspan></text><path fill="#f15623" d="M-777.75 2708.847h111.56a8 8 0 0 1 8 8v33.263a8 8 0 0 1-8 8h-111.56a8 8 0 0 1-8-8v-33.264a8 8 0 0 1 8-8"/><text fill="#fff" transform="translate(-780.75 2723.746)"><tspan x="7.948" y="16" font-family="Helvetica Neue" font-size="16" font-weight="bold">SPIRE Server</tspan></text><path stroke="#000" stroke-dasharray="8 8" stroke-linecap="round" stroke-linejoin="round" stroke-width="2" marker-end="url(#b)" marker-start="url(#c)" d="m-678.232 2701.184 229.715-169.612"/><path stroke="#000" stroke-dasharray="8 8" stroke-linecap="round" stroke-linejoin="round" stroke-width="2" marker-end="url(#b)" marker-start="url(#c)" d="m-361.042 2531.572 229.715 169.612"/><path stroke="#000" stroke-dasharray="8 8" stroke-linecap="round" stroke-linejoin="round" stroke-width="2" marker-end="url(#b)" marker-start="url(#c)" d="m-441.253 2990.037-244.243-223.224"/><path fill="#fff" d="M-580.684 2562.883h140.992v28.448h-140.992z"/><text fill="#000" transform="translate(-575.684 2567.883)"><tspan x="0" y="15" font-family="Helvetica Neue" font-size="16" font-style="italic">Exchange bundles</tspan></text><text fill="#000" transform="translate(-525.556 2369.095)"><tspan x="0" y="15" font-family="Helvetica Neue" font-size="16">gke-jimmy-us-central1-0.tsb.local</tspan></text><path fill="url(#d)" d="m-835.528 2708.031-8.139-14.097a3.57 3.57 0 0 1 0-3.565l8.14-14.098a3.57 3.57 0 0 1 3.087-1.783h16.277c1.274 0 2.45.68 3.088 1.783l8.138 14.098a3.57 3.57 0 0 1 0 3.565l-8.138 14.097a3.57 3.57 0 0 1-3.088 1.783h-16.277c-1.274 0-2.45-.68-3.088-1.783"/><path fill="#fff" d="m-816.541 2687.188-7.34-4.238a.84.84 0 0 0-.838 0l-7.34 4.238a.84.84 0 0 0-.418.725v8.476c0 .299.159.575.418.724l7.34 4.239c.26.15.578.15.837 0l7.34-4.238a.84.84 0 0 0 .419-.725v-8.476a.84.84 0 0 0-.418-.725m-1.007 8.39-2.561-1.479v-3.895l-3.782 2.183v4.368l3.373-1.947 2.56 1.479-6.342 3.662-6.344-3.662 2.562-1.479 3.373 1.947v-4.368l-3.782-2.183v3.895l-2.561 1.479v-7.325l6.343-3.662v2.957l-3.373 1.948 3.782 2.182 3.782-2.182-3.373-1.948v-2.957l6.343 3.662z"/><path fill="url(#e)" d="m-193.564 2708.031-8.139-14.097a3.57 3.57 0 0 1 0-3.565l8.139-14.098a3.57 3.57 0 0 1 3.087-1.783h16.278c1.273 0 2.45.68 3.087 1.783l8.139 14.098a3.57 3.57 0 0 1 0 3.565l-8.139 14.097a3.57 3.57 0 0 1-3.087 1.783h-16.278c-1.273 0-2.45-.68-3.087-1.783"/><path fill="#fff" d="m-174.578 2687.188-7.34-4.238a.84.84 0 0 0-.837 0l-7.34 4.238a.84.84 0 0 0-.419.725v8.476c0 .299.16.575.418.724l7.341 4.239c.259.15.578.15.837 0l7.34-4.238a.84.84 0 0 0 .419-.725v-8.476a.84.84 0 0 0-.419-.725m-1.007 8.39-2.56-1.479v-3.895l-3.782 2.183v4.368l3.372-1.947 2.561 1.479-6.343 3.662-6.343-3.662 2.561-1.479 3.373 1.947v-4.368l-3.782-2.183v3.895l-2.56 1.479v-7.325l6.343-3.662v2.957l-3.374 1.948 3.782 2.182 3.782-2.182-3.373-1.948v-2.957l6.343 3.662z"/><path fill="url(#f)" d="m-512.268 3018.738-8.139-14.098a3.57 3.57 0 0 1 0-3.565l8.139-14.097a3.57 3.57 0 0 1 3.088-1.783h16.277c1.273 0 2.45.68 3.087 1.782l8.139 14.098a3.57 3.57 0 0 1 0 3.565l-8.139 14.098a3.57 3.57 0 0 1-3.087 1.782h-16.277a3.57 3.57 0 0 1-3.088-1.782"/><path fill="#fff" d="m-493.282 2997.895-7.34-4.239a.84.84 0 0 0-.837 0l-7.34 4.239a.84.84 0 0 0-.419.724v8.476c0 .3.16.576.419.725l7.34 4.238c.259.15.578.15.837 0l7.34-4.238a.84.84 0 0 0 .419-.725v-8.476a.84.84 0 0 0-.419-.724m-1.007 8.39-2.56-1.48v-3.894l-3.782 2.182v4.369l3.373-1.947 2.56 1.478-6.343 3.662-6.343-3.662 2.561-1.478 3.373 1.947v-4.369l-3.781-2.182v3.895l-2.561 1.478v-7.324l6.343-3.662v2.957l-3.374 1.947 3.782 2.183 3.782-2.183-3.373-1.947v-2.957l6.343 3.662z"/><text fill="#000" transform="translate(-869.488 2825.648)"><tspan x="0" y="15" font-family="Helvetica Neue" font-size="16">gke-jimmy-us-west1-1.tsb.local</tspan></text><text fill="#000" transform="translate(-169.33 2825.648)"><tspan x="0" y="15" font-family="Helvetica Neue" font-size="16">gke-jimmy-us-west2-3.tsb.local</tspan></text><text fill="#000" transform="translate(-515.884 3176.968)"><tspan x="0" y="15" font-family="Helvetica Neue" font-size="16">gke-jimmy-us-west1-2.tsb.local</tspan></text><path fill="#333" d="M-64.283 2769.537H9.279a8 8 0 0 1 8 8v23.685a8 8 0 0 1-8 8h-73.562a8 8 0 0 1-8-8v-23.685a8 8 0 0 1 8-8"/><text fill="#fff" transform="translate(-67.283 2779.647)"><tspan x="13.565" y="16" font-family="Helvetica Neue" font-size="16">httpbin</tspan></text><path fill="#333" d="M-503.787 3093.687h52.031a8 8 0 0 1 8 8v23.685a8 8 0 0 1-8 8h-52.031a8 8 0 0 1-8-8v-23.685a8 8 0 0 1 8-8"/><text fill="#fff" transform="translate(-506.787 3103.797)"><tspan x=".992" y="16" font-family="Helvetica Neue" font-size="16">reviews</tspan></text><path fill="#333" d="M-430.795 3093.687h52.031a8 8 0 0 1 8 8v23.685a8 8 0 0 1-8 8h-52.031a8 8 0 0 1-8-8v-23.685a8 8 0 0 1 8-8"/><text fill="#fff" transform="translate(-433.795 3103.797)"><tspan x="4.56" y="16" font-family="Helvetica Neue" font-size="16">details</tspan></text><path fill="#333" d="M-357.803 3093.687h52.031a8 8 0 0 1 8 8v23.685a8 8 0 0 1-8 8h-52.031a8 8 0 0 1-8-8v-23.685a8 8 0 0 1 8-8"/><text fill="#fff" transform="translate(-360.803 3103.797)"><tspan x="3.672" y="16" font-family="Helvetica Neue" font-size="16">ratings</tspan></text><path fill="#333" d="M-777.75 2769.537h88.883a8 8 0 0 1 8 8v23.685a8 8 0 0 1-8 8h-88.882a8 8 0 0 1-8-8v-23.685a8 8 0 0 1 8-8"/><text fill="#fff" transform="translate(-780.75 2779.647)"><tspan x=".017" y="16" font-family="Helvetica Neue" font-size="16">productpage</tspan></text><path fill="#f15623" d="M-116.472 2769.537h31.685a4 4 0 0 1 4 4v31.685a4 4 0 0 1-4 4h-31.685a4 4 0 0 1-4-4v-31.685a4 4 0 0 1 4-4"/><path fill="#fff" d="M-103.542 2804.368c-2.373-2.382-2.723-2.76-2.764-2.987-.14-.789.524-1.422 1.332-1.27.22.041.483.27 1.702 1.48l1.443 1.432v-16.6l-4.1 4.1-4.1 4.1 1.963.034c1.923.034 1.969.038 2.232.202.283.176.527.598.527.91s-.244.734-.527.91l-.269.167h-7.643v-3.869c0-3.799.002-3.872.143-4.06.27-.362.495-.479.921-.479.297 0 .449.039.612.155.423.302.443.42.443 2.6v1.97l4.899-4.898 4.899-4.899v-5.113l-.296-.127c-.572-.247-1.22-.827-1.562-1.397-.462-.77-.573-1.93-.268-2.794.69-1.954 2.98-2.85 4.795-1.876.463.248 1.17.958 1.393 1.398.853 1.685.229 3.686-1.421 4.553l-.487.256v5.1l5.003 5.003 5.003 5.003v-2.075c0-1.985.007-2.087.147-2.337.293-.521.992-.712 1.457-.399.129.087.306.264.393.394l.158.235-.017 3.828-.018 3.828-3.58.02c-1.967.012-3.713.002-3.878-.022a1.04 1.04 0 0 1-.573-.288c-.603-.545-.484-1.276.3-1.841.01-.007.87-.03 1.911-.053l1.894-.04-4.1-4.099-4.1-4.1v16.537l1.372-1.369c.755-.752 1.46-1.4 1.568-1.44a1.09 1.09 0 0 1 1.281.413c.193.282.215.854.043 1.114-.123.185-5.316 5.418-5.378 5.418-.02 0-1.26-1.228-2.754-2.728"/><path fill="#f15623" d="M-327.654 3003.529h31.685a4 4 0 0 1 4 4v31.685a4 4 0 0 1-4 4h-31.685a4 4 0 0 1-4-4v-31.685a4 4 0 0 1 4-4"/><path fill="#fff" d="M-314.724 3038.36c-2.372-2.381-2.722-2.76-2.763-2.986-.14-.789.524-1.422 1.332-1.27.22.04.483.27 1.702 1.48l1.443 1.432v-16.6l-4.1 4.1-4.1 4.099 1.963.035c1.923.034 1.969.038 2.232.202.283.176.527.597.527.91 0 .312-.244.734-.527.91l-.269.167h-7.643v-3.869c0-3.8.002-3.872.143-4.061.27-.361.495-.478.921-.478.297 0 .449.038.612.155.423.301.443.42.443 2.6v1.97l4.899-4.899 4.899-4.899v-5.112l-.296-.128c-.572-.247-1.22-.826-1.562-1.396-.462-.77-.573-1.93-.268-2.795.69-1.953 2.98-2.85 4.795-1.876.463.249 1.17.959 1.393 1.399.853 1.685.229 3.685-1.422 4.553l-.486.255v5.1l5.003 5.003 5.003 5.003v-2.075c0-1.985.006-2.086.147-2.337.293-.52.991-.712 1.457-.398.129.087.306.264.393.393l.158.236-.018 3.828-.018 3.828-3.578.02c-1.968.011-3.714.001-3.88-.022-.208-.03-.384-.119-.572-.289-.603-.545-.484-1.276.3-1.841.01-.007.87-.03 1.911-.052l1.894-.04-4.1-4.1-4.1-4.099v16.536l1.372-1.368c.755-.753 1.46-1.401 1.568-1.441a1.09 1.09 0 0 1 1.281.413c.193.282.215.854.043 1.114-.123.186-5.316 5.418-5.378 5.418-.02 0-1.26-1.227-2.754-2.727"/><path fill="#f15623" d="M-827.968 2769.537h31.684a4 4 0 0 1 4 4v31.685a4 4 0 0 1-4 4h-31.684a4 4 0 0 1-4-4v-31.685a4 4 0 0 1 4-4"/><path fill="#fff" d="M-815.039 2804.368c-2.372-2.382-2.722-2.76-2.763-2.987-.14-.789.524-1.422 1.332-1.27.22.041.483.27 1.702 1.48l1.443 1.432v-16.6l-4.1 4.1-4.1 4.1 1.963.034c1.923.034 1.969.038 2.232.202.283.176.527.598.527.91s-.244.734-.527.91l-.269.167h-7.643v-3.869c0-3.799.002-3.872.143-4.06.27-.362.495-.479.921-.479.297 0 .449.039.612.155.423.302.443.42.443 2.6v1.97l4.899-4.898 4.899-4.899v-5.113l-.296-.127c-.572-.247-1.22-.827-1.562-1.397-.462-.77-.573-1.93-.268-2.794.69-1.954 2.98-2.85 4.795-1.876.463.248 1.17.958 1.393 1.398.853 1.685.229 3.686-1.421 4.553l-.487.256v5.1l5.003 5.003 5.003 5.003v-2.075c0-1.985.006-2.087.147-2.337.293-.521.991-.712 1.457-.399.129.087.306.264.393.394l.158.235-.018 3.828-.017 3.828-3.58.02c-1.967.012-3.713.002-3.879-.022a1.04 1.04 0 0 1-.572-.288c-.603-.545-.484-1.276.3-1.841.01-.007.87-.03 1.911-.053l1.894-.04-4.1-4.099-4.1-4.1v16.537l1.372-1.369c.755-.752 1.46-1.4 1.568-1.44a1.09 1.09 0 0 1 1.281.413c.193.282.215.854.043 1.114-.123.185-5.316 5.418-5.378 5.418-.02 0-1.26-1.228-2.754-2.728"/><path fill="#f15623" d="M-460.56 2428.949H-349a8 8 0 0 1 8 8v23.685a8 8 0 0 1-8 8h-111.56a8 8 0 0 1-8-8v-23.685a8 8 0 0 1 8-8"/><text fill="#fff" transform="translate(-463.56 2439.06)"><tspan x="3.676" y="16" font-family="Helvetica Neue" font-size="16" font-weight="bold">Edge Gateway</tspan></text><path stroke="#1d2dc2" stroke-linecap="round" stroke-linejoin="round" stroke-width="2" marker-end="url(#g)" d="M-468.56 2456.353c-99.71 13.638-289.538 47.322-371.13 113.75-94.91 77.27-5.964 168.389 25.307 195.855"/><path stroke="#1d2dc2" stroke-linecap="round" stroke-linejoin="round" stroke-width="2" marker-end="url(#g)" d="M-680.867 2796.497c95.363 13.899 295.553 47.689 384.827 97.249 79.79 44.295 45.91 87.27 14.641 110.912"/><path fill="#000" d="M-211.251 2429.83v37.922c0 2.98 2.41 5.417 5.417 5.417h37.921c2.98 0 5.418-2.437 5.418-5.417v-37.921c0-2.98-2.438-5.418-5.418-5.418h-37.921a5.416 5.416 0 0 0-5.417 5.418m32.504 10.835a8.115 8.115 0 0 1-8.126 8.126 8.115 8.115 0 0 1-8.126-8.126 8.115 8.115 0 0 1 8.126-8.126 8.115 8.115 0 0 1 8.126 8.126m-24.378 21.67c0-5.418 10.834-8.397 16.252-8.397s16.252 2.98 16.252 8.397v2.708h-32.504z"/><path stroke="#1d2dc2" stroke-linecap="round" stroke-linejoin="round" stroke-width="2" marker-end="url(#g)" d="M-211.251 2448.791H-328.1"/><path stroke="#1d2dc2" stroke-linecap="round" stroke-linejoin="round" stroke-width="2" marker-end="url(#g)" d="M-468.56 2459.635c-76.83 16.287-188.678 52.421-129.827 118.322 71.481 80.045 366.913 172.782 465.539 202.067"/><text fill="#000" transform="translate(-204.801 2478.17)"><tspan x="0" y="16" font-family="Helvetica Neue" font-size="16" font-weight="bold">User</tspan></text><path fill="url(#h)" d="m-499.628 2433.07-8.139-14.097a3.57 3.57 0 0 1 0-3.565l8.14-14.098a3.57 3.57 0 0 1 3.087-1.782h16.277c1.274 0 2.45.68 3.088 1.782l8.138 14.098a3.57 3.57 0 0 1 0 3.565l-8.138 14.098a3.57 3.57 0 0 1-3.088 1.782h-16.277c-1.274 0-2.45-.68-3.088-1.782"/><path fill="#fff" d="m-480.641 2412.228-7.34-4.239a.84.84 0 0 0-.838 0l-7.34 4.238a.84.84 0 0 0-.418.725v8.476c0 .3.159.575.418.725l7.34 4.238c.26.15.578.15.837 0l7.34-4.238a.84.84 0 0 0 .419-.725v-8.476a.84.84 0 0 0-.418-.725m-1.007 8.39-2.561-1.478v-3.895l-3.782 2.182v4.369l3.373-1.948 2.56 1.479-6.342 3.662-6.344-3.662 2.561-1.479 3.374 1.948v-4.369l-3.782-2.182v3.895l-2.561 1.478v-7.324l6.343-3.662v2.957l-3.373 1.947 3.782 2.183 3.782-2.183-3.373-1.947v-2.957l6.343 3.662zm156.928 175.601h140.992v28.448H-324.72z"/><text fill="#000" transform="translate(-319.72 2601.218)"><tspan x="0" y="15" font-family="Helvetica Neue" font-size="16" font-style="italic">Exchange bundles</tspan></text><path fill="#fff" d="M-601.63 2893.667h140.992v28.448H-601.63z"/><text fill="#000" transform="translate(-596.63 2898.667)"><tspan x="0" y="15" font-family="Helvetica Neue" font-size="16" font-style="italic">Exchange bundles</tspan></text><path stroke="#000" stroke-dasharray="8 8" stroke-linecap="round" stroke-linejoin="round" stroke-width="2" marker-end="url(#b)" marker-start="url(#c)" d="M-404.78 2536.809v449.031"/><path fill="#333" d="M-445.543 3051.003h88.882a8 8 0 0 1 8 8v23.685a8 8 0 0 1-8 8h-88.882a8 8 0 0 1-8-8v-23.685a8 8 0 0 1 8-8"/><text fill="#fff" transform="translate(-448.543 3061.113)"><tspan x=".017" y="16" font-family="Helvetica Neue" font-size="16">productpage</tspan></text><path fill="#fff" d="M-475.276 2758.92h140.992v28.448h-140.992z"/><text fill="#000" transform="translate(-470.276 2763.92)"><tspan x="0" y="15" font-family="Helvetica Neue" font-size="16" font-style="italic">Exchange bundles</tspan></text><path stroke="#1d2dc2" stroke-linecap="round" stroke-linejoin="round" stroke-width="2" marker-end="url(#g)" d="M-468.48 2461.759c-64.3 18.864-151.673 63.446-133.15 164.871 25.403 139.104 239.419 327.233 288.261 368.626"/><path stroke="#000" stroke-dasharray="8 8" stroke-linecap="round" stroke-linejoin="round" stroke-width="2" marker-end="url(#b)" marker-start="url(#c)" d="m-368.306 2990.037 244.243-223.224"/><path fill="#fff" d="M-305.067 2853.587h140.992v28.448h-140.992z"/><text fill="#000" transform="translate(-300.067 2858.587)"><tspan x="0" y="15" font-family="Helvetica Neue" font-size="16" font-style="italic">Exchange bundles</tspan></text></g></svg>