<svg xmlns="http://www.w3.org/2000/svg" xmlns:xl="http://www.w3.org/1999/xlink" width="1108" height="545" version="1.1" viewBox="-4583 37 1108 545"><defs><marker id="FilledArrow_Marker" stroke-linejoin="miter" stroke-miterlimit="10" color="#000" markerHeight="6" markerUnits="strokeWidth" markerWidth="7" orient="auto" overflow="visible" viewBox="-1 -3 7 6"><g><path fill="currentColor" stroke="currentColor" stroke-width="1" d="M 4.8 0 L 0 -1.8 L 0 1.8 Z"/></g></marker></defs><g id="tsb-workflow" fill="none" fill-opacity="1" stroke="none" stroke-dasharray="none" stroke-opacity="1"><title>tsb-workflow</title><rect width="1108" height="545" x="-4583" y="37" fill="#fff"/><g id="tsb-workflow_Layer_1"><title>Layer 1</title><g id="Line_34"><line x1="-4442.599" x2="-4442.599" y1="492.646" y2="401.246" stroke="#000" stroke-linecap="round" stroke-linejoin="round" stroke-width="2" marker-end="url(#FilledArrow_Marker)"/></g><g id="Line_35"><line x1="-4442.599" x2="-4442.599" y1="320.315" y2="241.089" stroke="#000" stroke-linecap="round" stroke-linejoin="round" stroke-width="2" marker-end="url(#FilledArrow_Marker)"/></g><g id="Line_36"><line x1="-4442.599" x2="-4442.599" y1="160.157" y2="139.042" stroke="#000" stroke-linecap="round" stroke-linejoin="round" stroke-width="2" marker-end="url(#FilledArrow_Marker)"/></g><g id="Line_37"><line x1="-4048.583" x2="-4048.583" y1="216.266" y2="246.824" stroke="#000" stroke-linecap="round" stroke-linejoin="round" stroke-width="2" marker-end="url(#FilledArrow_Marker)"/></g><g id="Line_38"><line x1="-4048.583" x2="-4048.583" y1="327.756" y2="402.73" stroke="#000" stroke-linecap="round" stroke-linejoin="round" stroke-width="2" marker-end="url(#FilledArrow_Marker)"/></g><g id="Line_40"><line x1="-3816.85" x2="-3816.85" y1="327.756" y2="402.73" stroke="#000" stroke-linecap="round" stroke-linejoin="round" stroke-width="2" marker-end="url(#FilledArrow_Marker)"/></g><g id="Line_44"><path stroke="#000" stroke-linecap="round" stroke-linejoin="round" stroke-width="2" marker-end="url(#FilledArrow_Marker)" d="M -3991.181 101.69291 L -4048.757 101.69291 L -4048.757 140.07916 L -4048.5827 151.9563 L -4048.5827 156.82441"/></g><g id="Line_48"><line x1="-3816.85" x2="-3816.85" y1="135.709" y2="246.824" stroke="#000" stroke-linecap="round" stroke-linejoin="round" stroke-width="2" marker-end="url(#FilledArrow_Marker)"/></g><g id="Line_49"><path stroke="#000" stroke-linecap="round" stroke-linejoin="round" stroke-width="2" marker-end="url(#FilledArrow_Marker)" d="M -3757.323 101.69291 L -3746.323 101.69291 L -3664.3005 101.41405 L -3585.8504 101.41405 L -3585.8504 245.8244"/></g><g id="Graphic_31"><path stroke="gray" stroke-dasharray="4 4" stroke-linecap="round" stroke-linejoin="round" stroke-width="1" d="M -4559.5276 149.94488 L -4325.6693 149.94488 L -4325.6693 416.4016 L -4559.5276 416.4016 Z"/><text fill="#000" transform="translate(-4554.5276 392.9536)"><tspan x="0" y="15" fill="#000" font-family="Helvetica Neue" font-size="16">east</tspan></text></g><g id="Graphic_28"><path stroke="gray" stroke-dasharray="4 4" stroke-linecap="round" stroke-linejoin="round" stroke-width="1" d="M -4147.0867 246.25984 L -3950.079 246.25984 L -3950.079 512.71654 L -4147.0867 512.71654 Z"/><text fill="#000" transform="translate(-4142.0867 489.26854)"><tspan x="0" y="15" fill="#000" font-family="Helvetica Neue" font-size="16">east</tspan></text></g><g id="Graphic_30"><path stroke="gray" stroke-dasharray="4 4" stroke-linecap="round" stroke-linejoin="round" stroke-width="1" d="M -3683.622 246.25984 L -3486.614 246.25984 L -3486.614 512.71654 L -3683.622 512.71654 Z"/><text fill="#000" transform="translate(-3678.622 489.26854)"><tspan x="0" y="15" fill="#000" font-family="Helvetica Neue" font-size="16">VPC</tspan></text></g><g id="Graphic_29"><path stroke="gray" stroke-dasharray="4 4" stroke-linecap="round" stroke-linejoin="round" stroke-width="1" d="M -3915.7205 246.25984 L -3718.7126 246.25984 L -3718.7126 512.71654 L -3915.7205 512.71654 Z"/><text fill="#000" transform="translate(-3910.7205 489.26854)"><tspan x="0" y="15" fill="#000" font-family="Helvetica Neue" font-size="16">west</tspan></text></g><g id="Graphic_8"><path fill="#f15623" d="M -4551.5276 58.11024 L -4333.6693 58.11024 C -4329.251 58.11024 -4325.6693 61.69196 -4325.6693 66.11024 L -4325.6693 118.14173 C -4325.6693 122.56001 -4329.251 126.14173 -4333.6693 126.14173 L -4551.5276 126.14173 C -4555.946 126.14173 -4559.5276 122.56001 -4559.5276 118.14173 L -4559.5276 66.11024 C -4559.5276 61.69196 -4555.946 58.11024 -4551.5276 58.11024 Z"/><text fill="#fff" transform="translate(-4554.5276 82.39393)"><tspan x="96.217" y="16" fill="#fff" font-family="Helvetica Neue" font-size="16" font-weight="bold">TSB</tspan></text></g><g id="Graphic_13"><path fill="#f15623" d="M -4526.7245 160.15748 L -4358.4725 160.15748 C -4354.054 160.15748 -4350.4725 163.7392 -4350.4725 168.15748 L -4350.4725 220.18898 C -4350.4725 224.60726 -4354.054 228.18898 -4358.4725 228.18898 L -4526.7245 228.18898 C -4531.1427 228.18898 -4534.7245 224.60726 -4534.7245 220.18898 L -4534.7245 168.15748 C -4534.7245 163.7392 -4531.1427 160.15748 -4526.7245 160.15748 Z"/><text fill="#fff" transform="translate(-4529.7245 184.44117)"><tspan x="12.174" y="16" fill="#fff" font-family="Helvetica Neue" font-size="16" font-weight="bold">Local Control Plane</tspan></text></g><g id="Graphic_14"><path fill="#f15623" d="M -3983.181 67.67717 L -3765.323 67.67717 C -3760.9046 67.67717 -3757.323 71.25889 -3757.323 75.67717 L -3757.323 127.70866 C -3757.323 132.12694 -3760.9046 135.70866 -3765.323 135.70866 L -3983.181 135.70866 C -3987.5994 135.70866 -3991.181 132.12694 -3991.181 127.70866 L -3991.181 75.67717 C -3991.181 71.25889 -3987.5994 67.67717 -3983.181 67.67717 Z"/><text fill="#fff" transform="translate(-3986.181 91.96086)"><tspan x="96.217" y="16" fill="#fff" font-family="Helvetica Neue" font-size="16" font-weight="bold">TSB</tspan></text></g><g id="Graphic_15"><path fill="#999" d="M -4500 248.0315 L -4385.197 248.0315 L -4385.197 289.98425 C -4419.638 284.74016 -4465.559 305.71654 -4500 295.22835 Z"/><text fill="#fff" transform="translate(-4495 262.40592)"><tspan x="7.53" y="15" fill="#fff" font-family="Helvetica Neue" font-size="16">New Service</tspan></text></g><g id="Graphic_16"><path fill="#666" d="M -4526.7245 320.31496 L -4358.4725 320.31496 C -4354.054 320.31496 -4350.4725 323.8967 -4350.4725 328.31496 L -4350.4725 380.34646 C -4350.4725 384.76474 -4354.054 388.34646 -4358.4725 388.34646 L -4526.7245 388.34646 C -4531.1427 388.34646 -4534.7245 384.76474 -4534.7245 380.34646 L -4534.7245 328.31496 C -4534.7245 323.8967 -4531.1427 320.31496 -4526.7245 320.31496 Z"/><text fill="#fff" transform="translate(-4529.7245 344.59866)"><tspan x=".446" y="16" fill="#fff" font-family="Helvetica Neue" font-size="16" font-weight="bold">Kubernetes API Server</tspan></text></g><g id="Graphic_17"><path fill="#f15623" d="M -4147.0867 169.72441 L -3950.079 169.72441 L -3950.079 211.67717 C -4009.181 206.43307 -4087.9843 227.40945 -4147.0867 216.92126 Z"/><text fill="#fff" transform="translate(-4142.0867 184.09884)"><tspan x="22.256" y="15" fill="#fff" font-family="Helvetica Neue" font-size="16">Expose new service</tspan></text></g><g id="Graphic_18"><path fill="#f15623" d="M -4122.7874 259.7244 L -3974.378 259.7244 C -3969.9597 259.7244 -3966.378 263.30613 -3966.378 267.7244 L -3966.378 319.7559 C -3966.378 324.1742 -3969.9597 327.7559 -3974.378 327.7559 L -4122.7874 327.7559 C -4127.2057 327.7559 -4130.7874 324.1742 -4130.7874 319.7559 L -4130.7874 267.7244 C -4130.7874 263.30613 -4127.2057 259.7244 -4122.7874 259.7244 Z"/><text fill="#fff" transform="translate(-4125.7874 284.0081)"><tspan x="2.253" y="16" fill="#fff" font-family="Helvetica Neue" font-size="16" font-weight="bold">Local Control Plane</tspan></text></g><g id="Graphic_19"><path fill="#999" d="M -4130.7874 345.47244 L -3966.378 345.47244 L -3966.378 387.4252 C -4015.701 382.1811 -4081.4646 403.1575 -4130.7874 392.6693 Z"/><text fill="#fff" transform="translate(-4125.7874 359.84687)"><tspan x="14.989" y="15" fill="#fff" font-family="Helvetica Neue" font-size="16">VirtualService CR</tspan></text></g><g id="Graphic_20"><path fill="#666" d="M -4122.7874 415.62993 L -3974.378 415.62993 C -3969.9597 415.62993 -3966.378 419.21165 -3966.378 423.6299 L -3966.378 475.6614 C -3966.378 480.0797 -3969.9597 483.6614 -3974.378 483.6614 L -4122.7874 483.6614 C -4127.2057 483.6614 -4130.7874 480.0797 -4130.7874 475.6614 L -4130.7874 423.6299 C -4130.7874 419.21165 -4127.2057 415.62993 -4122.7874 415.62993 Z"/><text fill="#fff" transform="translate(-4125.7874 430.18156)"><tspan x="17.509" y="16" fill="#fff" font-family="Helvetica Neue" font-size="16" font-weight="bold">Kubernetes API </tspan> <tspan x="52.445" y="35.464" fill="#fff" font-family="Helvetica Neue" font-size="16" font-weight="bold">Server</tspan></text></g><g id="Graphic_21"><path fill="#f15623" d="M -3863.622 169.72441 L -3547.559 169.72441 L -3547.559 211.67717 C -3642.378 206.43307 -3768.803 227.40945 -3863.622 216.92126 Z"/><text fill="#fff" transform="translate(-3858.622 184.09884)"><tspan x="50.079" y="15" fill="#fff" font-family="Helvetica Neue" font-size="16">New service available in east</tspan></text></g><g id="Graphic_24"><path fill="#f15623" d="M -3891.055 259.7244 L -3742.6457 259.7244 C -3738.2274 259.7244 -3734.6457 263.30613 -3734.6457 267.7244 L -3734.6457 319.7559 C -3734.6457 324.1742 -3738.2274 327.7559 -3742.6457 327.7559 L -3891.055 327.7559 C -3895.4734 327.7559 -3899.055 324.1742 -3899.055 319.7559 L -3899.055 267.7244 C -3899.055 263.30613 -3895.4734 259.7244 -3891.055 259.7244 Z"/><text fill="#fff" transform="translate(-3894.055 284.0081)"><tspan x="2.253" y="16" fill="#fff" font-family="Helvetica Neue" font-size="16" font-weight="bold">Local Control Plane</tspan></text></g><g id="Graphic_23"><path fill="#999" d="M -3899.055 345.47244 L -3734.6457 345.47244 L -3734.6457 387.4252 C -3783.9685 382.1811 -3849.7323 403.1575 -3899.055 392.6693 Z"/><text fill="#fff" transform="translate(-3894.055 359.84687)"><tspan x="18.693" y="15" fill="#fff" font-family="Helvetica Neue" font-size="16">ServiceEntry CR</tspan></text></g><g id="Graphic_22"><path fill="#666" d="M -3891.055 415.62993 L -3742.6457 415.62993 C -3738.2274 415.62993 -3734.6457 419.21165 -3734.6457 423.6299 L -3734.6457 475.6614 C -3734.6457 480.0797 -3738.2274 483.6614 -3742.6457 483.6614 L -3891.055 483.6614 C -3895.4734 483.6614 -3899.055 480.0797 -3899.055 475.6614 L -3899.055 423.6299 C -3899.055 419.21165 -3895.4734 415.62993 -3891.055 415.62993 Z"/><text fill="#fff" transform="translate(-3894.055 430.18156)"><tspan x="17.509" y="16" fill="#fff" font-family="Helvetica Neue" font-size="16" font-weight="bold">Kubernetes API </tspan> <tspan x="52.445" y="35.464" fill="#fff" font-family="Helvetica Neue" font-size="16" font-weight="bold">Server</tspan></text></g><g id="Graphic_27"><path fill="#f15623" d="M -3660.055 258.7244 L -3511.6457 258.7244 C -3507.2274 258.7244 -3503.6457 262.30613 -3503.6457 266.7244 L -3503.6457 318.7559 C -3503.6457 323.1742 -3507.2274 326.7559 -3511.6457 326.7559 L -3660.055 326.7559 C -3664.4734 326.7559 -3668.055 323.1742 -3668.055 318.7559 L -3668.055 266.7244 C -3668.055 262.30613 -3664.4734 258.7244 -3660.055 258.7244 Z"/><text fill="#fff" transform="translate(-3663.055 283.0081)"><tspan x="2.253" y="16" fill="#fff" font-family="Helvetica Neue" font-size="16" font-weight="bold">Local Control Plane</tspan></text></g><g id="Graphic_26"><path fill="#999" d="M -3648.756 317.12598 L -3521.4066 318.12596 L -3503.6457 332.8661 L -3503.6667 359.07873 L -3648.756 359.07873 Z"/><text fill="#fff" transform="translate(-3643.756 328.87835)"><tspan x="22.523" y="15" fill="#fff" font-family="Helvetica Neue" font-size="16">ServiceEntry</tspan></text></g><g id="Graphic_25"><path fill="#666" d="M -3660.055 414.62993 L -3511.6457 414.62993 C -3507.2274 414.62993 -3503.6457 418.21165 -3503.6457 422.6299 L -3503.6457 474.6614 C -3503.6457 479.0797 -3507.2274 482.6614 -3511.6457 482.6614 L -3660.055 482.6614 C -3664.4734 482.6614 -3668.055 479.0797 -3668.055 474.6614 L -3668.055 422.6299 C -3668.055 418.21165 -3664.4734 414.62993 -3660.055 414.62993 Z"/><text fill="#fff" transform="translate(-3663.055 438.9136)"><tspan x="10.837" y="16" fill="#fff" font-family="Helvetica Neue" font-size="16" font-weight="bold">VM Control Plane</tspan></text></g><g id="Graphic_32"><path fill="#999" d="M -4500 429.0102 L -4385.197 429.0102 L -4385.197 470.96296 C -4419.638 465.71886 -4465.559 486.69524 -4500 476.20705 Z"/><text fill="#fff" transform="translate(-4495 443.38463)"><tspan x="7.53" y="15" fill="#fff" font-family="Helvetica Neue" font-size="16">New Service</tspan></text></g><g id="Graphic_33"><path fill="#666" d="M -4516.803 492.6457 L -4368.394 492.6457 C -4363.9755 492.6457 -4360.394 496.2274 -4360.394 500.6457 L -4360.394 552.6772 C -4360.394 557.09545 -4363.9755 560.6772 -4368.394 560.6772 L -4516.803 560.6772 C -4521.2215 560.6772 -4524.803 557.09545 -4524.803 552.6772 L -4524.803 500.6457 C -4524.803 496.2274 -4521.2215 492.6457 -4516.803 492.6457 Z"/><text fill="#fff" transform="translate(-4519.803 507.1973)"><tspan x="48.917" y="16" fill="#fff" font-family="Helvetica Neue" font-size="16" font-weight="bold">kubectl</tspan> <tspan x="22.685" y="35.464" fill="#fff" font-family="Helvetica Neue" font-size="16" font-weight="bold">(Users, CI/CD)</tspan></text></g><g id="Graphic_50"><rect width="2.835" height="502.567" x="-4237.795" y="58.11" fill="#000"/><rect width="2.835" height="502.567" x="-4237.795" y="58.11" stroke="#000" stroke-linecap="round" stroke-linejoin="round" stroke-width="1"/></g><g id="Graphic_51"><path fill="#999" d="M -4286.693 304.1929 L -4286.693 276.2008 L -4197.063 276.2008 L -4197.063 262.20473 L -4186.063 290.19685 L -4197.063 318.18898 L -4197.063 304.1929 Z"/><path stroke="gray" stroke-linecap="round" stroke-linejoin="round" stroke-width="1" d="M -4286.693 304.1929 L -4286.693 276.2008 L -4197.063 276.2008 L -4197.063 262.20473 L -4186.063 290.19685 L -4197.063 318.18898 L -4197.063 304.1929 Z"/></g></g></g></svg>