<svg xmlns="http://www.w3.org/2000/svg" xmlns:xl="http://www.w3.org/1999/xlink" width="1483" height="670" version="1.1" viewBox="-4878 187 1483 670"><defs><marker id="FilledArrow_Marker" stroke-linejoin="miter" stroke-miterlimit="10" color="#000" markerHeight="6" markerUnits="strokeWidth" markerWidth="7" orient="auto" overflow="visible" viewBox="-1 -3 7 6"><g><path fill="currentColor" stroke="currentColor" stroke-width="1" d="M 4.8 0 L 0 -1.8 L 0 1.8 Z"/></g></marker></defs><g id="tsb-bgp" fill="none" fill-opacity="1" stroke="none" stroke-dasharray="none" stroke-opacity="1"><title>tsb-bgp</title><rect width="1483" height="670" x="-4878" y="187" fill="#fff"/><g id="tsb-bgp_Layer_1"><title>Layer 1</title><g id="Line_40"><line x1="-4432.677" x2="-4432.677" y1="748.634" y2="633.706" stroke="#000" stroke-linecap="round" stroke-linejoin="round" stroke-width="2" marker-end="url(#FilledArrow_Marker)"/></g><g id="Line_41"><line x1="-4432.677" x2="-4432.677" y1="564.114" y2="448.435" stroke="#000" stroke-linecap="round" stroke-linejoin="round" stroke-width="2" marker-end="url(#FilledArrow_Marker)"/></g><g id="Line_42"><line x1="-4432.677" x2="-4432.677" y1="378.843" y2="277.522" stroke="#000" stroke-linecap="round" stroke-linejoin="round" stroke-width="2" marker-end="url(#FilledArrow_Marker)"/></g><g id="Line_46"><line x1="-4524.803" x2="-4576.391" y1="592.46" y2="592.46" stroke="#000" stroke-linecap="round" stroke-linejoin="round" stroke-width="2" marker-end="url(#FilledArrow_Marker)"/></g><g id="Line_59"><line x1="-3796.299" x2="-3796.299" y1="369.433" y2="449.852" stroke="#000" stroke-linecap="round" stroke-linejoin="round" stroke-width="2" marker-end="url(#FilledArrow_Marker)"/></g><g id="Line_50"><line x1="-3888.425" x2="-3940.013" y1="491.098" y2="491.098" stroke="#000" stroke-linecap="round" stroke-linejoin="round" stroke-width="2" marker-end="url(#FilledArrow_Marker)"/></g><g id="Line_61"><line x1="-4045.039" x2="-4045.039" y1="462.752" y2="357.727" stroke="#000" stroke-linecap="round" stroke-linejoin="round" stroke-width="2" marker-end="url(#FilledArrow_Marker)"/></g><g id="Line_70"><line x1="-3525.591" x2="-3525.591" y1="655.315" y2="735.734" stroke="#000" stroke-linecap="round" stroke-linejoin="round" stroke-width="2" marker-end="url(#FilledArrow_Marker)"/></g><g id="Line_63"><line x1="-3617.717" x2="-3669.305" y1="776.98" y2="776.98" stroke="#000" stroke-linecap="round" stroke-linejoin="round" stroke-width="2" marker-end="url(#FilledArrow_Marker)"/></g><g id="Line_62"><line x1="-3774.331" x2="-3774.331" y1="748.634" y2="643.609" stroke="#000" stroke-linecap="round" stroke-linejoin="round" stroke-width="2" marker-end="url(#FilledArrow_Marker)"/></g><g id="Line_74"><path stroke="#000" stroke-linecap="round" stroke-linejoin="round" stroke-width="2" marker-end="url(#FilledArrow_Marker)" d="M -3865.0394 254.47047 L -3865.0394 284.17112 L -3796.2992 284.17112 L -3796.2992 299.83988"/></g><g id="Line_76"><path stroke="#000" stroke-linecap="round" stroke-linejoin="round" stroke-width="2" marker-end="url(#FilledArrow_Marker)" d="M -3782.8347 234.1496 L -3771.827 234.1496 L -3548.9693 234.28644 L -3525.5906 234.28644 L -3525.5906 585.7218"/></g><g id="Graphic_57"><path stroke="gray" stroke-dasharray="4 4" stroke-linecap="round" stroke-linejoin="round" stroke-width="1" d="M -4182.5197 302.48594 L -3682.2048 302.48594 L -3682.2048 553.17323 L -4182.5197 553.17323 Z"/><text fill="#000" transform="translate(-4177.5197 529.72524)"><tspan x="0" y="15" fill="#000" font-family="Helvetica Neue" font-size="16">us-east</tspan></text></g><g id="Graphic_25"><path stroke="gray" stroke-dasharray="4 4" stroke-linecap="round" stroke-linejoin="round" stroke-width="1" d="M -4860 364.43083 L -4298.74 364.43083 L -4298.74 646.2992 L -4860 646.2992 Z"/><text fill="#000" transform="translate(-4855 622.8512)"><tspan x="0" y="15" fill="#000" font-family="Helvetica Neue" font-size="16">us-east</tspan></text></g><g id="Graphic_21"><path fill="#f15623" d="M -4516.803 207.92914 L -4348.551 207.92914 C -4344.133 207.92914 -4340.551 211.51086 -4340.551 215.92914 L -4340.551 256.62205 C -4340.551 261.04033 -4344.133 264.62205 -4348.551 264.62205 L -4516.803 264.62205 C -4521.2215 264.62205 -4524.803 261.04033 -4524.803 256.62205 L -4524.803 215.92914 C -4524.803 211.51086 -4521.2215 207.92914 -4516.803 207.92914 Z"/><text fill="#fff" transform="translate(-4519.803 226.54354)"><tspan x="40.454" y="16" fill="#fff" font-family="Helvetica Neue" font-size="16" font-weight="bold">XCP Central</tspan></text></g><g id="Graphic_20"><path fill="#f15623" d="M -4516.803 378.84252 L -4348.551 378.84252 C -4344.133 378.84252 -4340.551 382.42425 -4340.551 386.84252 L -4340.551 427.53544 C -4340.551 431.9537 -4344.133 435.53544 -4348.551 435.53544 L -4516.803 435.53544 C -4521.2215 435.53544 -4524.803 431.9537 -4524.803 427.53544 L -4524.803 386.84252 C -4524.803 382.42425 -4521.2215 378.84252 -4516.803 378.84252 Z"/><text fill="#fff" transform="translate(-4519.803 397.45692)"><tspan x="48.75" y="16" fill="#fff" font-family="Helvetica Neue" font-size="16" font-weight="bold">XCP Edge</tspan></text></g><g id="Graphic_18"><path fill="#666" d="M -4426.299 468.1918 L -4270.3937 468.1918 L -4270.3937 527.66896 C -4317.1654 520.2343 -4379.5276 549.9729 -4426.299 535.1036 Z"/><text fill="#fff" transform="translate(-4421.299 483.1997)"><tspan x="0" y="15" fill="#fff" font-family="Helvetica Neue" font-size="16">- Gateway Address</tspan> <tspan x="0" y="33.448" fill="#fff" font-family="Helvetica Neue" font-size="16">- Services</tspan></text></g><g id="Graphic_17"><path fill="#666" d="M -4516.803 564.1135 L -4348.551 564.1135 C -4344.133 564.1135 -4340.551 567.6952 -4340.551 572.1135 L -4340.551 612.8064 C -4340.551 617.2247 -4344.133 620.8064 -4348.551 620.8064 L -4516.803 620.8064 C -4521.2215 620.8064 -4524.803 617.2247 -4524.803 612.8064 L -4524.803 572.1135 C -4524.803 567.6952 -4521.2215 564.1135 -4516.803 564.1135 Z"/><text fill="#fff" transform="translate(-4519.803 582.7279)"><tspan x=".446" y="16" fill="#fff" font-family="Helvetica Neue" font-size="16" font-weight="bold">Kubernetes API Server</tspan></text></g><g id="Graphic_16"><path fill="#f15623" d="M -4505.232 287.71654 L -4360.122 287.71654 L -4360.122 342.14174 C -4403.655 335.3386 -4461.699 362.5512 -4505.232 348.9449 Z"/><text fill="#fff" transform="translate(-4500.232 299.8827)"><tspan x="0" y="15" fill="#fff" font-family="Helvetica Neue" font-size="16">- New Services</tspan> <tspan x="0" y="33.448" fill="#fff" font-family="Helvetica Neue" font-size="16">- Status data</tspan></text></g><g id="Graphic_4"><path fill="#666" d="M -4485.268 748.6339 L -4380.0867 748.6339 C -4375.6684 748.6339 -4372.0867 752.2156 -4372.0867 756.6339 L -4372.0867 797.3268 C -4372.0867 801.7451 -4375.6684 805.3268 -4380.0867 805.3268 L -4485.268 805.3268 C -4489.686 805.3268 -4493.268 801.7451 -4493.268 797.3268 L -4493.268 756.6339 C -4493.268 752.2156 -4489.686 748.6339 -4485.268 748.6339 Z"/><text fill="#fff" transform="translate(-4488.268 767.2483)"><tspan x="32.479" y="16" fill="#fff" font-family="Helvetica Neue" font-size="16" font-weight="bold">CI/CD</tspan></text></g><g id="Graphic_3"><rect width="1.417" height="597.398" x="-4226.457" y="207.929" fill="#000"/><rect width="1.417" height="597.398" x="-4226.457" y="207.929" stroke="#000" stroke-linecap="round" stroke-linejoin="round" stroke-width="1"/></g><g id="Graphic_2"><path fill="#999" d="M -4276.7717 648.5394 L -4276.7717 620.54725 L -4187.142 620.54725 L -4187.142 606.5512 L -4176.142 634.5433 L -4187.142 662.5354 L -4187.142 648.5394 Z"/><path stroke="gray" stroke-linecap="round" stroke-linejoin="round" stroke-width="1" d="M -4276.7717 648.5394 L -4276.7717 620.54725 L -4187.142 620.54725 L -4187.142 606.5512 L -4176.142 634.5433 L -4187.142 662.5354 L -4187.142 648.5394 Z"/></g><g id="Graphic_39"><path fill="#666" d="M -4505.232 677.0013 L -4360.122 677.0013 L -4360.122 718.95405 C -4403.655 713.70996 -4461.699 734.6863 -4505.232 724.19814 Z"/><text fill="#fff" transform="translate(-4500.232 682.1517)"><tspan x="11.387" y="15" fill="#fff" font-family="Helvetica Neue" font-size="16">Deploy bar.com </tspan> <tspan x="41.043" y="33.448" fill="#fff" font-family="Helvetica Neue" font-size="16">Service</tspan></text></g><g id="Graphic_43"><path fill="#456cb0" d="M -4765.5434 564.1135 L -4597.2914 564.1135 C -4592.873 564.1135 -4589.2914 567.6952 -4589.2914 572.1135 L -4589.2914 612.8064 C -4589.2914 617.2247 -4592.873 620.8064 -4597.2914 620.8064 L -4765.5434 620.8064 C -4769.9616 620.8064 -4773.5434 617.2247 -4773.5434 612.8064 L -4773.5434 572.1135 C -4773.5434 567.6952 -4769.9616 564.1135 -4765.5434 564.1135 Z"/><text fill="#fff" transform="translate(-4768.5434 582.7279)"><tspan x="65.814" y="16" fill="#fff" font-family="Helvetica Neue" font-size="16" font-weight="bold">Istiod</tspan></text></g><g id="Graphic_45"><path fill="#456cb0" d="M -4806.646 350.07874 L -4638.394 350.07874 C -4633.9755 350.07874 -4630.394 353.66047 -4630.394 358.07874 L -4630.394 398.77166 C -4630.394 403.18993 -4633.9755 406.77166 -4638.394 406.77166 L -4806.646 406.77166 C -4811.064 406.77166 -4814.646 403.18993 -4814.646 398.77166 L -4814.646 358.07874 C -4814.646 353.66047 -4811.064 350.07874 -4806.646 350.07874 Z"/><text fill="#fff" transform="translate(-4809.646 368.69314)"><tspan x="53.798" y="16" fill="#fff" font-family="Helvetica Neue" font-size="16" font-weight="bold">Gateway</tspan></text></g><g id="Graphic_44"><path fill="#666" d="M -4835.9056 395.0137 L -4735.2756 395.0137 L -4735.2756 436.96647 C -4765.4646 431.7224 -4805.7166 452.69875 -4835.9056 442.21056 Z"/><text fill="#fff" transform="translate(-4830.9056 409.38814)"><tspan x="0" y="15" fill="#fff" font-family="Helvetica Neue" font-size="16">- foo.com</tspan></text></g><g id="Graphic_47"><path fill="#f15623" d="M -3756.4095 207.92914 L -3588.1575 207.92914 C -3583.7392 207.92914 -3580.1575 211.51086 -3580.1575 215.92914 L -3580.1575 252.37008 C -3580.1575 256.78836 -3583.7392 260.37008 -3588.1575 260.37008 L -3756.4095 260.37008 C -3760.8278 260.37008 -3764.4095 256.78836 -3764.4095 252.37008 L -3764.4095 215.92914 C -3764.4095 211.51086 -3760.8278 207.92914 -3756.4095 207.92914 Z"/><text fill="#fff" transform="translate(-3759.4095 224.41755)"><tspan x="40.454" y="16" fill="#fff" font-family="Helvetica Neue" font-size="16" font-weight="bold">XCP Central</tspan></text></g><g id="Graphic_49"><path fill="#f15623" d="M -3947.244 207.92914 L -3782.8347 207.92914 L -3782.8347 249.8819 C -3832.1575 244.6378 -3897.9213 265.61418 -3947.244 255.126 Z"/><text fill="#fff" transform="translate(-3942.244 222.30356)"><tspan x="19.413" y="15" fill="#fff" font-family="Helvetica Neue" font-size="16">Expose bar.com</tspan></text></g><g id="Graphic_56"><path fill="#f15623" d="M -3880.4252 312.73988 L -3712.1733 312.73988 C -3707.755 312.73988 -3704.1733 316.3216 -3704.1733 320.73988 L -3704.1733 361.4328 C -3704.1733 365.85107 -3707.755 369.4328 -3712.1733 369.4328 L -3880.4252 369.4328 C -3884.8435 369.4328 -3888.4252 365.85107 -3888.4252 361.4328 L -3888.4252 320.73988 C -3888.4252 316.3216 -3884.8435 312.73988 -3880.4252 312.73988 Z"/><text fill="#fff" transform="translate(-3883.4252 331.3543)"><tspan x="48.75" y="16" fill="#fff" font-family="Helvetica Neue" font-size="16" font-weight="bold">XCP Edge</tspan></text></g><g id="Graphic_55"><path fill="#456cb0" d="M -3888.4252 385.87433 L -3704.1733 385.87433 L -3704.1733 427.8271 C -3759.449 422.583 -3833.1496 443.55937 -3888.4252 433.0712 Z"/><text fill="#fff" transform="translate(-3883.4252 400.24876)"><tspan x="24.91" y="15" fill="#fff" font-family="Helvetica Neue" font-size="16">VirtualService CR</tspan></text></g><g id="Graphic_54"><path fill="#666" d="M -3880.4252 462.752 L -3712.1733 462.752 C -3707.755 462.752 -3704.1733 466.3337 -3704.1733 470.752 L -3704.1733 511.4449 C -3704.1733 515.86316 -3707.755 519.4449 -3712.1733 519.4449 L -3880.4252 519.4449 C -3884.8435 519.4449 -3888.4252 515.86316 -3888.4252 511.4449 L -3888.4252 470.752 C -3888.4252 466.3337 -3884.8435 462.752 -3880.4252 462.752 Z"/><text fill="#fff" transform="translate(-3883.4252 481.3664)"><tspan x=".446" y="16" fill="#fff" font-family="Helvetica Neue" font-size="16" font-weight="bold">Kubernetes API Server</tspan></text></g><g id="Graphic_53"><path fill="#456cb0" d="M -4129.1654 462.752 L -3960.9134 462.752 C -3956.495 462.752 -3952.9134 466.3337 -3952.9134 470.752 L -3952.9134 511.4449 C -3952.9134 515.86316 -3956.495 519.4449 -3960.9134 519.4449 L -4129.1654 519.4449 C -4133.5837 519.4449 -4137.1654 515.86316 -4137.1654 511.4449 L -4137.1654 470.752 C -4137.1654 466.3337 -4133.5837 462.752 -4129.1654 462.752 Z"/><text fill="#fff" transform="translate(-4132.1654 481.3664)"><tspan x="65.814" y="16" fill="#fff" font-family="Helvetica Neue" font-size="16" font-weight="bold">Istiod</tspan></text></g><g id="Graphic_52"><path fill="#456cb0" d="M -4129.1654 288.13386 L -3960.9134 288.13386 C -3956.495 288.13386 -3952.9134 291.7156 -3952.9134 296.13386 L -3952.9134 336.82677 C -3952.9134 341.24505 -3956.495 344.82677 -3960.9134 344.82677 L -4129.1654 344.82677 C -4133.5837 344.82677 -4137.1654 341.24505 -4137.1654 336.82677 L -4137.1654 296.13386 C -4137.1654 291.7156 -4133.5837 288.13386 -4129.1654 288.13386 Z"/><text fill="#fff" transform="translate(-4132.1654 306.74826)"><tspan x="53.798" y="16" fill="#fff" font-family="Helvetica Neue" font-size="16" font-weight="bold">Gateway</tspan></text></g><g id="Graphic_51"><path fill="#666" d="M -4162.677 334.4882 L -4062.0473 334.4882 L -4062.0473 388.9134 C -4092.2363 382.11024 -4132.488 409.32284 -4162.677 395.71654 Z"/><text fill="#fff" transform="translate(-4157.677 346.65437)"><tspan x="0" y="15" fill="#fff" font-family="Helvetica Neue" font-size="16">- foo.com</tspan> <tspan x="0" y="33.448" fill="#fff" font-family="Helvetica Neue" font-size="16">- bar.com</tspan></text></g><g id="Graphic_71"><path stroke="gray" stroke-dasharray="4 4" stroke-linecap="round" stroke-linejoin="round" stroke-width="1" d="M -3911.811 588.36784 L -3411.496 588.36784 L -3411.496 839.0551 L -3911.811 839.0551 Z"/><text fill="#000" transform="translate(-3906.811 815.6071)"><tspan x="0" y="15" fill="#000" font-family="Helvetica Neue" font-size="16">us-west</tspan></text></g><g id="Graphic_69"><path fill="#f15623" d="M -3609.7166 598.6218 L -3441.4646 598.6218 C -3437.0463 598.6218 -3433.4646 602.2035 -3433.4646 606.6218 L -3433.4646 647.3147 C -3433.4646 651.733 -3437.0463 655.3147 -3441.4646 655.3147 L -3609.7166 655.3147 C -3614.135 655.3147 -3617.7166 651.733 -3617.7166 647.3147 L -3617.7166 606.6218 C -3617.7166 602.2035 -3614.135 598.6218 -3609.7166 598.6218 Z"/><text fill="#fff" transform="translate(-3612.7166 617.2362)"><tspan x="48.75" y="16" fill="#fff" font-family="Helvetica Neue" font-size="16" font-weight="bold">XCP Edge</tspan></text></g><g id="Graphic_68"><path fill="#456cb0" d="M -3626.575 672.8161 L -3424.6063 672.8161 L -3424.6063 714.7688 C -3485.197 709.5247 -3565.9843 730.5011 -3626.575 720.0129 Z"/><text fill="#fff" transform="translate(-3621.575 687.1905)"><tspan x="0" y="15" fill="#fff" font-family="Helvetica Neue" font-size="16">Updated ServiceEntry CRs</tspan></text></g><g id="Graphic_67"><path fill="#666" d="M -3609.7166 748.6339 L -3441.4646 748.6339 C -3437.0463 748.6339 -3433.4646 752.2156 -3433.4646 756.6339 L -3433.4646 797.3268 C -3433.4646 801.7451 -3437.0463 805.3268 -3441.4646 805.3268 L -3609.7166 805.3268 C -3614.135 805.3268 -3617.7166 801.7451 -3617.7166 797.3268 L -3617.7166 756.6339 C -3617.7166 752.2156 -3614.135 748.6339 -3609.7166 748.6339 Z"/><text fill="#fff" transform="translate(-3612.7166 767.2483)"><tspan x=".446" y="16" fill="#fff" font-family="Helvetica Neue" font-size="16" font-weight="bold">Kubernetes API Server</tspan></text></g><g id="Graphic_66"><path fill="#456cb0" d="M -3858.4567 748.6339 L -3690.2048 748.6339 C -3685.7865 748.6339 -3682.2048 752.2156 -3682.2048 756.6339 L -3682.2048 797.3268 C -3682.2048 801.7451 -3685.7865 805.3268 -3690.2048 805.3268 L -3858.4567 805.3268 C -3862.875 805.3268 -3866.4567 801.7451 -3866.4567 797.3268 L -3866.4567 756.6339 C -3866.4567 752.2156 -3862.875 748.6339 -3858.4567 748.6339 Z"/><text fill="#fff" transform="translate(-3861.4567 767.2483)"><tspan x="65.814" y="16" fill="#fff" font-family="Helvetica Neue" font-size="16" font-weight="bold">Istiod</tspan></text></g><g id="Graphic_65"><path fill="#456cb0" d="M -3858.4567 574.01575 L -3690.2048 574.01575 C -3685.7865 574.01575 -3682.2048 577.5975 -3682.2048 582.01575 L -3682.2048 622.7087 C -3682.2048 627.12694 -3685.7865 630.7087 -3690.2048 630.7087 L -3858.4567 630.7087 C -3862.875 630.7087 -3866.4567 627.12694 -3866.4567 622.7087 L -3866.4567 582.01575 C -3866.4567 577.5975 -3862.875 574.01575 -3858.4567 574.01575 Z"/><text fill="#fff" transform="translate(-3861.4567 592.63015)"><tspan x="53.798" y="16" fill="#fff" font-family="Helvetica Neue" font-size="16" font-weight="bold">Gateway</tspan></text></g><g id="Graphic_64"><path fill="#666" d="M -3891.9685 620.3701 L -3791.3386 620.3701 L -3791.3386 662.32284 C -3821.5276 657.07875 -3861.7796 678.0551 -3891.9685 667.5669 Z"/><text fill="#fff" transform="translate(-3886.9685 634.7445)"><tspan x="0" y="15" fill="#fff" font-family="Helvetica Neue" font-size="16">- foo.com</tspan></text></g><g id="Graphic_72"><path fill="#f15623" d="M -3635.0788 385.87433 L -3416.1024 385.87433 L -3416.1024 440.29953 C -3481.7953 433.4964 -3569.386 460.709 -3635.0788 447.1027 Z"/><text fill="#fff" transform="translate(-3630.0788 407.2645)"><tspan x="4.76" y="15" fill="#fff" font-family="Helvetica Neue" font-size="16">bar.com available in us-east</tspan></text></g><g id="Group_79"><g id="Graphic_36"><path fill="#456cb0" d="M -4842.433 722.7541 L -4756.386 722.7541 C -4751.9676 722.7541 -4748.386 726.3358 -4748.386 730.7541 L -4748.386 746.0544 C -4748.386 750.4727 -4751.9676 754.0544 -4756.386 754.0544 L -4842.433 754.0544 C -4846.8514 754.0544 -4850.433 750.4727 -4850.433 746.0544 L -4850.433 730.7541 C -4850.433 726.3358 -4846.8514 722.7541 -4842.433 722.7541 Z"/><text fill="#fff" transform="translate(-4845.433 728.6722)"><tspan x="11.64" y="16" fill="#fff" font-family="Helvetica Neue" font-size="16">OSS Istio</tspan></text></g><g id="Graphic_37"><path fill="#f15623" d="M -4842.433 761.8795 L -4756.386 761.8795 C -4751.9676 761.8795 -4748.386 765.4612 -4748.386 769.8795 L -4748.386 785.1798 C -4748.386 789.5981 -4751.9676 793.1798 -4756.386 793.1798 L -4842.433 793.1798 C -4846.8514 793.1798 -4850.433 789.5981 -4850.433 785.1798 L -4850.433 769.8795 C -4850.433 765.4612 -4846.8514 761.8795 -4842.433 761.8795 Z"/><text fill="#fff" transform="translate(-4845.433 767.7976)"><tspan x="30.312" y="16" fill="#fff" font-family="Helvetica Neue" font-size="16" font-weight="bold">TSB</tspan></text></g><g id="Graphic_38"><path fill="#666" d="M -4842.433 801.0049 L -4756.386 801.0049 C -4751.9676 801.0049 -4748.386 804.5866 -4748.386 809.0049 L -4748.386 824.3052 C -4748.386 828.7235 -4751.9676 832.3052 -4756.386 832.3052 L -4842.433 832.3052 C -4846.8514 832.3052 -4850.433 828.7235 -4850.433 824.3052 L -4850.433 809.0049 C -4850.433 804.5866 -4846.8514 801.0049 -4842.433 801.0049 Z"/><text fill="#fff" transform="translate(-4845.433 806.923)"><tspan x="24.536" y="16" fill="#fff" font-family="Helvetica Neue" font-size="16" font-weight="bold">Other</tspan></text></g><g id="Graphic_77"><text fill="#000" transform="translate(-4845.433 694.043)"><tspan x="0" y="16" fill="#000" font-family="Helvetica Neue" font-size="16" font-weight="bold">Legend</tspan></text></g><g id="Graphic_78"><rect width="121.181" height="150.012" x="-4860" y="689.043" stroke="gray" stroke-linecap="round" stroke-linejoin="round" stroke-width="1"/></g></g></g></g></svg>