<svg xmlns="http://www.w3.org/2000/svg" xmlns:xlink="http://www.w3.org/1999/xlink" width="722" height="644" version="1.1" viewBox="0 0 722 644" style="fill:none;stroke:none;fill-rule:evenodd;clip-rule:evenodd;stroke-linecap:round;stroke-linejoin:round;stroke-miterlimit:1.5"><style id="fontImports">@import url(https://fonts.googleapis.com/css2?family=Roboto:wght@400;700&amp;display=block);</style><rect width="722" height="644" x="0" y="0" style="fill:#fff"/><g id="items" style="isolation:isolate"><g id="blend" style="mix-blend-mode:normal"><g id="g-root-tf_1q7lb9pcj7jf1-fill" data-item-order="-462240" transform="translate(-9, -9)"><g id="tf_1q7lb9pcj7jf1-fill" fill="#fff" stroke="none"><g><path d="M 10 10L 730 10L 730 652L 10 652Z"/></g></g></g><g id="g-root--1.cu_sy_144uurxcixpn0-fill" data-item-order="-184794" transform="translate(279, 111)"><g id="-1.cu_sy_144uurxcixpn0-fill" fill="#a3a3a3" stroke="none"><g><path d="M 65.766602 478C 80.754802 478 106.000002 373.235 106.000002 244C 106.000002 114.765 80.754802 10 65.766602 10C 80.775202 10.0122 92.941702 115.084 92.941702 244C 92.941702 372.916 80.775202 477.988 65.766602 478ZM 65.765897 478C 80.774597 477.988 92.941097 372.916 92.941097 244C 92.941097 115.084 80.774597 10.0122 65.765897 10L 51.957397 10C 66.060697 18.3945 77.199297 120.263 77.199297 244C 77.199297 367.737 65.382597 469.605 51.279297 478L 65.765897 478ZM 77.2 244C 77.2 367.737 65.3833 469.605 51.28 478L 50.0615 478C 35.0734 478 10 373.235 10 244C 10 114.765 35.0734 10 50.0615 10C 50.6991 10 51.9581 10 51.9581 10C 66.0614 18.3945 77.2 120.263 77.2 244Z"/></g></g></g><g id="g-root-0.cr-medium_cr_zp1cnhcixqf9-fill" data-item-order="-184790" transform="translate(448, 309)"><g id="0.cr-medium_cr_zp1cnhcixqf9-fill" fill="#666" stroke="none"><g><path d="M 10 46C 10 65.882251 26.117749 82 46 82C 65.882251 82 82 65.882251 82 46C 82 26.117749 65.882251 10 46 10C 26.117749 10 10 26.117749 10 46"/></g></g></g><g id="g-root-6.cr-small_cr_73sr1cixr7z-fill" data-item-order="-184782" transform="translate(135, 525)"><g id="6.cr-small_cr_73sr1cixr7z-fill" fill="#3cc583" stroke="none"><g><path d="M 10 40C 10.000002 56.568544 23.431459 70.000002 40.000002 70.000002C 56.568544 70.000002 70.000002 56.568544 70.000002 40.000002C 70.000002 23.431459 56.568544 10.000002 40.000002 10.000002C 23.431459 10.000002 10.000002 23.431459 10.000002 40.000002"/></g></g></g><g id="g-root-5.cr-small_cr_1hhkbbhcixq89-fill" data-item-order="-184774" transform="translate(135, 441)"><g id="5.cr-small_cr_1hhkbbhcixq89-fill" fill="#ba5de5" stroke="none"><g><path d="M 10 40C 10.000002 56.568544 23.431459 70.000002 40.000002 70.000002C 56.568544 70.000002 70.000002 56.568544 70.000002 40.000002C 70.000002 23.431459 56.568544 10.000002 40.000002 10.000002C 23.431459 10.000002 10.000002 23.431459 10.000002 40.000002"/></g></g></g><g id="g-root-4.cr-small_cr_mfg9jhcixr0j-fill" data-item-order="-184766" transform="translate(135, 357)"><g id="4.cr-small_cr_mfg9jhcixr0j-fill" fill="#de58a9" stroke="none"><g><path d="M 10 40C 10.000002 56.568544 23.431459 70.000002 40.000002 70.000002C 56.568544 70.000002 70.000002 56.568544 70.000002 40.000002C 70.000002 23.431459 56.568544 10.000002 40.000002 10.000002C 23.431459 10.000002 10.000002 23.431459 10.000002 40.000002"/></g></g></g><g id="g-root-3.cr-small_cr_94m899cixpfp-fill" data-item-order="-184758" transform="translate(135, 273)"><g id="3.cr-small_cr_94m899cixpfp-fill" fill="#e55753" stroke="none"><g><path d="M 10 40C 10.000002 56.568544 23.431459 70.000002 40.000002 70.000002C 56.568544 70.000002 70.000002 56.568544 70.000002 40.000002C 70.000002 23.431459 56.568544 10.000002 40.000002 10.000002C 23.431459 10.000002 10.000002 23.431459 10.000002 40.000002"/></g></g></g><g id="g-root-2.cr-small_cr_1lymrm5cixrm7-fill" data-item-order="-184750" transform="translate(135, 189)"><g id="2.cr-small_cr_1lymrm5cixrm7-fill" fill="#de8431" stroke="none"><g><path d="M 10 40C 10.000002 56.568544 23.431459 70.000002 40.000002 70.000002C 56.568544 70.000002 70.000002 56.568544 70.000002 40.000002C 70.000002 23.431459 56.568544 10.000002 40.000002 10.000002C 23.431459 10.000002 10.000002 23.431459 10.000002 40.000002"/></g></g></g><g id="g-root-1.cr-small_cr_zs5q31cixrlt-fill" data-item-order="-184742" transform="translate(135, 105)"><g id="1.cr-small_cr_zs5q31cixrlt-fill" fill="#e0cb15" stroke="none"><g><path d="M 10 40C 10.000002 56.568544 23.431459 70.000002 40.000002 70.000002C 56.568544 70.000002 70.000002 56.568544 70.000002 40.000002C 70.000002 23.431459 56.568544 10.000002 40.000002 10.000002C 23.431459 10.000002 10.000002 23.431459 10.000002 40.000002"/></g></g></g><g id="g-root-tx_http_qwizbhcj658l-fill" data-item-order="0" transform="translate(531, 333)"><g id="tx_http_qwizbhcj658l-fill" fill="#484848" stroke="none"><g><text style="font:20px Roboto,sans-serif;white-space:pre" font-family="Roboto, sans-serif" font-size="20"><tspan x="12" y="33.5" dominant-baseline="ideographic">高效的HTTP管理</tspan></text></g></g></g><g id="g-root-tx__1lpwdvxcj7l6x-fill" data-item-order="0" transform="translate(39, 291)"><g id="tx__1lpwdvxcj7l6x-fill" fill="#543a3a" stroke="none"><g><text style="font:20px Roboto,sans-serif;white-space:pre" font-family="Roboto, sans-serif" font-size="20"><tspan x="12" y="33.5" dominant-baseline="ideographic">连接管理</tspan></text></g></g></g><g id="g-root-tx__1ulje4tcj7ke8-fill" data-item-order="0" transform="translate(51, 375)"><g id="tx__1ulje4tcj7ke8-fill" fill="#573e4d" stroke="none"><g><text style="font:20px Roboto,sans-serif;white-space:pre" font-family="Roboto, sans-serif" font-size="20"><tspan x="20" y="33.5" dominant-baseline="ideographic">安全性</tspan></text></g></g></g><g id="g-root-tx__1ha2vrhcj7lz6-fill" data-item-order="0" transform="translate(39, 207)"><g id="tx__1ha2vrhcj7lz6-fill" fill="#4c4034" stroke="none"><g><text style="font:20px Roboto,sans-serif;white-space:pre" font-family="Roboto, sans-serif" font-size="20"><tspan x="12" y="33.5" dominant-baseline="ideographic">流量控制</tspan></text></g></g></g><g id="g-root-tx__13z8uh9cj7keb-fill" data-item-order="0" transform="translate(75, 123)"><g id="tx__13z8uh9cj7keb-fill" fill="#46432d" stroke="none"><g><text style="font:20px Roboto,sans-serif;white-space:pre" font-family="Roboto, sans-serif" font-size="20"><tspan x="16" y="33.5" dominant-baseline="ideographic">路由</tspan></text></g></g></g><g id="g-root-tx__4pfgp9cj67m7-fill" data-item-order="0" transform="translate(15, 459)"><g id="tx__4pfgp9cj67m7-fill" fill="#4f3d58" stroke="none"><g><text style="font:20px Roboto,sans-serif;white-space:pre" font-family="Roboto, sans-serif" font-size="20"><tspan x="16" y="33.5" dominant-baseline="ideographic">监控和日志</tspan></text></g></g></g><g id="g-root-tx__dl2gy5cj66ti-fill" data-item-order="0" transform="translate(15, 543)"><g id="tx__dl2gy5cj66ti-fill" fill="#374840" stroke="none"><g><text style="font:20px Roboto,sans-serif;white-space:pre" font-family="Roboto, sans-serif" font-size="20"><tspan x="16" y="33.5" dominant-baseline="ideographic">集成和扩展</tspan></text></g></g></g><g id="g-root-tx_http_v3lu8dcj7l70-fill" data-item-order="0" transform="translate(237, 39)"><g id="tx_http_v3lu8dcj7l70-fill" fill="#484848" stroke="none"><g><text style="font:20px Roboto,sans-serif;white-space:pre" font-family="Roboto, sans-serif" font-size="20"><tspan x="14.69" y="33.5" dominant-baseline="ideographic">统一HTTP解决方案</tspan></text></g></g></g><g id="g-root--1.cu_sy_144uurxcixpn0-stroke" data-item-order="-184794" transform="translate(279, 111)"><g id="-1.cu_sy_144uurxcixpn0-stroke" fill="none" stroke="#fff" stroke-linecap="round" stroke-linejoin="round" stroke-miterlimit="4" stroke-width="2"><g><path d="M 65.766602 478C 80.754802 478 106.000002 373.2347 106.000002 244C 106.000002 114.7654 80.754802 10 65.766602 10C 80.775202 10.0122 92.941702 115.0836 92.941702 244C 92.941702 372.9165 80.775202 477.9878 65.766602 478ZM 65.765897 478C 80.774597 477.9878 92.941097 372.9165 92.941097 244C 92.941097 115.0836 80.774597 10.0122 65.765897 10L 51.957397 10C 66.060697 18.3945 77.199297 120.2626 77.199297 244C 77.199297 367.7375 65.382597 469.6055 51.279297 478L 65.765897 478ZM 77.2 244C 77.2 367.7375 65.3833 469.6055 51.28 478L 50.0615 478C 35.0734 478 10 373.2347 10 244C 10 114.7654 35.0734 10 50.0615 10C 50.6991 10 51.9581 10 51.9581 10C 66.0614 18.3945 77.2 120.2626 77.2 244Z"/></g></g></g><g id="g-root-0.cr-medium_cr_zp1cnhcixqf9-stroke" data-item-order="-184790" transform="translate(448, 309)"><g id="0.cr-medium_cr_zp1cnhcixqf9-stroke" fill="none" stroke="#fff" stroke-linecap="round" stroke-linejoin="round" stroke-miterlimit="4" stroke-width="2"><g><path d="M 10 46C 10 65.882251 26.117749 82 46 82C 65.882251 82 82 65.882251 82 46C 82 26.117749 65.882251 10 46 10C 26.117749 10 10 26.117749 10 46"/></g></g></g><g id="g-root-6.line_sy_mdkua5cixs06-stroke" data-item-order="-184783" transform="translate(195, 387)"><g id="6.line_sy_mdkua5cixs06-stroke" fill="none" stroke="#3cc583" stroke-linecap="round" stroke-linejoin="round" stroke-miterlimit="4" stroke-width="2"><g><path d="M 272.7 11.52002L 130 178.00002L 10 178.00002"/><path stroke-dasharray="none" d="M 273.7 20.32002L 273 11.12002L 263.9 11.82002"/></g></g></g><g id="g-root-6.cr-small_cr_73sr1cixr7z-stroke" data-item-order="-184782" transform="translate(135, 525)"><g id="6.cr-small_cr_73sr1cixr7z-stroke" fill="none" stroke="#fff" stroke-linecap="round" stroke-linejoin="round" stroke-miterlimit="4" stroke-width="2"><g><path d="M 10 40C 10.000002 56.568544 23.431459 70.000002 40.000002 70.000002C 56.568544 70.000002 70.000002 56.568544 70.000002 40.000002C 70.000002 23.431459 56.568544 10.000002 40.000002 10.000002C 23.431459 10.000002 10.000002 23.431459 10.000002 40.000002"/></g></g></g><g id="g-root-5.line_sy_1useclpcixrt4-stroke" data-item-order="-184775" transform="translate(195, 373)"><g id="5.line_sy_1useclpcixrt4-stroke" fill="none" stroke="#ba5de5" stroke-linecap="round" stroke-linejoin="round" stroke-miterlimit="4" stroke-width="2"><g><path d="M 257.41 11.209961L 130 107.999961L 10 107.999961"/><path stroke-dasharray="none" d="M 256.6 20.009961L 257.8 10.909961L 248.7 9.709961"/></g></g></g><g id="g-root-5.cr-small_cr_1hhkbbhcixq89-stroke" data-item-order="-184774" transform="translate(135, 441)"><g id="5.cr-small_cr_1hhkbbhcixq89-stroke" fill="none" stroke="#fff" stroke-linecap="round" stroke-linejoin="round" stroke-miterlimit="4" stroke-width="2"><g><path d="M 10 40C 10.000002 56.568544 23.431459 70.000002 40.000002 70.000002C 56.568544 70.000002 70.000002 56.568544 70.000002 40.000002C 70.000002 23.431459 56.568544 10.000002 40.000002 10.000002C 23.431459 10.000002 10.000002 23.431459 10.000002 40.000002"/></g></g></g><g id="g-root-4.line_sy_1463sy5cixrt6-stroke" data-item-order="-184767" transform="translate(195, 355)"><g id="4.line_sy_1463sy5cixrt6-stroke" fill="none" stroke="#de58a9" stroke-linecap="round" stroke-linejoin="round" stroke-miterlimit="4" stroke-width="2"><g><path d="M 250.07 10.51001L 130 42.00001L 10 42.00001"/><path stroke-dasharray="none" d="M 245.9 18.31001L 250.5 10.41001L 242.6 5.71001"/></g></g></g><g id="g-root-4.cr-small_cr_mfg9jhcixr0j-stroke" data-item-order="-184766" transform="translate(135, 357)"><g id="4.cr-small_cr_mfg9jhcixr0j-stroke" fill="none" stroke="#fff" stroke-linecap="round" stroke-linejoin="round" stroke-miterlimit="4" stroke-width="2"><g><path d="M 10 40C 10.000002 56.568544 23.431459 70.000002 40.000002 70.000002C 56.568544 70.000002 70.000002 56.568544 70.000002 40.000002C 70.000002 23.431459 56.568544 10.000002 40.000002 10.000002C 23.431459 10.000002 10.000002 23.431459 10.000002 40.000002"/></g></g></g><g id="g-root-3.line_sy_djt9alcixrt8-stroke" data-item-order="-184759" transform="translate(195.109375, 303)"><g id="3.line_sy_djt9alcixrt8-stroke" fill="none" stroke="#e55753" stroke-linecap="round" stroke-linejoin="round" stroke-miterlimit="4" stroke-width="2"><g><path d="M 249.96061 41.49L 129.89061 10L 10.00061 10"/><path stroke-dasharray="none" d="M 242.50061 46.3L 250.40061 41.6L 245.80061 33.7"/></g></g></g><g id="g-root-3.cr-small_cr_94m899cixpfp-stroke" data-item-order="-184758" transform="translate(135, 273)"><g id="3.cr-small_cr_94m899cixpfp-stroke" fill="none" stroke="#fff" stroke-linecap="round" stroke-linejoin="round" stroke-miterlimit="4" stroke-width="2"><g><path d="M 10 40C 10.000002 56.568544 23.431459 70.000002 40.000002 70.000002C 56.568544 70.000002 70.000002 56.568544 70.000002 40.000002C 70.000002 23.431459 56.568544 10.000002 40.000002 10.000002C 23.431459 10.000002 10.000002 23.431459 10.000002 40.000002"/></g></g></g><g id="g-root-2.line_sy_1uu9rv1cixqti-stroke" data-item-order="-184751" transform="translate(195, 219)"><g id="2.line_sy_1uu9rv1cixqti-stroke" fill="none" stroke="#de8431" stroke-linecap="round" stroke-linejoin="round" stroke-miterlimit="4" stroke-width="2"><g><path d="M 257.41 106.79L 130 10L 10 10"/><path stroke-dasharray="none" d="M 248.7 108.3L 257.8 107.1L 256.6 98"/></g></g></g><g id="g-root-2.cr-small_cr_1lymrm5cixrm7-stroke" data-item-order="-184750" transform="translate(135, 189)"><g id="2.cr-small_cr_1lymrm5cixrm7-stroke" fill="none" stroke="#fff" stroke-linecap="round" stroke-linejoin="round" stroke-miterlimit="4" stroke-width="2"><g><path d="M 10 40C 10.000002 56.568544 23.431459 70.000002 40.000002 70.000002C 56.568544 70.000002 70.000002 56.568544 70.000002 40.000002C 70.000002 23.431459 56.568544 10.000002 40.000002 10.000002C 23.431459 10.000002 10.000002 23.431459 10.000002 40.000002"/></g></g></g><g id="g-root-1.line_sy_1d3m8gdcixq0w-stroke" data-item-order="-184743" transform="translate(195, 135)"><g id="1.line_sy_1d3m8gdcixq0w-stroke" fill="none" stroke="#e0cb15" stroke-linecap="round" stroke-linejoin="round" stroke-miterlimit="4" stroke-width="2"><g><path d="M 272.7 176.48L 130 10L 10 10"/><path stroke-dasharray="none" d="M 263.9 176.2L 273 176.9L 273.7 167.7"/></g></g></g><g id="g-root-1.cr-small_cr_zs5q31cixrlt-stroke" data-item-order="-184742" transform="translate(135, 105)"><g id="1.cr-small_cr_zs5q31cixrlt-stroke" fill="none" stroke="#fff" stroke-linecap="round" stroke-linejoin="round" stroke-miterlimit="4" stroke-width="2"><g><path d="M 10 40C 10.000002 56.568544 23.431459 70.000002 40.000002 70.000002C 56.568544 70.000002 70.000002 56.568544 70.000002 40.000002C 70.000002 23.431459 56.568544 10.000002 40.000002 10.000002C 23.431459 10.000002 10.000002 23.431459 10.000002 40.000002"/></g></g></g><g id="g-root-5_qvwbwtcjaepz-stroke" data-item-order="0" transform="translate(147, 537)"><g id="5_qvwbwtcjaepz-stroke" fill="none" stroke="#fff" stroke-linecap="round" stroke-linejoin="round" stroke-miterlimit="4" stroke-width="2"><g><path d="M 44.714287 30.571428L 44.714287 42.142857C 44.714287 43.563019 43.563019 44.714287 42.142857 44.714287L 13.857142 44.714287C 12.436982 44.714287 11.285714 43.563019 11.285714 42.142857L 11.285714 13.857142C 11.285714 12.436982 12.436982 11.285714 13.857142 11.285714L 25.428572 11.285714M 35.714287 11.285714L 44.714287 11.285714L 44.714287 20.285713M 44.714287 11.285714L 28 28"/></g></g></g><g id="g-root-gaug_8xr3gtcj3cw3-stroke" data-item-order="0" transform="translate(459, 321)"><g id="gaug_8xr3gtcj3cw3-stroke" fill="none" stroke="#fff" stroke-linecap="round" stroke-linejoin="round" stroke-miterlimit="4" stroke-width="2"><g><path d="M 57 49C 57 51.209141 55.209141 53 53 53L 15 53C 12.790861 53 11 51.209141 11 49L 11 17C 11 14.790861 12.790861 13 15 13L 53 13C 55.209141 13 57 14.790861 57 17ZM 11 23L 57 23M 18.5 17L 18.5 17M 18.5 17C 18.223858 17 18 17.223858 18 17.5C 18 17.776142 18.223858 18 18.5 18C 18.776142 18 19 17.776142 19 17.5C 19 17.223858 18.776142 17 18.5 17M 24.5 17L 24.5 17M 24.5 17C 24.223858 17 24 17.223858 24 17.5C 24 17.776142 24.223858 18 24.5 18C 24.776142 18 25 17.776142 25 17.5C 25 17.223858 24.776142 17 24.5 17M 30.5 17L 30.5 17M 30.5 17C 30.223858 17 30 17.223858 30 17.5C 30 17.776142 30.223858 18 30.5 18C 30.776142 18 31 17.776142 31 17.5C 31 17.223858 30.776142 17 30.5 17M 18 46.001999L 22 46.001999M 20.144001 38.001999L 23.608 40.001999M 26 32.143997L 28 35.608002M 34 30L 34 33.998001M 47.860001 37.998001L 44.396 39.996002M 50.004002 45.998001L 46.006001 45.998001M 41.257999 33.860001C 41.658001 32.837997 41.363998 32.638 40.585999 33.416L 32.414001 41.587997C 31.567923 42.531158 31.069092 43.734844 31 45L 31 46C 30.978792 46.497948 31.193777 46.976711 31.580027 47.291695C 31.966274 47.606678 32.4785 47.720951 32.961998 47.600002L 34.038002 47.383999C 35.229252 47.074974 36.220623 46.250786 36.742001 45.136002Z"/></g></g></g><g id="g-root-1_1cuvuq5cj1ywz-stroke" data-item-order="0" transform="translate(147, 201)"><g id="1_1cuvuq5cj1ywz-stroke" fill="none" stroke="#fff" stroke-linecap="round" stroke-linejoin="round" stroke-miterlimit="4" stroke-width="2"><g><path d="M 34.961502 17.992001C 34.961506 19.231718 33.95871 20.237867 32.719002 20.242001L 22.599998 20.242001C 21.755047 20.311163 20.942947 19.899511 20.499229 19.177124C 20.055513 18.454737 20.055513 17.544262 20.499229 16.821877C 20.942947 16.099489 21.755047 15.687838 22.6 15.757L 32.726501 15.757C 33.957455 15.76518 34.953323 16.761047 34.961502 17.992001ZM 11.2495 29.9935L 17.585501 29.6665L 16.822001 23.693501M 17.585501 29.6665C 10.75 27.941502 8.1655 17.675501 13.819 13.543M 44.7505 14.3365L 38.414501 14.6635L 39.178001 20.636499M 38.414501 14.6635C 45.245499 16.3885 47.834499 26.654499 42.181 30.7885M 25.879002 20.234501L 29.432499 20.234501L 29.432499 33.011497L 25.879002 33.011497ZM 21.568001 33.011497L 33.742001 33.011497C 34.570427 33.011497 35.241997 33.683075 35.241997 34.511497L 35.241997 37.009003L 35.241997 37.009003L 20.068001 37.009003L 20.068001 37.009003L 20.068001 34.511497C 20.068001 33.683075 20.739573 33.011497 21.568001 33.011497ZM 14.635 37.061501L 40.676498 37.061501C 41.504929 37.061501 42.176498 37.733074 42.176498 38.561501L 42.176498 42.461502L 42.176498 42.461502L 13.135 42.461502L 13.135 42.461502L 13.135 38.561501C 13.135 37.733074 13.806573 37.061501 14.635 37.061501Z"/></g></g></g><g id="g-root-lock_1urs1u5cj3bwn-stroke" data-item-order="0" transform="translate(147, 369)"><g id="lock_1urs1u5cj3bwn-stroke" fill="none" stroke="#fff" stroke-linecap="round" stroke-linejoin="round" stroke-miterlimit="4" stroke-width="2"><g><path d="M 27.25 45.25L 12.25 45.25C 11.421573 45.25 10.75 44.578426 10.75 43.75L 10.75 12.25C 10.75 11.421573 11.421573 10.75 12.25 10.75L 32.185001 10.75C 32.584351 10.748889 32.967659 10.907071 33.25 11.1895L 38.800003 16.75C 39.081322 17.031239 39.239414 17.412708 39.239502 17.810499L 39.239502 22.75M 15.2455 33.25L 28.745499 33.25M 17.5 25.75L 19 25.75C 19.414213 25.75 19.75 26.085787 19.75 26.5L 19.75 33.25L 19.75 33.25L 16.75 33.25L 16.75 33.25L 16.75 26.5C 16.75 26.085787 17.085787 25.75 17.5 25.75ZM 25.75 33.25L 25.75 22C 25.75 21.585787 25.414213 21.25 25 21.25L 23.5 21.25C 23.085787 21.25 22.75 21.585787 22.75 22L 22.75 33.25M 31.75 27.25L 31.75 25C 31.75 24.585787 31.414213 24.25 31 24.25L 29.5 24.25C 29.085787 24.25 28.75 24.585787 28.75 25L 28.75 33.25M 33.245499 33.251499L 43.745499 33.251499C 43.745499 33.251499 45.245499 33.251499 45.245499 34.751499L 45.245499 43.75C 45.245499 43.75 45.245499 45.25 43.745499 45.25L 33.245499 45.25C 33.245499 45.25 31.745499 45.25 31.745499 43.75L 31.745499 34.751499C 31.745499 34.751499 31.745499 33.251499 33.245499 33.251499M 36.620499 39.344498C 36.620499 40.380035 37.459969 41.219498 38.495499 41.219498C 39.531036 41.219498 40.370499 40.380035 40.370499 39.344498C 40.370499 38.308968 39.531036 37.469498 38.495499 37.469498C 37.459969 37.469498 36.620499 38.308968 36.620499 39.344498M 42.25 31C 42.25 28.928932 40.571068 27.25 38.5 27.25C 36.428932 27.25 34.75 28.928932 34.75 31L 34.75 33.25L 42.25 33.25Z"/></g></g></g><g id="g-root-circ_vbq0ctcj67m4-stroke" data-item-order="0" transform="translate(147, 117)"><g id="circ_vbq0ctcj67m4-stroke" fill="none" stroke="#fff" stroke-linecap="round" stroke-linejoin="round" stroke-miterlimit="4" stroke-width="2"><g><path d="M 42.579998 18.790001C 44.33173 21.541819 45.258293 24.737946 45.25 28C 45.245071 37.027401 38.280815 44.52422 29.278236 45.193153C 20.275656 45.862091 12.279902 39.476868 10.940834 30.549335C 9.601766 21.621801 15.372329 13.171729 24.174999 11.17M 42.550003 30.099998C 43.511948 29.263748 44.409489 28.356178 45.235001 27.385M 36.760002 33.189999C 37.848743 32.977509 38.893555 32.581898 39.849998 32.02M 30.190001 32.305C 31.22163 32.69381 32.285831 32.989983 33.370003 33.190002M 23.860001 30.039999C 24.931118 30.317066 25.983294 30.662781 27.010002 31.075001M 17.305 30.52C 17.985065 30.133619 18.734119 29.883934 19.51 29.785C 19.83683 29.72682 20.168037 29.696709 20.5 29.695M 12.79 36.130001C 13.309752 34.8988 13.985263 33.739342 14.8 32.68M 32.5 10.75C 36.145081 10.75 39.100002 13.704921 39.100002 17.35C 39.099998 20.215 35.050003 25.690001 33.294998 27.849998C 33.107719 28.099781 32.812157 28.244774 32.5 28.24C 32.191486 28.24366 31.898388 28.105406 31.705 27.865C 29.950001 25.630001 25.900002 20.155001 25.900002 17.365C 25.896017 15.611974 26.589613 13.929382 27.827785 12.688396C 29.065956 11.44741 30.746969 10.749995 32.5 10.75ZM 34.974998 17.35C 34.974998 18.716904 33.866905 19.825001 32.5 19.825001C 31.133097 19.825001 30.025002 18.716904 30.025002 17.35C 30.025002 15.983095 31.133097 14.875 32.5 14.875C 33.866905 14.875 34.974998 15.983095 34.974998 17.35Z"/></g></g></g><g id="g-root-acti_1ur5kr1cis5xj-stroke" data-item-order="0" transform="translate(147, 453)"><g id="acti_1ur5kr1cis5xj-stroke" fill="none" stroke="#fff" stroke-linecap="round" stroke-linejoin="round" stroke-miterlimit="4" stroke-width="2"><g><path d="M 17.714285 11.285714L 38.285713 11.285714C 38.285713 11.285714 40.857143 11.285714 40.857143 13.857142L 40.857143 34.42857C 40.857143 34.42857 40.857143 37 38.285713 37L 17.714285 37C 17.714285 37 15.142857 37 15.142857 34.42857L 15.142857 13.857142C 15.142857 13.857142 15.142857 11.285714 17.714285 11.285714M 21.571428 24.142857C 21.571428 27.69326 24.449598 30.571428 28 30.571428C 31.550402 30.571428 34.42857 27.69326 34.42857 24.142857C 34.42857 20.592455 31.550402 17.714285 28 17.714285C 24.449598 17.714285 21.571428 20.592455 21.571428 24.142857M 31.857143 37L 31.857143 44.714287M 24.142857 37L 24.142857 44.714287M 20.285713 44.714287L 35.714287 44.714287"/></g></g></g><g id="g-root-brow_2qqmlciuxoj-stroke" data-item-order="0" transform="translate(147, 285)"><g id="brow_2qqmlciuxoj-stroke" fill="none" stroke="#fff" stroke-linecap="round" stroke-linejoin="round" stroke-miterlimit="4" stroke-width="2"><g><path d="M 10.75 16.75L 40.75 16.75M 15.25 13.375C 15.042893 13.375 14.875 13.542893 14.875 13.75C 14.875 13.957107 15.042893 14.125 15.25 14.125C 15.457107 14.125 15.625 13.957107 15.625 13.75C 15.625 13.542893 15.457107 13.375 15.25 13.375L 15.25 13.375M 18.25 13.375C 18.042892 13.375 17.875 13.542893 17.875 13.75C 17.875 13.957107 18.042892 14.125 18.25 14.125C 18.457108 14.125 18.625 13.957107 18.625 13.75C 18.625 13.542893 18.457108 13.375 18.25 13.375L 18.25 13.375M 21.25 13.375C 21.042892 13.375 20.875 13.542893 20.875 13.75C 20.875 13.957107 21.042892 14.125 21.25 14.125C 21.457108 14.125 21.625 13.957107 21.625 13.75C 21.625 13.542893 21.457108 13.375 21.25 13.375L 21.25 13.375M 21.25 34.75L 13.75 34.75C 12.093145 34.75 10.75 33.406853 10.75 31.75L 10.75 13.75C 10.75 12.093145 12.093145 10.75 13.75 10.75L 37.75 10.75C 39.406857 10.75 40.75 12.093145 40.75 13.75L 40.75 22.75M 34.75 45.25C 31.75 43 30.25 38.5 30.25 34.75C 30.25 31 31.75 26.5 34.75 24.25M 34.75 45.25C 37.75 43 39.25 38.5 39.25 34.75C 39.25 31 37.75 26.5 34.75 24.25M 25.261 30.25L 44.238998 30.25M 25.261 39.25L 44.238998 39.25M 24.25 34.75L 45.25 34.75M 24.25 34.75C 24.250002 40.548988 28.951012 45.25 34.75 45.25C 40.548988 45.25 45.25 40.548988 45.25 34.75C 45.25 28.951012 40.548988 24.250002 34.75 24.250002C 28.951012 24.250002 24.250002 28.951012 24.250002 34.75Z"/></g></g></g></g></g></svg>