<svg xmlns="http://www.w3.org/2000/svg" xmlns:xlink="http://www.w3.org/1999/xlink" width="674" height="686" version="1.1" viewBox="0 0 674 686" style="fill:none;stroke:none;fill-rule:evenodd;clip-rule:evenodd;stroke-linecap:round;stroke-linejoin:round;stroke-miterlimit:1.5"><style id="fontImports">@import url(https://fonts.googleapis.com/css2?family=Roboto:wght@400;700&amp;display=block);</style><rect width="674" height="686" x="0" y="0" style="fill:none"/><g id="items" style="isolation:isolate"><g id="blend" style="mix-blend-mode:normal"><g id="g-root-tx_envoy_13zw7a3b5cf0s-fill" data-item-order="0" transform="translate(255, 39)"><g id="tx_envoy_13zw7a3b5cf0s-fill" fill="#484848" stroke="none"><g><text style="font:20px Roboto,sans-serif;white-space:pre" font-family="Roboto, sans-serif" font-size="20"><tspan x="13.19" y="33.5" dominant-baseline="ideographic">Envoy 应用场景</tspan></text></g></g></g><g id="g-root-tx__4g1zvfbey03t-fill" data-item-order="0" transform="translate(297, 99)"><g id="tx__4g1zvfbey03t-fill" fill="#484848" stroke="none"><g><text style="font:15px Roboto,sans-serif;white-space:pre" font-family="Roboto, sans-serif" font-size="15"><tspan x="17.5" y="30.5" dominant-baseline="ideographic">网络层</tspan></text></g></g></g><g id="g-root-tx__1cvj7izb5ce83-fill" data-item-order="0" transform="translate(177, 255)"><g id="tx__1cvj7izb5ce83-fill" fill="#484848" stroke="none"><g><text style="font:20px Roboto,sans-serif;white-space:pre" font-family="Roboto, sans-serif" font-size="20"><tspan x="12" y="33.5" dominant-baseline="ideographic">服务网格</tspan></text></g></g></g><g id="g-root-tx_api_1q6d8t7b5cfsy-fill" data-item-order="0" transform="translate(393, 255)"><g id="tx_api_1q6d8t7b5cfsy-fill" fill="#484848" stroke="none"><g><text style="font:20px Roboto,sans-serif;white-space:pre" font-family="Roboto, sans-serif" font-size="20"><tspan x="13.97" y="33.5" dominant-baseline="ideographic">API 网关</tspan></text></g></g></g><g id="g-root-tx__zs5n17bewkr2-fill" data-item-order="0" transform="translate(15, 351)"><g id="tx__zs5n17bewkr2-fill" fill="#484848" stroke="none"><g><text style="font:15px Roboto,sans-serif;white-space:pre" font-family="Roboto, sans-serif" font-size="15"><tspan x="20" y="30.5" dominant-baseline="ideographic">内部服务</tspan></text></g></g></g><g id="g-root-tx__dbp04bbexzb4-fill" data-item-order="0" transform="translate(567, 351)"><g id="tx__dbp04bbexzb4-fill" fill="#484848" stroke="none"><g><text style="font:15px Roboto,sans-serif;white-space:pre" font-family="Roboto, sans-serif" font-size="15"><tspan x="12" y="30.5" dominant-baseline="ideographic">外部流量</tspan></text></g></g></g><g id="g-root-tx__1um6qxnb5cf0p-fill" data-item-order="0" transform="translate(177, 471)"><g id="tx__1um6qxnb5cf0p-fill" fill="#484848" stroke="none"><g><text style="font:20px Roboto,sans-serif;white-space:pre" font-family="Roboto, sans-serif" font-size="20"><tspan x="12" y="33.5" dominant-baseline="ideographic">反向代理</tspan></text></g></g></g><g id="g-root-tx__4gpp7fb5cef4-fill" data-item-order="0" transform="translate(393, 471)"><g id="tx__4gpp7fb5cef4-fill" fill="#484848" stroke="none"><g><text style="font:20px Roboto,sans-serif;white-space:pre" font-family="Roboto, sans-serif" font-size="20"><tspan x="12" y="33.5" dominant-baseline="ideographic">边缘代理</tspan></text></g></g></g><g id="g-root-tx__m7c0d7bexxqn-fill" data-item-order="0" transform="translate(285.08349609375, 603)"><g id="tx__m7c0d7bexxqn-fill" fill="#484848" stroke="none"><g><text style="font:15px Roboto,sans-serif;white-space:pre" font-family="Roboto, sans-serif" font-size="15"><tspan x="14.5" y="30.5" dominant-baseline="ideographic">基础设施层</tspan></text></g></g></g><g id="g-root--1.line_sy_qn6qqjb5cefe-stroke" data-item-order="-207927" transform="translate(99, 363)"><g id="-1.line_sy_qn6qqjb5cefe-stroke" fill="none" stroke="#484848" stroke-linecap="round" stroke-linejoin="round" stroke-miterlimit="4" stroke-width="2"><g><path d="M 10 10L 238 10L 466 10"/></g></g></g><g id="g-root--1.head_sy_m7d8m3b5cf7n-stroke" data-item-order="-207925" transform="translate(99, 356.5)"><g id="-1.head_sy_m7d8m3b5cf7n-stroke" fill="none" stroke="#484848" stroke-linecap="round" stroke-linejoin="round" stroke-miterlimit="4" stroke-width="2"><g><path d="M 16.5 10C 14.333 12.167 10 16.5 10 16.5L 16.5 23"/></g></g></g><g id="g-root--1.head_1_sy_m7d8m3b5cf7o-stroke" data-item-order="-207923" transform="translate(548.5, 356.5)"><g id="-1.head_1_sy_m7d8m3b5cf7o-stroke" fill="none" stroke="#484848" stroke-linecap="round" stroke-linejoin="round" stroke-miterlimit="4" stroke-width="2"><g><path d="M 10 10C 12.167 12.167 16.5 16.5 16.5 16.5L 10 23"/></g></g></g><g id="g-root--1.line_1_sy_dbq8d7b5cg0d-stroke" data-item-order="-207919" transform="translate(327, 135)"><g id="-1.line_1_sy_dbq8d7b5cg0d-stroke" fill="none" stroke="#484848" stroke-linecap="round" stroke-linejoin="round" stroke-miterlimit="4" stroke-width="2"><g><path d="M 10 466L 10 242L 10 10"/></g></g></g><g id="g-root--1.head_2_sy_dbq8d7b5cg0e-stroke" data-item-order="-207917" transform="translate(320.5, 584.5)"><g id="-1.head_2_sy_dbq8d7b5cg0e-stroke" fill="none" stroke="#484848" stroke-linecap="round" stroke-linejoin="round" stroke-miterlimit="4" stroke-width="2"><g><path d="M 10 10C 12.167 12.167 16.5 16.5 16.5 16.5L 23 10"/></g></g></g><g id="g-root--1.head_3_sy_8wj7bvb5cdmv-stroke" data-item-order="-207915" transform="translate(320.5, 135)"><g id="-1.head_3_sy_8wj7bvb5cdmv-stroke" fill="none" stroke="#484848" stroke-linecap="round" stroke-linejoin="round" stroke-miterlimit="4" stroke-width="2"><g><path d="M 10 16.5C 12.167 14.333 16.5 10 16.5 10L 23 16.5"/></g></g></g><g id="g-root-serv_zs5n17bewkr1-stroke" data-item-order="0" transform="translate(195, 183)"><g id="serv_zs5n17bewkr1-stroke" fill="none" stroke="#3cc583" stroke-linecap="round" stroke-linejoin="round" stroke-miterlimit="4" stroke-width="2"><g><path d="M 51 23.854C 50.966511 21.881111 50.131657 20.006788 48.687508 18.662231C 47.243355 17.317677 45.314247 16.618662 43.343998 16.726C 41.574951 13.192698 37.951328 10.972141 34 11C 28.620384 10.922284 24.105413 15.036353 23.684 20.4C 22.078552 20.044861 20.398424 20.42691 19.104412 21.441368C 17.810402 22.455822 17.038349 23.996189 17 25.639999C 17 31.084 22.911999 31 22.911999 31L 44.348 31C 44.348 31 51 30.158001 51 23.854ZM 23.5 51.498001C 23.224117 51.498001 23.00037 51.721455 23.000004 51.997337C 22.999638 52.273216 23.222792 52.497265 23.498672 52.497997C 23.774551 52.498734 23.998898 52.275879 24 52C 24.000534 51.867226 23.948027 51.739738 23.854143 51.645855C 23.760258 51.551971 23.632771 51.499466 23.5 51.5L 23.5 51.5M 28.5 51.498001C 28.224119 51.498001 28.00037 51.721455 28.000004 51.997337C 27.999638 52.273216 28.222792 52.497265 28.498672 52.497997C 28.774553 52.498734 28.998896 52.275879 29 52C 29.000534 51.867226 28.948027 51.739738 28.854143 51.645855C 28.760258 51.551971 28.632771 51.499466 28.5 51.5L 28.5 51.5M 51 54C 51 55.656857 49.656857 57 48 57L 20 57C 18.343147 57 17 55.656857 17 54L 17 50C 17 48.343147 18.343147 47 20 47L 48 47C 49.656857 47 51 48.343147 51 50ZM 23.5 41.498001C 23.224117 41.498001 23.00037 41.721455 23.000004 41.997337C 22.999638 42.273216 23.222792 42.497265 23.498672 42.497997C 23.774551 42.498734 23.998898 42.275879 24 42C 24.000534 41.867226 23.948027 41.739738 23.854143 41.645855C 23.760258 41.551971 23.632771 41.499466 23.5 41.5L 23.5 41.5M 28.5 41.498001C 28.224119 41.498001 28.00037 41.721455 28.000004 41.997337C 27.999638 42.273216 28.222792 42.497265 28.498672 42.497997C 28.774553 42.498734 28.998896 42.275879 29 42C 29.000534 41.867226 28.948027 41.739738 28.854143 41.645855C 28.760258 41.551971 28.632771 41.499466 28.5 41.5L 28.5 41.5M 51 44C 51 45.656857 49.656857 47 48 47L 20 47C 18.343147 47 17 45.656857 17 44L 17 40C 17 38.343147 18.343147 37 20 37L 48 37C 49.656857 37 51 38.343147 51 40Z"/></g></g></g><g id="g-root-fire_1cw5rrvb5b0g6-stroke" data-item-order="0" transform="translate(411, 183)"><g id="fire_1cw5rrvb5b0g6-stroke" fill="none" stroke="#4e88e7" stroke-linecap="round" stroke-linejoin="round" stroke-miterlimit="4" stroke-width="2"><g><path d="M 13 36.919998L 55 36.919998C 55 36.919998 57 36.919998 57 38.919998L 57 54.919998C 57 54.919998 57 56.919998 55 56.919998L 13 56.919998C 13 56.919998 11 56.919998 11 54.919998L 11 38.919998C 11 38.919998 11 36.919998 13 36.919998M 26.32 32.940002C 26.773445 29.607512 28.775768 26.685604 31.720001 25.060001C 32.054649 24.819656 32.505348 24.819656 32.839996 25.059999C 33.161079 25.318272 33.295223 25.744371 33.18 26.139999C 32.582054 28.145082 32.812569 30.306158 33.82 32.139999C 34.824219 32.254486 35.797447 31.748091 36.279999 30.860001C 36.430489 30.604002 36.686974 30.428129 36.98 30.379999C 37.278297 30.34153 37.578369 30.436674 37.799999 30.639999C 38.450371 31.230589 38.944984 31.972511 39.240002 32.800003M 47.099998 32.919998C 48.686718 28.398483 48.002018 23.389771 45.259998 19.459999L 44.740002 19.459999L 40.98 24.139999C 39.749947 20.316494 39.749947 16.203506 40.98 12.38C 41.083572 12.056434 41.015781 11.702414 40.799999 11.440001C 40.584503 11.169647 40.2425 11.032845 39.900002 11.08C 33.88459 11.893257 28.617455 15.526021 25.720001 20.860001L 23.08 18.26C 22.875452 18.068726 22.598846 17.974096 22.32 18C 22.047264 18.019258 21.794308 18.149349 21.619999 18.360001C 18.179432 22.387802 17.143148 27.942585 18.900002 32.940002M 11 42.919998L 57 42.919998M 11 49.919998L 57 49.919998M 23 36.919998L 23 42.919998M 34 42.919998L 34 49.919998M 45 36.919998L 45 42.919998M 23 49.919998L 23 56.919998M 45 49.919998L 45 56.919998"/></g></g></g><g id="g-root-hori_18gc9nfb515hi-stroke" data-item-order="0" transform="translate(195, 399)"><g id="hori_18gc9nfb515hi-stroke" fill="none" stroke="#92bd39" stroke-linecap="round" stroke-linejoin="round" stroke-miterlimit="4" stroke-width="2"><g><path d="M 11 29L 39 29M 29 39L 57 39M 19 37L 11 29L 19 21M 49 47L 57 39L 49 31"/></g></g></g><g id="g-root-cros_mfhhwbb4u4g5-stroke" data-item-order="0" transform="translate(411, 399)"><g id="cros_mfhhwbb4u4g5-stroke" fill="none" stroke="#1eabda" stroke-linecap="round" stroke-linejoin="round" stroke-miterlimit="4" stroke-width="2"><g><path d="M 33 43L 33 57M 33 11L 33 15M 33 27L 33 31M 51.292 26.708C 51.104588 26.894938 50.850704 26.999945 50.585999 27L 18 27C 17.447716 27 17 26.552284 17 26L 17 16C 17 15.447716 17.447716 15 18 15L 50.585999 15C 50.850704 15.000056 51.104588 15.105062 51.292 15.292L 56.292 20.292C 56.480083 20.479609 56.585789 20.734344 56.585789 21C 56.585789 21.265656 56.480083 21.520391 56.292 21.708ZM 16.708 42.708C 16.895411 42.894939 17.149296 42.999943 17.414 43L 50 43C 50.552284 43 51 42.552284 51 42L 51 32C 51 31.447716 50.552284 31 50 31L 17.414 31C 17.149296 31.000055 16.895411 31.105062 16.708 31.292L 11.708 36.292C 11.519917 36.479607 11.414212 36.734344 11.414212 37C 11.414212 37.265656 11.519917 37.520393 11.708 37.708Z"/></g></g></g></g></g></svg>