<svg xmlns="http://www.w3.org/2000/svg" xmlns:xl="http://www.w3.org/1999/xlink" width="923" height="866" version="1.1" viewBox="168 295 923 866"><defs><marker id="FilledArrow_Marker" stroke-linejoin="miter" stroke-miterlimit="10" color="#a5a5a5" markerHeight="8" markerUnits="strokeWidth" markerWidth="10" orient="auto" overflow="visible" viewBox="-1 -4 10 8"><g><path fill="currentColor" stroke="currentColor" stroke-width="1" d="M 8 0 L 0 -3 L 0 3 Z"/></g></marker></defs><g id="Canvas_1" fill="none" fill-opacity="1" stroke="none" stroke-dasharray="none" stroke-opacity="1"><title>Cloud Native AI</title><rect width="923" height="866" x="168" y="295" fill="#fff"/><g id="Canvas_1_Layer_1"><title>Layer 1</title><g id="Graphic_5"><ellipse cx="764.25" cy="402.17" fill="#ffff40" rx="98.25" ry="94"/><ellipse cx="764.25" cy="402.17" stroke="gray" stroke-linecap="round" stroke-linejoin="round" stroke-width="1" rx="98.25" ry="94"/></g><g id="Graphic_31"><path stroke="gray" stroke-linecap="round" stroke-linejoin="round" stroke-width="1" d="M 391.064 546.5 L 891.064 546.5 C 895.4823 546.5 899.064 550.0817 899.064 554.5 L 899.064 625.8523 C 899.064 630.2706 895.4823 633.8523 891.064 633.8523 L 391.064 633.8523 C 386.6457 633.8523 383.064 630.2706 383.064 625.8523 L 383.064 554.5 C 383.064 550.0817 386.6457 546.5 391.064 546.5 Z"/></g><g id="Group_92"><g id="Graphic_84"><text fill="#000" transform="translate(406.186 1126.9084)"><tspan x="16.364" y="13" fill="#000" font-family="Helvetica Neue" font-size="14">Intel</tspan></text></g><g id="Graphic_85"><text fill="#000" transform="translate(487.4461 1126.9084)"><tspan x="7.166" y="13" fill="#000" font-family="Helvetica Neue" font-size="14">NVIDIA</tspan></text></g><g id="Graphic_86"><text fill="#000" transform="translate(569.2765 1126.9084)"><tspan x="16.749" y="13" fill="#000" font-family="Helvetica Neue" font-size="14">Arm</tspan></text></g><g id="Graphic_87"><text fill="#000" transform="translate(651.1069 1126.9084)"><tspan x="6.907" y="13" fill="#000" font-family="Helvetica Neue" font-size="14">Google</tspan></text></g><g id="Graphic_88"><text fill="#000" transform="translate(731.2265 1126.9084)"><tspan x="14.026" y="13" fill="#000" font-family="Helvetica Neue" font-size="14">AMD</tspan></text></g><g id="Graphic_89"><text fill="#000" transform="translate(814.7676 1125.1044)"><tspan x="22.587" y="15" fill="#000" font-family="PingFang SC" font-size="14">…</tspan></text></g></g><g id="Graphic_82"><path stroke="gray" stroke-linecap="round" stroke-linejoin="round" stroke-width="1" d="M 391.064 1052.7562 L 891.064 1052.7562 C 895.4823 1052.7562 899.064 1056.3379 899.064 1060.7562 L 899.064 1107.7684 C 899.064 1112.1866 895.4823 1115.7684 891.064 1115.7684 L 391.064 1115.7684 C 386.6457 1115.7684 383.064 1112.1866 383.064 1107.7684 L 383.064 1060.7562 C 383.064 1056.3379 386.6457 1052.7562 391.064 1052.7562 Z"/></g><g id="Graphic_51"><path stroke="gray" stroke-linecap="round" stroke-linejoin="round" stroke-width="1" d="M 391.064 830.2438 L 891.064 830.2438 C 895.4823 830.2438 899.064 833.8255 899.064 838.2438 L 899.064 885.256 C 899.064 889.6742 895.4823 893.256 891.064 893.256 L 391.064 893.256 C 386.6457 893.256 383.064 889.6742 383.064 885.256 L 383.064 838.2438 C 383.064 833.8255 386.6457 830.2438 391.064 830.2438 Z"/></g><g id="Graphic_26"><path stroke="gray" stroke-linecap="round" stroke-linejoin="round" stroke-width="1" d="M 391.064 684.1821 L 891.064 684.1821 C 895.4823 684.1821 899.064 687.7638 899.064 692.1821 L 899.064 739.1943 C 899.064 743.6125 895.4823 747.1943 891.064 747.1943 L 391.064 747.1943 C 386.6457 747.1943 383.064 743.6125 383.064 739.1943 L 383.064 692.1821 C 383.064 687.7638 386.6457 684.1821 391.064 684.1821 Z"/></g><g id="Graphic_2"><ellipse cx="571.007" cy="402.17" fill="#c0ffc0" rx="147.75" ry="94"/><ellipse cx="571.007" cy="402.17" stroke="gray" stroke-linecap="round" stroke-linejoin="round" stroke-width="1" rx="147.75" ry="94"/></g><g id="Graphic_3"><ellipse cx="601.757" cy="402.17" fill="#80ffff" rx="117" ry="64.5"/><ellipse cx="601.757" cy="402.17" stroke="gray" stroke-linecap="round" stroke-linejoin="round" stroke-width="1" rx="117" ry="64.5"/></g><g id="Graphic_4"><ellipse cx="629.507" cy="402.17" fill="#ffffc0" rx="89.25" ry="42"/><ellipse cx="629.507" cy="402.17" stroke="gray" stroke-linecap="round" stroke-linejoin="round" stroke-width="1" rx="89.25" ry="42"/></g><g id="Graphic_6"><text fill="#000" transform="translate(576.147 387.83422)"><tspan x="21.444" y="11" fill="#000" font-family="Helvetica Neue" font-size="12">Deep</tspan> <tspan x="0" y="25.336" fill="#000" font-family="Helvetica Neue" font-size="12">Learning (DL)</tspan></text></g><g id="Graphic_8"><text fill="#000" transform="translate(489.9292 392.84206) rotate(-41)"><tspan x="13.776" y="11" fill="#000" font-family="Helvetica Neue" font-size="12">Machine</tspan> <tspan x="0" y="25.336" fill="#000" font-family="Helvetica Neue" font-size="12">Learning (ML)</tspan></text></g><g id="Graphic_9"><text fill="#000" transform="translate(428.30484 381.58586) rotate(-41)"><tspan x="18.006" y="11" fill="#000" font-family="Helvetica Neue" font-size="12">Artificial</tspan> <tspan x="0" y="25.336" fill="#000" font-family="Helvetica Neue" font-size="12">Inteligence (AI)</tspan></text></g><g id="Graphic_10"><text fill="#000" transform="translate(739.257 373.49822)"><tspan x="0" y="11" fill="#000" font-family="Helvetica Neue" font-size="12">Math &amp; Statistics</tspan> <tspan x=".57" y="25.336" fill="#000" font-family="Helvetica Neue" font-size="12">Exploratory Data</tspan> <tspan x="3.57" y="39.672" fill="#000" font-family="Helvetica Neue" font-size="12">Analaysis (EDA)</tspan> <tspan x="12.24" y="54.008" fill="#000" font-family="Helvetica Neue" font-size="12">Visualization</tspan></text></g><g id="Group_27"><g id="Graphic_19"><path stroke="gray" stroke-dasharray="4 4" stroke-linecap="round" stroke-linejoin="round" stroke-width="1" d="M 409.186 559.4282 L 621.774 559.4282 C 626.1923 559.4282 629.774 563.0099 629.774 567.4282 L 629.774 610.9241 C 629.774 615.3424 626.1923 618.9241 621.774 618.9241 L 409.186 618.9241 C 404.7677 618.9241 401.186 615.3424 401.186 610.9241 L 401.186 567.4282 C 401.186 563.0099 404.7677 559.4282 409.186 559.4282 Z"/></g><g id="Graphic_14"><text fill="#000" transform="translate(417.716 568.9282)"><tspan x="0" y="12" fill="#000" font-family="Helvetica Neue" font-size="12">Classification</tspan></text></g><g id="Graphic_15"><text fill="#000" transform="translate(518.762 568.9282)"><tspan x="0" y="12" fill="#000" font-family="Helvetica Neue" font-size="12">Object Detection</tspan></text></g><g id="Graphic_16"><text fill="#000" transform="translate(417.716 594.2763)"><tspan x="0" y="12" fill="#000" font-family="Helvetica Neue" font-size="12">Clustering</tspan></text></g><g id="Graphic_17"><text fill="#000" transform="translate(504.186 594.2763)"><tspan x="0" y="12" fill="#000" font-family="Helvetica Neue" font-size="12">Forecasting</tspan></text></g><g id="Graphic_18"><text fill="#000" transform="translate(587.186 594.2763)"><tspan x="0" y="12" fill="#000" font-family="Helvetica Neue" font-size="12">…</tspan></text></g></g><g id="Group_28"><g id="Graphic_25"><path stroke="gray" stroke-dasharray="4 4" stroke-linecap="round" stroke-linejoin="round" stroke-width="1" d="M 658.354 559.4282 L 870.942 559.4282 C 875.3603 559.4282 878.942 563.0099 878.942 567.4282 L 878.942 610.9241 C 878.942 615.3424 875.3603 618.9241 870.942 618.9241 L 658.354 618.9241 C 653.9357 618.9241 650.354 615.3424 650.354 610.9241 L 650.354 567.4282 C 650.354 563.0099 653.9357 559.4282 658.354 559.4282 Z"/></g><g id="Graphic_24"><text fill="#000" transform="translate(688.232 568.9282)"><tspan x="0" y="12" fill="#000" font-family="Helvetica Neue" font-size="12">RAGs</tspan></text></g><g id="Graphic_23"><text fill="#000" transform="translate(757.854 568.9282)"><tspan x="0" y="12" fill="#000" font-family="Helvetica Neue" font-size="12">LLMs</tspan></text></g><g id="Graphic_22"><text fill="#000" transform="translate(664.1 594.2763)"><tspan x="0" y="12" fill="#000" font-family="Helvetica Neue" font-size="12">Vector DBs</tspan></text></g><g id="Graphic_21"><text fill="#000" transform="translate(771.036 594.2763)"><tspan x="0" y="12" fill="#000" font-family="Helvetica Neue" font-size="12">LVMs</tspan></text></g><g id="Graphic_20"><text fill="#000" transform="translate(836.354 594.2763)"><tspan x="0" y="12" fill="#000" font-family="Helvetica Neue" font-size="12">…</tspan></text></g></g><g id="Graphic_29"><text fill="#000" transform="translate(483.182 524.0939)"><tspan x="0" y="14" fill="#000" font-family="Helvetica Neue" font-size="14">Predictive</tspan></text></g><g id="Graphic_30"><text fill="#000" transform="translate(729.634 524.0939)"><tspan x="0" y="14" fill="#000" font-family="Helvetica Neue" font-size="14">Generative</tspan></text></g><g id="Graphic_33"><path fill="#0ff" d="M 409.186 696.3522 L 511.622 696.3522 C 516.04027 696.3522 519.622 699.9339 519.622 704.3522 L 519.622 727.0242 C 519.622 731.44245 516.04027 735.0242 511.622 735.0242 L 409.186 735.0242 C 404.7677 735.0242 401.186 731.44245 401.186 727.0242 L 401.186 704.3522 C 401.186 699.9339 404.7677 696.3522 409.186 696.3522 Z"/><path stroke="gray" stroke-linecap="round" stroke-linejoin="round" stroke-width="1" d="M 409.186 696.3522 L 511.622 696.3522 C 516.04027 696.3522 519.622 699.9339 519.622 704.3522 L 519.622 727.0242 C 519.622 731.44245 516.04027 735.0242 511.622 735.0242 L 409.186 735.0242 C 404.7677 735.0242 401.186 731.44245 401.186 727.0242 L 401.186 704.3522 C 401.186 699.9339 404.7677 696.3522 409.186 696.3522 Z"/><text fill="#000" transform="translate(406.186 708.5202)"><tspan x="8.99" y="11" fill="#000" font-family="Helvetica Neue" font-size="12">Data Preparation</tspan></text></g><g id="Graphic_34"><path fill="#0ff" d="M 549.722 696.3522 L 601.452 696.3522 C 605.8703 696.3522 609.452 699.9339 609.452 704.3522 L 609.452 727.0242 C 609.452 731.44245 605.8703 735.0242 601.452 735.0242 L 549.722 735.0242 C 545.3037 735.0242 541.722 731.44245 541.722 727.0242 L 541.722 704.3522 C 541.722 699.9339 545.3037 696.3522 549.722 696.3522 Z"/><path stroke="gray" stroke-linecap="round" stroke-linejoin="round" stroke-width="1" d="M 549.722 696.3522 L 601.452 696.3522 C 605.8703 696.3522 609.452 699.9339 609.452 704.3522 L 609.452 727.0242 C 609.452 731.44245 605.8703 735.0242 601.452 735.0242 L 549.722 735.0242 C 545.3037 735.0242 541.722 731.44245 541.722 727.0242 L 541.722 704.3522 C 541.722 699.9339 545.3037 696.3522 549.722 696.3522 Z"/><text fill="#000" transform="translate(546.722 701.3522)"><tspan x="12.083" y="11" fill="#000" font-family="Helvetica Neue" font-size="12">Model </tspan> <tspan x="7.973" y="25.336" fill="#000" font-family="Helvetica Neue" font-size="12">Training</tspan></text></g><g id="Graphic_35"><path fill="#ffffc0" d="M 639.552 696.3522 L 691.282 696.3522 C 695.7003 696.3522 699.282 699.9339 699.282 704.3522 L 699.282 727.0242 C 699.282 731.44245 695.7003 735.0242 691.282 735.0242 L 639.552 735.0242 C 635.1337 735.0242 631.552 731.44245 631.552 727.0242 L 631.552 704.3522 C 631.552 699.9339 635.1337 696.3522 639.552 696.3522 Z"/><path stroke="gray" stroke-linecap="round" stroke-linejoin="round" stroke-width="1" d="M 639.552 696.3522 L 691.282 696.3522 C 695.7003 696.3522 699.282 699.9339 699.282 704.3522 L 699.282 727.0242 C 699.282 731.44245 695.7003 735.0242 691.282 735.0242 L 639.552 735.0242 C 635.1337 735.0242 631.552 731.44245 631.552 727.0242 L 631.552 704.3522 C 631.552 699.9339 635.1337 696.3522 639.552 696.3522 Z"/><text fill="#000" transform="translate(636.552 701.3522)"><tspan x="12.083" y="11" fill="#000" font-family="Helvetica Neue" font-size="12">Model</tspan> <tspan x="8.645" y="25.336" fill="#000" font-family="Helvetica Neue" font-size="12">Serving</tspan></text></g><g id="Graphic_36"><path fill="#ffffc0" d="M 729.382 696.3522 L 781.112 696.3522 C 785.5303 696.3522 789.112 699.9339 789.112 704.3522 L 789.112 727.0242 C 789.112 731.44245 785.5303 735.0242 781.112 735.0242 L 729.382 735.0242 C 724.9637 735.0242 721.382 731.44245 721.382 727.0242 L 721.382 704.3522 C 721.382 699.9339 724.9637 696.3522 729.382 696.3522 Z"/><path stroke="gray" stroke-linecap="round" stroke-linejoin="round" stroke-width="1" d="M 729.382 696.3522 L 781.112 696.3522 C 785.5303 696.3522 789.112 699.9339 789.112 704.3522 L 789.112 727.0242 C 789.112 731.44245 785.5303 735.0242 781.112 735.0242 L 729.382 735.0242 C 724.9637 735.0242 721.382 731.44245 721.382 727.0242 L 721.382 704.3522 C 721.382 699.9339 724.9637 696.3522 729.382 696.3522 Z"/><text fill="#000" transform="translate(726.382 708.5202)"><tspan x="1.097" y="11" fill="#000" font-family="Helvetica Neue" font-size="12">Perf/Scale</tspan></text></g><g id="Graphic_37"><path fill="#c0ffc0" d="M 819.212 696.3522 L 870.942 696.3522 C 875.3603 696.3522 878.942 699.9339 878.942 704.3522 L 878.942 727.0242 C 878.942 731.44245 875.3603 735.0242 870.942 735.0242 L 819.212 735.0242 C 814.7937 735.0242 811.212 731.44245 811.212 727.0242 L 811.212 704.3522 C 811.212 699.9339 814.7937 696.3522 819.212 696.3522 Z"/><path stroke="gray" stroke-linecap="round" stroke-linejoin="round" stroke-width="1" d="M 819.212 696.3522 L 870.942 696.3522 C 875.3603 696.3522 878.942 699.9339 878.942 704.3522 L 878.942 727.0242 C 878.942 731.44245 875.3603 735.0242 870.942 735.0242 L 819.212 735.0242 C 814.7937 735.0242 811.212 731.44245 811.212 727.0242 L 811.212 704.3522 C 811.212 699.9339 814.7937 696.3522 819.212 696.3522 Z"/><text fill="#000" transform="translate(816.212 708.5202)"><tspan x="6.305" y="11" fill="#000" font-family="Helvetica Neue" font-size="12">Observe</tspan></text></g><g id="Graphic_38"><text fill="#000" transform="translate(242.277 570.126)"><tspan x="0" y="14" fill="#000" font-family="Helvetica Neue" font-size="14">Workloads</tspan></text></g><g id="Graphic_39"><text fill="#666" transform="translate(203 597.5321)"><tspan x="0" y="13" fill="#666" font-family="Helvetica Neue" font-size="14">Models, applications,…</tspan></text></g><g id="Graphic_41"><text fill="#000" transform="translate(235.788 686.2261)"><tspan x="0" y="14" fill="#000" font-family="Helvetica Neue" font-size="14">ML Lifecycle</tspan></text></g><g id="Graphic_40"><text fill="#666" transform="translate(223.349 713.6322)"><tspan x="0" y="13" fill="#666" font-family="Helvetica Neue" font-size="14">(AI/ML/LLM Ops)</tspan></text></g><g id="Graphic_42"><path fill="#0ff" d="M 410.57 759 L 466.828 759 C 471.2463 759 474.828 762.5817 474.828 767 L 474.828 789.672 C 474.828 794.0903 471.2463 797.672 466.828 797.672 L 410.57 797.672 C 406.1517 797.672 402.57 794.0903 402.57 789.672 L 402.57 767 C 402.57 762.5817 406.1517 759 410.57 759 Z"/><path stroke="gray" stroke-linecap="round" stroke-linejoin="round" stroke-width="1" d="M 410.57 759 L 466.828 759 C 471.2463 759 474.828 762.5817 474.828 767 L 474.828 789.672 C 474.828 794.0903 471.2463 797.672 466.828 797.672 L 410.57 797.672 C 406.1517 797.672 402.57 794.0903 402.57 789.672 L 402.57 767 C 402.57 762.5817 406.1517 759 410.57 759 Z"/><text fill="#000" transform="translate(407.57 764)"><tspan x="18.571" y="11" fill="#000" font-family="Helvetica Neue" font-size="12">Data </tspan> <tspan x=".127" y="25.336" fill="#000" font-family="Helvetica Neue" font-size="12">Preparation</tspan></text></g><g id="Graphic_43"><path fill="#0ff" d="M 502.16084 760.0352 L 546.04884 760.0352 C 550.4671 760.0352 554.04884 763.6169 554.04884 768.0352 L 554.04884 790.7072 C 554.04884 795.1254 550.4671 798.7072 546.04884 798.7072 L 502.16084 798.7072 C 497.74256 798.7072 494.16084 795.1254 494.16084 790.7072 L 494.16084 768.0352 C 494.16084 763.6169 497.74256 760.0352 502.16084 760.0352 Z"/><path stroke="gray" stroke-linecap="round" stroke-linejoin="round" stroke-width="1" d="M 502.16084 760.0352 L 546.04884 760.0352 C 550.4671 760.0352 554.04884 763.6169 554.04884 768.0352 L 554.04884 790.7072 C 554.04884 795.1254 550.4671 798.7072 546.04884 798.7072 L 502.16084 798.7072 C 497.74256 798.7072 494.16084 795.1254 494.16084 790.7072 L 494.16084 768.0352 C 494.16084 763.6169 497.74256 760.0352 502.16084 760.0352 Z"/><text fill="#000" transform="translate(499.16084 765.0352)"><tspan x="4.718" y="11" fill="#000" font-family="Helvetica Neue" font-size="12">Feature </tspan> <tspan x="10.61" y="25.336" fill="#000" font-family="Helvetica Neue" font-size="12">Store</tspan></text></g><g id="Graphic_44"><path fill="#0ff" d="M 581.3817 759.2588 L 653.6533 759.2588 C 658.0716 759.2588 661.6533 762.8405 661.6533 767.2588 L 661.6533 789.9308 C 661.6533 794.3491 658.0716 797.9308 653.6533 797.9308 L 581.3817 797.9308 C 576.9634 797.9308 573.3817 794.3491 573.3817 789.9308 L 573.3817 767.2588 C 573.3817 762.8405 576.9634 759.2588 581.3817 759.2588 Z"/><path stroke="gray" stroke-linecap="round" stroke-linejoin="round" stroke-width="1" d="M 581.3817 759.2588 L 653.6533 759.2588 C 658.0716 759.2588 661.6533 762.8405 661.6533 767.2588 L 661.6533 789.9308 C 661.6533 794.3491 658.0716 797.9308 653.6533 797.9308 L 581.3817 797.9308 C 576.9634 797.9308 573.3817 794.3491 573.3817 789.9308 L 573.3817 767.2588 C 573.3817 762.8405 576.9634 759.2588 581.3817 759.2588 Z"/><text fill="#000" transform="translate(578.3817 764.2588)"><tspan x="22.354" y="11" fill="#000" font-family="Helvetica Neue" font-size="12">Model</tspan> <tspan x="3.568" y="25.336" fill="#000" font-family="Helvetica Neue" font-size="12">Development</tspan></text></g><g id="Graphic_45"><path fill="#0ff" d="M 688.98616 759.5176 L 725.8742 759.5176 C 730.2924 759.5176 733.8742 763.0993 733.8742 767.5176 L 733.8742 790.1896 C 733.8742 794.6079 730.2924 798.1896 725.8742 798.1896 L 688.98616 798.1896 C 684.5679 798.1896 680.98616 794.6079 680.98616 790.1896 L 680.98616 767.5176 C 680.98616 763.0993 684.5679 759.5176 688.98616 759.5176 Z"/><path stroke="gray" stroke-linecap="round" stroke-linejoin="round" stroke-width="1" d="M 688.98616 759.5176 L 725.8742 759.5176 C 730.2924 759.5176 733.8742 763.0993 733.8742 767.5176 L 733.8742 790.1896 C 733.8742 794.6079 730.2924 798.1896 725.8742 798.1896 L 688.98616 798.1896 C 684.5679 798.1896 680.98616 794.6079 680.98616 790.1896 L 680.98616 767.5176 C 680.98616 763.0993 684.5679 759.5176 688.98616 759.5176 Z"/><text fill="#000" transform="translate(685.98616 764.5176)"><tspan x="4.662" y="11" fill="#000" font-family="Helvetica Neue" font-size="12">Model</tspan> <tspan x=".336" y="25.336" fill="#000" font-family="Helvetica Neue" font-size="12">Storage</tspan></text></g><g id="Graphic_46"><path fill="#0ff" d="M 761.207 759.7764 L 798.095 759.7764 C 802.5133 759.7764 806.095 763.3581 806.095 767.7764 L 806.095 790.4484 C 806.095 794.8666 802.5133 798.4484 798.095 798.4484 L 761.207 798.4484 C 756.7887 798.4484 753.207 794.8666 753.207 790.4484 L 753.207 767.7764 C 753.207 763.3581 756.7887 759.7764 761.207 759.7764 Z"/><path stroke="gray" stroke-linecap="round" stroke-linejoin="round" stroke-width="1" d="M 761.207 759.7764 L 798.095 759.7764 C 802.5133 759.7764 806.095 763.3581 806.095 767.7764 L 806.095 790.4484 C 806.095 794.8666 802.5133 798.4484 798.095 798.4484 L 761.207 798.4484 C 756.7887 798.4484 753.207 794.8666 753.207 790.4484 L 753.207 767.7764 C 753.207 763.3581 756.7887 759.7764 761.207 759.7764 Z"/><text fill="#000" transform="translate(758.207 764.7764)"><tspan x="4.662" y="11" fill="#000" font-family="Helvetica Neue" font-size="12">Model</tspan> <tspan x="1.224" y="25.336" fill="#000" font-family="Helvetica Neue" font-size="12">Serving</tspan></text></g><g id="Line_47"><line x1="474.828" x2="484.262" y1="778.774" y2="778.888" stroke="#a5a5a5" stroke-linecap="round" stroke-linejoin="round" stroke-width="1" marker-end="url(#FilledArrow_Marker)"/></g><g id="Line_48"><line x1="554.049" x2="563.482" y1="779.122" y2="779.044" stroke="#a5a5a5" stroke-linecap="round" stroke-linejoin="round" stroke-width="1" marker-end="url(#FilledArrow_Marker)"/></g><g id="Line_49"><line x1="661.653" x2="671.086" y1="778.722" y2="778.749" stroke="#a5a5a5" stroke-linecap="round" stroke-linejoin="round" stroke-width="1" marker-end="url(#FilledArrow_Marker)"/></g><g id="Line_50"><line x1="733.874" x2="743.307" y1="778.948" y2="778.982" stroke="#a5a5a5" stroke-linecap="round" stroke-linejoin="round" stroke-width="1" marker-end="url(#FilledArrow_Marker)"/></g><g id="Graphic_52"><path stroke="gray" stroke-linecap="round" stroke-linejoin="round" stroke-width="1" d="M 410.57 842.4139 L 480.828 842.4139 C 485.2463 842.4139 488.828 845.9956 488.828 850.4139 L 488.828 873.0859 C 488.828 877.5042 485.2463 881.0859 480.828 881.0859 L 410.57 881.0859 C 406.1517 881.0859 402.57 877.5042 402.57 873.0859 L 402.57 850.4139 C 402.57 845.9956 406.1517 842.4139 410.57 842.4139 Z"/><text fill="#000" transform="translate(407.57 854.5819)"><tspan x="11.231" y="11" fill="#000" font-family="Helvetica Neue" font-size="12">OpenShift</tspan></text></g><g id="Graphic_53"><path stroke="gray" stroke-linecap="round" stroke-linejoin="round" stroke-width="1" d="M 516.5758 842.4139 L 547.6448 842.4139 C 552.0631 842.4139 555.6448 845.9956 555.6448 850.4139 L 555.6448 873.0859 C 555.6448 877.5042 552.0631 881.0859 547.6448 881.0859 L 516.5758 881.0859 C 512.1575 881.0859 508.5758 877.5042 508.5758 873.0859 L 508.5758 850.4139 C 508.5758 845.9956 512.1575 842.4139 516.5758 842.4139 Z"/><text fill="#000" transform="translate(513.5758 854.5819)"><tspan x="6.313" y="11" fill="#000" font-family="Helvetica Neue" font-size="12">GKE</tspan></text></g><g id="Graphic_54"><path stroke="gray" stroke-linecap="round" stroke-linejoin="round" stroke-width="1" d="M 583.3926 842.4139 L 653.6506 842.4139 C 658.0689 842.4139 661.6506 845.9956 661.6506 850.4139 L 661.6506 873.0859 C 661.6506 877.5042 658.0689 881.0859 653.6506 881.0859 L 583.3926 881.0859 C 578.9743 881.0859 575.3926 877.5042 575.3926 873.0859 L 575.3926 850.4139 C 575.3926 845.9956 578.9743 842.4139 583.3926 842.4139 Z"/><text fill="#000" transform="translate(580.3926 854.5819)"><tspan x="7.235" y="11" fill="#000" font-family="Helvetica Neue" font-size="12">Kubernetes</tspan></text></g><g id="Graphic_55"><path stroke="gray" stroke-linecap="round" stroke-linejoin="round" stroke-width="1" d="M 689.3984 842.4139 L 726.2864 842.4139 C 730.7047 842.4139 734.2864 845.9956 734.2864 850.4139 L 734.2864 873.0859 C 734.2864 877.5042 730.7047 881.0859 726.2864 881.0859 L 689.3984 881.0859 C 684.9801 881.0859 681.3984 877.5042 681.3984 873.0859 L 681.3984 850.4139 C 681.3984 845.9956 684.9801 842.4139 689.3984 842.4139 Z"/><text fill="#000" transform="translate(686.3984 854.5819)"><tspan x="9.666" y="11" fill="#000" font-family="Helvetica Neue" font-size="12">AKS</tspan></text></g><g id="Graphic_56"><path stroke="gray" stroke-linecap="round" stroke-linejoin="round" stroke-width="1" d="M 762.0342 842.4139 L 798.9222 842.4139 C 803.3405 842.4139 806.9222 845.9956 806.9222 850.4139 L 806.9222 873.0859 C 806.9222 877.5042 803.3405 881.0859 798.9222 881.0859 L 762.0342 881.0859 C 757.6159 881.0859 754.0342 877.5042 754.0342 873.0859 L 754.0342 850.4139 C 754.0342 845.9956 757.6159 842.4139 762.0342 842.4139 Z"/><text fill="#000" transform="translate(759.0342 854.5819)"><tspan x="1.44" y="11" fill="#000" font-family="Helvetica Neue" font-size="12">Knative</tspan></text></g><g id="Graphic_57"><text fill="#000" transform="translate(831.67 852.0178)"><tspan x="13.444" y="16" fill="#000" font-family="Helvetica Neue" font-size="16" font-weight="bold">…</tspan></text></g><g id="Line_58"><line x1="555.645" x2="575.393" y1="861.75" y2="861.75" stroke="#a5a5a5" stroke-dasharray="4 4" stroke-linecap="round" stroke-linejoin="round" stroke-width="1"/></g><g id="Line_59"><line x1="681.398" x2="661.651" y1="861.75" y2="861.75" stroke="#a5a5a5" stroke-dasharray="4 4" stroke-linecap="round" stroke-linejoin="round" stroke-width="1"/></g><g id="Line_65"><path stroke="#a5a5a5" stroke-dasharray="4 4" stroke-linecap="round" stroke-linejoin="round" stroke-width="1" d="M 484.19845 880.3433 C 497.6045 884.7999 513.78775 888.2979 531.5603 888.2979 C 549.5344 888.2979 566.0312 884.7201 579.71306 880.1913"/></g><g id="Line_66"><path stroke="#a5a5a5" stroke-dasharray="4 4" stroke-linecap="round" stroke-linejoin="round" stroke-width="1" d="M 755.794 878.0924 C 744.0256 883.5629 728.2426 888.2979 708.86525 888.2979 C 691.0452 888.2979 673.4397 884.2934 658.57005 879.395"/></g><g id="Graphic_67"><path stroke="gray" stroke-linecap="round" stroke-linejoin="round" stroke-width="1" d="M 391.064 941.5 L 891.064 941.5 C 895.4823 941.5 899.064 945.0817 899.064 949.5 L 899.064 996.5122 C 899.064 1000.9304 895.4823 1004.5122 891.064 1004.5122 L 391.064 1004.5122 C 386.6457 1004.5122 383.064 1000.9304 383.064 996.5122 L 383.064 949.5 C 383.064 945.0817 386.6457 941.5 391.064 941.5 Z"/></g><g id="Graphic_68"><path stroke="gray" stroke-linecap="round" stroke-linejoin="round" stroke-width="1" d="M 409.186 953.6701 L 479.444 953.6701 C 483.86227 953.6701 487.444 957.2518 487.444 961.6701 L 487.444 984.3421 C 487.444 988.7604 483.86227 992.3421 479.444 992.3421 L 409.186 992.3421 C 404.7677 992.3421 401.186 988.7604 401.186 984.3421 L 401.186 961.6701 C 401.186 957.2518 404.7677 953.6701 409.186 953.6701 Z"/><text fill="#000" transform="translate(406.186 965.8381)"><tspan x="24.941" y="11" fill="#000" font-family="Helvetica Neue" font-size="12">AWS</tspan></text></g><g id="Graphic_69"><path stroke="gray" stroke-linecap="round" stroke-linejoin="round" stroke-width="1" d="M 515.403 953.6701 L 585.661 953.6701 C 590.0793 953.6701 593.661 957.2518 593.661 961.6701 L 593.661 984.3421 C 593.661 988.7604 590.0793 992.3421 585.661 992.3421 L 515.403 992.3421 C 510.9847 992.3421 507.403 988.7604 507.403 984.3421 L 507.403 961.6701 C 507.403 957.2518 510.9847 953.6701 515.403 953.6701 Z"/><text fill="#000" transform="translate(512.403 965.8381)"><tspan x="22.913" y="11" fill="#000" font-family="Helvetica Neue" font-size="12">Azure</tspan></text></g><g id="Graphic_70"><path stroke="gray" stroke-linecap="round" stroke-linejoin="round" stroke-width="1" d="M 621.62 953.6701 L 691.878 953.6701 C 696.2963 953.6701 699.878 957.2518 699.878 961.6701 L 699.878 984.3421 C 699.878 988.7604 696.2963 992.3421 691.878 992.3421 L 621.62 992.3421 C 617.2017 992.3421 613.62 988.7604 613.62 984.3421 L 613.62 961.6701 C 613.62 957.2518 617.2017 953.6701 621.62 953.6701 Z"/><text fill="#000" transform="translate(618.62 965.8381)"><tspan x="9.125" y="11" fill="#000" font-family="Helvetica Neue" font-size="12">Bare Metal</tspan></text></g><g id="Graphic_71"><path stroke="gray" stroke-linecap="round" stroke-linejoin="round" stroke-width="1" d="M 727.837 953.6701 L 798.095 953.6701 C 802.5133 953.6701 806.095 957.2518 806.095 961.6701 L 806.095 984.3421 C 806.095 988.7604 802.5133 992.3421 798.095 992.3421 L 727.837 992.3421 C 723.4187 992.3421 719.837 988.7604 719.837 984.3421 L 719.837 961.6701 C 719.837 957.2518 723.4187 953.6701 727.837 953.6701 Z"/><text fill="#000" transform="translate(724.837 965.8381)"><tspan x="1.019" y="11" fill="#000" font-family="Helvetica Neue" font-size="12">Google Cloud</tspan></text></g><g id="Graphic_72"><text fill="#000" transform="translate(831.054 963.274)"><tspan x="13.444" y="16" fill="#000" font-family="Helvetica Neue" font-size="16" font-weight="bold">…</tspan></text></g><g id="Graphic_74"><text fill="#000" transform="translate(249.284 832.2878)"><tspan x="0" y="14" fill="#000" font-family="Helvetica Neue" font-size="14">Platform</tspan></text></g><g id="Graphic_73"><text fill="#666" transform="translate(197.036 859.6939)"><tspan x="0" y="13" fill="#666" font-family="Helvetica Neue" font-size="14">Orchestration/Scheduling</tspan></text></g><g id="Graphic_76"><text fill="#000" transform="translate(233.331 943.544)"><tspan x="0" y="14" fill="#000" font-family="Helvetica Neue" font-size="14">Infrastructure</tspan></text></g><g id="Graphic_75"><text fill="#666" transform="translate(219.842 970.9501)"><tspan x="0" y="13" fill="#666" font-family="Helvetica Neue" font-size="14">Cloud or On-prem</tspan></text></g><g id="Graphic_81"><path stroke="gray" stroke-linecap="round" stroke-linejoin="round" stroke-width="1" d="M 409.186 1064.9263 L 477.12774 1064.9263 C 481.546 1064.9263 485.12774 1068.508 485.12774 1072.9263 L 485.12774 1095.5983 C 485.12774 1100.0166 481.546 1103.5983 477.12774 1103.5983 L 409.186 1103.5983 C 404.7677 1103.5983 401.186 1100.0166 401.186 1095.5983 L 401.186 1072.9263 C 401.186 1068.508 404.7677 1064.9263 409.186 1064.9263 Z"/><text fill="#000" transform="translate(406.186 1077.0943)"><tspan x="24.419" y="11" fill="#000" font-family="Helvetica Neue" font-size="12">CPU</tspan></text></g><g id="Graphic_80"><path stroke="gray" stroke-linecap="round" stroke-linejoin="round" stroke-width="1" d="M 507.79356 1064.9263 L 575.7353 1064.9263 C 580.1536 1064.9263 583.7353 1068.508 583.7353 1072.9263 L 583.7353 1095.5983 C 583.7353 1100.0166 580.1536 1103.5983 575.7353 1103.5983 L 507.79356 1103.5983 C 503.3753 1103.5983 499.79356 1100.0166 499.79356 1095.5983 L 499.79356 1072.9263 C 499.79356 1068.508 503.3753 1064.9263 507.79356 1064.9263 Z"/><text fill="#000" transform="translate(504.79356 1077.0943)"><tspan x="24.197" y="11" fill="#000" font-family="Helvetica Neue" font-size="12">GPU</tspan></text></g><g id="Graphic_79"><path stroke="gray" stroke-linecap="round" stroke-linejoin="round" stroke-width="1" d="M 606.4011 1064.9263 L 674.3429 1064.9263 C 678.76115 1064.9263 682.3429 1068.508 682.3429 1072.9263 L 682.3429 1095.5983 C 682.3429 1100.0166 678.76115 1103.5983 674.3429 1103.5983 L 606.4011 1103.5983 C 601.98285 1103.5983 598.4011 1100.0166 598.4011 1095.5983 L 598.4011 1072.9263 C 598.4011 1068.508 601.98285 1064.9263 606.4011 1064.9263 Z"/><text fill="#000" transform="translate(603.4011 1077.0943)"><tspan x="24.419" y="11" fill="#000" font-family="Helvetica Neue" font-size="12">NPU</tspan></text></g><g id="Graphic_78"><path stroke="gray" stroke-linecap="round" stroke-linejoin="round" stroke-width="1" d="M 705.0087 1064.9263 L 772.9504 1064.9263 C 777.3687 1064.9263 780.9504 1068.508 780.9504 1072.9263 L 780.9504 1095.5983 C 780.9504 1100.0166 777.3687 1103.5983 772.9504 1103.5983 L 705.0087 1103.5983 C 700.5904 1103.5983 697.0087 1100.0166 697.0087 1095.5983 L 697.0087 1072.9263 C 697.0087 1068.508 700.5904 1064.9263 705.0087 1064.9263 Z"/><text fill="#000" transform="translate(702.0087 1077.0943)"><tspan x="25.307" y="11" fill="#000" font-family="Helvetica Neue" font-size="12">TPU</tspan></text></g><g id="Graphic_83"><path stroke="gray" stroke-linecap="round" stroke-linejoin="round" stroke-width="1" d="M 803.6163 1064.9263 L 871.558 1064.9263 C 875.9763 1064.9263 879.558 1068.508 879.558 1072.9263 L 879.558 1095.5983 C 879.558 1100.0166 875.9763 1103.5983 871.558 1103.5983 L 803.6163 1103.5983 C 799.198 1103.5983 795.6163 1100.0166 795.6163 1095.5983 L 795.6163 1072.9263 C 795.6163 1068.508 799.198 1064.9263 803.6163 1064.9263 Z"/><text fill="#000" transform="translate(800.6163 1077.0943)"><tspan x="24.527" y="11" fill="#000" font-family="Helvetica Neue" font-size="12">DPU</tspan></text></g><g id="Graphic_91"><text fill="#000" transform="translate(245.644 1054.8002)"><tspan x="0" y="14" fill="#000" font-family="Helvetica Neue" font-size="14">Hardware</tspan></text></g><g id="Graphic_90"><text fill="#666" transform="translate(237.503 1082.2063)"><tspan x="0" y="13" fill="#666" font-family="Helvetica Neue" font-size="14">Accelerators</tspan></text></g><g id="Line_93"><line x1="461.818" x2="531.87" y1="1064.926" y2="992.342" stroke="#a5a5a5" stroke-dasharray="4 4" stroke-linecap="round" stroke-linejoin="round" stroke-width="1"/></g><g id="Line_94"><line x1="484.524" x2="720.595" y1="1069.871" y2="987.746" stroke="#a5a5a5" stroke-dasharray="4 4" stroke-linecap="round" stroke-linejoin="round" stroke-width="1"/></g><g id="Line_95"><line x1="524.828" x2="461.251" y1="1064.926" y2="992.342" stroke="#a5a5a5" stroke-dasharray="4 4" stroke-linecap="round" stroke-linejoin="round" stroke-width="1"/></g><g id="Line_96"><line x1="543.288" x2="549.008" y1="1064.926" y2="992.342" stroke="#a5a5a5" stroke-dasharray="4 4" stroke-linecap="round" stroke-linejoin="round" stroke-width="1"/></g><g id="Line_97"><line x1="561.748" x2="636.765" y1="1064.926" y2="992.342" stroke="#a5a5a5" stroke-dasharray="4 4" stroke-linecap="round" stroke-linejoin="round" stroke-width="1"/></g><g id="Line_98"><line x1="743.148" x2="758.797" y1="1064.926" y2="992.342" stroke="#a5a5a5" stroke-dasharray="4 4" stroke-linecap="round" stroke-linejoin="round" stroke-width="1"/></g><g id="Line_99"><line x1="806.158" x2="688.178" y1="1064.926" y2="992.342" stroke="#a5a5a5" stroke-dasharray="4 4" stroke-linecap="round" stroke-linejoin="round" stroke-width="1"/></g><g id="Line_100"><line x1="444.556" x2="445.458" y1="953.67" y2="881.086" stroke="#a5a5a5" stroke-dasharray="4 4" stroke-linecap="round" stroke-linejoin="round" stroke-width="1"/></g><g id="Line_101"><line x1="486.95" x2="754.034" y1="958.896" y2="870.502" stroke="#a5a5a5" stroke-dasharray="4 4" stroke-linecap="round" stroke-linejoin="round" stroke-width="1"/></g><g id="Line_102"><line x1="532.312" x2="463.919" y1="953.67" y2="881.086" stroke="#a5a5a5" stroke-dasharray="4 4" stroke-linecap="round" stroke-linejoin="round" stroke-width="1"/></g><g id="Line_103"><line x1="577.872" x2="683.772" y1="953.67" y2="878.773" stroke="#a5a5a5" stroke-dasharray="4 4" stroke-linecap="round" stroke-linejoin="round" stroke-width="1"/></g><g id="Line_104"><line x1="620.281" x2="482.167" y1="953.782" y2="880.974" stroke="#a5a5a5" stroke-dasharray="4 4" stroke-linecap="round" stroke-linejoin="round" stroke-width="1"/></g><g id="Line_105"><line x1="720.644" x2="488.021" y1="958.165" y2="876.591" stroke="#a5a5a5" stroke-dasharray="4 4" stroke-linecap="round" stroke-linejoin="round" stroke-width="1"/></g><g id="Graphic_107"><text fill="#000" transform="translate(502.6598 649.97026)"><tspan x="0" y="14" fill="#000" font-family="Helvetica Neue" font-size="14">CI</tspan></text></g><g id="Graphic_108"><text fill="#000" transform="translate(745.139 648.9351)"><tspan x="0" y="14" fill="#000" font-family="Helvetica Neue" font-size="14">CD</tspan></text></g><g id="Line_109"><line x1="497.822" x2="477.109" y1="672.376" y2="696.352" stroke="#a5a5a5" stroke-dasharray="4 4" stroke-linecap="round" stroke-linejoin="round" stroke-width="1"/></g><g id="Line_110"><line x1="521.66" x2="553.229" y1="669.051" y2="696.352" stroke="#a5a5a5" stroke-dasharray="4 4" stroke-linecap="round" stroke-linejoin="round" stroke-width="1"/></g><g id="Line_111"><line x1="740.139" x2="694.378" y1="667.401" y2="696.973" stroke="#a5a5a5" stroke-dasharray="4 4" stroke-linecap="round" stroke-linejoin="round" stroke-width="1"/></g><g id="Line_112"><line x1="755.247" x2="755.247" y1="671.341" y2="696.352" stroke="#a5a5a5" stroke-dasharray="4 4" stroke-linecap="round" stroke-linejoin="round" stroke-width="1"/></g><g id="Line_113"><line x1="770.355" x2="816.116" y1="667.401" y2="696.973" stroke="#a5a5a5" stroke-dasharray="4 4" stroke-linecap="round" stroke-linejoin="round" stroke-width="1"/></g><g id="Graphic_114"><path fill="#ccc" d="M 635.564 644.97026 L 646.564 644.97026 L 646.564 664.18626 L 652.064 664.18626 L 641.064 675.18626 L 630.064 664.18626 L 635.564 664.18626 Z"/><path stroke="gray" stroke-linecap="round" stroke-linejoin="round" stroke-width="1" d="M 635.564 644.97026 L 646.564 644.97026 L 646.564 664.18626 L 652.064 664.18626 L 641.064 675.18626 L 630.064 664.18626 L 635.564 664.18626 Z"/></g><g id="Graphic_115"><path fill="#ccc" d="M 773.60865 804.6803 L 781.86955 804.6803 L 781.86955 815.3498 L 786 815.3498 L 777.7391 826.3498 L 769.4782 815.3498 L 773.60865 815.3498 Z"/><path stroke="gray" stroke-linecap="round" stroke-linejoin="round" stroke-width="1" d="M 773.60865 804.6803 L 781.86955 804.6803 L 781.86955 815.3498 L 786 815.3498 L 777.7391 826.3498 L 769.4782 815.3498 L 773.60865 815.3498 Z"/></g><g id="Graphic_117"><title>Account Box</title><path fill="#666" d="M 1011.5 550.5 L 1011.5 578.5 C 1011.5 580.7 1013.28 582.5 1015.5 582.5 L 1043.5 582.5 C 1045.7 582.5 1047.5 580.7 1047.5 578.5 L 1047.5 550.5 C 1047.5 548.3 1045.7 546.5 1043.5 546.5 L 1015.5 546.5 C 1013.28 546.5 1011.5 548.3 1011.5 550.5 Z M 1035.5 558.5 C 1035.5 561.82 1032.82 564.5 1029.5 564.5 C 1026.18 564.5 1023.5 561.82 1023.5 558.5 C 1023.5 555.18 1026.18 552.5 1029.5 552.5 C 1032.82 552.5 1035.5 555.18 1035.5 558.5 Z M 1017.5 574.5 C 1017.5 570.5 1025.5 568.3 1029.5 568.3 C 1033.5 568.3 1041.5 570.5 1041.5 574.5 L 1041.5 576.5 L 1017.5 576.5 L 1017.5 574.5 Z"/></g><g id="Graphic_123"><text fill="#000" transform="translate(976.076 584.108)"><tspan x="7.532" y="13" fill="#000" font-family="Helvetica Neue" font-size="14">Data Scientist/ </tspan> <tspan x="18.165" y="29.392" fill="#000" font-family="Helvetica Neue" font-size="14">Developers</tspan></text></g><g id="Line_124"><line x1="971.076" x2="899.064" y1="597.005" y2="587.851" stroke="#a5a5a5" stroke-dasharray="4 4" stroke-linecap="round" stroke-linejoin="round" stroke-width="1"/></g><g id="Line_125"><line x1="971.076" x2="899.064" y1="601.651" y2="711.83" stroke="#a5a5a5" stroke-dasharray="4 4" stroke-linecap="round" stroke-linejoin="round" stroke-width="1"/></g><g id="Line_126"><line x1="971.076" x2="834.66" y1="594.75" y2="467.73" stroke="#a5a5a5" stroke-dasharray="4 4" stroke-linecap="round" stroke-linejoin="round" stroke-width="1"/></g><g id="Graphic_128"><title>Account Box</title><path fill="#666" d="M 1011.5 685.2261 L 1011.5 713.2261 C 1011.5 715.4261 1013.28 717.2261 1015.5 717.2261 L 1043.5 717.2261 C 1045.7 717.2261 1047.5 715.4261 1047.5 713.2261 L 1047.5 685.2261 C 1047.5 683.0261 1045.7 681.2261 1043.5 681.2261 L 1015.5 681.2261 C 1013.28 681.2261 1011.5 683.0261 1011.5 685.2261 Z M 1035.5 693.2261 C 1035.5 696.5461 1032.82 699.2261 1029.5 699.2261 C 1026.18 699.2261 1023.5 696.5461 1023.5 693.2261 C 1023.5 689.9061 1026.18 687.2261 1029.5 687.2261 C 1032.82 687.2261 1035.5 689.9061 1035.5 693.2261 Z M 1017.5 709.2261 C 1017.5 705.2261 1025.5 703.0261 1029.5 703.0261 C 1033.5 703.0261 1041.5 705.2261 1041.5 709.2261 L 1041.5 711.2261 L 1017.5 711.2261 L 1017.5 709.2261 Z"/></g><g id="Graphic_127"><text fill="#000" transform="translate(976.076 718.8341)"><tspan x="17.773" y="13" fill="#000" font-family="Helvetica Neue" font-size="14">Data/ML/AI </tspan> <tspan x="25.942" y="29.392" fill="#000" font-family="Helvetica Neue" font-size="14">Engineer</tspan></text></g><g id="Line_132"><line x1="971.076" x2="899.064" y1="727.878" y2="619.771" stroke="#a5a5a5" stroke-dasharray="4 4" stroke-linecap="round" stroke-linejoin="round" stroke-width="1"/></g><g id="Line_133"><line x1="971.076" x2="899.064" y1="731.963" y2="728.762" stroke="#a5a5a5" stroke-dasharray="4 4" stroke-linecap="round" stroke-linejoin="round" stroke-width="1"/></g><g id="Graphic_135"><title>Account Box</title><path fill="#666" d="M 1011.5 813.0859 L 1011.5 841.0859 C 1011.5 843.2859 1013.28 845.0859 1015.5 845.0859 L 1043.5 845.0859 C 1045.7 845.0859 1047.5 843.2859 1047.5 841.0859 L 1047.5 813.0859 C 1047.5 810.8859 1045.7 809.0859 1043.5 809.0859 L 1015.5 809.0859 C 1013.28 809.0859 1011.5 810.8859 1011.5 813.0859 Z M 1035.5 821.0859 C 1035.5 824.4059 1032.82 827.0859 1029.5 827.0859 C 1026.18 827.0859 1023.5 824.4059 1023.5 821.0859 C 1023.5 817.7659 1026.18 815.0859 1029.5 815.0859 C 1032.82 815.0859 1035.5 817.7659 1035.5 821.0859 Z M 1017.5 837.0859 C 1017.5 833.0859 1025.5 830.8859 1029.5 830.8859 C 1033.5 830.8859 1041.5 833.0859 1041.5 837.0859 L 1041.5 839.0859 L 1017.5 839.0859 L 1017.5 837.0859 Z"/></g><g id="Graphic_134"><text fill="#000" transform="translate(976.076 846.6939)"><tspan x="26.978" y="13" fill="#000" font-family="Helvetica Neue" font-size="14">Platform</tspan> <tspan x="25.942" y="29.392" fill="#000" font-family="Helvetica Neue" font-size="14">Engineer</tspan></text></g><g id="Graphic_137"><title>Account Box</title><path fill="#666" d="M 1011.5 924.3421 L 1011.5 952.3421 C 1011.5 954.5421 1013.28 956.3421 1015.5 956.3421 L 1043.5 956.3421 C 1045.7 956.3421 1047.5 954.5421 1047.5 952.3421 L 1047.5 924.3421 C 1047.5 922.1421 1045.7 920.3421 1043.5 920.3421 L 1015.5 920.3421 C 1013.28 920.3421 1011.5 922.1421 1011.5 924.3421 Z M 1035.5 932.3421 C 1035.5 935.6621 1032.82 938.3421 1029.5 938.3421 C 1026.18 938.3421 1023.5 935.6621 1023.5 932.3421 C 1023.5 929.0221 1026.18 926.3421 1029.5 926.3421 C 1032.82 926.3421 1035.5 929.0221 1035.5 932.3421 Z M 1017.5 948.3421 C 1017.5 944.3421 1025.5 942.1421 1029.5 942.1421 C 1033.5 942.1421 1041.5 944.3421 1041.5 948.3421 L 1041.5 950.3421 L 1017.5 950.3421 L 1017.5 948.3421 Z"/></g><g id="Graphic_136"><text fill="#000" transform="translate(976.076 966.1461)"><tspan x="2.996" y="13" fill="#000" font-family="Helvetica Neue" font-size="14">SRE/Operations</tspan></text></g><g id="Graphic_139"><title>Account Box</title><path fill="#666" d="M 1011.5 1039.6718 L 1011.5 1067.6718 C 1011.5 1069.8718 1013.28 1071.6718 1015.5 1071.6718 L 1043.5 1071.6718 C 1045.7 1071.6718 1047.5 1069.8718 1047.5 1067.6718 L 1047.5 1039.6718 C 1047.5 1037.4718 1045.7 1035.6718 1043.5 1035.6718 L 1015.5 1035.6718 C 1013.28 1035.6718 1011.5 1037.4718 1011.5 1039.6718 Z M 1035.5 1047.6718 C 1035.5 1050.9918 1032.82 1053.6718 1029.5 1053.6718 C 1026.18 1053.6718 1023.5 1050.9918 1023.5 1047.6718 C 1023.5 1044.3518 1026.18 1041.6718 1029.5 1041.6718 C 1032.82 1041.6718 1035.5 1044.3518 1035.5 1047.6718 Z M 1017.5 1063.6718 C 1017.5 1059.6718 1025.5 1057.4718 1029.5 1057.4718 C 1033.5 1057.4718 1041.5 1059.6718 1041.5 1063.6718 L 1041.5 1065.6718 L 1017.5 1065.6718 L 1017.5 1063.6718 Z"/></g><g id="Graphic_138"><text fill="#000" transform="translate(976.076 1073.2798)"><tspan x="23.226" y="13" fill="#000" font-family="Helvetica Neue" font-size="14">Hardware</tspan> <tspan x="25.55" y="29.392" fill="#000" font-family="Helvetica Neue" font-size="14">Architect</tspan></text></g><g id="Line_140"><line x1="971.076" x2="899.064" y1="855.04" y2="729.028" stroke="#a5a5a5" stroke-dasharray="4 4" stroke-linecap="round" stroke-linejoin="round" stroke-width="1"/></g><g id="Line_142"><line x1="971.076" x2="899.064" y1="859.962" y2="860.352" stroke="#a5a5a5" stroke-dasharray="4 4" stroke-linecap="round" stroke-linejoin="round" stroke-width="1"/></g><g id="Line_143"><line x1="971.076" x2="895.067" y1="862.887" y2="942.572" stroke="#a5a5a5" stroke-dasharray="4 4" stroke-linecap="round" stroke-linejoin="round" stroke-width="1"/></g><g id="Line_144"><line x1="971.076" x2="899.064" y1="962.135" y2="729.259" stroke="#a5a5a5" stroke-dasharray="4 4" stroke-linecap="round" stroke-linejoin="round" stroke-width="1"/></g><g id="Line_145"><line x1="971.076" x2="899.064" y1="971.307" y2="973.957" stroke="#a5a5a5" stroke-dasharray="4 4" stroke-linecap="round" stroke-linejoin="round" stroke-width="1"/></g><g id="Line_147"><line x1="971.076" x2="895.035" y1="974.141" y2="1053.81" stroke="#a5a5a5" stroke-dasharray="4 4" stroke-linecap="round" stroke-linejoin="round" stroke-width="1"/></g><g id="Line_150"><line x1="971.076" x2="899.064" y1="1086.448" y2="1084.262" stroke="#a5a5a5" stroke-dasharray="4 4" stroke-linecap="round" stroke-linejoin="round" stroke-width="1"/></g><g id="Graphic_162"><path fill="#ffc0ff" d="M 687.1291 460.3529 C 729.3777 426.3279 729.3777 378.01254 687.1291 343.9875 C 659.0349 378.01254 659.0349 426.3279 687.1291 460.3529 Z"/><path stroke="gray" stroke-linecap="round" stroke-linejoin="round" stroke-width="1" d="M 687.1291 460.3529 C 729.3777 426.3279 729.3777 378.01254 687.1291 343.9875 C 659.0349 378.01254 659.0349 426.3279 687.1291 460.3529 Z"/></g><g id="Graphic_7"><text fill="#000" transform="translate(671.928 387.83422)"><tspan x="8.886" y="11" fill="#000" font-family="Helvetica Neue" font-size="12">Data</tspan> <tspan x="0" y="25.336" fill="#000" font-family="Helvetica Neue" font-size="12">Science</tspan></text></g><g id="Graphic_164"><text fill="#000" transform="translate(217.821 399.44407)"><tspan x="0" y="16" fill="#000" font-family="Helvetica Neue" font-size="16" font-weight="bold">Cloud Native AI</tspan></text></g></g></g></svg>