<?xml version="1.0" encoding="UTF-8" standalone="no"?>
<!DOCTYPE svg PUBLIC "-//W3C//DTD SVG 1.1//EN" "http://www.w3.org/Graphics/SVG/1.1/DTD/svg11.dtd">
<svg xmlns:xl="http://www.w3.org/1999/xlink" xmlns:dc="http://purl.org/dc/elements/1.1/" xmlns="http://www.w3.org/2000/svg" version="1.1" viewBox="-411 229 946 579" width="946" height="579">
  <defs>
    <marker orient="auto" overflow="visible" markerUnits="strokeWidth" id="FilledArrow_Marker" stroke-linejoin="miter" stroke-miterlimit="10" viewBox="-1 -3 7 6" markerWidth="7" markerHeight="6" color="black">
      <g>
        <path d="M 4.8 0 L 0 -1.8 L 0 1.8 Z" fill="currentColor" stroke="currentColor" stroke-width="1"/>
      </g>
    </marker>
    <marker orient="auto" overflow="visible" markerUnits="strokeWidth" id="FilledArrow_Marker_2" stroke-linejoin="miter" stroke-miterlimit="10" viewBox="-1 -3 7 6" markerWidth="7" markerHeight="6" color="#0a55a8">
      <g>
        <path d="M 4.8 0 L 0 -1.8 L 0 1.8 Z" fill="currentColor" stroke="currentColor" stroke-width="1"/>
      </g>
    </marker>
    <marker orient="auto" overflow="visible" markerUnits="strokeWidth" id="FilledArrow_Marker_3" stroke-linejoin="miter" stroke-miterlimit="10" viewBox="-1 -3 7 6" markerWidth="7" markerHeight="6" color="#f15623">
      <g>
        <path d="M 4.8 0 L 0 -1.8 L 0 1.8 Z" fill="currentColor" stroke="currentColor" stroke-width="1"/>
      </g>
    </marker>
    <marker orient="auto" overflow="visible" markerUnits="strokeWidth" id="FilledArrow_Marker_4" stroke-linejoin="miter" stroke-miterlimit="10" viewBox="-1 -3 7 6" markerWidth="7" markerHeight="6" color="black">
      <g>
        <path d="M 4.8 0 L 0 -1.8 L 0 1.8 Z" fill="currentColor" stroke="currentColor" stroke-width="1"/>
      </g>
    </marker>
  </defs>
  <g id="teg" fill="none" fill-opacity="1" stroke-opacity="1" stroke-dasharray="none" stroke="none">
    <title>teg</title>
    <rect fill="white" x="-411" y="229" width="946" height="579"/>
    <g id="teg_Layer_1">
      <title>Layer 1</title>
      <g id="Graphic_162">
        <rect x="-411" y="229" width="946" height="579" fill="white"/>
      </g>
      <g id="Graphic_161">
        <path d="M 32.5 262 L 501.5 262 C 505.9183 262 509.5 265.58172 509.5 270 L 509.5 776 C 509.5 780.4183 505.9183 784 501.5 784 L 32.5 784 C 28.081722 784 24.5 780.4183 24.5 776 L 24.5 270 C 24.5 265.58172 28.081722 262 32.5 262 Z" fill="white"/>
        <path d="M 32.5 262 L 501.5 262 C 505.9183 262 509.5 265.58172 509.5 270 L 509.5 776 C 509.5 780.4183 505.9183 784 501.5 784 L 32.5 784 C 28.081722 784 24.5 780.4183 24.5 776 L 24.5 270 C 24.5 265.58172 28.081722 262 32.5 262 Z" stroke="black" stroke-linecap="round" stroke-linejoin="round" stroke-width="1"/>
        <text transform="translate(29.5 267)" fill="black">
          <tspan font-family="Helvetica Neue" font-size="20" fill="black" x="189.7" y="20" xml:space="preserve">Istio Mesh</tspan>
        </text>
      </g>
      <g id="Graphic_160">
        <title>pod</title>
        <path d="M 85.5 568.9633 L 229.5 568.9633 C 233.91828 568.9633 237.5 572.545 237.5 576.9633 L 237.5 760.9633 C 237.5 765.38155 233.91828 768.9633 229.5 768.9633 L 85.5 768.9633 C 81.08172 768.9633 77.5 765.38155 77.5 760.9633 L 77.5 576.9633 C 77.5 572.545 81.08172 568.9633 85.5 568.9633 Z" fill="white"/>
        <path d="M 85.5 568.9633 L 229.5 568.9633 C 233.91828 568.9633 237.5 572.545 237.5 576.9633 L 237.5 760.9633 C 237.5 765.38155 233.91828 768.9633 229.5 768.9633 L 85.5 768.9633 C 81.08172 768.9633 77.5 765.38155 77.5 760.9633 L 77.5 576.9633 C 77.5 572.545 81.08172 568.9633 85.5 568.9633 Z" stroke="black" stroke-linecap="round" stroke-linejoin="round" stroke-width="1"/>
        <text transform="translate(82.5 573.9633)" fill="black">
          <tspan font-family="Helvetica Neue" font-size="16" fill="black" x="60.032" y="16" xml:space="preserve">Pod</tspan>
        </text>
      </g>
      <g id="Graphic_159">
        <title>pod</title>
        <path d="M 328.5 325.5 L 472.5 325.5 C 476.9183 325.5 480.5 329.08172 480.5 333.5 L 480.5 517.5 C 480.5 521.9183 476.9183 525.5 472.5 525.5 L 328.5 525.5 C 324.08172 525.5 320.5 521.9183 320.5 517.5 L 320.5 333.5 C 320.5 329.08172 324.08172 325.5 328.5 325.5 Z" fill="white"/>
        <path d="M 328.5 325.5 L 472.5 325.5 C 476.9183 325.5 480.5 329.08172 480.5 333.5 L 480.5 517.5 C 480.5 521.9183 476.9183 525.5 472.5 525.5 L 328.5 525.5 C 324.08172 525.5 320.5 521.9183 320.5 517.5 L 320.5 333.5 C 320.5 329.08172 324.08172 325.5 328.5 325.5 Z" stroke="black" stroke-linecap="round" stroke-linejoin="round" stroke-width="1"/>
        <text transform="translate(325.5 330.5)" fill="black">
          <tspan font-family="Helvetica Neue" font-size="16" fill="black" x="60.032" y="16" xml:space="preserve">Pod</tspan>
        </text>
      </g>
      <g id="Graphic_158">
        <title>istio-proxy</title>
        <path d="M 348.5 452 L 452.5 452 C 456.9183 452 460.5 455.5817 460.5 460 L 460.5 504 C 460.5 508.4183 456.9183 512 452.5 512 L 348.5 512 C 344.08172 512 340.5 508.4183 340.5 504 L 340.5 460 C 340.5 455.5817 344.08172 452 348.5 452 Z" fill="#0a55a8"/>
        <text transform="translate(345.5 472.26794)" fill="white">
          <tspan font-family="Helvetica Neue" font-size="16" fill="white" x="15.72" y="16" xml:space="preserve">istio-proxy</tspan>
        </text>
      </g>
      <g id="Graphic_157">
        <title>app</title>
        <path d="M 348.5 369 L 452.5 369 C 456.9183 369 460.5 372.5817 460.5 377 L 460.5 421 C 460.5 425.4183 456.9183 429 452.5 429 L 348.5 429 C 344.08172 429 340.5 425.4183 340.5 421 L 340.5 377 C 340.5 372.5817 344.08172 369 348.5 369 Z" fill="#ccc"/>
        <text transform="translate(345.5 389.26794)" fill="black">
          <tspan font-family="Helvetica Neue" font-size="16" fill="black" x="2.984" y="16" xml:space="preserve">app-container</tspan>
        </text>
      </g>
      <g id="Graphic_156">
        <title>pod</title>
        <path d="M 85.5 325.5 L 229.5 325.5 C 233.91828 325.5 237.5 329.08172 237.5 333.5 L 237.5 517.5 C 237.5 521.9183 233.91828 525.5 229.5 525.5 L 85.5 525.5 C 81.08172 525.5 77.5 521.9183 77.5 517.5 L 77.5 333.5 C 77.5 329.08172 81.08172 325.5 85.5 325.5 Z" fill="white"/>
        <path d="M 85.5 325.5 L 229.5 325.5 C 233.91828 325.5 237.5 329.08172 237.5 333.5 L 237.5 517.5 C 237.5 521.9183 233.91828 525.5 229.5 525.5 L 85.5 525.5 C 81.08172 525.5 77.5 521.9183 77.5 517.5 L 77.5 333.5 C 77.5 329.08172 81.08172 325.5 85.5 325.5 Z" stroke="black" stroke-linecap="round" stroke-linejoin="round" stroke-width="1"/>
        <text transform="translate(82.5 330.5)" fill="black">
          <tspan font-family="Helvetica Neue" font-size="16" fill="black" x="5.048" y="16" xml:space="preserve">TEG Managed Pod</tspan>
        </text>
      </g>
      <g id="Graphic_155">
        <title>istio-proxy</title>
        <path d="M 105.5 452 L 209.5 452 C 213.91828 452 217.5 455.5817 217.5 460 L 217.5 504 C 217.5 508.4183 213.91828 512 209.5 512 L 105.5 512 C 101.08172 512 97.5 508.4183 97.5 504 L 97.5 460 C 97.5 455.5817 101.08172 452 105.5 452 Z" fill="#0a55a8"/>
        <text transform="translate(102.5 472.26794)" fill="white">
          <tspan font-family="Helvetica Neue" font-size="16" fill="white" x="15.72" y="16" xml:space="preserve">istio-proxy</tspan>
        </text>
      </g>
      <g id="Graphic_154">
        <title>istio-proxy</title>
        <path d="M 348.5 669.9282 L 452.5 669.9282 C 456.9183 669.9282 460.5 673.50994 460.5 677.9282 L 460.5 721.9282 C 460.5 726.3465 456.9183 729.9282 452.5 729.9282 L 348.5 729.9282 C 344.08172 729.9282 340.5 726.3465 340.5 721.9282 L 340.5 677.9282 C 340.5 673.50994 344.08172 669.9282 348.5 669.9282 Z" fill="#0a55a8"/>
        <text transform="translate(345.5 690.1962)" fill="white">
          <tspan font-family="Helvetica Neue" font-size="16" fill="white" x="34.4" y="16" xml:space="preserve">Istiod</tspan>
        </text>
      </g>
      <g id="Graphic_153">
        <title>app</title>
        <path d="M -370 369 L -266 369 C -261.58172 369 -258 372.5817 -258 377 L -258 421 C -258 425.4183 -261.58172 429 -266 429 L -370 429 C -374.4183 429 -378 425.4183 -378 421 L -378 377 C -378 372.5817 -374.4183 369 -370 369 Z" fill="#333"/>
        <text transform="translate(-373 389.26794)" fill="white">
          <tspan font-family="Helvetica Neue" font-size="16" fill="white" x="33.664" y="16" xml:space="preserve">Client</tspan>
        </text>
      </g>
      <g id="Graphic_152">
        <title>app</title>
        <path d="M -117.5 369 L -13.5 369 C -9.081722 369 -5.5 372.5817 -5.5 377 L -5.5 421 C -5.5 425.4183 -9.081722 429 -13.5 429 L -117.5 429 C -121.91828 429 -125.5 425.4183 -125.5 421 L -125.5 377 C -125.5 372.5817 -121.91828 369 -117.5 369 Z" fill="#333"/>
        <text transform="translate(-120.5 389.26794)" fill="white">
          <tspan font-family="Helvetica Neue" font-size="16" fill="white" x="1.344" y="16" xml:space="preserve">Load Balancer</tspan>
        </text>
      </g>
      <g id="Line_151">
        <line x1="-258" y1="399" x2="-138.4" y2="399" marker-end="url(#FilledArrow_Marker)" stroke="black" stroke-linecap="round" stroke-linejoin="round" stroke-width="2"/>
      </g>
      <g id="Line_150">
        <line x1="-5.5" y1="399" x2="84.6" y2="399" marker-end="url(#FilledArrow_Marker)" stroke="black" stroke-linecap="round" stroke-linejoin="round" stroke-width="2"/>
      </g>
      <g id="Line_149">
        <line x1="400.5" y1="452" x2="400.5" y2="438.4" marker-end="url(#FilledArrow_Marker)" stroke="black" stroke-linecap="round" stroke-linejoin="round" stroke-width="2"/>
      </g>
      <g id="Line_148">
        <line x1="367.0486" y1="669.9282" x2="200.55503" y2="520.6128" marker-end="url(#FilledArrow_Marker_2)" stroke="#0a55a8" stroke-linecap="round" stroke-linejoin="round" stroke-dasharray="8.0,8.0" stroke-width="2"/>
      </g>
      <g id="Line_147">
        <line x1="400.5" y1="669.9282" x2="400.5" y2="524.9" marker-end="url(#FilledArrow_Marker_2)" stroke="#0a55a8" stroke-linecap="round" stroke-linejoin="round" stroke-dasharray="8.0,8.0" stroke-width="2"/>
      </g>
      <g id="Graphic_146">
        <title>istio-proxy</title>
        <path d="M 105.5 369 L 209.5 369 C 213.91828 369 217.5 372.5817 217.5 377 L 217.5 421 C 217.5 425.4183 213.91828 429 209.5 429 L 105.5 429 C 101.08172 429 97.5 425.4183 97.5 421 L 97.5 377 C 97.5 372.5817 101.08172 369 105.5 369 Z" fill="#f15623"/>
        <text transform="translate(102.5 389.26794)" fill="white">
          <tspan font-family="Helvetica Neue" font-size="16" fill="white" x="32.912" y="16" xml:space="preserve">envoy</tspan>
        </text>
      </g>
      <g id="Graphic_145">
        <title>istio-proxy</title>
        <path d="M 106.55753 614.7141 L 210.55753 614.7141 C 214.9758 614.7141 218.55753 618.2958 218.55753 622.7141 L 218.55753 666.7141 C 218.55753 671.1324 214.9758 674.7141 210.55753 674.7141 L 106.55753 674.7141 C 102.13926 674.7141 98.55753 671.1324 98.55753 666.7141 L 98.55753 622.7141 C 98.55753 618.2958 102.13926 614.7141 106.55753 614.7141 Z" fill="#f15623"/>
        <text transform="translate(103.55753 625.25)" fill="white">
          <tspan font-family="Helvetica Neue" font-size="16" fill="white" x="32.32" y="16" xml:space="preserve">Envoy </tspan>
          <tspan font-family="Helvetica Neue" font-size="16" fill="white" x="22.544" y="35.46411" xml:space="preserve">Gateway</tspan>
        </text>
      </g>
      <g id="Line_144">
        <path d="M 112.01883 614.7141 C 78.51628 589.749 39.171926 551.94636 39 512 C 38.863496 480.28383 63.45002 454.01134 90.25963 434.80586" marker-end="url(#FilledArrow_Marker_3)" stroke="#f15623" stroke-linecap="round" stroke-linejoin="round" stroke-dasharray="8.0,8.0" stroke-width="2"/>
      </g>
      <g id="Graphic_143">
        <title>app</title>
        <path d="M -370 614.7141 L -266 614.7141 C -261.58172 614.7141 -258 618.2958 -258 622.7141 L -258 666.7141 C -258 671.1324 -261.58172 674.7141 -266 674.7141 L -370 674.7141 C -374.4183 674.7141 -378 671.1324 -378 666.7141 L -378 622.7141 C -378 618.2958 -374.4183 614.7141 -370 614.7141 Z" fill="#333"/>
        <text transform="translate(-373 634.98206)" fill="white">
          <tspan font-family="Helvetica Neue" font-size="16" fill="white" x="31.296" y="16" xml:space="preserve">Admin</tspan>
        </text>
      </g>
      <g id="Line_142">
        <line x1="-258" y1="644.663" x2="-103.82163" y2="644.5318" marker-end="url(#FilledArrow_Marker_4)" stroke="black" stroke-linecap="round" stroke-linejoin="round" stroke-dasharray="8.0,8.0" stroke-width="2"/>
      </g>
      <g id="Line_141">
        <line x1="-40.09361" y1="644.5235" x2="85.65754" y2="644.6442" marker-end="url(#FilledArrow_Marker_3)" stroke="#f15623" stroke-linecap="round" stroke-linejoin="round" stroke-dasharray="8.0,8.0" stroke-width="2"/>
      </g>
      <g id="Group_136">
        <g id="Group_138">
          <g id="Graphic_140">
            <path d="M -65.67208 618.5021 C -66.1513 618.53024 -66.61998 618.6544 -67.0503 618.86715 L -85.71397 627.76945 C -86.6886 628.2333 -87.39696 629.11585 -87.63978 630.1675 L -92.20816 650.1474 C -92.42586 651.0852 -92.25002 652.0682 -91.70577 652.87204 C -91.64213 652.9692 -91.57515 653.06295 -91.50481 653.1534 L -78.61022 669.1862 C -77.92865 670.0235 -76.90545 670.50415 -75.826995 670.4991 L -55.1454 670.4991 C -54.0636 670.5008 -53.03873 669.9967 -52.35883 669.17115 L -39.470933 653.13496 C -38.794386 652.29765 -38.54152 651.1924 -38.801084 650.1441 L -43.3996 630.1474 C -43.64242 629.09575 -44.354134 628.2132 -45.325415 627.74935 L -63.95894 618.8688 C -64.495885 618.604 -65.09062 618.4779 -65.68883 618.5021 Z" fill="#326ce5"/>
          </g>
          <g id="Graphic_139">
            <path d="M -65.50127 625.3111 C -66.144326 625.3563 -66.63164 625.9073 -66.59815 626.5503 L -66.59815 626.86515 C -66.568005 627.22185 -66.51442 627.5752 -66.44408 627.9252 C -66.34138 628.5954 -66.30436 629.2741 -66.33356 629.9515 C -66.39719 630.1742 -66.524465 630.37516 -66.69863 630.5292 L -66.723745 631.0015 C -67.40197 631.0584 -68.07517 631.1622 -68.73832 631.31295 C -71.52824 631.9426 -74.06864 633.3895 -76.02962 635.4744 L -76.43153 635.1897 C -76.65258 635.2567 -76.89038 635.2316 -77.09301 635.1227 C -77.63657 634.7204 -78.13965 634.2661 -78.59515 633.7663 C -78.82395 633.4929 -79.06829 633.2329 -79.32696 632.9876 L -79.5748 632.79 C -79.79585 632.61246 -80.06714 632.5103 -80.35015 632.4969 C -80.69273 632.47874 -81.0233 632.62566 -81.23938 632.8921 C -81.61784 633.423 -81.49392 634.1581 -80.96474 634.5383 L -80.73364 634.7225 C -80.43616 634.9204 -80.12752 635.101 -79.80925 635.2634 C -79.21643 635.5933 -78.65711 635.9801 -78.13797 636.4356 C -78.00518 636.625 -77.92803 636.84774 -77.91525 637.0787 L -77.55018 637.4136 C -79.52121 640.371 -80.33006 643.953 -79.82432 647.4714 L -80.29321 647.60536 C -80.41546 647.7996 -80.5779 647.9654 -80.77216 648.08765 C -81.42635 648.26234 -82.09602 648.3728 -82.77166 648.41755 C -83.13022 648.4248 -83.48807 648.4528 -83.84341 648.5013 L -84.13982 648.5683 L -84.17332 648.5683 C -84.59279 648.6265 -84.94375 648.9159 -85.08075 649.31665 C -85.21775 649.7174 -85.11744 650.1611 -84.82139 650.4639 C -84.52256 650.76525 -84.0793 650.8722 -83.67595 650.74025 L -83.65418 650.74025 L -83.35275 650.70676 C -83.0128 650.6063 -82.67788 650.48236 -82.35133 650.3417 C -81.72334 650.0905 -81.07191 649.8979 -80.40541 649.7723 C -80.17432 649.7857 -79.95327 649.8644 -79.76571 649.9984 L -79.26332 649.91466 C -78.17482 653.2924 -75.88728 656.1543 -72.83277 657.9579 L -73.03707 658.3849 C -72.943295 658.5808 -72.90813 658.7985 -72.9366 659.0146 C -73.21291 659.6543 -73.55118 660.2672 -73.94639 660.84325 C -74.1632 661.129 -74.36337 661.427 -74.54591 661.7358 L -74.68825 662.03726 C -74.89883 662.4025 -74.88684 662.85504 -74.65722 663.2087 C -74.42759 663.5623 -74.0191 663.7573 -73.59975 663.71355 C -73.17936 663.6663 -72.8213 663.3866 -72.67368 662.9901 L -72.53469 662.7054 C -72.407415 662.3705 -72.30024 662.0289 -72.21316 661.6839 C -71.91675 660.9521 -71.75599 660.1667 -71.35073 659.6811 C -71.218275 659.55655 -71.05137 659.47485 -70.87179 659.4466 L -70.62059 658.98944 C -67.30947 660.2621 -63.64566 660.2711 -60.32836 659.0146 L -60.105636 659.4416 C -59.87789 659.4751 -59.67358 659.6007 -59.536264 659.7849 C -59.221435 660.3844 -58.96689 661.0124 -58.772636 661.6605 C -58.68408 662.0075 -58.575605 662.3491 -58.44776 662.68366 L -58.308766 662.96835 C -58.15972 663.36324 -57.801665 663.6411 -57.382126 663.6874 C -56.96259 663.7337 -56.55256 663.5406 -56.32099 663.1877 C -56.09167 662.8327 -56.08131 662.3789 -56.294194 662.0138 L -56.439887 661.7124 C -56.62244 661.4047 -56.822614 661.1078 -57.0394 660.82315 C -57.424565 660.2672 -57.75614 659.6744 -58.044175 659.0531 C -58.09849 658.8236 -58.0574 658.5819 -57.9303 658.3832 C -58.00175 658.2372 -58.063836 658.0867 -58.116184 657.93276 C -55.06837 656.1158 -52.790883 653.2438 -51.7141 649.8611 L -51.23851 649.9448 C -51.067697 649.7891 -50.8433 649.707 -50.613874 649.7137 C -49.94905 649.841 -49.29762 650.0486 -48.66796 650.2831 C -48.34141 650.4338 -48.006486 650.5611 -47.66654 650.66824 C -47.586156 650.69 -47.46893 650.7084 -47.3785 650.7302 L -47.35673 650.7302 C -46.95365 650.8604 -46.51162 650.75245 -46.21388 650.4512 C -45.91614 650.1499 -45.813447 649.7066 -45.948375 649.3051 C -46.08641 648.9039 -46.43892 648.6149 -46.85937 648.5582 L -47.184246 648.4812 C -47.53959 648.4327 -47.89744 648.4047 -48.256005 648.39745 C -48.93255 648.3539 -49.6024 648.2434 -50.255504 648.06755 C -50.45646 647.95535 -50.62392 647.7879 -50.737796 647.58526 L -51.189944 647.4513 C -50.707844 643.9346 -51.533784 640.36324 -53.51097 637.4153 L -53.11576 637.0502 C -53.132506 636.8208 -53.05715 636.593 -52.90811 636.4172 C -52.394 635.9751 -51.83635 635.5849 -51.25023 635.2517 C -50.931994 635.0892 -50.623355 634.9086 -50.32584 634.71076 L -50.081344 634.51315 C -49.713945 634.2851 -49.510285 633.86625 -49.55784 633.43646 C -49.6054 633.0067 -49.895704 632.64246 -50.30407 632.50026 C -50.71209 632.3582 -51.165403 632.4631 -51.469606 632.7699 L -51.71745 632.9675 C -51.97607 633.21285 -52.220405 633.47284 -52.44926 633.7462 C -52.89136 634.2519 -53.38035 634.7124 -53.911206 635.1244 C -54.125427 635.2116 -54.35978 635.2371 -54.587754 635.1981 L -55.011433 635.4995 C -57.45638 632.9373 -60.750366 631.34644 -64.28047 631.0283 C -64.28047 630.8608 -64.30224 630.6096 -64.30559 630.5309 C -64.49482 630.4003 -64.62712 630.201 -64.67066 629.9749 C -64.693885 629.2986 -64.65126 628.6217 -64.54339 627.95366 C -64.47138 627.602 -64.42114 627.2503 -64.38932 626.8936 L -64.38932 626.5587 C -64.35583 625.91564 -64.84147 625.3647 -65.4862 625.3195 Z M -66.89791 633.9622 L -67.23283 639.81166 L -67.25795 639.81166 C -67.2747 640.1734 -67.48737 640.4815 -67.813925 640.6557 C -68.14048 640.8298 -68.527314 640.7779 -68.8187 640.56524 L -73.61649 637.16576 C -72.08941 635.66584 -70.173635 634.6224 -68.08521 634.1531 C -67.69335 634.0694 -67.29814 634.00574 -66.901255 633.9622 Z M -64.104635 633.9622 C -61.58433 634.27536 -59.23818 635.4074 -57.42289 637.1842 L -62.17547 640.5619 C -62.46853 640.79634 -62.87044 640.8432 -63.21039 640.6825 C -63.550335 640.5217 -63.768036 640.1801 -63.77306 639.805 Z M -75.3581 639.3662 L -70.97059 643.2815 L -70.97059 643.3066 C -70.697625 643.5444 -70.57873 643.9145 -70.65911 644.2678 C -70.73949 644.6212 -71.01078 644.90084 -71.35743 644.9963 L -71.35743 645.01304 L -76.98751 646.6324 C -77.2661 644.0959 -76.69223 641.5388 -75.35643 639.3645 Z M -55.67626 639.3662 C -54.34326 641.53485 -53.75379 644.0786 -53.998286 646.6123 L -59.63674 644.9879 L -59.63674 644.96615 C -59.98841 644.8707 -60.25635 644.591 -60.33506 644.2377 C -60.41377 643.88434 -60.29654 643.5176 -60.02358 643.27646 L -55.66956 639.3796 Z M -66.40054 643.58626 L -64.60535 643.58626 L -63.50847 644.97955 L -63.90703 646.72116 L -65.51969 647.4965 L -67.1357 646.72116 L -67.51584 644.97955 Z M -60.64989 648.33884 C -60.57453 648.3305 -60.482426 648.3305 -60.423814 648.33884 L -54.6179 649.3185 C -55.45521 651.72995 -57.10806 653.7897 -59.264975 655.16795 L -61.50897 649.7355 C -61.63417 649.4397 -61.607804 649.10156 -61.438275 648.8288 C -61.268746 648.556 -60.97721 648.38264 -60.65659 648.36396 Z M -70.40122 648.36396 C -70.07299 648.369 -69.769884 648.5381 -69.5907 648.81276 C -69.411515 649.0874 -69.38305 649.4324 -69.51199 649.7338 L -69.51199 649.7556 L -71.74259 655.1445 C -73.87773 653.77634 -75.49877 651.7417 -76.3612 649.3553 L -70.60552 648.379 C -70.541885 648.3723 -70.476575 648.3723 -70.411265 648.379 Z M -65.53811 650.7084 C -65.164985 650.6967 -64.817085 650.8962 -64.63884 651.2242 L -64.61707 651.2242 L -61.78026 656.3435 L -62.91398 656.6785 C -65.00056 657.1557 -67.17924 657.0435 -69.20721 656.3536 L -66.36035 651.2343 C -66.18787 650.9328 -65.86969 650.7486 -65.52304 650.74025 Z" fill="white"/>
            <path d="M -65.50127 625.3111 C -66.144326 625.3563 -66.63164 625.9073 -66.59815 626.5503 L -66.59815 626.86515 C -66.568005 627.22185 -66.51442 627.5752 -66.44408 627.9252 C -66.34138 628.5954 -66.30436 629.2741 -66.33356 629.9515 C -66.39719 630.1742 -66.524465 630.37516 -66.69863 630.5292 L -66.723745 631.0015 C -67.40197 631.0584 -68.07517 631.1622 -68.73832 631.31295 C -71.52824 631.9426 -74.06864 633.3895 -76.02962 635.4744 L -76.43153 635.1897 C -76.65258 635.2567 -76.89038 635.2316 -77.09301 635.1227 C -77.63657 634.7204 -78.13965 634.2661 -78.59515 633.7663 C -78.82395 633.4929 -79.06829 633.2329 -79.32696 632.9876 L -79.5748 632.79 C -79.79585 632.61246 -80.06714 632.5103 -80.35015 632.4969 C -80.69273 632.47874 -81.0233 632.62566 -81.23938 632.8921 C -81.61784 633.423 -81.49392 634.1581 -80.96474 634.5383 L -80.73364 634.7225 C -80.43616 634.9204 -80.12752 635.101 -79.80925 635.2634 C -79.21643 635.5933 -78.65711 635.9801 -78.13797 636.4356 C -78.00518 636.625 -77.92803 636.84774 -77.91525 637.0787 L -77.55018 637.4136 C -79.52121 640.371 -80.33006 643.953 -79.82432 647.4714 L -80.29321 647.60536 C -80.41546 647.7996 -80.5779 647.9654 -80.77216 648.08765 C -81.42635 648.26234 -82.09602 648.3728 -82.77166 648.41755 C -83.13022 648.4248 -83.48807 648.4528 -83.84341 648.5013 L -84.13982 648.5683 L -84.17332 648.5683 C -84.59279 648.6265 -84.94375 648.9159 -85.08075 649.31665 C -85.21775 649.7174 -85.11744 650.1611 -84.82139 650.4639 C -84.52256 650.76525 -84.0793 650.8722 -83.67595 650.74025 L -83.65418 650.74025 L -83.35275 650.70676 C -83.0128 650.6063 -82.67788 650.48236 -82.35133 650.3417 C -81.72334 650.0905 -81.07191 649.8979 -80.40541 649.7723 C -80.17432 649.7857 -79.95327 649.8644 -79.76571 649.9984 L -79.26332 649.91466 C -78.17482 653.2924 -75.88728 656.1543 -72.83277 657.9579 L -73.03707 658.3849 C -72.943295 658.5808 -72.90813 658.7985 -72.9366 659.0146 C -73.21291 659.6543 -73.55118 660.2672 -73.94639 660.84325 C -74.1632 661.129 -74.36337 661.427 -74.54591 661.7358 L -74.68825 662.03726 C -74.89883 662.4025 -74.88684 662.85504 -74.65722 663.2087 C -74.42759 663.5623 -74.0191 663.7573 -73.59975 663.71355 C -73.17936 663.6663 -72.8213 663.3866 -72.67368 662.9901 L -72.53469 662.7054 C -72.407415 662.3705 -72.30024 662.0289 -72.21316 661.6839 C -71.91675 660.9521 -71.75599 660.1667 -71.35073 659.6811 C -71.218275 659.55655 -71.05137 659.47485 -70.87179 659.4466 L -70.62059 658.98944 C -67.30947 660.2621 -63.64566 660.2711 -60.32836 659.0146 L -60.105636 659.4416 C -59.87789 659.4751 -59.67358 659.6007 -59.536264 659.7849 C -59.221435 660.3844 -58.96689 661.0124 -58.772636 661.6605 C -58.68408 662.0075 -58.575605 662.3491 -58.44776 662.68366 L -58.308766 662.96835 C -58.15972 663.36324 -57.801665 663.6411 -57.382126 663.6874 C -56.96259 663.7337 -56.55256 663.5406 -56.32099 663.1877 C -56.09167 662.8327 -56.08131 662.3789 -56.294194 662.0138 L -56.439887 661.7124 C -56.62244 661.4047 -56.822614 661.1078 -57.0394 660.82315 C -57.424565 660.2672 -57.75614 659.6744 -58.044175 659.0531 C -58.09849 658.8236 -58.0574 658.5819 -57.9303 658.3832 C -58.00175 658.2372 -58.063836 658.0867 -58.116184 657.93276 C -55.06837 656.1158 -52.790883 653.2438 -51.7141 649.8611 L -51.23851 649.9448 C -51.067697 649.7891 -50.8433 649.707 -50.613874 649.7137 C -49.94905 649.841 -49.29762 650.0486 -48.66796 650.2831 C -48.34141 650.4338 -48.006486 650.5611 -47.66654 650.66824 C -47.586156 650.69 -47.46893 650.7084 -47.3785 650.7302 L -47.35673 650.7302 C -46.95365 650.8604 -46.51162 650.75245 -46.21388 650.4512 C -45.91614 650.1499 -45.813447 649.7066 -45.948375 649.3051 C -46.08641 648.9039 -46.43892 648.6149 -46.85937 648.5582 L -47.184246 648.4812 C -47.53959 648.4327 -47.89744 648.4047 -48.256005 648.39745 C -48.93255 648.3539 -49.6024 648.2434 -50.255504 648.06755 C -50.45646 647.95535 -50.62392 647.7879 -50.737796 647.58526 L -51.189944 647.4513 C -50.707844 643.9346 -51.533784 640.36324 -53.51097 637.4153 L -53.11576 637.0502 C -53.132506 636.8208 -53.05715 636.593 -52.90811 636.4172 C -52.394 635.9751 -51.83635 635.5849 -51.25023 635.2517 C -50.931994 635.0892 -50.623355 634.9086 -50.32584 634.71076 L -50.081344 634.51315 C -49.713945 634.2851 -49.510285 633.86625 -49.55784 633.43646 C -49.6054 633.0067 -49.895704 632.64246 -50.30407 632.50026 C -50.71209 632.3582 -51.165403 632.4631 -51.469606 632.7699 L -51.71745 632.9675 C -51.97607 633.21285 -52.220405 633.47284 -52.44926 633.7462 C -52.89136 634.2519 -53.38035 634.7124 -53.911206 635.1244 C -54.125427 635.2116 -54.35978 635.2371 -54.587754 635.1981 L -55.011433 635.4995 C -57.45638 632.9373 -60.750366 631.34644 -64.28047 631.0283 C -64.28047 630.8608 -64.30224 630.6096 -64.30559 630.5309 C -64.49482 630.4003 -64.62712 630.201 -64.67066 629.9749 C -64.693885 629.2986 -64.65126 628.6217 -64.54339 627.95366 C -64.47138 627.602 -64.42114 627.2503 -64.38932 626.8936 L -64.38932 626.5587 C -64.35583 625.91564 -64.84147 625.3647 -65.4862 625.3195 Z M -66.89791 633.9622 L -67.23283 639.81166 L -67.25795 639.81166 C -67.2747 640.1734 -67.48737 640.4815 -67.813925 640.6557 C -68.14048 640.8298 -68.527314 640.7779 -68.8187 640.56524 L -73.61649 637.16576 C -72.08941 635.66584 -70.173635 634.6224 -68.08521 634.1531 C -67.69335 634.0694 -67.29814 634.00574 -66.901255 633.9622 Z M -64.104635 633.9622 C -61.58433 634.27536 -59.23818 635.4074 -57.42289 637.1842 L -62.17547 640.5619 C -62.46853 640.79634 -62.87044 640.8432 -63.21039 640.6825 C -63.550335 640.5217 -63.768036 640.1801 -63.77306 639.805 Z M -75.3581 639.3662 L -70.97059 643.2815 L -70.97059 643.3066 C -70.697625 643.5444 -70.57873 643.9145 -70.65911 644.2678 C -70.73949 644.6212 -71.01078 644.90084 -71.35743 644.9963 L -71.35743 645.01304 L -76.98751 646.6324 C -77.2661 644.0959 -76.69223 641.5388 -75.35643 639.3645 Z M -55.67626 639.3662 C -54.34326 641.53485 -53.75379 644.0786 -53.998286 646.6123 L -59.63674 644.9879 L -59.63674 644.96615 C -59.98841 644.8707 -60.25635 644.591 -60.33506 644.2377 C -60.41377 643.88434 -60.29654 643.5176 -60.02358 643.27646 L -55.66956 639.3796 Z M -66.40054 643.58626 L -64.60535 643.58626 L -63.50847 644.97955 L -63.90703 646.72116 L -65.51969 647.4965 L -67.1357 646.72116 L -67.51584 644.97955 Z M -60.64989 648.33884 C -60.57453 648.3305 -60.482426 648.3305 -60.423814 648.33884 L -54.6179 649.3185 C -55.45521 651.72995 -57.10806 653.7897 -59.264975 655.16795 L -61.50897 649.7355 C -61.63417 649.4397 -61.607804 649.10156 -61.438275 648.8288 C -61.268746 648.556 -60.97721 648.38264 -60.65659 648.36396 Z M -70.40122 648.36396 C -70.07299 648.369 -69.769884 648.5381 -69.5907 648.81276 C -69.411515 649.0874 -69.38305 649.4324 -69.51199 649.7338 L -69.51199 649.7556 L -71.74259 655.1445 C -73.87773 653.77634 -75.49877 651.7417 -76.3612 649.3553 L -70.60552 648.379 C -70.541885 648.3723 -70.476575 648.3723 -70.411265 648.379 Z M -65.53811 650.7084 C -65.164985 650.6967 -64.817085 650.8962 -64.63884 651.2242 L -64.61707 651.2242 L -61.78026 656.3435 L -62.91398 656.6785 C -65.00056 657.1557 -67.17924 657.0435 -69.20721 656.3536 L -66.36035 651.2343 C -66.18787 650.9328 -65.86969 650.7486 -65.52304 650.74025 Z" stroke="white" stroke-linecap="butt" stroke-linejoin="round" stroke-width=".055"/>
          </g>
        </g>
        <g id="Graphic_137">
          <text transform="translate(-108.172 675.4992)" fill="black">
            <tspan font-family="Helvetica Neue" font-size="16" fill="black" x="48316906e-20" y="16" xml:space="preserve">Kubernetes</tspan>
            <tspan font-family="Helvetica Neue" font-size="16" fill="black" x="3.688" y="35.46411" xml:space="preserve">API Server</tspan>
          </text>
        </g>
      </g>
      <g id="Line_135">
        <line x1="217.5" y1="419.49383" x2="328.29246" y2="457.3365" marker-end="url(#FilledArrow_Marker)" stroke="black" stroke-linecap="round" stroke-linejoin="round" stroke-width="2"/>
      </g>
      <g id="Graphic_134">
        <rect x="-230.1112" y="621.1517" width="92.96" height="46.895996" fill="white"/>
        <text transform="translate(-225.1112 626.1517)" fill="black">
          <tspan font-family="Helvetica Neue" font-size="16" fill="black" x="9.936" y="15" xml:space="preserve">Gateway</tspan>
          <tspan font-family="Helvetica Neue" font-size="16" fill="black" x="0" y="33.448" xml:space="preserve">HTTPRoute</tspan>
        </text>
      </g>
      <g id="Graphic_133">
        <title>istio-proxy</title>
        <path d="M 106.55753 684.2141 L 210.55753 684.2141 C 214.9758 684.2141 218.55753 687.7958 218.55753 692.2141 L 218.55753 736.2141 C 218.55753 740.6324 214.9758 744.2141 210.55753 744.2141 L 106.55753 744.2141 C 102.13926 744.2141 98.55753 740.6324 98.55753 736.2141 L 98.55753 692.2141 C 98.55753 687.7958 102.13926 684.2141 106.55753 684.2141 Z" fill="#0a55a8"/>
        <text transform="translate(103.55753 704.48206)" fill="white">
          <tspan font-family="Helvetica Neue" font-size="16" fill="white" x="15.72" y="16" xml:space="preserve">istio-proxy</tspan>
        </text>
      </g>
      <g id="Line_132">
        <path d="M 369.42013 669.9282 C 356.8911 664.02255 339.7043 660.0016 316.3872 661.37836 C 288.17125 663.0444 256.44032 672.29214 228.86966 682.5972" marker-end="url(#FilledArrow_Marker_2)" stroke="#0a55a8" stroke-linecap="round" stroke-linejoin="round" stroke-dasharray="8.0,8.0" stroke-width="2"/>
      </g>
      <g id="Group_126">
        <g id="Graphic_131">
          <rect x="269" y="579.896" width="28" height="28" fill="white"/>
        </g>
        <g id="Group_127">
          <g id="Group_128">
            <g id="Graphic_130">
              <path d="M 294.67086 602.22266 L 290.1667 602.22266 L 290.1667 597.82126 C 291.0287 596.8451 291.5482 595.57775 291.5482 594.19054 C 291.5482 591.1307 289.01355 588.6474 285.8966 588.6474 C 282.77967 588.6474 280.245 591.1364 280.245 594.19054 C 280.245 595.57775 280.7645 596.8451 281.6265 597.82126 L 281.6265 602.22266 L 271.3566 602.22266 L 271.3566 582.22514 L 294.66515 582.22514 L 294.66515 602.22266 Z M 285.8966 602.79924 L 283.9728 604.2778 L 283.9728 599.4083 C 284.5722 599.6195 285.223 599.7394 285.8966 599.7394 C 286.57023 599.7394 287.22102 599.6252 287.82044 599.4083 L 287.82044 604.2778 Z M 285.8966 597.41024 C 284.06412 597.41024 282.57416 595.96594 282.57416 594.19054 C 282.57416 592.41514 284.06412 590.97084 285.8966 590.97084 C 287.7291 590.97084 289.21906 592.41514 289.21906 594.19054 C 289.21906 595.96594 287.7291 597.41024 285.8966 597.41024 Z M 295.83543 579.896 L 270.19202 579.896 C 269.54694 579.896 269.02745 580.4155 269.02745 581.0606 L 269.02745 603.3872 C 269.02745 604.0323 269.54694 604.5518 270.19202 604.5518 L 281.6265 604.5518 L 281.6265 606.7268 C 281.6265 607.66874 282.71116 608.20536 283.459 607.6288 L 285.8966 605.7563 L 288.33422 607.6288 C 289.08206 608.20536 290.1667 607.66874 290.1667 606.7268 L 290.1667 604.5518 L 295.83543 604.5518 C 296.4805 604.5518 297 604.0323 297 603.3872 L 297 581.0606 C 297 580.4155 296.4805 579.896 295.83543 579.896 Z" fill="#10870d"/>
            </g>
            <g id="Graphic_129">
              <path d="M 277.0253 587.5399 L 288.99643 587.5399 C 289.6415 587.5399 290.161 587.0204 290.161 586.37535 C 290.161 585.7303 289.6415 585.2108 288.99643 585.2108 L 277.0253 585.2108 C 276.38023 585.2108 275.86074 585.7303 275.86074 586.37535 C 275.86074 587.0147 276.38594 587.5399 277.0253 587.5399 Z" fill="#10870d"/>
            </g>
          </g>
        </g>
      </g>
      <g id="Group_120">
        <g id="Graphic_125">
          <rect x="265.52877" y="654.9633" width="28" height="28" fill="white"/>
        </g>
        <g id="Group_121">
          <g id="Group_122">
            <g id="Graphic_124">
              <path d="M 291.19962 677.2899 L 286.69547 677.2899 L 286.69547 672.88854 C 287.5575 671.91236 288.07697 670.645 288.07697 669.2578 C 288.07697 666.198 285.54232 663.7147 282.42538 663.7147 C 279.30844 663.7147 276.77378 666.2037 276.77378 669.2578 C 276.77378 670.645 277.29327 671.91236 278.15528 672.88854 L 278.15528 677.2899 L 267.88536 677.2899 L 267.88536 657.2924 L 291.1939 657.2924 L 291.1939 677.2899 Z M 282.42538 677.8665 L 280.50155 679.3451 L 280.50155 674.47556 C 281.10096 674.6868 281.75175 674.8067 282.42538 674.8067 C 283.099 674.8067 283.7498 674.6925 284.3492 674.47556 L 284.3492 679.3451 Z M 282.42538 672.4775 C 280.5929 672.4775 279.10292 671.0332 279.10292 669.2578 C 279.10292 667.4824 280.5929 666.0381 282.42538 666.0381 C 284.25786 666.0381 285.74783 667.4824 285.74783 669.2578 C 285.74783 671.0332 284.25786 672.4775 282.42538 672.4775 Z M 292.3642 654.9633 L 266.7208 654.9633 C 266.0757 654.9633 265.5562 655.4828 265.5562 656.12785 L 265.5562 678.4545 C 265.5562 679.0996 266.0757 679.6191 266.7208 679.6191 L 278.15528 679.6191 L 278.15528 681.7941 C 278.15528 682.736 279.23993 683.2726 279.98777 682.6961 L 282.42538 680.8236 L 284.863 682.6961 C 285.61082 683.2726 286.69547 682.736 286.69547 681.7941 L 286.69547 679.6191 L 292.3642 679.6191 C 293.00928 679.6191 293.52877 679.0996 293.52877 678.4545 L 293.52877 656.12785 C 293.52877 655.4828 293.00928 654.9633 292.3642 654.9633 Z" fill="#10870d"/>
            </g>
            <g id="Graphic_123">
              <path d="M 273.55408 662.6072 L 285.5252 662.6072 C 286.17027 662.6072 286.68976 662.0877 286.68976 661.4426 C 286.68976 660.79755 286.17027 660.27806 285.5252 660.27806 L 273.55408 660.27806 C 272.909 660.27806 272.3895 660.79755 272.3895 661.4426 C 272.3895 662.082 272.9147 662.6072 273.55408 662.6072 Z" fill="#10870d"/>
            </g>
          </g>
        </g>
      </g>
      <g id="Group_114">
        <g id="Graphic_119">
          <rect x="386.5" y="608.5" width="28" height="28" fill="white"/>
        </g>
        <g id="Group_115">
          <g id="Group_116">
            <g id="Graphic_118">
              <path d="M 412.17086 630.8267 L 407.6667 630.8267 L 407.6667 626.4253 C 408.5287 625.4491 409.0482 624.18175 409.0482 622.79454 C 409.0482 619.7347 406.51355 617.2514 403.3966 617.2514 C 400.27967 617.2514 397.745 619.7404 397.745 622.79454 C 397.745 624.18175 398.2645 625.4491 399.1265 626.4253 L 399.1265 630.8267 L 388.8566 630.8267 L 388.8566 610.82914 L 412.16515 610.82914 L 412.16515 630.8267 Z M 403.3966 631.40324 L 401.4728 632.8818 L 401.4728 628.0123 C 402.0722 628.2235 402.723 628.3434 403.3966 628.3434 C 404.07023 628.3434 404.72102 628.2292 405.32044 628.0123 L 405.32044 632.8818 Z M 403.3966 626.01424 C 401.5641 626.01424 400.07416 624.56995 400.07416 622.79454 C 400.07416 621.01914 401.5641 619.57485 403.3966 619.57485 C 405.2291 619.57485 406.71906 621.01914 406.71906 622.79454 C 406.71906 624.56995 405.2291 626.01424 403.3966 626.01424 Z M 413.33543 608.5 L 387.692 608.5 C 387.04694 608.5 386.52745 609.0195 386.52745 609.6646 L 386.52745 631.9912 C 386.52745 632.6363 387.04694 633.1558 387.692 633.1558 L 399.1265 633.1558 L 399.1265 635.3308 C 399.1265 636.27275 400.21116 636.8094 400.959 636.2328 L 403.3966 634.36034 L 405.8342 636.2328 C 406.58206 636.8094 407.6667 636.27275 407.6667 635.3308 L 407.6667 633.1558 L 413.33543 633.1558 C 413.9805 633.1558 414.5 632.6363 414.5 631.9912 L 414.5 609.6646 C 414.5 609.0195 413.9805 608.5 413.33543 608.5 Z" fill="#10870d"/>
            </g>
            <g id="Graphic_117">
              <path d="M 394.5253 616.1439 L 406.49643 616.1439 C 407.1415 616.1439 407.661 615.62444 407.661 614.97936 C 407.661 614.3343 407.1415 613.8148 406.49643 613.8148 L 394.5253 613.8148 C 393.88023 613.8148 393.36074 614.3343 393.36074 614.97936 C 393.36074 615.6187 393.88594 616.1439 394.5253 616.1439 Z" fill="#10870d"/>
            </g>
          </g>
        </g>
      </g>
      <g id="Graphic_113">
        <rect x="344.684" y="551.4609" width="111.632" height="46.895996" fill="white"/>
        <text transform="translate(349.684 556.4609)" fill="black">
          <tspan font-family="Helvetica Neue" font-size="16" fill="black" x="15.848" y="15" xml:space="preserve">Certs and</tspan>
          <tspan font-family="Helvetica Neue" font-size="16" fill="black" x="7105427e-19" y="33.448" xml:space="preserve">configurations</tspan>
        </text>
      </g>
      <g id="Graphic_112">
        <text transform="translate(242.5 626.1517)" fill="black">
          <tspan font-family="Helvetica Neue" font-size="16" fill="black" x="8526513e-20" y="15" xml:space="preserve">Only certs</tspan>
        </text>
      </g>
    </g>
  </g>
</svg>
