<?xml version="1.0" encoding="UTF-8" standalone="no"?>
<!DOCTYPE svg PUBLIC "-//W3C//DTD SVG 1.1//EN" "http://www.w3.org/Graphics/SVG/1.1/DTD/svg11.dtd">
<svg xmlns:xl="http://www.w3.org/1999/xlink" xmlns:dc="http://purl.org/dc/elements/1.1/" xmlns="http://www.w3.org/2000/svg" version="1.1" viewBox="-227 -19 1450 928" width="1450" height="928">
  <defs>
    <marker orient="auto" overflow="visible" markerUnits="strokeWidth" id="FilledArrow_Marker" stroke-linejoin="miter" stroke-miterlimit="10" viewBox="-1 -3 7 6" markerWidth="7" markerHeight="6" color="black">
      <g>
        <path d="M 4.8 0 L 0 -1.8 L 0 1.8 Z" fill="currentColor" stroke="currentColor" stroke-width="1"/>
      </g>
    </marker>
    <marker orient="auto" overflow="visible" markerUnits="strokeWidth" id="FilledArrow_Marker_2" stroke-linejoin="miter" stroke-miterlimit="10" viewBox="-1 -4 10 8" markerWidth="10" markerHeight="8" color="#666">
      <g>
        <path d="M 8 0 L 0 -3 L 0 3 Z" fill="currentColor" stroke="currentColor" stroke-width="1"/>
      </g>
    </marker>
  </defs>
  <g id="Canvas_1" fill="none" fill-opacity="1" stroke-opacity="1" stroke-dasharray="none" stroke="none">
    <title>Canvas 1</title>
    <rect fill="white" x="-227" y="-19" width="1450" height="928"/>
    <g id="Canvas_1_Layer_1">
      <title>Layer 1</title>
      <g id="Graphic_60">
        <rect x="-227" y="-19" width="1450" height="928" fill="white"/>
      </g>
      <g id="Graphic_59">
        <rect x="817" y="610" width="378" height="276" fill="white"/>
        <rect x="817" y="610" width="378" height="276" stroke="#666" stroke-linecap="round" stroke-linejoin="round" stroke-width="1"/>
      </g>
      <g id="Graphic_36">
        <path d="M -157.43 214 L 932 214 C 936.4183 214 940 217.58172 940 222 L 940 576 C 940 580.4183 936.4183 584 932 584 L -157.43 584 C -161.84828 584 -165.43 580.4183 -165.43 576 L -165.43 222 C -165.43 217.58172 -161.84828 214 -157.43 214 Z" stroke="#456bb0" stroke-linecap="round" stroke-linejoin="round" stroke-width="1"/>
        <text transform="translate(-151.43 225)" fill="black">
          <tspan font-family="Helvetica Neue" font-weight="bold" font-size="16" fill="black" x="0" y="16" xml:space="preserve">Kuberentes Cluster</tspan>
        </text>
      </g>
      <g id="Graphic_40">
        <path d="M -190.43 171 L 1195 171 L 1195 368 L -190.43 368 Z" stroke="#f15623" stroke-linecap="round" stroke-linejoin="round" stroke-dasharray="4.0,4.0" stroke-width="1"/>
      </g>
      <g id="Graphic_2">
        <path d="M 307 75.89953 L 471 75.89953 C 475.4183 75.89953 479 79.48125 479 83.89953 L 479 127.89953 C 479 132.31781 475.4183 135.89953 471 135.89953 L 307 135.89953 C 302.58172 135.89953 299 132.31781 299 127.89953 L 299 83.89953 C 299 79.48125 302.58172 75.89953 307 75.89953 Z" fill="#0a55a8"/>
        <text transform="translate(304 96.16748)" fill="white">
          <tspan font-family="Helvetica Neue" font-size="16" fill="white" x="31.344" y="16" xml:space="preserve">Load Balancer</tspan>
        </text>
      </g>
      <g id="Graphic_3">
        <path d="M 307 257.5361 L 471 257.5361 C 475.4183 257.5361 479 261.11783 479 265.5361 L 479 309.5361 C 479 313.9544 475.4183 317.5361 471 317.5361 L 307 317.5361 C 302.58172 317.5361 299 313.9544 299 309.5361 L 299 265.5361 C 299 261.11783 302.58172 257.5361 307 257.5361 Z" fill="#60f"/>
      </g>
      <g id="Group_4">
        <g id="Graphic_7">
          <path d="M 346.07852 288.8189 L 343.0388 286.92704 L 343.10257 289.81796 L 346.1423 291.7098 Z M 350.45742 298.93712 L 350.39365 296.10997 L 347.73655 294.45194 C 347.69404 294.43068 347.65153 294.38817 347.63027 294.3669 L 347.69404 297.21532 Z M 340.95564 302.7421 L 334.00467 298.42696 L 333.8346 291.19965 L 337.2357 289.73293 L 337.17193 286.842 L 331.7302 289.18025 C 331.30506 289.37157 331.04998 289.7542 331.07123 290.20058 L 331.2838 298.87335 C 331.2838 299.31974 331.56014 299.76613 331.98527 300.0212 L 340.31793 305.1866 C 340.70056 305.42044 341.1682 305.4842 341.5721 305.37793 C 341.6146 305.35667 341.6571 305.35667 341.69963 305.3354 L 346.8225 303.1247 L 344.03787 301.4029 Z" fill="white"/>
        </g>
        <g id="Graphic_6">
          <path d="M 363.42406 286.75698 C 363.4028 286.24682 363.1052 285.7154 362.59505 285.4178 L 352.4768 279.14705 L 352.15797 279.2746 L 352.22174 282.3143 L 360.23554 287.2884 L 360.42686 295.4085 L 363.48783 297.30035 L 363.6579 297.23658 Z M 351.3077 301.0203 L 341.89094 295.19593 L 341.6571 285.4178 L 345.951 283.56846 L 345.86596 280.18863 L 339.2126 283.0583 C 338.72368 283.27087 338.4261 283.71726 338.44734 284.24868 L 338.72368 295.72735 C 338.72368 296.25876 339.04253 296.76893 339.5527 297.06652 L 350.58496 303.9112 C 351.03136 304.18755 351.58403 304.27257 352.0517 304.12378 C 352.0942 304.10252 352.1367 304.08126 352.17922 304.08126 L 358.6838 301.27537 L 355.45277 299.27723 Z" fill="white"/>
        </g>
        <g id="Graphic_5">
          <path d="M 377.7724 278.7219 L 363.63663 269.96412 C 363.1052 269.64527 362.48876 269.56024 361.95734 269.7303 C 361.91483 269.75155 361.85106 269.7728 361.80855 269.79406 L 348.0129 275.74597 C 347.4602 275.9798 347.1201 276.48995 347.14136 277.1064 L 347.48147 291.8161 C 347.50273 292.4113 347.8641 293.00648 348.43803 293.3466 L 362.5738 302.10438 C 363.08395 302.42323 363.72166 302.50826 364.25308 302.3382 C 364.2956 302.31695 364.35936 302.2957 364.40188 302.27444 L 378.19753 296.32254 C 378.7502 296.0887 379.0903 295.5573 379.06906 294.9621 L 378.72895 280.2524 C 378.7077 279.6572 378.34633 279.08328 377.7724 278.7219 Z M 363.4028 298.80958 L 351.1164 291.19965 L 350.8188 278.42432 L 362.8076 273.25892 L 375.09404 280.86885 L 375.39163 293.64418 Z" fill="white"/>
        </g>
      </g>
      <g id="Graphic_8">
        <text transform="translate(396.57 280.96364)" fill="white">
          <tspan font-family="Helvetica Neue" font-size="16" fill="white" x="2877698e-19" y="16" xml:space="preserve">Envoy</tspan>
        </text>
      </g>
      <g id="Graphic_9">
        <path d="M -129.5 257.5361 L 34.5 257.5361 C 38.91828 257.5361 42.5 261.11783 42.5 265.5361 L 42.5 309.5361 C 42.5 313.9544 38.91828 317.5361 34.5 317.5361 L -129.5 317.5361 C -133.91828 317.5361 -137.5 313.9544 -137.5 309.5361 L -137.5 265.5361 C -137.5 261.11783 -133.91828 257.5361 -129.5 257.5361 Z" fill="#60f"/>
        <text transform="translate(-132.5 277.80405)" fill="white">
          <tspan font-family="Helvetica Neue" font-size="16" fill="white" x="29.56" y="16" xml:space="preserve">envoy gateway</tspan>
        </text>
      </g>
      <g id="Graphic_10">
        <path d="M 376.5271 418 L 540.5271 418 C 544.94537 418 548.5271 421.5817 548.5271 426 L 548.5271 470 C 548.5271 474.4183 544.94537 478 540.5271 478 L 376.5271 478 C 372.1088 478 368.5271 474.4183 368.5271 470 L 368.5271 426 C 368.5271 421.5817 372.1088 418 376.5271 418 Z" fill="#1400ff"/>
        <text transform="translate(373.5271 438.26794)" fill="white">
          <tspan font-family="Helvetica Neue" font-size="16" fill="white" x="39.648" y="16" xml:space="preserve">App/Service</tspan>
        </text>
      </g>
      <g id="Graphic_11">
        <path d="M 263 709.4639 L 427 709.4639 C 431.4183 709.4639 435 713.0456 435 717.4639 L 435 761.4639 C 435 765.8822 431.4183 769.4639 427 769.4639 L 263 769.4639 C 258.58172 769.4639 255 765.8822 255 761.4639 L 255 717.4639 C 255 713.0456 258.58172 709.4639 263 709.4639 Z" fill="#1400ff"/>
        <text transform="translate(260 721.5358)" fill="white">
          <tspan font-family="Helvetica Neue" font-size="16" fill="white" x="39.648" y="16" xml:space="preserve">App/Service</tspan>
          <tspan font-family="Helvetica Neue" font-style="italic" font-size="14" fill="white" x="24.982" y="32.46411" xml:space="preserve">Outside Kubernetes</tspan>
        </text>
      </g>
      <g id="Graphic_12">
        <path d="M 41 483.5 L 205 483.5 C 209.41828 483.5 213 487.0817 213 491.5 L 213 535.5 C 213 539.9183 209.41828 543.5 205 543.5 L 41 543.5 C 36.58172 543.5 33 539.9183 33 535.5 L 33 491.5 C 33 487.0817 36.58172 483.5 41 483.5 Z" fill="#3a8eed"/>
        <text transform="translate(38 495.57195)" fill="white">
          <tspan font-family="Helvetica Neue" font-size="16" fill="white" x="18.008" y="16" xml:space="preserve">Metrics Collection</tspan>
          <tspan font-family="Helvetica Neue" font-style="italic" font-size="14" fill="white" x="7.069" y="32.46411" xml:space="preserve">Prometheus or OTEL Sink</tspan>
        </text>
      </g>
      <g id="Graphic_13">
        <path d="M 814 490 L 978 490 C 982.4183 490 986 493.5817 986 498 L 986 542 C 986 546.4183 982.4183 550 978 550 L 814 550 C 809.5817 550 806 546.4183 806 542 L 806 498 C 806 493.5817 809.5817 490 814 490 Z" fill="#3a8eed"/>
        <text transform="translate(811 510.26794)" fill="white">
          <tspan font-family="Helvetica Neue" font-size="16" fill="white" x="20.232" y="16" xml:space="preserve">Your OIDC Server</tspan>
        </text>
      </g>
      <g id="Graphic_14">
        <text transform="translate(329.856 5.8)" fill="black">
          <tspan font-family="Helvetica Neue" font-size="16" fill="black" x="22026825e-20" y="16" xml:space="preserve">Incoming Traffic</tspan>
        </text>
      </g>
      <g id="Line_15">
        <line x1="389" y1="30.26411" x2="389" y2="62.99953" marker-end="url(#FilledArrow_Marker)" stroke="black" stroke-linecap="round" stroke-linejoin="round" stroke-width="2"/>
      </g>
      <g id="Line_16">
        <line x1="389" y1="135.89953" x2="389" y2="244.6361" marker-end="url(#FilledArrow_Marker)" stroke="black" stroke-linecap="round" stroke-linejoin="round" stroke-width="2"/>
      </g>
      <g id="Line_18">
        <line x1="458.5271" y1="317.5361" x2="458.5271" y2="405.1" marker-end="url(#FilledArrow_Marker)" stroke="black" stroke-linecap="round" stroke-linejoin="round" stroke-width="2"/>
      </g>
      <g id="Line_19">
        <line x1="345" y1="317.5361" x2="345" y2="696.5639" marker-end="url(#FilledArrow_Marker)" stroke="black" stroke-linecap="round" stroke-linejoin="round" stroke-width="2"/>
      </g>
      <g id="Line_21">
        <path d="M 42.5 286.2613 C 86.90713 285.7565 142.91068 285.29412 199.07 285.29412 C 233.62492 285.29412 263.6984 285.46917 289.09683 285.72145" marker-end="url(#FilledArrow_Marker_2)" stroke="#666" stroke-linecap="round" stroke-linejoin="round" stroke-dasharray="4.0,4.0" stroke-width="1"/>
      </g>
      <g id="Line_22">
        <path d="M 331.0809 317.5361 C 325.0325 322.7873 318.6686 328.9573 312.06897 336.2069 C 268.45628 384.11466 288.62166 406.4112 235.05747 456.63924 C 226.24516 464.9027 217.29945 471.98617 208.50273 478.0543" marker-end="url(#FilledArrow_Marker_2)" stroke="#666" stroke-linecap="round" stroke-linejoin="round" stroke-dasharray="4.0,4.0" stroke-width="1"/>
      </g>
      <g id="Graphic_23">
        <path d="M 848.5 449.3404 L 848.5 401.3404 C 848.5 398.0284 879.3 395.3404 917.25 395.3404 C 955.2 395.3404 986 398.0284 986 401.3404 L 986 449.3404 C 986 452.6524 955.2 455.3404 917.25 455.3404 C 879.3 455.3404 848.5 452.6524 848.5 449.3404" fill="#3a8eed"/>
        <path d="M 848.5 449.3404 L 848.5 401.3404 C 848.5 398.0284 879.3 395.3404 917.25 395.3404 C 955.2 395.3404 986 398.0284 986 401.3404 L 986 449.3404 C 986 452.6524 955.2 455.3404 917.25 455.3404 C 879.3 455.3404 848.5 452.6524 848.5 449.3404 M 848.5 401.3404 C 848.5 404.6524 879.3 407.3404 917.25 407.3404 C 955.2 407.3404 986 404.6524 986 401.3404" stroke="white" stroke-linecap="round" stroke-linejoin="round" stroke-width="1"/>
        <text transform="translate(853.5 408.8763)" fill="white">
          <tspan font-family="Helvetica Neue" font-size="16" fill="white" x="23.286" y="16" xml:space="preserve">Redis Rate </tspan>
          <tspan font-family="Helvetica Neue" font-size="16" fill="white" x="23.742" y="35.46411" xml:space="preserve">Limit Store</tspan>
        </text>
      </g>
      <g id="Graphic_26">
        <path d="M 762.106 257.5361 L 874.394 257.5361 C 878.8123 257.5361 882.394 261.11783 882.394 265.5361 L 882.394 309.5361 C 882.394 313.9544 878.8123 317.5361 874.394 317.5361 L 762.106 317.5361 C 757.6877 317.5361 754.106 313.9544 754.106 309.5361 L 754.106 265.5361 C 754.106 261.11783 757.6877 257.5361 762.106 257.5361 Z" fill="#f15623"/>
        <text transform="translate(759.106 277.80405)" fill="white">
          <tspan font-family="Helvetica Neue" font-size="16" fill="white" x="13.256001" y="16" xml:space="preserve">Coraza WAF</tspan>
        </text>
      </g>
      <g id="Line_27">
        <line x1="479" y1="287.5361" x2="754.106" y2="287.5361" stroke="#666" stroke-linecap="round" stroke-linejoin="round" stroke-width="1"/>
      </g>
      <g id="Graphic_28">
        <text transform="translate(72.88673 266.93794)" fill="black">
          <tspan font-family="Helvetica Neue" font-style="italic" font-size="16" fill="black" x="3410605e-19" y="15" xml:space="preserve">Configure and Manage</tspan>
          <tspan font-family="Helvetica Neue" font-style="italic" font-size="16" fill="black" x="31.304" y="33.448" xml:space="preserve">Envoy Proxies</tspan>
        </text>
      </g>
      <g id="Graphic_29">
        <text transform="translate(583.5 266.93794)" fill="black">
          <tspan font-family="Helvetica Neue" font-style="italic" font-size="16" fill="black" x="34816594e-20" y="15" xml:space="preserve">WAF Rules</tspan>
        </text>
      </g>
      <g id="Graphic_32">
        <rect x="207.16694" y="405.5266" width="117.232" height="28.447998" fill="white"/>
        <text transform="translate(212.16694 410.5266)" fill="black">
          <tspan font-family="Helvetica Neue" font-style="italic" font-size="16" fill="black" x="0" y="15" xml:space="preserve">Collect Metrics</tspan>
        </text>
      </g>
      <g id="Group_35">
        <g id="Graphic_34">
          <path d="M -161.19402 456.6445 C -162.05441 456.69504 -162.89588 456.91793 -163.66847 457.29993 L -197.1772 473.2831 C -198.92706 474.11594 -200.19886 475.7004 -200.63482 477.5886 L -208.83687 513.4605 C -209.22773 515.1442 -208.91203 516.9091 -207.93488 518.3523 C -207.82063 518.5267 -207.70037 518.69504 -207.5741 518.8574 L -184.42314 547.64274 C -183.19945 549.14605 -181.3624 550.00895 -179.42615 549.9999 L -142.29443 549.9999 C -140.35216 550.00294 -138.51211 549.09795 -137.29142 547.6157 L -114.1525 518.8243 C -112.93783 517.321 -112.48383 515.33665 -112.94986 513.4545 L -121.20603 477.5525 C -121.64198 475.66435 -122.9198 474.07986 -124.66363 473.247 L -158.11825 457.30294 C -159.08228 456.82747 -160.15006 456.6011 -161.22409 456.6445 Z" fill="#326ce5"/>
        </g>
        <g id="Graphic_33">
          <path d="M -160.88735 468.8694 C -162.04189 468.95057 -162.91681 469.93975 -162.85668 471.0943 L -162.85668 471.65953 C -162.80256 472.29994 -162.70635 472.93434 -162.58007 473.5627 C -162.39568 474.76604 -162.32922 475.9845 -162.38164 477.2007 C -162.49589 477.6006 -162.7244 477.9614 -163.03708 478.238 L -163.08218 479.0859 C -164.29986 479.1881 -165.50852 479.3745 -166.69914 479.6451 C -171.70816 480.7756 -176.2692 483.3733 -179.78995 487.11655 L -180.51153 486.6054 C -180.9084 486.7257 -181.33535 486.6806 -181.69915 486.48516 C -182.67505 485.76284 -183.5783 484.9472 -184.39608 484.0498 C -184.80687 483.55896 -185.24556 483.09216 -185.70997 482.6517 L -186.15495 482.29694 C -186.55183 481.97824 -187.0389 481.79484 -187.54702 481.7708 C -188.16208 481.73816 -188.7556 482.00194 -189.14353 482.48034 C -189.82303 483.43344 -189.60054 484.75335 -188.65044 485.43585 L -188.23553 485.7666 C -187.70144 486.1219 -187.1473 486.4462 -186.57588 486.7377 C -185.51154 487.33 -184.50733 488.02455 -183.57528 488.84235 C -183.33685 489.18233 -183.19834 489.58226 -183.1754 489.9969 L -182.51995 490.5982 C -186.05874 495.9079 -187.51094 502.33905 -186.60294 508.65595 L -187.4448 508.8965 C -187.66427 509.24524 -187.95592 509.5429 -188.30468 509.7624 C -189.47922 510.07603 -190.68154 510.2744 -191.89458 510.3547 C -192.53835 510.36776 -193.18083 510.41796 -193.81882 510.505 L -194.351 510.6253 L -194.41112 510.6253 C -195.16425 510.7298 -195.79436 511.2495 -196.04033 511.96894 C -196.2863 512.6884 -196.1062 513.48506 -195.57468 514.0288 C -195.03815 514.56975 -194.24232 514.7617 -193.51816 514.52486 L -193.47907 514.52486 L -192.93788 514.4647 C -192.32754 514.28433 -191.72621 514.06184 -191.13992 513.8093 C -190.01244 513.3583 -188.84287 513.01253 -187.64623 512.78704 C -187.23132 512.8111 -186.83445 512.9524 -186.4977 513.19293 L -185.59572 513.0426 C -183.64142 519.10695 -179.53438 524.24525 -174.05032 527.4834 L -174.41712 528.25007 C -174.24875 528.60184 -174.18561 528.9927 -174.23673 529.38055 C -174.73282 530.5291 -175.34015 531.6295 -176.04972 532.6638 C -176.43897 533.17685 -176.79835 533.7119 -177.12608 534.2663 L -177.38165 534.8075 C -177.75972 535.4633 -177.7382 536.27575 -177.32592 536.91064 C -176.91366 537.5455 -176.18026 537.8957 -175.42735 537.8171 C -174.67258 537.73223 -174.02973 537.23004 -173.76469 536.51826 L -173.51514 536.00714 C -173.28663 535.4058 -173.09421 534.79246 -172.93787 534.1731 C -172.4057 532.8592 -172.11706 531.4491 -171.38946 530.5772 C -171.15165 530.35364 -170.852 530.20695 -170.52957 530.15626 L -170.07858 529.33546 C -164.13379 531.62043 -157.55578 531.6365 -151.59991 529.38055 L -151.20003 530.14724 C -150.79113 530.2074 -150.42432 530.4329 -150.17778 530.7636 C -149.61254 531.83997 -149.15553 532.96745 -148.80676 534.131 C -148.64776 534.75405 -148.45301 535.3674 -148.22348 535.96805 L -147.97393 536.4792 C -147.70634 537.1882 -147.06348 537.687 -146.31024 537.7701 C -145.557 537.85326 -144.82084 537.5066 -144.40508 536.87304 C -143.99336 536.2356 -143.97476 535.42094 -144.35697 534.7654 L -144.61855 534.2242 C -144.9463 533.6718 -145.3057 533.1387 -145.69492 532.6277 C -146.38644 531.6295 -146.98175 530.56516 -147.49889 529.4497 C -147.5964 529.0377 -147.52262 528.6037 -147.29444 528.24706 C -147.42271 527.9848 -147.53418 527.7147 -147.62817 527.4383 C -142.15613 524.1761 -138.06713 519.01975 -136.13388 512.9464 L -135.28 513.0967 C -134.97332 512.8171 -134.57044 512.6698 -134.15853 512.6818 C -132.9649 512.9103 -131.79533 513.2831 -130.66484 513.70406 C -130.07855 513.97465 -129.47723 514.20315 -128.86688 514.3956 C -128.72257 514.43466 -128.5121 514.46774 -128.34975 514.5068 L -128.31066 514.5068 C -127.58697 514.74053 -126.79334 514.54677 -126.25878 514.00585 C -125.72422 513.4649 -125.53985 512.6691 -125.7821 511.9482 C -126.02992 511.2279 -126.66282 510.70904 -127.4177 510.60724 L -128.00098 510.46894 C -128.63897 510.3819 -129.28144 510.3317 -129.92521 510.3186 C -131.13989 510.24043 -132.34253 510.042 -133.51511 509.7263 C -133.8759 509.52486 -134.17657 509.2242 -134.38102 508.8604 L -135.1928 508.61987 C -134.32724 502.30595 -135.81013 495.894 -139.35998 490.6012 L -138.65041 489.9458 C -138.68048 489.53387 -138.54518 489.12497 -138.2776 488.8093 C -137.35456 488.0155 -136.35336 487.315 -135.30104 486.71667 C -134.72968 486.425 -134.17555 486.10076 -133.64139 485.74553 L -133.20242 485.39075 C -132.5428 484.98134 -132.17715 484.2293 -132.26253 483.45765 C -132.34791 482.686 -132.86913 482.0321 -133.6023 481.7768 C -134.33486 481.5218 -135.14874 481.7101 -135.69491 482.26086 L -136.13989 482.61564 C -136.60421 483.0562 -137.0429 483.52297 -137.45378 484.0137 C -138.24753 484.9217 -139.12546 485.74854 -140.07856 486.48816 C -140.46317 486.64475 -140.88393 486.6906 -141.29323 486.62046 L -142.0539 487.16165 C -146.44356 482.5615 -152.35758 479.70524 -158.69553 479.134 C -158.69553 478.8333 -158.73461 478.3823 -158.74062 478.241 C -159.08037 478.0065 -159.3179 477.6487 -159.39607 477.2428 C -159.43777 476.0286 -159.36124 474.8132 -159.16756 473.61383 C -159.03828 472.98244 -158.94808 472.35105 -158.89096 471.71064 L -158.89096 471.1093 C -158.83082 469.9548 -159.70274 468.9656 -160.86029 468.8844 Z M -163.39487 484.4016 L -163.99619 494.9037 L -164.04129 494.9037 C -164.07136 495.5531 -164.4532 496.10633 -165.03949 496.419 C -165.62578 496.7317 -166.3203 496.6385 -166.84346 496.25666 L -175.45741 490.15323 C -172.71568 487.4603 -169.2761 485.5869 -165.52656 484.7443 C -164.823 484.594 -164.11345 484.47974 -163.40088 484.4016 Z M -158.37983 484.4016 C -153.85487 484.9638 -149.6426 486.9963 -146.38343 490.1863 L -154.9162 496.25065 C -155.44237 496.6716 -156.16395 496.75576 -156.7743 496.4671 C -157.38464 496.1785 -157.7755 495.56514 -157.78452 494.89166 Z M -178.5843 494.1039 L -170.70696 501.1334 L -170.70696 501.1785 C -170.21688 501.60543 -170.0034 502.2699 -170.14773 502.9043 C -170.29204 503.5387 -170.77912 504.0408 -171.40149 504.21217 L -171.40149 504.24223 L -181.50973 507.14963 C -182.00992 502.59554 -180.97959 498.0045 -178.58129 494.1009 Z M -143.24753 494.1039 C -140.85426 497.9975 -139.79593 502.56454 -140.2349 507.11355 L -150.35818 504.19714 L -150.35818 504.15805 C -150.98957 503.9867 -151.47063 503.48457 -151.61194 502.8502 C -151.75325 502.2158 -151.54278 501.5573 -151.0527 501.1244 L -143.2355 494.128 Z M -162.5019 501.6806 L -159.2788 501.6806 L -157.30948 504.1821 L -158.02505 507.309 L -160.92042 508.70105 L -163.8218 507.309 L -164.5043 504.1821 Z M -152.17718 510.2134 C -152.04188 510.19834 -151.87652 510.19834 -151.77129 510.2134 L -141.34735 511.97225 C -142.85066 516.3018 -145.81819 519.9999 -149.69071 522.47436 L -153.71958 512.7209 C -153.94436 512.1899 -153.89702 511.58276 -153.59265 511.093 C -153.28828 510.60327 -152.76485 510.292 -152.1892 510.2585 Z M -169.6847 510.2585 C -169.09541 510.2675 -168.55121 510.57116 -168.2295 511.06425 C -167.9078 511.55733 -167.85669 512.1767 -168.0882 512.7179 L -168.0882 512.757 L -172.093 522.43226 C -175.92644 519.97586 -178.83685 516.3228 -180.38526 512.0384 L -170.05152 510.28553 C -169.93726 510.2735 -169.82 510.2735 -169.70275 510.28553 Z M -160.9535 514.46774 C -160.28358 514.4466 -159.65896 514.80487 -159.33894 515.3938 L -159.29986 515.3938 L -154.20665 524.585 L -156.24213 525.1863 C -159.98837 526.0432 -163.89998 525.84177 -167.541 524.60304 L -162.42974 515.4118 C -162.12006 514.8706 -161.5488 514.5399 -160.92643 514.52486 Z" fill="white"/>
          <path d="M -160.88735 468.8694 C -162.04189 468.95057 -162.91681 469.93975 -162.85668 471.0943 L -162.85668 471.65953 C -162.80256 472.29994 -162.70635 472.93434 -162.58007 473.5627 C -162.39568 474.76604 -162.32922 475.9845 -162.38164 477.2007 C -162.49589 477.6006 -162.7244 477.9614 -163.03708 478.238 L -163.08218 479.0859 C -164.29986 479.1881 -165.50852 479.3745 -166.69914 479.6451 C -171.70816 480.7756 -176.2692 483.3733 -179.78995 487.11655 L -180.51153 486.6054 C -180.9084 486.7257 -181.33535 486.6806 -181.69915 486.48516 C -182.67505 485.76284 -183.5783 484.9472 -184.39608 484.0498 C -184.80687 483.55896 -185.24556 483.09216 -185.70997 482.6517 L -186.15495 482.29694 C -186.55183 481.97824 -187.0389 481.79484 -187.54702 481.7708 C -188.16208 481.73816 -188.7556 482.00194 -189.14353 482.48034 C -189.82303 483.43344 -189.60054 484.75335 -188.65044 485.43585 L -188.23553 485.7666 C -187.70144 486.1219 -187.1473 486.4462 -186.57588 486.7377 C -185.51154 487.33 -184.50733 488.02455 -183.57528 488.84235 C -183.33685 489.18233 -183.19834 489.58226 -183.1754 489.9969 L -182.51995 490.5982 C -186.05874 495.9079 -187.51094 502.33905 -186.60294 508.65595 L -187.4448 508.8965 C -187.66427 509.24524 -187.95592 509.5429 -188.30468 509.7624 C -189.47922 510.07603 -190.68154 510.2744 -191.89458 510.3547 C -192.53835 510.36776 -193.18083 510.41796 -193.81882 510.505 L -194.351 510.6253 L -194.41112 510.6253 C -195.16425 510.7298 -195.79436 511.2495 -196.04033 511.96894 C -196.2863 512.6884 -196.1062 513.48506 -195.57468 514.0288 C -195.03815 514.56975 -194.24232 514.7617 -193.51816 514.52486 L -193.47907 514.52486 L -192.93788 514.4647 C -192.32754 514.28433 -191.72621 514.06184 -191.13992 513.8093 C -190.01244 513.3583 -188.84287 513.01253 -187.64623 512.78704 C -187.23132 512.8111 -186.83445 512.9524 -186.4977 513.19293 L -185.59572 513.0426 C -183.64142 519.10695 -179.53438 524.24525 -174.05032 527.4834 L -174.41712 528.25007 C -174.24875 528.60184 -174.18561 528.9927 -174.23673 529.38055 C -174.73282 530.5291 -175.34015 531.6295 -176.04972 532.6638 C -176.43897 533.17685 -176.79835 533.7119 -177.12608 534.2663 L -177.38165 534.8075 C -177.75972 535.4633 -177.7382 536.27575 -177.32592 536.91064 C -176.91366 537.5455 -176.18026 537.8957 -175.42735 537.8171 C -174.67258 537.73223 -174.02973 537.23004 -173.76469 536.51826 L -173.51514 536.00714 C -173.28663 535.4058 -173.09421 534.79246 -172.93787 534.1731 C -172.4057 532.8592 -172.11706 531.4491 -171.38946 530.5772 C -171.15165 530.35364 -170.852 530.20695 -170.52957 530.15626 L -170.07858 529.33546 C -164.13379 531.62043 -157.55578 531.6365 -151.59991 529.38055 L -151.20003 530.14724 C -150.79113 530.2074 -150.42432 530.4329 -150.17778 530.7636 C -149.61254 531.83997 -149.15553 532.96745 -148.80676 534.131 C -148.64776 534.75405 -148.45301 535.3674 -148.22348 535.96805 L -147.97393 536.4792 C -147.70634 537.1882 -147.06348 537.687 -146.31024 537.7701 C -145.557 537.85326 -144.82084 537.5066 -144.40508 536.87304 C -143.99336 536.2356 -143.97476 535.42094 -144.35697 534.7654 L -144.61855 534.2242 C -144.9463 533.6718 -145.3057 533.1387 -145.69492 532.6277 C -146.38644 531.6295 -146.98175 530.56516 -147.49889 529.4497 C -147.5964 529.0377 -147.52262 528.6037 -147.29444 528.24706 C -147.42271 527.9848 -147.53418 527.7147 -147.62817 527.4383 C -142.15613 524.1761 -138.06713 519.01975 -136.13388 512.9464 L -135.28 513.0967 C -134.97332 512.8171 -134.57044 512.6698 -134.15853 512.6818 C -132.9649 512.9103 -131.79533 513.2831 -130.66484 513.70406 C -130.07855 513.97465 -129.47723 514.20315 -128.86688 514.3956 C -128.72257 514.43466 -128.5121 514.46774 -128.34975 514.5068 L -128.31066 514.5068 C -127.58697 514.74053 -126.79334 514.54677 -126.25878 514.00585 C -125.72422 513.4649 -125.53985 512.6691 -125.7821 511.9482 C -126.02992 511.2279 -126.66282 510.70904 -127.4177 510.60724 L -128.00098 510.46894 C -128.63897 510.3819 -129.28144 510.3317 -129.92521 510.3186 C -131.13989 510.24043 -132.34253 510.042 -133.51511 509.7263 C -133.8759 509.52486 -134.17657 509.2242 -134.38102 508.8604 L -135.1928 508.61987 C -134.32724 502.30595 -135.81013 495.894 -139.35998 490.6012 L -138.65041 489.9458 C -138.68048 489.53387 -138.54518 489.12497 -138.2776 488.8093 C -137.35456 488.0155 -136.35336 487.315 -135.30104 486.71667 C -134.72968 486.425 -134.17555 486.10076 -133.64139 485.74553 L -133.20242 485.39075 C -132.5428 484.98134 -132.17715 484.2293 -132.26253 483.45765 C -132.34791 482.686 -132.86913 482.0321 -133.6023 481.7768 C -134.33486 481.5218 -135.14874 481.7101 -135.69491 482.26086 L -136.13989 482.61564 C -136.60421 483.0562 -137.0429 483.52297 -137.45378 484.0137 C -138.24753 484.9217 -139.12546 485.74854 -140.07856 486.48816 C -140.46317 486.64475 -140.88393 486.6906 -141.29323 486.62046 L -142.0539 487.16165 C -146.44356 482.5615 -152.35758 479.70524 -158.69553 479.134 C -158.69553 478.8333 -158.73461 478.3823 -158.74062 478.241 C -159.08037 478.0065 -159.3179 477.6487 -159.39607 477.2428 C -159.43777 476.0286 -159.36124 474.8132 -159.16756 473.61383 C -159.03828 472.98244 -158.94808 472.35105 -158.89096 471.71064 L -158.89096 471.1093 C -158.83082 469.9548 -159.70274 468.9656 -160.86029 468.8844 Z M -163.39487 484.4016 L -163.99619 494.9037 L -164.04129 494.9037 C -164.07136 495.5531 -164.4532 496.10633 -165.03949 496.419 C -165.62578 496.7317 -166.3203 496.6385 -166.84346 496.25666 L -175.45741 490.15323 C -172.71568 487.4603 -169.2761 485.5869 -165.52656 484.7443 C -164.823 484.594 -164.11345 484.47974 -163.40088 484.4016 Z M -158.37983 484.4016 C -153.85487 484.9638 -149.6426 486.9963 -146.38343 490.1863 L -154.9162 496.25065 C -155.44237 496.6716 -156.16395 496.75576 -156.7743 496.4671 C -157.38464 496.1785 -157.7755 495.56514 -157.78452 494.89166 Z M -178.5843 494.1039 L -170.70696 501.1334 L -170.70696 501.1785 C -170.21688 501.60543 -170.0034 502.2699 -170.14773 502.9043 C -170.29204 503.5387 -170.77912 504.0408 -171.40149 504.21217 L -171.40149 504.24223 L -181.50973 507.14963 C -182.00992 502.59554 -180.97959 498.0045 -178.58129 494.1009 Z M -143.24753 494.1039 C -140.85426 497.9975 -139.79593 502.56454 -140.2349 507.11355 L -150.35818 504.19714 L -150.35818 504.15805 C -150.98957 503.9867 -151.47063 503.48457 -151.61194 502.8502 C -151.75325 502.2158 -151.54278 501.5573 -151.0527 501.1244 L -143.2355 494.128 Z M -162.5019 501.6806 L -159.2788 501.6806 L -157.30948 504.1821 L -158.02505 507.309 L -160.92042 508.70105 L -163.8218 507.309 L -164.5043 504.1821 Z M -152.17718 510.2134 C -152.04188 510.19834 -151.87652 510.19834 -151.77129 510.2134 L -141.34735 511.97225 C -142.85066 516.3018 -145.81819 519.9999 -149.69071 522.47436 L -153.71958 512.7209 C -153.94436 512.1899 -153.89702 511.58276 -153.59265 511.093 C -153.28828 510.60327 -152.76485 510.292 -152.1892 510.2585 Z M -169.6847 510.2585 C -169.09541 510.2675 -168.55121 510.57116 -168.2295 511.06425 C -167.9078 511.55733 -167.85669 512.1767 -168.0882 512.7179 L -168.0882 512.757 L -172.093 522.43226 C -175.92644 519.97586 -178.83685 516.3228 -180.38526 512.0384 L -170.05152 510.28553 C -169.93726 510.2735 -169.82 510.2735 -169.70275 510.28553 Z M -160.9535 514.46774 C -160.28358 514.4466 -159.65896 514.80487 -159.33894 515.3938 L -159.29986 515.3938 L -154.20665 524.585 L -156.24213 525.1863 C -159.98837 526.0432 -163.89998 525.84177 -167.541 524.60304 L -162.42974 515.4118 C -162.12006 514.8706 -161.5488 514.5399 -160.92643 514.52486 Z" stroke="white" stroke-linecap="butt" stroke-linejoin="round" stroke-width=".055"/>
        </g>
      </g>
      <g id="Line_38">
        <path d="M -137.5 492.52874 C -137.5 492.52874 -131.83789 498.3246 -95.97701 455.3404 C -60.116134 412.3562 -24.65332 388.3444 -10.91954 340.8046 C -9.505026 335.90822 -8.769935 331.4554 -8.589317 327.40665" marker-end="url(#FilledArrow_Marker_2)" stroke="#666" stroke-linecap="round" stroke-linejoin="round" stroke-dasharray="4.0,4.0" stroke-width="1"/>
      </g>
      <g id="Graphic_39">
        <rect x="-158.19226" y="403.94634" width="174.752" height="46.895996" fill="white"/>
        <text transform="translate(-153.19226 408.94634)" fill="black">
          <tspan font-family="Helvetica Neue" font-style="italic" font-size="16" fill="black" x="21316282e-20" y="15" xml:space="preserve">Consume Gateway API</tspan>
          <tspan font-family="Helvetica Neue" font-style="italic" font-size="16" fill="black" x="30.368" y="33.448" xml:space="preserve">Configurations</tspan>
        </text>
      </g>
      <g id="Line_24">
        <path d="M 479 295.43108 C 512.5095 300.63496 552.47 309.2627 593.67816 323.5632 C 700.1846 360.5243 673.273 389.166 764.9425 418 C 797.0167 428.0887 825.2919 432.0162 848.5 432.85884" stroke="#666" stroke-linecap="round" stroke-linejoin="round" stroke-width="1"/>
      </g>
      <g id="Graphic_30">
        <rect x="568.5384" y="310.3794" width="103.952" height="46.895996" fill="white"/>
        <text transform="translate(573.5384 315.3794)" fill="black">
          <tspan font-family="Helvetica Neue" font-style="italic" font-size="16" fill="black" x="56132876e-20" y="15" xml:space="preserve">Cache Quota</tspan>
          <tspan font-family="Helvetica Neue" font-style="italic" font-size="16" fill="black" x="22.24" y="33.448" xml:space="preserve">Tokens</tspan>
        </text>
      </g>
      <g id="Graphic_41">
        <rect x="-172.238" y="154" width="285.6" height="29.46411" fill="white"/>
        <text transform="translate(-167.238 159)" fill="#f15623">
          <tspan font-family="Helvetica Neue" font-weight="bold" font-size="16" fill="#f15623" x="0" y="16" xml:space="preserve">Setup and Supported as part of TEG</tspan>
        </text>
      </g>
      <g id="Line_25">
        <path d="M 479 298.38582 C 491.089 304.19838 504.58793 311.77555 519.60784 321.56863 C 616.67074 384.85427 624.9754 454.70294 731.6092 510.91954 C 759.90235 525.8355 784.7546 533.4754 806 536.6503" stroke="#666" stroke-linecap="round" stroke-linejoin="round" stroke-width="1"/>
      </g>
      <g id="Graphic_31">
        <rect x="555.78004" y="418.6425" width="173.296" height="46.895996" fill="white"/>
        <text transform="translate(560.78004 423.6425)" fill="black">
          <tspan font-family="Helvetica Neue" font-style="italic" font-size="16" fill="black" x="15.560003" y="15" xml:space="preserve">OAuth2 with OIDC </tspan>
          <tspan font-family="Helvetica Neue" font-style="italic" font-size="16" fill="black" x="64.616" y="33.448" xml:space="preserve">Flow</tspan>
        </text>
      </g>
      <g id="Graphic_42">
        <text transform="translate(992 268.072)" fill="#f15623">
          <tspan font-family="Helvetica Neue" font-size="16" fill="#f15623" x="0" y="16" xml:space="preserve">Deployed and Configured</tspan>
          <tspan font-family="Helvetica Neue" font-size="16" fill="#f15623" x="2.376" y="35.46411" xml:space="preserve">as part of TEG with Helm</tspan>
        </text>
      </g>
      <g id="Graphic_43">
        <text transform="translate(1005.784 449)" fill="#398eee">
          <tspan font-family="Helvetica Neue" font-size="16" fill="#398eee" x="14210855e-21" y="16" xml:space="preserve">Deployed, owned and</tspan>
          <tspan font-family="Helvetica Neue" font-size="16" fill="#398eee" x="14.216" y="35.46411" xml:space="preserve">configured by you</tspan>
        </text>
      </g>
      <g id="Graphic_46">
        <path d="M 102.552 790.9113 C 102.552 780.7752 101.05909 779.52115 90.15379 769.4899 L 90.03859 769.3861 C 79.07569 759.25 78.96166 759.25 67.71076 759.25 C 52.729936 759.25 -15 759.25 -15 759.25 L -15 866.25 L 102.552 866.25 L 102.552 790.9113 Z" fill="#ccc"/>
        <path d="M 102.552 790.9113 C 102.552 780.7752 101.05909 779.52115 90.15379 769.4899 L 90.03859 769.3861 C 79.07569 759.25 78.96166 759.25 67.71076 759.25 C 52.729936 759.25 -15 759.25 -15 759.25 L -15 866.25 L 102.552 866.25 L 102.552 790.9113 Z M 102.552 790.3891 C 102.552 780.7752 102.4368 780.7752 78.96166 780.7752 L 78.96166 780.7752 C 78.96166 759.3549 78.96166 759.25 68.39962 759.25" stroke="black" stroke-linecap="round" stroke-linejoin="round" stroke-width="1"/>
        <text transform="translate(-10 793.2859)" fill="black">
          <tspan font-family="Helvetica Neue" font-size="16" fill="black" x="37.176" y="16" xml:space="preserve">Your</tspan>
          <tspan font-family="Helvetica Neue" font-size="16" fill="black" x="3.984001" y="35.46411" xml:space="preserve">Congurations</tspan>
        </text>
      </g>
      <g id="Line_48">
        <path d="M 15.76632 759.25 C .7628216 735.8002 -20.65148 708.1937 -49.38529 684.117 C -115.11937 629.03676 -156.66137 669.5506 -188.24981 618.32985 C -201.4756 596.8842 -198.82928 573.23525 -191.28335 552.98746" marker-end="url(#FilledArrow_Marker_2)" stroke="#666" stroke-linecap="round" stroke-linejoin="round" stroke-dasharray="4.0,4.0" stroke-width="1"/>
      </g>
      <g id="Graphic_49">
        <rect x="-166.68396" y="667.9213" width="251.248" height="46.895996" fill="white"/>
        <text transform="translate(-161.68396 672.9213)" fill="black">
          <tspan font-family="Helvetica Neue" font-style="italic" font-size="16" fill="black" x="0" y="15" xml:space="preserve">Apply Configurations defined with</tspan>
          <tspan font-family="Helvetica Neue" font-style="italic" font-size="16" fill="black" x="78.992" y="33.448" xml:space="preserve">Gatway API</tspan>
        </text>
      </g>
      <g id="Graphic_50">
        <text transform="translate(843 632.5359)" fill="#666">
          <tspan font-family="Helvetica Neue" font-weight="bold" font-size="16" fill="#666" x="31974423e-20" y="16" xml:space="preserve">Legend</tspan>
        </text>
      </g>
      <g id="Graphic_51">
        <path d="M 846 670.5 L 890 670.5 C 894.4183 670.5 898 674.0817 898 678.5 L 898 702.5 C 898 706.9183 894.4183 710.5 890 710.5 L 846 710.5 C 841.5817 710.5 838 706.9183 838 702.5 L 838 678.5 C 838 674.0817 841.5817 670.5 846 670.5 Z" fill="#3a8eed"/>
      </g>
      <g id="Graphic_52">
        <path d="M 846 724 L 890 724 C 894.4183 724 898 727.5817 898 732 L 898 756 C 898 760.4183 894.4183 764 890 764 L 846 764 C 841.5817 764 838 760.4183 838 756 L 838 732 C 838 727.5817 841.5817 724 846 724 Z" fill="#f15623"/>
      </g>
      <g id="Graphic_53">
        <path d="M 846 777.5 L 890 777.5 C 894.4183 777.5 898 781.0817 898 785.5 L 898 809.5 C 898 813.9183 894.4183 817.5 890 817.5 L 846 817.5 C 841.5817 817.5 838 813.9183 838 809.5 L 838 785.5 C 838 781.0817 841.5817 777.5 846 777.5 Z" fill="#60f"/>
      </g>
      <g id="Graphic_54">
        <path d="M 846 826.25 L 890 826.25 C 894.4183 826.25 898 829.8317 898 834.25 L 898 858.25 C 898 862.6683 894.4183 866.25 890 866.25 L 846 866.25 C 841.5817 866.25 838 862.6683 838 858.25 L 838 834.25 C 838 829.8317 841.5817 826.25 846 826.25 Z" fill="#1400ff"/>
      </g>
      <g id="Graphic_55">
        <text transform="translate(923.628 683.5)" fill="#666">
          <tspan font-family="PingFang SC" font-size="16" fill="#666" x="7531753e-19" y="17" xml:space="preserve">Optional user owned components</tspan>
        </text>
      </g>
      <g id="Graphic_56">
        <text transform="translate(919.5 737)" fill="#666">
          <tspan font-family="PingFang SC" font-size="16" fill="#666" x="42632564e-21" y="17" xml:space="preserve">TEG Only</tspan>
        </text>
      </g>
      <g id="Graphic_57">
        <text transform="translate(919.5 839.25)" fill="#666">
          <tspan font-family="PingFang SC" font-size="16" fill="#666" x="0" y="17" xml:space="preserve">Your existing components</tspan>
        </text>
      </g>
      <g id="Graphic_58">
        <text transform="translate(923.628 790.5)" fill="#666">
          <tspan font-family="PingFang SC" font-size="16" fill="#666" x="43343107e-20" y="17" xml:space="preserve">Envoy Gatway</tspan>
        </text>
      </g>
    </g>
  </g>
</svg>
