<svg xmlns="http://www.w3.org/2000/svg" xmlns:xl="http://www.w3.org/1999/xlink" width="704" height="482" version="1.1" viewBox="-57 405 704 482"><g id="Canvas_______" fill="none" fill-opacity="1" stroke="none" stroke-dasharray="none" stroke-opacity="1"><title>重叠部分（蓝色）</title><rect width="704" height="482" x="-57" y="405" fill="#fff"/><g id="Canvas________Layer_1"><title>Layer 1</title><g id="Graphic_5"><path fill="#0a55a8" d="M 538.10914 498.2688 C 621.13435 581.2936 621.13435 715.9033 538.10914 798.928 C 455.08436 881.9533 320.4747 881.9533 237.4499 798.928 C 154.42469 715.9033 154.42469 581.2936 237.4499 498.2688 C 320.4747 415.2436 455.08436 415.2436 538.10914 498.2688"/></g><g id="Graphic_2"><path fill="#ccc" d="M 351.58946 498.2688 C 434.6147 581.2936 434.6147 715.9033 351.58946 798.928 C 268.56468 881.9533 133.955 881.9533 50.93022 798.928 C -32.094992 715.9033 -32.094992 581.2936 50.93022 498.2688 C 133.955 415.2436 268.56468 415.2436 351.58946 498.2688"/></g><g id="Graphic_27"><path fill="#f15623" d="M 295.1164 457.4825 C 274.5014 467.5438 255.1761 481.13925 238.04662 498.2688 C 155.02141 581.2936 155.02141 715.9033 238.04662 798.9281 C 255.1761 816.0576 274.50137 829.653 295.1164 839.7143 C 315.73142 829.653 335.0567 816.0576 352.1862 798.9281 C 435.2114 715.9033 435.2114 581.2936 352.1862 498.2688 C 335.0567 481.13925 315.73144 467.5438 295.11642 457.4825 Z"/></g><g id="Graphic_8"><text fill="#000" transform="translate(39.10085 598.7801)"><tspan x="0" y="15" fill="#000" font-family="Helvetica Neue" font-size="16">GatewayClass</tspan></text></g><g id="Graphic_9"><text fill="#000" transform="translate(58.94885 639.3744)"><tspan x="0" y="15" fill="#000" font-family="Helvetica Neue" font-size="16">Gateway</tspan></text></g><g id="Graphic_10"><text fill="#000" transform="translate(34.19685 679.9687)"><tspan x="0" y="15" fill="#000" font-family="Helvetica Neue" font-size="16">ReferenceGrant</tspan></text></g><g id="Graphic_12"><text fill="#000" transform="translate(195.20472 578.483)"><tspan x="0" y="15" fill="#000" font-family="Helvetica Neue" font-size="16">HTTPRoute</tspan></text></g><g id="Graphic_13"><text fill="#000" transform="translate(199.79672 619.0773)"><tspan x="0" y="15" fill="#000" font-family="Helvetica Neue" font-size="16">TCPRoute</tspan></text></g><g id="Graphic_16"><text fill="#000" transform="translate(152.53184 459.96063)"><tspan x="0" y="16" fill="#000" font-family="Helvetica Neue" font-size="16" font-weight="bold">Gateway API</tspan></text></g><g id="Graphic_17"><text fill="#000" transform="translate(198.75672 659.6716)"><tspan x="0" y="15" fill="#000" font-family="Helvetica Neue" font-size="16">UDPRoute</tspan></text></g><g id="Graphic_18"><text fill="#000" transform="translate(201.12472 700.2659)"><tspan x="0" y="15" fill="#000" font-family="Helvetica Neue" font-size="16">TLSRoute</tspan></text></g><g id="Graphic_7"><text fill="#fff" transform="translate(372.9715 459.96063)"><tspan x="0" y="16" fill="#fff" font-family="Helvetica Neue" font-size="16" font-weight="bold">SMI</tspan></text></g><g id="Graphic_11"><text fill="#fff" transform="translate(453.01996 578.483)"><tspan x="0" y="15" fill="#fff" font-family="Helvetica Neue" font-size="16">TrafficTarget</tspan></text></g><g id="Graphic_14"><text fill="#fff" transform="translate(448.34795 619.0773)"><tspan x="0" y="15" fill="#fff" font-family="Helvetica Neue" font-size="16">TrafficMetrics</tspan></text></g><g id="Graphic_15"><text fill="#fff" transform="translate(435.60396 659.6716)"><tspan x="0" y="15" fill="#fff" font-family="Helvetica Neue" font-size="16">TrafficMetricsList</tspan></text></g><g id="Graphic_19"><text fill="#fff" transform="translate(458.86796 700.2659)"><tspan x="0" y="15" fill="#fff" font-family="Helvetica Neue" font-size="16">TrafficSplit</tspan></text></g><g id="Graphic_22"><text fill="#fff" transform="translate(274.87552 603.11024)"><tspan x="0" y="15" fill="#fff" font-family="Helvetica Neue" font-size="16">HTTPRouteGroup</tspan></text></g><g id="Graphic_21"><text fill="#fff" transform="translate(295.73525 643.70455)"><tspan x="0" y="15" fill="#fff" font-family="Helvetica Neue" font-size="16">TCPRoute</tspan></text></g><g id="Graphic_20"><text fill="#fff" transform="translate(294.69525 684.29885)"><tspan x="0" y="15" fill="#fff" font-family="Helvetica Neue" font-size="16">UDPRoute</tspan></text></g></g></g></svg>