<?xml version="1.0" encoding="UTF-8"?>
<svg width="1920px" height="1896px" viewBox="0 0 1920 1896" version="1.1" xmlns="http://www.w3.org/2000/svg" xmlns:xlink="http://www.w3.org/1999/xlink">
    <title>Path</title>
    <g id="Page-1" stroke="none" stroke-width="1" fill="none" fill-rule="evenodd">
        <g id="cat-head" transform="translate(0.413321, 0.046333)" fill="#FFFFFF" fill-rule="nonzero">
            <path d="M222.186679,1894.79492 C181.486679,1890.49492 146.186679,1871.29492 122.086679,1840.39492 C46.7866792,1743.79492 38.5866792,1579.09492 98.1866792,1361.39492 C107.786679,1326.49492 124.486679,1274.09492 136.386679,1241.49492 L139.286679,1233.59492 L130.986679,1221.89492 C99.8866792,1177.99492 71.9866792,1126.79492 51.7866792,1076.29492 C0.486679192,947.794925 -13.0133208,810.594925 12.6866792,678.894925 C49.4866792,490.494925 162.586679,320.994925 335.586679,195.094925 C414.086679,137.894925 507.786679,89.9949246 605.086679,57.1949246 C746.686679,9.59492464 902.986679,-8.90507536 1055.58668,3.99492464 C1209.28668,16.8949246 1350.78668,58.8949246 1482.48668,130.594925 C1541.08668,162.494925 1600.48668,203.994925 1652.58668,249.394925 C1668.98668,263.794925 1715.28668,309.894925 1729.68668,326.394925 C1799.88668,406.394925 1851.98668,495.494925 1882.98668,588.394925 C1900.88668,641.994925 1911.48668,691.694925 1917.28668,748.894925 C1919.78668,773.794925 1919.78668,845.594925 1917.28668,871.394925 C1904.38668,1003.79492 1860.48668,1121.09492 1783.58668,1229.09492 L1780.28668,1233.79492 L1784.58668,1245.59492 C1819.68668,1341.79492 1846.28668,1449.29492 1855.48668,1532.39492 C1859.58668,1568.89492 1859.98668,1577.29492 1859.98668,1616.89492 C1859.98668,1647.59492 1859.58668,1659.79492 1858.28668,1671.89492 C1851.18668,1735.89492 1835.78668,1783.19492 1808.78668,1824.39492 C1794.48668,1846.19492 1780.38668,1860.99492 1763.08668,1872.09492 C1705.48668,1909.19492 1622.68668,1902.69492 1513.58668,1852.49492 C1418.88668,1808.89492 1289.78668,1720.09492 1174.08668,1618.99492 C1167.48668,1613.29492 1161.28668,1607.89492 1160.38668,1607.09492 C1158.88668,1605.79492 1157.48668,1605.79492 1149.88668,1607.19492 C1114.08668,1613.69492 1064.98668,1619.29492 1019.08668,1621.99492 C994.686679,1623.39492 924.486679,1623.39492 900.586679,1621.99492 C857.586679,1619.39492 817.286679,1614.99492 779.386679,1608.79492 L760.686679,1605.69492 L748.886679,1616.09492 C700.986679,1658.39492 630.486679,1713.89492 578.086679,1750.39492 C428.186679,1855.09492 307.886679,1903.79492 222.186679,1894.79492 Z" id="Path" transform="translate(959.580840, 947.924296) scale(-1, 1) rotate(-180.000000) translate(-959.580840, -947.924296) "></path>
        </g>
    </g>
</svg>