<?xml version="1.0" encoding="UTF-8"?>
<svg width="526px" height="522px" viewBox="0 0 526 522" version="1.1" xmlns="http://www.w3.org/2000/svg" xmlns:xlink="http://www.w3.org/1999/xlink">
    <title>cat-icon-2</title>
    <g id="Page-1" stroke="none" stroke-width="1" fill="none" fill-rule="evenodd">
        <g id="cat-icon-2" transform="translate(0.975440, 0.585316)" fill="#FFFFFF" fill-rule="nonzero">
            <g id="Group" transform="translate(262.385333, 260.469842) scale(-1, 1) rotate(-180.000000) translate(-262.385333, -260.469842) translate(0.000000, 0.000000)">
                <path d="M488.82456,520.525 C467.82456,516.925 413.92456,491.825 380.22456,469.925 C369.42456,462.825 354.32456,451.725 350.62456,448.025 C349.52456,446.825 348.62456,446.725 347.22456,447.425 C342.52456,449.925 320.22456,455.925 307.32456,458.025 C264.32456,465.425 229.52456,462.725 178.92456,448.425 C175.32456,447.325 175.02456,447.525 163.52456,456.025 C130.82456,480.225 86.4245603,503.525 48.0245603,516.525 C36.9245603,520.325 34.9245603,520.725 28.6245603,520.325 C12.2245603,519.225 3.12456028,509.025 1.02456028,489.425 C-1.17543972,468.725 0.324560281,427.225 4.02456028,404.025 C7.52456028,381.825 16.2245603,350.725 23.7245603,333.625 L25.6245603,329.225 L20.9245603,315.125 C12.7245603,290.725 10.0245603,277.125 7.92456028,249.325 C3.22456028,188.725 27.0245603,125.925 72.4245603,78.825 C91.9245603,58.525 115.32456,41.525 141.52456,28.525 C168.32456,15.325 194.42456,7.125 225.02456,2.325 C245.42456,-0.775 279.42456,-0.775 298.82456,2.325 C330.72456,7.625 356.12456,15.725 383.02456,29.325 C409.62456,42.725 431.42456,58.925 453.52456,81.725 C471.52456,100.325 482.32456,115.425 492.92456,136.725 C504.82456,160.725 511.22456,181.425 515.12456,208.525 C517.02456,221.025 517.22456,225.925 516.72456,244.025 C516.02456,271.225 513.42456,285.825 503.62456,316.125 L499.22456,329.525 L502.22456,336.725 C512.92456,363.125 521.42456,403.325 524.12456,440.025 C525.52456,459.625 524.52456,491.425 522.32456,498.825 C517.82456,514.025 503.82456,523.025 488.82456,520.525 Z M471.02456,451.725 C471.02456,445.125 468.32456,422.625 466.42456,413.025 C464.42456,403.025 458.62456,381.925 455.82456,374.225 L453.72456,368.525 L450.22456,372.725 C441.92456,382.625 423.72456,400.325 413.12456,408.825 L401.72456,417.925 L405.12456,420.825 C414.22456,428.425 437.92456,442.325 454.42456,449.525 C459.42456,451.725 464.92456,454.225 466.52456,455.025 C470.92456,457.025 471.02456,456.925 471.02456,451.725 Z M65.8245603,450.125 C82.4245603,442.725 108.32456,427.725 118.82456,419.525 L121.12456,417.725 L113.32456,411.425 C100.82456,401.425 86.5245603,387.325 75.4245603,374.225 L71.4245603,369.425 L67.8245603,378.225 C63.0245603,390.125 58.2245603,407.525 55.9245603,421.525 C53.9245603,433.325 52.2245603,455.525 53.3245603,455.525 C53.6245603,455.525 59.2245603,453.125 65.8245603,450.125 Z M166.52456,304.525 C197.62456,300.025 225.02456,279.325 236.62456,251.325 C244.42456,232.525 256.52456,225.125 271.12456,230.025 C278.92456,232.725 282.92456,236.925 287.72456,247.525 C296.52456,266.825 301.82456,274.725 311.72456,283.225 C329.62456,298.525 346.62456,304.925 369.52456,304.925 C383.62456,304.925 390.72456,303.325 402.62456,297.525 C425.52456,286.325 442.72456,264.625 450.02456,238.025 C453.12456,227.025 453.92456,203.725 451.62456,191.025 C449.82456,180.625 445.22456,165.825 440.82456,156.725 C430.32456,134.625 409.82456,111.825 384.52456,94.325 C326.92456,54.425 248.82456,45.025 184.52456,70.425 C143.42456,86.525 113.32456,109.525 93.1245603,140.025 C65.1245603,182.225 64.0245603,236.225 90.3245603,271.025 C109.62456,296.425 137.32456,308.625 166.52456,304.525 Z" id="Shape"></path>
                <path d="M139.52456,266.125 C129.62456,263.625 122.32456,257.925 118.02456,249.025 C114.62456,242.025 114.52456,228.225 117.72456,221.325 C120.92456,214.325 128.52456,207.225 135.62456,204.525 C143.22456,201.725 154.12456,202.025 161.22456,205.425 C172.22456,210.725 179.42456,221.825 179.42456,233.525 C179.52456,249.525 170.12456,262.225 155.42456,266.025 C148.62456,267.825 146.32456,267.825 139.52456,266.125 Z" id="Path"></path>
                <path d="M369.42456,266.125 C353.22456,262.225 342.82456,245.425 346.02456,228.525 C348.12456,217.625 357.62456,206.825 367.82456,203.925 C374.82456,201.825 385.82456,202.425 392.02456,205.225 C398.02456,207.925 404.62456,214.525 407.62456,220.825 C411.92456,230.125 410.52456,244.925 404.42456,253.625 C400.62456,259.225 393.32456,264.225 386.42456,266.025 C379.62456,267.825 376.42456,267.825 369.42456,266.125 Z" id="Path"></path>
                <path d="M251.42456,196.925 C248.52456,196.225 241.32456,190.025 239.62456,186.625 C235.52456,178.525 237.42456,168.125 244.02456,162.125 C246.22456,160.225 249.12456,158.325 250.62456,157.925 C252.92456,157.325 253.12456,156.925 252.52456,153.725 C251.52456,148.425 248.62456,143.225 244.52456,139.725 C241.32456,136.825 240.32456,136.525 234.82456,136.525 C228.62456,136.525 228.62456,136.525 223.82456,141.725 C219.62456,146.325 218.52456,147.025 215.12456,147.025 C210.32456,147.025 207.42456,144.625 205.92456,139.425 C204.92456,136.125 205.02456,135.125 207.12456,130.825 C211.92456,121.325 223.22456,115.925 236.92456,116.725 C246.12456,117.225 252.32456,119.925 258.62456,126.025 L263.02456,130.125 L265.82456,126.525 C267.42456,124.625 271.12456,121.625 274.12456,120.025 C279.12456,117.225 280.32456,117.025 289.62456,117.025 C299.22456,117.025 300.12456,117.225 306.52456,120.525 C315.32456,125.025 319.52456,130.025 319.52456,136.025 C319.52456,147.125 308.02456,151.025 301.82456,142.025 C300.62456,140.125 298.52456,138.125 297.22456,137.625 C293.52456,135.825 285.82456,136.325 282.32456,138.425 C278.62456,140.725 274.52456,147.325 273.22456,153.325 L272.22456,157.525 L276.52456,159.425 C281.62456,161.625 285.52456,166.425 287.12456,172.625 C289.22456,180.625 286.52456,187.625 278.72456,193.925 C275.02456,196.925 274.52456,197.025 264.22456,197.225 C258.32456,197.325 252.52456,197.125 251.42456,196.925 Z" id="Path"></path>
            </g>
        </g>
    </g>
</svg>