<svg xmlns="http://www.w3.org/2000/svg" width="1066.667" height="1066.667" preserveAspectRatio="xMidYMid meet" version="1.0" viewBox="0 0 800 800"><metadata>Created by potrace 1.14, written by Peter Selinger 2001-2017</metadata><g fill="#000" stroke="none"><path d="M486 7980 c-185 -49 -333 -168 -414 -331 -78 -157 -72 167 -71 -3654 1 -2869 3 -3440 14 -3493 8 -35 33 -102 56 -150 79 -164 251 -298 431 -337 98 -21 6891 -21 6992 0 183 39 352 169 433 335 79 160 73 -181 73 3650 0 3825 6 3488 -71 3648 -31 64 -57 100 -117 160 -93 93 -152 127 -317 180 -11 4 -1577 8 -3480 9 -3335 1 -3463 1 -3529 -17z" transform="translate(0.000000,800.000000) scale(0.100000,-0.100000)"/></g></svg>