<svg xmlns="http://www.w3.org/2000/svg" xmlns:xl="http://www.w3.org/1999/xlink" width="1048" height="261" version="1.1" viewBox="168 227 1048 261"><defs><marker id="FilledBall_Marker" stroke-linejoin="miter" stroke-miterlimit="10" color="#000" markerHeight="6" markerUnits="strokeWidth" markerWidth="6" orient="auto" overflow="visible" viewBox="-1 -3 6 6"><g><circle cx="1.8" cy="0" r="1.8" fill="currentColor" stroke="currentColor" stroke-width="1"/></g></marker></defs><g id="Canvas_1" fill="none" fill-opacity="1" stroke="none" stroke-dasharray="none" stroke-opacity="1"><title>Canvas 1</title><rect width="1048" height="261" x="168" y="227" fill="#fff"/><g id="Canvas_1_Layer_1"><title>Layer 1</title><g id="Graphic_28"><rect width="1037" height="250" x="173.5" y="238" fill="#fff"/></g><g id="Graphic_26"><rect width="135.5" height="43" x="201.5" y="315" fill="#ffff80"/><rect width="135.5" height="43" x="201.5" y="315" stroke="gray" stroke-linecap="round" stroke-linejoin="round" stroke-width="1"/><text fill="#000" transform="translate(206.5 327.276)"><tspan x="44.958" y="15" fill="#000" font-family="Helvetica Neue" font-size="16">2014</tspan></text></g><g id="Graphic_25"><rect width="135.5" height="43" x="337" y="315" fill="#c0ffc0"/><rect width="135.5" height="43" x="337" y="315" stroke="gray" stroke-linecap="round" stroke-linejoin="round" stroke-width="1"/><text fill="#000" transform="translate(342 327.276)"><tspan x="44.958" y="15" fill="#000" font-family="Helvetica Neue" font-size="16">2015</tspan></text></g><g id="Graphic_24"><rect width="135.5" height="43" x="472.5" y="315" fill="#c0ffc0"/><rect width="135.5" height="43" x="472.5" y="315" stroke="gray" stroke-linecap="round" stroke-linejoin="round" stroke-width="1"/><text fill="#000" transform="translate(477.5 327.276)"><tspan x="44.958" y="15" fill="#000" font-family="Helvetica Neue" font-size="16">2016</tspan></text></g><g id="Graphic_23"><rect width="135.5" height="43" x="608" y="315" fill="#ff80ff"/><rect width="135.5" height="43" x="608" y="315" stroke="gray" stroke-linecap="round" stroke-linejoin="round" stroke-width="1"/><text fill="#000" transform="translate(613 327.276)"><tspan x="44.958" y="15" fill="#000" font-family="Helvetica Neue" font-size="16">2017</tspan></text></g><g id="Graphic_22"><rect width="135.5" height="43" x="743.5" y="315" fill="#ff80ff"/><rect width="135.5" height="43" x="743.5" y="315" stroke="gray" stroke-linecap="round" stroke-linejoin="round" stroke-width="1"/><text fill="#000" transform="translate(748.5 327.276)"><tspan x="44.958" y="15" fill="#000" font-family="Helvetica Neue" font-size="16">2018</tspan></text></g><g id="Graphic_21"><rect width="135.5" height="43" x="879" y="315" fill="#ffc0c0"/><rect width="135.5" height="43" x="879" y="315" stroke="gray" stroke-linecap="round" stroke-linejoin="round" stroke-width="1"/><text fill="#000" transform="translate(884 327.276)"><tspan x="44.958" y="15" fill="#000" font-family="Helvetica Neue" font-size="16">2019</tspan></text></g><g id="Graphic_20"><rect width="135.5" height="43" x="1014.5" y="315" fill="#ffc0c0"/><rect width="135.5" height="43" x="1014.5" y="315" stroke="gray" stroke-linecap="round" stroke-linejoin="round" stroke-width="1"/><text fill="#000" transform="translate(1019.5 327.276)"><tspan x="44.958" y="15" fill="#000" font-family="Helvetica Neue" font-size="16">2020</tspan></text></g><g id="Graphic_19"><path fill="#fff" d="M 1150 292 L 1185 336.5 L 1150 381 Z"/><path stroke="gray" stroke-linecap="round" stroke-linejoin="round" stroke-width="1" d="M 1150 292 L 1185 336.5 L 1150 381 Z"/></g><g id="Graphic_18"><text fill="#000" transform="translate(209.834 410)"><tspan x="0" y="17" fill="#000" font-family="Helvetica Neue" font-size="16">Kubernetes </tspan> <tspan y="17" fill="#000" font-family="PingFang SC" font-size="16">开源</tspan></text></g><g id="Graphic_17"><text fill="#000" transform="translate(331.99 410)"><tspan x="0" y="17" fill="#000" font-family="Helvetica Neue" font-size="16">Kubernetes 1.0 </tspan> <tspan y="17" fill="#000" font-family="PingFang SC" font-size="16">发布</tspan> <tspan x="32.08" y="39" fill="#000" font-family="PingFang SC" font-size="16">CNCF 成立</tspan></text></g><g id="Graphic_16"><text fill="#000" transform="translate(454.618 449)"><tspan x="0" y="17" fill="#000" font-family="Helvetica Neue" font-size="16">CRD/Operator </tspan> <tspan y="17" fill="#000" font-family="PingFang SC" font-size="16">模式确立</tspan></text></g><g id="Graphic_15"><text fill="#000" transform="translate(642.566 410)"><tspan x="0" y="17" fill="#000" font-family="Helvetica Neue" font-size="16">Istio </tspan> <tspan y="17" fill="#000" font-family="PingFang SC" font-size="16">开源</tspan></text></g><g id="Graphic_14"><text fill="#000" transform="translate(714.962 410)"><tspan x="51.392" y="17" fill="#000" font-family="Helvetica Neue" font-size="16">Knative </tspan> <tspan y="17" fill="#000" font-family="PingFang SC" font-size="16">开源</tspan> <tspan x="0" y="39" fill="#000" font-family="PingFang SC" font-size="16">Kubernetes 从 CNCF 毕业</tspan> <tspan x="48.288" y="61" fill="#000" font-family="PingFang SC" font-size="16">重定义云原生</tspan></text></g><g id="Graphic_13"><text fill="#000" transform="translate(910.294 410)"><tspan x="0" y="17" fill="#000" font-family="Helvetica Neue" font-size="16">OAM </tspan> <tspan y="17" fill="#000" font-family="PingFang SC" font-size="16">开源</tspan></text></g><g id="Line_12"><line x1="269.25" x2="269.25" y1="405" y2="366.2" stroke="#000" stroke-linecap="round" stroke-linejoin="round" stroke-width="2" marker-end="url(#FilledBall_Marker)"/></g><g id="Line_11"><line x1="404.75" x2="404.75" y1="405" y2="366.2" stroke="#000" stroke-linecap="round" stroke-linejoin="round" stroke-width="2" marker-end="url(#FilledBall_Marker)"/></g><g id="Line_10"><line x1="540.25" x2="540.25" y1="444" y2="366.2" stroke="#000" stroke-linecap="round" stroke-linejoin="round" stroke-width="2" marker-end="url(#FilledBall_Marker)"/></g><g id="Line_9"><line x1="675.75" x2="675.75" y1="405" y2="366.2" stroke="#000" stroke-linecap="round" stroke-linejoin="round" stroke-width="2" marker-end="url(#FilledBall_Marker)"/></g><g id="Line_8"><line x1="811.25" x2="811.25" y1="405" y2="366.2" stroke="#000" stroke-linecap="round" stroke-linejoin="round" stroke-width="2" marker-end="url(#FilledBall_Marker)"/></g><g id="Line_7"><line x1="946.75" x2="946.75" y1="405" y2="366.2" stroke="#000" stroke-linecap="round" stroke-linejoin="round" stroke-width="2" marker-end="url(#FilledBall_Marker)"/></g><g id="Graphic_6"><text fill="#000" transform="translate(236.5 259)"><tspan x="0" y="25" fill="#000" font-family="PingFang SC" font-size="24">孵化期</tspan></text></g><g id="Graphic_5"><text fill="#000" transform="translate(411 259)"><tspan x="0" y="25" fill="#000" font-family="PingFang SC" font-size="24">高速发展期</tspan></text></g><g id="Graphic_4"><text fill="#000" transform="translate(683 259)"><tspan x="0" y="25" fill="#000" font-family="PingFang SC" font-size="24">野蛮生长期</tspan></text></g><g id="Graphic_3"><text fill="#000" transform="translate(951 259)"><tspan x="0" y="25" fill="#000" font-family="PingFang SC" font-size="24">普及推广期</tspan></text></g></g></g></svg>