<svg xmlns="http://www.w3.org/2000/svg" xmlns:xl="http://www.w3.org/1999/xlink" width="870" height="295" version="1.1" viewBox="183 -708 870 295"><defs><marker id="FilledArrow_Marker" stroke-linejoin="miter" stroke-miterlimit="10" color="#666" markerHeight="6" markerUnits="strokeWidth" markerWidth="7" orient="auto" overflow="visible" viewBox="-1 -3 7 6"><g><path fill="currentColor" stroke="currentColor" stroke-width="1" d="M 4.8 0 L 0 -1.8 L 0 1.8 Z"/></g></marker></defs><g id="Canvas_1" fill="none" fill-opacity="1" stroke="none" stroke-dasharray="none" stroke-opacity="1"><title>Canvas 1</title><rect width="870" height="295" x="183" y="-708" fill="#fff"/><g id="Canvas_1_Layer_1"><title>Layer 1</title><g id="Graphic_20"><rect width="868.75" height="294.5" x="183.875" y="-707.688" fill="#fff"/></g><g id="Graphic_12"><path fill="#fff" d="M 800 -677.375 L 1021 -677.375 C 1025.4183 -677.375 1029 -673.7933 1029 -669.375 L 1029 -589.125 C 1029 -584.7067 1025.4183 -581.125 1021 -581.125 L 800 -581.125 C 795.5817 -581.125 792 -584.7067 792 -589.125 L 792 -669.375 C 792 -673.7933 795.5817 -677.375 800 -677.375 Z"/><path stroke="#000" stroke-linecap="round" stroke-linejoin="round" stroke-width="1" d="M 800 -677.375 L 1021 -677.375 C 1025.4183 -677.375 1029 -673.7933 1029 -669.375 L 1029 -589.125 C 1029 -584.7067 1025.4183 -581.125 1021 -581.125 L 800 -581.125 C 795.5817 -581.125 792 -584.7067 792 -589.125 L 792 -669.375 C 792 -673.7933 795.5817 -677.375 800 -677.375 Z"/></g><g id="Graphic_11"><path fill="#fff" d="M 215.5 -677.375 L 436.5 -677.375 C 440.9183 -677.375 444.5 -673.7933 444.5 -669.375 L 444.5 -589.125 C 444.5 -584.7067 440.9183 -581.125 436.5 -581.125 L 215.5 -581.125 C 211.08172 -581.125 207.5 -584.7067 207.5 -589.125 L 207.5 -669.375 C 207.5 -673.7933 211.08172 -677.375 215.5 -677.375 Z"/><path stroke="#000" stroke-linecap="round" stroke-linejoin="round" stroke-width="1" d="M 215.5 -677.375 L 436.5 -677.375 C 440.9183 -677.375 444.5 -673.7933 444.5 -669.375 L 444.5 -589.125 C 444.5 -584.7067 440.9183 -581.125 436.5 -581.125 L 215.5 -581.125 C 211.08172 -581.125 207.5 -584.7067 207.5 -589.125 L 207.5 -669.375 C 207.5 -673.7933 211.08172 -677.375 215.5 -677.375 Z"/></g><g id="Graphic_10"><path fill="#fff" d="M 541 -677.375 L 695.5 -677.375 C 699.9183 -677.375 703.5 -673.7933 703.5 -669.375 L 703.5 -451.5 C 703.5 -447.0817 699.9183 -443.5 695.5 -443.5 L 541 -443.5 C 536.5817 -443.5 533 -447.0817 533 -451.5 L 533 -669.375 C 533 -673.7933 536.5817 -677.375 541 -677.375 Z"/><path stroke="#000" stroke-linecap="round" stroke-linejoin="round" stroke-width="1" d="M 541 -677.375 L 695.5 -677.375 C 699.9183 -677.375 703.5 -673.7933 703.5 -669.375 L 703.5 -451.5 C 703.5 -447.0817 699.9183 -443.5 695.5 -443.5 L 541 -443.5 C 536.5817 -443.5 533 -447.0817 533 -451.5 L 533 -669.375 C 533 -673.7933 536.5817 -677.375 541 -677.375 Z"/></g><g id="Graphic_3"><path fill="#c0c0ff" d="M 231 -655 L 310.5 -655 C 314.91828 -655 318.5 -651.4183 318.5 -647 L 318.5 -611.5 C 318.5 -607.0817 314.91828 -603.5 310.5 -603.5 L 231 -603.5 C 226.58172 -603.5 223 -607.0817 223 -611.5 L 223 -647 C 223 -651.4183 226.58172 -655 231 -655 Z"/><text fill="#000" transform="translate(228 -638.474)"><tspan x="23.638" y="15" fill="#000" font-family="Helvetica Neue" font-size="16" xml:space="preserve">client</tspan></text></g><g id="Graphic_4"><path fill="#c0ffc0" d="M 337.5 -655 L 417 -655 C 421.4183 -655 425 -651.4183 425 -647 L 425 -611.5 C 425 -607.0817 421.4183 -603.5 417 -603.5 L 337.5 -603.5 C 333.08172 -603.5 329.5 -607.0817 329.5 -611.5 L 329.5 -647 C 329.5 -651.4183 333.08172 -655 337.5 -655 Z"/><text fill="#000" transform="translate(334.5 -638.474)"><tspan x="16.974" y="15" fill="#000" font-family="Helvetica Neue" font-size="16" xml:space="preserve">ztunnel</tspan></text></g><g id="Graphic_5"><path fill="#c0ffc0" d="M 578.5 -655 L 658 -655 C 662.4183 -655 666 -651.4183 666 -647 L 666 -611.5 C 666 -607.0817 662.4183 -603.5 658 -603.5 L 578.5 -603.5 C 574.0817 -603.5 570.5 -607.0817 570.5 -611.5 L 570.5 -647 C 570.5 -651.4183 574.0817 -655 578.5 -655 Z"/><text fill="#000" transform="translate(575.5 -638.474)"><tspan x="16.974" y="15" fill="#000" font-family="Helvetica Neue" font-size="16" xml:space="preserve">ztunnel</tspan></text></g><g id="Graphic_6"><path fill="#ffc0c0" d="M 578.5 -518 L 658 -518 C 662.4183 -518 666 -514.4183 666 -510 L 666 -474.5 C 666 -470.0817 662.4183 -466.5 658 -466.5 L 578.5 -466.5 C 574.0817 -466.5 570.5 -470.0817 570.5 -474.5 L 570.5 -510 C 570.5 -514.4183 574.0817 -518 578.5 -518 Z"/><text fill="#000" transform="translate(575.5 -501.474)"><tspan x="10.31" y="15" fill="#000" font-family="Helvetica Neue" font-size="16" xml:space="preserve">waypoint</tspan></text></g><g id="Graphic_8"><path fill="#c0ffc0" d="M 815.5 -655 L 895 -655 C 899.4183 -655 903 -651.4183 903 -647 L 903 -611.5 C 903 -607.0817 899.4183 -603.5 895 -603.5 L 815.5 -603.5 C 811.0817 -603.5 807.5 -607.0817 807.5 -611.5 L 807.5 -647 C 807.5 -651.4183 811.0817 -655 815.5 -655 Z"/><text fill="#000" transform="translate(812.5 -638.474)"><tspan x="16.974" y="15" fill="#000" font-family="Helvetica Neue" font-size="16" xml:space="preserve">ztunnel</tspan></text></g><g id="Graphic_7"><path fill="#c0c0ff" d="M 922 -655 L 1001.5 -655 C 1005.9183 -655 1009.5 -651.4183 1009.5 -647 L 1009.5 -611.5 C 1009.5 -607.0817 1005.9183 -603.5 1001.5 -603.5 L 922 -603.5 C 917.5817 -603.5 914 -607.0817 914 -611.5 L 914 -647 C 914 -651.4183 917.5817 -655 922 -655 Z"/><text fill="#000" transform="translate(919 -638.474)"><tspan x="20.83" y="15" fill="#000" font-family="Helvetica Neue" font-size="16" xml:space="preserve">server</tspan></text></g><g id="Line_13"><line x1="444.5" x2="520.1" y1="-629.25" y2="-629.25" stroke="#666" stroke-linecap="round" stroke-linejoin="round" stroke-width="2" marker-end="url(#FilledArrow_Marker)"/></g><g id="Line_14"><line x1="703.5" x2="779.1" y1="-629.25" y2="-629.25" stroke="#666" stroke-linecap="round" stroke-linejoin="round" stroke-width="2" marker-end="url(#FilledArrow_Marker)"/></g><g id="Graphic_15"><text fill="#000" transform="translate(455.008 -650)"><tspan x="0" y="15" fill="#000" font-family="Helvetica Neue" font-size="16" font-style="italic" xml:space="preserve">HOBNE</tspan></text></g><g id="Graphic_16"><text fill="#000" transform="translate(719.758 -650)"><tspan x="0" y="15" fill="#000" font-family="Helvetica Neue" font-size="16" font-style="italic" xml:space="preserve">HOBNE</tspan></text></g><g id="Line_17"><line x1="592.592" x2="592.592" y1="-518" y2="-590.6" stroke="#666" stroke-linecap="round" stroke-linejoin="round" stroke-width="2" marker-end="url(#FilledArrow_Marker)"/></g><g id="Line_19"><line x1="643.092" x2="643.092" y1="-603.5" y2="-530.9" stroke="#666" stroke-linecap="round" stroke-linejoin="round" stroke-width="2" marker-end="url(#FilledArrow_Marker)"/></g><g id="Graphic_18"><rect width="114.576" height="28.448" x="560.962" y="-574.662" fill="#fff"/><text fill="#000" transform="translate(565.962 -569.6615)"><tspan x="0" y="15" fill="#000" font-family="Helvetica Neue" font-size="16" font-style="italic" xml:space="preserve">Proxy Protocol</tspan></text></g></g></g></svg>