<svg xmlns="http://www.w3.org/2000/svg" xmlns:xl="http://www.w3.org/1999/xlink" width="777" height="540" version="1.1" viewBox="354 635 777 540"><defs><marker id="FilledArrow_Marker" stroke-linejoin="miter" stroke-miterlimit="10" color="#456bb0" markerHeight="8" markerUnits="strokeWidth" markerWidth="10" orient="auto" overflow="visible" viewBox="-1 -4 10 8"><g><path fill="currentColor" stroke="currentColor" stroke-width="1" d="M 8 0 L 0 -3 L 0 3 Z"/></g></marker><marker id="FilledArrow_Marker_2" stroke-linejoin="miter" stroke-miterlimit="10" color="#000" markerHeight="8" markerUnits="strokeWidth" markerWidth="10" orient="auto" overflow="visible" viewBox="-1 -4 10 8"><g><path fill="currentColor" stroke="currentColor" stroke-width="1" d="M 8 0 L 0 -3 L 0 3 Z"/></g></marker></defs><g id="hbone-cross-node" fill="none" fill-opacity="1" stroke="none" stroke-dasharray="none" stroke-opacity="1"><title>hbone-cross-node</title><rect width="777" height="540" x="354" y="635" fill="#fff"/><g id="hbone-cross-node_Layer_1"><title>Layer 1</title><g id="Graphic_53"><path stroke="#a5a5a5" stroke-linecap="round" stroke-linejoin="round" stroke-width="1" d="M 459.5 1016.5 L 997 1016.5 C 999.2091 1016.5 1001 1018.2909 1001 1020.5 L 1001 1139.559 C 1001 1141.7681 999.2091 1143.559 997 1143.559 L 459.5 1143.559 C 457.29086 1143.559 455.5 1141.7681 455.5 1139.559 L 455.5 1020.5 C 455.5 1018.2909 457.29086 1016.5 459.5 1016.5 Z"/><text fill="#666" transform="translate(460.5 1021.5)"><tspan x="0" y="15" fill="#666" font-family="Helvetica Neue" font-size="16" xml:space="preserve">Node</tspan></text></g><g id="Graphic_25"><path stroke="#a5a5a5" stroke-linecap="round" stroke-linejoin="round" stroke-width="1" d="M 382 669 L 830.4103 669 C 832.6194 669 834.4103 670.7909 834.4103 673 L 834.4103 777.5 C 834.4103 779.7091 832.6194 781.5 830.4103 781.5 L 382 781.5 C 379.79086 781.5 378 779.7091 378 777.5 L 378 673 C 378 670.7909 379.79086 669 382 669 Z"/><text fill="#666" transform="translate(383 674)"><tspan x="0" y="15" fill="#666" font-family="Helvetica Neue" font-size="16" xml:space="preserve">Node</tspan></text></g><g id="Graphic_24"><path fill="#d1d1d1" d="M 849.7767 1089.4036 L 965.7767 1089.4036 C 967.9858 1089.4036 969.7767 1091.1945 969.7767 1093.4036 L 969.7767 1124.0756 C 969.7767 1126.2847 967.9858 1128.0756 965.7767 1128.0756 L 849.7767 1128.0756 C 847.5675 1128.0756 845.7767 1126.2847 845.7767 1124.0756 L 845.7767 1093.4036 C 845.7767 1091.1945 847.5675 1089.4036 849.7767 1089.4036 Z"/><text fill="#000" transform="translate(850.7767 1099.5156)"><tspan x="28.104" y="15" fill="#000" font-family="Helvetica Neue" font-size="16" xml:space="preserve">Dst Pod</tspan></text></g><g id="Graphic_21"><path fill="#456bb0" d="M 991 707 L 1107 707 C 1109.2091 707 1111 708.7909 1111 711 L 1111 755 C 1111 757.2091 1109.2091 759 1107 759 L 991 759 C 988.7909 759 987 757.2091 987 755 L 987 711 C 987 708.7909 988.7909 707 991 707 Z"/><text fill="#fff" transform="translate(992 713.5359)"><tspan x="22.328" y="16" fill="#fff" font-family="Helvetica Neue" font-size="16" xml:space="preserve">Waypoint </tspan> <tspan x="35.8" y="35.464" fill="#fff" font-family="Helvetica Neue" font-size="16" xml:space="preserve">Proxy</tspan></text></g><g id="Graphic_20"><path fill="#456bb0" d="M 485.98385 902.7878 L 601.98385 902.7878 C 604.193 902.7878 605.98385 904.5787 605.98385 906.7878 L 605.98385 950.7878 C 605.98385 952.9969 604.193 954.7878 601.98385 954.7878 L 485.98385 954.7878 C 483.7747 954.7878 481.98385 952.9969 481.98385 950.7878 L 481.98385 906.7878 C 481.98385 904.5787 483.7747 902.7878 485.98385 902.7878 Z"/><text fill="#fff" transform="translate(486.98385 919.0557)"><tspan x="36.4" y="16" fill="#fff" font-family="Helvetica Neue" font-size="16" xml:space="preserve">Istiod</tspan></text></g><g id="Line_19"><line x1="605.526" x2="978.227" y1="904.929" y2="760.438" stroke="#456bb0" stroke-dasharray="4 4" stroke-linecap="round" stroke-linejoin="round" stroke-width="1" marker-end="url(#FilledArrow_Marker)"/></g><g id="Graphic_18"><rect width="45.34" height="38.672" x="710.533" y="836.094" fill="#fff"/><text fill="#000" transform="translate(715.53335 841.094)"><tspan x="6.672" y="11" fill="#000" font-family="Helvetica Neue" font-size="12" font-style="italic" xml:space="preserve">xDS</tspan> <tspan x="0" y="25.336" fill="#000" font-family="Helvetica Neue" font-size="12" font-style="italic" xml:space="preserve">Config</tspan></text></g><g id="Graphic_12"><path fill="#ff8080" d="M 911.7767 1089.4036 L 911.7767 1066.5421 L 940.7767 1055.1284 L 969.7767 1066.5421 L 969.7767 1089.4036 Z"/></g><g id="Graphic_28"><path fill="#456bb0" d="M 697.8226 704.5 L 813.8226 704.5 C 816.0318 704.5 817.8226 706.2909 817.8226 708.5 L 817.8226 752.5 C 817.8226 754.7091 816.0318 756.5 813.8226 756.5 L 697.8226 756.5 C 695.6135 756.5 693.8226 754.7091 693.8226 752.5 L 693.8226 708.5 C 693.8226 706.2909 695.6135 704.5 697.8226 704.5 Z"/><text fill="#fff" transform="translate(698.8226 720.76794)"><tspan x="30.184" y="16" fill="#fff" font-family="Helvetica Neue" font-size="16" xml:space="preserve">ztunnel</tspan></text></g><g id="Line_29"><path stroke="#000" stroke-linecap="round" stroke-linejoin="round" stroke-width="1" marker-end="url(#FilledArrow_Marker_2)" d="M 817.8226 730.5 L 902.4113 730.5 L 902.4113 733 L 977.1 733"/></g><g id="Graphic_30"><rect width="124.048" height="24.336" x="840.834" y="720.832" fill="#fff"/><text fill="#000" transform="translate(845.8339 725.832)"><tspan x="0" y="11" fill="#000" font-family="Helvetica Neue" font-size="12" font-style="italic" xml:space="preserve">2. waypoint_ip:15008</tspan></text></g><g id="Graphic_31"><path fill="#ff8080" d="M 845.7767 1089.4036 L 845.7767 1066.5421 L 877.0481 1055.1284 L 908.3195 1066.5421 L 908.3195 1089.4036 Z"/></g><g id="Graphic_34"><path fill="#d1d1d1" d="M 396.2606 711.164 L 472.9703 711.164 C 474.43117 711.164 475.61545 712.9549 475.61545 715.164 L 475.61545 745.836 C 475.61545 748.0451 474.43117 749.836 472.9703 749.836 L 396.2606 749.836 C 394.79973 749.836 393.61545 748.0451 393.61545 745.836 L 393.61545 715.164 C 393.61545 712.9549 394.79973 711.164 396.2606 711.164 Z"/><text fill="#000" transform="translate(398.61545 721.276)"><tspan x="7.256" y="15" fill="#000" font-family="Helvetica Neue" font-size="16" xml:space="preserve">Src Pod</tspan></text></g><g id="Line_35"><path stroke="#000" stroke-linecap="round" stroke-linejoin="round" stroke-width="1" marker-end="url(#FilledArrow_Marker_2)" d="M 533.61545 731.004 L 543.61545 731.004 L 613.719 730.752 L 678.9226 730.5 L 683.9226 730.5"/></g><g id="Graphic_40"><rect width="115.804" height="24.336" x="548.303" y="718.611" fill="#fff"/><text fill="#000" transform="translate(553.30315 723.611)"><tspan x="0" y="11" fill="#000" font-family="Helvetica Neue" font-size="12" font-style="italic" xml:space="preserve">1. Outbound socket</tspan></text></g><g id="Line_41"><line x1="571.761" x2="720.818" y1="902.788" y2="763.265" stroke="#456bb0" stroke-dasharray="4 4" stroke-linecap="round" stroke-linejoin="round" stroke-width="1" marker-end="url(#FilledArrow_Marker)"/></g><g id="Graphic_42"><path fill="#ff8080" d="M 475.61545 712.172 L 514.30145 712.172 L 533.61545 731.004 L 514.30145 749.836 L 475.61545 749.836 Z"/><clipPath id="clip_path"><path fill="#ff8080" d="M -10.167999 10.167999 L 28.518 10.167999 L 47.832 29 L 28.518 47.832 L -10.167999 47.832 Z"/></clipPath><text fill="#fff" clip-path="url(#clip_path)" transform="translate(485.78345 702.004)"><tspan x=".762" y="33" fill="#fff" font-family="Helvetica Neue" font-size="13" xml:space="preserve">15001</tspan></text></g><g id="Graphic_43"><rect width="45.34" height="38.672" x="601.643" y="834.261" fill="#fff"/><text fill="#000" transform="translate(606.6428 839.2613)"><tspan x="6.672" y="11" fill="#000" font-family="Helvetica Neue" font-size="12" font-style="italic" xml:space="preserve">xDS</tspan> <tspan x="0" y="25.336" fill="#000" font-family="Helvetica Neue" font-size="12" font-style="italic" xml:space="preserve">Config</tspan></text></g><g id="Graphic_47"><path fill="#456bb0" d="M 485.98385 1076.0756 L 601.98385 1076.0756 C 604.193 1076.0756 605.98385 1077.8665 605.98385 1080.0756 L 605.98385 1124.0756 C 605.98385 1126.2847 604.193 1128.0756 601.98385 1128.0756 L 485.98385 1128.0756 C 483.7747 1128.0756 481.98385 1126.2847 481.98385 1124.0756 L 481.98385 1080.0756 C 481.98385 1077.8665 483.7747 1076.0756 485.98385 1076.0756 Z"/><text fill="#fff" transform="translate(486.98385 1092.3436)"><tspan x="30.184" y="16" fill="#fff" font-family="Helvetica Neue" font-size="16" xml:space="preserve">ztunnel</tspan></text></g><g id="Line_48"><path stroke="#000" stroke-linecap="round" stroke-linejoin="round" stroke-width="1" marker-end="url(#FilledArrow_Marker_2)" d="M 1049 759 L 1049 769 L 1049.3035 1045.5438 L 1049.3035 1072.266 L 979.6767 1072.266"/></g><g id="Line_49"><path stroke="#000" stroke-linecap="round" stroke-linejoin="round" stroke-width="1" marker-end="url(#FilledArrow_Marker_2)" d="M 605.98385 1102.0756 L 615.98385 1102.0756 L 615.98385 1068 L 835.8767 1068"/></g><g id="Line_50"><path stroke="#000" stroke-linecap="round" stroke-linejoin="round" stroke-width="1" marker-end="url(#FilledArrow_Marker_2)" d="M 940.7767 1055.1284 L 940.7767 1038 L 585.2767 1038 L 585.2767 1066.1756"/></g><g id="Line_51"><line x1="543.984" x2="543.984" y1="954.788" y2="1066.176" stroke="#456bb0" stroke-dasharray="4 4" stroke-linecap="round" stroke-linejoin="round" stroke-width="1" marker-end="url(#FilledArrow_Marker)"/></g><g id="Graphic_52"><rect width="70.672" height="24.336" x="508.648" y="972.688" fill="#fff"/><text fill="#000" transform="translate(513.64785 977.6884)"><tspan x="0" y="11" fill="#000" font-family="Helvetica Neue" font-size="12" font-style="italic" xml:space="preserve">xDS Config</tspan></text></g><g id="Graphic_54"><rect width="119.608" height="24.336" x="989.321" y="870.653" fill="#fff"/><text fill="#000" transform="translate(994.3209 875.6532)"><tspan x="0" y="11" fill="#000" font-family="Helvetica Neue" font-size="12" font-style="italic" xml:space="preserve">3. dst_pod_ip:15008</tspan></text></g><g id="Graphic_55"><rect width="103.768" height="24.336" x="698.468" y="1025.832" fill="#fff"/><text fill="#000" transform="translate(703.46764 1030.832)"><tspan x="0" y="11" fill="#000" font-family="Helvetica Neue" font-size="12" font-style="italic" xml:space="preserve">4. HBONE socket</tspan></text></g><g id="Graphic_56"><rect width="115.6" height="24.336" x="674.988" y="1055.832" fill="#fff"/><text fill="#000" transform="translate(679.9882 1060.832)"><tspan x="0" y="11" fill="#000" font-family="Helvetica Neue" font-size="12" font-style="italic" xml:space="preserve">5. des_pod_ip:9080</tspan></text></g><g id="Group_63"><g id="Graphic_58"><path fill="#ff8080" d="M 845.7767 1089.4036 L 845.7767 1066.5421 L 877.0481 1055.1284 L 908.3195 1066.5421 L 908.3195 1089.4036 Z"/></g><g id="Graphic_60"><text fill="#fff" transform="translate(859.2561 1065.9556)"><tspan x="0" y="15" fill="#fff" font-family="Helvetica Neue" font-size="16" xml:space="preserve">9080</tspan></text></g></g><g id="Group_62"><g id="Graphic_59"><path fill="#ff8080" d="M 911.7767 1089.4036 L 911.7767 1066.5421 L 940.7767 1055.1284 L 969.7767 1066.5421 L 969.7767 1089.4036 Z"/></g><g id="Graphic_61"><text fill="#fff" transform="translate(918.5367 1065.9556)"><tspan x="0" y="15" fill="#fff" font-family="Helvetica Neue" font-size="16" xml:space="preserve">15008</tspan></text></g></g></g></g></svg>