<svg xmlns="http://www.w3.org/2000/svg" xmlns:xl="http://www.w3.org/1999/xlink" width="961" height="567" version="1.1" viewBox="177 394 961 567"><defs><marker id="FilledArrow_Marker" stroke-linejoin="miter" stroke-miterlimit="10" color="#456bb0" markerHeight="8" markerUnits="strokeWidth" markerWidth="10" orient="auto" overflow="visible" viewBox="-1 -4 10 8"><g><path fill="currentColor" stroke="currentColor" stroke-width="1" d="M 8 0 L 0 -3 L 0 3 Z"/></g></marker><marker id="FilledArrow_Marker_2" stroke-linejoin="miter" stroke-miterlimit="10" color="#000" markerHeight="8" markerUnits="strokeWidth" markerWidth="10" orient="auto" overflow="visible" viewBox="-1 -4 10 8"><g><path fill="currentColor" stroke="currentColor" stroke-width="1" d="M 8 0 L 0 -3 L 0 3 Z"/></g></marker></defs><g id="hbone-same-node" fill="none" fill-opacity="1" stroke="none" stroke-dasharray="none" stroke-opacity="1"><title>hbone-same-node</title><rect width="961" height="567" x="177" y="394" fill="#fff"/><g id="hbone-same-node_Layer_1"><title>Layer 1</title><g id="Graphic_25"><path stroke="#a5a5a5" stroke-linecap="round" stroke-linejoin="round" stroke-width="1" d="M 206.5 417 L 788 417 C 790.2091 417 792 418.79086 792 421 L 792 780.559 C 792 782.7681 790.2091 784.559 788 784.559 L 206.5 784.559 C 204.29086 784.559 202.5 782.7681 202.5 780.559 L 202.5 421 C 202.5 418.79086 204.29086 417 206.5 417 Z"/><text fill="#666" transform="translate(207.5 422)"><tspan x="0" y="15" fill="#666" font-family="Helvetica Neue" font-size="16" xml:space="preserve">Node</tspan></text></g><g id="Graphic_24"><path fill="#d1d1d1" d="M 597.9572 441.39524 L 713.9572 441.39524 C 716.1663 441.39524 717.9572 443.1861 717.9572 445.39524 L 717.9572 476.06724 C 717.9572 478.2764 716.1663 480.06724 713.9572 480.06724 L 597.9572 480.06724 C 595.748 480.06724 593.9572 478.2764 593.9572 476.06724 L 593.9572 445.39524 C 593.9572 443.1861 595.748 441.39524 597.9572 441.39524 Z"/><text fill="#000" transform="translate(598.9572 451.50724)"><tspan x="28.104" y="15" fill="#000" font-family="Helvetica Neue" font-size="16" xml:space="preserve">Dst Pod</tspan></text></g><g id="Graphic_21"><path fill="#456bb0" d="M 991 707 L 1107 707 C 1109.2091 707 1111 708.7909 1111 711 L 1111 755 C 1111 757.2091 1109.2091 759 1107 759 L 991 759 C 988.7909 759 987 757.2091 987 755 L 987 711 C 987 708.7909 988.7909 707 991 707 Z"/><text fill="#fff" transform="translate(992 713.5359)"><tspan x="22.328" y="16" fill="#fff" font-family="Helvetica Neue" font-size="16" xml:space="preserve">Waypoint </tspan> <tspan x="35.8" y="35.464" fill="#fff" font-family="Helvetica Neue" font-size="16" xml:space="preserve">Proxy</tspan></text></g><g id="Graphic_20"><path fill="#456bb0" d="M 627.2072 887.5 L 743.2072 887.5 C 745.4163 887.5 747.2072 889.2909 747.2072 891.5 L 747.2072 935.5 C 747.2072 937.7091 745.4163 939.5 743.2072 939.5 L 627.2072 939.5 C 624.998 939.5 623.2072 937.7091 623.2072 935.5 L 623.2072 891.5 C 623.2072 889.2909 624.998 887.5 627.2072 887.5 Z"/><text fill="#fff" transform="translate(628.2072 903.7679)"><tspan x="36.4" y="16" fill="#fff" font-family="Helvetica Neue" font-size="16" xml:space="preserve">Istiod</tspan></text></g><g id="Line_19"><line x1="737.61" x2="987.729" y1="887.5" y2="763.4" stroke="#456bb0" stroke-dasharray="4 4" stroke-linecap="round" stroke-linejoin="round" stroke-width="1" marker-end="url(#FilledArrow_Marker)"/></g><g id="Graphic_18"><rect width="45.34" height="38.672" x="808.335" y="821.825" fill="#fff"/><text fill="#000" transform="translate(813.33515 826.8247)"><tspan x="6.672" y="11" fill="#000" font-family="Helvetica Neue" font-size="12" font-style="italic" xml:space="preserve">xDS</tspan> <tspan x="0" y="25.336" fill="#000" font-family="Helvetica Neue" font-size="12" font-style="italic" xml:space="preserve">Config</tspan></text></g><g id="Graphic_12"><path fill="#ff8080" d="M 717.9572 480.06724 L 717.9572 502.92877 L 688.9572 514.3424 L 659.9572 502.92877 L 659.9572 480.06724 Z"/><clipPath id="clip_path"><path fill="#ff8080" d="M 58 0 L 58 22.861532 L 29 34.27516 L 0 22.861532 L 0 0 Z"/></clipPath><text fill="#fff" clip-path="url(#clip_path)" transform="translate(659.9572 480.06724)"><tspan x="9.364" y="21" fill="#fff" font-family="Helvetica Neue" font-size="14" xml:space="preserve">15008</tspan></text></g><g id="Graphic_28"><path fill="#456bb0" d="M 627.2072 707 L 743.2072 707 C 745.4163 707 747.2072 708.7909 747.2072 711 L 747.2072 755 C 747.2072 757.2091 745.4163 759 743.2072 759 L 627.2072 759 C 624.998 759 623.2072 757.2091 623.2072 755 L 623.2072 711 C 623.2072 708.7909 624.998 707 627.2072 707 Z"/><text fill="#fff" transform="translate(628.2072 723.26794)"><tspan x="30.184" y="16" fill="#fff" font-family="Helvetica Neue" font-size="16" xml:space="preserve">ztunnel</tspan></text></g><g id="Line_29"><line x1="747.207" x2="977.1" y1="733" y2="733" stroke="#000" stroke-linecap="round" stroke-linejoin="round" stroke-width="1" marker-end="url(#FilledArrow_Marker_2)"/></g><g id="Graphic_30"><rect width="124.048" height="24.336" x="807.449" y="720.832" fill="#fff"/><text fill="#000" transform="translate(812.4493 725.832)"><tspan x="0" y="11" fill="#000" font-family="Helvetica Neue" font-size="12" font-style="italic" xml:space="preserve">2. waypoint_ip:15008</tspan></text></g><g id="Graphic_31"><path fill="#ff8080" d="M 656.5 480.06724 L 656.5 502.92877 L 625.2286 514.3424 L 593.9572 502.92877 L 593.9572 480.06724 Z"/><clipPath id="clip_path_2"><path fill="#ff8080" d="M 62.542834 0 L 62.542834 22.861532 L 31.271417 34.27516 L 0 22.861532 L 0 0 Z"/></clipPath><text fill="#fff" clip-path="url(#clip_path_2)" transform="translate(593.9572 480.06724)"><tspan x="15.538" y="21" fill="#fff" font-family="Helvetica Neue" font-size="14" xml:space="preserve">9080</tspan></text></g><g id="Graphic_34"><path fill="#d1d1d1" d="M 242.5 713.664 L 316.5 713.664 C 318.70914 713.664 320.5 715.4549 320.5 717.664 L 320.5 748.336 C 320.5 750.5451 318.70914 752.336 316.5 752.336 L 242.5 752.336 C 240.29086 752.336 238.5 750.5451 238.5 748.336 L 238.5 717.664 C 238.5 715.4549 240.29086 713.664 242.5 713.664 Z"/><text fill="#000" transform="translate(243.5 723.776)"><tspan x="7.256" y="15" fill="#000" font-family="Helvetica Neue" font-size="16" xml:space="preserve">Src Pod</tspan></text></g><g id="Line_35"><path stroke="#000" stroke-linecap="round" stroke-linejoin="round" stroke-width="1" marker-end="url(#FilledArrow_Marker_2)" d="M 378.5 733.504 L 388.5 733.504 L 500.8536 733.252 L 608.3072 733 L 613.3072 733"/></g><g id="Line_36"><path stroke="#000" stroke-linecap="round" stroke-linejoin="round" stroke-width="1" marker-end="url(#FilledArrow_Marker_2)" d="M 1049 707 L 1049 497.5 L 727.8572 497.5"/></g><g id="Graphic_37"><rect width="126.052" height="24.336" x="866.253" y="485.332" fill="#fff"/><text fill="#000" transform="translate(871.2534 490.332)"><tspan x="0" y="11" fill="#000" font-family="Helvetica Neue" font-size="12" font-style="italic" xml:space="preserve">3. dest_pod_ip:15008</tspan></text></g><g id="Line_38"><line x1="688.957" x2="688.957" y1="514.342" y2="697.1" stroke="#000" stroke-linecap="round" stroke-linejoin="round" stroke-width="1" marker-end="url(#FilledArrow_Marker_2)"/></g><g id="Line_39"><path stroke="#000" stroke-linecap="round" stroke-linejoin="round" stroke-width="1" marker-end="url(#FilledArrow_Marker_2)" d="M 659.9572 707 L 659.9572 633.5 L 625.2286 633.5 L 625.2286 524.2424"/></g><g id="Graphic_40"><rect width="115.804" height="24.336" x="419.951" y="721.136" fill="#fff"/><text fill="#000" transform="translate(424.9508 726.1356)"><tspan x="0" y="11" fill="#000" font-family="Helvetica Neue" font-size="12" font-style="italic" xml:space="preserve">1. Outbound socket</tspan></text></g><g id="Line_41"><line x1="685.207" x2="685.207" y1="887.5" y2="768.9" stroke="#456bb0" stroke-dasharray="4 4" stroke-linecap="round" stroke-linejoin="round" stroke-width="1" marker-end="url(#FilledArrow_Marker)"/></g><g id="Graphic_42"><path fill="#ff8080" d="M 320.5 714.672 L 359.186 714.672 L 378.5 733.504 L 359.186 752.336 L 320.5 752.336 Z"/><clipPath id="clip_path_3"><path fill="#ff8080" d="M -10.167999 10.167999 L 28.518 10.167999 L 47.832 29 L 28.518 47.832 L -10.167999 47.832 Z"/></clipPath><text fill="#fff" clip-path="url(#clip_path_3)" transform="translate(330.668 704.504)"><tspan x=".762" y="33" fill="#fff" font-family="Helvetica Neue" font-size="13" xml:space="preserve">15001</tspan></text></g><g id="Graphic_43"><rect width="45.34" height="38.672" x="662.537" y="824.955" fill="#fff"/><text fill="#000" transform="translate(667.5372 829.9548)"><tspan x="6.672" y="11" fill="#000" font-family="Helvetica Neue" font-size="12" font-style="italic" xml:space="preserve">xDS</tspan> <tspan x="0" y="25.336" fill="#000" font-family="Helvetica Neue" font-size="12" font-style="italic" xml:space="preserve">Config</tspan></text></g><g id="Graphic_44"><rect width="103.768" height="24.336" x="637.073" y="581.062" fill="#fff"/><text fill="#000" transform="translate(642.0732 586.06186)"><tspan x="0" y="11" fill="#000" font-family="Helvetica Neue" font-size="12" font-style="italic" xml:space="preserve">4. HOBNE socket</tspan></text></g><g id="Graphic_46"><rect width="99.592" height="24.336" x="575.433" y="545.053" fill="#fff"/><text fill="#000" transform="translate(580.4326 550.05305)"><tspan x="0" y="11" fill="#000" font-family="Helvetica Neue" font-size="12" font-style="italic" xml:space="preserve">5. dst_pod_ip:80</tspan></text></g></g></g></svg>