<svg xmlns="http://www.w3.org/2000/svg" xmlns:xl="http://www.w3.org/1999/xlink" width="1206" height="959" viewBox="-18 -91 1206 959"><defs><linearGradient id="a" x1="0" x2="1" gradientUnits="userSpaceOnUse"><stop offset="0" stop-color="#0cb0d1"/><stop offset=".46" stop-color="#60bd8e"/><stop offset="1" stop-color="#9aca3e"/></linearGradient><linearGradient id="g" gradientTransform="rotate(-51.47 792.956 -76.886)scale(49.39986)" xl:href="#a"/><linearGradient id="h" gradientTransform="rotate(-51.47 503.388 -216.463)scale(49.39986)" xl:href="#a"/><linearGradient id="i" gradientTransform="rotate(-51.47 869.341 -882.956)scale(49.39986)" xl:href="#a"/><linearGradient id="j" gradientTransform="rotate(-51.47 1009.054 -838.142)scale(49.39986)" xl:href="#a"/><marker id="b" stroke-linejoin="miter" stroke-miterlimit="10" color="#000" markerHeight="6" markerUnits="strokeWidth" markerWidth="7" orient="auto" overflow="visible" viewBox="-6 -3 7 6"><path fill="currentColor" stroke="currentColor" d="M-4.8 0 0 1.8v-3.6Z"/></marker><marker id="c" stroke-linejoin="miter" stroke-miterlimit="10" color="#000" markerHeight="6" markerUnits="strokeWidth" markerWidth="7" orient="auto" overflow="visible" viewBox="-1 -3 7 6"><path fill="currentColor" stroke="currentColor" d="M4.8 0 0-1.8v3.6Z"/></marker><marker id="d" stroke-linejoin="miter" stroke-miterlimit="10" color="#0a55a8" markerHeight="6" markerUnits="strokeWidth" markerWidth="7" orient="auto" overflow="visible" viewBox="-1 -3 7 6"><path fill="currentColor" stroke="currentColor" d="M4.8 0 0-1.8v3.6Z"/></marker><marker id="e" stroke-linejoin="miter" stroke-miterlimit="10" color="#00fa00" markerHeight="6" markerUnits="strokeWidth" markerWidth="7" orient="auto" overflow="visible" viewBox="-1 -3 7 6"><path fill="currentColor" stroke="currentColor" d="M4.8 0 0-1.8v3.6Z"/></marker><marker id="f" stroke-linejoin="miter" stroke-miterlimit="10" color="#00fa00" markerHeight="6" markerUnits="strokeWidth" markerWidth="7" orient="auto" overflow="visible" viewBox="-1 -3 7 6"><path fill="currentColor" stroke="currentColor" d="M4.8 0 0-1.8v3.6Z"/></marker></defs><g fill="none"><path fill="#fff" d="M-18-91h1206v959H-18z"/><path fill="#fff" d="M-18-90.573h1206v958H-18z"/><path fill="#fff" d="M890.25 674.453h270.5V830h-270.5z"/><path stroke="#a5a5a5" stroke-linecap="round" stroke-linejoin="round" d="M890.25 674.453h270.5V830h-270.5z"/><path fill="#fff" d="M12.125-32h487.25a8 8 0 0 1 8 8v846a8 8 0 0 1-8 8H12.125a8 8 0 0 1-8-8V-24a8 8 0 0 1 8-8"/><path stroke="#000" stroke-linecap="round" stroke-linejoin="round" d="M12.125-32h487.25a8 8 0 0 1 8 8v846a8 8 0 0 1-8 8H12.125a8 8 0 0 1-8-8V-24a8 8 0 0 1 8-8"/><text fill="#000" transform="translate(9.125 -27)"><tspan x="172.513" y="15" font-family="Helvetica Neue" font-size="16" xml:space="preserve">Mesh ID: multi-mesh</tspan> <tspan x="162.161" y="33.448" font-family="Helvetica Neue" font-size="16" xml:space="preserve">Cluster Name: cluster-1</tspan> <tspan x="165.409" y="51.896" font-family="Helvetica Neue" font-size="16" xml:space="preserve">Trust Domain: foo.com</tspan> <tspan x="168.713" y="70.344" font-family="Helvetica Neue" font-size="16" xml:space="preserve">Network: foo-network</tspan> <tspan x="49.905" y="88.792" font-family="Helvetica Neue" font-size="16" xml:space="preserve">FQDN: &lt;service-name&gt;.&lt;namespace&gt;.svc.cluster.local</tspan> <tspan x="8.865" y="107.24" font-family="Helvetica Neue" font-size="16" xml:space="preserve">SPIFFE ID: spiffe://foo.com/ns/&lt;namespace&gt;/svc/&lt;service-name&gt;</tspan></text><path fill="#fff" d="M649-32h503.75a8 8 0 0 1 8 8v609a8 8 0 0 1-8 8H649a8 8 0 0 1-8-8V-24a8 8 0 0 1 8-8"/><path stroke="#000" stroke-linecap="round" stroke-linejoin="round" d="M649-32h503.75a8 8 0 0 1 8 8v609a8 8 0 0 1-8 8H649a8 8 0 0 1-8-8V-24a8 8 0 0 1 8-8"/><text fill="#000" transform="translate(646 -27)"><tspan x="180.763" y="15" font-family="Helvetica Neue" font-size="16" xml:space="preserve">Mesh ID: multi-mesh</tspan> <tspan x="170.411" y="33.448" font-family="Helvetica Neue" font-size="16" xml:space="preserve">Cluster Name: cluster-2</tspan> <tspan x="174.243" y="51.896" font-family="Helvetica Neue" font-size="16" xml:space="preserve">Trust Domain: bar.com</tspan> <tspan x="177.251" y="70.344" font-family="Helvetica Neue" font-size="16" xml:space="preserve">Network: bar-network</tspan> <tspan x="58.155" y="88.792" font-family="Helvetica Neue" font-size="16" xml:space="preserve">FQDN: &lt;service-name&gt;.&lt;namespace&gt;.svc.cluster.local</tspan> <tspan x="17.699" y="107.24" font-family="Helvetica Neue" font-size="16" xml:space="preserve">SPIFFE ID: spiffe://bar.com/ns/&lt;namespace&gt;/svc/&lt;service-name&gt;</tspan></text><path fill="#fff" d="M822 123h294.75a8 8 0 0 1 8 8v228a8 8 0 0 1-8 8H822a8 8 0 0 1-8-8V131a8 8 0 0 1 8-8"/><path stroke="#000" stroke-linecap="round" stroke-linejoin="round" d="M822 123h294.75a8 8 0 0 1 8 8v228a8 8 0 0 1-8 8H822a8 8 0 0 1-8-8V131a8 8 0 0 1 8-8"/><text fill="#000" transform="translate(819 128)"><tspan x="0" y="16" font-family="Helvetica Neue" font-size="16" xml:space="preserve">Node</tspan></text><path fill="#fff" d="M47 123h409a8 8 0 0 1 8 8v356.5a8 8 0 0 1-8 8H47a8 8 0 0 1-8-8V131a8 8 0 0 1 8-8"/><path stroke="#000" stroke-linecap="round" stroke-linejoin="round" d="M47 123h409a8 8 0 0 1 8 8v356.5a8 8 0 0 1-8 8H47a8 8 0 0 1-8-8V131a8 8 0 0 1 8-8"/><text fill="#000" transform="translate(44 128)"><tspan x="0" y="16" font-family="Helvetica Neue" font-size="16" xml:space="preserve">Node</tspan></text><path fill="#f3f3f3" d="M839.625 152h259.5a8 8 0 0 1 8 8v107a8 8 0 0 1-8 8h-259.5a8 8 0 0 1-8-8V160a8 8 0 0 1 8-8"/><path stroke="#666" stroke-linecap="round" stroke-linejoin="round" d="M839.625 152h259.5a8 8 0 0 1 8 8v107a8 8 0 0 1-8 8h-259.5a8 8 0 0 1-8-8V160a8 8 0 0 1 8-8"/><text fill="#000" transform="translate(836.625 157)"><tspan x="117.638" y="16" font-family="Helvetica Neue" font-size="16" font-weight="bold" xml:space="preserve">Pod</tspan></text><path fill="#f3f3f3" d="M66 152h259.5a8 8 0 0 1 8 8v121a8 8 0 0 1-8 8H66a8 8 0 0 1-8-8V160a8 8 0 0 1 8-8"/><path stroke="#666" stroke-linecap="round" stroke-linejoin="round" d="M66 152h259.5a8 8 0 0 1 8 8v121a8 8 0 0 1-8 8H66a8 8 0 0 1-8-8V160a8 8 0 0 1 8-8"/><text fill="#000" transform="translate(63 157)"><tspan x="117.638" y="16" font-family="Helvetica Neue" font-size="16" font-weight="bold" xml:space="preserve">Pod</tspan></text><path fill="#333" d="M78.5 197h92a4 4 0 0 1 4 4v52a4 4 0 0 1-4 4h-92a4 4 0 0 1-4-4v-52a4 4 0 0 1 4-4"/><text fill="#fff" transform="translate(79.5 217.268)"><tspan x="10.016" y="16" font-family="Helvetica Neue" font-size="16" xml:space="preserve">Service A</tspan></text><path fill="#333" d="M991.875 197h92a4 4 0 0 1 4 4v52a4 4 0 0 1-4 4h-92a4 4 0 0 1-4-4v-52a4 4 0 0 1 4-4"/><text fill="#fff" transform="translate(992.875 217.268)"><tspan x="9.72" y="16" font-family="Helvetica Neue" font-size="16" xml:space="preserve">Service B</tspan></text><path stroke="#000" stroke-linecap="round" stroke-linejoin="round" stroke-width="2" marker-start="url(#b)" d="M202.85 227H174.5"/><path stroke="#000" stroke-linecap="round" stroke-linejoin="round" stroke-width="2" marker-end="url(#c)" d="M950.875 227h24.1"/><path stroke="#0a55a8" stroke-dasharray="8 8" stroke-linecap="round" stroke-linejoin="round" stroke-width="2" marker-end="url(#d)" d="M734.305 401.5c2.856-17.071 11.431-40.53 33.718-68.006 21.175-26.106 50.24-50.307 75.787-69.02"/><path stroke="#000" stroke-dasharray="8 8" stroke-linecap="round" stroke-linejoin="round" stroke-width="2" marker-end="url(#c)" d="M325.277 718.696c50.716 40.455 155.659 101.824 281.986 50.343C742.174 714.06 853.608 549.88 900.184 472.59"/><path stroke="#000" stroke-dasharray="8 8" stroke-linecap="round" stroke-linejoin="round" stroke-width="2" marker-end="url(#c)" d="M242.5 688.696h-45.1"/><path stroke="#000" stroke-dasharray="8 8" stroke-linecap="round" stroke-linejoin="round" stroke-width="2" marker-end="url(#c)" d="M785 431.5h52.975"/><path fill="#0a55a8" d="M689 197h92a4 4 0 0 1 4 4v52a4 4 0 0 1-4 4h-92a4 4 0 0 1-4-4v-52a4 4 0 0 1 4-4"/><text fill="#fff" transform="translate(690 207.536)"><tspan x="8.096" y="16" font-family="Helvetica Neue" font-size="16" xml:space="preserve">East-west</tspan> <tspan x="12.544" y="35.464" font-family="Helvetica Neue" font-size="16" xml:space="preserve">Gateway</tspan></text><path stroke="#000" stroke-linecap="round" stroke-linejoin="round" stroke-width="2" marker-end="url(#c)" d="M315.75 227H672.1"/><path stroke="#000" stroke-dasharray="8 8" stroke-linecap="round" stroke-linejoin="round" stroke-width="2" marker-end="url(#c)" d="M685 429.929c-29.052 4.712-68.725 19.607-113.488 59.606-92.647 82.786-33.28 177.757-163.533 234.18-71.648 31.037-154.105 17.333-213.8-1.281"/><path stroke="#000" stroke-linecap="round" stroke-linejoin="round" stroke-width="2" marker-end="url(#c)" d="M785 227h52.975"/><path fill="#fff" d="M43 658.696h137.5a4 4 0 0 1 4 4v52a4 4 0 0 1-4 4H43a4 4 0 0 1-4-4v-52a4 4 0 0 1 4-4"/><path stroke="#000" stroke-linecap="round" stroke-linejoin="round" d="M43 658.696h137.5a4 4 0 0 1 4 4v52a4 4 0 0 1-4 4H43a4 4 0 0 1-4-4v-52a4 4 0 0 1 4-4"/><text fill="#000" transform="translate(44 669.232)"><tspan x="50.156" y="16" font-family="Helvetica Neue" font-size="16" xml:space="preserve">Kubernetes</tspan> <tspan x="57.532" y="35.464" font-family="Helvetica Neue" font-size="16" xml:space="preserve">API Server</tspan></text><path fill="#326ce5" d="M63.742 668.933a2.7 2.7 0 0 0-1.048.278l-14.188 6.767a2.69 2.69 0 0 0-1.464 1.823l-3.473 15.189a2.63 2.63 0 0 0 .382 2.071q.073.11.153.214l9.802 12.188a2.71 2.71 0 0 0 2.116.998h15.722a2.76 2.76 0 0 0 2.119-1.01l9.797-12.19a2.62 2.62 0 0 0 .51-2.274l-3.497-15.201a2.7 2.7 0 0 0-1.464-1.823l-14.165-6.751a2.7 2.7 0 0 0-1.315-.279Z"/><path fill="#fff" d="M63.872 674.11a.897.897 0 0 0-.834.941v.24q.035.406.117.805.117.767.084 1.54a.93.93 0 0 1-.278.44l-.019.36q-.774.063-1.531.236a10.9 10.9 0 0 0-5.543 3.163l-.306-.216a.66.66 0 0 1-.502-.051 8 8 0 0 1-1.142-1.031 7 7 0 0 0-.557-.592l-.188-.15a1 1 0 0 0-.59-.223.82.82 0 0 0-.675.3.9.9 0 0 0 .208 1.252l.176.14q.339.226.703.411.677.374 1.27.891c.101.144.16.313.17.489l.277.255a10.97 10.97 0 0 0-1.729 7.646l-.356.101a1.2 1.2 0 0 1-.364.367 8 8 0 0 1-1.52.25 7 7 0 0 0-.815.064l-.225.051h-.026a.853.853 0 0 0-.493 1.441c.228.23.565.31.871.21h.017l.229-.025q.388-.115.761-.277a8 8 0 0 1 1.48-.433c.175.01.343.07.486.171l.382-.063a11.03 11.03 0 0 0 4.888 6.114l-.155.325a.85.85 0 0 1 .076.479q-.316.731-.767 1.39a7 7 0 0 0-.456.678l-.108.23a.853.853 0 0 0 .827 1.274.85.85 0 0 0 .704-.55l.106-.217q.145-.382.244-.776c.226-.557.348-1.154.656-1.523a.7.7 0 0 1 .364-.178l.19-.347a10.98 10.98 0 0 0 7.825.019l.17.324a.66.66 0 0 1 .432.261q.36.685.58 1.426.102.397.248.778l.105.216a.853.853 0 0 0 1.511.167.85.85 0 0 0 .02-.892l-.11-.23a7 7 0 0 0-.456-.675 9 9 0 0 1-.763-1.346.66.66 0 0 1 .086-.51 3 3 0 0 1-.141-.342 11.04 11.04 0 0 0 4.867-6.136l.361.064c.13-.119.3-.181.475-.176.505.097 1 .255 1.48.433q.373.171.76.293c.062.016.15.03.22.047h.016a.853.853 0 0 0 1.07-1.083.85.85 0 0 0-.692-.568l-.247-.059a7 7 0 0 0-.814-.063 8 8 0 0 1-1.52-.251.96.96 0 0 1-.367-.367l-.344-.102a11 11 0 0 0-1.764-7.63l.3-.277a.67.67 0 0 1 .158-.48c.39-.337.815-.634 1.26-.887q.364-.185.703-.411l.186-.15a.853.853 0 1 0-1.055-1.326l-.189.15a7 7 0 0 0-.556.593 8 8 0 0 1-1.112 1.047.94.94 0 0 1-.514.056l-.322.23a11.12 11.12 0 0 0-7.046-3.4c0-.127-.017-.318-.02-.378a.67.67 0 0 1-.277-.422 8 8 0 0 1 .097-1.537q.082-.4.117-.806v-.254a.897.897 0 0 0-.834-.942Zm-1.062 6.576-.255 4.447h-.019a.77.77 0 0 1-.422.641.72.72 0 0 1-.764-.069l-3.648-2.584a8.73 8.73 0 0 1 4.205-2.29q.448-.096.9-.145Zm2.123 0a8.8 8.8 0 0 1 5.08 2.45l-3.613 2.567a.748.748 0 0 1-1.215-.575Zm-8.555 4.108 3.336 2.976v.02a.749.749 0 0 1-.294 1.284v.013l-4.28 1.23a8.73 8.73 0 0 1 1.24-5.524Zm14.963 0a8.9 8.9 0 0 1 1.275 5.508l-4.286-1.234v-.017a.74.74 0 0 1-.531-.554.75.75 0 0 1 .237-.73l3.31-2.963Zm-8.153 3.208h1.365l.834 1.06-.303 1.323-1.226.59-1.229-.59-.289-1.324Zm4.372 3.613a1 1 0 0 1 .172 0l4.413.745a8.68 8.68 0 0 1-3.533 4.446l-1.705-4.13a.75.75 0 0 1 .648-1.042Zm-7.413.019a.75.75 0 0 1 .676 1.041v.017l-1.696 4.097a8.76 8.76 0 0 1-3.511-4.401l4.375-.743a.7.7 0 0 1 .148 0Zm3.697 1.782a.75.75 0 0 1 .683.392h.017L66.7 697.7l-.861.255a8.8 8.8 0 0 1-4.785-.247l2.165-3.892a.75.75 0 0 1 .636-.375Z"/><path stroke="#fff" stroke-linejoin="round" stroke-width=".055" d="M63.872 674.11a.897.897 0 0 0-.834.941v.24q.035.406.117.805.117.767.084 1.54a.93.93 0 0 1-.278.44l-.019.36q-.774.063-1.531.236a10.9 10.9 0 0 0-5.543 3.163l-.306-.216a.66.66 0 0 1-.502-.051 8 8 0 0 1-1.142-1.031 7 7 0 0 0-.557-.592l-.188-.15a1 1 0 0 0-.59-.223.82.82 0 0 0-.675.3.9.9 0 0 0 .208 1.252l.176.14q.339.226.703.411.677.374 1.27.891c.101.144.16.313.17.489l.277.255a10.97 10.97 0 0 0-1.729 7.646l-.356.101a1.2 1.2 0 0 1-.364.367 8 8 0 0 1-1.52.25 7 7 0 0 0-.815.064l-.225.051h-.026a.853.853 0 0 0-.493 1.441c.228.23.565.31.871.21h.017l.229-.025q.388-.115.761-.277a8 8 0 0 1 1.48-.433c.175.01.343.07.486.171l.382-.063a11.03 11.03 0 0 0 4.888 6.114l-.155.325a.85.85 0 0 1 .076.479q-.316.731-.767 1.39a7 7 0 0 0-.456.678l-.108.23a.853.853 0 0 0 .827 1.274.85.85 0 0 0 .704-.55l.106-.217q.145-.382.244-.776c.226-.557.348-1.154.656-1.523a.7.7 0 0 1 .364-.178l.19-.347a10.98 10.98 0 0 0 7.825.019l.17.324a.66.66 0 0 1 .432.261q.36.685.58 1.426.102.397.248.778l.105.216a.853.853 0 0 0 1.511.167.85.85 0 0 0 .02-.892l-.11-.23a7 7 0 0 0-.456-.675 9 9 0 0 1-.763-1.346.66.66 0 0 1 .086-.51 3 3 0 0 1-.141-.342 11.04 11.04 0 0 0 4.867-6.136l.361.064c.13-.119.3-.181.475-.176.505.097 1 .255 1.48.433q.373.171.76.293c.062.016.15.03.22.047h.016a.853.853 0 0 0 1.07-1.083.85.85 0 0 0-.692-.568l-.247-.059a7 7 0 0 0-.814-.063 8 8 0 0 1-1.52-.251.96.96 0 0 1-.367-.367l-.344-.102a11 11 0 0 0-1.764-7.63l.3-.277a.67.67 0 0 1 .158-.48c.39-.337.815-.634 1.26-.887q.364-.185.703-.411l.186-.15a.853.853 0 1 0-1.055-1.326l-.189.15a7 7 0 0 0-.556.593 8 8 0 0 1-1.112 1.047.94.94 0 0 1-.514.056l-.322.23a11.12 11.12 0 0 0-7.046-3.4c0-.127-.017-.318-.02-.378a.67.67 0 0 1-.277-.422 8 8 0 0 1 .097-1.537q.082-.4.117-.806v-.254a.897.897 0 0 0-.834-.942Zm-1.062 6.576-.255 4.447h-.019a.77.77 0 0 1-.422.641.72.72 0 0 1-.764-.069l-3.648-2.584a8.73 8.73 0 0 1 4.205-2.29q.448-.096.9-.145Zm2.123 0a8.8 8.8 0 0 1 5.08 2.45l-3.613 2.567a.748.748 0 0 1-1.215-.575Zm-8.555 4.108 3.336 2.976v.02a.749.749 0 0 1-.294 1.284v.013l-4.28 1.23a8.73 8.73 0 0 1 1.24-5.524Zm14.963 0a8.9 8.9 0 0 1 1.275 5.508l-4.286-1.234v-.017a.74.74 0 0 1-.531-.554.75.75 0 0 1 .237-.73l3.31-2.963Zm-8.153 3.208h1.365l.834 1.06-.303 1.323-1.226.59-1.229-.59-.289-1.324Zm4.372 3.613a1 1 0 0 1 .172 0l4.413.745a8.68 8.68 0 0 1-3.533 4.446l-1.705-4.13a.75.75 0 0 1 .648-1.042Zm-7.413.019a.75.75 0 0 1 .676 1.041v.017l-1.696 4.097a8.76 8.76 0 0 1-3.511-4.401l4.375-.743a.7.7 0 0 1 .148 0Zm3.697 1.782a.75.75 0 0 1 .683.392h.017L66.7 697.7l-.861.255a8.8 8.8 0 0 1-4.785-.247l2.165-3.892a.75.75 0 0 1 .636-.375Z"/><path fill="#fff" d="M246.5 658.696h92a4 4 0 0 1 4 4v52a4 4 0 0 1-4 4h-92a4 4 0 0 1-4-4v-52a4 4 0 0 1 4-4"/><path stroke="#000" stroke-linecap="round" stroke-linejoin="round" d="M246.5 658.696h92a4 4 0 0 1 4 4v52a4 4 0 0 1-4 4h-92a4 4 0 0 1-4-4v-52a4 4 0 0 1 4-4"/><text fill="#000" transform="translate(247.5 678.964)"><tspan x="48.8" y="16" font-family="Helvetica Neue" font-size="16" xml:space="preserve">Istiod</tspan></text><path fill="#466bb0" d="M255 703.522h26.354l-16.467 4.94Zm0-1.65 9.887-1.648v-18.116Zm11.528-1.648 14.826 1.649-14.826-32.942Z"/><path fill="#fff" d="M854.875 401.5h137.5a4 4 0 0 1 4 4v52a4 4 0 0 1-4 4h-137.5a4 4 0 0 1-4-4v-52a4 4 0 0 1 4-4"/><path stroke="#000" stroke-linecap="round" stroke-linejoin="round" d="M854.875 401.5h137.5a4 4 0 0 1 4 4v52a4 4 0 0 1-4 4h-137.5a4 4 0 0 1-4-4v-52a4 4 0 0 1 4-4"/><text fill="#000" transform="translate(855.875 412.036)"><tspan x="50.156" y="16" font-family="Helvetica Neue" font-size="16" xml:space="preserve">Kubernetes</tspan> <tspan x="57.532" y="35.464" font-family="Helvetica Neue" font-size="16" xml:space="preserve">API Server</tspan></text><path fill="#326ce5" d="M875.617 411.737a2.7 2.7 0 0 0-1.048.278l-14.188 6.767a2.69 2.69 0 0 0-1.464 1.823l-3.473 15.189a2.62 2.62 0 0 0 .382 2.071q.073.11.153.214l9.802 12.188a2.71 2.71 0 0 0 2.116.998h15.722a2.76 2.76 0 0 0 2.118-1.01l9.798-12.19a2.62 2.62 0 0 0 .51-2.274l-3.497-15.201a2.7 2.7 0 0 0-1.464-1.823l-14.165-6.751a2.7 2.7 0 0 0-1.315-.279Z"/><path fill="#fff" d="M875.747 416.913a.897.897 0 0 0-.834.942v.24q.035.406.117.805c.078.51.106 1.026.084 1.54a.93.93 0 0 1-.278.44l-.019.36q-.774.063-1.531.236a10.9 10.9 0 0 0-5.543 3.163l-.306-.216a.66.66 0 0 1-.502-.051 8 8 0 0 1-1.142-1.031 7 7 0 0 0-.557-.592l-.188-.15a1 1 0 0 0-.59-.223.82.82 0 0 0-.675.3.9.9 0 0 0 .208 1.252l.176.14q.339.226.703.411.677.374 1.27.891c.101.144.16.313.17.489l.277.255a10.97 10.97 0 0 0-1.729 7.646l-.356.101a1.2 1.2 0 0 1-.364.367 8 8 0 0 1-1.52.25 7 7 0 0 0-.815.064l-.225.051h-.026a.853.853 0 0 0-.493 1.441c.228.23.565.31.871.21h.017l.229-.025q.388-.115.761-.277a8 8 0 0 1 1.48-.433c.175.01.343.07.486.171l.382-.063a11.03 11.03 0 0 0 4.888 6.114l-.155.325a.85.85 0 0 1 .076.479 8 8 0 0 1-.767 1.39 7 7 0 0 0-.456.678l-.108.23a.853.853 0 0 0 .827 1.274.85.85 0 0 0 .704-.55l.106-.217q.145-.382.244-.776c.226-.557.348-1.154.656-1.523a.7.7 0 0 1 .364-.178l.19-.348c2.518.968 5.303.975 7.825.02l.17.324a.66.66 0 0 1 .432.261q.36.685.58 1.426.101.397.248.778l.105.216a.853.853 0 0 0 1.511.167.85.85 0 0 0 .02-.892l-.11-.23a7 7 0 0 0-.456-.675 9 9 0 0 1-.764-1.346.66.66 0 0 1 .087-.51 3 3 0 0 1-.141-.342 11.04 11.04 0 0 0 4.867-6.136l.361.064c.13-.119.3-.181.475-.176.505.097 1 .255 1.48.433q.373.171.76.293c.062.016.15.03.22.047h.016a.853.853 0 0 0 1.07-1.084.85.85 0 0 0-.692-.567l-.247-.059a7 7 0 0 0-.815-.063 8 8 0 0 1-1.52-.251.96.96 0 0 1-.366-.367l-.344-.102a11 11 0 0 0-1.764-7.63l.3-.277a.67.67 0 0 1 .158-.48c.39-.337.815-.634 1.26-.887q.363-.185.703-.411l.186-.15a.853.853 0 1 0-1.056-1.326l-.188.15a7 7 0 0 0-.556.593 8 8 0 0 1-1.112 1.047.94.94 0 0 1-.514.056l-.322.23a11.12 11.12 0 0 0-7.046-3.4c0-.127-.017-.318-.02-.378a.67.67 0 0 1-.277-.422 8 8 0 0 1 .097-1.537q.082-.4.117-.806v-.254a.897.897 0 0 0-.834-.942Zm-1.062 6.577-.255 4.447h-.019a.77.77 0 0 1-.422.641.72.72 0 0 1-.764-.069l-3.648-2.584a8.73 8.73 0 0 1 4.205-2.29q.448-.096.9-.145Zm2.123 0a8.8 8.8 0 0 1 5.08 2.45l-3.613 2.567a.748.748 0 0 1-1.215-.576Zm-8.554 4.108 3.335 2.976v.02a.749.749 0 0 1-.294 1.284v.013l-4.28 1.23a8.73 8.73 0 0 1 1.24-5.524Zm14.962 0a8.9 8.9 0 0 1 1.275 5.508l-4.286-1.234v-.017a.74.74 0 0 1-.531-.554.75.75 0 0 1 .237-.73l3.31-2.963Zm-8.153 3.208h1.365l.834 1.06-.303 1.323-1.226.59-1.229-.59-.289-1.324Zm4.372 3.613a1 1 0 0 1 .172 0l4.413.745a8.68 8.68 0 0 1-3.533 4.446l-1.705-4.13a.75.75 0 0 1 .648-1.042Zm-7.413.019a.75.75 0 0 1 .676 1.041v.017l-1.696 4.097a8.76 8.76 0 0 1-3.511-4.401l4.375-.743a.7.7 0 0 1 .148 0Zm3.697 1.782a.75.75 0 0 1 .683.392h.017l2.156 3.892-.862.255a8.8 8.8 0 0 1-4.784-.247l2.165-3.892a.75.75 0 0 1 .636-.375Z"/><path stroke="#fff" stroke-linejoin="round" stroke-width=".055" d="M875.747 416.913a.897.897 0 0 0-.834.942v.24q.035.406.117.805c.078.51.106 1.026.084 1.54a.93.93 0 0 1-.278.44l-.019.36q-.774.063-1.531.236a10.9 10.9 0 0 0-5.543 3.163l-.306-.216a.66.66 0 0 1-.502-.051 8 8 0 0 1-1.142-1.031 7 7 0 0 0-.557-.592l-.188-.15a1 1 0 0 0-.59-.223.82.82 0 0 0-.675.3.9.9 0 0 0 .208 1.252l.176.14q.339.226.703.411.677.374 1.27.891c.101.144.16.313.17.489l.277.255a10.97 10.97 0 0 0-1.729 7.646l-.356.101a1.2 1.2 0 0 1-.364.367 8 8 0 0 1-1.52.25 7 7 0 0 0-.815.064l-.225.051h-.026a.853.853 0 0 0-.493 1.441c.228.23.565.31.871.21h.017l.229-.025q.388-.115.761-.277a8 8 0 0 1 1.48-.433c.175.01.343.07.486.171l.382-.063a11.03 11.03 0 0 0 4.888 6.114l-.155.325a.85.85 0 0 1 .076.479 8 8 0 0 1-.767 1.39 7 7 0 0 0-.456.678l-.108.23a.853.853 0 0 0 .827 1.274.85.85 0 0 0 .704-.55l.106-.217q.145-.382.244-.776c.226-.557.348-1.154.656-1.523a.7.7 0 0 1 .364-.178l.19-.348c2.518.968 5.303.975 7.825.02l.17.324a.66.66 0 0 1 .432.261q.36.685.58 1.426.101.397.248.778l.105.216a.853.853 0 0 0 1.511.167.85.85 0 0 0 .02-.892l-.11-.23a7 7 0 0 0-.456-.675 9 9 0 0 1-.764-1.346.66.66 0 0 1 .087-.51 3 3 0 0 1-.141-.342 11.04 11.04 0 0 0 4.867-6.136l.361.064c.13-.119.3-.181.475-.176.505.097 1 .255 1.48.433q.373.171.76.293c.062.016.15.03.22.047h.016a.853.853 0 0 0 1.07-1.084.85.85 0 0 0-.692-.567l-.247-.059a7 7 0 0 0-.815-.063 8 8 0 0 1-1.52-.251.96.96 0 0 1-.366-.367l-.344-.102a11 11 0 0 0-1.764-7.63l.3-.277a.67.67 0 0 1 .158-.48c.39-.337.815-.634 1.26-.887q.363-.185.703-.411l.186-.15a.853.853 0 1 0-1.056-1.326l-.188.15a7 7 0 0 0-.556.593 8 8 0 0 1-1.112 1.047.94.94 0 0 1-.514.056l-.322.23a11.12 11.12 0 0 0-7.046-3.4c0-.127-.017-.318-.02-.378a.67.67 0 0 1-.277-.422 8 8 0 0 1 .097-1.537q.082-.4.117-.806v-.254a.897.897 0 0 0-.834-.942Zm-1.062 6.577-.255 4.447h-.019a.77.77 0 0 1-.422.641.72.72 0 0 1-.764-.069l-3.648-2.584a8.73 8.73 0 0 1 4.205-2.29q.448-.096.9-.145Zm2.123 0a8.8 8.8 0 0 1 5.08 2.45l-3.613 2.567a.748.748 0 0 1-1.215-.576Zm-8.554 4.108 3.335 2.976v.02a.749.749 0 0 1-.294 1.284v.013l-4.28 1.23a8.73 8.73 0 0 1 1.24-5.524Zm14.962 0a8.9 8.9 0 0 1 1.275 5.508l-4.286-1.234v-.017a.74.74 0 0 1-.531-.554.75.75 0 0 1 .237-.73l3.31-2.963Zm-8.153 3.208h1.365l.834 1.06-.303 1.323-1.226.59-1.229-.59-.289-1.324Zm4.372 3.613a1 1 0 0 1 .172 0l4.413.745a8.68 8.68 0 0 1-3.533 4.446l-1.705-4.13a.75.75 0 0 1 .648-1.042Zm-7.413.019a.75.75 0 0 1 .676 1.041v.017l-1.696 4.097a8.76 8.76 0 0 1-3.511-4.401l4.375-.743a.7.7 0 0 1 .148 0Zm3.697 1.782a.75.75 0 0 1 .683.392h.017l2.156 3.892-.862.255a8.8 8.8 0 0 1-4.784-.247l2.165-3.892a.75.75 0 0 1 .636-.375Z"/><path fill="#fff" d="M689 401.5h92a4 4 0 0 1 4 4v52a4 4 0 0 1-4 4h-92a4 4 0 0 1-4-4v-52a4 4 0 0 1 4-4"/><path stroke="#000" stroke-linecap="round" stroke-linejoin="round" d="M689 401.5h92a4 4 0 0 1 4 4v52a4 4 0 0 1-4 4h-92a4 4 0 0 1-4-4v-52a4 4 0 0 1 4-4"/><text fill="#000" transform="translate(690 421.768)"><tspan x="48.8" y="16" font-family="Helvetica Neue" font-size="16" xml:space="preserve">Istiod</tspan></text><path fill="#466bb0" d="M697.5 446.326h26.354l-16.467 4.94Zm0-1.65 9.887-1.648v-18.116Zm11.528-1.648 14.826 1.649-14.826-32.942Z"/><path stroke="#0a55a8" stroke-dasharray="8 8" stroke-linecap="round" stroke-linejoin="round" stroke-width="2" marker-end="url(#d)" d="M735 401.5V269.9"/><path fill="#ffc0ff" d="M43 575.696h103.801a4 4 0 0 1 4 4v52a4 4 0 0 1-4 4H43a4 4 0 0 1-4-4v-52a4 4 0 0 1 4-4"/><path stroke="#000" stroke-linecap="round" stroke-linejoin="round" d="M43 575.696h103.801a4 4 0 0 1 4 4v52a4 4 0 0 1-4 4H43a4 4 0 0 1-4-4v-52a4 4 0 0 1 4-4"/><text fill="#000" transform="translate(44 595.964)"><tspan x="8.077" y="16" font-family="Helvetica Neue" font-size="16" xml:space="preserve">DNS Server</tspan></text><path stroke="#00fa00" stroke-linecap="round" stroke-linejoin="round" stroke-width="2" marker-end="url(#e)" d="M315.75 232.792c10.538 2.541 21.732 6.182 32.506 11.394a132 132 0 0 1 18.31 10.74"/><path stroke="#00fa00" stroke-linecap="round" stroke-linejoin="round" stroke-width="2" marker-end="url(#e)" d="M401.875 322.846V529.1"/><path fill="#fff" d="M43 746.696h137.5a4 4 0 0 1 4 4v52a4 4 0 0 1-4 4H43a4 4 0 0 1-4-4v-52a4 4 0 0 1 4-4"/><path stroke="#000" stroke-linecap="round" stroke-linejoin="round" d="M43 746.696h137.5a4 4 0 0 1 4 4v52a4 4 0 0 1-4 4H43a4 4 0 0 1-4-4v-52a4 4 0 0 1 4-4"/><text fill="#000" transform="translate(44 757.232)"><tspan x="104.092" y="16" font-family="Helvetica Neue" font-size="16" xml:space="preserve">Cert</tspan> <tspan x="70.284" y="35.464" font-family="Helvetica Neue" font-size="16" xml:space="preserve">Manager</tspan></text><path fill="#326ce5" d="M99.191 776.696c0 2.536-1.553 4.795-2.295 7.081-.77 2.372-.868 5.107-2.304 7.081-1.451 1.994-4.032 2.927-6.026 4.378-1.974 1.436-3.65 3.611-6.022 4.382-2.288.743-4.913-.008-7.448-.008s-5.16.75-7.448.008c-2.372-.77-4.048-2.946-6.023-4.382-1.994-1.451-4.574-2.384-6.025-4.378-1.437-1.973-1.535-4.709-2.305-7.08-.743-2.29-2.295-4.549-2.295-7.082 0-2.534 1.553-4.796 2.295-7.082.77-2.371.868-5.107 2.305-7.08 1.45-1.994 4.031-2.927 6.025-4.378 1.975-1.436 3.651-3.612 6.023-4.381 2.287-.743 4.912.006 7.448.006 2.535 0 5.16-.75 7.447-.006 2.372.77 4.049 2.945 6.023 4.381 1.994 1.45 4.575 2.384 6.026 4.377 1.436 1.974 1.535 4.71 2.304 7.081.742 2.286 2.295 4.546 2.295 7.082"/><path fill="#fff" d="M75.094 756.228c-11.304 0-20.467 9.164-20.467 20.468s9.163 20.467 20.467 20.467 20.468-9.16 20.468-20.467-9.164-20.468-20.468-20.468m-.005 39.155c-10.323 0-18.68-8.36-18.682-18.684 0-10.334 8.379-18.707 18.709-18.687s18.674 8.38 18.665 18.702c-.009 10.321-8.369 18.672-18.692 18.669"/><path fill="#fff" d="M65.652 785.97c-.065-.226-.377-.451-.618-.421-.344.044-.686.1-1.1.162.153-.403.281-.747.412-1.091.114-.3-.13-.444-.284-.604s-.274.042-.378.124c-.555.44-1.094.902-1.654 1.335-.266.205-.066.324.042.472.107.147.217.313.436.12.254-.222.521-.43.787-.645.01.025.02.037.017.045-.053.152-.11.303-.16.456-.108.322.099.558.438.504.14-.022.284-.065.452.007-.273.224-.51.433-.762.62-.208.154-.109.279.017.394.125.114.177.413.445.196q.905-.729 1.803-1.462c.062-.051.14-.098.107-.212M76.612 763.913c.429.177.599.096.687-.347q.028-.145.061-.287c.02-.078 0-.208.119-.192.119.017.27-.008.314.17.043.176.097.333.146.5.136.459.23.53.697.554.176.01.215-.05.169-.207-.074-.25-.137-.503-.215-.751-.036-.114-.066-.18.09-.246.379-.16.48-.503.508-.856 0-.437-.263-.756-.753-.888-.399-.106-.808-.172-1.212-.262-.15-.033-.226.028-.254.173q-.234 1.18-.465 2.37c-.02.106-.035.21.108.27m1.15-2.032c.331-.034.65.158.647.354s-.118.29-.34.297c-.137-.116-.455.072-.501-.221-.02-.124-.066-.4.194-.428ZM72.295 789.564c-.187-.06-.377-.138-.442.172-.072.34-.18.672-.293 1.082-.173-.513-.333-.952-.466-1.4-.087-.292-.338-.29-.549-.327-.233-.038-.19.196-.227.328-.197.679-.366 1.367-.577 2.043-.104.333.142.303.306.36.174.06.359.13.425-.158.08-.345.185-.685.292-1.071.043.1.074.159.094.219.131.393.268.782.393 1.176.09.291.352.274.562.302.209.03.165-.196.2-.315.197-.68.363-1.37.577-2.044.098-.326-.128-.312-.295-.367M88.087 785.417c-.215-.03-.427-.095-.642-.115-.178-.016-.223-.078-.228-.262-.015-.459-.43-.835-.882-.84-.31-.01-.547.146-.737.364-.237.27-.44.57-.678.84-.161.185-.14.299.051.444.575.434 1.145.875 1.701 1.33.197.158.296.142.44-.056.263-.357.274-.348-.08-.622-.077-.06-.158-.117-.23-.185-.054-.052-.189-.073-.113-.19.062-.096.115-.22.273-.188s.328.037.48.092c.353.131.572-.005.763-.297.127-.19.133-.28-.118-.315m-1.967.356c-.049.004-.402-.299-.398-.343.008-.115.411-.501.524-.501.152.03.262.105.275.272.007.101-.326.565-.4.572M71.787 763.978c.023.131.066.236.229.21.59-.102 1.184-.19 1.77-.312.31-.066.097-.3.1-.46.003-.17-.09-.222-.258-.19-.32.063-.646.106-.966.17-.167.032-.21-.044-.227-.186-.013-.127-.032-.225.151-.245.271-.03.536-.106.807-.135.293-.031.24-.216.208-.402s-.071-.339-.328-.268c-.24.066-.496.076-.738.137-.171.043-.254.033-.29-.167-.038-.215.081-.232.233-.255.27-.04.538-.092.807-.131.173-.027.305-.075.236-.292-.056-.174.023-.45-.337-.375q-.769.162-1.546.263c-.248.031-.282.142-.245.348q.2 1.149.394 2.29M80.535 789.874a6 6 0 0 1-.585.2c-.164.053-.283.12-.185.329.078.161.057.43.369.305.057-.023.118-.077.174-.008.055.07.019.153-.009.218-.08.188-.248.269-.436.302s-.344-.057-.437-.221a2.2 2.2 0 0 1-.263-.735c-.06-.382.303-.716.65-.55.286.139.501.028.744-.042.166-.049.166-.148.07-.269-.221-.279-.524-.367-.868-.382a1.5 1.5 0 0 0-.983.367c-.328.294-.459.667-.328 1.092.166.557.262 1.18.955 1.364.53.14.999-.025 1.377-.401.408-.41.31-.886.13-1.372-.077-.207-.153-.295-.375-.197M84.602 788.635c-.24.188-.501.348-.742.536-.131.102-.197.07-.281-.053-.085-.124-.111-.197.03-.29.218-.143.427-.3.64-.453.07-.05.153-.09.145-.21a.9.9 0 0 0-.274-.381c-.122-.086-.217.045-.312.11-.196.137-.402.263-.586.417-.153.127-.197.01-.272-.08-.09-.105-.092-.171.035-.254.246-.16.473-.35.721-.505.203-.127.16-.25.04-.398-.105-.13-.17-.327-.403-.15-.427.318-.866.622-1.304.929-.137.096-.143.192-.047.328q.677.942 1.347 1.89c.081.114.16.16.295.062q.672-.491 1.356-.968c.215-.148.085-.272-.007-.407s-.179-.282-.381-.123M67.665 787.57c-.091-.065-.188-.034-.271.03q-.995.774-1.989 1.55c-.087.066-.152.162-.026.233.232.13.445.458.753.112a.104.104 0 0 1 .143-.03l.741.48c.066.045.044.114.036.178-.034.282.16.598.44.613.293.016.155-.293.247-.438q.016-.03.022-.062l.525-2.154c-.074-.283-.398-.342-.62-.511m-.42 1.753c-.511-.301-.511-.301-.096-.633l.294-.225a3.7 3.7 0 0 1-.197.858M66.819 765.47c.328.455.831.59 1.365.393.555-.2.984-.742.961-1.237a1.4 1.4 0 0 0-.081-.347.14.14 0 0 0-.14-.113c-.19 0-.54.34-.542.544-.003.275-.179.412-.399.5-.207.083-.393 0-.516-.172a5 5 0 0 1-.39-.64c-.09-.188-.074-.393.097-.54.171-.145.383-.244.626-.111.171.094.63-.066.728-.232.066-.106-.018-.166-.071-.225a.91.91 0 0 0-.708-.306c-.878.003-1.561.678-1.469 1.416.052.416.31.744.539 1.07M76.134 790.371c-.222-.578-.375-.655-.97-.524a.26.26 0 0 0-.214.172q-.374 1.197-.745 2.396c-.021.07-.053.153.031.208.179.118.65-.047.73-.255.033-.087.034-.192.177-.19q.394.007.787-.012c.093-.004.151.031.167.115.051.263.208.34.425.284.444-.012.446-.013.3-.394zm-.692 1.185c-.197 0-.226-.055-.167-.222.072-.205.131-.413.215-.68.087.224.151.384.212.545.136.366.133.353-.26.357M81.896 765.82c.154.083.3.307.477.011.234-.393.488-.773.732-1.16.293-.463.301-.477.773-.18.252.159.318-.012.423-.165.113-.164.158-.29-.065-.42a33 33 0 0 1-1.544-.979c-.215-.143-.321-.105-.46.108-.153.234-.121.358.116.484.138.073.292.14.387.276-.049.078-.088.144-.131.208-.297.47-.586.944-.893 1.406-.165.255.025.322.185.41M82.516 780.096l-.504-2.06a.21.21 0 0 0-.35-.102l-1.62 1.551a.2.2 0 0 0 .083.337q.09.027.18.046c.13.028.117.072.056.164a4.3 4.3 0 0 1-1.311 1.284l-.013.008c-.452.215-.93.37-1.423.46q-.766.145-1.543.178a.12.12 0 0 1-.124-.123V774.6a.07.07 0 0 1 .07-.07c.066 0 .146.013.338.01.378-.003.771-.003 1.15-.025.123-.008.192-.004.271.055a.81.81 0 0 0 1.096-.084.82.82 0 0 0 .007-1.1.807.807 0 0 0-1.092-.103.27.27 0 0 1-.166.071 155 155 0 0 0-1.583 0 .13.13 0 0 1-.091-.024v-.828q0-.043.027-.077a.4.4 0 0 1 .131-.093c.853-.432 1.295-1.143 1.295-2.09 0-1.496-1.46-2.585-2.904-2.193-1.145.31-1.888 1.448-1.672 2.608.158.852.66 1.449 1.476 1.765a.4.4 0 0 1 .087.043c.03.023.047.059.046.096v.677a.117.117 0 0 1-.118.117 93 93 0 0 0-1.704 0 .36.36 0 0 1-.217-.074.8.8 0 0 0-1.09.112.811.811 0 0 0 1.097 1.185.33.33 0 0 1 .216-.071c.55 0 1.101.008 1.651 0a.2.2 0 0 1 .142.03.07.07 0 0 1 .02.05v7.2a.12.12 0 0 1-.13.12 12.6 12.6 0 0 1-1.982-.327 6 6 0 0 1-1.177-.418 4.4 4.4 0 0 1-1.282-1.402.09.09 0 0 1 .066-.142l.174-.035a.202.202 0 0 0 .105-.333l-1.526-1.662a.197.197 0 0 0-.336.074l-.668 2.12a.22.22 0 0 0 .258.28l.118-.027a.336.336 0 0 1 .373.174c.878 1.704 2.197 2.938 3.942 3.717.682.305.952.394 1.541.483a.12.12 0 0 1 .066.034l.896.888a.32.32 0 0 0 .45 0l.87-.852a.12.12 0 0 1 .073-.034c.872-.082 1.261-.298 2.2-.727 1.452-.665 2.605-1.82 3.347-3.234.066-.126.124-.141.235-.104q.064.023.131.042a.27.27 0 0 0 .342-.327m-7.481-8.644a1.16 1.16 0 0 1-1.12-1.212c.031-.686.602-1.192 1.246-1.143.677.053 1.144.597 1.11 1.226-.036.683-.596 1.177-1.236 1.13"/><path stroke="#00fa00" stroke-linecap="round" stroke-linejoin="round" stroke-width="2" marker-end="url(#f)" d="M275.338 718.696c-11.646 16.27-29.597 35.524-54.99 47.887-7.69 3.744-15.52 6.592-23.274 8.728"/><path fill="#fff" d="M854.875 512h137.5a4 4 0 0 1 4 4v52a4 4 0 0 1-4 4h-137.5a4 4 0 0 1-4-4v-52a4 4 0 0 1 4-4"/><path stroke="#000" stroke-linecap="round" stroke-linejoin="round" d="M854.875 512h137.5a4 4 0 0 1 4 4v52a4 4 0 0 1-4 4h-137.5a4 4 0 0 1-4-4v-52a4 4 0 0 1 4-4"/><text fill="#000" transform="translate(855.875 522.536)"><tspan x="104.092" y="16" font-family="Helvetica Neue" font-size="16" xml:space="preserve">Cert</tspan> <tspan x="70.284" y="35.464" font-family="Helvetica Neue" font-size="16" xml:space="preserve">Manager</tspan></text><path fill="#326ce5" d="M911.066 542c0 2.536-1.553 4.795-2.295 7.081-.77 2.372-.868 5.107-2.304 7.081-1.451 1.994-4.032 2.927-6.026 4.378-1.974 1.436-3.65 3.611-6.022 4.382-2.288.743-4.913-.008-7.448-.008s-5.16.75-7.448.008c-2.372-.77-4.048-2.946-6.023-4.382-1.994-1.451-4.574-2.384-6.025-4.378-1.437-1.973-1.535-4.709-2.305-7.08-.743-2.29-2.295-4.549-2.295-7.082 0-2.534 1.553-4.796 2.295-7.082.77-2.371.868-5.107 2.305-7.08 1.45-1.994 4.031-2.927 6.025-4.378 1.975-1.436 3.651-3.612 6.023-4.382 2.287-.742 4.912.007 7.448.007 2.535 0 5.16-.75 7.447-.007 2.372.77 4.049 2.946 6.023 4.382 1.994 1.45 4.575 2.384 6.026 4.377 1.436 1.974 1.534 4.71 2.304 7.081.742 2.286 2.295 4.546 2.295 7.082"/><path fill="#fff" d="M886.97 521.532c-11.305 0-20.468 9.164-20.468 20.468s9.163 20.467 20.467 20.467 20.468-9.16 20.468-20.467-9.164-20.468-20.468-20.468m-.006 39.155c-10.323 0-18.68-8.36-18.682-18.684 0-10.334 8.379-18.707 18.709-18.687s18.674 8.38 18.665 18.701-8.369 18.673-18.692 18.67"/><path fill="#fff" d="M877.528 551.274c-.066-.226-.378-.451-.62-.421-.343.044-.685.1-1.098.162.152-.403.28-.747.411-1.091.114-.3-.13-.444-.284-.604s-.274.042-.378.124c-.555.44-1.093.902-1.654 1.335-.266.205-.066.324.042.472.107.147.217.313.437.12.253-.223.52-.43.786-.645.01.025.02.037.017.045-.053.152-.11.303-.16.456-.108.322.099.558.438.504.14-.022.284-.065.452.007-.273.223-.51.433-.762.62-.208.154-.109.279.017.394.125.114.177.413.445.196q.904-.729 1.803-1.462c.062-.051.14-.098.108-.212M888.487 529.217c.429.177.599.096.687-.347q.028-.145.061-.287c.02-.078 0-.208.119-.192.119.017.27-.008.314.17.043.176.097.333.146.5.136.459.23.53.697.554.176.01.215-.05.169-.207-.074-.25-.137-.503-.215-.751-.036-.114-.066-.18.09-.246.379-.16.48-.503.508-.857 0-.436-.263-.756-.753-.887-.399-.106-.808-.172-1.212-.262-.15-.033-.226.028-.254.173q-.234 1.18-.465 2.37c-.02.106-.035.21.108.27m1.15-2.032c.331-.034.65.158.647.354s-.118.29-.34.297c-.137-.116-.455.072-.501-.221-.02-.124-.066-.4.194-.428ZM884.17 554.868c-.187-.06-.377-.138-.442.172-.072.34-.18.672-.293 1.082-.173-.513-.333-.952-.466-1.4-.087-.292-.338-.29-.549-.327-.233-.038-.19.196-.227.328-.197.679-.366 1.367-.577 2.043-.104.333.142.303.306.36.174.06.358.13.425-.158.08-.345.185-.685.292-1.071.043.1.074.159.094.219.131.393.268.782.393 1.176.09.291.352.274.562.302.209.03.166-.196.2-.315.197-.68.363-1.37.577-2.044.098-.326-.128-.312-.296-.367M899.962 550.721c-.215-.03-.427-.094-.642-.115-.178-.016-.223-.078-.229-.262-.014-.459-.429-.835-.88-.84-.31-.01-.548.146-.738.364-.237.27-.44.57-.678.84-.161.185-.14.299.052.444.574.434 1.144.875 1.7 1.33.197.158.296.142.44-.056.263-.357.274-.348-.08-.623-.077-.06-.158-.116-.23-.184-.054-.052-.189-.073-.113-.19.062-.096.115-.22.273-.188s.328.037.48.092c.353.132.572-.006.763-.297.127-.19.133-.28-.118-.315m-1.967.356c-.049.004-.402-.299-.398-.343.008-.115.411-.502.524-.502.152.03.262.106.275.273.007.101-.326.565-.4.572M883.662 529.282c.023.131.066.236.229.21.59-.102 1.184-.19 1.77-.312.31-.066.097-.3.1-.46.003-.17-.09-.222-.258-.19-.32.063-.646.106-.966.17-.167.032-.21-.044-.226-.186-.014-.127-.033-.225.15-.245.271-.03.536-.106.807-.135.293-.031.24-.216.208-.402s-.071-.339-.328-.268c-.24.066-.496.076-.739.137-.17.043-.253.033-.289-.167-.038-.215.081-.232.233-.255.27-.04.538-.092.807-.131.173-.027.305-.075.236-.292-.056-.174.023-.45-.337-.375q-.769.162-1.546.263c-.248.031-.282.142-.245.348q.2 1.149.394 2.29M892.41 555.178a6 6 0 0 1-.585.2c-.164.053-.283.12-.185.329.078.161.057.43.369.305.057-.023.118-.077.174-.008.055.07.019.153-.009.218-.08.188-.248.269-.436.302s-.344-.057-.437-.221a2.2 2.2 0 0 1-.263-.735c-.06-.382.303-.716.65-.549.286.138.501.028.744-.043.166-.049.166-.148.07-.269-.221-.279-.524-.367-.867-.382a1.5 1.5 0 0 0-.984.367c-.328.294-.459.667-.328 1.092.166.557.262 1.18.955 1.364.53.14.999-.025 1.377-.401.408-.41.31-.886.13-1.372-.077-.207-.153-.295-.375-.197M896.477 553.939c-.24.188-.501.348-.742.536-.131.102-.197.07-.281-.053-.085-.124-.111-.197.03-.29.218-.143.428-.3.64-.453.07-.05.153-.09.145-.21a.9.9 0 0 0-.274-.381c-.122-.086-.217.045-.312.11-.196.137-.402.263-.586.417-.153.127-.197.01-.272-.08-.09-.105-.092-.171.035-.254.246-.16.473-.35.721-.505.203-.127.16-.25.04-.397-.105-.132-.17-.328-.403-.151-.427.318-.866.622-1.304.929-.137.096-.143.192-.047.328q.677.942 1.347 1.89c.081.114.16.16.295.062q.672-.492 1.356-.967c.215-.15.085-.273-.007-.408-.091-.134-.179-.282-.381-.123M879.54 552.875c-.091-.066-.188-.035-.271.03l-1.989 1.55c-.087.065-.152.161-.026.231.232.132.445.46.753.113a.104.104 0 0 1 .143-.03l.741.48c.066.045.044.114.036.178-.034.282.16.598.44.613.293.016.155-.293.247-.438q.016-.03.022-.062l.525-2.154c-.074-.283-.398-.342-.62-.511m-.42 1.752c-.511-.301-.511-.301-.096-.633l.294-.225a3.7 3.7 0 0 1-.197.858M878.694 530.774c.328.455.831.59 1.365.393.555-.2.984-.742.961-1.237a1.4 1.4 0 0 0-.081-.347.14.14 0 0 0-.14-.113c-.19 0-.54.34-.542.544-.003.275-.179.412-.399.5-.207.083-.393 0-.516-.172a5 5 0 0 1-.39-.64c-.09-.188-.074-.393.097-.54.172-.145.383-.244.627-.111.17.093.63-.066.727-.232.066-.106-.018-.166-.071-.225a.91.91 0 0 0-.708-.307c-.878.004-1.562.68-1.469 1.417.052.416.31.744.539 1.07M888.01 555.675c-.223-.578-.376-.655-.97-.524a.26.26 0 0 0-.215.172q-.374 1.197-.745 2.396c-.022.07-.053.153.031.208.179.118.65-.047.73-.255.033-.087.034-.192.178-.19q.393.007.786-.012c.093-.004.151.031.168.115.05.263.207.34.424.284.444-.012.446-.013.3-.394q-.342-.902-.688-1.8m-.693 1.185c-.197 0-.226-.055-.167-.222.072-.205.131-.413.215-.68.087.224.151.384.212.545.136.366.133.353-.26.357M893.771 531.123c.154.084.3.308.477.012.234-.393.488-.773.732-1.16.293-.463.301-.477.773-.18.252.159.318-.013.423-.165.113-.164.158-.29-.065-.42a33 33 0 0 1-1.544-.979c-.215-.143-.321-.105-.46.108-.153.234-.121.358.116.484.138.073.292.14.387.276-.049.078-.088.144-.131.208-.297.47-.586.944-.893 1.406-.166.255.025.322.185.41M894.39 545.4l-.503-2.06a.21.21 0 0 0-.35-.102l-1.62 1.551a.2.2 0 0 0 .083.337q.09.027.18.046c.13.028.117.072.056.164-.34.518-.787.956-1.311 1.284l-.013.008c-.452.215-.93.37-1.423.46q-.765.145-1.543.178a.12.12 0 0 1-.124-.123v-7.238a.07.07 0 0 1 .07-.07c.066 0 .146.013.338.01.378-.003.771-.003 1.15-.025.124-.008.192-.004.271.055a.81.81 0 0 0 1.096-.084.82.82 0 0 0 .007-1.1.807.807 0 0 0-1.092-.103.27.27 0 0 1-.166.071q-.792-.005-1.583 0a.13.13 0 0 1-.091-.024v-.828q0-.043.027-.077a.4.4 0 0 1 .131-.092c.853-.433 1.295-1.144 1.295-2.09 0-1.497-1.46-2.586-2.904-2.194-1.144.31-1.888 1.448-1.672 2.608.158.852.66 1.449 1.476 1.765q.046.015.087.043c.03.023.047.059.046.096v.677a.117.117 0 0 1-.118.117 93 93 0 0 0-1.704 0 .36.36 0 0 1-.217-.074.8.8 0 0 0-1.09.112.811.811 0 0 0 1.097 1.185.33.33 0 0 1 .216-.071c.55 0 1.101.008 1.651 0a.2.2 0 0 1 .142.03.07.07 0 0 1 .02.05v7.2a.12.12 0 0 1-.13.12 12.6 12.6 0 0 1-1.982-.327 6 6 0 0 1-1.178-.418 4.4 4.4 0 0 1-1.28-1.402.09.09 0 0 1 .065-.142l.174-.035a.202.202 0 0 0 .105-.333l-1.525-1.662a.197.197 0 0 0-.337.075l-.668 2.119a.22.22 0 0 0 .258.28l.118-.027a.336.336 0 0 1 .373.174c.878 1.704 2.197 2.938 3.942 3.717.682.305.952.394 1.541.484a.12.12 0 0 1 .066.033l.896.888a.32.32 0 0 0 .45 0l.87-.852a.12.12 0 0 1 .073-.034c.873-.082 1.261-.298 2.2-.727 1.452-.664 2.605-1.82 3.347-3.234.066-.126.124-.141.235-.104q.064.023.131.042a.27.27 0 0 0 .342-.327m-7.48-8.644a1.16 1.16 0 0 1-1.12-1.212c.031-.686.602-1.192 1.245-1.143.678.053 1.145.597 1.111 1.226-.036.683-.596 1.177-1.236 1.13M360 542h83.75a4 4 0 0 1 4 4v52a4 4 0 0 1-4 4H360a4 4 0 0 1-4-4v-52a4 4 0 0 1 4-4"/><path stroke="#000" stroke-linecap="round" stroke-linejoin="round" d="M360 542h83.75a4 4 0 0 1 4 4v52a4 4 0 0 1-4 4H360a4 4 0 0 1-4-4v-52a4 4 0 0 1 4-4"/><text fill="#000" transform="translate(361 552.536)"><tspan x="34.918" y="16" font-family="Helvetica Neue" font-size="16" xml:space="preserve">SPIRE </tspan> <tspan x="34.022" y="35.464" font-family="Helvetica Neue" font-size="16" xml:space="preserve">Server</tspan></text><path fill="url(#g)" d="M384.71 552.019a1.196 1.196 0 0 0-1.395.968l-1.43 7.865h2.456l1.35-7.438a1.21 1.21 0 0 0-.98-1.395m-18.935.968a1.213 1.213 0 0 0-1.407-.968 1.2 1.2 0 0 0-.969 1.395l1.338 7.438h2.468Zm23.26 32.509-4.936-20.78h2.606c.6 0 1.096-.496 1.096-1.096a1.1 1.1 0 0 0-1.096-1.084h-9.56v2.306h1.903l-3.298 2.526v-9.883a1.2 1.2 0 0 0-1.21-1.2c-.67 0-1.2.543-1.2 1.2v9.883l-3.298-2.526h1.89v-2.306h-9.56a1.09 1.09 0 0 0 0 2.18h2.607l-4.947 20.803c-.15.646.242 1.303.888 1.453.092.023.184.023.277.023.542 0 1.038-.369 1.164-.922l2.641-11.071 8.326 6.123v9.676c0 .668.542 1.199 1.2 1.199.668 0 1.21-.542 1.21-1.2v-9.675l8.315-6.123 2.63 11.048a1.207 1.207 0 0 0 1.452.888 1.185 1.185 0 0 0 .9-1.442m-15.695-7.357-5.397-3.979h3.99v-2.41h-6.147l1.442-6.02 6.112 4.682Zm7.807-3.979-5.397 3.979V570.4l6.112-4.682 1.43 6.02h-6.147v2.421Z"/><path fill="#fff" d="M360 262.846h83.75a4 4 0 0 1 4 4v52a4 4 0 0 1-4 4H360a4 4 0 0 1-4-4v-52a4 4 0 0 1 4-4"/><path stroke="#000" stroke-linecap="round" stroke-linejoin="round" d="M360 262.846h83.75a4 4 0 0 1 4 4v52a4 4 0 0 1-4 4H360a4 4 0 0 1-4-4v-52a4 4 0 0 1 4-4"/><text fill="#000" transform="translate(361 273.382)"><tspan x="34.918" y="16" font-family="Helvetica Neue" font-size="16" xml:space="preserve">SPIRE </tspan> <tspan x="38.182" y="35.464" font-family="Helvetica Neue" font-size="16" xml:space="preserve">Agent</tspan></text><path fill="url(#h)" d="M384.71 272.865a1.196 1.196 0 0 0-1.395.968l-1.43 7.865h2.456l1.35-7.438a1.21 1.21 0 0 0-.98-1.395m-18.935.968a1.213 1.213 0 0 0-1.407-.968 1.2 1.2 0 0 0-.969 1.395l1.338 7.438h2.468Zm23.26 32.509-4.936-20.78h2.606c.6 0 1.096-.497 1.096-1.096a1.1 1.1 0 0 0-1.096-1.084h-9.56v2.306h1.903l-3.298 2.526v-9.883a1.2 1.2 0 0 0-1.21-1.2c-.67 0-1.2.543-1.2 1.2v9.883l-3.298-2.526h1.89v-2.306h-9.56a1.09 1.09 0 0 0 0 2.18h2.607l-4.947 20.803c-.15.646.242 1.303.888 1.453.092.023.184.023.277.023.542 0 1.038-.369 1.164-.922l2.641-11.071 8.326 6.123v9.676c0 .668.542 1.199 1.2 1.199.668 0 1.21-.542 1.21-1.2v-9.675l8.315-6.123 2.63 11.047a1.206 1.206 0 0 0 1.452.888 1.184 1.184 0 0 0 .9-1.441m-15.695-7.357-5.397-3.979h3.99v-2.41h-6.147l1.442-6.02 6.112 4.682Zm7.807-3.979-5.397 3.979v-7.738l6.112-4.682 1.43 6.02h-6.147v2.421Z"/><path fill="#0a55a8" d="M854.875 197h92a4 4 0 0 1 4 4v52a4 4 0 0 1-4 4h-92a4 4 0 0 1-4-4v-52a4 4 0 0 1 4-4"/><text fill="#fff" transform="translate(855.875 207.536)"><tspan x="44.64" y="16" font-family="Helvetica Neue" font-size="16" xml:space="preserve">Envoy </tspan> <tspan x="47.6" y="35.464" font-family="Helvetica Neue" font-size="16" xml:space="preserve">Proxy</tspan></text><path fill="#fff" d="m868.932 228.02-2.417-1.504.051 2.298 2.417 1.504Zm3.481 8.044-.05-2.248-2.113-1.318a.4.4 0 0 1-.085-.067l.051 2.264Zm-7.554 3.025-5.526-3.43-.135-5.746 2.704-1.167-.05-2.298-4.327 1.86c-.338.151-.54.455-.524.81l.169 6.895c0 .355.22.71.558.913l6.624 4.106c.304.186.676.237.997.152.034-.017.068-.017.102-.033l4.072-1.758-2.213-1.369Z"/><path fill="#fff" d="M882.722 226.38a1.32 1.32 0 0 0-.66-1.064l-8.043-4.985-.254.101.05 2.417 6.372 3.954.152 6.456 2.433 1.504.136-.051Zm-9.633 11.34-7.486-4.63-.186-7.774 3.413-1.47-.067-2.687-5.29 2.281a.97.97 0 0 0-.608.946l.22 9.126c0 .423.253.828.659 1.065l8.77 5.441c.355.22.795.288 1.167.17a.24.24 0 0 1 .101-.034l5.171-2.231-2.568-1.589Z"/><path fill="#fff" d="m894.129 219.993-11.238-6.963c-.423-.253-.913-.321-1.335-.186-.034.017-.085.034-.119.05l-10.967 4.733c-.44.186-.71.591-.693 1.081l.27 11.695c.017.473.304.946.76 1.216l11.239 6.963c.405.253.912.321 1.335.186.034-.017.084-.034.118-.05l10.968-4.733c.44-.186.71-.608.693-1.081l-.27-11.695c-.018-.473-.305-.93-.761-1.216m-11.424 15.97-9.768-6.05-.237-10.157 9.532-4.106L892 221.7l.236 10.156Z"/><path fill="#0a55a8" d="M219.75 197h92a4 4 0 0 1 4 4v52a4 4 0 0 1-4 4h-92a4 4 0 0 1-4-4v-52a4 4 0 0 1 4-4"/><text fill="#fff" transform="translate(220.75 207.536)"><tspan x="44.64" y="16" font-family="Helvetica Neue" font-size="16" xml:space="preserve">Envoy </tspan> <tspan x="47.6" y="35.464" font-family="Helvetica Neue" font-size="16" xml:space="preserve">Proxy</tspan></text><path fill="#fff" d="m234.202 228.79-2.417-1.504.051 2.298 2.417 1.504Zm3.481 8.044-.05-2.248-2.113-1.318a.3.3 0 0 1-.084-.067l.05 2.264Zm-7.554 3.025-5.526-3.43-.135-5.746 2.704-1.166-.05-2.299-4.327 1.86c-.338.151-.54.455-.524.81l.169 6.895c0 .355.22.71.558.913l6.624 4.106c.304.186.676.237.997.152.034-.017.068-.017.102-.033l4.072-1.758-2.213-1.369Z"/><path fill="#fff" d="M247.992 227.15a1.32 1.32 0 0 0-.66-1.064l-8.043-4.985-.254.101.05 2.417 6.372 3.954.152 6.456 2.433 1.504.136-.051Zm-9.633 11.34-7.486-4.63-.186-7.774 3.413-1.47-.067-2.687-5.29 2.281a.97.97 0 0 0-.608.946l.22 9.126c0 .423.253.828.659 1.065l8.77 5.441c.355.22.795.288 1.167.17a.24.24 0 0 1 .101-.034l5.171-2.231-2.568-1.589Z"/><path fill="#fff" d="M259.399 220.763 248.16 213.8c-.423-.253-.913-.321-1.335-.186-.034.017-.085.034-.119.05l-10.967 4.733c-.44.186-.71.591-.693 1.081l.27 11.695c.017.473.304.946.76 1.216l11.239 6.963c.405.253.912.321 1.335.186.034-.017.084-.034.118-.05l10.968-4.733c.44-.186.71-.608.693-1.081l-.27-11.695c-.018-.473-.305-.93-.761-1.216m-11.424 15.97-9.768-6.05-.237-10.157 9.532-4.106 9.767 6.05.237 10.156Zm771.401 61.074h83.75a4 4 0 0 1 4 4v52a4 4 0 0 1-4 4h-83.75a4 4 0 0 1-4-4v-52a4 4 0 0 1 4-4"/><path stroke="#000" stroke-linecap="round" stroke-linejoin="round" d="M1019.375 297.807h83.75a4 4 0 0 1 4 4v52a4 4 0 0 1-4 4h-83.75a4 4 0 0 1-4-4v-52a4 4 0 0 1 4-4"/><text fill="#000" transform="translate(1020.375 308.343)"><tspan x="34.918" y="16" font-family="Helvetica Neue" font-size="16" xml:space="preserve">SPIRE </tspan> <tspan x="38.182" y="35.464" font-family="Helvetica Neue" font-size="16" xml:space="preserve">Agent</tspan></text><path fill="url(#i)" d="M1044.085 307.826a1.196 1.196 0 0 0-1.395.969l-1.43 7.864h2.456l1.35-7.438a1.21 1.21 0 0 0-.98-1.395m-18.935.969a1.213 1.213 0 0 0-1.407-.97 1.2 1.2 0 0 0-.969 1.396l1.338 7.438h2.468Zm23.26 32.508-4.936-20.78h2.606c.6 0 1.096-.496 1.096-1.096a1.1 1.1 0 0 0-1.096-1.084h-9.56v2.306h1.903l-3.298 2.526v-9.883a1.2 1.2 0 0 0-1.21-1.2c-.67 0-1.2.543-1.2 1.2v9.883l-3.298-2.526h1.89v-2.306h-9.56a1.09 1.09 0 0 0 0 2.18h2.607l-4.947 20.803c-.15.646.242 1.303.888 1.453.092.023.184.023.277.023.542 0 1.038-.369 1.164-.922l2.641-11.071 8.326 6.123v9.676c0 .669.542 1.199 1.2 1.199.668 0 1.21-.542 1.21-1.2v-9.675l8.315-6.123 2.63 11.048a1.206 1.206 0 0 0 1.452.888 1.185 1.185 0 0 0 .9-1.442m-15.695-7.357-5.397-3.979h3.99v-2.41h-6.147l1.442-6.02 6.112 4.682Zm7.807-3.979-5.397 3.979v-7.738l6.112-4.682 1.43 6.02h-6.147v2.421Z"/><path fill="#fff" d="M1037 424h83.75a4 4 0 0 1 4 4v52a4 4 0 0 1-4 4H1037a4 4 0 0 1-4-4v-52a4 4 0 0 1 4-4"/><path stroke="#000" stroke-linecap="round" stroke-linejoin="round" d="M1037 424h83.75a4 4 0 0 1 4 4v52a4 4 0 0 1-4 4H1037a4 4 0 0 1-4-4v-52a4 4 0 0 1 4-4"/><text fill="#000" transform="translate(1038 434.536)"><tspan x="34.918" y="16" font-family="Helvetica Neue" font-size="16" xml:space="preserve">SPIRE </tspan> <tspan x="34.022" y="35.464" font-family="Helvetica Neue" font-size="16" xml:space="preserve">Server</tspan></text><path fill="url(#j)" d="M1061.71 434.019a1.196 1.196 0 0 0-1.395.969l-1.43 7.864h2.456l1.35-7.438a1.21 1.21 0 0 0-.98-1.395m-18.935.969a1.213 1.213 0 0 0-1.407-.97 1.2 1.2 0 0 0-.969 1.396l1.338 7.438h2.468Zm23.26 32.508-4.936-20.78h2.606c.6 0 1.096-.496 1.096-1.096a1.1 1.1 0 0 0-1.096-1.084h-9.56v2.306h1.903l-3.298 2.526v-9.883a1.2 1.2 0 0 0-1.21-1.2c-.67 0-1.2.543-1.2 1.2v9.883l-3.298-2.526h1.89v-2.306h-9.56a1.09 1.09 0 0 0 0 2.18h2.607l-4.947 20.803c-.15.646.242 1.303.888 1.453.092.023.184.023.277.023.542 0 1.038-.369 1.164-.922l2.641-11.071 8.326 6.123v9.676c0 .669.542 1.199 1.2 1.199.668 0 1.21-.542 1.21-1.2v-9.675l8.315-6.123 2.63 11.048a1.206 1.206 0 0 0 1.452.887 1.185 1.185 0 0 0 .9-1.441m-15.695-7.357-5.397-3.979h3.99v-2.41h-6.147l1.442-6.02 6.112 4.682Zm7.807-3.979-5.397 3.979V452.4l6.112-4.682 1.43 6.02h-6.147v2.421Z"/><path stroke="#00fa00" stroke-linecap="round" stroke-linejoin="round" stroke-width="2" marker-end="url(#f)" d="M950.875 247.733c16.144 7.518 34.181 16.777 50.87 27.267 8.1 5.092 15.203 10.046 21.407 14.75"/><path stroke="#00fa00" stroke-linecap="round" stroke-linejoin="round" stroke-width="2" marker-end="url(#f)" d="M1071.245 357.807c.484 2.798.963 5.855 1.43 9.193 1.91 13.683 3.267 29.635 4.213 44.116"/><path stroke="#00fa00" stroke-linecap="round" stroke-linejoin="round" stroke-width="2" marker-end="url(#f)" d="M1068.159 484c-7.326 13.502-19.452 28.898-39.313 40.156-6.418 3.638-13.203 6.594-20.111 8.99"/><path stroke="#00fa00" stroke-linecap="round" stroke-linejoin="round" stroke-width="2" marker-end="url(#f)" d="M750.922 461.5c9.982 13.827 25.654 30.251 49.66 44.314 12.188 7.14 25.217 12.906 38.07 17.552"/><path stroke="#b34400" stroke-dasharray="8 8" stroke-linecap="round" stroke-linejoin="round" stroke-width="2" d="M437.5 602c40.276 28.834 114.16 68.602 218.895 72.453 166.017 6.105 211.79-18.449 331.48-80.905 72.784-37.979 90.698-81.37 93.561-109.548"/><path fill="#fff" d="M582.154 649.787h107.808v46.896H582.154z"/><text fill="#000" transform="translate(587.154 654.787)"><tspan x="13.496" y="15" font-family="Helvetica Neue" font-size="16" xml:space="preserve">Exchange</tspan> <tspan x="0" y="33.448" font-family="Helvetica Neue" font-size="16" xml:space="preserve">Trust Bundles</tspan></text><path fill="#fff" d="M565.872 746.477h112.624v32H565.872z"/><text fill="#000" transform="translate(570.872 751.477)"><tspan x="0" y="17" font-family="Helvetica Neue" font-size="16" xml:space="preserve">Get Endpoint</tspan> <tspan y="17" font-family="PingFang SC" font-size="16" xml:space="preserve">s</tspan></text><path fill="#fff" d="M522.285 467.375h112.624v32H522.285z"/><text fill="#000" transform="translate(527.285 472.375)"><tspan x="0" y="17" font-family="Helvetica Neue" font-size="16" xml:space="preserve">Get Endpoint</tspan> <tspan y="17" font-family="PingFang SC" font-size="16" xml:space="preserve">s</tspan></text><path stroke="#00fa00" stroke-linecap="round" stroke-linejoin="round" stroke-width="2" marker-end="url(#e)" d="M402.41 602c-2.003 36.07-14.142 96.568-68.91 135.21-39.422 27.813-92.039 38.03-136.125 41.132"/><path fill="#0a55a8" d="M689 123h92a4 4 0 0 1 4 4v52a4 4 0 0 1-4 4h-92a4 4 0 0 1-4-4v-52a4 4 0 0 1 4-4"/><text fill="#fff" transform="translate(690 133.536)"><tspan x="18.016" y="16" font-family="Helvetica Neue" font-size="16" xml:space="preserve">Ingress</tspan> <tspan x="12.544" y="35.464" font-family="Helvetica Neue" font-size="16" xml:space="preserve">Gateway</tspan></text><path stroke="#0a55a8" stroke-dasharray="8 8" stroke-linecap="round" stroke-linejoin="round" stroke-width="2" marker-end="url(#d)" d="M735.065 401.5c-1.995-11.32-6.258-25.87-14.716-43.693-23.46-49.437-72.31-42.784-68.16-100.807 1.769-24.715 17.055-47.244 34.022-64.965"/><text fill="#000" transform="translate(16 -25.732)"><tspan x="0" y="16" font-family="Helvetica Neue" font-size="16" font-weight="bold" xml:space="preserve">cluster-1</tspan></text><text fill="#000" transform="translate(651 -28.268)"><tspan x="0" y="17" font-family="PingFang SC" font-size="16" font-weight="bold" xml:space="preserve">cluster-2</tspan></text><path fill="#fff" d="M356.291 408.636h91.168v46.896h-91.168z"/><text fill="#000" transform="translate(361.291 413.636)"><tspan x="27.696" y="15" font-family="Helvetica Neue" font-size="16" xml:space="preserve">Get</tspan> <tspan x="0" y="33.448" font-family="Helvetica Neue" font-size="16" xml:space="preserve">Certificates</tspan></text><path fill="#fff" d="M1014.416 374.203h121.392v28.448h-121.392z"/><text fill="#000" transform="translate(1019.416 379.203)"><tspan x="0" y="15" font-family="Helvetica Neue" font-size="16" xml:space="preserve">Get Certificates</tspan></text><path fill="#fff" d="M677.712 333.494h114.576v28.448H677.712z"/><text fill="#000" transform="translate(682.712 338.494)"><tspan x="0" y="15" font-family="Helvetica Neue" font-size="16" xml:space="preserve">Config Proxies</tspan></text><text fill="#000" transform="translate(911.25 693.453)"><tspan x="0" y="14" font-family="Helvetica Neue" font-size="14" font-weight="bold" xml:space="preserve">Legend</tspan></text><text fill="#000" transform="translate(985.872 795.54)"><tspan x="0" y="13" font-family="Helvetica Neue" font-size="14" xml:space="preserve">SPIRE Federation</tspan></text><path stroke="#b34400" stroke-dasharray="8 8" stroke-linecap="round" stroke-linejoin="round" stroke-width="2" d="M909.955 804.976h63.028"/><path stroke="#00fa00" stroke-linecap="round" stroke-linejoin="round" stroke-width="2" marker-end="url(#f)" d="M909.955 781.475h50.128"/><text fill="#000" transform="translate(985.5 771.583)"><tspan x="0" y="13" font-family="Helvetica Neue" font-size="14" xml:space="preserve">Get Workload Certificates</tspan></text><text fill="#000" transform="translate(985.872 750.183)"><tspan x="0" y="13" font-family="Helvetica Neue" font-size="14" xml:space="preserve">Get Workload Endpoints</tspan></text><path stroke="#000" stroke-dasharray="8 8" stroke-linecap="round" stroke-linejoin="round" stroke-width="2" marker-end="url(#c)" d="m909.955 759.385 49.927-.108"/><text fill="#000" transform="translate(985.872 727.062)"><tspan x="0" y="13" font-family="Helvetica Neue" font-size="14" xml:space="preserve">Traffic Flow</tspan></text><path stroke="#000" stroke-linecap="round" stroke-linejoin="round" stroke-width="2" marker-start="url(#b)" d="m959.882 736.336-49.927.109"/><text fill="#000" transform="translate(16 -73)"><tspan x="0" y="20" font-family="Helvetica Neue" font-size="20" font-weight="bold" xml:space="preserve">East-West Traffic Federation: Service Redundancy Across Clusters</tspan></text><path fill="#f3f3f3" d="M64.961 336.1h259.5a8 8 0 0 1 8 8v121a8 8 0 0 1-8 8h-259.5a8 8 0 0 1-8-8v-121a8 8 0 0 1 8-8"/><path stroke="#666" stroke-linecap="round" stroke-linejoin="round" d="M64.961 336.1h259.5a8 8 0 0 1 8 8v121a8 8 0 0 1-8 8h-259.5a8 8 0 0 1-8-8v-121a8 8 0 0 1 8-8"/><text fill="#000" transform="translate(61.961 341.1)"><tspan x="117.638" y="16" font-family="Helvetica Neue" font-size="16" font-weight="bold" xml:space="preserve">Pod</tspan></text><path fill="#333" d="M77.461 381.1h92a4 4 0 0 1 4 4v52a4 4 0 0 1-4 4h-92a4 4 0 0 1-4-4v-52a4 4 0 0 1 4-4"/><text fill="#fff" transform="translate(78.461 401.369)"><tspan x="9.72" y="16" font-family="Helvetica Neue" font-size="16" xml:space="preserve">Service B</tspan></text><path fill="#0a55a8" d="M218.711 381.1h92a4 4 0 0 1 4 4v52a4 4 0 0 1-4 4h-92a4 4 0 0 1-4-4v-52a4 4 0 0 1 4-4"/><text fill="#fff" transform="translate(219.711 391.637)"><tspan x="44.64" y="16" font-family="Helvetica Neue" font-size="16" xml:space="preserve">Envoy </tspan> <tspan x="47.6" y="35.464" font-family="Helvetica Neue" font-size="16" xml:space="preserve">Proxy</tspan></text><path fill="#fff" d="m233.163 412.89-2.417-1.503.051 2.298 2.417 1.504Zm3.481 8.045-.05-2.248-2.113-1.318a.4.4 0 0 1-.084-.068l.05 2.265Zm-7.554 3.025-5.526-3.43-.135-5.746 2.704-1.167-.05-2.298-4.327 1.859c-.338.152-.54.456-.524.811l.17 6.895c0 .355.219.71.557.913l6.624 4.106c.305.186.676.237.997.152.034-.017.068-.017.102-.033l4.073-1.758-2.214-1.369Z"/><path fill="#fff" d="M246.953 411.252a1.32 1.32 0 0 0-.66-1.065l-8.043-4.985-.254.101.051 2.417 6.371 3.954.152 6.456 2.434 1.504.135-.051Zm-9.633 11.339-7.486-4.63-.186-7.774 3.414-1.47-.068-2.687-5.29 2.281a.97.97 0 0 0-.608.946l.22 9.126c0 .423.253.828.659 1.065l8.77 5.441c.356.22.795.288 1.167.17a.24.24 0 0 1 .101-.035l5.171-2.23-2.568-1.589Z"/><path fill="#fff" d="m258.36 404.864-11.238-6.963c-.423-.253-.913-.321-1.335-.186-.034.017-.085.034-.118.05l-10.968 4.733c-.44.186-.71.591-.693 1.081l.27 11.695c.017.473.305.946.76 1.216l11.239 6.963c.406.253.913.32 1.335.186.034-.017.085-.034.118-.051l10.968-4.732c.44-.186.71-.608.693-1.081l-.27-11.695c-.017-.473-.305-.93-.761-1.216m-11.424 15.97-9.768-6.05-.236-10.157 9.53-4.107 9.769 6.05.236 10.157Z"/><path stroke="#000" stroke-dasharray="8 8" stroke-linecap="round" stroke-linejoin="round" stroke-width="2" marker-end="url(#c)" d="M252.359 257c-7.448 6.244-17.925 13.68-32.522 22.5C150.782 321.222 57.395 281.856 22 374.27c-23.357 60.982 15.86 142.26 45.235 190.49"/><path stroke="#000" stroke-linecap="round" stroke-linejoin="round" stroke-width="2" marker-end="url(#c)" d="m265.581 257-.628 111.201"/><path stroke="#000" stroke-linecap="round" stroke-linejoin="round" stroke-width="2" marker-end="url(#c)" d="M214.711 411.101h-28.35"/><path stroke="#0a55a8" stroke-dasharray="8 8" stroke-linecap="round" stroke-linejoin="round" stroke-width="2" marker-end="url(#d)" d="M304.456 658.696c19.643-52.405 56.048-164.216 50.473-260.43-3.633-62.703-24.276-104.647-44.787-131.325"/><path stroke="#0a55a8" stroke-dasharray="8 8" stroke-linecap="round" stroke-linejoin="round" stroke-width="2" marker-end="url(#d)" d="M304.103 658.696c7.892-25.244 16.15-64.367 11.647-109.358-3.834-38.298-16.037-72.077-27.55-96.657"/><path fill="#fff" d="M259.867 608.408h114.576v28.448H259.867z"/><text fill="#000" transform="translate(264.867 613.408)"><tspan x="0" y="15" font-family="Helvetica Neue" font-size="16" xml:space="preserve">Config Proxies</tspan></text><path fill="#fff" d="M49.442 294.398h110.144v28.448H49.442z"/><text fill="#000" transform="translate(54.442 299.398)"><tspan x="0" y="15" font-family="Helvetica Neue" font-size="16" xml:space="preserve">DNS Proxying</tspan></text><path stroke="#00fa00" stroke-linecap="round" stroke-linejoin="round" stroke-width="2" marker-end="url(#f)" d="M314.711 392.104c13.625-6.836 28.224-15.724 41.289-26.988 11.986-10.334 20.943-21.168 27.598-31.212"/><path fill="#fff" d="M11 505.8h187.76v46.896H11z"/><text fill="#000" transform="translate(16 510.8)"><tspan x="2.224" y="15" font-family="Helvetica Neue" font-size="16" font-style="italic" xml:space="preserve">Retrieve the ClusterIP of </tspan> <tspan x="1.624" y="33.448" font-family="Helvetica Neue" font-size="16" font-style="italic" xml:space="preserve">Service B from Cluster-1</tspan></text></g></svg>