<?xml version="1.0" encoding="UTF-8" standalone="no"?>
<!DOCTYPE svg PUBLIC "-//W3C//DTD SVG 1.1//EN" "http://www.w3.org/Graphics/SVG/1.1/DTD/svg11.dtd">
<svg xmlns="http://www.w3.org/2000/svg" xmlns:dc="http://purl.org/dc/elements/1.1/" version="1.1" xmlns:xl="http://www.w3.org/1999/xlink" viewBox="-909 2338 992 870" width="992" height="870">
  <defs>
    <marker orient="auto" overflow="visible" markerUnits="strokeWidth" id="FilledArrow_Marker" stroke-linejoin="miter" stroke-miterlimit="10" viewBox="-1 -3 7 6" markerWidth="7" markerHeight="6" color="black">
      <g>
        <path d="M 4.8 0 L 0 -1.8 L 0 1.8 Z" fill="currentColor" stroke="currentColor" stroke-width="1"/>
      </g>
    </marker>
    <marker orient="auto" overflow="visible" markerUnits="strokeWidth" id="FilledArrow_Marker_2" stroke-linejoin="miter" stroke-miterlimit="10" viewBox="-6 -3 7 6" markerWidth="7" markerHeight="6" color="black">
      <g>
        <path d="M -4.8 0 L 0 1.8 L 0 -1.8 Z" fill="currentColor" stroke="currentColor" stroke-width="1"/>
      </g>
    </marker>
    <linearGradient x1="0" x2="1" id="Gradient" gradientUnits="userSpaceOnUse">
      <stop offset="0" stop-color="#4387fd"/>
      <stop offset="1" stop-color="#4683ea"/>
    </linearGradient>
    <linearGradient id="Obj_Gradient" xl:href="#Gradient" gradientTransform="translate(-844.1441 2692.151) scale(39.68504)"/>
    <linearGradient id="Obj_Gradient_2" xl:href="#Gradient" gradientTransform="translate(-202.18051 2692.151) scale(39.68504)"/>
    <linearGradient id="Obj_Gradient_3" xl:href="#Gradient" gradientTransform="translate(-520.8844 3002.8575) scale(39.68504)"/>
    <marker orient="auto" overflow="visible" markerUnits="strokeWidth" id="FilledArrow_Marker_3" stroke-linejoin="miter" stroke-miterlimit="10" viewBox="-1 -3 7 6" markerWidth="7" markerHeight="6" color="#1d2dc2">
      <g>
        <path d="M 4.8 0 L 0 -1.8 L 0 1.8 Z" fill="currentColor" stroke="currentColor" stroke-width="1"/>
      </g>
    </marker>
    <linearGradient id="Obj_Gradient_4" xl:href="#Gradient" gradientTransform="translate(-508.2441 2417.1904) scale(39.68504)"/>
  </defs>
  <g id="Canvas_50" stroke-dasharray="none" fill="none" stroke-opacity="1" stroke="none" fill-opacity="1">
    <title>tsb-spire-integration</title>
    <rect fill="white" x="-909" y="2338" width="992" height="870"/>
    <g id="Canvas_50_all_2">
      <title>all 2</title>
      <g id="Graphic_325"/>
      <g id="Graphic_317">
        <path d="M -194.18051 2666.545 L 19.001772 2666.545 C 23.42005 2666.545 27.001772 2670.1266 27.001772 2674.545 L 27.001772 2812.648 C 27.001772 2817.0663 23.42005 2820.648 19.001772 2820.648 L -194.18051 2820.648 C -198.5988 2820.648 -202.18051 2817.0663 -202.18051 2812.648 L -202.18051 2674.545 C -202.18051 2670.1266 -198.5988 2666.545 -194.18051 2666.545 Z" fill="#f5f5f5"/>
        <path d="M -194.18051 2666.545 L 19.001772 2666.545 C 23.42005 2666.545 27.001772 2670.1266 27.001772 2674.545 L 27.001772 2812.648 C 27.001772 2817.0663 23.42005 2820.648 19.001772 2820.648 L -194.18051 2820.648 C -198.5988 2820.648 -202.18051 2817.0663 -202.18051 2812.648 L -202.18051 2674.545 C -202.18051 2670.1266 -198.5988 2666.545 -194.18051 2666.545 Z" stroke="gray" stroke-linecap="round" stroke-linejoin="round" stroke-width="1"/>
        <text transform="translate(-197.18051 2671.545)" fill="black">
          <tspan font-family="Helvetica Neue" font-weight="bold" font-size="16" fill="black" x="63.37514" y="16">cp-cluster-3</tspan>
        </text>
      </g>
      <g id="Graphic_316">
        <path d="M -143.3689 2708.8465 L -31.809843 2708.8465 C -27.391565 2708.8465 -23.809843 2712.4282 -23.809843 2716.8465 L -23.809843 2750.1103 C -23.809843 2754.5285 -27.391565 2758.1103 -31.809843 2758.1103 L -143.3689 2758.1103 C -147.78718 2758.1103 -151.3689 2754.5285 -151.3689 2750.1103 L -151.3689 2716.8465 C -151.3689 2712.4282 -147.78718 2708.8465 -143.3689 2708.8465 Z" fill="#f15623"/>
        <text transform="translate(-146.3689 2723.7463)" fill="white">
          <tspan font-family="Helvetica Neue" font-weight="bold" font-size="16" fill="white" x="7.94753" y="16">SPIRE Server</tspan>
        </text>
      </g>
      <g id="Graphic_315">
        <path d="M -515.1395 2974.9607 L -294.41953 2974.9607 C -290.00125 2974.9607 -286.41953 2978.5424 -286.41953 2982.9607 L -286.41953 3155.4646 C -286.41953 3159.883 -290.00125 3163.4646 -294.41953 3163.4646 L -515.1395 3163.4646 C -519.5578 3163.4646 -523.1395 3159.883 -523.1395 3155.4646 L -523.1395 2982.9607 C -523.1395 2978.5424 -519.5578 2974.9607 -515.1395 2974.9607 Z" fill="#f5f5f5"/>
        <path d="M -515.1395 2974.9607 L -294.41953 2974.9607 C -290.00125 2974.9607 -286.41953 2978.5424 -286.41953 2982.9607 L -286.41953 3155.4646 C -286.41953 3159.883 -290.00125 3163.4646 -294.41953 3163.4646 L -515.1395 3163.4646 C -519.5578 3163.4646 -523.1395 3159.883 -523.1395 3155.4646 L -523.1395 2982.9607 C -523.1395 2978.5424 -519.5578 2974.9607 -515.1395 2974.9607 Z" stroke="gray" stroke-linecap="round" stroke-linejoin="round" stroke-width="1"/>
        <text transform="translate(-518.1395 3139.0005)" fill="black">
          <tspan font-family="Helvetica Neue" font-weight="bold" font-size="16" fill="black" x="67.144" y="16">cp-cluster-2</tspan>
        </text>
      </g>
      <g id="Graphic_314">
        <path d="M -460.55906 2998.7398 L -349 2998.7398 C -344.58172 2998.7398 -341 3002.3215 -341 3006.7398 L -341 3040.0036 C -341 3044.422 -344.58172 3048.0036 -349 3048.0036 L -460.55906 3048.0036 C -464.97733 3048.0036 -468.55906 3044.422 -468.55906 3040.0036 L -468.55906 3006.7398 C -468.55906 3002.3215 -464.97733 2998.7398 -460.55906 2998.7398 Z" fill="#f15623"/>
        <text transform="translate(-463.55906 3013.6396)" fill="white">
          <tspan font-family="Helvetica Neue" font-weight="bold" font-size="16" fill="white" x="7.94753" y="16">SPIRE Server</tspan>
        </text>
      </g>
      <g id="Graphic_313">
        <path d="M -503.7874 2396.1787 L -305.77165 2396.1787 C -301.35338 2396.1787 -297.77165 2399.7605 -297.77165 2404.1787 L -297.77165 2542.282 C -297.77165 2546.7002 -301.35338 2550.282 -305.77165 2550.282 L -503.7874 2550.282 C -508.2057 2550.282 -511.7874 2546.7002 -511.7874 2542.282 L -511.7874 2404.1787 C -511.7874 2399.7605 -508.2057 2396.1787 -503.7874 2396.1787 Z" fill="#f5f5f5"/>
        <path d="M -503.7874 2396.1787 L -305.77165 2396.1787 C -301.35338 2396.1787 -297.77165 2399.7605 -297.77165 2404.1787 L -297.77165 2542.282 C -297.77165 2546.7002 -301.35338 2550.282 -305.77165 2550.282 L -503.7874 2550.282 C -508.2057 2550.282 -511.7874 2546.7002 -511.7874 2542.282 L -511.7874 2404.1787 C -511.7874 2399.7605 -508.2057 2396.1787 -503.7874 2396.1787 Z" stroke="gray" stroke-linecap="round" stroke-linejoin="round" stroke-width="1"/>
        <text transform="translate(-506.7874 2401.1787)" fill="black">
          <tspan font-family="Helvetica Neue" font-weight="bold" font-size="16" fill="black" x="84.97587" y="16">tier1</tspan>
        </text>
      </g>
      <g id="Graphic_312">
        <path d="M -460.55906 2474.6457 L -349 2474.6457 C -344.58172 2474.6457 -341 2478.2274 -341 2482.6457 L -341 2515.9095 C -341 2520.3278 -344.58172 2523.9095 -349 2523.9095 L -460.55906 2523.9095 C -464.97733 2523.9095 -468.55906 2520.3278 -468.55906 2515.9095 L -468.55906 2482.6457 C -468.55906 2478.2274 -464.97733 2474.6457 -460.55906 2474.6457 Z" fill="#f15623"/>
        <text transform="translate(-463.55906 2489.5455)" fill="white">
          <tspan font-family="Helvetica Neue" font-weight="bold" font-size="16" fill="white" x="7.94753" y="16">SPIRE Server</tspan>
        </text>
      </g>
      <g id="Graphic_311">
        <path d="M -836.1441 2666.545 L -622.9618 2666.545 C -618.5435 2666.545 -614.9618 2670.1266 -614.9618 2674.545 L -614.9618 2812.648 C -614.9618 2817.0663 -618.5435 2820.648 -622.9618 2820.648 L -836.1441 2820.648 C -840.5624 2820.648 -844.1441 2817.0663 -844.1441 2812.648 L -844.1441 2674.545 C -844.1441 2670.1266 -840.5624 2666.545 -836.1441 2666.545 Z" fill="#f5f5f5"/>
        <path d="M -836.1441 2666.545 L -622.9618 2666.545 C -618.5435 2666.545 -614.9618 2670.1266 -614.9618 2674.545 L -614.9618 2812.648 C -614.9618 2817.0663 -618.5435 2820.648 -622.9618 2820.648 L -836.1441 2820.648 C -840.5624 2820.648 -844.1441 2817.0663 -844.1441 2812.648 L -844.1441 2674.545 C -844.1441 2670.1266 -840.5624 2666.545 -836.1441 2666.545 Z" stroke="gray" stroke-linecap="round" stroke-linejoin="round" stroke-width="1"/>
        <text transform="translate(-839.1441 2671.545)" fill="black">
          <tspan font-family="Helvetica Neue" font-weight="bold" font-size="16" fill="black" x="63.37514" y="16">cp-cluster-1</tspan>
        </text>
      </g>
      <g id="Graphic_310">
        <path d="M -777.7492 2708.8465 L -666.19016 2708.8465 C -661.7719 2708.8465 -658.19016 2712.4282 -658.19016 2716.8465 L -658.19016 2750.1103 C -658.19016 2754.5285 -661.7719 2758.1103 -666.19016 2758.1103 L -777.7492 2758.1103 C -782.1675 2758.1103 -785.7492 2754.5285 -785.7492 2750.1103 L -785.7492 2716.8465 C -785.7492 2712.4282 -782.1675 2708.8465 -777.7492 2708.8465 Z" fill="#f15623"/>
        <text transform="translate(-780.7492 2723.7463)" fill="white">
          <tspan font-family="Helvetica Neue" font-weight="bold" font-size="16" fill="white" x="7.94753" y="16">SPIRE Server</tspan>
        </text>
      </g>
      <g id="Line_309">
        <line x1="-678.2318" y1="2701.184" x2="-448.51745" y2="2531.572" marker-end="url(#FilledArrow_Marker)" marker-start="url(#FilledArrow_Marker_2)" stroke="black" stroke-linecap="round" stroke-linejoin="round" stroke-dasharray="8.0,8.0" stroke-width="2"/>
      </g>
      <g id="Line_307">
        <line x1="-361.0416" y1="2531.572" x2="-131.3273" y2="2701.184" marker-end="url(#FilledArrow_Marker)" marker-start="url(#FilledArrow_Marker_2)" stroke="black" stroke-linecap="round" stroke-linejoin="round" stroke-dasharray="8.0,8.0" stroke-width="2"/>
      </g>
      <g id="Line_305">
        <line x1="-441.253" y1="2990.037" x2="-685.4962" y2="2766.813" marker-end="url(#FilledArrow_Marker)" marker-start="url(#FilledArrow_Marker_2)" stroke="black" stroke-linecap="round" stroke-linejoin="round" stroke-dasharray="8.0,8.0" stroke-width="2"/>
      </g>
      <g id="Graphic_303">
        <rect x="-580.68366" y="2562.8828" width="140.992" height="28.447998" fill="white"/>
        <text transform="translate(-575.68365 2567.8828)" fill="black">
          <tspan font-family="Helvetica Neue" font-style="italic" font-size="16" fill="black" x="0" y="15">Exchange bundles</tspan>
        </text>
      </g>
      <g id="Graphic_302">
        <text transform="translate(-525.5555 2369.0945)" fill="black">
          <tspan font-family="Helvetica Neue" font-size="16" fill="black" x="0" y="15">gke-jimmy-us-central1-0.tsb.local</tspan>
        </text>
      </g>
      <g id="Group_299">
        <g id="Graphic_301">
          <path d="M -835.5279 2708.0313 L -843.6665 2693.9337 C -844.3033 2692.8306 -844.3033 2691.4717 -843.6665 2690.3686 L -835.5279 2676.271 C -834.8911 2675.1678 -833.7141 2674.4882 -832.4402 2674.4882 L -816.163 2674.4882 C -814.8893 2674.4882 -813.7124 2675.1678 -813.0753 2676.271 L -804.9367 2690.3686 C -804.29985 2691.4717 -804.29985 2692.8306 -804.9367 2693.9337 L -813.0753 2708.0313 C -813.7121 2709.1345 -814.889 2709.8138 -816.163 2709.8138 L -832.4402 2709.8138 C -833.7138 2709.8138 -834.8907 2709.134 -835.5276 2708.0313" fill="url(#Obj_Gradient)"/>
        </g>
        <g id="Graphic_300">
          <path d="M -816.5412 2687.188 L -823.8818 2682.95 C -824.1407 2682.8004 -824.4597 2682.8004 -824.7186 2682.95 L -832.0591 2687.188 C -832.318 2687.3376 -832.4774 2687.6138 -832.4774 2687.9127 L -832.4774 2696.389 C -832.4774 2696.6878 -832.318 2696.964 -832.0591 2697.1135 L -824.7186 2701.3518 C -824.4597 2701.5012 -824.1407 2701.5012 -823.8818 2701.3518 L -816.5412 2697.1135 C -816.2823 2696.964 -816.123 2696.6878 -816.123 2696.389 L -816.123 2687.9127 C -816.123 2687.6138 -816.2823 2687.3376 -816.5412 2687.188 M -817.5482 2695.578 L -820.1092 2694.0993 L -820.1092 2690.2042 L -823.8911 2692.387 L -823.8911 2696.7554 L -820.5181 2694.808 L -817.9572 2696.2866 L -824.3003 2699.949 L -830.6435 2696.2866 L -828.0825 2694.808 L -824.7093 2696.7554 L -824.7093 2692.387 L -828.4912 2690.2042 L -828.4912 2694.0993 L -831.0521 2695.578 L -831.0521 2688.2534 L -824.709 2684.5912 L -824.709 2687.5484 L -828.0822 2689.4958 L -824.3003 2691.6785 L -820.5184 2689.4958 L -823.8914 2687.5484 L -823.8914 2684.5912 L -817.5482 2688.2534 L -817.5482 2695.578" fill="white"/>
        </g>
      </g>
      <g id="Group_296">
        <g id="Graphic_298">
          <path d="M -193.5643 2708.0313 L -201.7029 2693.9337 C -202.33972 2692.8306 -202.33972 2691.4717 -201.7029 2690.3686 L -193.5643 2676.271 C -192.92747 2675.1678 -191.75055 2674.4882 -190.4766 2674.4882 L -174.1994 2674.4882 C -172.92574 2674.4882 -171.74883 2675.1678 -171.1117 2676.271 L -162.9731 2690.3686 C -162.33627 2691.4717 -162.33627 2692.8306 -162.9731 2693.9337 L -171.1117 2708.0313 C -171.74852 2709.1345 -172.92543 2709.8138 -174.1994 2709.8138 L -190.4766 2709.8138 C -191.75024 2709.8138 -192.92716 2709.134 -193.56399 2708.0313" fill="url(#Obj_Gradient_2)"/>
        </g>
        <g id="Graphic_297">
          <path d="M -174.57765 2687.188 L -181.9182 2682.95 C -182.17708 2682.8004 -182.49612 2682.8004 -182.755 2682.95 L -190.09555 2687.188 C -190.35443 2687.3376 -190.5138 2687.6138 -190.5138 2687.9127 L -190.5138 2696.389 C -190.5138 2696.6878 -190.35443 2696.964 -190.09555 2697.1135 L -182.755 2701.3518 C -182.49612 2701.5012 -182.17708 2701.5012 -181.9182 2701.3518 L -174.57765 2697.1135 C -174.31876 2696.964 -174.1594 2696.6878 -174.1594 2696.389 L -174.1594 2687.9127 C -174.1594 2687.6138 -174.31876 2687.3376 -174.57765 2687.188 M -175.58466 2695.578 L -178.1456 2694.0993 L -178.1456 2690.2042 L -181.9275 2692.387 L -181.9275 2696.7554 L -178.55455 2694.808 L -175.9936 2696.2866 L -182.33675 2699.949 L -188.6799 2696.2866 L -186.11895 2694.808 L -182.7457 2696.7554 L -182.7457 2692.387 L -186.52759 2690.2042 L -186.52759 2694.0993 L -189.08853 2695.578 L -189.08853 2688.2534 L -182.74539 2684.5912 L -182.74539 2687.5484 L -186.11864 2689.4958 L -182.33675 2691.6785 L -178.55486 2689.4958 L -181.9278 2687.5484 L -181.9278 2684.5912 L -175.58466 2688.2534 L -175.58466 2695.578" fill="white"/>
        </g>
      </g>
      <g id="Group_293">
        <g id="Graphic_295">
          <path d="M -512.2682 3018.738 L -520.4068 3004.6403 C -521.0436 3003.537 -521.0436 3002.1782 -520.4068 3001.075 L -512.2682 2986.9775 C -511.63137 2985.8744 -510.45445 2985.1947 -509.1805 2985.1947 L -492.9033 2985.1947 C -491.62964 2985.1947 -490.4527 2985.8744 -489.8156 2986.9775 L -481.677 3001.075 C -481.04016 3002.1782 -481.04016 3003.537 -481.677 3004.6403 L -489.8156 3018.738 C -490.4524 3019.841 -491.62933 3020.5203 -492.9033 3020.5203 L -509.1805 3020.5203 C -510.45414 3020.5203 -511.63106 3019.8407 -512.2679 3018.738" fill="url(#Obj_Gradient_3)"/>
        </g>
        <g id="Graphic_294">
          <path d="M -493.28154 2997.8947 L -500.6221 2993.6564 C -500.881 2993.507 -501.2 2993.507 -501.4589 2993.6564 L -508.79945 2997.8947 C -509.05833 2998.044 -509.2177 2998.3204 -509.2177 2998.6192 L -509.2177 3007.0955 C -509.2177 3007.3944 -509.05833 3007.6706 -508.79945 3007.82 L -501.4589 3012.0583 C -501.2 3012.2078 -500.881 3012.2078 -500.6221 3012.0583 L -493.28154 3007.82 C -493.02266 3007.6706 -492.8633 3007.3944 -492.8633 3007.0955 L -492.8633 2998.6192 C -492.8633 2998.3204 -493.02266 2998.044 -493.28154 2997.8947 M -494.28856 3006.2844 L -496.8495 3004.8058 L -496.8495 3000.9108 L -500.6314 3003.0935 L -500.6314 3007.462 L -497.25845 3005.5146 L -494.6975 3006.993 L -501.04065 3010.6554 L -507.3838 3006.993 L -504.82285 3005.5146 L -501.4496 3007.462 L -501.4496 3003.0935 L -505.2315 3000.9108 L -505.2315 3004.8058 L -507.79243 3006.2844 L -507.79243 2998.96 L -501.4493 2995.2978 L -501.4493 2998.255 L -504.82254 3000.2023 L -501.04065 3002.385 L -497.25876 3000.2023 L -500.6317 2998.255 L -500.6317 2995.2978 L -494.28856 2998.96 L -494.28856 3006.2844" fill="white"/>
        </g>
      </g>
      <g id="Graphic_292">
        <text transform="translate(-869.4882 2825.648)" fill="black">
          <tspan font-family="Helvetica Neue" font-size="16" fill="black" x="58264504e-20" y="15">gke-jimmy-us-west1-1.tsb.local</tspan>
        </text>
      </g>
      <g id="Graphic_291">
        <text transform="translate(-169.3307 2825.648)" fill="black">
          <tspan font-family="Helvetica Neue" font-size="16" fill="black" x="58264504e-20" y="15">gke-jimmy-us-west2-3.tsb.local</tspan>
        </text>
      </g>
      <g id="Graphic_290">
        <text transform="translate(-515.8844 3176.9685)" fill="black">
          <tspan font-family="Helvetica Neue" font-size="16" fill="black" x="58264504e-20" y="15">gke-jimmy-us-west1-2.tsb.local</tspan>
        </text>
      </g>
      <g id="Graphic_289">
        <path d="M -64.283465 2769.5366 L 9.278978 2769.5366 C 13.697256 2769.5366 17.278978 2773.1184 17.278978 2777.5366 L 17.278978 2801.2217 C 17.278978 2805.64 13.697256 2809.2217 9.278978 2809.2217 L -64.283465 2809.2217 C -68.70174 2809.2217 -72.283465 2805.64 -72.283465 2801.2217 L -72.283465 2777.5366 C -72.283465 2773.1184 -68.70174 2769.5366 -64.283465 2769.5366 Z" fill="#333"/>
        <text transform="translate(-67.283465 2779.647)" fill="white">
          <tspan font-family="Helvetica Neue" font-size="16" fill="white" x="13.565223" y="16">httpbin</tspan>
        </text>
      </g>
      <g id="Graphic_288">
        <path d="M -503.7874 3093.687 L -451.7559 3093.687 C -447.33763 3093.687 -443.7559 3097.2686 -443.7559 3101.687 L -443.7559 3125.372 C -443.7559 3129.79 -447.33763 3133.372 -451.7559 3133.372 L -503.7874 3133.372 C -508.2057 3133.372 -511.7874 3129.79 -511.7874 3125.372 L -511.7874 3101.687 C -511.7874 3097.2686 -508.2057 3093.687 -503.7874 3093.687 Z" fill="#333"/>
        <text transform="translate(-506.7874 3103.7973)" fill="white">
          <tspan font-family="Helvetica Neue" font-size="16" fill="white" x=".991749" y="16">reviews</tspan>
        </text>
      </g>
      <g id="Graphic_287">
        <path d="M -430.7953 3093.687 L -378.7638 3093.687 C -374.3455 3093.687 -370.7638 3097.2686 -370.7638 3101.687 L -370.7638 3125.372 C -370.7638 3129.79 -374.3455 3133.372 -378.7638 3133.372 L -430.7953 3133.372 C -435.21355 3133.372 -438.7953 3129.79 -438.7953 3125.372 L -438.7953 3101.687 C -438.7953 3097.2686 -435.21355 3093.687 -430.7953 3093.687 Z" fill="#333"/>
        <text transform="translate(-433.7953 3103.7973)" fill="white">
          <tspan font-family="Helvetica Neue" font-size="16" fill="white" x="4.559749" y="16">details</tspan>
        </text>
      </g>
      <g id="Graphic_286">
        <path d="M -357.80315 3093.687 L -305.77165 3093.687 C -301.35338 3093.687 -297.77165 3097.2686 -297.77165 3101.687 L -297.77165 3125.372 C -297.77165 3129.79 -301.35338 3133.372 -305.77165 3133.372 L -357.80315 3133.372 C -362.22143 3133.372 -365.80315 3129.79 -365.80315 3125.372 L -365.80315 3101.687 C -365.80315 3097.2686 -362.22143 3093.687 -357.80315 3093.687 Z" fill="#333"/>
        <text transform="translate(-360.80315 3103.7973)" fill="white">
          <tspan font-family="Helvetica Neue" font-size="16" fill="white" x="3.671749" y="16">ratings</tspan>
        </text>
      </g>
      <g id="Graphic_285">
        <path d="M -777.7492 2769.5366 L -688.8673 2769.5366 C -684.44905 2769.5366 -680.8673 2773.1184 -680.8673 2777.5366 L -680.8673 2801.2217 C -680.8673 2805.64 -684.44905 2809.2217 -688.8673 2809.2217 L -777.7492 2809.2217 C -782.1675 2809.2217 -785.7492 2805.64 -785.7492 2801.2217 L -785.7492 2777.5366 C -785.7492 2773.1184 -782.1675 2769.5366 -777.7492 2769.5366 Z" fill="#333"/>
        <text transform="translate(-780.7492 2779.647)" fill="white">
          <tspan font-family="Helvetica Neue" font-size="16" fill="white" x=".016944672" y="16">productpage</tspan>
        </text>
      </g>
      <g id="Group_282">
        <g id="Graphic_284">
          <path d="M -116.47244 2769.5366 L -84.7874 2769.5366 C -82.57826 2769.5366 -80.7874 2771.3275 -80.7874 2773.5366 L -80.7874 2805.2217 C -80.7874 2807.4308 -82.57826 2809.2217 -84.7874 2809.2217 L -116.47244 2809.2217 C -118.68158 2809.2217 -120.47244 2807.4308 -120.47244 2805.2217 L -120.47244 2773.5366 C -120.47244 2771.3275 -118.68158 2769.5366 -116.47244 2769.5366 Z" fill="#f15623"/>
        </g>
        <g id="Graphic_283">
          <path d="M -103.54249 2804.3683 C -105.91537 2801.9863 -106.26522 2801.608 -106.30558 2801.3814 C -106.44605 2800.5924 -105.7824 2799.959 -104.97398 2800.1108 C -104.75415 2800.152 -104.49053 2800.3813 -103.27152 2801.5915 L -101.82917 2803.0234 L -101.82917 2794.7235 L -101.82917 2786.4235 L -105.92935 2790.523 L -110.02953 2794.6227 L -108.0661 2794.6574 C -106.14282 2794.6914 -106.09718 2794.6955 -105.83389 2794.8592 C -105.55092 2795.035 -105.30662 2795.4567 -105.30662 2795.7692 C -105.30662 2796.0816 -105.55092 2796.5033 -105.83389 2796.679 L -106.10267 2796.8462 L -109.9245 2796.8462 L -113.74633 2796.8462 L -113.74633 2792.9774 C -113.74633 2789.1782 -113.7438 2789.105 -113.60307 2788.9166 C -113.33327 2788.5553 -113.1077 2788.4382 -112.68155 2788.4382 C -112.38478 2788.4382 -112.23328 2788.4766 -112.06982 2788.5932 C -111.64714 2788.8947 -111.62695 2789.0132 -111.62695 2791.1933 L -111.62695 2793.163 L -106.72806 2788.2645 L -101.82917 2783.366 L -101.82917 2780.8096 L -101.82917 2778.2533 L -102.1245 2778.1258 C -102.6969 2777.8787 -103.34504 2777.2994 -103.68669 2776.7295 C -104.14881 2775.9587 -104.25987 2774.7998 -103.95452 2773.9347 C -103.26499 2771.981 -100.97433 2771.0848 -99.16001 2772.0587 C -98.69732 2772.307 -97.99042 2773.017 -97.76725 2773.4574 C -96.9135 2775.1422 -97.53805 2777.143 -99.18846 2778.01 L -99.67505 2778.2658 L -99.67505 2780.816 L -99.67505 2783.366 L -94.67192 2788.3687 L -89.6688 2793.3715 L -89.6688 2791.2965 C -89.6688 2789.3118 -89.66242 2789.21 -89.52163 2788.9597 C -89.22893 2788.439 -88.53044 2788.248 -88.06514 2788.5615 C -87.93618 2788.6484 -87.75932 2788.8254 -87.6721 2788.9548 L -87.51351 2789.19 L -87.53148 2793.0182 L -87.54945 2796.8462 L -91.12807 2796.8665 C -93.09632 2796.8777 -94.84203 2796.8676 -95.00743 2796.844 C -95.21571 2796.8145 -95.39176 2796.726 -95.58005 2796.5557 C -96.18308 2796.011 -96.06384 2795.2797 -95.27977 2794.7145 C -95.27031 2794.7077 -94.41032 2794.6842 -93.36864 2794.6624 L -91.47469 2794.6226 L -95.57488 2790.523 L -99.67508 2786.4235 L -99.67508 2794.6917 L -99.67508 2802.96 L -98.30269 2801.5915 C -97.54788 2800.839 -96.84228 2800.1903 -96.73469 2800.1503 C -96.26659 2799.976 -95.73857 2800.1462 -95.45369 2800.5638 C -95.26129 2800.8457 -95.23932 2801.418 -95.41097 2801.6776 C -95.53359 2801.863 -100.72713 2807.0957 -100.78857 2807.0957 C -100.80897 2807.0957 -102.04825 2805.8684 -103.54254 2804.3683 Z" fill="white"/>
        </g>
      </g>
      <g id="Group_279">
        <g id="Graphic_281">
          <path d="M -327.65355 3003.529 L -295.9685 3003.529 C -293.75937 3003.529 -291.9685 3005.32 -291.9685 3007.529 L -291.9685 3039.2142 C -291.9685 3041.4233 -293.75937 3043.2142 -295.9685 3043.2142 L -327.65355 3043.2142 C -329.8627 3043.2142 -331.65355 3041.4233 -331.65355 3039.2142 L -331.65355 3007.529 C -331.65355 3005.32 -329.8627 3003.529 -327.65355 3003.529 Z" fill="#f15623"/>
        </g>
        <g id="Graphic_280">
          <path d="M -314.7236 3038.3608 C -317.09648 3035.9788 -317.44633 3035.6006 -317.4867 3035.374 C -317.62716 3034.585 -316.9635 3033.9516 -316.15508 3034.1033 C -315.93526 3034.1445 -315.67164 3034.3738 -314.45263 3035.584 L -313.01027 3037.016 L -313.01027 3028.716 L -313.01027 3020.416 L -317.11046 3024.5156 L -321.21063 3028.615 L -319.2472 3028.65 C -317.32392 3028.684 -317.2783 3028.688 -317.015 3028.8517 C -316.73203 3029.0276 -316.48772 3029.4492 -316.48772 3029.7617 C -316.48772 3030.074 -316.73203 3030.4958 -317.015 3030.6717 L -317.28378 3030.8387 L -321.1056 3030.8387 L -324.92744 3030.8387 L -324.92744 3026.97 C -324.92744 3023.1707 -324.9249 3023.0975 -324.78417 3022.909 C -324.51437 3022.5478 -324.2888 3022.4307 -323.86265 3022.4307 C -323.5659 3022.4307 -323.4144 3022.469 -323.25093 3022.5857 C -322.82824 3022.8872 -322.80806 3023.0057 -322.80806 3025.1858 L -322.80806 3027.1555 L -317.90917 3022.257 L -313.01027 3017.3585 L -313.01027 3014.802 L -313.01027 3012.2458 L -313.3056 3012.1183 C -313.878 3011.8712 -314.52615 3011.292 -314.8678 3010.722 C -315.3299 3009.9512 -315.44097 3008.7923 -315.13562 3007.9272 C -314.4461 3005.9736 -312.15543 3005.0773 -310.3411 3006.0512 C -309.87842 3006.2996 -309.17153 3007.0095 -308.94835 3007.45 C -308.0946 3009.1347 -308.71915 3011.1354 -310.36957 3012.0026 L -310.85615 3012.2583 L -310.85615 3014.8084 L -310.85615 3017.3585 L -305.85303 3022.3612 L -300.8499 3027.364 L -300.8499 3025.289 C -300.8499 3023.3043 -300.84353 3023.2026 -300.70273 3022.952 C -300.41003 3022.4314 -299.71154 3022.2404 -299.24624 3022.554 C -299.1173 3022.641 -298.94042 3022.818 -298.8532 3022.9473 L -298.6946 3023.1826 L -298.7126 3027.0107 L -298.73056 3030.8387 L -302.30918 3030.859 C -304.27742 3030.8702 -306.02313 3030.86 -306.18854 3030.8366 C -306.3968 3030.807 -306.57286 3030.7183 -306.76115 3030.5482 C -307.3642 3030.0034 -307.24495 3029.2722 -306.46088 3028.707 C -306.4514 3028.7002 -305.59142 3028.6767 -304.54975 3028.655 L -302.6558 3028.615 L -306.756 3024.5156 L -310.85618 3020.416 L -310.85618 3028.6842 L -310.85618 3036.9524 L -309.4838 3035.584 C -308.729 3034.8314 -308.0234 3034.1828 -307.9158 3034.1428 C -307.4477 3033.9685 -306.91968 3034.1387 -306.6348 3034.5563 C -306.4424 3034.8382 -306.42043 3035.4105 -306.59207 3035.67 C -306.7147 3035.8555 -311.90823 3041.0882 -311.96967 3041.0882 C -311.99007 3041.0882 -313.22936 3039.861 -314.72364 3038.3608 Z" fill="white"/>
        </g>
      </g>
      <g id="Group_276">
        <g id="Graphic_278">
          <path d="M -827.9685 2769.5366 L -796.2835 2769.5366 C -794.0743 2769.5366 -792.2835 2771.3275 -792.2835 2773.5366 L -792.2835 2805.2217 C -792.2835 2807.4308 -794.0743 2809.2217 -796.2835 2809.2217 L -827.9685 2809.2217 C -830.17765 2809.2217 -831.9685 2807.4308 -831.9685 2805.2217 L -831.9685 2773.5366 C -831.9685 2771.3275 -830.17765 2769.5366 -827.9685 2769.5366 Z" fill="#f15623"/>
        </g>
        <g id="Graphic_277">
          <path d="M -815.0386 2804.3683 C -817.4114 2801.9863 -817.7613 2801.608 -817.80165 2801.3814 C -817.9421 2800.5924 -817.2785 2799.959 -816.47 2800.1108 C -816.2502 2800.152 -815.9866 2800.3813 -814.7676 2801.5915 L -813.3252 2803.0234 L -813.3252 2794.7235 L -813.3252 2786.4235 L -817.4254 2790.523 L -821.5256 2794.6227 L -819.5622 2794.6574 C -817.6389 2794.6914 -817.5932 2794.6955 -817.33 2794.8592 C -817.047 2795.035 -816.8027 2795.4567 -816.8027 2795.7692 C -816.8027 2796.0816 -817.047 2796.5033 -817.33 2796.679 L -817.5987 2796.8462 L -821.4206 2796.8462 L -825.2424 2796.8462 L -825.2424 2792.9774 C -825.2424 2789.1782 -825.2399 2789.105 -825.0991 2788.9166 C -824.8293 2788.5553 -824.6038 2788.4382 -824.1776 2788.4382 C -823.8809 2788.4382 -823.72935 2788.4766 -823.5659 2788.5932 C -823.1432 2788.8947 -823.123 2789.0132 -823.123 2791.1933 L -823.123 2793.163 L -818.2241 2788.2645 L -813.3252 2783.366 L -813.3252 2780.8096 L -813.3252 2778.2533 L -813.6206 2778.1258 C -814.193 2777.8787 -814.8411 2777.2994 -815.1828 2776.7295 C -815.6449 2775.9587 -815.7559 2774.7998 -815.4506 2773.9347 C -814.7611 2771.981 -812.4704 2771.0848 -810.6561 2772.0587 C -810.1934 2772.307 -809.4865 2773.017 -809.2633 2773.4574 C -808.4096 2775.1422 -809.0341 2777.143 -810.6845 2778.01 L -811.1711 2778.2658 L -811.1711 2780.816 L -811.1711 2783.366 L -806.168 2788.3687 L -801.1649 2793.3715 L -801.1649 2791.2965 C -801.1649 2789.3118 -801.1585 2789.21 -801.0177 2788.9597 C -800.725 2788.439 -800.0265 2788.248 -799.5612 2788.5615 C -799.43225 2788.6484 -799.2554 2788.8254 -799.1682 2788.9548 L -799.0096 2789.19 L -799.02755 2793.0182 L -799.0455 2796.8462 L -802.6241 2796.8665 C -804.5924 2796.8777 -806.3381 2796.8676 -806.5035 2796.844 C -806.7118 2796.8145 -806.8878 2796.726 -807.0761 2796.5557 C -807.67915 2796.011 -807.5599 2795.2797 -806.7758 2794.7145 C -806.7664 2794.7077 -805.9064 2794.6842 -804.8647 2794.6624 L -802.9708 2794.6226 L -807.071 2790.523 L -811.1711 2786.4235 L -811.1711 2794.6917 L -811.1711 2802.96 L -809.7988 2801.5915 C -809.044 2800.839 -808.3384 2800.1903 -808.2308 2800.1503 C -807.7627 2799.976 -807.2346 2800.1462 -806.9498 2800.5638 C -806.7574 2800.8457 -806.7354 2801.418 -806.907 2801.6776 C -807.0297 2801.863 -812.2232 2807.0957 -812.2846 2807.0957 C -812.305 2807.0957 -813.5443 2805.8684 -815.0386 2804.3683 Z" fill="white"/>
        </g>
      </g>
      <g id="Graphic_275">
        <path d="M -460.55906 2428.9488 L -349 2428.9488 C -344.58172 2428.9488 -341 2432.5306 -341 2436.9488 L -341 2460.634 C -341 2465.0522 -344.58172 2468.634 -349 2468.634 L -460.55906 2468.634 C -464.97733 2468.634 -468.55906 2465.0522 -468.55906 2460.634 L -468.55906 2436.9488 C -468.55906 2432.5306 -464.97733 2428.9488 -460.55906 2428.9488 Z" fill="#f15623"/>
        <text transform="translate(-463.55906 2439.0593)" fill="white">
          <tspan font-family="Helvetica Neue" font-weight="bold" font-size="16" fill="white" x="3.6755296" y="16">Edge Gateway</tspan>
        </text>
      </g>
      <g id="Line_274">
        <path d="M -468.55906 2456.3533 C -568.2708 2469.9907 -758.0982 2503.6746 -839.6907 2570.103 C -934.5993 2647.373 -845.6542 2738.492 -814.3835 2765.958" marker-end="url(#FilledArrow_Marker_3)" stroke="#1d2dc2" stroke-linecap="round" stroke-linejoin="round" stroke-width="2"/>
      </g>
      <g id="Line_273">
        <path d="M -680.8673 2796.4968 C -585.5036 2810.396 -385.31375 2844.186 -296.03952 2893.746 C -216.2502 2938.0408 -250.1302 2981.0153 -281.39904 3004.6577" marker-end="url(#FilledArrow_Marker_3)" stroke="#1d2dc2" stroke-linecap="round" stroke-linejoin="round" stroke-width="2"/>
      </g>
      <g id="Graphic_272">
        <title>Account Box</title>
        <path d="M -211.25138 2429.8307 L -211.25138 2467.752 C -211.25138 2470.7315 -208.84067 2473.1693 -205.83406 2473.1693 L -167.9128 2473.1693 C -164.93327 2473.1693 -162.49547 2470.7315 -162.49547 2467.752 L -162.49547 2429.8307 C -162.49547 2426.8512 -164.93327 2424.4134 -167.9128 2424.4134 L -205.83406 2424.4134 C -208.84067 2424.4134 -211.25138 2426.8512 -211.25138 2429.8307 Z M -178.74744 2440.6654 C -178.74744 2445.1618 -182.37705 2448.7914 -186.87343 2448.7914 C -191.3698 2448.7914 -194.99941 2445.1618 -194.99941 2440.6654 C -194.99941 2436.169 -191.3698 2432.5394 -186.87343 2432.5394 C -182.37705 2432.5394 -178.74744 2436.169 -178.74744 2440.6654 Z M -203.1254 2462.3347 C -203.1254 2456.9173 -192.29075 2453.9378 -186.87343 2453.9378 C -181.4561 2453.9378 -170.62146 2456.9173 -170.62146 2462.3347 L -170.62146 2465.0433 L -203.1254 2465.0433 L -203.1254 2462.3347 Z" fill="black"/>
      </g>
      <g id="Line_271">
        <line x1="-211.25138" y1="2448.7914" x2="-328.1" y2="2448.7914" marker-end="url(#FilledArrow_Marker_3)" stroke="#1d2dc2" stroke-linecap="round" stroke-linejoin="round" stroke-width="2"/>
      </g>
      <g id="Line_270">
        <path d="M -468.55906 2459.635 C -545.3894 2475.922 -657.2377 2512.056 -598.3871 2577.957 C -526.9057 2658.002 -231.4742 2750.7385 -132.84807 2780.024" marker-end="url(#FilledArrow_Marker_3)" stroke="#1d2dc2" stroke-linecap="round" stroke-linejoin="round" stroke-width="2"/>
      </g>
      <g id="Graphic_269">
        <text transform="translate(-204.80143 2478.1693)" fill="black">
          <tspan font-family="Helvetica Neue" font-weight="bold" font-size="16" fill="black" x="0" y="16">User</tspan>
        </text>
      </g>
      <g id="Group_266">
        <g id="Graphic_268">
          <path d="M -499.6279 2433.0707 L -507.7665 2418.973 C -508.4033 2417.87 -508.4033 2416.511 -507.7665 2415.408 L -499.6279 2401.3103 C -498.99105 2400.2072 -497.81414 2399.5276 -496.5402 2399.5276 L -480.263 2399.5276 C -478.9893 2399.5276 -477.8124 2400.2072 -477.1753 2401.3103 L -469.0367 2415.408 C -468.39985 2416.511 -468.39985 2417.87 -469.0367 2418.973 L -477.1753 2433.0707 C -477.8121 2434.1738 -478.989 2434.853 -480.263 2434.853 L -496.5402 2434.853 C -497.8138 2434.853 -498.99074 2434.1735 -499.62757 2433.0707" fill="url(#Obj_Gradient_4)"/>
        </g>
        <g id="Graphic_267">
          <path d="M -480.64123 2412.2275 L -487.9818 2407.9892 C -488.24066 2407.8398 -488.5597 2407.8398 -488.8186 2407.9892 L -496.15913 2412.2275 C -496.418 2412.377 -496.5774 2412.6532 -496.5774 2412.952 L -496.5774 2421.4283 C -496.5774 2421.7272 -496.418 2422.0034 -496.15913 2422.153 L -488.8186 2426.3912 C -488.5597 2426.5406 -488.24066 2426.5406 -487.9818 2426.3912 L -480.64123 2422.153 C -480.38235 2422.0034 -480.223 2421.7272 -480.223 2421.4283 L -480.223 2412.952 C -480.223 2412.6532 -480.38235 2412.377 -480.64123 2412.2275 M -481.64825 2420.6172 L -484.2092 2419.1387 L -484.2092 2415.2436 L -487.9911 2417.4263 L -487.9911 2421.7948 L -484.61814 2419.8474 L -482.0572 2421.326 L -488.40034 2424.9882 L -494.7435 2421.326 L -492.18254 2419.8474 L -488.8093 2421.7948 L -488.8093 2417.4263 L -492.5912 2415.2436 L -492.5912 2419.1387 L -495.1521 2420.6172 L -495.1521 2413.2928 L -488.809 2409.6306 L -488.809 2412.5878 L -492.1822 2414.5352 L -488.40034 2416.7178 L -484.61845 2414.5352 L -487.9914 2412.5878 L -487.9914 2409.6306 L -481.64825 2413.2928 L -481.64825 2420.6172" fill="white"/>
        </g>
      </g>
      <g id="Graphic_319">
        <rect x="-324.72005" y="2596.218" width="140.992" height="28.447998" fill="white"/>
        <text transform="translate(-319.72005 2601.218)" fill="black">
          <tspan font-family="Helvetica Neue" font-style="italic" font-size="16" fill="black" x="0" y="15">Exchange bundles</tspan>
        </text>
      </g>
      <g id="Graphic_320">
        <rect x="-601.6301" y="2893.667" width="140.992" height="28.447998" fill="white"/>
        <text transform="translate(-596.6301 2898.667)" fill="black">
          <tspan font-family="Helvetica Neue" font-style="italic" font-size="16" fill="black" x="0" y="15">Exchange bundles</tspan>
        </text>
      </g>
      <g id="Line_321">
        <line x1="-404.77953" y1="2536.8095" x2="-404.77953" y2="2985.8398" marker-end="url(#FilledArrow_Marker)" marker-start="url(#FilledArrow_Marker_2)" stroke="black" stroke-linecap="round" stroke-linejoin="round" stroke-dasharray="8.0,8.0" stroke-width="2"/>
      </g>
      <g id="Graphic_322">
        <path d="M -445.5433 3051.0027 L -356.6614 3051.0027 C -352.24314 3051.0027 -348.6614 3054.5844 -348.6614 3059.0027 L -348.6614 3082.6877 C -348.6614 3087.106 -352.24314 3090.6877 -356.6614 3090.6877 L -445.5433 3090.6877 C -449.9616 3090.6877 -453.5433 3087.106 -453.5433 3082.6877 L -453.5433 3059.0027 C -453.5433 3054.5844 -449.9616 3051.0027 -445.5433 3051.0027 Z" fill="#333"/>
        <text transform="translate(-448.5433 3061.113)" fill="white">
          <tspan font-family="Helvetica Neue" font-size="16" fill="white" x=".016944672" y="16">productpage</tspan>
        </text>
      </g>
      <g id="Graphic_323">
        <rect x="-475.2755" y="2758.9198" width="140.992" height="28.447998" fill="white"/>
        <text transform="translate(-470.2755 2763.9198)" fill="black">
          <tspan font-family="Helvetica Neue" font-style="italic" font-size="16" fill="black" x="0" y="15">Exchange bundles</tspan>
        </text>
      </g>
      <g id="Line_324">
        <path d="M -468.4806 2461.7586 C -532.7808 2480.6234 -620.1526 2525.2052 -601.6301 2626.6304 C -576.2267 2765.734 -362.21112 2953.8625 -313.36886 2995.2555" marker-end="url(#FilledArrow_Marker_3)" stroke="#1d2dc2" stroke-linecap="round" stroke-linejoin="round" stroke-width="2"/>
      </g>
      <g id="Line_326">
        <line x1="-368.30605" y1="2990.037" x2="-124.06285" y2="2766.813" marker-end="url(#FilledArrow_Marker)" marker-start="url(#FilledArrow_Marker_2)" stroke="black" stroke-linecap="round" stroke-linejoin="round" stroke-dasharray="8.0,8.0" stroke-width="2"/>
      </g>
      <g id="Graphic_327">
        <rect x="-305.06708" y="2853.587" width="140.992" height="28.447998" fill="white"/>
        <text transform="translate(-300.06708 2858.587)" fill="black">
          <tspan font-family="Helvetica Neue" font-style="italic" font-size="16" fill="black" x="0" y="15">Exchange bundles</tspan>
        </text>
      </g>
    </g>
  </g>
</svg>
