<?xml version="1.0" encoding="UTF-8"?>
<svg width="720px" height="576px" viewBox="0 0 720 576" version="1.1" xmlns="http://www.w3.org/2000/svg" xmlns:xlink="http://www.w3.org/1999/xlink">
    <title>istio-data-plane-deployment-modes</title>
    <g id="Page-1" stroke="none" stroke-width="1" fill="none" fill-rule="evenodd">
        <g id="istio-data-plane-deployment-modes">
            <g id="patch_1" opacity="0" fill="#FFFFFF" fill-rule="nonzero">
                <polygon id="Path" points="0 576 720 576 720 0 0 0"></polygon>
            </g>
            <g id="axes_1" transform="translate(52.321874, 51.054545)">
                <g id="PathCollection_1" transform="translate(211.405398, 86.018182)" fill="#1F77B4" fill-rule="nonzero" stroke="#1F77B4">
                    <g id="madc642e199-link">
                        <path d="M6,12 C7.591218,12 9.11748,11.367802 10.24264,10.24264 C11.367802,9.11748 12,7.591218 12,6 C12,4.408782 11.367802,2.88252 10.24264,1.75736 C9.11748,0.632198 7.591218,0 6,0 C4.408782,0 2.88252,0.632198 1.75736,1.75736 C0.632198,2.88252 0,4.408782 0,6 C0,7.591218 0.632198,9.11748 1.75736,10.24264 C2.88252,11.367802 4.408782,12 6,12 Z" id="madc642e199"></path>
                    </g>
                </g>
                <g id="PathCollection_2" transform="translate(396.859944, 197.290910)" fill="#FF7F0E" fill-rule="nonzero" stroke="#FF7F0E">
                    <g id="m07535aa390-link">
                        <path d="M6,12 C7.591218,12 9.11748,11.367802 10.24264,10.24264 C11.367802,9.11748 12,7.591218 12,6 C12,4.408782 11.367802,2.88252 10.24264,1.75736 C9.11748,0.632198 7.591218,0 6,0 C4.408782,0 2.88252,0.632198 1.75736,1.75736 C0.632198,2.88252 0,4.408782 0,6 C0,7.591218 0.632198,9.11748 1.75736,10.24264 C2.88252,11.367802 4.408782,12 6,12 Z" id="m07535aa390"></path>
                    </g>
                </g>
                <g id="PathCollection_3" transform="translate(304.132671, 308.563637)" fill="#2CA02C" fill-rule="nonzero" stroke="#2CA02C">
                    <g id="mffd6c9aed8-link">
                        <path d="M6,12 C7.591218,12 9.11748,11.367802 10.24264,10.24264 C11.367802,9.11748 12,7.591218 12,6 C12,4.408782 11.367802,2.88252 10.24264,1.75736 C9.11748,0.632198 7.591218,0 6,0 C4.408782,0 2.88252,0.632198 1.75736,1.75736 C0.632198,2.88252 0,4.408782 0,6 C0,7.591218 0.632198,9.11748 1.75736,10.24264 C2.88252,11.367802 4.408782,12 6,12 Z" id="mffd6c9aed8"></path>
                    </g>
                </g>
                <g id="PathCollection_4" transform="translate(489.587217, 123.109091)" fill="#D62728" fill-rule="nonzero" stroke="#D62728">
                    <g id="m741ef1d011-link">
                        <path d="M6,12 C7.591218,12 9.11748,11.367802 10.24264,10.24264 C11.367802,9.11748 12,7.591218 12,6 C12,4.408782 11.367802,2.88252 10.24264,1.75736 C9.11748,0.632198 7.591218,0 6,0 C4.408782,0 2.88252,0.632198 1.75736,1.75736 C0.632198,2.88252 0,4.408782 0,6 C0,7.591218 0.632198,9.11748 1.75736,10.24264 C2.88252,11.367802 4.408782,12 6,12 Z" id="m741ef1d011"></path>
                    </g>
                </g>
                <g id="patch_2" transform="translate(28.950853, 454.363637)" fill="#000000" fill-rule="nonzero" stroke="#000000">
                    <polygon id="Path" points="574.909091 5.563636 556.363637 11.127273 556.363637 5.600727 -2.84217094e-14 5.600727 -2.84217094e-14 5.526545 556.363637 5.526545 556.363637 0"></polygon>
                </g>
                <g id="patch_3" transform="translate(21.996308, 0.000000)" fill="#000000" fill-rule="nonzero" stroke="#000000">
                    <polygon id="Path" points="6.954545 3.55271368e-14 13.909091 14.836364 7.000909 14.836364 7.000909 459.927273 6.908182 459.927273 6.908182 14.836364 -1.42108547e-14 14.836364"></polygon>
                </g>
                <g id="matplotlib.axis_1" transform="translate(233.496875, 477.345456)">
                    <g id="Group" transform="translate(97.938489, 8.000000) scale(-1, 1) rotate(-180.000000) translate(-97.938489, -8.000000) translate(0.000000, 0.000000)">
                        <g id="DejaVuSans-45-link" transform="translate(0.000000, 3.438166)" fill="#000000" fill-rule="nonzero">
                            <polygon id="DejaVuSans-45" points="0 12.0529545 7.62027769 12.0529545 7.62027769 10.6787213 1.62996448 10.6787213 1.62996448 7.11139813 7.36971263 7.11139813 7.36971263 5.73974814 1.62996448 5.73974814 1.62996448 1.37164998 7.76493381 1.37164998 7.76493381 0 0 0"></polygon>
                        </g>
                        <g id="DejaVuSans-66-link" transform="translate(9.203100, 3.438166)" fill="#000000" fill-rule="nonzero">
                            <path d="M5.75524701,12.561834 L5.75524701,11.3245076 L4.33451727,11.3245076 C3.80238941,11.3245076 3.43213863,11.2168765 3.22376493,11.0016145 C3.01711334,10.7863524 2.91378754,10.3988806 2.91378754,9.83919923 L2.91378754,9.04100743 L5.36002583,9.04100743 L5.36002583,7.88634162 L2.91378754,7.88634162 L2.91378754,0 L1.42072974,0 L1.42072974,7.88634162 L0,7.88634162 L0,9.04100743 L1.42072974,9.04100743 L1.42072974,9.6712948 C1.42072974,10.6769992 1.65493488,11.4097514 2.12334517,11.8695512 C2.59175546,12.3310731 3.33397912,12.561834 4.35001614,12.561834 L5.75524701,12.561834 Z" id="DejaVuSans-66"></path>
                        </g>
                        <g id="DejaVuSans-66-link" transform="translate(15.023248, 3.438166)" fill="#000000" fill-rule="nonzero">
                            <path d="M5.75524701,12.561834 L5.75524701,11.3245076 L4.33451727,11.3245076 C3.80238941,11.3245076 3.43213863,11.2168765 3.22376493,11.0016145 C3.01711334,10.7863524 2.91378754,10.3988806 2.91378754,9.83919923 L2.91378754,9.04100743 L5.36002583,9.04100743 L5.36002583,7.88634162 L2.91378754,7.88634162 L2.91378754,0 L1.42072974,0 L1.42072974,7.88634162 L0,7.88634162 L0,9.04100743 L1.42072974,9.04100743 L1.42072974,9.6712948 C1.42072974,10.6769992 1.65493488,11.4097514 2.12334517,11.8695512 C2.59175546,12.3310731 3.33397912,12.561834 4.35001614,12.561834 L5.75524701,12.561834 Z" id="DejaVuSans-66"></path>
                        </g>
                        <g id="DejaVuSans-69-link" transform="translate(22.021311, 3.438166)" fill="#000000" fill-rule="nonzero">
                            <path d="M0,9.04100743 L1.48530836,9.04100743 L1.48530836,0 L0,0 L0,9.04100743 Z M0,12.561834 L1.48530836,12.561834 L1.48530836,10.6787213 L0,10.6787213 L0,12.561834 Z" id="DejaVuSans-69"></path>
                        </g>
                        <g id="DejaVuSans-63-link" transform="translate(25.968679, 3.203100)" fill="#000000" fill-rule="nonzero">
                            <path d="M7.15272845,8.92993219 L7.15272845,7.54020019 C6.73253686,7.77268324 6.31148423,7.946615 5.88957055,8.06199548 C5.46765687,8.17737596 5.04143795,8.23506619 4.61091379,8.23506619 C3.64653966,8.23506619 2.89742762,7.92939404 2.36357766,7.31804973 C1.83144979,6.70842751 1.56538586,5.85168443 1.56538586,4.74782047 C1.56538586,3.64395652 1.83144979,2.78635238 2.36357766,2.17500807 C2.89742762,1.56538586 3.64653966,1.26057475 4.61091379,1.26057475 C5.04143795,1.26057475 5.46765687,1.31826499 5.88957055,1.43364546 C6.31148423,1.54902594 6.73253686,1.7229577 7.15272845,1.95544075 L7.15272845,0.58120762 C6.73770315,0.388332795 6.30804004,0.243676676 5.8637391,0.147239264 C5.42116026,0.0490797546 4.94930578,0 4.44817565,0 C3.0859972,0 2.00365946,0.427941018 1.20116242,1.28382305 C0.400387472,2.13970509 0,3.2943709 0,4.74782047 C0,6.22193521 0.404692713,7.38090625 1.21407814,8.22473361 C2.02518566,9.07028307 3.135938,9.4930578 4.54633516,9.4930578 C5.00269078,9.4930578 5.44871381,9.44570014 5.88440426,9.35098482 C6.32009472,9.2579916 6.74286944,9.11764073 7.15272845,8.92993219 Z" id="DejaVuSans-63"></path>
                        </g>
                        <g id="DejaVuSans-69-link" transform="translate(35.703907, 3.438166)" fill="#000000" fill-rule="nonzero">
                            <path d="M0,9.04100743 L1.48530836,9.04100743 L1.48530836,0 L0,0 L0,9.04100743 Z M0,12.561834 L1.48530836,12.561834 L1.48530836,10.6787213 L0,10.6787213 L0,12.561834 Z" id="DejaVuSans-69"></path>
                        </g>
                        <g id="DejaVuSans-65-link" transform="translate(39.651275, 3.203100)" fill="#000000" fill-rule="nonzero">
                            <path d="M8.37972231,5.12754278 L8.37972231,4.40167904 L1.54988699,4.40167904 C1.61532666,3.37875363 1.92358196,2.5995049 2.47465289,2.06393284 C3.02572382,1.52836078 3.79377893,1.26057475 4.77881821,1.26057475 C5.3488322,1.26057475 5.90162523,1.33031966 6.43719729,1.46980949 C6.97276935,1.60929932 7.50489721,1.81939511 8.03358088,2.10009687 L8.03358088,0.694865999 C7.49973092,0.469271338 6.95296524,0.297061673 6.39328382,0.178237004 C5.83360241,0.0594123345 5.26617156,0 4.69099128,0 C3.24787429,0 2.10526316,0.419330535 1.26315789,1.2579916 C0.421052632,2.09837477 0,3.23495856 0,4.66774298 C0,6.147024 0.399526423,7.32063287 1.19857927,8.18856958 C1.99763212,9.05822839 3.07566462,9.4930578 4.43267678,9.4930578 C5.64847702,9.4930578 6.610268,9.10128081 7.31804973,8.31772683 C8.02583145,7.53589495 8.37972231,6.47250027 8.37972231,5.12754278 Z M6.89441395,5.56409428 C6.88408137,6.37520181 6.65676461,7.02271015 6.21246367,7.50661931 C5.76816274,7.99225057 5.18006673,8.23506619 4.44817565,8.23506619 C3.61984716,8.23506619 2.95683995,8.00086105 2.45915402,7.53245076 C1.96146809,7.06404047 1.67473899,6.40447745 1.59896674,5.5537617 L6.89441395,5.56409428 Z" id="DejaVuSans-65"></path>
                        </g>
                        <g id="DejaVuSans-6e-link" transform="translate(50.411366, 3.438166)" fill="#000000" fill-rule="nonzero">
                            <path d="M7.57378108,5.45818534 L7.57378108,0 L6.08847272,0 L6.08847272,5.40910559 C6.08847272,6.26498762 5.92142934,6.90474653 5.58734259,7.32838231 C5.25325584,7.75374018 4.75298676,7.96641912 4.08653536,7.96641912 C3.28403832,7.96641912 2.6511678,7.71068776 2.1879238,7.19922506 C1.7246798,6.68948445 1.4930578,5.99289635 1.4930578,5.10946077 L1.4930578,0 L0,0 L0,9.04100743 L1.4930578,9.04100743 L1.4930578,7.63577656 C1.8495318,8.1799591 2.26800129,8.58637391 2.74846626,8.85502099 C3.23065332,9.12366807 3.78689054,9.2579916 4.41717791,9.2579916 C5.4556022,9.2579916 6.24087827,8.93682058 6.77300613,8.29447853 C7.3068561,7.65213648 7.57378108,6.70670541 7.57378108,5.45818534 Z" id="DejaVuSans-6e"></path>
                        </g>
                        <g id="DejaVuSans-63-link" transform="translate(60.300291, 3.203100)" fill="#000000" fill-rule="nonzero">
                            <path d="M7.15272845,8.92993219 L7.15272845,7.54020019 C6.73253686,7.77268324 6.31148423,7.946615 5.88957055,8.06199548 C5.46765687,8.17737596 5.04143795,8.23506619 4.61091379,8.23506619 C3.64653966,8.23506619 2.89742762,7.92939404 2.36357766,7.31804973 C1.83144979,6.70842751 1.56538586,5.85168443 1.56538586,4.74782047 C1.56538586,3.64395652 1.83144979,2.78635238 2.36357766,2.17500807 C2.89742762,1.56538586 3.64653966,1.26057475 4.61091379,1.26057475 C5.04143795,1.26057475 5.46765687,1.31826499 5.88957055,1.43364546 C6.31148423,1.54902594 6.73253686,1.7229577 7.15272845,1.95544075 L7.15272845,0.58120762 C6.73770315,0.388332795 6.30804004,0.243676676 5.8637391,0.147239264 C5.42116026,0.0490797546 4.94930578,0 4.44817565,0 C3.0859972,0 2.00365946,0.427941018 1.20116242,1.28382305 C0.400387472,2.13970509 0,3.2943709 0,4.74782047 C0,6.22193521 0.404692713,7.38090625 1.21407814,8.22473361 C2.02518566,9.07028307 3.135938,9.4930578 4.54633516,9.4930578 C5.00269078,9.4930578 5.44871381,9.44570014 5.88440426,9.35098482 C6.32009472,9.2579916 6.74286944,9.11764073 7.15272845,8.92993219 Z" id="DejaVuSans-63"></path>
                        </g>
                        <g id="DejaVuSans-79-link" transform="translate(68.971263, 0.000000)" fill="#000000" fill-rule="nonzero">
                            <path d="M4.82531482,2.59864385 C4.40684533,1.52233344 3.99784738,0.820579055 3.59832096,0.493380691 C3.20051663,0.16446023 2.66838876,0 2.00193736,0 L0.813690668,0 L0.813690668,1.24249273 L1.68679367,1.24249273 C2.09493058,1.24249273 2.41179636,1.3397912 2.63739102,1.53438812 C2.86470778,1.72726294 3.11527284,2.1844796 3.38908621,2.9060381 L3.65515015,3.58282209 L0,12.4791734 L1.57313529,12.4791734 L4.3990959,5.40910559 L7.22505651,12.4791734 L8.7981918,12.4791734 L4.82531482,2.59864385 Z" id="DejaVuSans-79"></path>
                        </g>
                        <g id="DejaVuSans-20" transform="translate(78.261543, 3.438166)"></g>
                        <g id="DejaVuSans-28-link" transform="translate(84.937359, 1.257992)" fill="#000000" fill-rule="nonzero">
                            <path d="M3.7042299,14.7239264 C2.9843935,13.487461 2.44882144,12.2630503 2.09751372,11.0506942 C1.7479281,9.84006027 1.57313529,8.61306641 1.57313529,7.36971263 C1.57313529,6.12808094 1.7496502,4.89764288 2.10268001,3.67839845 C2.45570983,2.45915402 2.98955979,1.2330212 3.7042299,0 L2.41265741,0 C1.60671618,1.26574104 1.0031213,2.50909482 0.60187278,3.73006135 C0.20062426,4.95102788 0,6.16424497 0,7.36971263 C0,8.57001399 0.198902163,9.77806479 0.59670649,10.993865 C0.996232914,12.2113874 1.60154989,13.4547411 2.41265741,14.7239264 L3.7042299,14.7239264 Z" id="DejaVuSans-28"></path>
                        </g>
                        <g id="DejaVuSans-4c-link" transform="translate(91.588634, 3.438166)" fill="#000000" fill-rule="nonzero">
                            <polygon id="DejaVuSans-4c" points="0 12.0529545 1.62996448 12.0529545 1.62996448 1.37164998 7.49886987 1.37164998 7.49886987 0 0 0"></polygon>
                        </g>
                        <g id="DejaVuSans-6f-link" transform="translate(99.799483, 3.203100)" fill="#000000" fill-rule="nonzero">
                            <path d="M4.14853084,8.23506619 C3.35292218,8.23506619 2.72349586,7.92422775 2.26025186,7.30255086 C1.79700786,6.68087396 1.56538586,5.82929717 1.56538586,4.74782047 C1.56538586,3.66634377 1.79528576,2.81476698 2.25508557,2.19309009 C2.71660747,1.5714132 3.34775589,1.26057475 4.14853084,1.26057475 C4.9406953,1.26057475 5.56753848,1.57227424 6.02906038,2.19567323 C6.49230438,2.82079432 6.72392638,3.67151006 6.72392638,4.74782047 C6.72392638,5.81896459 6.49230438,6.66795824 6.02906038,7.29480142 C5.56753848,7.9216446 4.9406953,8.23506619 4.14853084,8.23506619 Z M4.14853084,9.4930578 C5.44010333,9.4930578 6.45441825,9.07286621 7.19147562,8.23248305 C7.93025509,7.39382198 8.29964482,6.23226779 8.29964482,4.74782047 C8.29964482,3.26853945 7.93025509,2.10698525 7.19147562,1.26315789 C6.45441825,0.421052632 5.44010333,0 4.14853084,0 C2.85179206,0 1.83575503,0.421052632 1.10041976,1.26315789 C0.366806587,2.10698525 0,3.26853945 0,4.74782047 C0,6.23226779 0.366806587,7.39382198 1.10041976,8.23248305 C1.83575503,9.07286621 2.85179206,9.4930578 4.14853084,9.4930578 Z" id="DejaVuSans-6f"></path>
                        </g>
                        <g id="DejaVuSans-77-link" transform="translate(109.697126, 3.438166)" fill="#000000" fill-rule="nonzero">
                            <polygon id="DejaVuSans-77" points="0 9.04100743 1.48530836 9.04100743 3.3425896 1.98643849 5.18953826 9.04100743 6.94091056 9.04100743 8.7981918 1.98643849 10.6477236 9.04100743 12.133032 9.04100743 9.76687117 0 8.01549887 0 6.0703907 7.41104294 4.1175331 0 2.36357766 0"></polygon>
                        </g>
                        <g id="DejaVuSans-20" transform="translate(122.523410, 3.438166)"></g>
                        <g id="DejaVuSans-2d-link" transform="translate(128.587020, 7.305134)" fill="#000000" fill-rule="nonzero">
                            <polygon id="DejaVuSans-2d" points="0 1.32257023 4.35001614 1.32257023 4.35001614 0 0 0"></polygon>
                        </g>
                        <g id="DejaVuSans-3e-link" transform="translate(135.495318, 4.197611)" fill="#000000" fill-rule="nonzero">
                            <polygon id="DejaVuSans-3e" points="0 7.37746206 0 8.84727155 10.3480788 5.0939619 10.3480788 3.75330965 0 0 0 1.46980949 8.31514369 4.41459477"></polygon>
                        </g>
                        <g id="DejaVuSans-20" transform="translate(147.596061, 3.438166)"></g>
                        <g id="DejaVuSans-48-link" transform="translate(154.473361, 3.438166)" fill="#000000" fill-rule="nonzero">
                            <polygon id="DejaVuSans-48" points="0 12.0529545 1.62996448 12.0529545 1.62996448 7.11139813 7.55569906 7.11139813 7.55569906 12.0529545 9.18566355 12.0529545 9.18566355 0 7.55569906 0 7.55569906 5.73974814 1.62996448 5.73974814 1.62996448 0 0 0"></polygon>
                        </g>
                        <g id="DejaVuSans-69-link" transform="translate(166.840168, 3.438166)" fill="#000000" fill-rule="nonzero">
                            <path d="M0,9.04100743 L1.48530836,9.04100743 L1.48530836,0 L0,0 L0,9.04100743 Z M0,12.561834 L1.48530836,12.561834 L1.48530836,10.6787213 L0,10.6787213 L0,12.561834 Z" id="DejaVuSans-69"></path>
                        </g>
                        <g id="DejaVuSans-67-link" transform="translate(170.787536, 0.000000)" fill="#000000" fill-rule="nonzero">
                            <path d="M6.59476913,8.06457862 C6.59476913,9.14088903 6.37261866,9.97438381 5.92831773,10.565063 C5.48573889,11.1574642 4.86320095,11.4536648 4.06070391,11.4536648 C3.26509525,11.4536648 2.64514046,11.1574642 2.20083952,10.565063 C1.75653859,9.97438381 1.53438812,9.14088903 1.53438812,8.06457862 C1.53438812,6.99343451 1.75653859,6.16166182 2.20083952,5.56926057 C2.64514046,4.97685933 3.26509525,4.6806587 4.06070391,4.6806587 C4.86320095,4.6806587 5.48573889,4.97685933 5.92831773,5.56926057 C6.37261866,6.16166182 6.59476913,6.99343451 6.59476913,8.06457862 Z M8.08007749,4.55925089 C8.08007749,3.02141858 7.73824131,1.87708535 7.05456894,1.12625121 C6.37261866,0.37541707 5.32644495,0 3.91604779,0 C3.3942525,0 2.90173286,0.0387471747 2.43848886,0.116241524 C1.97524486,0.193735873 1.52577763,0.313421591 1.09008718,0.475298676 L1.09008718,1.91927672 C1.52577763,1.68334948 1.9563018,1.50941772 2.38165967,1.39748143 C2.80701754,1.28382305 3.24012485,1.22699387 3.6809816,1.22699387 C4.6556883,1.22699387 5.38499623,1.48100312 5.86890539,1.98902163 C6.35281455,2.49704015 6.59476913,3.26509525 6.59476913,4.29318696 L6.59476913,5.02938327 C6.28823593,4.49553331 5.89559789,4.09686794 5.41685502,3.83338715 C4.93811215,3.56990636 4.36465397,3.43816597 3.69648046,3.43816597 C2.58917232,3.43816597 1.6962652,3.86007965 1.01775912,4.70390701 C0.339253041,5.54945646 0,6.66968034 0,8.06457862 C0,9.46292111 0.339253041,10.584006 1.01775912,11.4278334 C1.6962652,12.2733828 2.58917232,12.6961576 3.69648046,12.6961576 C4.36465397,12.6961576 4.93811215,12.5644172 5.41685502,12.3009364 C5.89559789,12.0374556 6.28823593,11.6396513 6.59476913,11.1075234 L6.59476913,12.4791734 L8.08007749,12.4791734 L8.08007749,4.55925089 Z" id="DejaVuSans-67"></path>
                        </g>
                        <g id="DejaVuSans-68-link" transform="translate(181.870520, 3.438166)" fill="#000000" fill-rule="nonzero">
                            <path d="M7.57378108,5.45818534 L7.57378108,0 L6.08847272,0 L6.08847272,5.40910559 C6.08847272,6.26498762 5.92142934,6.90474653 5.58734259,7.32838231 C5.25325584,7.75374018 4.75298676,7.96641912 4.08653536,7.96641912 C3.28403832,7.96641912 2.6511678,7.71068776 2.1879238,7.19922506 C1.7246798,6.68948445 1.4930578,5.99289635 1.4930578,5.10946077 L1.4930578,0 L0,0 L0,12.561834 L1.4930578,12.561834 L1.4930578,7.63577656 C1.8495318,8.1799591 2.26800129,8.58637391 2.74846626,8.85502099 C3.23065332,9.12366807 3.78689054,9.2579916 4.41717791,9.2579916 C5.4556022,9.2579916 6.24087827,8.93682058 6.77300613,8.29447853 C7.3068561,7.65213648 7.57378108,6.70670541 7.57378108,5.45818534 Z" id="DejaVuSans-68"></path>
                        </g>
                        <g id="DejaVuSans-29-link" transform="translate(192.172748, 1.257992)" fill="#000000" fill-rule="nonzero">
                            <path d="M0,14.7239264 L1.29157249,14.7239264 C2.09751372,13.4547411 2.7011086,12.2113874 3.10235712,10.993865 C3.50360564,9.77806479 3.7042299,8.57001399 3.7042299,7.36971263 C3.7042299,6.16424497 3.50360564,4.95102788 3.10235712,3.73006135 C2.7011086,2.50909482 2.09751372,1.26574104 1.29157249,0 L0,0 C0.714670111,1.2330212 1.24852007,2.45915402 1.60154989,3.67839845 C1.9545797,4.89764288 2.13109461,6.12808094 2.13109461,7.36971263 C2.13109461,8.61306641 1.9545797,9.84006027 1.60154989,11.0506942 C1.24852007,12.2630503 0.714670111,13.487461 0,14.7239264 Z" id="DejaVuSans-29"></path>
                        </g>
                    </g>
                </g>
                <g id="matplotlib.axis_2" transform="translate(0.000000, 166.871822)">
                    <g id="text_2" transform="translate(0.000000, -0.000000)">
                        <g id="Group" transform="translate(8.000000, 92.206813) scale(-1, 1) rotate(-90.000000) translate(-8.000000, -92.206813) translate(-84.206813, 84.206813)">
                            <g id="DejaVuSans-53-link" transform="translate(0.000000, 3.203100)" fill="#000000" fill-rule="nonzero">
                                <path d="M7.75718437,11.8927995 L7.75718437,10.3015822 C7.13895167,10.5977828 6.55516091,10.8182112 6.00581208,10.9628673 C5.45646324,11.1092455 4.92605747,11.1824346 4.41459477,11.1824346 C3.52771499,11.1824346 2.84318157,11.0102249 2.36099451,10.6658056 C1.87880745,10.3213863 1.63771392,9.83144979 1.63771392,9.19599613 C1.63771392,8.66214616 1.79786891,8.25917555 2.11817888,7.98708428 C2.43848886,7.7167151 3.04552793,7.49800883 3.93929609,7.33096545 L4.92347433,7.12948014 C6.13927457,6.89699709 7.03648692,6.48886019 7.6151114,5.90506942 C8.19373587,5.32127866 8.48304811,4.54030782 8.48304811,3.56215693 C8.48304811,2.3928533 8.09127112,1.50683457 7.30771715,0.904100743 C6.52588527,0.301366914 5.37896889,0 3.86696803,0 C3.29695404,0 2.68991497,0.0645786245 2.04585082,0.193735873 C1.40350877,0.322893122 0.737918416,0.514045851 0.0490797546,0.767194059 L0.0490797546,2.4462383 C0.710364869,2.07598751 1.35873426,1.79614681 1.99418792,1.60671618 C2.62964159,1.41900764 3.25390163,1.32515337 3.86696803,1.32515337 C4.79690023,1.32515337 5.51501453,1.50769562 6.02131095,1.87278011 C6.52760736,2.2395867 6.78075557,2.76224303 6.78075557,3.44074911 C6.78075557,4.03142826 6.59907437,4.49381122 6.23571198,4.82789797 C5.87234959,5.16198472 5.27650414,5.41254978 4.44817565,5.57959315 L3.45366484,5.77332903 C2.2378646,6.01442256 1.35787321,6.39328382 0.813690668,6.90991282 C0.271230223,7.42654181 0,8.14551717 0,9.06683888 C0,10.1328167 0.37541707,10.9723388 1.12625121,11.5854052 C1.87708535,12.1984716 2.91120439,12.5050048 4.22860833,12.5050048 C4.79517813,12.5050048 5.37121946,12.4533419 5.95673232,12.3500161 C6.54396728,12.2484124 7.14411796,12.0960069 7.75718437,11.8927995 Z" id="DejaVuSans-53"></path>
                            </g>
                            <g id="DejaVuSans-65-link" transform="translate(10.315789, 3.203100)" fill="#000000" fill-rule="nonzero">
                                <path d="M8.37972231,5.12754278 L8.37972231,4.40167904 L1.54988699,4.40167904 C1.61532666,3.37875363 1.92358196,2.5995049 2.47465289,2.06393284 C3.02572382,1.52836078 3.79377893,1.26057475 4.77881821,1.26057475 C5.3488322,1.26057475 5.90162523,1.33031966 6.43719729,1.46980949 C6.97276935,1.60929932 7.50489721,1.81939511 8.03358088,2.10009687 L8.03358088,0.694865999 C7.49973092,0.469271338 6.95296524,0.297061673 6.39328382,0.178237004 C5.83360241,0.0594123345 5.26617156,0 4.69099128,0 C3.24787429,0 2.10526316,0.419330535 1.26315789,1.2579916 C0.421052632,2.09837477 0,3.23495856 0,4.66774298 C0,6.147024 0.399526423,7.32063287 1.19857927,8.18856958 C1.99763212,9.05822839 3.07566462,9.4930578 4.43267678,9.4930578 C5.64847702,9.4930578 6.610268,9.10128081 7.31804973,8.31772683 C8.02583145,7.53589495 8.37972231,6.47250027 8.37972231,5.12754278 Z M6.89441395,5.56409428 C6.88408137,6.37520181 6.65676461,7.02271015 6.21246367,7.50661931 C5.76816274,7.99225057 5.18006673,8.23506619 4.44817565,8.23506619 C3.61984716,8.23506619 2.95683995,8.00086105 2.45915402,7.53245076 C1.96146809,7.06404047 1.67473899,6.40447745 1.59896674,5.5537617 L6.89441395,5.56409428 Z" id="DejaVuSans-65"></path>
                            </g>
                            <g id="DejaVuSans-63-link" transform="translate(20.486923, 3.203100)" fill="#000000" fill-rule="nonzero">
                                <path d="M7.15272845,8.92993219 L7.15272845,7.54020019 C6.73253686,7.77268324 6.31148423,7.946615 5.88957055,8.06199548 C5.46765687,8.17737596 5.04143795,8.23506619 4.61091379,8.23506619 C3.64653966,8.23506619 2.89742762,7.92939404 2.36357766,7.31804973 C1.83144979,6.70842751 1.56538586,5.85168443 1.56538586,4.74782047 C1.56538586,3.64395652 1.83144979,2.78635238 2.36357766,2.17500807 C2.89742762,1.56538586 3.64653966,1.26057475 4.61091379,1.26057475 C5.04143795,1.26057475 5.46765687,1.31826499 5.88957055,1.43364546 C6.31148423,1.54902594 6.73253686,1.7229577 7.15272845,1.95544075 L7.15272845,0.58120762 C6.73770315,0.388332795 6.30804004,0.243676676 5.8637391,0.147239264 C5.42116026,0.0490797546 4.94930578,0 4.44817565,0 C3.0859972,0 2.00365946,0.427941018 1.20116242,1.28382305 C0.400387472,2.13970509 0,3.2943709 0,4.74782047 C0,6.22193521 0.404692713,7.38090625 1.21407814,8.22473361 C2.02518566,9.07028307 3.135938,9.4930578 4.54633516,9.4930578 C5.00269078,9.4930578 5.44871381,9.44570014 5.88440426,9.35098482 C6.32009472,9.2579916 6.74286944,9.11764073 7.15272845,8.92993219 Z" id="DejaVuSans-63"></path>
                            </g>
                            <g id="DejaVuSans-75-link" transform="translate(30.069745, 3.203100)" fill="#000000" fill-rule="nonzero">
                                <path d="M0,3.80238941 L0,9.27607362 L1.48530836,9.27607362 L1.48530836,3.8592186 C1.48530836,3.00333656 1.65149069,2.36099451 1.98385534,1.93219244 C2.31794209,1.50511247 2.81907222,1.29157249 3.48724572,1.29157249 C4.28802067,1.29157249 4.92089119,1.54730384 5.38585728,2.05876655 C5.85254547,2.57022925 6.08588957,3.2676784 6.08588957,4.15111398 L6.08588957,9.27607362 L7.57119793,9.27607362 L7.57119793,0.235066193 L6.08588957,0.235066193 L6.08588957,1.62479819 C5.72597137,1.07544936 5.30750188,0.667312453 4.83048111,0.400387472 C4.35518243,0.133462491 3.80238941,0 3.17210203,0 C2.13367775,0 1.34495749,0.322893122 0.805941233,0.968679367 C0.268647078,1.61446561 0,2.55903563 0,3.80238941 Z" id="DejaVuSans-75"></path>
                            </g>
                            <g id="DejaVuSans-72-link" transform="translate(40.643203, 3.438166)" fill="#000000" fill-rule="nonzero">
                                <path d="M5.29544721,7.65385857 C5.12840383,7.75029599 4.94672263,7.82090195 4.75040362,7.86567646 C4.5540846,7.91217307 4.33796147,7.93542138 4.10203423,7.93542138 C3.26165106,7.93542138 2.61672586,7.66246906 2.16725864,7.11656442 C1.71779141,6.57065978 1.4930578,5.78624475 1.4930578,4.76331934 L1.4930578,0 L0,0 L0,9.04100743 L1.4930578,9.04100743 L1.4930578,7.63577656 C1.80647939,8.18512539 2.2128942,8.59240125 2.71230223,8.85760413 C3.21343235,9.12452911 3.82219352,9.2579916 4.53858573,9.2579916 C4.64018943,9.2579916 4.75298676,9.25110322 4.87697772,9.23732644 C5.00096868,9.22527177 5.13787536,9.20546766 5.28769777,9.17791411 L5.29544721,7.65385857 Z" id="DejaVuSans-72"></path>
                            </g>
                            <g id="DejaVuSans-69-link" transform="translate(47.496932, 3.438166)" fill="#000000" fill-rule="nonzero">
                                <path d="M0,9.04100743 L1.48530836,9.04100743 L1.48530836,0 L0,0 L0,9.04100743 Z M0,12.561834 L1.48530836,12.561834 L1.48530836,10.6787213 L0,10.6787213 L0,12.561834 Z" id="DejaVuSans-69"></path>
                            </g>
                            <g id="DejaVuSans-74-link" transform="translate(50.976752, 3.438166)" fill="#000000" fill-rule="nonzero">
                                <path d="M2.58314498,11.6086535 L2.58314498,9.04100743 L5.64158863,9.04100743 L5.64158863,7.88634162 L2.58314498,7.88634162 L2.58314498,2.97836616 C2.58314498,2.24130879 2.68388763,1.76773221 2.88537294,1.55763642 C3.08685825,1.34754063 3.4975783,1.24249273 4.1175331,1.24249273 L5.64158863,1.24249273 L5.64158863,0 L4.1175331,0 C2.97061673,0 2.17931331,0.213539985 1.74362286,0.640619955 C1.30793241,1.06942202 1.09008718,1.84867076 1.09008718,2.97836616 L1.09008718,7.88634162 L0,7.88634162 L0,9.04100743 L1.09008718,9.04100743 L1.09008718,11.6086535 L2.58314498,11.6086535 Z" id="DejaVuSans-74"></path>
                            </g>
                            <g id="DejaVuSans-79-link" transform="translate(57.507911, 0.000000)" fill="#000000" fill-rule="nonzero">
                                <path d="M4.82531482,2.59864385 C4.40684533,1.52233344 3.99784738,0.820579055 3.59832096,0.493380691 C3.20051663,0.16446023 2.66838876,0 2.00193736,0 L0.813690668,0 L0.813690668,1.24249273 L1.68679367,1.24249273 C2.09493058,1.24249273 2.41179636,1.3397912 2.63739102,1.53438812 C2.86470778,1.72726294 3.11527284,2.1844796 3.38908621,2.9060381 L3.65515015,3.58282209 L0,12.4791734 L1.57313529,12.4791734 L4.3990959,5.40910559 L7.22505651,12.4791734 L8.7981918,12.4791734 L4.82531482,2.59864385 Z" id="DejaVuSans-79"></path>
                            </g>
                            <g id="DejaVuSans-20" transform="translate(66.798192, 3.438166)"></g>
                            <g id="DejaVuSans-28-link" transform="translate(73.474007, 1.257992)" fill="#000000" fill-rule="nonzero">
                                <path d="M3.7042299,14.7239264 C2.9843935,13.487461 2.44882144,12.2630503 2.09751372,11.0506942 C1.7479281,9.84006027 1.57313529,8.61306641 1.57313529,7.36971263 C1.57313529,6.12808094 1.7496502,4.89764288 2.10268001,3.67839845 C2.45570983,2.45915402 2.98955979,1.2330212 3.7042299,0 L2.41265741,0 C1.60671618,1.26574104 1.0031213,2.50909482 0.60187278,3.73006135 C0.20062426,4.95102788 0,6.16424497 0,7.36971263 C0,8.57001399 0.198902163,9.77806479 0.59670649,10.993865 C0.996232914,12.2113874 1.60154989,13.4547411 2.41265741,14.7239264 L3.7042299,14.7239264 Z" id="DejaVuSans-28"></path>
                            </g>
                            <g id="DejaVuSans-4c-link" transform="translate(80.125282, 3.438166)" fill="#000000" fill-rule="nonzero">
                                <polygon id="DejaVuSans-4c" points="0 12.0529545 1.62996448 12.0529545 1.62996448 1.37164998 7.49886987 1.37164998 7.49886987 0 0 0"></polygon>
                            </g>
                            <g id="DejaVuSans-6f-link" transform="translate(88.336132, 3.203100)" fill="#000000" fill-rule="nonzero">
                                <path d="M4.14853084,8.23506619 C3.35292218,8.23506619 2.72349586,7.92422775 2.26025186,7.30255086 C1.79700786,6.68087396 1.56538586,5.82929717 1.56538586,4.74782047 C1.56538586,3.66634377 1.79528576,2.81476698 2.25508557,2.19309009 C2.71660747,1.5714132 3.34775589,1.26057475 4.14853084,1.26057475 C4.9406953,1.26057475 5.56753848,1.57227424 6.02906038,2.19567323 C6.49230438,2.82079432 6.72392638,3.67151006 6.72392638,4.74782047 C6.72392638,5.81896459 6.49230438,6.66795824 6.02906038,7.29480142 C5.56753848,7.9216446 4.9406953,8.23506619 4.14853084,8.23506619 Z M4.14853084,9.4930578 C5.44010333,9.4930578 6.45441825,9.07286621 7.19147562,8.23248305 C7.93025509,7.39382198 8.29964482,6.23226779 8.29964482,4.74782047 C8.29964482,3.26853945 7.93025509,2.10698525 7.19147562,1.26315789 C6.45441825,0.421052632 5.44010333,0 4.14853084,0 C2.85179206,0 1.83575503,0.421052632 1.10041976,1.26315789 C0.366806587,2.10698525 0,3.26853945 0,4.74782047 C0,6.23226779 0.366806587,7.39382198 1.10041976,8.23248305 C1.83575503,9.07286621 2.85179206,9.4930578 4.14853084,9.4930578 Z" id="DejaVuSans-6f"></path>
                            </g>
                            <g id="DejaVuSans-77-link" transform="translate(98.233775, 3.438166)" fill="#000000" fill-rule="nonzero">
                                <polygon id="DejaVuSans-77" points="0 9.04100743 1.48530836 9.04100743 3.3425896 1.98643849 5.18953826 9.04100743 6.94091056 9.04100743 8.7981918 1.98643849 10.6477236 9.04100743 12.133032 9.04100743 9.76687117 0 8.01549887 0 6.0703907 7.41104294 4.1175331 0 2.36357766 0"></polygon>
                            </g>
                            <g id="DejaVuSans-20" transform="translate(111.060058, 3.438166)"></g>
                            <g id="DejaVuSans-2d-link" transform="translate(117.123668, 7.305134)" fill="#000000" fill-rule="nonzero">
                                <polygon id="DejaVuSans-2d" points="0 1.32257023 4.35001614 1.32257023 4.35001614 0 0 0"></polygon>
                            </g>
                            <g id="DejaVuSans-3e-link" transform="translate(124.031966, 4.197611)" fill="#000000" fill-rule="nonzero">
                                <polygon id="DejaVuSans-3e" points="0 7.37746206 0 8.84727155 10.3480788 5.0939619 10.3480788 3.75330965 0 0 0 1.46980949 8.31514369 4.41459477"></polygon>
                            </g>
                            <g id="DejaVuSans-20" transform="translate(136.132709, 3.438166)"></g>
                            <g id="DejaVuSans-48-link" transform="translate(143.010010, 3.438166)" fill="#000000" fill-rule="nonzero">
                                <polygon id="DejaVuSans-48" points="0 12.0529545 1.62996448 12.0529545 1.62996448 7.11139813 7.55569906 7.11139813 7.55569906 12.0529545 9.18566355 12.0529545 9.18566355 0 7.55569906 0 7.55569906 5.73974814 1.62996448 5.73974814 1.62996448 0 0 0"></polygon>
                            </g>
                            <g id="DejaVuSans-69-link" transform="translate(155.376816, 3.438166)" fill="#000000" fill-rule="nonzero">
                                <path d="M0,9.04100743 L1.48530836,9.04100743 L1.48530836,0 L0,0 L0,9.04100743 Z M0,12.561834 L1.48530836,12.561834 L1.48530836,10.6787213 L0,10.6787213 L0,12.561834 Z" id="DejaVuSans-69"></path>
                            </g>
                            <g id="DejaVuSans-67-link" transform="translate(159.324185, 0.000000)" fill="#000000" fill-rule="nonzero">
                                <path d="M6.59476913,8.06457862 C6.59476913,9.14088903 6.37261866,9.97438381 5.92831773,10.565063 C5.48573889,11.1574642 4.86320095,11.4536648 4.06070391,11.4536648 C3.26509525,11.4536648 2.64514046,11.1574642 2.20083952,10.565063 C1.75653859,9.97438381 1.53438812,9.14088903 1.53438812,8.06457862 C1.53438812,6.99343451 1.75653859,6.16166182 2.20083952,5.56926057 C2.64514046,4.97685933 3.26509525,4.6806587 4.06070391,4.6806587 C4.86320095,4.6806587 5.48573889,4.97685933 5.92831773,5.56926057 C6.37261866,6.16166182 6.59476913,6.99343451 6.59476913,8.06457862 Z M8.08007749,4.55925089 C8.08007749,3.02141858 7.73824131,1.87708535 7.05456894,1.12625121 C6.37261866,0.37541707 5.32644495,0 3.91604779,0 C3.3942525,0 2.90173286,0.0387471747 2.43848886,0.116241524 C1.97524486,0.193735873 1.52577763,0.313421591 1.09008718,0.475298676 L1.09008718,1.91927672 C1.52577763,1.68334948 1.9563018,1.50941772 2.38165967,1.39748143 C2.80701754,1.28382305 3.24012485,1.22699387 3.6809816,1.22699387 C4.6556883,1.22699387 5.38499623,1.48100312 5.86890539,1.98902163 C6.35281455,2.49704015 6.59476913,3.26509525 6.59476913,4.29318696 L6.59476913,5.02938327 C6.28823593,4.49553331 5.89559789,4.09686794 5.41685502,3.83338715 C4.93811215,3.56990636 4.36465397,3.43816597 3.69648046,3.43816597 C2.58917232,3.43816597 1.6962652,3.86007965 1.01775912,4.70390701 C0.339253041,5.54945646 0,6.66968034 0,8.06457862 C0,9.46292111 0.339253041,10.584006 1.01775912,11.4278334 C1.6962652,12.2733828 2.58917232,12.6961576 3.69648046,12.6961576 C4.36465397,12.6961576 4.93811215,12.5644172 5.41685502,12.3009364 C5.89559789,12.0374556 6.28823593,11.6396513 6.59476913,11.1075234 L6.59476913,12.4791734 L8.08007749,12.4791734 L8.08007749,4.55925089 Z" id="DejaVuSans-67"></path>
                            </g>
                            <g id="DejaVuSans-68-link" transform="translate(170.407168, 3.438166)" fill="#000000" fill-rule="nonzero">
                                <path d="M7.57378108,5.45818534 L7.57378108,0 L6.08847272,0 L6.08847272,5.40910559 C6.08847272,6.26498762 5.92142934,6.90474653 5.58734259,7.32838231 C5.25325584,7.75374018 4.75298676,7.96641912 4.08653536,7.96641912 C3.28403832,7.96641912 2.6511678,7.71068776 2.1879238,7.19922506 C1.7246798,6.68948445 1.4930578,5.99289635 1.4930578,5.10946077 L1.4930578,0 L0,0 L0,12.561834 L1.4930578,12.561834 L1.4930578,7.63577656 C1.8495318,8.1799591 2.26800129,8.58637391 2.74846626,8.85502099 C3.23065332,9.12366807 3.78689054,9.2579916 4.41717791,9.2579916 C5.4556022,9.2579916 6.24087827,8.93682058 6.77300613,8.29447853 C7.3068561,7.65213648 7.57378108,6.70670541 7.57378108,5.45818534 Z" id="DejaVuSans-68"></path>
                            </g>
                            <g id="DejaVuSans-29-link" transform="translate(180.709396, 1.257992)" fill="#000000" fill-rule="nonzero">
                                <path d="M0,14.7239264 L1.29157249,14.7239264 C2.09751372,13.4547411 2.7011086,12.2113874 3.10235712,10.993865 C3.50360564,9.77806479 3.7042299,8.57001399 3.7042299,7.36971263 C3.7042299,6.16424497 3.50360564,4.95102788 3.10235712,3.73006135 C2.7011086,2.50909482 2.09751372,1.26574104 1.29157249,0 L0,0 C0.714670111,1.2330212 1.24852007,2.45915402 1.60154989,3.67839845 C1.9545797,4.89764288 2.13109461,6.12808094 2.13109461,7.36971263 C2.13109461,8.61306641 1.9545797,9.84006027 1.60154989,11.0506942 C1.24852007,12.2630503 0.714670111,13.487461 0,14.7239264 Z" id="DejaVuSans-29"></path>
                            </g>
                        </g>
                    </g>
                </g>
                <g id="text_3" transform="translate(145.492351, 64.889688)">
                    <g id="Group" transform="translate(68.828220, 8.000000) scale(-1, 1) rotate(-180.000000) translate(-68.828220, -8.000000) ">
                        <g id="DejaVuSans-53-link" fill="#000000" fill-rule="nonzero">
                            <path d="M9.69882923,14.8696003 L9.69882923,12.8800969 C8.92585116,13.2504374 8.19593594,13.5260396 7.50908357,13.7069035 C6.82223119,13.8899206 6.15906338,13.9814291 5.51958014,13.9814291 C4.41071188,13.9814291 3.55483784,13.7661149 2.95195801,13.3354865 C2.34907819,12.904858 2.04763827,12.2922891 2.04763827,11.4977796 C2.04763827,10.8303055 2.2478805,10.3264702 2.64836496,9.98627372 C3.04884941,9.64823039 3.80783205,9.37478132 4.92531288,9.16592652 L6.15583367,8.91400888 C7.67595209,8.62333468 8.7977392,8.11303997 9.52119499,7.38312475 C10.2446508,6.65320953 10.6063787,5.67675952 10.6063787,4.45377473 C10.6063787,2.99179115 10.1165388,1.88399946 9.1368591,1.13039968 C8.15933253,0.376799892 6.72533979,0 4.8348809,0 C4.12219082,0 3.36320818,0.0807428341 2.55793298,0.242228502 C1.75481093,0.40371417 0.922621451,0.642712959 0.0613645539,0.959224869 L0.0613645539,3.05853855 C0.888171175,2.59561297 1.69882923,2.24572736 2.49333872,2.00888171 C3.2878482,1.77418921 4.06836227,1.65684296 4.8348809,1.65684296 C5.99757771,1.65684296 6.89543803,1.88507603 7.52846185,2.34154219 C8.16148567,2.80016149 8.47799758,3.45364016 8.47799758,4.3019782 C8.47799758,5.04050599 8.25084107,5.61862468 7.79652806,6.03633428 C7.34221505,6.45404387 6.59722783,6.76732607 5.56156641,6.97618086 L4.31812677,7.21840937 C2.79800834,7.51984928 1.69775266,7.99354057 1.01735971,8.63948325 C0.339119903,9.28542592 0,10.1843628 0,11.3362939 C0,12.669089 0.469385009,13.7187458 1.40815503,14.4852644 C2.34692504,15.2517831 3.63988696,15.6350424 5.28704078,15.6350424 C5.99542457,15.6350424 6.71565065,15.5704481 7.44771901,15.4412596 C8.18194052,15.3142242 8.93231059,15.1236711 9.69882923,14.8696003 Z" id="DejaVuSans-53"></path>
                        </g>
                        <g id="DejaVuSans-69-link" transform="translate(13.705289, 0.293904)" fill="#000000" fill-rule="nonzero">
                            <path d="M0,11.3039968 L1.85708518,11.3039968 L1.85708518,0 L0,0 L0,11.3039968 Z M0,15.7060961 L1.85708518,15.7060961 L1.85708518,13.351635 L0,13.351635 L0,15.7060961 Z" id="DejaVuSans-69"></path>
                        </g>
                        <g id="DejaVuSans-64-link" transform="translate(18.640694, 0.000000)" fill="#000000" fill-rule="nonzero">
                            <path d="M8.24545822,9.88292289 L8.24545822,16 L10.1025434,16 L10.1025434,0.293903916 L8.24545822,0.293903916 L8.24545822,1.98950343 C7.85573947,1.31772305 7.3626699,0.818194052 6.7662495,0.490916431 C6.17198224,0.16363881 5.45713901,0 4.62171982,0 C3.25662764,0 2.14452967,0.544744987 1.28542592,1.63423496 C0.428475306,2.72587808 0,4.15987081 0,5.93621316 C0,7.71255551 0.428475306,9.14547167 1.28542592,10.2349616 C2.14452967,11.3244516 3.25662764,11.8691966 4.62171982,11.8691966 C5.45713901,11.8691966 6.17198224,11.7055578 6.7662495,11.3782802 C7.3626699,11.0531557 7.85573947,10.5547033 8.24545822,9.88292289 Z M1.91844974,5.93621316 C1.91844974,4.57112098 2.1994348,3.49993271 2.76140493,2.72264836 C3.32337505,1.94536402 4.09527654,1.55672184 5.07710941,1.55672184 C6.05894227,1.55672184 6.83192033,1.94536402 7.3960436,2.72264836 C7.96232001,3.49993271 8.24545822,4.57112098 8.24545822,5.93621316 C8.24545822,7.30130534 7.96232001,8.37249361 7.3960436,9.14977796 C6.83192033,9.92706231 6.05894227,10.3157045 5.07710941,10.3157045 C4.09527654,10.3157045 3.32337505,9.92706231 2.76140493,9.14977796 C2.1994348,8.37249361 1.91844974,7.30130534 1.91844974,5.93621316 Z" id="DejaVuSans-64"></path>
                        </g>
                        <g id="DejaVuSans-65-link" transform="translate(31.761405, 0.000000)" fill="#000000" fill-rule="nonzero">
                            <path d="M10.4771901,6.41098103 L10.4771901,5.50343157 L1.93782802,5.50343157 C2.01964742,4.22446508 2.40505988,3.25016821 3.0940654,2.58054098 C3.78307092,1.91091374 4.74337236,1.57610012 5.97496972,1.57610012 C6.6876598,1.57610012 7.37881846,1.66330238 8.0484457,1.8377069 C8.71807294,2.01211143 9.38339389,2.27479478 10.0444086,2.62575696 L10.0444086,0.868792895 C9.37693446,0.586731261 8.6933118,0.371417037 7.99354057,0.222850222 C7.29376934,0.0742834073 6.58430898,0 5.86515947,0 C4.06082627,0 2.63221639,0.524290136 1.57932983,1.57287041 C0.526443278,2.62360382 0,4.0446777 0,5.83609205 C0,7.68564123 0.499529,9.15300767 1.498587,10.2381914 C2.497645,11.3255282 3.84551204,11.8691966 5.54218813,11.8691966 C7.06230655,11.8691966 8.2648365,11.3793567 9.14977796,10.399677 C10.0347194,9.42215045 10.4771901,8.09258512 10.4771901,6.41098103 Z M8.62010497,6.95680258 C8.60718611,7.97093258 8.32297134,8.78051406 7.76746064,9.38554703 C7.21194994,9.99273314 6.47665186,10.2963262 5.56156641,10.2963262 C4.52590499,10.2963262 3.69694523,10.0034989 3.07468712,9.41784417 C2.45242901,8.83218948 2.09393083,8.007536 1.99919257,6.94388373 L8.62010497,6.95680258 Z" id="DejaVuSans-65"></path>
                        </g>
                        <g id="DejaVuSans-63-link" transform="translate(44.478401, 0.000000)" fill="#000000" fill-rule="nonzero">
                            <path d="M8.9430763,11.1651191 L8.9430763,9.42753331 C8.41770959,9.71820751 7.89126632,9.93567488 7.36374647,10.0799354 C6.83622662,10.2241959 6.30332391,10.2963262 5.76503835,10.2963262 C4.5592787,10.2963262 3.62266182,9.91414345 2.95518773,9.14977796 C2.28986677,8.3875656 1.9572063,7.31637734 1.9572063,5.93621316 C1.9572063,4.55604898 2.28986677,3.48378415 2.95518773,2.71941865 C3.62266182,1.9572063 4.5592787,1.57610012 5.76503835,1.57610012 C6.30332391,1.57610012 6.83622662,1.64823039 7.36374647,1.79249092 C7.89126632,1.93675145 8.41770959,2.15421881 8.9430763,2.44489302 L8.9430763,0.726685507 C8.42416902,0.485533576 7.88696003,0.304669627 7.33144933,0.184093662 C6.77809178,0.0613645539 6.1881308,0 5.56156641,0 C3.8584309,0 2.505181,0.535055847 1.50181671,1.60516754 C0.500605571,2.67527924 0,4.11896111 0,5.93621316 C0,7.77930292 0.505988427,9.22836765 1.51796528,10.2834073 C2.53209528,11.3406002 3.92087202,11.8691966 5.68429552,11.8691966 C6.25487821,11.8691966 6.81254205,11.8099852 7.35728704,11.6915624 C7.90203203,11.5752927 8.43062845,11.3998116 8.9430763,11.1651191 Z" id="DejaVuSans-63"></path>
                        </g>
                        <g id="DejaVuSans-61-link" transform="translate(55.943076, 0.000000)" fill="#000000" fill-rule="nonzero">
                            <path d="M5.84578119,5.97496972 C4.34504104,5.97496972 3.30507334,5.80379491 2.72587808,5.4614453 C2.14668282,5.11909568 1.85708518,4.53344099 1.85708518,3.70448123 C1.85708518,3.0456197 2.07455255,2.52240614 2.50948728,2.13484053 C2.94442202,1.74942807 3.53438299,1.55672184 4.27937021,1.55672184 C5.31072534,1.55672184 6.13753196,1.92167945 6.75979007,2.65159467 C7.38204818,3.38150989 7.69317723,4.35150047 7.69317723,5.56156641 L7.69317723,5.97496972 L5.84578119,5.97496972 Z M9.55026241,6.7436415 L9.55026241,0.293903916 L7.69317723,0.293903916 L7.69317723,2.00888171 C7.26900821,1.32418248 6.74041179,0.818194052 6.10738797,0.490916431 C5.47436415,0.16363881 4.70030951,0 3.78522406,0 C2.62898668,0 1.70851837,0.325124479 1.02381914,0.975373436 C0.341273045,1.62562239 0,2.49549186 0,3.58498183 C0,4.85533576 0.425245593,5.81348405 1.27573678,6.45942673 C2.12838111,7.1053694 3.39873503,7.42834073 5.08679855,7.42834073 L7.69317723,7.42834073 L7.69317723,7.6124344 C7.69317723,8.46723187 7.41219217,9.12824653 6.85022204,9.5954784 C6.28825192,10.0627103 5.49912529,10.2963262 4.48284215,10.2963262 C3.83689948,10.2963262 3.20710537,10.2188131 2.59345983,10.0637868 C1.98196743,9.9087606 1.3941596,9.67622124 0.830036334,9.36616875 L0.830036334,11.0843763 C1.50827614,11.3470596 2.16713767,11.5429956 2.80662091,11.6721841 C3.44610416,11.8035258 4.06836227,11.8691966 4.67339524,11.8691966 C6.30978334,11.8691966 7.53169156,11.4450276 8.3391199,10.5966895 C9.14654824,9.75050464 9.55026241,8.4661553 9.55026241,6.7436415 Z" id="DejaVuSans-61"></path>
                        </g>
                        <g id="DejaVuSans-72-link" transform="translate(69.245862, 0.293904)" fill="#000000" fill-rule="nonzero">
                            <path d="M6.62091239,9.56964069 C6.4120576,9.69021666 6.18490109,9.77849549 5.93944287,9.83447719 C5.69398466,9.89261203 5.42376531,9.92167945 5.12878482,9.92167945 C4.07805141,9.92167945 3.27169964,9.58040641 2.70972951,8.89786031 C2.14775939,8.21531422 1.86677432,7.23455793 1.86677432,5.95559144 L1.86677432,0 L0,0 L0,11.3039968 L1.86677432,11.3039968 L1.86677432,9.5470327 C2.25864621,10.2338851 2.76678778,10.7431032 3.39119903,11.0746871 C4.01776342,11.4084242 4.77889921,11.5752927 5.67460638,11.5752927 C5.80164177,11.5752927 5.94267259,11.5666801 6.09769883,11.549455 C6.25272507,11.534383 6.42389988,11.5096219 6.61122325,11.4751716 L6.62091239,9.56964069 Z" id="DejaVuSans-72"></path>
                        </g>
                        <g id="DejaVuSans-20" transform="translate(75.867582, 0.293904)"></g>
                        <g id="DejaVuSans-4d-link" transform="translate(84.466290, 0.293904)" fill="#000000" fill-rule="nonzero">
                            <polygon id="DejaVuSans-4d" points="0 15.0698426 3.03916027 15.0698426 6.88251918 4.81550262 10.7484861 15.0698426 13.7876463 15.0698426 13.7876463 0 11.7981429 0 11.7981429 13.2321356 7.91279774 2.89705289 5.86515947 2.89705289 1.97981429 13.2321356 1.97981429 0 0 0"></polygon>
                        </g>
                        <g id="DejaVuSans-6f-link" transform="translate(101.412192, 0.000000)" fill="#000000" fill-rule="nonzero">
                            <path d="M5.18691966,10.2963262 C4.19216795,10.2963262 3.40519446,9.90768403 2.82599919,9.13039968 C2.24680393,8.35311533 1.9572063,7.28838649 1.9572063,5.93621316 C1.9572063,4.58403983 2.24465079,3.51931099 2.81953977,2.74202665 C3.39658189,1.9647423 4.18570852,1.57610012 5.18691966,1.57610012 C6.17736509,1.57610012 6.96110887,1.96581887 7.53815099,2.74525636 C8.11734625,3.52684699 8.40694388,4.59049926 8.40694388,5.93621316 C8.40694388,7.27546764 8.11734625,8.33696676 7.53815099,9.12071054 C6.96110887,9.90445431 6.17736509,10.2963262 5.18691966,10.2963262 Z M5.18691966,11.8691966 C6.80177634,11.8691966 8.06997712,11.3438299 8.991522,10.2930965 C9.91522002,9.24451622 10.377069,7.79222177 10.377069,5.93621316 C10.377069,4.08666398 9.91522002,2.63436953 8.991522,1.57932983 C8.06997712,0.526443278 6.80177634,0 5.18691966,0 C3.56560355,0 2.29524963,0.526443278 1.37585789,1.57932983 C0.458619298,2.63436953 0,4.08666398 0,5.93621316 C0,7.79222177 0.458619298,9.24451622 1.37585789,10.2930965 C2.29524963,11.3438299 3.56560355,11.8691966 5.18691966,11.8691966 Z" id="DejaVuSans-6f"></path>
                        </g>
                        <g id="DejaVuSans-64-link" transform="translate(114.058538, 0.000000)" fill="#000000" fill-rule="nonzero">
                            <path d="M8.24545822,9.88292289 L8.24545822,16 L10.1025434,16 L10.1025434,0.293903916 L8.24545822,0.293903916 L8.24545822,1.98950343 C7.85573947,1.31772305 7.3626699,0.818194052 6.7662495,0.490916431 C6.17198224,0.16363881 5.45713901,0 4.62171982,0 C3.25662764,0 2.14452967,0.544744987 1.28542592,1.63423496 C0.428475306,2.72587808 0,4.15987081 0,5.93621316 C0,7.71255551 0.428475306,9.14547167 1.28542592,10.2349616 C2.14452967,11.3244516 3.25662764,11.8691966 4.62171982,11.8691966 C5.45713901,11.8691966 6.17198224,11.7055578 6.7662495,11.3782802 C7.3626699,11.0531557 7.85573947,10.5547033 8.24545822,9.88292289 Z M1.91844974,5.93621316 C1.91844974,4.57112098 2.1994348,3.49993271 2.76140493,2.72264836 C3.32337505,1.94536402 4.09527654,1.55672184 5.07710941,1.55672184 C6.05894227,1.55672184 6.83192033,1.94536402 7.3960436,2.72264836 C7.96232001,3.49993271 8.24545822,4.57112098 8.24545822,5.93621316 C8.24545822,7.30130534 7.96232001,8.37249361 7.3960436,9.14977796 C6.83192033,9.92706231 6.05894227,10.3157045 5.07710941,10.3157045 C4.09527654,10.3157045 3.32337505,9.92706231 2.76140493,9.14977796 C2.1994348,8.37249361 1.91844974,7.30130534 1.91844974,5.93621316 Z" id="DejaVuSans-64"></path>
                        </g>
                        <g id="DejaVuSans-65-link" transform="translate(127.179249, 0.000000)" fill="#000000" fill-rule="nonzero">
                            <path d="M10.4771901,6.41098103 L10.4771901,5.50343157 L1.93782802,5.50343157 C2.01964742,4.22446508 2.40505988,3.25016821 3.0940654,2.58054098 C3.78307092,1.91091374 4.74337236,1.57610012 5.97496972,1.57610012 C6.6876598,1.57610012 7.37881846,1.66330238 8.0484457,1.8377069 C8.71807294,2.01211143 9.38339389,2.27479478 10.0444086,2.62575696 L10.0444086,0.868792895 C9.37693446,0.586731261 8.6933118,0.371417037 7.99354057,0.222850222 C7.29376934,0.0742834073 6.58430898,0 5.86515947,0 C4.06082627,0 2.63221639,0.524290136 1.57932983,1.57287041 C0.526443278,2.62360382 0,4.0446777 0,5.83609205 C0,7.68564123 0.499529,9.15300767 1.498587,10.2381914 C2.497645,11.3255282 3.84551204,11.8691966 5.54218813,11.8691966 C7.06230655,11.8691966 8.2648365,11.3793567 9.14977796,10.399677 C10.0347194,9.42215045 10.4771901,8.09258512 10.4771901,6.41098103 Z M8.62010497,6.95680258 C8.60718611,7.97093258 8.32297134,8.78051406 7.76746064,9.38554703 C7.21194994,9.99273314 6.47665186,10.2963262 5.56156641,10.2963262 C4.52590499,10.2963262 3.69694523,10.0034989 3.07468712,9.41784417 C2.45242901,8.83218948 2.09393083,8.007536 1.99919257,6.94388373 L8.62010497,6.95680258 Z" id="DejaVuSans-65"></path>
                        </g>
                    </g>
                </g>
                <g id="text_4" transform="translate(326.284866, 175.162415)">
                    <g id="Group" transform="translate(74.344166, 8.000000) scale(-1, 1) rotate(-180.000000) translate(-74.344166, -8.000000) ">
                        <g id="DejaVuSans-41-link" transform="translate(0.000000, 0.293904)" fill="#000000" fill-rule="nonzero">
                            <path d="M6.90512717,13.0609608 L4.13726282,5.56156641 L9.67945095,5.56156641 L6.90512717,13.0609608 Z M5.7521195,15.0698426 L8.06459427,15.0698426 L13.8070246,0 L11.6883327,0 L10.3157045,3.8659669 L3.52361728,3.8659669 L2.1509891,0 L0,0 L5.7521195,15.0698426 Z" id="DejaVuSans-41"></path>
                        </g>
                        <g id="DejaVuSans-6d-link" transform="translate(15.855067, 0.293904)" fill="#000000" fill-rule="nonzero">
                            <path d="M8.87202261,9.13362939 C9.33710133,9.96904858 9.89261203,10.5848473 10.5385547,10.9810254 C11.1844974,11.3772036 11.9445566,11.5752927 12.8187323,11.5752927 C13.9965011,11.5752927 14.9051272,11.162966 15.5446104,10.3383125 C16.1840937,9.51581214 16.5038353,8.34450276 16.5038353,6.82438434 L16.5038353,0 L14.637061,0 L14.637061,6.76301978 C14.637061,7.84605033 14.4443547,8.64917239 14.0589423,9.17238595 C13.6756829,9.69775266 13.0911048,9.96043601 12.3052079,9.96043601 C11.3427533,9.96043601 10.5816175,9.64069439 10.0218006,9.00121114 C9.46413672,8.36388104 9.1853048,7.492935 9.1853048,6.38837303 L9.1853048,0 L7.31853048,0 L7.31853048,6.76301978 C7.31853048,7.85250976 7.12690082,8.65778495 6.7436415,9.17884538 C6.36038218,9.6999058 5.76826807,9.96043601 4.96729915,9.96043601 C4.01776342,9.96043601 3.26308707,9.63961782 2.70327008,8.99798143 C2.14560624,8.35634504 1.86677432,7.48647558 1.86677432,6.38837303 L1.86677432,0 L0,0 L0,11.3039968 L1.86677432,11.3039968 L1.86677432,9.5470327 C2.29094335,10.2403445 2.79908491,10.7517158 3.39119903,11.0811465 C3.98331315,11.4105773 4.68631409,11.5752927 5.50020186,11.5752927 C6.32270219,11.5752927 7.02139685,11.3664379 7.59628583,10.9487283 C8.17117481,10.5331718 8.5964204,9.92813888 8.87202261,9.13362939 Z" id="DejaVuSans-6d"></path>
                        </g>
                        <g id="DejaVuSans-62-link" transform="translate(35.990311, 0.000000)" fill="#000000" fill-rule="nonzero">
                            <path d="M8.18732338,5.93621316 C8.18732338,7.30130534 7.90633831,8.37249361 7.34436819,9.14977796 C6.78239806,9.92706231 6.01049657,10.3157045 5.02866371,10.3157045 C4.0446777,10.3157045 3.27169964,9.92706231 2.70972951,9.14977796 C2.14775939,8.37249361 1.86677432,7.30130534 1.86677432,5.93621316 C1.86677432,4.57112098 2.14775939,3.49993271 2.70972951,2.72264836 C3.27169964,1.94536402 4.0446777,1.55672184 5.02866371,1.55672184 C6.01049657,1.55672184 6.78239806,1.94536402 7.34436819,2.72264836 C7.90633831,3.49993271 8.18732338,4.57112098 8.18732338,5.93621316 Z M1.86677432,9.88292289 C2.25864621,10.5547033 2.75171579,11.0531557 3.34598304,11.3782802 C3.94240345,11.7055578 4.65401696,11.8691966 5.48082358,11.8691966 C6.85452833,11.8691966 7.96985601,11.3244516 8.82680662,10.2349616 C9.68591038,9.14547167 10.1154623,7.71255551 10.1154623,5.93621316 C10.1154623,4.15987081 9.68591038,2.72587808 8.82680662,1.63423496 C7.96985601,0.544744987 6.85452833,0 5.48082358,0 C4.65401696,0 3.94240345,0.16363881 3.34598304,0.490916431 C2.75171579,0.818194052 2.25864621,1.31772305 1.86677432,1.98950343 L1.86677432,0.293903916 L0,0.293903916 L0,16 L1.86677432,16 L1.86677432,9.88292289 Z" id="DejaVuSans-62"></path>
                        </g>
                        <g id="DejaVuSans-69-link" transform="translate(49.182075, 0.293904)" fill="#000000" fill-rule="nonzero">
                            <path d="M0,11.3039968 L1.85708518,11.3039968 L1.85708518,0 L0,0 L0,11.3039968 Z M0,15.7060961 L1.85708518,15.7060961 L1.85708518,13.351635 L0,13.351635 L0,15.7060961 Z" id="DejaVuSans-69"></path>
                        </g>
                        <g id="DejaVuSans-65-link" transform="translate(54.117481, 0.000000)" fill="#000000" fill-rule="nonzero">
                            <path d="M10.4771901,6.41098103 L10.4771901,5.50343157 L1.93782802,5.50343157 C2.01964742,4.22446508 2.40505988,3.25016821 3.0940654,2.58054098 C3.78307092,1.91091374 4.74337236,1.57610012 5.97496972,1.57610012 C6.6876598,1.57610012 7.37881846,1.66330238 8.0484457,1.8377069 C8.71807294,2.01211143 9.38339389,2.27479478 10.0444086,2.62575696 L10.0444086,0.868792895 C9.37693446,0.586731261 8.6933118,0.371417037 7.99354057,0.222850222 C7.29376934,0.0742834073 6.58430898,0 5.86515947,0 C4.06082627,0 2.63221639,0.524290136 1.57932983,1.57287041 C0.526443278,2.62360382 0,4.0446777 0,5.83609205 C0,7.68564123 0.499529,9.15300767 1.498587,10.2381914 C2.497645,11.3255282 3.84551204,11.8691966 5.54218813,11.8691966 C7.06230655,11.8691966 8.2648365,11.3793567 9.14977796,10.399677 C10.0347194,9.42215045 10.4771901,8.09258512 10.4771901,6.41098103 Z M8.62010497,6.95680258 C8.60718611,7.97093258 8.32297134,8.78051406 7.76746064,9.38554703 C7.21194994,9.99273314 6.47665186,10.2963262 5.56156641,10.2963262 C4.52590499,10.2963262 3.69694523,10.0034989 3.07468712,9.41784417 C2.45242901,8.83218948 2.09393083,8.007536 1.99919257,6.94388373 L8.62010497,6.95680258 Z" id="DejaVuSans-65"></path>
                        </g>
                        <g id="DejaVuSans-6e-link" transform="translate(67.570852, 0.293904)" fill="#000000" fill-rule="nonzero">
                            <path d="M9.46951958,6.82438434 L9.46951958,0 L7.6124344,0 L7.6124344,6.76301978 C7.6124344,7.83313148 7.4035796,8.63302382 6.98587,9.16269681 C6.56816041,9.69452294 5.94267259,9.96043601 5.10940654,9.96043601 C4.10604226,9.96043601 3.31476248,9.64069439 2.73556722,9.00121114 C2.15637196,8.36388104 1.86677432,7.492935 1.86677432,6.38837303 L1.86677432,0 L0,0 L0,11.3039968 L1.86677432,11.3039968 L1.86677432,9.5470327 C2.31247477,10.2274256 2.83568833,10.7355672 3.43641502,11.0714574 C4.03929485,11.4073476 4.73475979,11.5752927 5.52280985,11.5752927 C6.82115462,11.5752927 7.80298748,11.1737317 8.46830844,10.3706096 C9.13578253,9.56748755 9.46951958,8.38541246 9.46951958,6.82438434 Z" id="DejaVuSans-6e"></path>
                        </g>
                        <g id="DejaVuSans-74-link" transform="translate(79.350424, 0.293904)" fill="#000000" fill-rule="nonzero">
                            <path d="M3.22971336,14.5143319 L3.22971336,11.3039968 L7.05369398,11.3039968 L7.05369398,9.8603149 L3.22971336,9.8603149 L3.22971336,3.72385951 C3.22971336,2.80231463 3.35567218,2.21020051 3.60758983,1.94751716 C3.85950747,1.6848338 4.37303189,1.55349213 5.1481631,1.55349213 L7.05369398,1.55349213 L7.05369398,0 L5.1481631,0 C3.71417037,0 2.72480151,0.266989638 2.18005652,0.800968914 C1.63531153,1.33710133 1.36293904,2.3113982 1.36293904,3.72385951 L1.36293904,9.8603149 L0,9.8603149 L0,11.3039968 L1.36293904,11.3039968 L1.36293904,14.5143319 L3.22971336,14.5143319 Z" id="DejaVuSans-74"></path>
                        </g>
                        <g id="DejaVuSans-20" transform="translate(86.899475, 0.293904)"></g>
                        <g id="DejaVuSans-4d-link" transform="translate(95.498183, 0.293904)" fill="#000000" fill-rule="nonzero">
                            <polygon id="DejaVuSans-4d" points="0 15.0698426 3.03916027 15.0698426 6.88251918 4.81550262 10.7484861 15.0698426 13.7876463 15.0698426 13.7876463 0 11.7981429 0 11.7981429 13.2321356 7.91279774 2.89705289 5.86515947 2.89705289 1.97981429 13.2321356 1.97981429 0 0 0"></polygon>
                        </g>
                        <g id="DejaVuSans-6f-link" transform="translate(112.444085, 0.000000)" fill="#000000" fill-rule="nonzero">
                            <path d="M5.18691966,10.2963262 C4.19216795,10.2963262 3.40519446,9.90768403 2.82599919,9.13039968 C2.24680393,8.35311533 1.9572063,7.28838649 1.9572063,5.93621316 C1.9572063,4.58403983 2.24465079,3.51931099 2.81953977,2.74202665 C3.39658189,1.9647423 4.18570852,1.57610012 5.18691966,1.57610012 C6.17736509,1.57610012 6.96110887,1.96581887 7.53815099,2.74525636 C8.11734625,3.52684699 8.40694388,4.59049926 8.40694388,5.93621316 C8.40694388,7.27546764 8.11734625,8.33696676 7.53815099,9.12071054 C6.96110887,9.90445431 6.17736509,10.2963262 5.18691966,10.2963262 Z M5.18691966,11.8691966 C6.80177634,11.8691966 8.06997712,11.3438299 8.991522,10.2930965 C9.91522002,9.24451622 10.377069,7.79222177 10.377069,5.93621316 C10.377069,4.08666398 9.91522002,2.63436953 8.991522,1.57932983 C8.06997712,0.526443278 6.80177634,0 5.18691966,0 C3.56560355,0 2.29524963,0.526443278 1.37585789,1.57932983 C0.458619298,2.63436953 0,4.08666398 0,5.93621316 C0,7.79222177 0.458619298,9.24451622 1.37585789,10.2930965 C2.29524963,11.3438299 3.56560355,11.8691966 5.18691966,11.8691966 Z" id="DejaVuSans-6f"></path>
                        </g>
                        <g id="DejaVuSans-64-link" transform="translate(125.090432, 0.000000)" fill="#000000" fill-rule="nonzero">
                            <path d="M8.24545822,9.88292289 L8.24545822,16 L10.1025434,16 L10.1025434,0.293903916 L8.24545822,0.293903916 L8.24545822,1.98950343 C7.85573947,1.31772305 7.3626699,0.818194052 6.7662495,0.490916431 C6.17198224,0.16363881 5.45713901,0 4.62171982,0 C3.25662764,0 2.14452967,0.544744987 1.28542592,1.63423496 C0.428475306,2.72587808 0,4.15987081 0,5.93621316 C0,7.71255551 0.428475306,9.14547167 1.28542592,10.2349616 C2.14452967,11.3244516 3.25662764,11.8691966 4.62171982,11.8691966 C5.45713901,11.8691966 6.17198224,11.7055578 6.7662495,11.3782802 C7.3626699,11.0531557 7.85573947,10.5547033 8.24545822,9.88292289 Z M1.91844974,5.93621316 C1.91844974,4.57112098 2.1994348,3.49993271 2.76140493,2.72264836 C3.32337505,1.94536402 4.09527654,1.55672184 5.07710941,1.55672184 C6.05894227,1.55672184 6.83192033,1.94536402 7.3960436,2.72264836 C7.96232001,3.49993271 8.24545822,4.57112098 8.24545822,5.93621316 C8.24545822,7.30130534 7.96232001,8.37249361 7.3960436,9.14977796 C6.83192033,9.92706231 6.05894227,10.3157045 5.07710941,10.3157045 C4.09527654,10.3157045 3.32337505,9.92706231 2.76140493,9.14977796 C2.1994348,8.37249361 1.91844974,7.30130534 1.91844974,5.93621316 Z" id="DejaVuSans-64"></path>
                        </g>
                        <g id="DejaVuSans-65-link" transform="translate(138.211143, 0.000000)" fill="#000000" fill-rule="nonzero">
                            <path d="M10.4771901,6.41098103 L10.4771901,5.50343157 L1.93782802,5.50343157 C2.01964742,4.22446508 2.40505988,3.25016821 3.0940654,2.58054098 C3.78307092,1.91091374 4.74337236,1.57610012 5.97496972,1.57610012 C6.6876598,1.57610012 7.37881846,1.66330238 8.0484457,1.8377069 C8.71807294,2.01211143 9.38339389,2.27479478 10.0444086,2.62575696 L10.0444086,0.868792895 C9.37693446,0.586731261 8.6933118,0.371417037 7.99354057,0.222850222 C7.29376934,0.0742834073 6.58430898,0 5.86515947,0 C4.06082627,0 2.63221639,0.524290136 1.57932983,1.57287041 C0.526443278,2.62360382 0,4.0446777 0,5.83609205 C0,7.68564123 0.499529,9.15300767 1.498587,10.2381914 C2.497645,11.3255282 3.84551204,11.8691966 5.54218813,11.8691966 C7.06230655,11.8691966 8.2648365,11.3793567 9.14977796,10.399677 C10.0347194,9.42215045 10.4771901,8.09258512 10.4771901,6.41098103 Z M8.62010497,6.95680258 C8.60718611,7.97093258 8.32297134,8.78051406 7.76746064,9.38554703 C7.21194994,9.99273314 6.47665186,10.2963262 5.56156641,10.2963262 C4.52590499,10.2963262 3.69694523,10.0034989 3.07468712,9.41784417 C2.45242901,8.83218948 2.09393083,8.007536 1.99919257,6.94388373 L8.62010497,6.95680258 Z" id="DejaVuSans-65"></path>
                        </g>
                    </g>
                </g>
                <g id="text_5" transform="translate(213.539858, 286.435142)">
                    <g id="Group" transform="translate(93.258781, 8.000000) scale(-1, 1) rotate(-180.000000) translate(-93.258781, -8.000000) ">
                        <g id="DejaVuSans-43-link" fill="#000000" fill-rule="nonzero">
                            <path d="M12.1534114,14.2010497 L12.1534114,12.0532903 C11.466559,12.6927735 10.7344906,13.1696945 9.9572063,13.4840533 C9.17992195,13.8005652 8.3541919,13.9588212 7.48001615,13.9588212 C5.75750235,13.9588212 4.43870273,13.4323779 3.52361728,12.3794913 C2.60853183,11.3266048 2.1509891,9.8043332 2.1509891,7.81267662 C2.1509891,5.82747948 2.60853183,4.30843763 3.52361728,3.25555107 C4.43870273,2.20266451 5.75750235,1.67622124 7.48001615,1.67622124 C8.3541919,1.67622124 9.17992195,1.83447719 9.9572063,2.1509891 C10.7344906,2.46750101 11.466559,2.94549859 12.1534114,3.58498183 L12.1534114,1.45337101 C11.4407213,0.968914009 10.6849684,0.60503297 9.8861526,0.361727897 C9.08948997,0.120575966 8.24761136,0 7.36051675,0 C5.07818598,0 3.28031221,0.697618086 1.96689544,2.09285426 C0.655631813,3.49024357 0,5.39685103 0,7.81267662 C0,10.2349616 0.655631813,12.1437222 1.96689544,13.5389584 C3.28031221,14.9363477 5.07818598,15.6350424 7.36051675,15.6350424 C8.26053021,15.6350424 9.10886825,15.515543 9.90553088,15.2765442 C10.7043467,15.0375454 11.4536402,14.6790472 12.1534114,14.2010497 Z" id="DejaVuSans-43"></path>
                        </g>
                        <g id="DejaVuSans-69-link" transform="translate(15.220832, 0.293904)" fill="#000000" fill-rule="nonzero">
                            <path d="M0,11.3039968 L1.85708518,11.3039968 L1.85708518,0 L0,0 L0,11.3039968 Z M0,15.7060961 L1.85708518,15.7060961 L1.85708518,13.351635 L0,13.351635 L0,15.7060961 Z" id="DejaVuSans-69"></path>
                        </g>
                        <g id="DejaVuSans-6c-link" transform="translate(20.963666, 0.293904)" fill="#000000" fill-rule="nonzero">
                            <polygon id="DejaVuSans-6c" points="0 15.7060961 1.85708518 15.7060961 1.85708518 0 0 0"></polygon>
                        </g>
                        <g id="DejaVuSans-69-link" transform="translate(26.706500, 0.293904)" fill="#000000" fill-rule="nonzero">
                            <path d="M0,11.3039968 L1.85708518,11.3039968 L1.85708518,0 L0,0 L0,11.3039968 Z M0,15.7060961 L1.85708518,15.7060961 L1.85708518,13.351635 L0,13.351635 L0,15.7060961 Z" id="DejaVuSans-69"></path>
                        </g>
                        <g id="DejaVuSans-75-link" transform="translate(32.258781, 0.000000)" fill="#000000" fill-rule="nonzero">
                            <path d="M0,4.75413807 L0,11.5979007 L1.85708518,11.5979007 L1.85708518,4.82519176 C1.85708518,3.75508007 2.06486341,2.95195801 2.48041986,2.4158256 C2.89812946,1.88184632 3.52469385,1.61485668 4.36011304,1.61485668 C5.36132418,1.61485668 6.15260396,1.9345983 6.73395236,2.57408155 C7.31745391,3.2135648 7.60920468,4.0855874 7.60920468,5.19014937 L7.60920468,11.5979007 L9.46628987,11.5979007 L9.46628987,0.293903916 L7.60920468,0.293903916 L7.60920468,2.03148971 C7.15919795,1.34463733 6.63598439,0.834342619 6.03956399,0.500605571 C5.44529673,0.166868524 4.75413807,0 3.96608801,0 C2.66774324,0 1.68160409,0.40371417 1.00767057,1.21114251 C0.33589019,2.01857085 0,3.19956937 0,4.75413807 Z" id="DejaVuSans-75"></path>
                        </g>
                        <g id="DejaVuSans-6d-link" transform="translate(45.478805, 0.293904)" fill="#000000" fill-rule="nonzero">
                            <path d="M8.87202261,9.13362939 C9.33710133,9.96904858 9.89261203,10.5848473 10.5385547,10.9810254 C11.1844974,11.3772036 11.9445566,11.5752927 12.8187323,11.5752927 C13.9965011,11.5752927 14.9051272,11.162966 15.5446104,10.3383125 C16.1840937,9.51581214 16.5038353,8.34450276 16.5038353,6.82438434 L16.5038353,0 L14.637061,0 L14.637061,6.76301978 C14.637061,7.84605033 14.4443547,8.64917239 14.0589423,9.17238595 C13.6756829,9.69775266 13.0911048,9.96043601 12.3052079,9.96043601 C11.3427533,9.96043601 10.5816175,9.64069439 10.0218006,9.00121114 C9.46413672,8.36388104 9.1853048,7.492935 9.1853048,6.38837303 L9.1853048,0 L7.31853048,0 L7.31853048,6.76301978 C7.31853048,7.85250976 7.12690082,8.65778495 6.7436415,9.17884538 C6.36038218,9.6999058 5.76826807,9.96043601 4.96729915,9.96043601 C4.01776342,9.96043601 3.26308707,9.63961782 2.70327008,8.99798143 C2.14560624,8.35634504 1.86677432,7.48647558 1.86677432,6.38837303 L1.86677432,0 L0,0 L0,11.3039968 L1.86677432,11.3039968 L1.86677432,9.5470327 C2.29094335,10.2403445 2.79908491,10.7517158 3.39119903,11.0811465 C3.98331315,11.4105773 4.68631409,11.5752927 5.50020186,11.5752927 C6.32270219,11.5752927 7.02139685,11.3664379 7.59628583,10.9487283 C8.17117481,10.5331718 8.5964204,9.92813888 8.87202261,9.13362939 Z" id="DejaVuSans-6d"></path>
                        </g>
                        <g id="DejaVuSans-20" transform="translate(63.737586, 0.293904)"></g>
                        <g id="DejaVuSans-4d-link" transform="translate(72.336294, 0.293904)" fill="#000000" fill-rule="nonzero">
                            <polygon id="DejaVuSans-4d" points="0 15.0698426 3.03916027 15.0698426 6.88251918 4.81550262 10.7484861 15.0698426 13.7876463 15.0698426 13.7876463 0 11.7981429 0 11.7981429 13.2321356 7.91279774 2.89705289 5.86515947 2.89705289 1.97981429 13.2321356 1.97981429 0 0 0"></polygon>
                        </g>
                        <g id="DejaVuSans-65-link" transform="translate(89.282196, 0.000000)" fill="#000000" fill-rule="nonzero">
                            <path d="M10.4771901,6.41098103 L10.4771901,5.50343157 L1.93782802,5.50343157 C2.01964742,4.22446508 2.40505988,3.25016821 3.0940654,2.58054098 C3.78307092,1.91091374 4.74337236,1.57610012 5.97496972,1.57610012 C6.6876598,1.57610012 7.37881846,1.66330238 8.0484457,1.8377069 C8.71807294,2.01211143 9.38339389,2.27479478 10.0444086,2.62575696 L10.0444086,0.868792895 C9.37693446,0.586731261 8.6933118,0.371417037 7.99354057,0.222850222 C7.29376934,0.0742834073 6.58430898,0 5.86515947,0 C4.06082627,0 2.63221639,0.524290136 1.57932983,1.57287041 C0.526443278,2.62360382 0,4.0446777 0,5.83609205 C0,7.68564123 0.499529,9.15300767 1.498587,10.2381914 C2.497645,11.3255282 3.84551204,11.8691966 5.54218813,11.8691966 C7.06230655,11.8691966 8.2648365,11.3793567 9.14977796,10.399677 C10.0347194,9.42215045 10.4771901,8.09258512 10.4771901,6.41098103 Z M8.62010497,6.95680258 C8.60718611,7.97093258 8.32297134,8.78051406 7.76746064,9.38554703 C7.21194994,9.99273314 6.47665186,10.2963262 5.56156641,10.2963262 C4.52590499,10.2963262 3.69694523,10.0034989 3.07468712,9.41784417 C2.45242901,8.83218948 2.09393083,8.007536 1.99919257,6.94388373 L8.62010497,6.95680258 Z" id="DejaVuSans-65"></path>
                        </g>
                        <g id="DejaVuSans-73-link" transform="translate(101.979814, 0.000000)" fill="#000000" fill-rule="nonzero">
                            <path d="M8.03229713,11.2652402 L8.03229713,9.50827614 C7.50908357,9.77741892 6.96433858,9.97873772 6.39806217,10.1122325 C5.8339389,10.2478805 5.24828421,10.3157045 4.6410981,10.3157045 C3.71955322,10.3157045 3.02839456,10.1746737 2.56762212,9.89261203 C2.10684968,9.6105504 1.87646346,9.18638138 1.87646346,8.62010497 C1.87646346,8.18947652 2.04117885,7.85143319 2.37060961,7.60597497 C2.70004037,7.36051675 3.36320818,7.12690082 4.36011304,6.90512717 L4.99636657,6.76301978 C6.31408962,6.48095815 7.2507065,6.08262683 7.8062172,5.56802584 C8.3617279,5.05342484 8.63948325,4.3353519 8.63948325,3.41380702 C8.63948325,2.36307361 8.22392679,1.53088413 7.39281389,0.917238595 C6.56170098,0.305746198 5.41945902,0 3.96608801,0 C3.36105504,0 2.73018436,0.0592114117 2.07347598,0.177634235 C1.4167676,0.296057058 0.725608936,0.472614722 0,0.707307226 L0,2.62575696 C0.686852375,2.26833535 1.36293904,2.00026914 2.02825999,1.82155834 C2.69358094,1.64500067 3.35351904,1.55672184 4.00807428,1.55672184 C4.88225003,1.55672184 5.55403041,1.70636523 6.02341542,2.005652 C6.49495357,2.30493877 6.73072265,2.72695465 6.73072265,3.27169964 C6.73072265,3.77553492 6.56062441,4.16202395 6.22042794,4.43116673 C5.88238461,4.70030951 5.13739739,4.95976315 3.98546629,5.20952765 L3.33952362,5.36132418 C2.18974566,5.60247611 1.35863275,5.97389315 0.846184901,6.47557529 C0.33589019,6.97725744 0.0807428341,7.66518638 0.0807428341,8.53936213 C0.0807428341,9.6030144 0.457542726,10.4233616 1.21114251,11.0004037 C1.9647423,11.579599 3.03485399,11.8691966 4.42147759,11.8691966 C5.10617683,11.8691966 5.75104293,11.8185978 6.3560759,11.7174001 C6.96326201,11.6183555 7.52200242,11.4676356 8.03229713,11.2652402 Z" id="DejaVuSans-73"></path>
                        </g>
                        <g id="DejaVuSans-68-link" transform="translate(113.504643, 0.293904)" fill="#000000" fill-rule="nonzero">
                            <path d="M9.46951958,6.82438434 L9.46951958,0 L7.6124344,0 L7.6124344,6.76301978 C7.6124344,7.83313148 7.4035796,8.63302382 6.98587,9.16269681 C6.56816041,9.69452294 5.94267259,9.96043601 5.10940654,9.96043601 C4.10604226,9.96043601 3.31476248,9.64069439 2.73556722,9.00121114 C2.15637196,8.36388104 1.86677432,7.492935 1.86677432,6.38837303 L1.86677432,0 L0,0 L0,15.7060961 L1.86677432,15.7060961 L1.86677432,9.5470327 C2.31247477,10.2274256 2.83568833,10.7355672 3.43641502,11.0714574 C4.03929485,11.4073476 4.73475979,11.5752927 5.52280985,11.5752927 C6.82115462,11.5752927 7.80298748,11.1737317 8.46830844,10.3706096 C9.13578253,9.56748755 9.46951958,8.38541246 9.46951958,6.82438434 Z" id="DejaVuSans-68"></path>
                        </g>
                        <g id="DejaVuSans-20" transform="translate(124.728704, 0.293904)"></g>
                        <g id="DejaVuSans-4d-link" transform="translate(133.327412, 0.293904)" fill="#000000" fill-rule="nonzero">
                            <polygon id="DejaVuSans-4d" points="0 15.0698426 3.03916027 15.0698426 6.88251918 4.81550262 10.7484861 15.0698426 13.7876463 15.0698426 13.7876463 0 11.7981429 0 11.7981429 13.2321356 7.91279774 2.89705289 5.86515947 2.89705289 1.97981429 13.2321356 1.97981429 0 0 0"></polygon>
                        </g>
                        <g id="DejaVuSans-6f-link" transform="translate(150.273314, 0.000000)" fill="#000000" fill-rule="nonzero">
                            <path d="M5.18691966,10.2963262 C4.19216795,10.2963262 3.40519446,9.90768403 2.82599919,9.13039968 C2.24680393,8.35311533 1.9572063,7.28838649 1.9572063,5.93621316 C1.9572063,4.58403983 2.24465079,3.51931099 2.81953977,2.74202665 C3.39658189,1.9647423 4.18570852,1.57610012 5.18691966,1.57610012 C6.17736509,1.57610012 6.96110887,1.96581887 7.53815099,2.74525636 C8.11734625,3.52684699 8.40694388,4.59049926 8.40694388,5.93621316 C8.40694388,7.27546764 8.11734625,8.33696676 7.53815099,9.12071054 C6.96110887,9.90445431 6.17736509,10.2963262 5.18691966,10.2963262 Z M5.18691966,11.8691966 C6.80177634,11.8691966 8.06997712,11.3438299 8.991522,10.2930965 C9.91522002,9.24451622 10.377069,7.79222177 10.377069,5.93621316 C10.377069,4.08666398 9.91522002,2.63436953 8.991522,1.57932983 C8.06997712,0.526443278 6.80177634,0 5.18691966,0 C3.56560355,0 2.29524963,0.526443278 1.37585789,1.57932983 C0.458619298,2.63436953 0,4.08666398 0,5.93621316 C0,7.79222177 0.458619298,9.24451622 1.37585789,10.2930965 C2.29524963,11.3438299 3.56560355,11.8691966 5.18691966,11.8691966 Z" id="DejaVuSans-6f"></path>
                        </g>
                        <g id="DejaVuSans-64-link" transform="translate(162.919661, 0.000000)" fill="#000000" fill-rule="nonzero">
                            <path d="M8.24545822,9.88292289 L8.24545822,16 L10.1025434,16 L10.1025434,0.293903916 L8.24545822,0.293903916 L8.24545822,1.98950343 C7.85573947,1.31772305 7.3626699,0.818194052 6.7662495,0.490916431 C6.17198224,0.16363881 5.45713901,0 4.62171982,0 C3.25662764,0 2.14452967,0.544744987 1.28542592,1.63423496 C0.428475306,2.72587808 0,4.15987081 0,5.93621316 C0,7.71255551 0.428475306,9.14547167 1.28542592,10.2349616 C2.14452967,11.3244516 3.25662764,11.8691966 4.62171982,11.8691966 C5.45713901,11.8691966 6.17198224,11.7055578 6.7662495,11.3782802 C7.3626699,11.0531557 7.85573947,10.5547033 8.24545822,9.88292289 Z M1.91844974,5.93621316 C1.91844974,4.57112098 2.1994348,3.49993271 2.76140493,2.72264836 C3.32337505,1.94536402 4.09527654,1.55672184 5.07710941,1.55672184 C6.05894227,1.55672184 6.83192033,1.94536402 7.3960436,2.72264836 C7.96232001,3.49993271 8.24545822,4.57112098 8.24545822,5.93621316 C8.24545822,7.30130534 7.96232001,8.37249361 7.3960436,9.14977796 C6.83192033,9.92706231 6.05894227,10.3157045 5.07710941,10.3157045 C4.09527654,10.3157045 3.32337505,9.92706231 2.76140493,9.14977796 C2.1994348,8.37249361 1.91844974,7.30130534 1.91844974,5.93621316 Z" id="DejaVuSans-64"></path>
                        </g>
                        <g id="DejaVuSans-65-link" transform="translate(176.040371, 0.000000)" fill="#000000" fill-rule="nonzero">
                            <path d="M10.4771901,6.41098103 L10.4771901,5.50343157 L1.93782802,5.50343157 C2.01964742,4.22446508 2.40505988,3.25016821 3.0940654,2.58054098 C3.78307092,1.91091374 4.74337236,1.57610012 5.97496972,1.57610012 C6.6876598,1.57610012 7.37881846,1.66330238 8.0484457,1.8377069 C8.71807294,2.01211143 9.38339389,2.27479478 10.0444086,2.62575696 L10.0444086,0.868792895 C9.37693446,0.586731261 8.6933118,0.371417037 7.99354057,0.222850222 C7.29376934,0.0742834073 6.58430898,0 5.86515947,0 C4.06082627,0 2.63221639,0.524290136 1.57932983,1.57287041 C0.526443278,2.62360382 0,4.0446777 0,5.83609205 C0,7.68564123 0.499529,9.15300767 1.498587,10.2381914 C2.497645,11.3255282 3.84551204,11.8691966 5.54218813,11.8691966 C7.06230655,11.8691966 8.2648365,11.3793567 9.14977796,10.399677 C10.0347194,9.42215045 10.4771901,8.09258512 10.4771901,6.41098103 Z M8.62010497,6.95680258 C8.60718611,7.97093258 8.32297134,8.78051406 7.76746064,9.38554703 C7.21194994,9.99273314 6.47665186,10.2963262 5.56156641,10.2963262 C4.52590499,10.2963262 3.69694523,10.0034989 3.07468712,9.41784417 C2.45242901,8.83218948 2.09393083,8.007536 1.99919257,6.94388373 L8.62010497,6.95680258 Z" id="DejaVuSans-65"></path>
                        </g>
                    </g>
                </g>
                <g id="text_6" transform="translate(439.302451, 101.980597)">
                    <g id="Group" transform="translate(50.326606, 8.000000) scale(-1, 1) rotate(-180.000000) translate(-50.326606, -8.000000) ">
                        <g id="DejaVuSans-67-link" fill="#000000" fill-rule="nonzero">
                            <path d="M6.59476913,8.06457862 C6.59476913,9.14088903 6.37261866,9.97438381 5.92831773,10.565063 C5.48573889,11.1574642 4.86320095,11.4536648 4.06070391,11.4536648 C3.26509525,11.4536648 2.64514046,11.1574642 2.20083952,10.565063 C1.75653859,9.97438381 1.53438812,9.14088903 1.53438812,8.06457862 C1.53438812,6.99343451 1.75653859,6.16166182 2.20083952,5.56926057 C2.64514046,4.97685933 3.26509525,4.6806587 4.06070391,4.6806587 C4.86320095,4.6806587 5.48573889,4.97685933 5.92831773,5.56926057 C6.37261866,6.16166182 6.59476913,6.99343451 6.59476913,8.06457862 Z M8.08007749,4.55925089 C8.08007749,3.02141858 7.73824131,1.87708535 7.05456894,1.12625121 C6.37261866,0.37541707 5.32644495,0 3.91604779,0 C3.3942525,0 2.90173286,0.0387471747 2.43848886,0.116241524 C1.97524486,0.193735873 1.52577763,0.313421591 1.09008718,0.475298676 L1.09008718,1.91927672 C1.52577763,1.68334948 1.9563018,1.50941772 2.38165967,1.39748143 C2.80701754,1.28382305 3.24012485,1.22699387 3.6809816,1.22699387 C4.6556883,1.22699387 5.38499623,1.48100312 5.86890539,1.98902163 C6.35281455,2.49704015 6.59476913,3.26509525 6.59476913,4.29318696 L6.59476913,5.02938327 C6.28823593,4.49553331 5.89559789,4.09686794 5.41685502,3.83338715 C4.93811215,3.56990636 4.36465397,3.43816597 3.69648046,3.43816597 C2.58917232,3.43816597 1.6962652,3.86007965 1.01775912,4.70390701 C0.339253041,5.54945646 0,6.66968034 0,8.06457862 C0,9.46292111 0.339253041,10.584006 1.01775912,11.4278334 C1.6962652,12.2733828 2.58917232,12.6961576 3.69648046,12.6961576 C4.36465397,12.6961576 4.93811215,12.5644172 5.41685502,12.3009364 C5.89559789,12.0374556 6.28823593,11.6396513 6.59476913,11.1075234 L6.59476913,12.4791734 L8.08007749,12.4791734 L8.08007749,4.55925089 Z" id="DejaVuSans-67"></path>
                        </g>
                        <g id="DejaVuSans-52-link" transform="translate(11.204391, 3.438166)" fill="#000000" fill-rule="nonzero">
                            <path d="M5.71649984,5.65192121 C6.06608546,5.53309655 6.40619955,5.27994834 6.73684211,4.89247659 C7.06748466,4.50500484 7.39984932,3.97201593 7.73393607,3.29350985 L9.389732,0 L7.63577656,0 L6.09622215,3.09202454 C5.69669573,3.89968787 5.31008503,4.43525993 4.93639005,4.69874072 C4.56269508,4.9622215 4.05295447,5.0939619 3.40716823,5.0939619 L1.62996448,5.0939619 L1.62996448,0 L0,0 L0,12.0529545 L3.6809816,12.0529545 C5.05865892,12.0529545 6.08675062,11.7645033 6.7652567,11.1876009 C7.44376278,10.6124206 7.78301582,9.74362286 7.78301582,8.58120762 C7.78301582,7.821763 7.60650091,7.19147562 7.2534711,6.6903455 C6.90044129,6.19093747 6.38811753,5.84479604 5.71649984,5.65192121 Z M1.62996448,10.7123022 L1.62996448,6.43461414 L3.6809816,6.43461414 C4.46625767,6.43461414 5.05951997,6.61629534 5.46076849,6.97965773 C5.86201701,7.34302013 6.06264127,7.87687009 6.06264127,8.58120762 C6.06264127,9.28554515 5.86201701,9.81681197 5.46076849,10.1750081 C5.05951997,10.5332042 4.46625767,10.7123022 3.6809816,10.7123022 L1.62996448,10.7123022 Z" id="DejaVuSans-52"></path>
                        </g>
                        <g id="DejaVuSans-50-link" transform="translate(22.691314, 3.438166)" fill="#000000" fill-rule="nonzero">
                            <path d="M1.62996448,10.7123022 L1.62996448,6.18404908 L3.6809816,6.18404908 C4.44042622,6.18404908 5.02680013,6.3803681 5.44010333,6.77300613 C5.85512862,7.16564417 6.06264127,7.72532558 6.06264127,8.45205037 C6.06264127,9.17360887 5.85512862,9.73070714 5.44010333,10.1233452 C5.02680013,10.5159832 4.44042622,10.7123022 3.6809816,10.7123022 L1.62996448,10.7123022 Z M0,12.0529545 L3.6809816,12.0529545 C5.03282747,12.0529545 6.05403078,11.7472823 6.74459154,11.135938 C7.43687439,10.5245937 7.78301582,9.62996448 7.78301582,8.45205037 C7.78301582,7.26208158 7.43687439,6.36314713 6.74459154,5.75524701 C6.05403078,5.14734689 5.03282747,4.84339684 3.6809816,4.84339684 L1.62996448,4.84339684 L1.62996448,0 L0,0 L0,12.0529545 Z" id="DejaVuSans-50"></path>
                        </g>
                        <g id="DejaVuSans-43-link" transform="translate(31.965773, 3.203100)" fill="#000000" fill-rule="nonzero">
                            <path d="M9.72037456,11.3580885 L9.72037456,9.64029706 C9.17102572,10.1517598 8.58551286,10.5332042 7.96383597,10.7846303 C7.34215908,11.0377785 6.68173501,11.1643526 5.98256377,11.1643526 C4.60488645,11.1643526 3.55010225,10.7433 2.81821117,9.9011947 C2.08632009,9.05908944 1.72037456,7.84156711 1.72037456,6.2486277 C1.72037456,4.66085459 2.08632009,3.4459154 2.81821117,2.60381014 C3.55010225,1.76170488 4.60488645,1.34065224 5.98256377,1.34065224 C6.68173501,1.34065224 7.34215908,1.46722635 7.96383597,1.72037456 C8.58551286,1.97352276 9.17102572,2.35582822 9.72037456,2.86729093 L9.72037456,1.16241524 C9.15036056,0.774943494 8.54590464,0.483909159 7.90700678,0.289312238 C7.26983102,0.0964374125 6.59649123,0 5.88698741,0 C4.06156496,0 2.62361425,0.557959315 1.57313529,1.67387795 C0.524378431,2.79151867 0,4.31643526 0,6.2486277 C0,8.18598644 0.524378431,9.71262512 1.57313529,10.8285438 C2.62361425,11.9461845 4.06156496,12.5050048 5.88698741,12.5050048 C6.60682381,12.5050048 7.28532989,12.4094285 7.92250565,12.2182758 C8.56140351,12.027123 9.16069314,11.7403939 9.72037456,11.3580885 Z" id="DejaVuSans-43"></path>
                        </g>
                        <g id="DejaVuSans-20" transform="translate(42.581853, 3.438166)"></g>
                        <g id="DejaVuSans-4d-link" transform="translate(49.459154, 3.438166)" fill="#000000" fill-rule="nonzero">
                            <polygon id="DejaVuSans-4d" points="0 12.0529545 2.43073943 12.0529545 5.50468195 3.85146916 8.59670649 12.0529545 11.0274459 12.0529545 11.0274459 0 9.43622861 0 9.43622861 10.583145 6.3287052 2.31708105 4.69099128 2.31708105 1.58346787 10.583145 1.58346787 0 0 0"></polygon>
                        </g>
                        <g id="DejaVuSans-6f-link" transform="translate(63.012593, 3.203100)" fill="#000000" fill-rule="nonzero">
                            <path d="M4.14853084,8.23506619 C3.35292218,8.23506619 2.72349586,7.92422775 2.26025186,7.30255086 C1.79700786,6.68087396 1.56538586,5.82929717 1.56538586,4.74782047 C1.56538586,3.66634377 1.79528576,2.81476698 2.25508557,2.19309009 C2.71660747,1.5714132 3.34775589,1.26057475 4.14853084,1.26057475 C4.9406953,1.26057475 5.56753848,1.57227424 6.02906038,2.19567323 C6.49230438,2.82079432 6.72392638,3.67151006 6.72392638,4.74782047 C6.72392638,5.81896459 6.49230438,6.66795824 6.02906038,7.29480142 C5.56753848,7.9216446 4.9406953,8.23506619 4.14853084,8.23506619 Z M4.14853084,9.4930578 C5.44010333,9.4930578 6.45441825,9.07286621 7.19147562,8.23248305 C7.93025509,7.39382198 8.29964482,6.23226779 8.29964482,4.74782047 C8.29964482,3.26853945 7.93025509,2.10698525 7.19147562,1.26315789 C6.45441825,0.421052632 5.44010333,0 4.14853084,0 C2.85179206,0 1.83575503,0.421052632 1.10041976,1.26315789 C0.366806587,2.10698525 0,3.26853945 0,4.74782047 C0,6.23226779 0.366806587,7.39382198 1.10041976,8.23248305 C1.83575503,9.07286621 2.85179206,9.4930578 4.14853084,9.4930578 Z" id="DejaVuSans-6f"></path>
                        </g>
                        <g id="DejaVuSans-64-link" transform="translate(73.127220, 3.203100)" fill="#000000" fill-rule="nonzero">
                            <path d="M6.59476913,7.90442364 L6.59476913,12.7969002 L8.08007749,12.7969002 L8.08007749,0.235066193 L6.59476913,0.235066193 L6.59476913,1.59121731 C6.28306964,1.05392315 5.8887095,0.654396728 5.41168873,0.392638037 C4.93639005,0.130879346 4.36465397,0 3.69648046,0 C2.60467119,0 1.71520827,0.435690453 1.0280917,1.30707136 C0.342697234,2.18017436 0,3.32709073 0,4.74782047 C0,6.16855021 0.342697234,7.31460553 1.0280917,8.18598644 C1.71520827,9.05736734 2.60467119,9.4930578 3.69648046,9.4930578 C4.36465397,9.4930578 4.93639005,9.36217845 5.41168873,9.10041976 C5.8887095,8.84038317 6.28306964,8.44171779 6.59476913,7.90442364 Z M1.53438812,4.74782047 C1.53438812,3.65601119 1.75912173,2.79926811 2.20858896,2.17759122 C2.65805618,1.55591433 3.27542783,1.24507588 4.06070391,1.24507588 C4.84597998,1.24507588 5.46421268,1.55591433 5.915402,2.17759122 C6.36831342,2.79926811 6.59476913,3.65601119 6.59476913,4.74782047 C6.59476913,5.83962975 6.36831342,6.69637283 5.915402,7.31804973 C5.46421268,7.93972662 4.84597998,8.25056506 4.06070391,8.25056506 C3.27542783,8.25056506 2.65805618,7.93972662 2.20858896,7.31804973 C1.75912173,6.69637283 1.53438812,5.83962975 1.53438812,4.74782047 Z" id="DejaVuSans-64"></path>
                        </g>
                        <g id="DejaVuSans-65-link" transform="translate(83.621246, 3.203100)" fill="#000000" fill-rule="nonzero">
                            <path d="M8.37972231,5.12754278 L8.37972231,4.40167904 L1.54988699,4.40167904 C1.61532666,3.37875363 1.92358196,2.5995049 2.47465289,2.06393284 C3.02572382,1.52836078 3.79377893,1.26057475 4.77881821,1.26057475 C5.3488322,1.26057475 5.90162523,1.33031966 6.43719729,1.46980949 C6.97276935,1.60929932 7.50489721,1.81939511 8.03358088,2.10009687 L8.03358088,0.694865999 C7.49973092,0.469271338 6.95296524,0.297061673 6.39328382,0.178237004 C5.83360241,0.0594123345 5.26617156,0 4.69099128,0 C3.24787429,0 2.10526316,0.419330535 1.26315789,1.2579916 C0.421052632,2.09837477 0,3.23495856 0,4.66774298 C0,6.147024 0.399526423,7.32063287 1.19857927,8.18856958 C1.99763212,9.05822839 3.07566462,9.4930578 4.43267678,9.4930578 C5.64847702,9.4930578 6.610268,9.10128081 7.31804973,8.31772683 C8.02583145,7.53589495 8.37972231,6.47250027 8.37972231,5.12754278 Z M6.89441395,5.56409428 C6.88408137,6.37520181 6.65676461,7.02271015 6.21246367,7.50661931 C5.76816274,7.99225057 5.18006673,8.23506619 4.44817565,8.23506619 C3.61984716,8.23506619 2.95683995,8.00086105 2.45915402,7.53245076 C1.96146809,7.06404047 1.67473899,6.40447745 1.59896674,5.5537617 L6.89441395,5.56409428 Z" id="DejaVuSans-65"></path>
                        </g>
                        <g id="DejaVuSans-2a-link" transform="translate(93.373910, 8.167904)" fill="#000000" fill-rule="nonzero">
                            <polygon id="DejaVuSans-2a" points="7.27930255 5.33677753 4.38359703 3.77139167 7.27930255 2.19567323 6.81175331 1.40523087 4.09945108 3.04294479 4.09945108 0 3.17985147 0 3.17985147 3.04294479 0.467549241 1.40523087 0 2.19567323 2.89828867 3.77139167 0 5.33677753 0.467549241 6.13496933 3.17985147 4.49725541 3.17985147 7.54020019 4.09945108 7.54020019 4.09945108 4.49725541 6.81175331 6.13496933"></polygon>
                        </g>
                    </g>
                </g>
            </g>
        </g>
    </g>
</svg>