<svg xmlns="http://www.w3.org/2000/svg" xmlns:xlink="http://www.w3.org/1999/xlink" width="939" height="734" version="1.1" viewBox="0 0 939 734" style="fill:none;stroke:none;fill-rule:evenodd;clip-rule:evenodd;stroke-linecap:round;stroke-linejoin:round;stroke-miterlimit:1.5"><style id="fontImports">@import url(https://fonts.googleapis.com/css2?family=Roboto:wght@400;700&amp;display=block);</style><rect width="938.5" height="734" x="0" y="0" style="fill:#fff"/><g id="items" style="isolation:isolate"><g id="blend" style="mix-blend-mode:normal"><g id="g-root-tf_18ntiuhcj658p-fill" data-item-order="-685518" transform="translate(-9, -9)"><g id="tf_18ntiuhcj658p-fill" fill="#fff" stroke="none"><g><path d="M 10 10L 946.5 10L 946.5 742L 10 742Z"/></g></g></g><g id="g-root-tx_envoy_4nk7u1cjbqx1-fill" data-item-order="0" transform="translate(381, 39)"><g id="tx_envoy_4nk7u1cjbqx1-fill" fill="#484848" stroke="none"><g><text style="font:700 20px Roboto,sans-serif;white-space:pre" font-family="Roboto, sans-serif" font-size="20" font-weight="bold"><tspan x="12" y="33.5" dominant-baseline="ideographic">本书结构</tspan></text></g></g></g><g id="g-root-tx__144vnahcj64ui-fill" data-item-order="0" transform="translate(735, 123)"><g id="tx__144vnahcj64ui-fill" fill="#484848" stroke="none"><g><text style="font:20px Roboto,sans-serif;white-space:pre" font-family="Roboto, sans-serif" font-size="20"><tspan x="16" y="33.5" dominant-baseline="ideographic">实践与参考</tspan></text></g></g></g><g id="g-root-tx__zp2561cj65mr-fill" data-item-order="0" transform="translate(651, 195)"><g id="tx__zp2561cj65mr-fill" fill="#484848" stroke="none"><g><text style="font:20px Roboto,sans-serif;white-space:pre" font-family="Roboto, sans-serif" font-size="20"><tspan x="12" y="33.5" dominant-baseline="ideographic">服务网格</tspan></text></g></g></g><g id="g-root-tx__1hfpokpcj66fd-fill" data-item-order="0" transform="translate(579, 267)"><g id="tx__1hfpokpcj66fd-fill" fill="#484848" stroke="none"><g><text style="font:20px Roboto,sans-serif;white-space:pre" font-family="Roboto, sans-serif" font-size="20"><tspan x="16" y="33.5" dominant-baseline="ideographic">网关</tspan></text></g></g></g><g id="g-root-tx__dil3mxcj64uk-fill" data-item-order="0" transform="translate(447, 339)"><g id="tx__dil3mxcj64uk-fill" fill="#484848" stroke="none"><g><text style="font:20px Roboto,sans-serif;white-space:pre" font-family="Roboto, sans-serif" font-size="20"><tspan x="20" y="33.5" dominant-baseline="ideographic">安全性</tspan></text></g></g></g><g id="g-root-tx__92rlihcj65mt-fill" data-item-order="0" transform="translate(327, 411)"><g id="tx__92rlihcj65mt-fill" fill="#484848" stroke="none"><g><text style="font:20px Roboto,sans-serif;white-space:pre" font-family="Roboto, sans-serif" font-size="20"><tspan x="12" y="33.5" dominant-baseline="ideographic">可观测性</tspan></text></g></g></g><g id="g-root-tx__1usf549cj670m-fill" data-item-order="0" transform="translate(219, 483)"><g id="tx__1usf549cj670m-fill" fill="#484848" stroke="none"><g><text style="font:20px Roboto,sans-serif;white-space:pre" font-family="Roboto, sans-serif" font-size="20"><tspan x="12" y="33.5" dominant-baseline="ideographic">核心功能</tspan></text></g></g></g><g id="g-root-tx__1lxelyhcj64nj-fill" data-item-order="0" transform="translate(147, 555)"><g id="tx__1lxelyhcj64nj-fill" fill="#484848" stroke="none"><g><text style="font:20px Roboto,sans-serif;white-space:pre" font-family="Roboto, sans-serif" font-size="20"><tspan x="16" y="33.5" dominant-baseline="ideographic">架构</tspan></text></g></g></g><g id="g-root-tx__1464lgpcj670o-fill" data-item-order="0" transform="translate(15, 627)"><g id="tx__1464lgpcj670o-fill" fill="#484848" stroke="none"><g><text style="font:20px Roboto,sans-serif;white-space:pre" font-family="Roboto, sans-serif" font-size="20"><tspan x="12" y="33.5" dominant-baseline="ideographic">基础知识</tspan></text></g></g></g><g id="g-root--1.line_sy_92r8vdcjbtak-stroke" data-item-order="-357355" transform="translate(159, 195)"><g id="-1.line_sy_92r8vdcjbtak-stroke" fill="none" stroke="#969696" stroke-linecap="round" stroke-linejoin="round" stroke-miterlimit="4" stroke-width="2"><g><path d="M 10 490L 10 466L 46 466L 46 442L 82 442L 82 418L 118 418L 118 394L 154 394L 154 370L 190 370L 190 346L 226 346L 226 322L 262 322L 262 298L 298 298L 298 274L 334 274L 334 250L 370 250L 370 226L 406 226L 406 202L 442 202L 442 178L 478 178L 478 154L 514 154L 514 130L 550 130L 550 106L 586 106L 586 82L 622 82L 622 58.5L 658 58.5L 658 34L 694 34L 694 10L 754.5 10"/></g></g></g><g id="g-root-2_4iklgpciqqrv-stroke" data-item-order="0" transform="translate(855, 111)"><g id="2_4iklgpciqqrv-stroke" fill="none" stroke="#3cc583" stroke-linecap="round" stroke-linejoin="round" stroke-miterlimit="4" stroke-width="2"><g><path d="M 34.302002 19.605999L 34.302002 26.299999L 27.534 28.638L 20.765999 26.299999L 20.765999 19.605999M 41.068001 16.737999L 27.534 11L 14 16.737999L 27.534 22.473999L 41.068001 16.737999ZM 14 16.737999L 14 24.388M 54.799999 41.299999L 54.799999 31.766001C 54.799999 30.95635 54.14365 30.299999 53.334 30.299999L 38.666 30.299999C 37.85635 30.299999 37.199997 30.95635 37.199997 31.765999L 37.200001 41.299999ZM 56.874001 45.838001C 57.075844 46.291595 57.034393 46.816528 56.763859 47.232826C 56.493328 47.649124 56.030479 47.900208 55.534 47.899998L 36.466 47.900002C 35.969521 47.900208 35.506672 47.649124 35.236137 47.232826C 34.965607 46.816528 34.924156 46.291595 35.125999 45.838001L 37.200001 41.299999L 54.799999 41.299999ZM 30.799999 42.891998L 30.799999 40.865997C 30.799999 40.056351 30.14365 39.400002 29.334 39.400002L 14.666 39.400002C 13.85635 39.400002 13.2 40.056351 13.2 40.865997L 13.2 50.400002L 30.799999 50.400002M 32.874001 54.938C 33.075844 55.391598 33.034393 55.916531 32.763859 56.332829C 32.493324 56.749123 32.030479 57.00021 31.534 57L 12.466 57C 11.969522 57.00021 11.506673 56.749123 11.23614 56.332829C 10.965608 55.916531 10.924157 55.391598 11.126 54.938L 13.2 50.400002L 30.799999 50.400002ZM 14 24.388L 11 30.388L 17 30.388L 14 24.388Z"/></g></g></g><g id="g-root-serv_959bjdcjaccl-stroke" data-item-order="0" transform="translate(747, 183)"><g id="serv_959bjdcjaccl-stroke" fill="none" stroke="#1eabda" stroke-linecap="round" stroke-linejoin="round" stroke-miterlimit="4" stroke-width="2"><g><path d="M 51 23.854C 50.966511 21.881111 50.131657 20.006788 48.687508 18.662231C 47.243355 17.317677 45.314247 16.618662 43.343998 16.726C 41.574951 13.192698 37.951328 10.972141 34 11C 28.620384 10.922284 24.105413 15.036353 23.684 20.4C 22.078552 20.044861 20.398424 20.42691 19.104412 21.441368C 17.810402 22.455822 17.038349 23.996189 17 25.639999C 17 31.084 22.911999 31 22.911999 31L 44.348 31C 44.348 31 51 30.158001 51 23.854ZM 23.5 51.498001C 23.224117 51.498001 23.00037 51.721455 23.000004 51.997337C 22.999638 52.273216 23.222792 52.497265 23.498672 52.497997C 23.774551 52.498734 23.998898 52.275879 24 52C 24.000534 51.867226 23.948027 51.739738 23.854143 51.645855C 23.760258 51.551971 23.632771 51.499466 23.5 51.5L 23.5 51.5M 28.5 51.498001C 28.224119 51.498001 28.00037 51.721455 28.000004 51.997337C 27.999638 52.273216 28.222792 52.497265 28.498672 52.497997C 28.774553 52.498734 28.998896 52.275879 29 52C 29.000534 51.867226 28.948027 51.739738 28.854143 51.645855C 28.760258 51.551971 28.632771 51.499466 28.5 51.5L 28.5 51.5M 51 54C 51 55.656857 49.656857 57 48 57L 20 57C 18.343147 57 17 55.656857 17 54L 17 50C 17 48.343147 18.343147 47 20 47L 48 47C 49.656857 47 51 48.343147 51 50ZM 23.5 41.498001C 23.224117 41.498001 23.00037 41.721455 23.000004 41.997337C 22.999638 42.273216 23.222792 42.497265 23.498672 42.497997C 23.774551 42.498734 23.998898 42.275879 24 42C 24.000534 41.867226 23.948027 41.739738 23.854143 41.645855C 23.760258 41.551971 23.632771 41.499466 23.5 41.5L 23.5 41.5M 28.5 41.498001C 28.224119 41.498001 28.00037 41.721455 28.000004 41.997337C 27.999638 42.273216 28.222792 42.497265 28.498672 42.497997C 28.774553 42.498734 28.998896 42.275879 29 42C 29.000534 41.867226 28.948027 41.739738 28.854143 41.645855C 28.760258 41.551971 28.632771 41.499466 28.5 41.5L 28.5 41.5M 51 44C 51 45.656857 49.656857 47 48 47L 20 47C 18.343147 47 17 45.656857 17 44L 17 40C 17 38.343147 18.343147 37 20 37L 48 37C 49.656857 37 51 38.343147 51 40Z"/></g></g></g><g id="g-root-brow_1ur63s9citjbj-stroke" data-item-order="0" transform="translate(639, 255)"><g id="brow_1ur63s9citjbj-stroke" fill="none" stroke="#4e88e7" stroke-linecap="round" stroke-linejoin="round" stroke-miterlimit="4" stroke-width="2"><g><path d="M 11 19L 51 19M 17 14.5C 16.723858 14.5 16.5 14.723858 16.5 15C 16.5 15.276142 16.723858 15.5 17 15.5C 17.276142 15.5 17.5 15.276142 17.5 15C 17.5 14.723858 17.276142 14.5 17 14.5L 17 14.5M 21 14.5C 20.723858 14.5 20.5 14.723858 20.5 15C 20.5 15.276142 20.723858 15.5 21 15.5C 21.276142 15.5 21.5 15.276142 21.5 15C 21.5 14.723858 21.276142 14.5 21 14.5L 21 14.5M 25 14.5C 24.723858 14.5 24.5 14.723858 24.5 15C 24.5 15.276142 24.723858 15.5 25 15.5C 25.276142 15.5 25.5 15.276142 25.5 15C 25.5 14.723858 25.276142 14.5 25 14.5L 25 14.5M 25 43L 15 43C 12.790861 43 11 41.209137 11 39L 11 15C 11 12.790861 12.790861 11 15 11L 47 11C 49.209141 11 51 12.790861 51 15L 51 27M 43 57C 39 54 37 48 37 43C 37 38 39 32 43 29M 43 57C 47 54 49 48 49 43C 49 38 47 32 43 29M 30.348 37L 55.652 37M 30.348 49L 55.652 49M 29 43L 57 43M 29 43C 29.000002 50.731987 35.268013 57 43 57C 50.731987 57 57 50.731987 57 43C 57 35.268013 50.731987 29.000002 43 29.000002C 35.268013 29.000002 29.000002 35.268013 29.000002 43Z"/></g></g></g><g id="g-root-chec_dcyqp5ciz66c-stroke" data-item-order="0" transform="translate(531, 327)"><g id="chec_dcyqp5ciz66c-stroke" fill="none" stroke="#ba5de5" stroke-linecap="round" stroke-linejoin="round" stroke-miterlimit="4" stroke-width="2"><g><path d="M 45 24L 32.93 41.464001L 23.774 32.304001M 14 17.549999L 14 32.823997C 13.983479 42.968212 20.202927 52.079685 29.656 55.759998L 31.790001 56.588001C 33.211998 57.138035 34.788002 57.138035 36.209999 56.588001L 38.344002 55.759998C 47.797073 52.079685 54.016521 42.968212 54 32.823997L 54 17.549999C 54.009754 16.344622 53.313648 15.244927 52.220001 14.738001C 46.47974 12.216312 40.269463 10.942217 34 11C 27.730537 10.942217 21.52026 12.216312 15.78 14.738C 14.686356 15.244927 13.990248 16.344622 14 17.549999Z"/></g></g></g><g id="g-root-acti_1hi7hrdcj66f6-stroke" data-item-order="0" transform="translate(423, 399)"><g id="acti_1hi7hrdcj66f6-stroke" fill="none" stroke="#de58a9" stroke-linecap="round" stroke-linejoin="round" stroke-miterlimit="4" stroke-width="2"><g><path d="M 15 12L 53 12C 53 12 57 12 57 16L 57 40C 57 40 57 44 53 44L 15 44C 15 44 11 44 11 40L 11 16C 11 16 11 12 15 12M 17 16L 27 16C 27 16 29 16 29 18L 29 24C 29 24 29 26 27 26L 17 26C 17 26 15 26 15 24L 15 18C 15 18 15 16 17 16M 33 12L 53 12C 55.209141 12 57 13.790861 57 16L 57 36L 57 36L 37 36C 34.790863 36 33 34.209137 33 32L 33 12L 33 12ZM 37 24C 37 28.418278 40.581722 32 45 32C 49.418278 32 53 28.418278 53 24C 53 19.581722 49.418278 16 45 16C 40.581722 16 37 19.581722 37 24M 41 24C 41 26.209139 42.790859 28 45 28C 47.209141 28 49 26.209139 49 24C 49 21.790861 47.209141 20 45 20C 42.790859 20 41 21.790861 41 24M 31 44L 37 44L 37 56L 31 56ZM 25 56L 43 56M 19 20L 19 22M 19 37C 19 38.656853 20.343147 40 22 40C 23.656855 40 25 38.656853 25 37C 25 35.343147 23.656855 34 22 34C 20.343147 34 19 35.343147 19 37M 31 50L 21 50M 13 48C 11.895431 48 11 48.895432 11 50C 11 51.104568 11.895431 52 13 52L 21 52L 21 48Z"/></g></g></g><g id="g-root-2_1cy0r6xcis5xn-stroke" data-item-order="0" transform="translate(315, 471)"><g id="2_1cy0r6xcis5xn-stroke" fill="none" stroke="#e55753" stroke-linecap="round" stroke-linejoin="round" stroke-miterlimit="4" stroke-width="2"><g><path d="M 38 42L 38 26C 32.47715 26 28 30.477152 28 36L 28 38L 38 38M 17 17L 50.995998 17C 50.995998 17 52.995998 17 52.995998 19L 52.995998 49C 52.995998 49 52.995998 51 50.995998 51L 17 51C 17 51 15 51 15 49L 15 19C 15 19 15 17 17 17M 34 13L 34 17M 23.004 13L 23.004 17M 11 34L 15 34M 11 43L 15 43M 11 25L 15 25M 57 34L 53 34M 57 43L 53 43M 57 25L 53 25M 34 55L 34 51M 23.004 55L 23.004 51M 44.995998 13L 44.995998 17M 44.995998 55L 44.995998 51"/></g></g></g><g id="g-root-hous_dhc5gpcj1xqd-stroke" data-item-order="0" transform="translate(207, 543)"><g id="hous_dhc5gpcj1xqd-stroke" fill="none" stroke="#de8431" stroke-linecap="round" stroke-linejoin="round" stroke-miterlimit="4" stroke-width="2"><g><path d="M 30.5 41L 17 41C 16.685242 41 16.388855 41.148193 16.200001 41.400002L 11.7 47.400002C 11.472736 47.703018 11.436181 48.108429 11.605573 48.447212C 11.774965 48.785999 12.121228 49 12.5 49L 24 49C 24.314758 49 24.611145 48.851807 24.799999 48.599998ZM 36.5 49L 30.5 41M 12.5 49L 12.5 56C 12.5 56.552284 12.947716 57 13.5 57L 26.5 57L 26.5 46.334M 26.5 57L 33.5 57C 34.052284 57 34.5 56.552284 34.5 56L 34.5 46.334M 56.5 21L 48.799999 11.376C 48.610558 11.138762 48.323597 11.000433 48.02 11L 30.98 11C 30.676403 11.000433 30.389444 11.138762 30.200001 11.376L 23.799999 19.375999C 23.56039 19.676056 23.513758 20.086815 23.680004 20.432949C 23.846252 20.779083 24.196012 20.999454 24.58 21L 40.02 21C 40.323597 20.999567 40.610558 20.861237 40.799999 20.624001L 48.417999 11.084M 30.5 53L 30.5 57M 42.5 51L 53.5 51C 54.052284 51 54.5 50.552284 54.5 50L 54.5 18.5M 39.506001 51L 42.5 51L 42.5 18.5M 24.5 21L 24.5 37M 46.5 23L 46.5 25M 50.5 23L 50.5 25M 46.5 31L 46.5 33M 50.5 31L 50.5 33M 46.5 39L 46.5 41M 50.5 39L 50.5 41"/></g></g></g><g id="g-root-cog_1qbcotlcj65mo-stroke" data-item-order="0" transform="translate(99, 615)"><g id="cog_1qbcotlcj65mo-stroke" fill="none" stroke="#e0cb15" stroke-linecap="round" stroke-linejoin="round" stroke-miterlimit="4" stroke-width="2"><g><path d="M 27.931429 17.714285L 29.405714 13.908571C 29.914598 12.589765 31.18071 11.718461 32.594288 11.714286L 35.405712 11.714286C 36.81929 11.718461 38.085403 12.589765 38.594288 13.908571L 40.068573 17.714285L 45.074284 20.594286L 49.119999 19.977142C 50.497784 19.790129 51.852093 20.453739 52.548573 21.657143L 53.920002 24.057142C 54.6394 25.280834 54.530342 26.821299 53.645714 27.931429L 51.142857 31.119999L 51.142857 36.880001L 53.714287 40.068573C 54.598911 41.178703 54.70797 42.719166 53.988571 43.942856L 52.617146 46.342857C 51.920662 47.546261 50.566357 48.209869 49.188572 48.022858L 45.142857 47.405716L 40.137142 50.285713L 38.662857 54.091427C 38.153973 55.410236 36.887859 56.28154 35.474285 56.285713L 32.594288 56.285713C 31.18071 56.28154 29.914598 55.410236 29.405714 54.091427L 27.931429 50.285713L 22.925714 47.405716L 18.879999 48.022858C 17.502214 48.209869 16.147907 47.546261 15.451428 46.342857L 14.08 43.942856C 13.360601 42.719166 13.469661 41.178703 14.354285 40.068573L 16.857143 36.880001L 16.857143 31.119999L 14.285714 27.931429C 13.401089 26.821299 13.292029 25.280834 14.011429 24.057142L 15.382857 21.657143C 16.079336 20.453739 17.433643 19.790129 18.811428 19.977142L 22.857143 20.594286ZM 23.714287 34C 23.714287 39.680645 28.319357 44.285713 34 44.285713C 39.680645 44.285713 44.285713 39.680645 44.285713 34C 44.285713 28.319357 39.680645 23.714287 34 23.714287C 28.319357 23.714287 23.714287 28.319357 23.714287 34M 23.714287 34L 44.285713 34M 34 23.714287L 34 44.285713"/></g></g></g></g></g></svg>