<?xml version="1.0" encoding="UTF-8" standalone="no"?>
<!DOCTYPE svg PUBLIC "-//W3C//DTD SVG 1.1//EN" "http://www.w3.org/Graphics/SVG/1.1/DTD/svg11.dtd">
<svg xmlns="http://www.w3.org/2000/svg" xmlns:xl="http://www.w3.org/1999/xlink" version="1.1" xmlns:dc="http://purl.org/dc/elements/1.1/" viewBox="134 124 1021 350" width="1021" height="350">
  <defs>
    <marker orient="auto" overflow="visible" markerUnits="strokeWidth" id="FilledArrow_Marker" stroke-linejoin="miter" stroke-miterlimit="10" viewBox="-1 -3 6 6" markerWidth="6" markerHeight="6" color="#666">
      <g>
        <path d="M 3.2 0 L 0 -1.2 L 0 1.2 Z" fill="currentColor" stroke="currentColor" stroke-width="1"/>
      </g>
    </marker>
  </defs>
  <g id="Canvas_1" fill-opacity="1" stroke-dasharray="none" stroke="none" fill="none" stroke-opacity="1">
    <title>Canvas 1</title>
    <rect fill="white" x="134" y="124" width="1021" height="350"/>
    <g id="Canvas_1_Layer_1">
      <title>Layer 1</title>
      <g id="Graphic_15"/>
      <g id="Graphic_13">
        <path d="M 565 173.48692 L 687 173.48692 C 700.2548 173.48692 711 184.2321 711 197.48692 L 711 428.4869 C 711 441.74176 700.2548 452.4869 687 452.4869 L 565 452.4869 C 551.74517 452.4869 541 441.74176 541 428.4869 L 541 197.48692 C 541 184.2321 551.74517 173.48692 565 173.48692 Z" stroke="#856bb0" stroke-linecap="round" stroke-linejoin="round" stroke-width="4"/>
      </g>
      <g id="Graphic_2">
        <path d="M 191 269 L 247 269 C 261.9117 269 274 281.0883 274 296 L 274 302 C 274 316.9117 261.9117 329 247 329 L 191 329 C 176.08831 329 164 316.9117 164 302 L 164 296 C 164 281.0883 176.08831 269 191 269 Z" fill="#62c386"/>
        <text transform="translate(169 289.26794)" fill="white">
          <tspan font-family="Helvetica Neue" font-size="16" fill="white" x="28.664" y="16" xml:space="preserve">Client</tspan>
        </text>
      </g>
      <g id="Graphic_3">
        <path d="M 447.4146 258.5 L 549.3498 258.5 C 564.2615 258.5 576.3498 270.5883 576.3498 285.5 L 576.3498 312.5 C 576.3498 327.4117 564.2615 339.5 549.3498 339.5 L 447.4146 339.5 C 432.5029 339.5 420.4146 327.4117 420.4146 312.5 L 420.4146 285.5 C 420.4146 270.5883 432.5029 258.5 447.4146 258.5 Z" fill="#f7bd4a"/>
        <text transform="translate(425.4146 279.5359)" fill="black">
          <tspan font-family="Helvetica Neue" font-size="16" fill="black" x="15.60762" y="16" xml:space="preserve">Envoy Gateway</tspan>
          <tspan font-family="Helvetica Neue" font-size="16" fill="black" x="38.87962" y="35.46411" xml:space="preserve">(Listener)</tspan>
        </text>
      </g>
      <g id="Graphic_5">
        <path d="M 926.5216 269 L 1028.4568 269 C 1043.3685 269 1055.4568 281.0883 1055.4568 296 L 1055.4568 302 C 1055.4568 316.9117 1043.3685 329 1028.4568 329 L 926.5216 329 C 911.6099 329 899.5216 316.9117 899.5216 302 L 899.5216 296 C 899.5216 281.0883 911.6099 269 926.5216 269 Z" fill="#6aa9ea"/>
        <text transform="translate(904.5216 279.5359)" fill="white">
          <tspan font-family="Helvetica Neue" font-size="16" fill="white" x="32.50362" y="16" xml:space="preserve">Final HTTP </tspan>
          <tspan font-family="Helvetica Neue" font-size="16" fill="white" x="35.91162" y="35.46411" xml:space="preserve">Response</tspan>
        </text>
      </g>
      <g id="Line_6">
        <line x1="274" y1="299" x2="401.5146" y2="299" marker-end="url(#FilledArrow_Marker)" stroke="#666" stroke-linecap="round" stroke-linejoin="round" stroke-width="4"/>
      </g>
      <g id="Line_7">
        <line x1="793.7865" y1="299" x2="880.6216" y2="299" marker-end="url(#FilledArrow_Marker)" stroke="#666" stroke-linecap="round" stroke-linejoin="round" stroke-width="4"/>
      </g>
      <g id="Graphic_8">
        <text transform="translate(305.51757 274)" fill="black">
          <tspan font-family="Helvetica Neue" font-size="16" fill="black" x="4121148e-19" y="16" xml:space="preserve">GET /get</tspan>
        </text>
      </g>
      <g id="Graphic_10">
        <rect x="571.336" y="139.45452" width="109.328" height="29.46411" fill="white"/>
        <text transform="translate(576.336 144.45452)" fill="black">
          <tspan font-family="Helvetica Neue" font-size="16" fill="black" x="0" y="16" xml:space="preserve">404 response</tspan>
        </text>
      </g>
      <g id="Graphic_11">
        <rect x="425.3501" y="363.70515" width="245.056" height="48.92822" fill="white"/>
        <text transform="translate(430.3501 368.70515)" fill="#856bb0">
          <tspan font-family="Helvetica Neue" font-size="16" fill="#856bb0" x="0" y="16" xml:space="preserve">Rewrite StatusCode: 404 </tspan>
          <tspan font-family="Lucida Grande" font-weight="bold" font-size="16" fill="#856bb0" y="16" xml:space="preserve">→</tspan>
          <tspan font-family="Helvetica Neue" font-size="16" fill="#856bb0" y="16" xml:space="preserve"> 406</tspan>
          <tspan font-family="Helvetica Neue" font-size="16" fill="#856bb0" x="0" y="35.46411" xml:space="preserve">Rewrite Body: Custom text</tspan>
        </text>
      </g>
      <g id="Graphic_4">
        <path d="M 664.8512 255 L 766.7865 255 C 781.69815 255 793.7865 267.0883 793.7865 282 L 793.7865 316 C 793.7865 330.9117 781.69815 343 766.7865 343 L 664.8512 343 C 649.9395 343 637.8512 330.9117 637.8512 316 L 637.8512 282 C 637.8512 267.0883 649.9395 255 664.8512 255 Z" fill="#856bb0"/>
        <text transform="translate(642.8512 279.5359)" fill="white">
          <tspan font-family="Helvetica Neue" font-size="16" fill="white" x="29.53562" y="16" xml:space="preserve">Local Reply</tspan>
          <tspan font-family="Helvetica Neue" font-size="16" fill="white" x="44.36762" y="35.46411" xml:space="preserve">Mapper</tspan>
        </text>
      </g>
      <g id="Graphic_14">
        <rect x="830.3532" y="337.8655" width="294.272" height="48.92822" fill="white"/>
        <text transform="translate(835.3532 342.8655)" fill="black">
          <tspan font-family="Helvetica Neue" font-size="16" fill="black" x="0" y="16" xml:space="preserve">406 response</tspan>
          <tspan font-family="Helvetica Neue" font-size="16" fill="black" x="0" y="35.46411" xml:space="preserve">could not find what you are looking for</tspan>
        </text>
      </g>
    </g>
  </g>
</svg>
