<svg xmlns="http://www.w3.org/2000/svg" xmlns:xl="http://www.w3.org/1999/xlink" width="606" height="347" version="1.1" viewBox="901 785 606 347"><defs><marker id="FilledArrow_Marker" stroke-linejoin="miter" stroke-miterlimit="10" color="#000" markerHeight="6" markerUnits="strokeWidth" markerWidth="6" orient="auto" overflow="visible" viewBox="-1 -3 6 6"><g><path fill="currentColor" stroke="currentColor" stroke-width="1" d="M 3.2 0 L 0 -1.2 L 0 1.2 Z"/></g></marker><marker id="FilledArrow_Marker_2" stroke-linejoin="miter" stroke-miterlimit="10" color="#000" markerHeight="6" markerUnits="strokeWidth" markerWidth="7" orient="auto" overflow="visible" viewBox="-1 -3 7 6"><g><path fill="currentColor" stroke="currentColor" stroke-width="1" d="M 4.8 0 L 0 -1.8 L 0 1.8 Z"/></g></marker></defs><g id="gateway-deploy-vs-config" fill="none" fill-opacity="1" stroke="none" stroke-dasharray="none" stroke-opacity="1"><title>gateway-deploy-vs-config</title><rect width="606" height="347" x="901" y="785" fill="#fff"/><g id="gateway-deploy-vs-config_Layer_1"><title>Layer 1</title><g id="Graphic_13"><path fill="#f15623" d="M 927.1579 810 L 1119.5044 810 C 1123.9227 810 1127.5044 813.5817 1127.5044 818 L 1127.5044 871.4488 C 1127.5044 875.8671 1123.9227 879.4488 1119.5044 879.4488 L 927.1579 879.4488 C 922.7397 879.4488 919.1579 875.8671 919.1579 871.4488 L 919.1579 818 C 919.1579 813.5817 922.7397 810 927.1579 810 Z"/><text fill="#fff" transform="translate(924.1579 834.9924)"><tspan x="22.125" y="16" fill="#fff" font-family="Helvetica Neue" font-size="16" font-weight="bold">TSB Gateway Group</tspan></text></g><g id="Graphic_12"><path fill="#0a55a8" d="M 927.1579 923.3858 L 1119.5044 923.3858 C 1123.9227 923.3858 1127.5044 926.9676 1127.5044 931.3858 L 1127.5044 984.8347 C 1127.5044 989.2529 1123.9227 992.8347 1119.5044 992.8347 L 927.1579 992.8347 C 922.7397 992.8347 919.1579 989.2529 919.1579 984.8347 L 919.1579 931.3858 C 919.1579 926.9676 922.7397 923.3858 927.1579 923.3858 Z"/><text fill="#fff" transform="translate(924.1579 948.3782)"><tspan x="21.413" y="16" fill="#fff" font-family="Helvetica Neue" font-size="16" font-weight="bold">Istio Gateway Group</tspan></text></g><g id="Graphic_11"><path fill="#8080ff" d="M 927.1579 1036.7717 L 1119.5044 1036.7717 C 1123.9227 1036.7717 1127.5044 1040.3534 1127.5044 1044.7717 L 1127.5044 1098.2205 C 1127.5044 1102.6388 1123.9227 1106.2205 1119.5044 1106.2205 L 927.1579 1106.2205 C 922.7397 1106.2205 919.1579 1102.6388 919.1579 1098.2205 L 919.1579 1044.7717 C 919.1579 1040.3534 922.7397 1036.7717 927.1579 1036.7717 Z"/><text fill="#fff" transform="translate(924.1579 1052.032)"><tspan x="54.877" y="16" fill="#fff" font-family="Helvetica Neue" font-size="16" font-weight="bold">Kubernetes</tspan> <tspan x="37.837" y="35.464" fill="#fff" font-family="Helvetica Neue" font-size="16" font-weight="bold"> Gateway Group</tspan></text></g><g id="Graphic_10"><path fill="#f0f" d="M 1291.4099 923.3858 L 1483.7564 923.3858 C 1488.1746 923.3858 1491.7564 926.9676 1491.7564 931.3858 L 1491.7564 984.8347 C 1491.7564 989.2529 1488.1746 992.8347 1483.7564 992.8347 L 1291.4099 992.8347 C 1286.9916 992.8347 1283.4099 989.2529 1283.4099 984.8347 L 1283.4099 931.3858 C 1283.4099 926.9676 1286.9916 923.3858 1291.4099 923.3858 Z"/><text fill="#fff" transform="translate(1288.4099 938.6461)"><tspan x="17.709" y="16" fill="#fff" font-family="Helvetica Neue" font-size="16" font-weight="bold">Gateway Deployment </tspan> <tspan x="71.309" y="35.464" fill="#fff" font-family="Helvetica Neue" font-size="16" font-weight="bold">(Envoy)</tspan></text></g><g id="Graphic_9"><text fill="#000" transform="translate(1343.8311 834.9924)"><tspan x="0" y="16" fill="#000" font-family="Helvetica Neue" font-size="16" font-weight="bold">User Traffic</tspan></text></g><g id="Line_8"><line x1="1387.583" x2="1387.583" y1="859.457" y2="904.486" stroke="#000" stroke-linecap="round" stroke-linejoin="round" stroke-width="4" marker-end="url(#FilledArrow_Marker)"/></g><g id="Line_7"><path stroke="#000" stroke-dasharray="8 8" stroke-linecap="round" stroke-linejoin="round" stroke-width="2" marker-end="url(#FilledArrow_Marker_2)" d="M 1127.5044 857.8612 C 1138.6515 861.0786 1150.0971 865.0571 1161.5162 869.9724 C 1230.1284 899.5064 1201.4703 924.0026 1265.5162 948.9724 C 1267.3919 949.7037 1269.2625 950.4 1271.1266 951.0628"/></g><g id="Line_6"><path stroke="#000" stroke-dasharray="8 8" stroke-linecap="round" stroke-linejoin="round" stroke-width="2" marker-end="url(#FilledArrow_Marker_2)" d="M 1127.5044 1065.1049 C 1139.0146 1062.1171 1150.8112 1058.1637 1162.5162 1052.9724 C 1230.5618 1022.7938 1199.7536 991.8474 1263.5162 964.9724 C 1266.0646 963.8983 1268.6075 962.8991 1271.1412 961.9705"/></g><g id="Line_5"><line x1="1127.504" x2="1270.51" y1="958.11" y2="958.11" stroke="#000" stroke-dasharray="8 8" stroke-linecap="round" stroke-linejoin="round" stroke-width="2" marker-end="url(#FilledArrow_Marker_2)"/></g><g id="Graphic_4"><text fill="#000" transform="translate(1204.7438 871.6929)"><tspan x="0" y="16" fill="#000" font-family="Helvetica Neue" font-size="16" font-weight="bold">Configures</tspan></text></g><g id="Line_2"><line x1="1387.583" x2="1387.583" y1="992.835" y2="1037.864" stroke="#000" stroke-linecap="round" stroke-linejoin="round" stroke-width="4" marker-end="url(#FilledArrow_Marker)"/></g></g></g></svg>