<svg xmlns="http://www.w3.org/2000/svg" xmlns:xl="http://www.w3.org/1999/xlink" width="606" height="347" version="1.1" viewBox="828 574 606 347"><defs><marker id="FilledArrow_Marker" stroke-linejoin="miter" stroke-miterlimit="10" color="#000" markerHeight="6" markerUnits="strokeWidth" markerWidth="6" orient="auto" overflow="visible" viewBox="-1 -3 6 6"><g><path fill="currentColor" stroke="currentColor" stroke-width="1" d="M 3.2 0 L 0 -1.2 L 0 1.2 Z"/></g></marker><marker id="FilledArrow_Marker_2" stroke-linejoin="miter" stroke-miterlimit="10" color="#000" markerHeight="6" markerUnits="strokeWidth" markerWidth="7" orient="auto" overflow="visible" viewBox="-1 -3 7 6"><g><path fill="currentColor" stroke="currentColor" stroke-width="1" d="M 4.8 0 L 0 -1.8 L 0 1.8 Z"/></g></marker></defs><g id="shared-gateway-deploy" fill="none" fill-opacity="1" stroke="none" stroke-dasharray="none" stroke-opacity="1"><title>shared-gateway-deploy</title><rect width="606" height="347" x="828" y="574" fill="#fff"/><g id="shared-gateway-deploy_Layer_1"><title>Layer 1</title><g id="Graphic_5"><path fill="#f15623" d="M 854.1417 599.5276 L 1046.4882 599.5276 C 1050.9065 599.5276 1054.4882 603.1093 1054.4882 607.5276 L 1054.4882 660.9764 C 1054.4882 665.3947 1050.9065 668.9764 1046.4882 668.9764 L 854.1417 668.9764 C 849.7235 668.9764 846.1417 665.3947 846.1417 660.9764 L 846.1417 607.5276 C 846.1417 603.1093 849.7235 599.5276 854.1417 599.5276 Z"/><text fill="#fff" transform="translate(851.1417 624.5199)"><tspan x="51.909" y="16" fill="#fff" font-family="Helvetica Neue" font-size="16" font-weight="bold">App1 Config</tspan></text></g><g id="Graphic_6"><path fill="#f15623" d="M 854.1417 712.9134 L 1046.4882 712.9134 C 1050.9065 712.9134 1054.4882 716.4951 1054.4882 720.9134 L 1054.4882 774.3622 C 1054.4882 778.7805 1050.9065 782.3622 1046.4882 782.3622 L 854.1417 782.3622 C 849.7235 782.3622 846.1417 778.7805 846.1417 774.3622 L 846.1417 720.9134 C 846.1417 716.4951 849.7235 712.9134 854.1417 712.9134 Z"/><text fill="#fff" transform="translate(851.1417 737.90575)"><tspan x="51.909" y="16" fill="#fff" font-family="Helvetica Neue" font-size="16" font-weight="bold">App2 Config</tspan></text></g><g id="Graphic_7"><path fill="#f15623" d="M 854.1417 826.2992 L 1046.4882 826.2992 C 1050.9065 826.2992 1054.4882 829.8809 1054.4882 834.2992 L 1054.4882 887.748 C 1054.4882 892.1663 1050.9065 895.748 1046.4882 895.748 L 854.1417 895.748 C 849.7235 895.748 846.1417 892.1663 846.1417 887.748 L 846.1417 834.2992 C 846.1417 829.8809 849.7235 826.2992 854.1417 826.2992 Z"/><text fill="#fff" transform="translate(851.1417 851.2916)"><tspan x="51.909" y="16" fill="#fff" font-family="Helvetica Neue" font-size="16" font-weight="bold">App3 Config</tspan></text></g><g id="Graphic_8"><path fill="#f0f" d="M 1218.3937 712.9134 L 1410.7402 712.9134 C 1415.1584 712.9134 1418.7402 716.4951 1418.7402 720.9134 L 1418.7402 774.3622 C 1418.7402 778.7805 1415.1584 782.3622 1410.7402 782.3622 L 1218.3937 782.3622 C 1213.9754 782.3622 1210.3937 778.7805 1210.3937 774.3622 L 1210.3937 720.9134 C 1210.3937 716.4951 1213.9754 712.9134 1218.3937 712.9134 Z"/><text fill="#fff" transform="translate(1215.3937 728.1737)"><tspan x="36.645" y="16" fill="#fff" font-family="Helvetica Neue" font-size="16" font-weight="bold">Shared Gateway </tspan> <tspan x="53.261" y="35.464" fill="#fff" font-family="Helvetica Neue" font-size="16" font-weight="bold">Deployment</tspan></text></g><g id="Graphic_9"><text fill="#000" transform="translate(1270.815 624.5199)"><tspan x="0" y="16" fill="#000" font-family="Helvetica Neue" font-size="16" font-weight="bold">User Traffic</tspan></text></g><g id="Line_10"><line x1="1314.567" x2="1314.567" y1="648.984" y2="694.013" stroke="#000" stroke-linecap="round" stroke-linejoin="round" stroke-width="4" marker-end="url(#FilledArrow_Marker)"/></g><g id="Line_11"><path stroke="#000" stroke-dasharray="8 8" stroke-linecap="round" stroke-linejoin="round" stroke-width="2" marker-end="url(#FilledArrow_Marker_2)" d="M 1054.4882 647.3887 C 1065.6353 650.60616 1077.081 654.5847 1088.5 659.5 C 1157.1122 689.034 1128.4541 713.5301 1192.5 738.5 C 1194.3757 739.2313 1196.2463 739.9276 1198.1104 740.5903"/></g><g id="Line_12"><path stroke="#000" stroke-dasharray="8 8" stroke-linecap="round" stroke-linejoin="round" stroke-width="2" marker-end="url(#FilledArrow_Marker_2)" d="M 1054.4882 854.6324 C 1065.9984 851.6446 1077.795 847.6912 1089.5 842.5 C 1157.5456 812.3213 1126.7374 781.3749 1190.5 754.5 C 1193.0484 753.4259 1195.5913 752.4267 1198.125 751.4981"/></g><g id="Line_13"><line x1="1054.488" x2="1197.494" y1="747.638" y2="747.638" stroke="#000" stroke-dasharray="8 8" stroke-linecap="round" stroke-linejoin="round" stroke-width="2" marker-end="url(#FilledArrow_Marker_2)"/></g><g id="Graphic_14"><text fill="#000" transform="translate(1136.0236 661.2205)"><tspan x="0" y="16" fill="#000" font-family="Helvetica Neue" font-size="16" font-weight="bold">Configure</tspan></text></g><g id="Line_16"><line x1="1314.567" x2="1314.567" y1="782.362" y2="827.392" stroke="#000" stroke-linecap="round" stroke-linejoin="round" stroke-width="4" marker-end="url(#FilledArrow_Marker)"/></g></g></g></svg>