<svg xmlns="http://www.w3.org/2000/svg" xmlns:xlink="http://www.w3.org/1999/xlink" viewBox="0 0 1920 1080"><defs><style>.cls-1{fill:none}.cls-2{clip-path:url(#clip-path)}.cls-3{fill:#98dcf9}.cls-4{fill:#ace4f7}.cls-5{fill:#79c7f2}.cls-6,.cls-9{fill:#fff}.cls-6{opacity:.35}.cls-7{fill:#64b0e8}.cls-10,.cls-7{opacity:.5}.cls-8{fill:#679ff7;opacity:.42}.cls-10{fill:#7fc5f6}</style><clipPath id="clip-path"><rect width="1920" height="1080" class="cls-1"/></clipPath></defs><g id="Layer_2" data-name="Layer 2"><g id="Layer_1-2" data-name="Layer 1"><g class="cls-2"><rect width="1920" height="1080" class="cls-3"/><circle cx="1378.362" cy="137.255" r="441.192" class="cls-4"/><circle cx="1410.532" cy="105.085" r="378.383" class="cls-5"/><circle cx="912.66" cy="737.766" r="508.596" class="cls-6"/><g><circle cx="155.894" cy="379.298" r="407.489" class="cls-7"/><circle cx="88.626" cy="374.123" r="338.928" class="cls-8"/></g><g><path d="M1918.6172,1108.3086C1694.4686,1110.93,1480.16,968.0922,1394.971,761.21c-157.9581-373.1776,118.0472-790.195,523.6483-789.5171,405.6021-.6633,681.613,416.35,523.6431,789.52C2357.0569,968.08,2142.7776,1110.9406,1918.6172,1108.3086Zm0-1133.6172c-311.7119,0-565.3086,253.5962-565.3086,565.3086,31.0529,749.9589,1099.6786,749.7406,1130.6182-.0043C2483.9258,228.2876,2230.3291-25.3086,1918.6172-25.3086Z" class="cls-9"/><path d="M1918.6172,1074.6064c-210.8548,2.467-412.4555-131.9024-492.5926-326.5145C1277.4331,397.0445,1537.0719,4.7574,1918.6192,5.3948c381.5489-.6238,641.192,391.66,492.59,742.7C2331.0563,942.6937,2129.4838,1077.0831,1918.6172,1074.6064Zm0-1066.2128c-293.1289,0-531.6065,238.4775-531.6065,531.6064,29.201,705.2485,1034.1194,705.0432,1063.2139-.004C2450.2236,246.8711,2211.7461,8.3936,1918.6172,8.3936Z" class="cls-9"/><path d="M1918.6172,1040.9043c-197.5632,2.31-386.4548-123.5855-461.539-305.9314C1317.8544,406.056,1561.1248,38.5,1918.619,39.0969c357.4958-.5844,600.77,366.9684,461.5363,695.8788C2305.0566,917.3092,2116.1914,1043.2233,1918.6172,1040.9043Zm0-998.8086c-274.5449,0-497.9043,223.3589-497.9043,497.9043,27.3505,660.5379,968.5587,660.3456,995.8095-.0038C2416.5215,265.4546,2193.1621,42.0957,1918.6172,42.0957Z" class="cls-9"/><path d="M1918.6172,1011.21c-185.8508,2.174-363.5446-116.26-434.1787-287.7946-130.9692-309.42,97.878-655.1854,434.18-654.6242,336.3039-.5488,565.155,345.2134,434.1761,654.6268C2282.1471,894.94,2104.479,1013.3924,1918.6172,1011.21Zm0-939.42c-258.1719,0-468.21,210.0381-468.21,468.21,25.7188,621.1444,910.7959,620.9636,936.4208-.0035C2386.8271,281.8281,2176.7891,71.79,1918.6172,71.79Z" class="cls-9"/><path d="M1918.6172,982.33c-174.4606,2.0411-341.2623-109.135-407.5684-270.1559-122.9424-290.4555,91.8793-615.03,407.57-614.5027,315.6921-.5158,530.5174,324.0554,407.566,614.5053C2259.8659,873.1865,2093.0875,984.3792,1918.6172,982.33Zm0-881.66c-242.2471,0-439.33,197.0825-439.33,439.33,24.133,582.8312,854.6161,582.6615,878.661-.0033C2357.9473,297.7529,2160.8643,100.67,1918.6172,100.67Z" class="cls-9"/><path d="M1918.6172,956.1182c-164.1211,1.92-321.0409-102.6677-383.4161-254.147-115.658-273.2432,86.4348-578.5842,383.4176-578.0884,296.9841-.4852,499.08,304.8529,383.4139,578.0908C2239.6453,853.4424,2082.7475,958.0459,1918.6172,956.1182Zm0-829.2364c-227.794,0-413.1182,185.3243-413.1182,413.1182,22.6929,548.0575,803.627,547.898,826.2371-.0031C2331.7354,312.2061,2146.4111,126.8818,1918.6172,126.8818Z" class="cls-9"/><path d="M1918.6172,929.9072c-153.7837,1.7988-300.8189-96.2011-359.2648-238.139-108.3733-256.0307,80.991-542.1393,359.2662-541.674,278.276-.4551,467.6428,285.6514,359.2617,541.6762C2219.423,833.6982,2072.41,931.7128,1918.6172,929.9072Zm0-776.8139C1705.2754,153.0933,1531.71,326.6587,1531.71,540c21.2522,513.2848,752.6392,513.1364,773.8142-.0029C2305.5234,326.6587,2131.958,153.0933,1918.6172,153.0933Z" class="cls-9"/><path d="M1918.6172,906.8125c-144.6756,1.6923-283-90.5022-337.9855-224.0335-101.9533-240.8669,76.1936-510.0274,337.9868-509.5906,261.7925-.4284,439.9461,268.7329,337.9826,509.5927C2201.6071,816.3028,2063.3,908.5116,1918.6172,906.8125Zm0-730.625c-200.6065,0-363.8125,163.2056-363.8125,363.8125,19.9849,482.6468,707.7137,482.5063,727.6257-.0027C2282.43,339.3931,2119.2236,176.1875,1918.6172,176.1875Z" class="cls-9"/><path d="M1918.6172,885.67c-306.8325-.3075-461.17-372.94-244.4228-590.0968,128.6646-134.0839,360.1845-134.1056,488.8484.005C2379.7874,512.7551,2225.4317,885.38,1918.6172,885.67Zm0-688.34c-188.9492,0-342.67,153.7212-342.67,342.67,18.8223,454.5985,666.5868,454.4662,685.3405-.0026C2261.2871,351.0508,2107.5664,197.33,1918.6172,197.33Z" class="cls-9"/><path d="M1918.6172,865.2061c-288.6683-.2889-433.8681-350.8616-229.9533-555.1627,121.0483-126.1453,338.8607-126.1664,459.9082.0047C2352.4866,514.3672,2207.2677,864.9335,1918.6172,865.2061Zm0-647.4122c-177.6651,0-322.2061,144.5411-322.2061,322.2061,17.6988,427.45,626.7785,427.3258,644.4128-.0024C2240.8232,362.335,2096.2822,217.7939,1918.6172,217.7939Z" class="cls-9"/><path d="M1918.6172,844.7422c-270.5023-.2719-406.5671-328.783-215.4828-520.2281,113.4314-118.2074,317.537-118.2272,430.967.0045C2325.1837,515.98,2189.1031,844.4862,1918.6172,844.7422Zm0-606.4839c-166.3809,0-301.7422,135.3608-301.7422,301.7417,16.5752,400.3016,586.97,400.1861,603.484-.0023C2220.3584,373.6191,2084.998,238.2583,1918.6172,238.2583Z" class="cls-9"/><path d="M1918.6172,826.7109c-254.4976-.2555-382.5132-309.33-202.7329-489.4477,106.72-111.2135,298.7491-111.2314,405.4681.0042C2301.1281,517.4019,2173.1,826.47,1918.6172,826.7109Zm0-570.4223c-156.4395,0-283.7119,127.2724-283.7119,283.7114,15.5844,376.3807,551.8956,376.2722,567.4234-.0021C2202.3281,383.561,2075.0557,256.2886,1918.6172,256.2886Z" class="cls-9"/><path d="M1918.6172,809.1748c-238.9309-.24-359.1162-290.4112-190.3327-459.5111,100.191-104.4114,280.4771-104.4283,380.6675.0039C2277.7335,518.7833,2157.534,808.949,1918.6172,809.1748Zm0-535.35c-146.7695,0-266.1748,119.4058-266.1748,266.1748,14.6206,353.1172,517.7828,353.0145,532.35-.002C2184.792,393.231,2065.3867,273.8252,1918.6172,273.8252Z" class="cls-9"/><path d="M1918.6172,793.2588c-224.8047-.2257-337.8825-273.2376-179.08-432.3412,94.2685-98.2372,263.8936-98.2538,358.1608.0037C2256.4984,520.0386,2143.4083,793.0461,1918.6172,793.2588Zm0-503.5181c-137.9942,0-250.26,112.2656-250.26,250.2593,13.7465,332.0019,486.8225,331.9063,500.519-.0019C2168.876,402.0063,2056.61,289.7407,1918.6172,289.7407Z" class="cls-9"/><path d="M1918.6172,777.3438c-210.6762-.2119-316.6489-256.0682-167.8251-405.1717,88.344-92.0641,247.3086-92.079,335.6521.0034C2235.2645,521.2928,2129.2812,777.1444,1918.6172,777.3438Zm0-471.6871c-129.2178,0-234.3438,105.126-234.3438,234.3433,12.8723,310.8885,455.8615,310.799,468.687-.0018C2152.96,410.7827,2047.834,305.6567,1918.6172,305.6567Z" class="cls-9"/><path d="M1918.6172,763.32c-198.2285-.199-297.94-240.9383-157.9092-381.2322,83.1239-86.625,232.6967-86.639,315.82.0033C2216.5571,522.3983,2116.834,763.1327,1918.6172,763.32Zm0-443.6406c-121.4854,0-220.32,98.8354-220.32,220.32,12.1017,292.285,428.5834,292.2,440.641-.0017C2138.9375,418.5151,2040.1025,319.68,1918.6172,319.68Z" class="cls-9"/><path d="M1918.6172,748.8193c-115.1436,0-208.8193-93.6757-208.8193-208.8193,11.47-277.0274,406.2107-276.9467,417.639.0016C2127.4365,655.1436,2033.7607,748.8193,1918.6172,748.8193Zm0-414.6386c-113.4893,0-205.8193,92.33-205.8193,205.8193,11.3055,273.0474,400.3747,272.968,411.639-.0016C2124.4365,426.5107,2032.1064,334.1807,1918.6172,334.1807Z" class="cls-9"/><path d="M1918.6172,736.4922c-108.3457,0-196.4922-88.1465-196.4922-196.4922,10.7936-260.6736,382.2305-260.5977,392.9847.0015C2115.1094,648.3457,2026.9629,736.4922,1918.6172,736.4922Zm0-389.9844c-106.6924,0-193.4922,86.8-193.4922,193.4922,10.6279,256.6939,376.3956,256.6192,386.9847-.0015C2112.1094,433.3081,2025.31,346.5078,1918.6172,346.5078Z" class="cls-9"/><path d="M1918.6172,724.165c-101.5488,0-184.1651-82.6162-184.1651-184.165,10.1164-244.32,358.251-244.2489,368.3305.0014C2102.7822,641.5488,2020.166,724.165,1918.6172,724.165Zm0-365.33c-99.8945,0-181.1651,81.2705-181.1651,181.165,9.9518,240.34,352.415,240.27,362.3305-.0014C2099.7822,440.1055,2018.5117,358.835,1918.6172,358.835Z" class="cls-9"/><path d="M1918.6172,713.3037c-95.56,0-173.3037-77.7441-173.3037-173.3037,9.52-229.911,337.1226-229.844,346.6077.0013C2091.9209,635.56,2014.1768,713.3037,1918.6172,713.3037Zm0-343.6074c-93.9063,0-170.3037,76.3979-170.3037,170.3037,9.3541,225.9312,331.2877,225.8655,340.6077-.0013C2088.9209,446.0942,2012.5234,369.6963,1918.6172,369.6963Z" class="cls-9"/><path d="M1918.6172,702.74c-89.7354,0-162.74-73.0048-162.74-162.74,8.9392-215.8971,316.5741-215.8343,325.4807.0012C2081.3574,629.7354,2008.3525,702.74,1918.6172,702.74Zm0-322.48c-88.0811,0-159.74,71.6591-159.74,159.74,8.7745,211.9172,310.7382,211.8555,319.4807-.0012C2078.3574,451.9189,2006.6982,380.26,1918.6172,380.26Z" class="cls-9"/><path d="M1918.6172,693.1533c-84.4492,0-153.1533-68.7041-153.1533-153.1533,8.4124-203.1788,297.9251-203.12,306.3069.0012C2071.7705,624.4492,2003.0664,693.1533,1918.6172,693.1533Zm0-303.3066c-82.7949,0-150.1533,67.3584-150.1533,150.1533,8.2478,199.1989,292.0892,199.1409,300.3069-.0011C2068.7705,457.2051,2001.4121,389.8467,1918.6172,389.8467Z" class="cls-9"/><path d="M1918.6172,683.5654c-79.1631,0-143.5664-64.4033-143.5664-143.5654,7.8858-190.4593,279.2748-190.4049,287.1321.0011C2062.1826,619.1621,1997.7793,683.5654,1918.6172,683.5654Zm0-284.1313c-77.5088,0-140.5664,63.0576-140.5664,140.5659,7.7213,186.4787,273.4386,186.4254,281.1321-.0011C2059.1826,462.4917,1996.125,399.4341,1918.6172,399.4341Z" class="cls-9"/><path d="M1918.6172,675.1191c-74.5049,0-135.1192-60.6142-135.1192-135.1191,7.422-179.2529,262.8431-179.2017,270.2376.001C2053.7354,614.5049,1993.1221,675.1191,1918.6172,675.1191Zm0-267.2378c-72.8506,0-132.1192,59.2681-132.1192,132.1187,7.2576,175.2736,257.0069,175.2235,264.2376-.001C2050.7354,467.1494,1991.4678,407.8813,1918.6172,407.8813Z" class="cls-9"/><path d="M1918.6172,667.3857A127.5294,127.5294,0,0,1,1791.2314,540c6.997-168.9946,247.8-168.9454,254.7718.001A127.53,127.53,0,0,1,1918.6172,667.3857Zm0-251.7714A124.5265,124.5265,0,0,0,1794.2314,540c6.832,165.0148,241.9647,164.9667,248.7718-.0009A124.5266,124.5266,0,0,0,1918.6172,415.6143Z" class="cls-9"/><path d="M1918.6172,659.9a120.0362,120.0362,0,0,1-119.9-119.9c6.5862-159.0642,233.2389-159.0179,239.801.0009A120.0363,120.0363,0,0,1,1918.6172,659.9Zm0-236.8008a117.0329,117.0329,0,0,0-116.9,116.9c6.4215,155.0843,227.4029,155.0391,233.801-.0009A117.033,117.033,0,0,0,1918.6172,423.1Z" class="cls-9"/><path d="M1918.6172,652.415A112.5426,112.5426,0,0,1,1806.2012,540c6.1749-149.1341,218.6792-149.0917,224.8312.0008A112.5419,112.5419,0,0,1,1918.6172,652.415Zm0-221.83A109.54,109.54,0,0,0,1809.2012,540c6.01,145.1535,212.8435,145.1123,218.8312-.0008A109.539,109.539,0,0,0,1918.6172,430.5845Z" class="cls-9"/><path d="M1918.6172,645.82A105.94,105.94,0,0,1,1812.7969,540c5.8126-140.3851,205.8494-140.3442,211.6408.0008A105.94,105.94,0,0,1,1918.6172,645.82Zm0-208.6406A102.9368,102.9368,0,0,0,1815.7969,540c5.6479,136.4052,200.0135,136.3655,205.6408-.0008A102.9369,102.9369,0,0,0,1918.6172,437.18Z" class="cls-9"/><path d="M1918.6172,639.4062A99.5192,99.5192,0,0,1,1819.2109,540c5.46-131.8759,193.3722-131.8375,198.8127.0007A99.5193,99.5193,0,0,1,1918.6172,639.4062Zm0-195.8124A96.5156,96.5156,0,0,0,1822.2109,540c5.2962,127.8959,187.5359,127.8587,192.8127-.0007A96.5157,96.5157,0,0,0,1918.6172,443.5938Z" class="cls-9"/><path d="M1918.6172,633.585A93.6915,93.6915,0,0,1,1825.0322,540c5.1408-124.1532,182.0481-124.117,187.17.0007A93.6916,93.6916,0,0,1,1918.6172,633.585Zm0-184.17A90.6879,90.6879,0,0,0,1828.0322,540c4.9766,120.1732,176.2117,120.1382,181.17-.0007A90.688,90.688,0,0,0,1918.6172,449.415Z" class="cls-9"/><path d="M1918.6172,627.7637A87.8637,87.8637,0,0,1,1830.8535,540c4.8212-116.43,170.7239-116.3965,175.5275.0007A87.8637,87.8637,0,0,1,1918.6172,627.7637Zm0-172.5274A84.86,84.86,0,0,0,1833.8535,540c4.6555,112.4507,164.889,112.4179,169.5275-.0006A84.86,84.86,0,0,0,1918.6172,455.2363Z" class="cls-9"/><path d="M1918.6172,622.6338A82.7276,82.7276,0,0,1,1835.9824,540c4.539-109.6251,160.746-109.5942,165.2687.0006A82.7274,82.7274,0,0,1,1918.6172,622.6338Zm0-162.2681A79.7245,79.7245,0,0,0,1838.9824,540c4.3742,105.6446,154.91,105.6149,159.2687-.0006A79.7243,79.7243,0,0,0,1918.6172,460.3657Z" class="cls-9"/></g><g><path d="M-38.1488,1708.8192c-224.1486,2.6214-438.4571-140.2163-523.6462-347.0986C-719.753,988.5429-443.7477,571.5255-38.1467,572.2034c405.6021-.6633,681.613,416.35,523.6432,789.52C400.291,1568.5909,186.0117,1711.4512-38.1488,1708.8192Zm0-1133.6172c-311.7119,0-565.3086,253.5962-565.3086,565.3086,31.0529,749.9589,1099.6787,749.7406,1130.6183-.0042C527.16,828.7982,273.5631,575.202-38.1488,575.202Z" class="cls-9"/><path d="M-38.1488,1675.1171c-210.8548,2.467-412.4555-131.9024-492.5925-326.5146C-679.3328,997.5552-419.6941,605.268-38.1468,605.9055c381.5489-.6239,641.192,391.66,492.59,742.7C374.29,1543.2044,172.7179,1677.5937-38.1488,1675.1171Zm0-1066.2129c-293.1289,0-531.6064,238.4775-531.6064,531.6064,29.201,705.2485,1034.1194,705.0432,1063.2139-.004C493.4577,847.3817,254.98,608.9042-38.1488,608.9042Z" class="cls-9"/><path d="M-38.1488,1641.4149c-197.5631,2.31-386.4547-123.5854-461.5389-305.9314C-638.9116,1006.5666-395.6412,639.01-38.1469,639.6075c357.4958-.5843,600.77,366.9684,461.5362,695.8789C348.2907,1517.82,159.4255,1643.7339-38.1488,1641.4149Zm0-998.8086c-274.5449,0-497.9043,223.3589-497.9043,497.9043,27.3506,660.5379,968.5588,660.3456,995.81-.0037C459.7555,865.9652,236.3962,642.6063-38.1488,642.6063Z" class="cls-9"/><path d="M-38.1488,1611.7206c-185.8508,2.1741-363.5446-116.26-434.1786-287.7946-130.9692-309.42,97.878-655.1854,434.18-654.6242,336.3038-.5488,565.1549,345.2134,434.1761,654.6269C325.3812,1495.4508,147.7131,1613.903-38.1488,1611.7206Zm0-939.42c-258.1718,0-468.21,210.0381-468.21,468.21,25.7187,621.1444,910.7958,620.9636,936.4208-.0035C430.0612,882.3388,220.0231,672.3007-38.1488,672.3007Z" class="cls-9"/><path d="M-38.1488,1582.8407c-174.46,2.0412-341.2623-109.135-407.5683-270.1558-122.9425-290.4555,91.8792-615.03,407.57-614.5028,315.6921-.5157,530.5174,324.0554,407.5659,614.5053C303.1,1473.6972,136.3216,1584.89-38.1488,1582.8407Zm0-881.66c-242.247,0-439.33,197.0826-439.33,439.33,24.1329,582.8312,854.616,582.6616,878.6609-.0033C401.1813,898.2636,204.0983,701.181-38.1488,701.181Z" class="cls-9"/><path d="M-38.1488,1556.6288c-164.1211,1.92-321.0408-102.6677-383.4161-254.1469C-537.2229,1029.2386-335.13,723.8976-38.1472,724.3935c296.9841-.4853,499.08,304.8528,383.4138,578.0907C282.8793,1453.9531,125.9815,1558.5565-38.1488,1556.6288Zm0-829.2363c-227.7939,0-413.1181,185.3242-413.1181,413.1181,22.6928,548.0576,803.627,547.898,826.2371-.0031C374.9694,912.7167,189.6452,727.3925-38.1488,727.3925Z" class="cls-9"/><path d="M-38.1488,1530.4179c-153.7837,1.7987-300.8188-96.2012-359.2647-238.1391-108.3733-256.0307,80.991-542.1392,359.2662-541.674,278.2759-.455,467.6427,285.6515,359.2617,541.6762C262.657,1434.2088,115.6438,1532.2234-38.1488,1530.4179Zm0-776.814c-213.3418,0-386.9072,173.5654-386.9072,386.9067,21.2522,513.2848,752.6392,513.1364,773.8142-.0029C348.7575,927.1693,175.1921,753.6039-38.1488,753.6039Z" class="cls-9"/><path d="M-38.1488,1507.3231c-144.6756,1.6923-283-90.5022-337.9855-224.0335C-478.0876,1042.4228-299.9406,773.2622-38.1474,773.699c261.7924-.4283,439.9461,268.7329,337.9826,509.5927C244.8411,1416.8134,106.5339,1509.0223-38.1488,1507.3231Zm0-730.625c-200.6064,0-363.8125,163.2056-363.8125,363.8125,19.9849,482.6468,707.7137,482.5063,727.6257-.0027C325.6637,939.9037,162.4577,776.6981-38.1488,776.6981Z" class="cls-9"/><path d="M-38.1488,1486.1806c-306.8325-.3076-461.17-372.94-244.4228-590.0969C-153.907,762,77.6129,761.9782,206.2768,896.0887,423.0214,1113.2657,268.6657,1485.8907-38.1488,1486.1806Zm0-688.34c-188.9492,0-342.67,153.7212-342.67,342.67,18.8223,454.5985,666.5868,454.4662,685.3405-.0025C304.5212,951.5614,150.8,797.84-38.1488,797.84Z" class="cls-9"/><path d="M-38.1488,1465.7167c-288.6683-.2888-433.868-350.8616-229.9532-555.1627,121.0483-126.1452,338.8607-126.1663,459.9082.0047C395.7206,1114.8778,250.5017,1465.4441-38.1488,1465.7167Zm0-647.4121c-177.665,0-322.206,144.541-322.206,322.206,17.6987,427.45,626.7785,427.3259,644.4127-.0024C284.0573,962.8456,139.5163,818.3046-38.1488,818.3046Z" class="cls-9"/><path d="M-38.1488,1445.2528c-270.5022-.2719-406.5671-328.7829-215.4827-520.228,113.4313-118.2075,317.537-118.2273,430.967.0044C368.4177,1116.4905,232.3372,1444.9968-38.1488,1445.2528Zm0-606.4839c-166.3808,0-301.7422,135.3609-301.7422,301.7417,16.5752,400.3017,586.97,400.1861,603.484-.0022C263.5924,974.13,128.2321,838.7689-38.1488,838.7689Z" class="cls-9"/><path d="M-38.1488,1427.2216c-254.4976-.2556-382.5131-309.33-202.7329-489.4477,106.72-111.2136,298.7492-111.2315,405.4681.0041C344.3622,1117.9125,216.3341,1426.9808-38.1488,1427.2216Zm0-570.4224c-156.4394,0-283.7119,127.2725-283.7119,283.7114,15.5844,376.3807,551.8956,376.2722,567.4234-.0021C245.5622,984.0717,118.29,856.7992-38.1488,856.7992Z" class="cls-9"/><path d="M-38.1488,1409.6854c-238.9309-.24-359.1161-290.4111-190.3326-459.5111,100.191-104.4114,280.477-104.4282,380.6675.0039C320.9676,1119.2939,200.7681,1409.46-38.1488,1409.6854Zm0-535.35c-146.7695,0-266.1748,119.4058-266.1748,266.1748,14.6207,353.1173,517.7828,353.0145,532.35-.002C228.026,993.7416,108.6208,874.3358-38.1488,874.3358Z" class="cls-9"/><path d="M-38.1488,1393.7694c-224.8046-.2256-337.8825-273.2376-179.08-432.3411,94.2684-98.2373,263.8936-98.2539,358.1608.0036C299.7324,1120.5493,186.6423,1393.5567-38.1488,1393.7694Zm0-503.518c-137.9941,0-250.26,112.2656-250.26,250.2592,13.7464,332.002,486.8224,331.9063,500.519-.0018C212.11,1002.517,99.8444,890.2514-38.1488,890.2514Z" class="cls-9"/><path d="M-38.1488,1377.8544c-210.6761-.2119-316.6489-256.0682-167.8251-405.1717,88.344-92.0641,247.3087-92.0789,335.6522.0035C278.4985,1121.8034,172.5152,1377.6551-38.1488,1377.8544Zm0-471.687c-129.2177,0-234.3437,105.126-234.3437,234.3432,12.8722,310.8885,455.8614,310.799,468.6869-.0017C196.194,1011.2934,91.068,906.1674-38.1488,906.1674Z" class="cls-9"/><path d="M-38.1488,1363.831c-198.2284-.1991-297.94-240.9383-157.9092-381.2322,83.124-86.625,232.6967-86.639,315.82.0032C259.7912,1122.909,160.068,1363.6434-38.1488,1363.831Zm0-443.6407c-121.4853,0-220.32,98.8355-220.32,220.32,12.1018,292.2851,428.5834,292.2,440.6411-.0016C182.1715,1019.0258,83.3366,920.19-38.1488,920.19Z" class="cls-9"/><path d="M-38.1488,1349.33c-115.1435,0-208.8193-93.6758-208.8193-208.8194,11.47-277.0273,406.2107-276.9467,417.6391.0016C170.6706,1255.6542,76.9948,1349.33-38.1488,1349.33Zm0-414.6387c-113.4892,0-205.8193,92.33-205.8193,205.8193,11.3055,273.0475,400.3747,272.968,411.6391-.0015C167.6706,1027.0214,75.3405,934.6913-38.1488,934.6913Z" class="cls-9"/><path d="M-38.1488,1337.0028c-108.3457,0-196.4922-88.1465-196.4922-196.4922,10.7936-260.6736,382.2305-260.5977,392.9848.0015C158.3434,1248.8563,70.1969,1337.0028-38.1488,1337.0028Zm0-389.9843c-106.6924,0-193.4922,86.8-193.4922,193.4921,10.628,256.6939,376.3956,256.6192,386.9848-.0014C155.3434,1033.8187,68.5436,947.0185-38.1488,947.0185Z" class="cls-9"/><path d="M-38.1488,1324.6757c-101.5488,0-184.165-82.6162-184.165-184.1651,10.1164-244.32,358.2509-244.2489,368.33.0014C146.0163,1242.06,63.4,1324.6757-38.1488,1324.6757Zm0-365.33c-99.8945,0-181.165,81.27-181.165,181.165,9.9517,240.34,352.415,240.27,362.33-.0013C143.0163,1040.6161,61.7458,959.3456-38.1488,959.3456Z" class="cls-9"/><path d="M-38.1488,1313.8143c-95.56,0-173.3037-77.7441-173.3037-173.3037,9.52-229.9109,337.1227-229.844,346.6078.0013C135.1549,1236.07,57.4108,1313.8143-38.1488,1313.8143Zm0-343.6074c-93.9062,0-170.3037,76.398-170.3037,170.3037,9.3541,225.9313,331.2878,225.8655,340.6078-.0012C132.1549,1046.6049,55.7575,970.2069-38.1488,970.2069Z" class="cls-9"/><path d="M-38.1488,1303.2509c-89.7353,0-162.74-73.0049-162.74-162.74,8.9392-215.8971,316.5742-215.8343,325.4808.0013C124.5915,1230.246,51.5866,1303.2509-38.1488,1303.2509Zm0-322.48c-88.081,0-159.74,71.6592-159.74,159.74,8.7745,211.9172,310.7382,211.8556,319.4808-.0012C121.5915,1052.43,49.9323,980.77-38.1488,980.77Z" class="cls-9"/><path d="M-38.1488,1293.664c-84.4492,0-153.1533-68.7041-153.1533-153.1534,8.4125-203.1788,297.9252-203.12,306.3069.0012C115.0046,1224.96,46.3,1293.664-38.1488,1293.664Zm0-303.3067c-82.7949,0-150.1533,67.3584-150.1533,150.1533,8.2478,199.1989,292.0892,199.1409,300.3069-.0011C112.0046,1057.7157,44.6462,990.3573-38.1488,990.3573Z" class="cls-9"/><path d="M-38.1488,1284.0761c-79.1631,0-143.5664-64.4034-143.5664-143.5655,7.8859-190.4592,279.2748-190.4048,287.1321.0011C105.4167,1219.6727,41.0133,1284.0761-38.1488,1284.0761Zm0-284.1314c-77.5088,0-140.5664,63.0576-140.5664,140.5659,7.7214,186.4787,273.4387,186.4254,281.1321-.001C102.4167,1063.0023,39.359,999.9447-38.1488,999.9447Z" class="cls-9"/><path d="M-38.1488,1275.63c-74.5049,0-135.1191-60.6143-135.1191-135.1192,7.4219-179.2528,262.843-179.2016,270.2375.0011C96.9694,1215.0155,36.3561,1275.63-38.1488,1275.63Zm0-267.2378c-72.8506,0-132.1191,59.2681-132.1191,132.1186,7.2575,175.2736,257.0069,175.2236,264.2375-.001C93.9694,1067.66,34.7018,1008.392-38.1488,1008.392Z" class="cls-9"/><path d="M-38.1488,1267.8964a127.5294,127.5294,0,0,1-127.3857-127.3858c6.997-168.9946,247.8-168.9454,254.7717.001A127.53,127.53,0,0,1-38.1488,1267.8964Zm0-251.7715a124.5264,124.5264,0,0,0-124.3857,124.3857c6.8319,165.0148,241.9647,164.9668,248.7717-.0009A124.5266,124.5266,0,0,0-38.1488,1016.1249Z" class="cls-9"/><path d="M-38.1488,1260.411a120.0362,120.0362,0,0,1-119.9-119.9c6.5862-159.0642,233.2389-159.0179,239.801.0009A120.0363,120.0363,0,0,1-38.1488,1260.411Zm0-236.8008a117.033,117.033,0,0,0-116.9,116.9c6.4215,155.0843,227.403,155.0392,233.801-.0008A117.0331,117.0331,0,0,0-38.1488,1023.61Z" class="cls-9"/><path d="M-38.1488,1252.9257a112.5426,112.5426,0,0,1-112.416-112.4151c6.1749-149.1341,218.6793-149.0916,224.8313.0009A112.5419,112.5419,0,0,1-38.1488,1252.9257Zm0-221.8306a109.54,109.54,0,0,0-109.416,109.4155c6.01,145.1536,212.8435,145.1123,218.8313-.0008A109.539,109.539,0,0,0-38.1488,1031.0951Z" class="cls-9"/><path d="M-38.1488,1246.331a105.94,105.94,0,0,1-105.82-105.82c5.8126-140.3851,205.85-140.3442,211.6408.0008A105.94,105.94,0,0,1-38.1488,1246.331Zm0-208.6407a102.9368,102.9368,0,0,0-102.82,102.82c5.6479,136.4052,200.0135,136.3655,205.6408-.0007A102.9369,102.9369,0,0,0-38.1488,1037.69Z" class="cls-9"/><path d="M-38.1488,1239.9169a99.5192,99.5192,0,0,1-99.4062-99.4063c5.46-131.8759,193.3721-131.8375,198.8127.0008A99.5194,99.5194,0,0,1-38.1488,1239.9169Zm0-195.8125a96.5155,96.5155,0,0,0-96.4062,96.4062c5.2961,127.896,187.5358,127.8587,192.8127-.0007A96.5158,96.5158,0,0,0-38.1488,1044.1044Z" class="cls-9"/><path d="M-38.1488,1234.0956a93.6914,93.6914,0,0,1-93.5849-93.585c5.1408-124.1531,182.048-124.117,187.17.0007A93.6916,93.6916,0,0,1-38.1488,1234.0956Zm0-184.17a90.6878,90.6878,0,0,0-90.5849,90.5849c4.9765,120.1732,176.2117,120.1382,181.17-.0006A90.688,90.688,0,0,0-38.1488,1049.9257Z" class="cls-9"/><path d="M-38.1488,1228.2743a87.8637,87.8637,0,0,1-87.7636-87.7637c4.8211-116.43,170.7239-116.3965,175.5275.0007A87.8639,87.8639,0,0,1-38.1488,1228.2743Zm0-172.5273a84.8594,84.8594,0,0,0-84.7636,84.7636c4.6554,112.4507,164.889,112.418,169.5275-.0006A84.86,84.86,0,0,0-38.1488,1055.747Z" class="cls-9"/><path d="M-38.1488,1223.1444a82.7275,82.7275,0,0,1-82.6347-82.6338c4.539-109.6251,160.746-109.5942,165.2687.0007A82.7275,82.7275,0,0,1-38.1488,1223.1444Zm0-162.268a79.7243,79.7243,0,0,0-79.6347,79.6342c4.3741,105.6446,154.91,105.6149,159.2687-.0006A79.7243,79.7243,0,0,0-38.1488,1060.8764Z" class="cls-9"/></g><circle cx="909.596" cy="851.128" r="327.83" class="cls-10"/><circle cx="851.383" cy="927.723" r="248.17" class="cls-10"/></g></g></g></svg>