<svg xmlns="http://www.w3.org/2000/svg" xmlns:xl="http://www.w3.org/1999/xlink" width="1223" height="476" version="1.1" viewBox="1401 1082 1223 476"><defs><marker id="FilledArrow_Marker" stroke-linejoin="miter" stroke-miterlimit="10" color="#000" markerHeight="6" markerUnits="strokeWidth" markerWidth="7" orient="auto" overflow="visible" viewBox="-1 -3 7 6"><g><path fill="currentColor" stroke="currentColor" stroke-width="1" d="M 4.8 0 L 0 -1.8 L 0 1.8 Z"/></g></marker></defs><g id="Canvas_28" fill="none" fill-opacity="1" stroke="none" stroke-dasharray="none" stroke-opacity="1"><title>Canvas 28</title><rect width="1223" height="476" x="1401" y="1082" fill="#fff"/><g id="Canvas_28_Layer_1"><title>Layer 1</title><g id="Graphic_4"><rect width="136.063" height="56.693" x="1410.236" y="1201.89" fill="#666"/><rect width="136.063" height="56.693" x="1410.236" y="1201.89" stroke="#fff" stroke-linecap="round" stroke-linejoin="round" stroke-width="1"/><text fill="#fff" transform="translate(1415.2362 1220.5042)"><tspan x="36.656" y="16" fill="#fff" font-family="Helvetica Neue" font-size="16">Cluster</tspan></text></g><g id="Graphic_2"><rect width="136.063" height="56.693" x="1594.488" y="1089.921" fill="#f15623"/><rect width="136.063" height="56.693" x="1594.488" y="1089.921" stroke="#fff" stroke-linecap="round" stroke-linejoin="round" stroke-width="1"/><text fill="#fff" transform="translate(1599.4882 1108.5357)"><tspan x="16.047" y="16" fill="#fff" font-family="Helvetica Neue" font-size="16">Organization</tspan></text></g><g id="Graphic_3"><rect width="136.063" height="56.693" x="1424.409" y="1214.646" fill="#666"/><rect width="136.063" height="56.693" x="1424.409" y="1214.646" stroke="#fff" stroke-linecap="round" stroke-linejoin="round" stroke-width="1"/><text fill="#fff" transform="translate(1429.4095 1233.2601)"><tspan x="36.656" y="16" fill="#fff" font-family="Helvetica Neue" font-size="16">Cluster</tspan></text></g><g id="Graphic_6"><rect width="136.063" height="56.693" x="1594.488" y="1204.724" fill="#666"/><rect width="136.063" height="56.693" x="1594.488" y="1204.724" stroke="#fff" stroke-linecap="round" stroke-linejoin="round" stroke-width="1"/><text fill="#fff" transform="translate(1599.4882 1223.3388)"><tspan x="36.656" y="16" fill="#fff" font-family="Helvetica Neue" font-size="16">Cluster</tspan></text></g><g id="Graphic_5"><rect width="136.063" height="56.693" x="1608.661" y="1217.48" fill="#666"/><rect width="136.063" height="56.693" x="1608.661" y="1217.48" stroke="#fff" stroke-linecap="round" stroke-linejoin="round" stroke-width="1"/><text fill="#fff" transform="translate(1613.6614 1236.0947)"><tspan x="38.431" y="16" fill="#fff" font-family="Helvetica Neue" font-size="16">Tenant</tspan></text></g><g id="Graphic_8"><rect width="136.063" height="56.693" x="1778.74" y="1208.268" fill="#666"/><rect width="136.063" height="56.693" x="1778.74" y="1208.268" stroke="#fff" stroke-linecap="round" stroke-linejoin="round" stroke-width="1"/><text fill="#fff" transform="translate(1783.7402 1226.8821)"><tspan x="36.656" y="16" fill="#fff" font-family="Helvetica Neue" font-size="16">Cluster</tspan></text></g><g id="Graphic_7"><rect width="136.063" height="56.693" x="1792.913" y="1221.024" fill="#666"/><rect width="136.063" height="56.693" x="1792.913" y="1221.024" stroke="#fff" stroke-linecap="round" stroke-linejoin="round" stroke-width="1"/><text fill="#fff" transform="translate(1797.9134 1239.638)"><tspan x="43.319" y="16" fill="#fff" font-family="Helvetica Neue" font-size="16">Team</tspan></text></g><g id="Graphic_10"><rect width="136.063" height="56.693" x="1948.819" y="1208.268" fill="#666"/><rect width="136.063" height="56.693" x="1948.819" y="1208.268" stroke="#fff" stroke-linecap="round" stroke-linejoin="round" stroke-width="1"/><text fill="#fff" transform="translate(1953.819 1226.8821)"><tspan x="36.656" y="16" fill="#fff" font-family="Helvetica Neue" font-size="16">Cluster</tspan></text></g><g id="Graphic_9"><rect width="136.063" height="56.693" x="1962.992" y="1221.024" fill="#666"/><rect width="136.063" height="56.693" x="1962.992" y="1221.024" stroke="#fff" stroke-linecap="round" stroke-linejoin="round" stroke-width="1"/><text fill="#fff" transform="translate(1967.9921 1239.638)"><tspan x="45.84" y="16" fill="#fff" font-family="Helvetica Neue" font-size="16">User</tspan></text></g><g id="Graphic_12"><rect width="136.063" height="56.693" x="2118.898" y="1208.268" fill="#666"/><rect width="136.063" height="56.693" x="2118.898" y="1208.268" stroke="#fff" stroke-linecap="round" stroke-linejoin="round" stroke-width="1"/><text fill="#fff" transform="translate(2123.8977 1226.8821)"><tspan x="36.656" y="16" fill="#fff" font-family="Helvetica Neue" font-size="16">Cluster</tspan></text></g><g id="Graphic_11"><rect width="136.063" height="56.693" x="2133.071" y="1221.024" fill="#666"/><rect width="136.063" height="56.693" x="2133.071" y="1221.024" stroke="#fff" stroke-linecap="round" stroke-linejoin="round" stroke-width="1"/><text fill="#fff" transform="translate(2138.071 1239.638)"><tspan x="35.608" y="16" fill="#fff" font-family="Helvetica Neue" font-size="16">Service</tspan></text></g><g id="Graphic_14"><rect width="136.063" height="56.693" x="2288.976" y="1208.268" fill="#666"/><rect width="136.063" height="56.693" x="2288.976" y="1208.268" stroke="#fff" stroke-linecap="round" stroke-linejoin="round" stroke-width="1"/><text fill="#fff" transform="translate(2293.9764 1226.8821)"><tspan x="36.656" y="16" fill="#fff" font-family="Helvetica Neue" font-size="16">Cluster</tspan></text></g><g id="Graphic_13"><rect width="136.063" height="56.693" x="2303.15" y="1221.024" fill="#666"/><rect width="136.063" height="56.693" x="2303.15" y="1221.024" stroke="#fff" stroke-linecap="round" stroke-linejoin="round" stroke-width="1"/><text fill="#fff" transform="translate(2308.1496 1229.906)"><tspan x="35.608" y="16" fill="#fff" font-family="Helvetica Neue" font-size="16">Service</tspan> <tspan x="28.055" y="35.464" fill="#fff" font-family="Helvetica Neue" font-size="16">Accounts</tspan></text></g><g id="Graphic_16"><rect width="136.063" height="56.693" x="2459.055" y="1208.268" fill="#666"/><rect width="136.063" height="56.693" x="2459.055" y="1208.268" stroke="#fff" stroke-linecap="round" stroke-linejoin="round" stroke-width="1"/><text fill="#fff" transform="translate(2464.055 1226.8821)"><tspan x="36.656" y="16" fill="#fff" font-family="Helvetica Neue" font-size="16">Cluster</tspan></text></g><g id="Graphic_15"><rect width="136.063" height="56.693" x="2473.228" y="1221.024" fill="#666"/><rect width="136.063" height="56.693" x="2473.228" y="1221.024" stroke="#fff" stroke-linecap="round" stroke-linejoin="round" stroke-width="1"/><text fill="#fff" transform="translate(2478.2284 1229.906)"><tspan x="40.215" y="16" fill="#fff" font-family="Helvetica Neue" font-size="16">Wasm</tspan> <tspan x="22.423" y="35.464" fill="#fff" font-family="Helvetica Neue" font-size="16">Extensions</tspan></text></g><g id="Line_17"><path stroke="#000" stroke-linecap="round" stroke-linejoin="round" stroke-width="2" marker-end="url(#FilledArrow_Marker)" d="M 1662.5197 1146.6142 L 1662.5197 1174.252 L 1478.2677 1174.252 L 1478.2677 1188.9898"/></g><g id="Line_18"><line x1="1662.52" x2="1662.52" y1="1146.614" y2="1191.824" stroke="#000" stroke-linecap="round" stroke-linejoin="round" stroke-width="2" marker-end="url(#FilledArrow_Marker)"/></g><g id="Line_19"><path stroke="#000" stroke-linecap="round" stroke-linejoin="round" stroke-width="2" marker-end="url(#FilledArrow_Marker)" d="M 1662.5197 1146.6142 L 1662.5197 1174.252 L 1846.7717 1174.252 L 1846.7717 1195.3677"/></g><g id="Line_21"><path stroke="#000" stroke-linecap="round" stroke-linejoin="round" stroke-width="2" marker-end="url(#FilledArrow_Marker)" d="M 1828.3465 1174.252 L 2016.9545 1174.252 L 2016.9545 1193.4751 L 2016.8504 1193.4751 L 2016.8504 1195.3677"/></g><g id="Line_22"><path stroke="#000" stroke-linecap="round" stroke-linejoin="round" stroke-width="2" marker-end="url(#FilledArrow_Marker)" d="M 1775.9055 1174.252 L 2186.791 1174.252 L 2186.791 1195.3685"/></g><g id="Line_23"><path stroke="#000" stroke-linecap="round" stroke-linejoin="round" stroke-width="2" marker-end="url(#FilledArrow_Marker)" d="M 1795.019 1174.252 L 2357.0623 1174.252 L 2357.0623 1195.3678"/></g><g id="Line_24"><path stroke="#000" stroke-linecap="round" stroke-linejoin="round" stroke-width="2" marker-end="url(#FilledArrow_Marker)" d="M 1818.9533 1174.252 L 2527.377 1174.252 L 2527.377 1195.2589 L 2527.0866 1195.2589 L 2527.0866 1195.3677"/></g><g id="Graphic_26"><rect width="136.063" height="56.693" x="1594.488" y="1345.039" fill="#456bb0"/><rect width="136.063" height="56.693" x="1594.488" y="1345.039" stroke="#fff" stroke-linecap="round" stroke-linejoin="round" stroke-width="1"/><text fill="#fff" transform="translate(1599.4882 1363.6538)"><tspan x="36.656" y="16" fill="#fff" font-family="Helvetica Neue" font-size="16">Cluster</tspan></text></g><g id="Graphic_25"><rect width="136.063" height="56.693" x="1608.661" y="1357.795" fill="#456bb0"/><rect width="136.063" height="56.693" x="1608.661" y="1357.795" stroke="#fff" stroke-linecap="round" stroke-linejoin="round" stroke-width="1"/><text fill="#fff" transform="translate(1613.6614 1376.4097)"><tspan x="21.383" y="16" fill="#fff" font-family="Helvetica Neue" font-size="16">Workspace</tspan></text></g><g id="Graphic_28"><rect width="136.063" height="56.693" x="2281.89" y="1345.039" fill="#456bb0"/><rect width="136.063" height="56.693" x="2281.89" y="1345.039" stroke="#fff" stroke-linecap="round" stroke-linejoin="round" stroke-width="1"/><text fill="#fff" transform="translate(2286.8898 1363.6538)"><tspan x="36.656" y="16" fill="#fff" font-family="Helvetica Neue" font-size="16">Cluster</tspan></text></g><g id="Graphic_27"><rect width="136.063" height="56.693" x="2296.063" y="1357.795" fill="#456bb0"/><rect width="136.063" height="56.693" x="2296.063" y="1357.795" stroke="#fff" stroke-linecap="round" stroke-linejoin="round" stroke-width="1"/><text fill="#fff" transform="translate(2301.063 1376.4097)"><tspan x="21.239" y="16" fill="#fff" font-family="Helvetica Neue" font-size="16">Application</tspan></text></g><g id="Graphic_30"><rect width="136.063" height="56.693" x="1464.094" y="1472.598" fill="#333"/><rect width="136.063" height="56.693" x="1464.094" y="1472.598" stroke="#fff" stroke-linecap="round" stroke-linejoin="round" stroke-width="1"/><text fill="#fff" transform="translate(1469.0945 1491.2128)"><tspan x="36.656" y="16" fill="#fff" font-family="Helvetica Neue" font-size="16">Cluster</tspan></text></g><g id="Graphic_29"><rect width="136.063" height="56.693" x="1478.268" y="1485.354" fill="#333"/><rect width="136.063" height="56.693" x="1478.268" y="1485.354" stroke="#fff" stroke-linecap="round" stroke-linejoin="round" stroke-width="1"/><text fill="#fff" transform="translate(1483.2677 1494.2367)"><tspan x="30.575" y="16" fill="#fff" font-family="Helvetica Neue" font-size="16">Gateway</tspan> <tspan x="40.063" y="35.464" fill="#fff" font-family="Helvetica Neue" font-size="16">Group</tspan></text></g><g id="Graphic_32"><rect width="136.063" height="56.693" x="1669.606" y="1472.598" fill="#333"/><rect width="136.063" height="56.693" x="1669.606" y="1472.598" stroke="#fff" stroke-linecap="round" stroke-linejoin="round" stroke-width="1"/><text fill="#fff" transform="translate(1674.6063 1491.2128)"><tspan x="36.656" y="16" fill="#fff" font-family="Helvetica Neue" font-size="16">Cluster</tspan></text></g><g id="Graphic_31"><rect width="136.063" height="56.693" x="1683.78" y="1485.354" fill="#333"/><rect width="136.063" height="56.693" x="1683.78" y="1485.354" stroke="#fff" stroke-linecap="round" stroke-linejoin="round" stroke-width="1"/><text fill="#fff" transform="translate(1688.7795 1494.2367)"><tspan x="40.343" y="16" fill="#fff" font-family="Helvetica Neue" font-size="16">Traffic</tspan> <tspan x="40.063" y="35.464" fill="#fff" font-family="Helvetica Neue" font-size="16">Group</tspan></text></g><g id="Graphic_34"><rect width="136.063" height="56.693" x="1860.945" y="1472.598" fill="#333"/><rect width="136.063" height="56.693" x="1860.945" y="1472.598" stroke="#fff" stroke-linecap="round" stroke-linejoin="round" stroke-width="1"/><text fill="#fff" transform="translate(1865.945 1491.2128)"><tspan x="36.656" y="16" fill="#fff" font-family="Helvetica Neue" font-size="16">Cluster</tspan></text></g><g id="Graphic_33"><rect width="136.063" height="56.693" x="1875.118" y="1485.354" fill="#333"/><rect width="136.063" height="56.693" x="1875.118" y="1485.354" stroke="#fff" stroke-linecap="round" stroke-linejoin="round" stroke-width="1"/><text fill="#fff" transform="translate(1880.1181 1494.2367)"><tspan x="32.799" y="16" fill="#fff" font-family="Helvetica Neue" font-size="16">Security</tspan> <tspan x="40.063" y="35.464" fill="#fff" font-family="Helvetica Neue" font-size="16">Group</tspan></text></g><g id="Graphic_36"><rect width="136.063" height="56.693" x="2038.11" y="1475.433" fill="#333"/><rect width="136.063" height="56.693" x="2038.11" y="1475.433" stroke="#fff" stroke-linecap="round" stroke-linejoin="round" stroke-width="1"/><text fill="#fff" transform="translate(2043.1103 1494.0475)"><tspan x="36.656" y="16" fill="#fff" font-family="Helvetica Neue" font-size="16">Cluster</tspan></text></g><g id="Graphic_35"><rect width="136.063" height="56.693" x="2052.284" y="1488.189" fill="#333"/><rect width="136.063" height="56.693" x="2052.284" y="1488.189" stroke="#fff" stroke-linecap="round" stroke-linejoin="round" stroke-width="1"/><text fill="#fff" transform="translate(2057.2835 1497.0713)"><tspan x="17.239" y="16" fill="#fff" font-family="Helvetica Neue" font-size="16">Istio Internal</tspan> <tspan x="40.063" y="35.464" fill="#fff" font-family="Helvetica Neue" font-size="16">Group</tspan></text></g><g id="Graphic_38"><rect width="136.063" height="56.693" x="2281.89" y="1472.598" fill="#333"/><rect width="136.063" height="56.693" x="2281.89" y="1472.598" stroke="#fff" stroke-linecap="round" stroke-linejoin="round" stroke-width="1"/><text fill="#fff" transform="translate(2286.8898 1491.2128)"><tspan x="36.656" y="16" fill="#fff" font-family="Helvetica Neue" font-size="16">Cluster</tspan></text></g><g id="Graphic_37"><rect width="136.063" height="56.693" x="2296.063" y="1485.354" fill="#333"/><rect width="136.063" height="56.693" x="2296.063" y="1485.354" stroke="#fff" stroke-linecap="round" stroke-linejoin="round" stroke-width="1"/><text fill="#fff" transform="translate(2301.063 1503.9687)"><tspan x="50.136" y="16" fill="#fff" font-family="Helvetica Neue" font-size="16">API</tspan></text></g><g id="Line_39"><line x1="1676.693" x2="1676.693" y1="1274.173" y2="1332.139" stroke="#000" stroke-linecap="round" stroke-linejoin="round" stroke-width="2" marker-end="url(#FilledArrow_Marker)"/></g><g id="Line_40"><path stroke="#000" stroke-linecap="round" stroke-linejoin="round" stroke-width="2" marker-end="url(#FilledArrow_Marker)" d="M 1676.693 1274.1732 L 1676.693 1303.6585 L 2350.6098 1303.6585 L 2350.6098 1332.1578"/></g><g id="Line_41"><path stroke="#000" stroke-linecap="round" stroke-linejoin="round" stroke-width="2" marker-end="url(#FilledArrow_Marker)" d="M 1676.693 1414.4882 L 1676.693 1443.5433 L 1532.126 1443.5433 L 1532.126 1459.6984"/></g><g id="Line_42"><path stroke="#000" stroke-linecap="round" stroke-linejoin="round" stroke-width="2" marker-end="url(#FilledArrow_Marker)" d="M 1676.693 1414.4882 L 1676.693 1443.5433 L 1737.6378 1443.5433 L 1737.6378 1459.6984"/></g><g id="Line_43"><path stroke="#000" stroke-linecap="round" stroke-linejoin="round" stroke-width="2" marker-end="url(#FilledArrow_Marker)" d="M 1676.693 1414.4882 L 1676.693 1443.5433 L 1928.9764 1443.5433 L 1928.9764 1459.6984"/></g><g id="Line_44"><path stroke="#000" stroke-linecap="round" stroke-linejoin="round" stroke-width="2" marker-end="url(#FilledArrow_Marker)" d="M 1910.5512 1443.5433 L 2106.265 1443.5433 L 2106.265 1462.5337"/></g><g id="Line_45"><line x1="2349.921" x2="2349.921" y1="1414.488" y2="1459.698" stroke="#000" stroke-linecap="round" stroke-linejoin="round" stroke-width="2" marker-end="url(#FilledArrow_Marker)"/></g></g></g></svg>