<?xml version="1.0" encoding="UTF-8" standalone="no"?>
<!DOCTYPE svg PUBLIC "-//W3C//DTD SVG 1.1//EN" "http://www.w3.org/Graphics/SVG/1.1/DTD/svg11.dtd">
<svg xmlns:xl="http://www.w3.org/1999/xlink" version="1.1" xmlns="http://www.w3.org/2000/svg" xmlns:dc="http://purl.org/dc/elements/1.1/" viewBox="632 338 801 312" width="801" height="312">
  <defs>
    <marker orient="auto" overflow="visible" markerUnits="strokeWidth" id="FilledArrow_Marker" stroke-linejoin="miter" stroke-miterlimit="10" viewBox="-1 -3 7 6" markerWidth="7" markerHeight="6" color="#666">
      <g>
        <path d="M 4.8 0 L 0 -1.8 L 0 1.8 Z" fill="currentColor" stroke="currentColor" stroke-width="1"/>
      </g>
    </marker>
  </defs>
  <g id="Canvas_1" fill-opacity="1" stroke-opacity="1" stroke="none" stroke-dasharray="none" fill="none">
    <title>Canvas 1</title>
    <rect fill="white" x="632" y="338" width="801" height="312"/>
    <g id="Canvas_1_Layer_1">
      <title>Layer 1</title>
      <g id="Graphic_24">
        <rect x="632" y="338.487" width="800.5" height="311.026" fill="white"/>
      </g>
      <g id="Graphic_21">
        <path d="M 1161 373.919 L 1406 373.919 C 1410.4183 373.919 1414 377.50073 1414 381.919 L 1414 554.331 C 1414 558.7493 1410.4183 562.331 1406 562.331 L 1161 562.331 C 1156.5817 562.331 1153 558.7493 1153 554.331 L 1153 381.919 C 1153 377.50073 1156.5817 373.919 1161 373.919 Z" fill="white"/>
        <path d="M 1161 373.919 L 1406 373.919 C 1410.4183 373.919 1414 377.50073 1414 381.919 L 1414 554.331 C 1414 558.7493 1410.4183 562.331 1406 562.331 L 1161 562.331 C 1156.5817 562.331 1153 558.7493 1153 554.331 L 1153 381.919 C 1153 377.50073 1156.5817 373.919 1161 373.919 Z" stroke="black" stroke-linecap="round" stroke-linejoin="round" stroke-width="1"/>
        <text transform="translate(1158 378.919)" fill="black">
          <tspan font-family="Helvetica Neue" font-size="16" fill="black" x="65.612" y="16" xml:space="preserve">Egress Gateway</tspan>
        </text>
      </g>
      <g id="Graphic_3">
        <path d="M 668.9997 355.5 L 1053 355.5 C 1057.4183 355.5 1061 359.08172 1061 363.5 L 1061 624.5 C 1061 628.9183 1057.4183 632.5 1053 632.5 L 668.9997 632.5 C 664.5814 632.5 660.9997 628.9183 660.9997 624.5 L 660.9997 363.5 C 660.9997 359.08172 664.5814 355.5 668.9997 355.5 Z" fill="white"/>
        <path d="M 668.9997 355.5 L 1053 355.5 C 1057.4183 355.5 1061 359.08172 1061 363.5 L 1061 624.5 C 1061 628.9183 1057.4183 632.5 1053 632.5 L 668.9997 632.5 C 664.5814 632.5 660.9997 628.9183 660.9997 624.5 L 660.9997 363.5 C 660.9997 359.08172 664.5814 355.5 668.9997 355.5 Z" stroke="black" stroke-linecap="round" stroke-linejoin="round" stroke-width="1"/>
        <text transform="translate(665.9997 360.5)" fill="black">
          <tspan font-family="Helvetica Neue" font-size="16" fill="black" x="180.03215" y="16" xml:space="preserve">Pod</tspan>
        </text>
      </g>
      <g id="Graphic_5">
        <path d="M 687.16185 396.25 L 805 396.25 C 809.4183 396.25 813 399.8317 813 404.25 L 813 532 C 813 536.4183 809.4183 540 805 540 L 687.16185 540 C 682.7436 540 679.16185 536.4183 679.16185 532 L 679.16185 404.25 C 679.16185 399.8317 682.7436 396.25 687.16185 396.25 Z" fill="#f0f0f0"/>
        <path d="M 687.16185 396.25 L 805 396.25 C 809.4183 396.25 813 399.8317 813 404.25 L 813 532 C 813 536.4183 809.4183 540 805 540 L 687.16185 540 C 682.7436 540 679.16185 536.4183 679.16185 532 L 679.16185 404.25 C 679.16185 399.8317 682.7436 396.25 687.16185 396.25 Z" stroke="black" stroke-linecap="round" stroke-linejoin="round" stroke-width="1"/>
        <text transform="translate(684.16185 401.25)" fill="black">
          <tspan font-family="Helvetica Neue" font-size="16" fill="black" x="5.607075" y="15" xml:space="preserve">App Containerd</tspan>
        </text>
      </g>
      <g id="Graphic_6">
        <path d="M 850 396.25 L 1034.224 396.25 C 1038.6423 396.25 1042.224 399.8317 1042.224 404.25 L 1042.224 532 C 1042.224 536.4183 1038.6423 540 1034.224 540 L 850 540 C 845.5817 540 842 536.4183 842 532 L 842 404.25 C 842 399.8317 845.5817 396.25 850 396.25 Z" fill="#f0f0f0"/>
        <path d="M 850 396.25 L 1034.224 396.25 C 1038.6423 396.25 1042.224 399.8317 1042.224 404.25 L 1042.224 532 C 1042.224 536.4183 1038.6423 540 1034.224 540 L 850 540 C 845.5817 540 842 536.4183 842 532 L 842 404.25 C 842 399.8317 845.5817 396.25 850 396.25 Z" stroke="black" stroke-linecap="round" stroke-linejoin="round" stroke-width="1"/>
        <text transform="translate(847 401.25)" fill="black">
          <tspan font-family="Helvetica Neue" font-size="16" fill="black" x="67.856" y="15" xml:space="preserve">Sidecar</tspan>
        </text>
      </g>
      <g id="Graphic_8">
        <rect x="1183.388" y="427.279" width="200.224" height="28.447998" fill="#ffff80"/>
        <text transform="translate(1188.388 432.279)" fill="black">
          <tspan font-family="Helvetica Neue" font-size="16" fill="black" x="0" y="15" xml:space="preserve">K8s Service ExternalName</tspan>
        </text>
      </g>
      <g id="Graphic_9">
        <rect x="1183.388" y="471.529" width="177.2" height="28.447998" fill="#ffff80"/>
        <text transform="translate(1188.388 476.529)" fill="black">
          <tspan font-family="Helvetica Neue" font-size="16" fill="black" x="0" y="15" xml:space="preserve">Outbound Traffic Policy</tspan>
        </text>
      </g>
      <g id="Graphic_10">
        <rect x="1183.388" y="515.779" width="159.936" height="28.447998" fill="#ffff80"/>
        <text transform="translate(1188.388 520.779)" fill="black">
          <tspan font-family="Helvetica Neue" font-size="16" fill="black" x="0" y="15" xml:space="preserve">Service Entry Misuse</tspan>
        </text>
      </g>
      <g id="Graphic_12">
        <rect x="755.83785" y="553.5" width="229.168" height="28.447998" fill="#ffff80"/>
        <text transform="translate(760.83785 558.5)" fill="black">
          <tspan font-family="Helvetica Neue" font-size="16" fill="black" x="0" y="15" xml:space="preserve">NET_ADMIN/NET_RAW Abuse</tspan>
        </text>
      </g>
      <g id="Graphic_13">
        <rect x="755.83785" y="590" width="229.04" height="28.447998" fill="#ffff80"/>
        <text transform="translate(760.83785 595)" fill="black">
          <tspan font-family="Helvetica Neue" font-size="16" fill="black" x="0" y="15" xml:space="preserve">Traffic Redirection Annotations</tspan>
        </text>
      </g>
      <g id="Graphic_14">
        <rect x="695.5769" y="428.052" width="101.008" height="46.895996" fill="#ffff80"/>
        <text transform="translate(700.5769 433.052)" fill="black">
          <tspan font-family="Helvetica Neue" font-size="16" fill="black" x="15.28" y="15" xml:space="preserve">Pod UID</tspan>
          <tspan font-family="Helvetica Neue" font-size="16" fill="black" x="8100187e-19" y="33.448" xml:space="preserve">1337 Misuse</tspan>
        </text>
      </g>
      <g id="Graphic_15">
        <rect x="869.848" y="437.276" width="144.528" height="28.447998" fill="#ffff80"/>
        <text transform="translate(874.848 442.276)" fill="black">
          <tspan font-family="Helvetica Neue" font-size="16" fill="black" x="0" y="15" xml:space="preserve">EnvoyFilter Misuse</tspan>
        </text>
      </g>
      <g id="Graphic_19">
        <rect x="859.448" y="474" width="165.328" height="46.895996" fill="#ffff80"/>
        <text transform="translate(864.448 479)" fill="black">
          <tspan font-family="Helvetica Neue" font-size="16" fill="black" x="6536993e-19" y="15" xml:space="preserve">outboundTrafficPolicy</tspan>
          <tspan font-family="Helvetica Neue" font-size="16" fill="black" x="29.952" y="33.448" xml:space="preserve">ALLOW_ANY</tspan>
        </text>
      </g>
      <g id="Line_22">
        <line x1="813" y1="468.125" x2="829.1" y2="468.125" marker-end="url(#FilledArrow_Marker)" stroke="#666" stroke-linecap="round" stroke-linejoin="round" stroke-width="2"/>
      </g>
      <g id="Line_23">
        <line x1="1042.224" y1="468.125" x2="1140.1" y2="468.125" marker-end="url(#FilledArrow_Marker)" stroke="#666" stroke-linecap="round" stroke-linejoin="round" stroke-width="2"/>
      </g>
    </g>
  </g>
</svg>
