<svg xmlns="http://www.w3.org/2000/svg" xmlns:xl="http://www.w3.org/1999/xlink" width="1639" height="988" version="1.1" viewBox="172 -495 1639 988"><defs><marker id="FilledArrow_Marker" stroke-linejoin="miter" stroke-miterlimit="10" color="#666" markerHeight="6" markerUnits="strokeWidth" markerWidth="7" orient="auto" overflow="visible" viewBox="-1 -3 7 6"><g><path fill="currentColor" stroke="currentColor" stroke-width="1" d="M 4.8 0 L 0 -1.8 L 0 1.8 Z"/></g></marker></defs><g id="Canvas_1" fill="none" fill-opacity="1" stroke="none" stroke-dasharray="none" stroke-opacity="1"><title>Canvas 1</title><rect width="1639" height="988" x="172" y="-495" fill="#fff"/><g id="Canvas_1_Layer_1"><title>Layer 1</title><g id="Graphic_106"><rect width="1638" height="988" x="172.745" y="-495" fill="#fff"/></g><g id="Graphic_86"><path fill="#f1efef" d="M 216 293.5981 L 1539.5 293.5981 C 1541.7091 293.5981 1543.5 295.38894 1543.5 297.5981 L 1543.5 467.5981 C 1543.5 469.8072 1541.7091 471.5981 1539.5 471.5981 L 216 471.5981 C 213.79086 471.5981 212 469.8072 212 467.5981 L 212 297.5981 C 212 295.38894 213.79086 293.5981 216 293.5981 Z"/></g><g id="Graphic_81"><path stroke="#a5a5a5" stroke-linecap="round" stroke-linejoin="round" stroke-width="1" d="M 236.5 312.5981 L 702.5 312.5981 C 704.7091 312.5981 706.5 314.38894 706.5 316.5981 L 706.5 450.5981 C 706.5 452.8072 704.7091 454.5981 702.5 454.5981 L 236.5 454.5981 C 234.29086 454.5981 232.5 452.8072 232.5 450.5981 L 232.5 316.5981 C 232.5 314.38894 234.29086 312.5981 236.5 312.5981 Z"/><text fill="#000" transform="translate(244.5 431.1501)"><tspan x="0" y="15" fill="#000" font-family="Helvetica Neue" font-size="16" xml:space="preserve">Kubernetes Cluster</tspan></text></g><g id="Graphic_28"><path fill="#d9dad9" d="M 247.5 322.5981 L 443.17963 322.5981 C 445.38877 322.5981 447.17963 324.38894 447.17963 326.5981 L 447.17963 422.0981 C 447.17963 424.3072 445.38877 426.0981 443.17963 426.0981 L 247.5 426.0981 C 245.29086 426.0981 243.5 424.3072 243.5 422.0981 L 243.5 326.5981 C 243.5 324.38894 245.29086 322.5981 247.5 322.5981 Z"/><text fill="#000" transform="translate(248.5 402.6501)"><tspan x="4.344" y="15" fill="#000" font-family="Helvetica Neue" font-size="16" xml:space="preserve">App subset 10.200.2.3/30</tspan></text></g><g id="Graphic_90"><path fill="#fff" d="M 257.75135 330.00586 L 432.9283 330.00586 C 435.1374 330.00586 436.9283 331.79672 436.9283 334.00586 L 436.9283 397.1903 C 436.9283 399.39944 435.1374 401.1903 432.9283 401.1903 L 257.75135 401.1903 C 255.5422 401.1903 253.75135 399.39944 253.75135 397.1903 L 253.75135 334.00586 C 253.75135 331.79672 255.5422 330.00586 257.75135 330.00586 Z"/></g><g id="Graphic_83"><path stroke="#a5a5a5" stroke-linecap="round" stroke-linejoin="round" stroke-width="1" d="M 1050.5 312.5981 L 1516.5 312.5981 C 1518.7091 312.5981 1520.5 314.38894 1520.5 316.5981 L 1520.5 450.5981 C 1520.5 452.8072 1518.7091 454.5981 1516.5 454.5981 L 1050.5 454.5981 C 1048.2909 454.5981 1046.5 452.8072 1046.5 450.5981 L 1046.5 316.5981 C 1046.5 314.38894 1048.2909 312.5981 1050.5 312.5981 Z"/><text fill="#000" transform="translate(1058.5 431.1501)"><tspan x="0" y="15" fill="#000" font-family="Helvetica Neue" font-size="16" xml:space="preserve">Kubernetes Cluster</tspan></text></g><g id="Graphic_33"><path fill="#d9dad9" d="M 487.8301 322.5981 L 692.1699 322.5981 C 694.37905 322.5981 696.1699 324.38894 696.1699 326.5981 L 696.1699 422.0981 C 696.1699 424.3072 694.37905 426.0981 692.1699 426.0981 L 487.8301 426.0981 C 485.62095 426.0981 483.8301 424.3072 483.8301 422.0981 L 483.8301 326.5981 C 483.8301 324.38894 485.62095 322.5981 487.8301 322.5981 Z"/><text fill="#000" transform="translate(488.8301 402.6501)"><tspan x="1.418" y="15" fill="#000" font-family="Helvetica Neue" font-size="16" xml:space="preserve">Envoy subset 10.100.2.3/30</tspan></text></g><g id="Graphic_16"><path fill="#f1efef" d="M 214.5 117 L 1538 117 C 1540.2091 117 1542 118.79086 1542 121 L 1542 206 C 1542 208.20914 1540.2091 210 1538 210 L 214.5 210 C 212.29086 210 210.5 208.20914 210.5 206 L 210.5 121 C 210.5 118.79086 212.29086 117 214.5 117 Z"/><text fill="#000" transform="translate(230.5 186.552)"><tspan x="0" y="15" fill="#000" font-family="Helvetica Neue" font-size="16" xml:space="preserve">Coarse-grained network policy (Firewall, F5)</tspan></text></g><g id="Graphic_10"><path fill="#f1efef" d="M 214.5 -135 L 1538 -135 C 1540.2091 -135 1542 -133.20914 1542 -131 L 1542 84 C 1542 86.20914 1540.2091 88 1538 88 L 214.5 88 C 212.29086 88 210.5 86.20914 210.5 84 L 210.5 -131 C 210.5 -133.20914 212.29086 -135 214.5 -135 Z"/><text fill="#000" transform="translate(230.5 64.552)"><tspan x="0" y="15" fill="#000" font-family="Helvetica Neue" font-size="16" xml:space="preserve">Fine-grained network policy [micro-segmentation](PAN, NSX, Aviatrix, CNI in K8s)</tspan></text></g><g id="Graphic_9"><path fill="#f1efef" d="M 214.5 -418 L 1538 -418 C 1540.2091 -418 1542 -416.20914 1542 -414 L 1542 -199 C 1542 -196.79086 1540.2091 -195 1538 -195 L 214.5 -195 C 212.29086 -195 210.5 -196.79086 210.5 -199 L 210.5 -414 C 210.5 -416.20914 212.29086 -418 214.5 -418 Z"/><text fill="#000" transform="translate(230.5 -218.448)"><tspan x="0" y="15" fill="#000" font-family="Helvetica Neue" font-size="16" xml:space="preserve">Identity-based policy [L7 segmentation](service mesh)</tspan></text></g><g id="Graphic_2"><path fill="#fee292" d="M 235 -391.5 L 1515 -391.5 C 1517.2091 -391.5 1519 -389.70914 1519 -387.5 L 1519 -355.5 C 1519 -353.29086 1517.2091 -351.5 1515 -351.5 L 235 -351.5 C 232.79086 -351.5 231 -353.29086 231 -355.5 L 231 -387.5 C 231 -389.70914 232.79086 -391.5 235 -391.5 Z"/><text fill="#666" transform="translate(236 -380.724)"><tspan x="468.776" y="15" fill="#666" font-family="Helvetica Neue" font-size="16" xml:space="preserve">Mesh: authz: Service 1 allowed to call Service 2</tspan></text></g><g id="Graphic_3"><path fill="#9ae48b" d="M 235 -334 L 1515 -334 C 1517.2091 -334 1519 -332.20914 1519 -330 L 1519 -298 C 1519 -295.79086 1517.2091 -294 1515 -294 L 235 -294 C 232.79086 -294 231 -295.79086 231 -298 L 231 -330 C 231 -332.20914 232.79086 -334 235 -334 Z"/><text fill="#666" transform="translate(236 -323.224)"><tspan x="443.856" y="15" fill="#666" font-family="Helvetica Neue" font-size="16" xml:space="preserve">Mesh: expose Service 2 for cross-cluster consumption</tspan></text></g><g id="Graphic_4"><path fill="#b0f59b" d="M 235 -276.5 L 606 -276.5 C 608.20914 -276.5 610 -274.70914 610 -272.5 L 610 -240.5 C 610 -238.29086 608.20914 -236.5 606 -236.5 L 235 -236.5 C 232.79086 -236.5 231 -238.29086 231 -240.5 L 231 -272.5 C 231 -274.70914 232.79086 -276.5 235 -276.5 Z"/><text fill="#666" transform="translate(236 -265.724)"><tspan x="20.844" y="15" fill="#666" font-family="Helvetica Neue" font-size="16" xml:space="preserve">Mesh: Route: Svc 2 -&gt; transit gateway: 15543</tspan></text></g><g id="Graphic_5"><path fill="#b0f59b" d="M 1144 -276.5 L 1515 -276.5 C 1517.2091 -276.5 1519 -274.70914 1519 -272.5 L 1519 -240.5 C 1519 -238.29086 1517.2091 -236.5 1515 -236.5 L 1144 -236.5 C 1141.7909 -236.5 1140 -238.29086 1140 -240.5 L 1140 -272.5 C 1140 -274.70914 1141.7909 -276.5 1144 -276.5 Z"/><text fill="#666" transform="translate(1145 -265.724)"><tspan x="23.068" y="15" fill="#666" font-family="Helvetica Neue" font-size="16" xml:space="preserve">Mesh: Route: transit gateway 15443 -&gt; Svc 2</tspan></text></g><g id="Graphic_6"><path fill="#b0f59b" d="M 634.25 -276.5 L 1118.25 -276.5 C 1120.4591 -276.5 1122.25 -274.70914 1122.25 -272.5 L 1122.25 -240.5 C 1122.25 -238.29086 1120.4591 -236.5 1118.25 -236.5 L 634.25 -236.5 C 632.04086 -236.5 630.25 -238.29086 630.25 -240.5 L 630.25 -272.5 C 630.25 -274.70914 632.04086 -276.5 634.25 -276.5 Z"/><text fill="#666" transform="translate(635.25 -265.724)"><tspan x="16.296" y="15" fill="#666" font-family="Helvetica Neue" font-size="16" xml:space="preserve">Mesh: Route: transit gateway: 15543 -&gt; transit gateway: 15443</tspan></text></g><g id="Graphic_7"><path fill="#96c6ec" d="M 235 -108 L 864.5 -108 C 866.7091 -108 868.5 -106.20914 868.5 -104 L 868.5 -72 C 868.5 -69.79086 866.7091 -68 864.5 -68 L 235 -68 C 232.79086 -68 231 -69.79086 231 -72 L 231 -104 C 231 -106.20914 232.79086 -108 235 -108 Z"/><text fill="#666" transform="translate(236 -97.224)"><tspan x="165.734" y="15" fill="#666" font-family="Helvetica Neue" font-size="16" xml:space="preserve">u-segment: allow app1 to transit gateway</tspan></text></g><g id="Graphic_8"><path fill="#96c6ec" d="M 885.5 -108 L 1515 -108 C 1517.2091 -108 1519 -106.20914 1519 -104 L 1519 -72 C 1519 -69.79086 1517.2091 -68 1515 -68 L 885.5 -68 C 883.2909 -68 881.5 -69.79086 881.5 -72 L 881.5 -104 C 881.5 -106.20914 883.2909 -108 885.5 -108 Z"/><text fill="#666" transform="translate(886.5 -97.224)"><tspan x="165.734" y="15" fill="#666" font-family="Helvetica Neue" font-size="16" xml:space="preserve">u-segment: allow transit gateway to app2</tspan></text></g><g id="Graphic_11"><path fill="#94d8df" d="M 235 -49 L 864.5 -49 C 866.7091 -49 868.5 -47.20914 868.5 -45 L 868.5 -13 C 868.5 -10.790861 866.7091 -9 864.5 -9 L 235 -9 C 232.79086 -9 231 -10.790861 231 -13 L 231 -45 C 231 -47.20914 232.79086 -49 235 -49 Z"/><text fill="#666" transform="translate(236 -38.224)"><tspan x="94.462" y="15" fill="#666" font-family="Helvetica Neue" font-size="16" xml:space="preserve">u-segment: allow 10.200.2.3/30:11553 -&gt; 10.100.2.3/30:8080</tspan></text></g><g id="Graphic_12"><path fill="#94d8df" d="M 885.5 -49 L 1515 -49 C 1517.2091 -49 1519 -47.20914 1519 -45 L 1519 -13 C 1519 -10.790861 1517.2091 -9 1515 -9 L 885.5 -9 C 883.2909 -9 881.5 -10.790861 881.5 -13 L 881.5 -45 C 881.5 -47.20914 883.2909 -49 885.5 -49 Z"/><text fill="#666" transform="translate(886.5 -38.224)"><tspan x="121.47" y="15" fill="#666" font-family="Helvetica Neue" font-size="16" xml:space="preserve">Firewall: allow 10.100.2.3/30:15443 -&gt; 10.1.2.3/15443</tspan></text></g><g id="Graphic_14"><path fill="#94d8df" d="M 235 10 L 864.5 10 C 866.7091 10 868.5 11.790861 868.5 14 L 868.5 46 C 868.5 48.20914 866.7091 50 864.5 50 L 235 50 C 232.79086 50 231 48.20914 231 46 L 231 14 C 231 11.790861 232.79086 10 235 10 Z"/><text fill="#666" transform="translate(236 20.776)"><tspan x="143.422" y="15" fill="#666" font-family="Helvetica Neue" font-size="16" xml:space="preserve">u-segment: allow 10.100.2.3/30:8080 -&gt; firewall</tspan></text></g><g id="Graphic_13"><path fill="#94d8df" d="M 885.5 10 L 1515 10 C 1517.2091 10 1519 11.790861 1519 14 L 1519 46 C 1519 48.20914 1517.2091 50 1515 50 L 885.5 50 C 883.2909 50 881.5 48.20914 881.5 46 L 881.5 14 C 881.5 11.790861 883.2909 10 885.5 10 Z"/><text fill="#666" transform="translate(886.5 20.776)"><tspan x="152.318" y="15" fill="#666" font-family="Helvetica Neue" font-size="16" xml:space="preserve">u-segment: allow firewall -&gt; 10.1.2.3/30:8080</tspan></text></g><g id="Graphic_15"><path fill="#fddfc0" d="M 235 137 L 1515 137 C 1517.2091 137 1519 138.79086 1519 141 L 1519 173 C 1519 175.20914 1517.2091 177 1515 177 L 235 177 C 232.79086 177 231 175.20914 231 173 L 231 141 C 231 138.79086 232.79086 137 235 137 Z"/><text fill="#666" transform="translate(236 147.776)"><tspan x="446.72" y="15" fill="#666" font-family="Helvetica Neue" font-size="16" xml:space="preserve">Firewall: allow 10.100.2.3/30:15443 -&gt; 10.1.2.3/15443</tspan></text></g><g id="Line_18"><path stroke="#000" stroke-dasharray="4 4" stroke-linecap="round" stroke-linejoin="round" stroke-width="1" d="M 212 -168 L 1453 -168.14435 L 1543.5 -168.36735"/></g><g id="Graphic_19"><rect width="52.96" height="29.464" x="847.077" y="-182.809" fill="#fff"/><text fill="#000" transform="translate(852.0771 -177.809)"><tspan x="0" y="16" fill="#000" font-family="Helvetica Neue" font-size="16" xml:space="preserve">mTLS</tspan></text></g><g id="Graphic_26"><path fill="#f2dfe3" d="M 265.5 335.7231 L 316.25 335.7231 C 318.45914 335.7231 320.25 337.51394 320.25 339.7231 L 320.25 390.4731 C 320.25 392.6822 318.45914 394.4731 316.25 394.4731 L 265.5 394.4731 C 263.29086 394.4731 261.5 392.6822 261.5 390.4731 L 261.5 339.7231 C 261.5 337.51394 263.29086 335.7231 265.5 335.7231 Z"/></g><g id="Group_20"><g id="Graphic_25"><path fill="#4a0d66" d="M 272.1043 379.80554 C 272.1043 380.1398 272.18026 380.45883 272.3322 380.7323 C 272.4841 381.00577 272.68162 381.24886 272.9095 381.44636 C 273.1526 381.64387 273.42607 381.7958 273.74512 381.90215 C 274.06417 382.0085 274.3984 382.06927 274.73265 382.06927 C 275.18843 382.06927 275.59864 381.9629 275.93288 381.7502 C 276.26712 381.5375 276.58617 381.24886 276.87483 380.8994 L 277.9991 381.7502 C 277.1787 382.8137 276.02404 383.34546 274.55034 383.34546 C 273.94262 383.34546 273.3805 383.2391 272.87913 383.0264 C 272.37777 382.8137 271.95237 382.52505 271.61813 382.16042 C 271.2687 381.7958 271.0104 381.3552 270.8281 380.86904 C 270.6458 380.36767 270.55463 379.83593 270.55463 379.2434 C 270.55463 378.6661 270.66098 378.11914 270.8585 377.61778 C 271.056 377.1164 271.34466 376.691 271.6941 376.3264 C 272.04352 375.96176 272.46892 375.6731 272.9703 375.4604 C 273.45645 375.2477 274.0034 375.14135 274.58072 375.14135 C 275.2644 375.14135 275.85692 375.2629 276.3279 375.50598 C 276.79887 375.74906 277.1939 376.0681 277.49774 376.44793 C 277.8016 376.84294 278.0295 377.26834 278.16622 377.7697 C 278.30296 378.25587 278.37892 378.75724 278.37892 379.2586 L 278.37892 379.79035 L 272.1043 379.79035 Z M 276.78368 378.6357 C 276.7685 378.30145 276.7229 378.0128 276.63175 377.7393 C 276.5406 377.46585 276.40386 377.22276 276.20635 377.02526 C 276.02404 376.82775 275.78095 376.66063 275.50748 376.5543 C 275.234 376.43274 274.89977 376.38716 274.53514 376.38716 C 274.1705 376.38716 273.83627 376.46312 273.5476 376.59986 C 273.24376 376.7366 272.98548 376.9189 272.78797 377.1316 C 272.57527 377.3443 272.42334 377.5874 272.3018 377.86086 C 272.18026 378.13433 272.13468 378.3926 272.13468 378.6509 L 276.78368 378.6509 Z M 279.63992 375.36924 L 281.11363 375.36924 L 281.11363 376.56947 L 281.144 376.56947 C 281.32633 376.15927 281.66057 375.80983 282.11635 375.56675 C 282.57213 375.30847 283.10388 375.18693 283.7116 375.18693 C 284.0914 375.18693 284.44085 375.2477 284.7903 375.35405 C 285.13972 375.4756 285.44357 375.6427 285.68666 375.8858 C 285.94494 376.1289 286.14244 376.43274 286.30956 376.81256 C 286.4615 377.1924 286.53746 377.63297 286.53746 378.14952 L 286.53746 383.16315 L 285.06375 383.16315 L 285.06375 378.55973 C 285.06375 378.1951 285.01818 377.89125 284.91183 377.63297 C 284.82067 377.3747 284.68393 377.162 284.5168 377.01006 C 284.3497 376.85814 284.16738 376.7366 283.95468 376.66063 C 283.74198 376.58467 283.5141 376.5543 283.2862 376.5543 C 282.98234 376.5543 282.69368 376.59986 282.4354 376.7062 C 282.17712 376.81256 281.94923 376.9645 281.75172 377.1772 C 281.55422 377.3899 281.4023 377.66335 281.29594 377.9976 C 281.1896 378.33184 281.12882 378.71166 281.12882 379.16744 L 281.12882 383.17834 L 279.65512 383.17834 L 279.65512 375.36924 Z M 288.72522 375.36924 L 291.0497 381.34 L 293.28306 375.36924 L 294.8631 375.36924 L 291.80936 383.16315 L 290.18373 383.16315 L 287.00843 375.36924 Z M 294.96946 379.2738 C 294.96946 378.71166 295.0758 378.1799 295.2885 377.67855 C 295.5012 377.1924 295.78987 376.7518 296.1697 376.38716 C 296.5495 376.02253 296.9749 375.71868 297.49146 375.50598 C 297.99283 375.2933 298.53977 375.18693 299.1171 375.18693 C 299.69442 375.18693 300.24136 375.2933 300.74272 375.50598 C 301.2441 375.71868 301.68468 376.00734 302.0645 376.38716 C 302.42912 376.767 302.73298 377.1924 302.94568 377.67855 C 303.15838 378.1647 303.26473 378.69647 303.26473 379.2738 C 303.26473 379.83593 303.15838 380.38287 302.94568 380.86904 C 302.73298 381.3704 302.4443 381.7958 302.0645 382.16042 C 301.68468 382.52505 301.25928 382.8137 300.74272 383.0264 C 300.24136 383.2391 299.69442 383.34546 299.1171 383.34546 C 298.53977 383.34546 297.99283 383.2391 297.49146 383.0264 C 296.9901 382.8137 296.5495 382.52505 296.1697 382.16042 C 295.78987 381.7958 295.5012 381.3552 295.2885 380.86904 C 295.0758 380.36767 294.96946 379.83593 294.96946 379.2738 Z M 296.53432 379.2738 C 296.53432 379.6688 296.5951 380.03343 296.71663 380.36767 C 296.83817 380.7019 297.0053 380.9906 297.2332 381.21847 C 297.4459 381.46155 297.71936 381.64387 298.0384 381.7806 C 298.35745 381.91734 298.7069 381.9933 299.1019 381.9933 C 299.4969 381.9933 299.84635 381.93253 300.1654 381.7806 C 300.48445 381.64387 300.7579 381.46155 300.9706 381.21847 C 301.1833 380.9906 301.36563 380.7019 301.48717 380.36767 C 301.6087 380.03343 301.6695 379.6688 301.6695 379.2738 C 301.6695 378.8788 301.6087 378.51415 301.48717 378.1799 C 301.36563 377.84567 301.1985 377.557 300.9706 377.3291 C 300.7579 377.1012 300.48445 376.9037 300.1654 376.767 C 299.84635 376.63024 299.4969 376.5543 299.1019 376.5543 C 298.7069 376.5543 298.35745 376.63024 298.0384 376.767 C 297.71936 376.9037 297.4459 377.08603 297.2332 377.3291 C 297.0205 377.5722 296.83817 377.84567 296.71663 378.1799 C 296.5951 378.51415 296.53432 378.8788 296.53432 379.2738 Z M 303.3559 375.36924 L 305.05748 375.36924 L 307.3668 381.44636 L 307.39717 381.44636 L 309.61532 375.36924 L 311.19537 375.36924 L 307.50352 384.83436 L 307.0933 385.7611 C 306.95658 386.0346 306.78946 386.27767 306.59195 386.4752 C 306.39445 386.6727 306.15136 386.8246 305.8779 386.93096 C 305.60442 387.0373 305.255 387.0981 304.85997 387.0981 C 304.64727 387.0981 304.41938 387.0829 304.1915 387.0525 C 303.9636 387.0221 303.7509 386.96135 303.5382 386.8854 L 303.7205 385.53323 C 304.00918 385.65477 304.31303 385.71554 304.6017 385.71554 C 304.8296 385.71554 305.0271 385.68515 305.17902 385.6244 C 305.33095 385.5636 305.4677 385.47245 305.58923 385.3661 C 305.71077 385.24456 305.80193 385.123 305.8779 384.9711 C 305.95385 384.81916 306.0298 384.63685 306.1058 384.43934 L 306.59195 383.20873 Z"/></g><g id="Group_21"><g id="Graphic_24"><path fill="#b31aab" d="M 284.49413 362.8688 L 284.44855 360.80256 L 282.27598 359.4504 L 282.32156 361.51663 Z M 287.57827 368.03434 L 287.5327 366.0137 L 285.6336 364.82866 C 285.6032 364.81346 285.57282 364.78308 285.55763 364.7679 L 285.6032 366.8037 Z M 280.7871 370.75385 L 275.81904 367.6697 L 275.6975 362.50416 L 278.12835 361.45585 L 278.08277 359.38963 L 274.1934 361.06084 C 273.88956 361.19758 273.70724 361.47105 273.72244 361.7901 L 273.87436 367.98876 C 273.87436 368.3078 274.07187 368.62686 274.37573 368.80917 L 280.3313 372.501 C 280.60477 372.66814 280.939 372.7137 281.22768 372.63776 C 281.25806 372.62256 281.28845 372.62256 281.31884 372.60737 L 284.9803 371.0273 L 282.99004 369.7967 Z"/></g><g id="Graphic_23"><path fill="#d163ce" d="M 296.84588 359.32886 C 296.8307 358.96424 296.618 358.5844 296.25336 358.3717 L 289.0216 353.88984 L 288.7937 353.981 L 288.83927 356.15357 L 294.56696 359.7087 L 294.7037 365.51233 L 296.89146 366.8645 L 297.013 366.8189 Z M 288.18598 369.52323 L 281.45557 365.3604 L 281.28845 358.3717 L 284.3574 357.04994 L 284.29662 354.6343 L 279.54128 356.6853 C 279.19184 356.83724 278.97914 357.1563 278.99434 357.5361 L 279.19184 365.74022 C 279.19184 366.12004 279.41974 366.48467 279.78436 366.69737 L 287.66943 371.58945 C 287.98848 371.78696 288.3835 371.84773 288.71773 371.7414 C 288.7481 371.7262 288.7785 371.711 288.8089 371.711 L 293.4579 369.70554 L 291.14858 368.2774 Z"/></g><g id="Graphic_22"><path fill="#e13eaf" d="M 307.101 353.586 L 296.9978 347.32655 C 296.618 347.09866 296.1774 347.0379 295.79757 347.15943 C 295.7672 347.17462 295.7216 347.1898 295.69122 347.205 L 285.8311 351.459 C 285.4361 351.6261 285.193 351.99074 285.2082 352.43133 L 285.45128 362.94475 C 285.46647 363.37015 285.72475 363.79555 286.13495 364.03863 L 296.23817 370.29806 C 296.6028 370.52596 297.05858 370.58673 297.4384 370.4652 C 297.4688 370.45 297.51436 370.4348 297.54475 370.4196 L 307.40487 366.16562 C 307.7999 365.9985 308.04297 365.6187 308.02778 365.1933 L 307.7847 354.67987 C 307.7695 354.25447 307.51122 353.84426 307.101 353.586 Z M 296.8307 367.9432 L 288.04925 362.50416 L 287.83655 353.3733 L 296.4053 349.68143 L 305.18672 355.12046 L 305.39942 364.25133 Z"/></g></g></g><g id="Graphic_27"><path fill="#d5f0f8" d="M 345.5 335.7231 L 421.5 335.7231 C 423.70914 335.7231 425.5 337.51394 425.5 339.7231 L 425.5 390.4731 C 425.5 392.6822 423.70914 394.4731 421.5 394.4731 L 345.5 394.4731 C 343.29087 394.4731 341.5 392.6822 341.5 390.4731 L 341.5 339.7231 C 341.5 337.51394 343.29087 335.7231 345.5 335.7231 Z"/><text fill="#000" transform="translate(346.5 346.6501)"><tspan x="3.232" y="15" fill="#000" font-family="Helvetica Neue" font-size="16" xml:space="preserve">Workload</tspan> <tspan x="6.344" y="33.448" fill="#000" font-family="Helvetica Neue" font-size="16" xml:space="preserve">(Service)</tspan></text></g><g id="Group_36"><g id="Graphic_35"><path fill="#fff2c7" d="M 566.5 352.0981 L 643.5 352.0981 C 645.70914 352.0981 647.5 353.88894 647.5 356.0981 L 647.5 392.5981 C 647.5 394.8072 645.70914 396.5981 643.5 396.5981 L 566.5 396.5981 C 564.29086 396.5981 562.5 394.8072 562.5 392.5981 L 562.5 356.0981 C 562.5 353.88894 564.29086 352.0981 566.5 352.0981 Z"/><path stroke="#a5a5a5" stroke-linecap="round" stroke-linejoin="round" stroke-width="1" d="M 566.5 352.0981 L 643.5 352.0981 C 645.70914 352.0981 647.5 353.88894 647.5 356.0981 L 647.5 392.5981 C 647.5 394.8072 645.70914 396.5981 643.5 396.5981 L 566.5 396.5981 C 564.29086 396.5981 562.5 394.8072 562.5 392.5981 L 562.5 356.0981 C 562.5 353.88894 564.29086 352.0981 566.5 352.0981 Z"/></g><g id="Graphic_34"><path fill="#fff2c7" d="M 551.5 342.8481 L 628.5 342.8481 C 630.70914 342.8481 632.5 344.63894 632.5 346.8481 L 632.5 383.3481 C 632.5 385.5572 630.70914 387.3481 628.5 387.3481 L 551.5 387.3481 C 549.29086 387.3481 547.5 385.5572 547.5 383.3481 L 547.5 346.8481 C 547.5 344.63894 549.29086 342.8481 551.5 342.8481 Z"/><path stroke="#a5a5a5" stroke-linecap="round" stroke-linejoin="round" stroke-width="1" d="M 551.5 342.8481 L 628.5 342.8481 C 630.70914 342.8481 632.5 344.63894 632.5 346.8481 L 632.5 383.3481 C 632.5 385.5572 630.70914 387.3481 628.5 387.3481 L 551.5 387.3481 C 549.29086 387.3481 547.5 385.5572 547.5 383.3481 L 547.5 346.8481 C 547.5 344.63894 549.29086 342.8481 551.5 342.8481 Z"/></g><g id="Graphic_32"><path fill="#fff2c7" d="M 536.5 333.5981 L 613.5 333.5981 C 615.70914 333.5981 617.5 335.38894 617.5 337.5981 L 617.5 374.0981 C 617.5 376.30722 615.70914 378.0981 613.5 378.0981 L 536.5 378.0981 C 534.29086 378.0981 532.5 376.30722 532.5 374.0981 L 532.5 337.5981 C 532.5 335.38894 534.29086 333.5981 536.5 333.5981 Z"/><path stroke="#a5a5a5" stroke-linecap="round" stroke-linejoin="round" stroke-width="1" d="M 536.5 333.5981 L 613.5 333.5981 C 615.70914 333.5981 617.5 335.38894 617.5 337.5981 L 617.5 374.0981 C 617.5 376.30722 615.70914 378.0981 613.5 378.0981 L 536.5 378.0981 C 534.29086 378.0981 532.5 376.30722 532.5 374.0981 L 532.5 337.5981 C 532.5 335.38894 534.29086 333.5981 536.5 333.5981 Z"/><text fill="#000" transform="translate(537.5 337.4001)"><tspan x="13.94" y="15" fill="#000" font-family="Helvetica Neue" font-size="16" xml:space="preserve">Transit</tspan> <tspan x="5.956" y="33.448" fill="#000" font-family="Helvetica Neue" font-size="16" xml:space="preserve">Gateway</tspan></text></g></g><g id="Group_55"><g id="Graphic_57"><path fill="#666" d="M 1014.5922 347.13975 L 968.8978 347.13975 C 967.0952 347.13975 965.6339 348.60104 965.6339 350.40364 L 965.6339 383.04253 C 965.6339 384.84512 967.0952 386.3064 968.8978 386.3064 L 1014.5922 386.3064 C 1016.3948 386.3064 1017.8561 384.84512 1017.8561 383.04253 L 1017.8561 350.40364 C 1017.8561 348.60104 1016.3948 347.13975 1014.5922 347.13975 Z M 985.2172 383.04253 L 981.9533 383.04253 L 981.9533 376.51475 L 985.2172 376.51475 Z M 1001.5367 383.04253 L 998.2728 383.04253 L 998.2728 376.51475 L 1001.5367 376.51475 Z M 1014.5922 373.25086 L 968.8978 373.25086 L 968.8978 369.98697 L 973.7936 369.98697 L 973.7936 363.4592 L 977.0575 363.4592 L 977.0575 369.98697 L 990.113 369.98697 L 990.113 363.4592 L 993.377 363.4592 L 993.377 369.98697 L 1006.4325 369.98697 L 1006.4325 363.4592 L 1009.6964 363.4592 L 1009.6964 369.98697 L 1014.5922 369.98697 Z M 1014.5922 360.1953 L 968.8978 360.1953 L 968.8978 356.9314 L 981.9533 356.9314 L 981.9533 350.40364 L 985.2172 350.40364 L 985.2172 356.9314 L 998.2728 356.9314 L 998.2728 350.40364 L 1001.5367 350.40364 L 1001.5367 356.9314 L 1014.5922 356.9314 Z"/></g><g id="Graphic_56"><rect width="58.75" height="58.75" x="962.37" y="337.348" fill="#000" fill-opacity="0"/></g></g><g id="Graphic_72"><path fill="#d9dad9" d="M 1292.5 326.3481 L 1496.8398 326.3481 C 1499.049 326.3481 1500.8398 328.13894 1500.8398 330.3481 L 1500.8398 425.8481 C 1500.8398 428.0572 1499.049 429.8481 1496.8398 429.8481 L 1292.5 429.8481 C 1290.2909 429.8481 1288.5 428.0572 1288.5 425.8481 L 1288.5 330.3481 C 1288.5 328.13894 1290.2909 326.3481 1292.5 326.3481 Z"/><text fill="#000" transform="translate(1293.5 406.4001)"><tspan x="1.418" y="15" fill="#000" font-family="Helvetica Neue" font-size="16" xml:space="preserve">Envoy subset 10.100.2.3/30</tspan></text></g><g id="Graphic_71"><path fill="#d9dad9" d="M 1064.8301 324.5981 L 1260.5097 324.5981 C 1262.7189 324.5981 1264.5097 326.38894 1264.5097 328.5981 L 1264.5097 424.0981 C 1264.5097 426.3072 1262.7189 428.0981 1260.5097 428.0981 L 1064.8301 428.0981 C 1062.621 428.0981 1060.8301 426.3072 1060.8301 424.0981 L 1060.8301 328.5981 C 1060.8301 326.38894 1062.621 324.5981 1064.8301 324.5981 Z"/><text fill="#000" transform="translate(1065.8301 404.6501)"><tspan x="4.344" y="15" fill="#000" font-family="Helvetica Neue" font-size="16" xml:space="preserve">App subset 10.200.2.3/30</tspan></text></g><g id="Group_58"><g id="Graphic_61"><path fill="#fff2c7" d="M 1371.1699 355.8481 L 1448.1699 355.8481 C 1450.379 355.8481 1452.1699 357.63894 1452.1699 359.8481 L 1452.1699 396.3481 C 1452.1699 398.5572 1450.379 400.3481 1448.1699 400.3481 L 1371.1699 400.3481 C 1368.9608 400.3481 1367.1699 398.5572 1367.1699 396.3481 L 1367.1699 359.8481 C 1367.1699 357.63894 1368.9608 355.8481 1371.1699 355.8481 Z"/><path stroke="#a5a5a5" stroke-linecap="round" stroke-linejoin="round" stroke-width="1" d="M 1371.1699 355.8481 L 1448.1699 355.8481 C 1450.379 355.8481 1452.1699 357.63894 1452.1699 359.8481 L 1452.1699 396.3481 C 1452.1699 398.5572 1450.379 400.3481 1448.1699 400.3481 L 1371.1699 400.3481 C 1368.9608 400.3481 1367.1699 398.5572 1367.1699 396.3481 L 1367.1699 359.8481 C 1367.1699 357.63894 1368.9608 355.8481 1371.1699 355.8481 Z"/></g><g id="Graphic_60"><path fill="#fff2c7" d="M 1356.1699 346.5981 L 1433.1699 346.5981 C 1435.379 346.5981 1437.1699 348.38894 1437.1699 350.5981 L 1437.1699 387.0981 C 1437.1699 389.3072 1435.379 391.0981 1433.1699 391.0981 L 1356.1699 391.0981 C 1353.9608 391.0981 1352.1699 389.3072 1352.1699 387.0981 L 1352.1699 350.5981 C 1352.1699 348.38894 1353.9608 346.5981 1356.1699 346.5981 Z"/><path stroke="#a5a5a5" stroke-linecap="round" stroke-linejoin="round" stroke-width="1" d="M 1356.1699 346.5981 L 1433.1699 346.5981 C 1435.379 346.5981 1437.1699 348.38894 1437.1699 350.5981 L 1437.1699 387.0981 C 1437.1699 389.3072 1435.379 391.0981 1433.1699 391.0981 L 1356.1699 391.0981 C 1353.9608 391.0981 1352.1699 389.3072 1352.1699 387.0981 L 1352.1699 350.5981 C 1352.1699 348.38894 1353.9608 346.5981 1356.1699 346.5981 Z"/></g><g id="Graphic_59"><path fill="#fff2c7" d="M 1341.1699 337.3481 L 1418.1699 337.3481 C 1420.379 337.3481 1422.1699 339.13894 1422.1699 341.3481 L 1422.1699 377.8481 C 1422.1699 380.0572 1420.379 381.8481 1418.1699 381.8481 L 1341.1699 381.8481 C 1338.9608 381.8481 1337.1699 380.0572 1337.1699 377.8481 L 1337.1699 341.3481 C 1337.1699 339.13894 1338.9608 337.3481 1341.1699 337.3481 Z"/><path stroke="#a5a5a5" stroke-linecap="round" stroke-linejoin="round" stroke-width="1" d="M 1341.1699 337.3481 L 1418.1699 337.3481 C 1420.379 337.3481 1422.1699 339.13894 1422.1699 341.3481 L 1422.1699 377.8481 C 1422.1699 380.0572 1420.379 381.8481 1418.1699 381.8481 L 1341.1699 381.8481 C 1338.9608 381.8481 1337.1699 380.0572 1337.1699 377.8481 L 1337.1699 341.3481 C 1337.1699 339.13894 1338.9608 337.3481 1341.1699 337.3481 Z"/><text fill="#000" transform="translate(1342.1699 341.1501)"><tspan x="13.94" y="15" fill="#000" font-family="Helvetica Neue" font-size="16" xml:space="preserve">Transit</tspan> <tspan x="5.956" y="33.448" fill="#000" font-family="Helvetica Neue" font-size="16" xml:space="preserve">Gateway</tspan></text></g></g><g id="Graphic_74"><text fill="#000" transform="translate(951.273 401.5981)"><tspan x="6.704" y="15" fill="#000" font-family="Helvetica Neue" font-size="16" xml:space="preserve">Firewall 2</tspan> <tspan x="0" y="33.448" fill="#000" font-family="Helvetica Neue" font-size="16" xml:space="preserve">10.0.0.1/32</tspan></text></g><g id="Line_75"><line x1="320.25" x2="328.6" y1="365.098" y2="365.098" stroke="#666" stroke-linecap="round" stroke-linejoin="round" stroke-width="2" marker-end="url(#FilledArrow_Marker)"/></g><g id="Line_76"><line x1="425.5" x2="470.93" y1="365.098" y2="365.098" stroke="#666" stroke-linecap="round" stroke-linejoin="round" stroke-width="2" marker-end="url(#FilledArrow_Marker)"/></g><g id="Line_77"><line x1="696.17" x2="725.017" y1="369.473" y2="369.473" stroke="#666" stroke-linecap="round" stroke-linejoin="round" stroke-width="2" marker-end="url(#FilledArrow_Marker)"/></g><g id="Line_79"><line x1="796.667" x2="949.47" y1="369.473" y2="369.473" stroke="#666" stroke-linecap="round" stroke-linejoin="round" stroke-width="2" marker-end="url(#FilledArrow_Marker)"/></g><g id="Graphic_82"><text fill="#000" transform="translate(828.0287 401.5981)"><tspan x="0" y="15" fill="#000" font-family="Helvetica Neue" font-size="16" xml:space="preserve">Unbroken e2e</tspan> <tspan x="12.456" y="33.448" fill="#000" font-family="Helvetica Neue" font-size="16" xml:space="preserve">encryption</tspan> <tspan x="12.144" y="51.896" fill="#000" font-family="Helvetica Neue" font-size="16" xml:space="preserve">from mesh</tspan></text></g><g id="Line_87"><path stroke="#666" stroke-linecap="round" stroke-linejoin="round" stroke-width="2" marker-end="url(#FilledArrow_Marker)" d="M 878.2687 396.5981 L 878.2687 393.8246 L 878.3227 383.0356 L 878.3767 388.3731 L 878.3767 382.3731"/></g><g id="Graphic_88"><text fill="#000" transform="translate(218.5 252)"><tspan x="0" y="23" fill="#000" font-family="Helvetica Neue" font-size="24" font-weight="bold" xml:space="preserve">Example Deployment Topology</tspan></text></g><g id="Graphic_99"><path fill="#fff" d="M 1075.27 333.88086 L 1250.447 333.88086 C 1252.6561 333.88086 1254.447 335.67172 1254.447 337.88086 L 1254.447 401.0653 C 1254.447 403.27444 1252.6561 405.0653 1250.447 405.0653 L 1075.27 405.0653 C 1073.0609 405.0653 1071.27 403.27444 1071.27 401.0653 L 1071.27 337.88086 C 1071.27 335.67172 1073.0609 333.88086 1075.27 333.88086 Z"/></g><g id="Graphic_98"><path fill="#f2dfe3" d="M 1084.6437 340.0981 L 1135.3937 340.0981 C 1137.6028 340.0981 1139.3937 341.88894 1139.3937 344.0981 L 1139.3937 394.8481 C 1139.3937 397.0572 1137.6028 398.8481 1135.3937 398.8481 L 1084.6437 398.8481 C 1082.4345 398.8481 1080.6437 397.0572 1080.6437 394.8481 L 1080.6437 344.0981 C 1080.6437 341.88894 1082.4345 340.0981 1084.6437 340.0981 Z"/></g><g id="Group_92"><g id="Graphic_97"><path fill="#4a0d66" d="M 1091.248 384.18054 C 1091.248 384.5148 1091.324 384.83383 1091.4759 385.1073 C 1091.6278 385.38077 1091.8253 385.62386 1092.0532 385.82136 C 1092.2963 386.01887 1092.5698 386.1708 1092.8888 386.27715 C 1093.2079 386.3835 1093.5421 386.44427 1093.8763 386.44427 C 1094.3321 386.44427 1094.7423 386.3379 1095.0766 386.1252 C 1095.4108 385.9125 1095.7299 385.62386 1096.0185 385.2744 L 1097.1428 386.1252 C 1096.3224 387.1887 1095.1677 387.72046 1093.694 387.72046 C 1093.0863 387.72046 1092.5242 387.6141 1092.0228 387.4014 C 1091.5215 387.1887 1091.096 386.90005 1090.7618 386.53542 C 1090.4124 386.1708 1090.1541 385.7302 1089.9718 385.24404 C 1089.7895 384.74267 1089.6983 384.21093 1089.6983 383.6184 C 1089.6983 383.0411 1089.8047 382.49414 1090.0022 381.99278 C 1090.1997 381.4914 1090.4883 381.066 1090.8378 380.7014 C 1091.1872 380.33676 1091.6126 380.0481 1092.114 379.8354 C 1092.6001 379.6227 1093.1471 379.51635 1093.7244 379.51635 C 1094.4081 379.51635 1095.0006 379.6379 1095.4716 379.88098 C 1095.9426 380.12406 1096.3376 380.4431 1096.6414 380.82293 C 1096.9453 381.21794 1097.1732 381.64334 1097.3099 382.1447 C 1097.4466 382.63087 1097.5226 383.13224 1097.5226 383.6336 L 1097.5226 384.16535 L 1091.248 384.16535 Z M 1095.9274 383.0107 C 1095.9122 382.67645 1095.8666 382.3878 1095.7754 382.1143 C 1095.6843 381.84085 1095.5475 381.59776 1095.35 381.40026 C 1095.1677 381.20275 1094.9246 381.03563 1094.6512 380.9293 C 1094.3777 380.80774 1094.0435 380.76216 1093.6788 380.76216 C 1093.3142 380.76216 1092.98 380.83812 1092.6913 380.97486 C 1092.3874 381.1116 1092.1292 381.2939 1091.9317 381.5066 C 1091.719 381.7193 1091.567 381.9624 1091.4455 382.23586 C 1091.324 382.50933 1091.2784 382.7676 1091.2784 383.0259 L 1095.9274 383.0259 Z M 1098.7836 379.74424 L 1100.2573 379.74424 L 1100.2573 380.94447 L 1100.2877 380.94447 C 1100.47 380.53427 1100.8043 380.18483 1101.26 379.94175 C 1101.7158 379.68347 1102.2476 379.56193 1102.8553 379.56193 C 1103.2351 379.56193 1103.5845 379.6227 1103.934 379.72905 C 1104.2834 379.8506 1104.5873 380.0177 1104.8303 380.2608 C 1105.0886 380.5039 1105.2861 380.80774 1105.4532 381.18756 C 1105.6052 381.5674 1105.6811 382.00797 1105.6811 382.52452 L 1105.6811 387.53815 L 1104.2074 387.53815 L 1104.2074 382.93473 C 1104.2074 382.5701 1104.1619 382.26625 1104.0555 382.00797 C 1103.9644 381.7497 1103.8276 381.537 1103.6605 381.38506 C 1103.4934 381.23314 1103.311 381.1116 1103.0984 381.03563 C 1102.8857 380.95967 1102.6578 380.9293 1102.4299 380.9293 C 1102.126 380.9293 1101.8374 380.97486 1101.5791 381.0812 C 1101.3208 381.18756 1101.0929 381.3395 1100.8954 381.5522 C 1100.6979 381.7649 1100.546 382.03835 1100.4396 382.3726 C 1100.3333 382.70684 1100.2725 383.08666 1100.2725 383.54244 L 1100.2725 387.55334 L 1098.7988 387.55334 L 1098.7988 379.74424 Z M 1107.8689 379.74424 L 1110.1934 385.715 L 1112.4267 379.74424 L 1114.0068 379.74424 L 1110.953 387.53815 L 1109.3274 387.53815 L 1106.1521 379.74424 Z M 1114.1131 383.6488 C 1114.1131 383.08666 1114.2195 382.5549 1114.4322 382.05355 C 1114.6449 381.5674 1114.9336 381.1268 1115.3134 380.76216 C 1115.6932 380.39753 1116.1186 380.09368 1116.6351 379.88098 C 1117.1365 379.6683 1117.6835 379.56193 1118.2608 379.56193 C 1118.8381 379.56193 1119.385 379.6683 1119.8864 379.88098 C 1120.3878 380.09368 1120.8284 380.38234 1121.2082 380.76216 C 1121.5728 381.142 1121.8767 381.5674 1122.0894 382.05355 C 1122.302 382.5397 1122.4084 383.07147 1122.4084 383.6488 C 1122.4084 384.21093 1122.302 384.75787 1122.0894 385.24404 C 1121.8767 385.7454 1121.588 386.1708 1121.2082 386.53542 C 1120.8284 386.90005 1120.403 387.1887 1119.8864 387.4014 C 1119.385 387.6141 1118.8381 387.72046 1118.2608 387.72046 C 1117.6835 387.72046 1117.1365 387.6141 1116.6351 387.4014 C 1116.1338 387.1887 1115.6932 386.90005 1115.3134 386.53542 C 1114.9336 386.1708 1114.6449 385.7302 1114.4322 385.24404 C 1114.2195 384.74267 1114.1131 384.21093 1114.1131 383.6488 Z M 1115.678 383.6488 C 1115.678 384.0438 1115.7388 384.40843 1115.8603 384.74267 C 1115.9819 385.0769 1116.149 385.3656 1116.3769 385.59347 C 1116.5896 385.83655 1116.863 386.01887 1117.1821 386.1556 C 1117.5011 386.29234 1117.8506 386.3683 1118.2456 386.3683 C 1118.6406 386.3683 1118.99 386.30753 1119.3091 386.1556 C 1119.6281 386.01887 1119.9016 385.83655 1120.1143 385.59347 C 1120.327 385.3656 1120.5093 385.0769 1120.6309 384.74267 C 1120.7524 384.40843 1120.8132 384.0438 1120.8132 383.6488 C 1120.8132 383.2538 1120.7524 382.88915 1120.6309 382.5549 C 1120.5093 382.22067 1120.3422 381.932 1120.1143 381.7041 C 1119.9016 381.4762 1119.6281 381.2787 1119.3091 381.142 C 1118.99 381.00524 1118.6406 380.9293 1118.2456 380.9293 C 1117.8506 380.9293 1117.5011 381.00524 1117.1821 381.142 C 1116.863 381.2787 1116.5896 381.46103 1116.3769 381.7041 C 1116.1642 381.9472 1115.9819 382.22067 1115.8603 382.5549 C 1115.7388 382.88915 1115.678 383.2538 1115.678 383.6488 Z M 1122.4996 379.74424 L 1124.2012 379.74424 L 1126.5105 385.82136 L 1126.5409 385.82136 L 1128.759 379.74424 L 1130.339 379.74424 L 1126.6472 389.20936 L 1126.237 390.1361 C 1126.1003 390.4096 1125.9331 390.65267 1125.7356 390.8502 C 1125.5381 391.0477 1125.295 391.1996 1125.0216 391.30596 C 1124.7481 391.4123 1124.3987 391.4731 1124.0037 391.4731 C 1123.791 391.4731 1123.563 391.4579 1123.3352 391.4275 C 1123.1073 391.3971 1122.8946 391.33635 1122.6819 391.2604 L 1122.8642 389.90823 C 1123.1529 390.02977 1123.4567 390.09054 1123.7454 390.09054 C 1123.9733 390.09054 1124.1708 390.06015 1124.3227 389.9994 C 1124.4746 389.9386 1124.6114 389.84745 1124.7329 389.7411 C 1124.8545 389.61956 1124.9456 389.498 1125.0216 389.3461 C 1125.0975 389.19416 1125.1735 389.01185 1125.2495 388.81434 L 1125.7356 387.58373 Z"/></g><g id="Group_93"><g id="Graphic_96"><path fill="#b31aab" d="M 1103.6378 367.2438 L 1103.5922 365.17756 L 1101.4197 363.8254 L 1101.4652 365.89163 Z M 1106.722 372.40934 L 1106.6764 370.3887 L 1104.7773 369.20366 C 1104.7469 369.18846 1104.7165 369.15808 1104.7013 369.1429 L 1104.7469 371.1787 Z M 1099.9308 375.12885 L 1094.9627 372.0447 L 1094.8412 366.87916 L 1097.272 365.83085 L 1097.2265 363.76463 L 1093.3371 365.43584 C 1093.0332 365.57258 1092.8509 365.84605 1092.8661 366.1651 L 1093.018 372.36376 C 1093.018 372.6828 1093.2156 373.00186 1093.5194 373.18417 L 1099.475 376.876 C 1099.7485 377.04314 1100.0827 377.0887 1100.3714 377.01276 C 1100.4017 376.99756 1100.4321 376.99756 1100.4625 376.98237 L 1104.124 375.4023 L 1102.1337 374.1717 Z"/></g><g id="Graphic_95"><path fill="#d163ce" d="M 1115.9896 363.70386 C 1115.9744 363.33924 1115.7617 362.9594 1115.397 362.7467 L 1108.1653 358.26484 L 1107.9374 358.356 L 1107.983 360.52857 L 1113.7106 364.0837 L 1113.8474 369.88733 L 1116.0351 371.2395 L 1116.1567 371.1939 Z M 1107.3297 373.89823 L 1100.5993 369.7354 L 1100.4321 362.7467 L 1103.5011 361.42494 L 1103.4403 359.0093 L 1098.685 361.0603 C 1098.3355 361.21224 1098.1228 361.5313 1098.138 361.9111 L 1098.3355 370.11522 C 1098.3355 370.49504 1098.5634 370.85967 1098.928 371.07237 L 1106.8131 375.96445 C 1107.1322 376.16196 1107.5272 376.22273 1107.8614 376.1164 C 1107.8918 376.1012 1107.9222 376.086 1107.9526 376.086 L 1112.6016 374.08054 L 1110.2923 372.6524 Z"/></g><g id="Graphic_94"><path fill="#e13eaf" d="M 1126.2447 357.961 L 1116.1415 351.70155 C 1115.7617 351.47366 1115.3211 351.4129 1114.9413 351.53443 C 1114.9109 351.54962 1114.8653 351.5648 1114.8349 351.58 L 1104.9748 355.834 C 1104.5798 356.0011 1104.3367 356.36574 1104.3519 356.80633 L 1104.595 367.31975 C 1104.6102 367.74515 1104.8684 368.17055 1105.2786 368.41363 L 1115.3819 374.67306 C 1115.7465 374.90096 1116.2023 374.96173 1116.5821 374.8402 C 1116.6125 374.825 1116.658 374.8098 1116.6884 374.7946 L 1126.5486 370.54062 C 1126.9436 370.3735 1127.1867 369.9937 1127.1715 369.5683 L 1126.9284 359.05487 C 1126.9132 358.62947 1126.6549 358.21926 1126.2447 357.961 Z M 1115.9744 372.3182 L 1107.1929 366.87916 L 1106.9802 357.7483 L 1115.549 354.05643 L 1124.3304 359.49546 L 1124.5431 368.62633 Z"/></g></g></g><g id="Graphic_91"><path fill="#d5f0f8" d="M 1163.0187 339.5981 L 1239.0187 339.5981 C 1241.2278 339.5981 1243.0187 341.38894 1243.0187 343.5981 L 1243.0187 394.3481 C 1243.0187 396.5572 1241.2278 398.3481 1239.0187 398.3481 L 1163.0187 398.3481 C 1160.8096 398.3481 1159.0187 396.5572 1159.0187 394.3481 L 1159.0187 343.5981 C 1159.0187 341.38894 1160.8096 339.5981 1163.0187 339.5981 Z"/><text fill="#000" transform="translate(1164.0187 350.5251)"><tspan x="3.232" y="15" fill="#000" font-family="Helvetica Neue" font-size="16" xml:space="preserve">Workload</tspan> <tspan x="6.344" y="33.448" fill="#000" font-family="Helvetica Neue" font-size="16" xml:space="preserve">(Service)</tspan></text></g><g id="Line_100"><line x1="1021.12" x2="1067.744" y1="366.723" y2="366.723" stroke="#666" stroke-linecap="round" stroke-linejoin="round" stroke-width="2" marker-end="url(#FilledArrow_Marker)"/></g><g id="Graphic_101"><text fill="#000" transform="translate(217 -467.5981)"><tspan x="0" y="23" fill="#000" font-family="Helvetica Neue" font-size="24" font-weight="bold" xml:space="preserve">Example Policy at Each Layer</tspan></text></g><g id="Group_39"><g id="Graphic_38"><path fill="#666" d="M 790.1396 349.88975 L 744.44515 349.88975 C 742.64255 349.88975 741.1813 351.35104 741.1813 353.15364 L 741.1813 385.79253 C 741.1813 387.59512 742.64255 389.0564 744.44515 389.0564 L 790.1396 389.0564 C 791.9422 389.0564 793.4035 387.59512 793.4035 385.79253 L 793.4035 353.15364 C 793.4035 351.35104 791.9422 349.88975 790.1396 349.88975 Z M 760.7646 385.79253 L 757.5007 385.79253 L 757.5007 379.26475 L 760.7646 379.26475 Z M 777.084 385.79253 L 773.82015 385.79253 L 773.82015 379.26475 L 777.084 379.26475 Z M 790.1396 376.00086 L 744.44515 376.00086 L 744.44515 372.73697 L 749.341 372.73697 L 749.341 366.2092 L 752.6049 366.2092 L 752.6049 372.73697 L 765.6604 372.73697 L 765.6604 366.2092 L 768.9243 366.2092 L 768.9243 372.73697 L 781.9799 372.73697 L 781.9799 366.2092 L 785.2438 366.2092 L 785.2438 372.73697 L 790.1396 372.73697 Z M 790.1396 362.9453 L 744.44515 362.9453 L 744.44515 359.6814 L 757.5007 359.6814 L 757.5007 353.15364 L 760.7646 353.15364 L 760.7646 359.6814 L 773.82015 359.6814 L 773.82015 353.15364 L 777.084 353.15364 L 777.084 359.6814 L 790.1396 359.6814 Z"/></g><g id="Graphic_37"><rect width="58.75" height="58.75" x="737.917" y="340.098" fill="#000" fill-opacity="0"/></g></g><g id="Graphic_73"><rect width="90.944" height="46.896" x="721.82" y="396.598" fill="#f2efef"/><text fill="#000" transform="translate(726.8204 401.5981)"><tspan x="6.704" y="15" fill="#000" font-family="Helvetica Neue" font-size="16" xml:space="preserve">Firewall 1</tspan> <tspan x="0" y="33.448" fill="#000" font-family="Helvetica Neue" font-size="16" xml:space="preserve">10.0.0.2/32</tspan></text></g><g id="Graphic_107"><rect width="212.128" height="121.256" x="1560" y="-391.5" fill="#fff"/><text fill="#000" transform="translate(1565 -386.5)"><tspan x="0" y="16" fill="#000" font-family="Helvetica Neue" font-size="16" font-weight="bold" xml:space="preserve">L7</tspan> <tspan x="0" y="52.464" fill="#000" font-family="Helvetica Neue" font-size="16" xml:space="preserve">Fine-grained identity-based</tspan> <tspan x="0" y="70.912" fill="#000" font-family="Helvetica Neue" font-size="16" xml:space="preserve">policy enforced by the</tspan> <tspan x="0" y="89.36" fill="#000" font-family="Helvetica Neue" font-size="16" xml:space="preserve">service mesh in the platform</tspan> <tspan x="0" y="107.808" fill="#000" font-family="Helvetica Neue" font-size="16" xml:space="preserve">layer.</tspan></text></g><g id="Graphic_109"><rect width="212.128" height="121.256" x="1560" y="-108" fill="#fff"/><text fill="#000" transform="translate(1565 -103)"><tspan x="0" y="16" fill="#000" font-family="Helvetica Neue" font-size="16" font-weight="bold" xml:space="preserve">L3/L4</tspan> <tspan x="0" y="53.464" fill="#000" font-family="Helvetica Neue" font-size="16" xml:space="preserve">Fine-grained network policy</tspan> <tspan x="0" y="71.912" fill="#000" font-family="Helvetica Neue" font-size="16" xml:space="preserve">enforced in the platform</tspan> <tspan x="0" y="90.36" fill="#000" font-family="Helvetica Neue" font-size="16" xml:space="preserve">layer.</tspan></text></g><g id="Graphic_110"><rect width="212.128" height="121.256" x="1560" y="117" fill="#fff"/><text fill="#000" transform="translate(1565 122)"><tspan x="0" y="15" fill="#000" font-family="Helvetica Neue" font-size="16" xml:space="preserve">Coarse-grained network</tspan> <tspan x="0" y="33.448" fill="#000" font-family="Helvetica Neue" font-size="16" xml:space="preserve">policy enforced by firewalls</tspan> <tspan x="0" y="51.896" fill="#000" font-family="Helvetica Neue" font-size="16" xml:space="preserve">and routers at the</tspan> <tspan x="0" y="70.344" fill="#000" font-family="Helvetica Neue" font-size="16" xml:space="preserve">infrastructure layer.</tspan></text></g></g></g></svg>