<svg xmlns="http://www.w3.org/2000/svg" xmlns:xl="http://www.w3.org/1999/xlink" width="1302" height="532" version="1.1" viewBox="-3728 2609 1302 532"><defs><marker id="FilledArrow_Marker" stroke-linejoin="miter" stroke-miterlimit="10" color="#000" markerHeight="8" markerUnits="strokeWidth" markerWidth="10" orient="auto" overflow="visible" viewBox="-1 -4 10 8"><g><path fill="currentColor" stroke="currentColor" stroke-width="1" d="M 8 0 L 0 -3 L 0 3 Z"/></g></marker><marker id="FilledArrow_Marker_2" stroke-linejoin="miter" stroke-miterlimit="10" color="#f15623" markerHeight="8" markerUnits="strokeWidth" markerWidth="10" orient="auto" overflow="visible" viewBox="-1 -4 10 8"><g><path fill="currentColor" stroke="currentColor" stroke-width="1" d="M 8 0 L 0 -3 L 0 3 Z"/></g></marker></defs><g id="Canvas_35" fill="none" fill-opacity="1" stroke="none" stroke-dasharray="none" stroke-opacity="1"><title>Canvas 35</title><rect width="1302" height="532" x="-3728" y="2609" fill="#fff"/><g id="Canvas_35_Layer_1"><title>Layer 1</title><g id="Graphic_7"><rect width="223.937" height="257.953" x="-3354.803" y="2837.48" stroke="gray" stroke-linecap="round" stroke-linejoin="round" stroke-width="1"/><text fill="#000" transform="translate(-3349.803 2852.4803)"><tspan x="54.841" y="16" fill="#000" font-family="Helvetica Neue" font-size="16" font-weight="bold">API Definition</tspan></text></g><g id="Graphic_47"><path stroke="gray" stroke-linecap="round" stroke-linejoin="round" stroke-width="1" d="M -3071.8425 2780.0788 L -2454.2992 2780.0788 C -2449.881 2780.0788 -2446.2992 2783.6605 -2446.2992 2788.0788 L -2446.2992 3110.819 C -2446.2992 3115.2372 -2449.881 3118.819 -2454.2992 3118.819 L -3071.8425 3118.819 C -3076.261 3118.819 -3079.8425 3115.2372 -3079.8425 3110.819 L -3079.8425 2788.0788 C -3079.8425 2783.6605 -3076.261 2780.0788 -3071.8425 2780.0788 Z"/></g><g id="Graphic_11"><rect width="273.543" height="291.969" x="-3058.583" y="2803.465" fill="#f7f9ff"/><rect width="273.543" height="291.969" x="-3058.583" y="2803.465" stroke="gray" stroke-linecap="round" stroke-linejoin="round" stroke-width="1"/><text fill="#000" transform="translate(-3053.5827 2818.4646)"><tspan x="88.992" y="20" fill="#000" font-family="Helvetica Neue" font-size="20" font-weight="bold">Cluster 1</tspan></text></g><g id="Graphic_2"><circle cx="-3642.52" cy="2765.347" r="70.866" fill="#666"/><circle cx="-3642.52" cy="2765.347" r="70.866" stroke="gray" stroke-linecap="round" stroke-linejoin="round" stroke-width="1"/><text fill="#fff" transform="translate(-3694.2126 2755.6147)"><tspan x="3.037" y="16" fill="#fff" font-family="Helvetica Neue" font-size="16" font-weight="bold">Organization</tspan></text></g><g id="Graphic_3"><circle cx="-3642.52" cy="2966.457" r="70.866" fill="#666"/><circle cx="-3642.52" cy="2966.457" r="70.866" stroke="gray" stroke-linecap="round" stroke-linejoin="round" stroke-width="1"/><text fill="#fff" transform="translate(-3694.2126 2956.7247)"><tspan x="26.205" y="16" fill="#fff" font-family="Helvetica Neue" font-size="16" font-weight="bold">Tenant</tspan></text></g><g id="Graphic_4"><circle cx="-3463.228" cy="2966.457" r="70.866" fill="#666"/><circle cx="-3463.228" cy="2966.457" r="70.866" stroke="gray" stroke-linecap="round" stroke-linejoin="round" stroke-width="1"/><text fill="#fff" transform="translate(-3514.9213 2956.7247)"><tspan x="8.613" y="16" fill="#fff" font-family="Helvetica Neue" font-size="16" font-weight="bold">Application</tspan></text></g><g id="Graphic_5"><path fill="#666" d="M -3319.874 2892.756 L -3165.7953 2892.756 C -3161.377 2892.756 -3157.7953 2896.3377 -3157.7953 2900.756 L -3157.7953 2969.7953 C -3157.7953 2974.2136 -3161.377 2977.7953 -3165.7953 2977.7953 L -3319.874 2977.7953 C -3324.2923 2977.7953 -3327.874 2974.2136 -3327.874 2969.7953 L -3327.874 2900.756 C -3327.874 2896.3377 -3324.2923 2892.756 -3319.874 2892.756 Z"/><path stroke="gray" stroke-linecap="round" stroke-linejoin="round" stroke-width="1" d="M -3319.874 2892.756 L -3165.7953 2892.756 C -3161.377 2892.756 -3157.7953 2896.3377 -3157.7953 2900.756 L -3157.7953 2969.7953 C -3157.7953 2974.2136 -3161.377 2977.7953 -3165.7953 2977.7953 L -3319.874 2977.7953 C -3324.2923 2977.7953 -3327.874 2974.2136 -3327.874 2969.7953 L -3327.874 2900.756 C -3327.874 2896.3377 -3324.2923 2892.756 -3319.874 2892.756 Z"/><text fill="#fff" transform="translate(-3322.874 2925.5436)"><tspan x="46.703" y="16" fill="#fff" font-family="Helvetica Neue" font-size="16">Endpoint</tspan></text></g><g id="Graphic_6"><path fill="#666" d="M -3319.874 2996.2205 L -3165.7953 2996.2205 C -3161.377 2996.2205 -3157.7953 2999.8022 -3157.7953 3004.2205 L -3157.7953 3073.26 C -3157.7953 3077.678 -3161.377 3081.26 -3165.7953 3081.26 L -3319.874 3081.26 C -3324.2923 3081.26 -3327.874 3077.678 -3327.874 3073.26 L -3327.874 3004.2205 C -3327.874 2999.8022 -3324.2923 2996.2205 -3319.874 2996.2205 Z"/><path stroke="gray" stroke-linecap="round" stroke-linejoin="round" stroke-width="1" d="M -3319.874 2996.2205 L -3165.7953 2996.2205 C -3161.377 2996.2205 -3157.7953 2999.8022 -3157.7953 3004.2205 L -3157.7953 3073.26 C -3157.7953 3077.678 -3161.377 3081.26 -3165.7953 3081.26 L -3319.874 3081.26 C -3324.2923 3081.26 -3327.874 3077.678 -3327.874 3073.26 L -3327.874 3004.2205 C -3327.874 2999.8022 -3324.2923 2996.2205 -3319.874 2996.2205 Z"/><text fill="#fff" transform="translate(-3322.874 3029.008)"><tspan x="46.703" y="16" fill="#fff" font-family="Helvetica Neue" font-size="16">Endpoint</tspan></text></g><g id="Line_8"><line x1="-3642.52" x2="-3642.52" y1="2836.213" y2="2885.691" stroke="#000" stroke-linecap="round" stroke-linejoin="round" stroke-width="1" marker-end="url(#FilledArrow_Marker)"/></g><g id="Line_9"><line x1="-3571.653" x2="-3543.995" y1="2966.457" y2="2966.457" stroke="#000" stroke-linecap="round" stroke-linejoin="round" stroke-width="1" marker-end="url(#FilledArrow_Marker)"/></g><g id="Line_10"><line x1="-3392.362" x2="-3364.703" y1="2966.457" y2="2966.457" stroke="#000" stroke-linecap="round" stroke-linejoin="round" stroke-width="1" marker-end="url(#FilledArrow_Marker)"/></g><g id="Group_32"><g id="Graphic_27"><rect width="238.819" height="93.543" x="-3041.22" y="2867.244" fill="#fff"/><rect width="238.819" height="93.543" x="-3041.22" y="2867.244" stroke="gray" stroke-linecap="round" stroke-linejoin="round" stroke-width="1"/><text fill="#000" transform="translate(-3036.2205 2955.7874) rotate(-90)"><tspan x="26.66" y="16" fill="#000" font-family="Helvetica Neue" font-size="16" font-weight="bold">Pod</tspan></text></g><g id="Graphic_29"><path fill="#f15623" d="M -2997.7874 2884.9607 L -2924.496 2884.9607 C -2920.0778 2884.9607 -2916.496 2888.5424 -2916.496 2892.9607 L -2916.496 2935.071 C -2916.496 2939.489 -2920.0778 2943.071 -2924.496 2943.071 L -2997.7874 2943.071 C -3002.2057 2943.071 -3005.7874 2939.489 -3005.7874 2935.071 L -3005.7874 2892.9607 C -3005.7874 2888.5424 -3002.2057 2884.9607 -2997.7874 2884.9607 Z"/><text fill="#fff" transform="translate(-3000.7874 2904.7918)"><tspan x="17.718" y="15" fill="#fff" font-family="Helvetica Neue" font-size="16">Envoy</tspan></text></g><g id="Graphic_28"><path fill="#ccc" d="M -2901.4095 2884.9607 L -2828.118 2884.9607 C -2823.7 2884.9607 -2820.118 2888.5424 -2820.118 2892.9607 L -2820.118 2935.071 C -2820.118 2939.489 -2823.7 2943.071 -2828.118 2943.071 L -2901.4095 2943.071 C -2905.8278 2943.071 -2909.4095 2939.489 -2909.4095 2935.071 L -2909.4095 2892.9607 C -2909.4095 2888.5424 -2905.8278 2884.9607 -2901.4095 2884.9607 Z"/><text fill="#000" transform="translate(-2904.4095 2895.5678)"><tspan x="5.878" y="15" fill="#000" font-family="Helvetica Neue" font-size="16">Workload</tspan> <tspan x="8.99" y="33.448" fill="#000" font-family="Helvetica Neue" font-size="16">(Service)</tspan></text></g></g><g id="Group_33"><g id="Graphic_36"><rect width="238.819" height="93.543" x="-3041.22" y="2986.299" fill="#fff"/><rect width="238.819" height="93.543" x="-3041.22" y="2986.299" stroke="gray" stroke-linecap="round" stroke-linejoin="round" stroke-width="1"/><text fill="#000" transform="translate(-3036.2205 3074.8425) rotate(-90)"><tspan x="26.66" y="16" fill="#000" font-family="Helvetica Neue" font-size="16" font-weight="bold">Pod</tspan></text></g><g id="Graphic_35"><path fill="#f15623" d="M -2997.7874 3004.0158 L -2924.496 3004.0158 C -2920.0778 3004.0158 -2916.496 3007.5975 -2916.496 3012.0158 L -2916.496 3054.126 C -2916.496 3058.5443 -2920.0778 3062.126 -2924.496 3062.126 L -2997.7874 3062.126 C -3002.2057 3062.126 -3005.7874 3058.5443 -3005.7874 3054.126 L -3005.7874 3012.0158 C -3005.7874 3007.5975 -3002.2057 3004.0158 -2997.7874 3004.0158 Z"/><text fill="#fff" transform="translate(-3000.7874 3023.847)"><tspan x="17.718" y="15" fill="#fff" font-family="Helvetica Neue" font-size="16">Envoy</tspan></text></g><g id="Graphic_34"><path fill="#ccc" d="M -2901.4095 3004.0158 L -2828.118 3004.0158 C -2823.7 3004.0158 -2820.118 3007.5975 -2820.118 3012.0158 L -2820.118 3054.126 C -2820.118 3058.5443 -2823.7 3062.126 -2828.118 3062.126 L -2901.4095 3062.126 C -2905.8278 3062.126 -2909.4095 3058.5443 -2909.4095 3054.126 L -2909.4095 3012.0158 C -2909.4095 3007.5975 -2905.8278 3004.0158 -2901.4095 3004.0158 Z"/><text fill="#000" transform="translate(-2904.4095 3014.623)"><tspan x="5.878" y="15" fill="#000" font-family="Helvetica Neue" font-size="16">Workload</tspan> <tspan x="8.99" y="33.448" fill="#000" font-family="Helvetica Neue" font-size="16">(Service)</tspan></text></g></g><g id="Graphic_45"><rect width="273.543" height="291.969" x="-2745.354" y="2803.465" fill="#f7f9ff"/><rect width="273.543" height="291.969" x="-2745.354" y="2803.465" stroke="gray" stroke-linecap="round" stroke-linejoin="round" stroke-width="1"/><text fill="#000" transform="translate(-2740.3544 2818.4646)"><tspan x="88.992" y="20" fill="#000" font-family="Helvetica Neue" font-size="20" font-weight="bold">Cluster 2</tspan></text></g><g id="Group_41"><g id="Graphic_44"><rect width="238.819" height="93.543" x="-2727.992" y="2867.244" fill="#fff"/><rect width="238.819" height="93.543" x="-2727.992" y="2867.244" stroke="gray" stroke-linecap="round" stroke-linejoin="round" stroke-width="1"/><text fill="#000" transform="translate(-2722.992 2955.7874) rotate(-90)"><tspan x="26.66" y="16" fill="#000" font-family="Helvetica Neue" font-size="16" font-weight="bold">Pod</tspan></text></g><g id="Graphic_43"><path fill="#f15623" d="M -2684.559 2884.9607 L -2611.2677 2884.9607 C -2606.8495 2884.9607 -2603.2677 2888.5424 -2603.2677 2892.9607 L -2603.2677 2935.071 C -2603.2677 2939.489 -2606.8495 2943.071 -2611.2677 2943.071 L -2684.559 2943.071 C -2688.9774 2943.071 -2692.559 2939.489 -2692.559 2935.071 L -2692.559 2892.9607 C -2692.559 2888.5424 -2688.9774 2884.9607 -2684.559 2884.9607 Z"/><text fill="#fff" transform="translate(-2687.559 2904.7918)"><tspan x="17.718" y="15" fill="#fff" font-family="Helvetica Neue" font-size="16">Envoy</tspan></text></g><g id="Graphic_42"><path fill="#ccc" d="M -2588.181 2884.9607 L -2514.8898 2884.9607 C -2510.4715 2884.9607 -2506.8898 2888.5424 -2506.8898 2892.9607 L -2506.8898 2935.071 C -2506.8898 2939.489 -2510.4715 2943.071 -2514.8898 2943.071 L -2588.181 2943.071 C -2592.5994 2943.071 -2596.181 2939.489 -2596.181 2935.071 L -2596.181 2892.9607 C -2596.181 2888.5424 -2592.5994 2884.9607 -2588.181 2884.9607 Z"/><text fill="#000" transform="translate(-2591.181 2895.5678)"><tspan x="5.878" y="15" fill="#000" font-family="Helvetica Neue" font-size="16">Workload</tspan> <tspan x="8.99" y="33.448" fill="#000" font-family="Helvetica Neue" font-size="16">(Service)</tspan></text></g></g><g id="Group_37"><g id="Graphic_40"><rect width="238.819" height="93.543" x="-2727.992" y="2986.299" fill="#fff"/><rect width="238.819" height="93.543" x="-2727.992" y="2986.299" stroke="gray" stroke-linecap="round" stroke-linejoin="round" stroke-width="1"/><text fill="#000" transform="translate(-2722.992 3074.8425) rotate(-90)"><tspan x="26.66" y="16" fill="#000" font-family="Helvetica Neue" font-size="16" font-weight="bold">Pod</tspan></text></g><g id="Graphic_39"><path fill="#f15623" d="M -2684.559 3004.0158 L -2611.2677 3004.0158 C -2606.8495 3004.0158 -2603.2677 3007.5975 -2603.2677 3012.0158 L -2603.2677 3054.126 C -2603.2677 3058.5443 -2606.8495 3062.126 -2611.2677 3062.126 L -2684.559 3062.126 C -2688.9774 3062.126 -2692.559 3058.5443 -2692.559 3054.126 L -2692.559 3012.0158 C -2692.559 3007.5975 -2688.9774 3004.0158 -2684.559 3004.0158 Z"/><text fill="#fff" transform="translate(-2687.559 3023.847)"><tspan x="17.718" y="15" fill="#fff" font-family="Helvetica Neue" font-size="16">Envoy</tspan></text></g><g id="Graphic_38"><path fill="#ccc" d="M -2588.181 3004.0158 L -2514.8898 3004.0158 C -2510.4715 3004.0158 -2506.8898 3007.5975 -2506.8898 3012.0158 L -2506.8898 3054.126 C -2506.8898 3058.5443 -2510.4715 3062.126 -2514.8898 3062.126 L -2588.181 3062.126 C -2592.5994 3062.126 -2596.181 3058.5443 -2596.181 3054.126 L -2596.181 3012.0158 C -2596.181 3007.5975 -2592.5994 3004.0158 -2588.181 3004.0158 Z"/><text fill="#000" transform="translate(-2591.181 3014.623)"><tspan x="5.878" y="15" fill="#000" font-family="Helvetica Neue" font-size="16">Workload</tspan> <tspan x="8.99" y="33.448" fill="#000" font-family="Helvetica Neue" font-size="16">(Service)</tspan></text></g></g><g id="Graphic_46"><path fill="#f15623" d="M -3071.8425 2645.842 L -2454.2992 2645.842 C -2449.881 2645.842 -2446.2992 2649.4238 -2446.2992 2653.842 L -2446.2992 2695.9523 C -2446.2992 2700.3706 -2449.881 2703.9523 -2454.2992 2703.9523 L -3071.8425 2703.9523 C -3076.261 2703.9523 -3079.8425 2700.3706 -3079.8425 2695.9523 L -3079.8425 2653.842 C -3079.8425 2649.4238 -3076.261 2645.842 -3071.8425 2645.842 Z"/><text fill="#fff" transform="translate(-3074.8425 2665.165)"><tspan x="249.548" y="16" fill="#fff" font-family="Helvetica Neue" font-size="16" font-weight="bold">Service Registry</tspan></text></g><g id="Graphic_48"><text fill="#000" transform="translate(-2596.3472 2621.378)"><tspan x="0" y="16" fill="#000" font-family="Helvetica Neue" font-size="16">Management Plane</tspan></text></g><g id="Graphic_49"><text fill="#000" transform="translate(-2601.2432 2755.6147)"><tspan x="0" y="16" fill="#000" font-family="Helvetica Neue" font-size="16">Global Control Plane</tspan></text></g><g id="Line_50"><line x1="-2763.071" x2="-2763.071" y1="2703.952" y2="2780.079" stroke="#000" stroke-linecap="round" stroke-linejoin="round" stroke-width="1"/></g><g id="Line_52"><path stroke="#000" stroke-linecap="round" stroke-linejoin="round" stroke-width="1" marker-end="url(#FilledArrow_Marker)" d="M -3571.6535 2765.3467 L -3008.114 2765.3467 L -3008.114 2793.5646"/></g><g id="Line_53"><line x1="-3157.795" x2="-3051.12" y1="2914.016" y2="2914.016" stroke="#000" stroke-dasharray="4 4" stroke-linecap="round" stroke-linejoin="round" stroke-width="1" marker-end="url(#FilledArrow_Marker)"/></g><g id="Line_54"><line x1="-3157.795" x2="-3051.12" y1="3033.071" y2="3033.071" stroke="#000" stroke-dasharray="4 4" stroke-linecap="round" stroke-linejoin="round" stroke-width="1" marker-end="url(#FilledArrow_Marker)"/></g><g id="Line_55"><path stroke="#f15623" stroke-dasharray="4 4" stroke-linecap="round" stroke-linejoin="round" stroke-width="1" marker-end="url(#FilledArrow_Marker_2)" d="M -3463.2284 3037.323 L -3463.2284 3118.819 L -3101.4286 3118.819 L -3101.4286 3057.143 L -3051.1205 3057.143"/></g><g id="Line_57"><path stroke="#f15623" stroke-dasharray="4 4" stroke-linecap="round" stroke-linejoin="round" stroke-width="1" marker-end="url(#FilledArrow_Marker_2)" d="M -3101.3245 3057.143 L -3101.3245 2950.42 L -3051.1205 2950.42"/></g></g></g></svg>